<?xml version="1.0" encoding="UTF-8" standalone="no"?><svg xmlns="http://www.w3.org/2000/svg" xmlns:xlink="http://www.w3.org/1999/xlink" clip-rule="evenodd" stroke-miterlimit="10" viewBox="0 0 1920 1080"><desc>SVG generated by Keynote</desc><defs><linearGradient id="gradSh1.0" x1="0.0" y1="0.0" x2="100.0" y2="0.0" gradientUnits="userSpaceOnUse" gradientTransform="matrix(0.00, -10.82, -19.22, 0.00, 960.0, 1081.0)"><stop offset="0.00000" stop-color="#563D7C"></stop><stop offset="0.01833" stop-color="#563D7D"></stop><stop offset="0.11364" stop-color="#59407F"></stop><stop offset="0.12537" stop-color="#594080"></stop><stop offset="0.14589" stop-color="#5A4080"></stop><stop offset="1.00000" stop-color="#6E5398"></stop></linearGradient></defs><g transform="matrix(1.00, 0.00, -0.00, -1.00, 0.0, 1080.0)"><g><clipPath id="clip0x6000046a38a0"><path d="M 0.0 1080.0 L 1920.0 1080.0 L 1920.0 0.0 L 0.0 0.0 Z M 0.0 1080.0 "></path></clipPath><g clip-path="url(#clip0x6000046a38a0)"><path d="M 0.0 1080.0 L 1920.0 1080.0 L 1920.0 0.0 L 0.0 0.0 Z M 0.0 1080.0 " fill="url(#gradSh1.0)"></path></g></g><g opacity="0.08"><g><clipPath id="clip0x600004ca36c0"><path d="M 0.0 105.0 L 1920.0 105.0 L 1920.0 955.0 L 0.0 955.0 Z M 0.0 105.0 "></path></clipPath><g clip-path="url(#clip0x600004ca36c0)"><image xlink:href="80F4D6EDAA1DC792D76052965B195AAC.png" width="1000.00" height="360.00" transform="matrix(2.35, 0.00, -0.00, -2.35, -206.3, 953.5)"></image></g></g></g><text xml:space="preserve" font-family="Roboto-Medium,Roboto" font-size="115.0" fill="#FFFFFF" transform="matrix(1.00, 0.00, -0.00, -1.00, 322.9, 495.2)">&lt;</text><text xml:space="preserve" font-family="Roboto-Medium,Roboto" font-size="115.0" fill="#FFFFFF" transform="matrix(1.00, 0.00, -0.00, -1.00, 381.4, 495.2)">b</text><text xml:space="preserve" font-family="Roboto-Medium,Roboto" font-size="115.0" fill="#FFFFFF" transform="matrix(1.00, 0.00, -0.00, -1.00, 446.6, 495.2)">o</text><text xml:space="preserve" font-family="Roboto-Medium,Roboto" font-size="115.0" fill="#FFFFFF" transform="matrix(1.00, 0.00, -0.00, -1.00, 511.8, 495.2)">o</text><text xml:space="preserve" font-family="Roboto-Medium,Roboto" font-size="115.0" fill="#FFFFFF" transform="matrix(1.00, 0.00, -0.00, -1.00, 576.9, 495.2)">t</text><text xml:space="preserve" font-family="Roboto-Medium,Roboto" font-size="115.0" fill="#FFFFFF" transform="matrix(1.00, 0.00, -0.00, -1.00, 616.9, 495.2)">s</text><text xml:space="preserve" font-family="Roboto-Medium,Roboto" font-size="115.0" fill="#FFFFFF" transform="matrix(1.00, 0.00, -0.00, -1.00, 676.7, 495.2)">t</text><text xml:space="preserve" font-family="Roboto-Medium,Roboto" font-size="115.0" fill="#FFFFFF" transform="matrix(1.00, 0.00, -0.00, -1.00, 716.6, 495.2)">r</text><text xml:space="preserve" font-family="Roboto-Medium,Roboto" font-size="115.0" fill="#FFFFFF" transform="matrix(1.00, 0.00, -0.00, -1.00, 756.5, 495.2)">a</text><text xml:space="preserve" font-family="Roboto-Medium,Roboto" font-size="115.0" fill="#FFFFFF" transform="matrix(1.00, 0.00, -0.00, -1.00, 819.0, 495.2)">p</text><text xml:space="preserve" font-family="Roboto-Medium,Roboto" font-size="115.0" fill="#FFFFFF" transform="matrix(1.00, 0.00, -0.00, -1.00, 884.2, 495.2)">-</text><text xml:space="preserve" font-family="Roboto-Medium,Roboto" font-size="115.0" fill="#FFFFFF" transform="matrix(1.00, 0.00, -0.00, -1.00, 921.9, 495.2)">e</text><text xml:space="preserve" font-family="Roboto-Medium,Roboto" font-size="115.0" fill="#FFFFFF" transform="matrix(1.00, 0.00, -0.00, -1.00, 982.8, 495.2)">l</text><text xml:space="preserve" font-family="Roboto-Medium,Roboto" font-size="115.0" fill="#FFFFFF" transform="matrix(1.00, 0.00, -0.00, -1.00, 1012.7, 495.2)">e</text><text xml:space="preserve" font-family="Roboto-Medium,Roboto" font-size="115.0" fill="#FFFFFF" transform="matrix(1.00, 0.00, -0.00, -1.00, 1073.6, 495.2)">m</text><text xml:space="preserve" font-family="Roboto-Medium,Roboto" font-size="115.0" fill="#FFFFFF" transform="matrix(1.00, 0.00, -0.00, -1.00, 1173.6, 495.2)">e</text><text xml:space="preserve" font-family="Roboto-Medium,Roboto" font-size="115.0" fill="#FFFFFF" transform="matrix(1.00, 0.00, -0.00, -1.00, 1234.5, 495.2)">n</text><text xml:space="preserve" font-family="Roboto-Medium,Roboto" font-size="115.0" fill="#FFFFFF" transform="matrix(1.00, 0.00, -0.00, -1.00, 1299.6, 495.2)">t</text><text xml:space="preserve" font-family="Roboto-Medium,Roboto" font-size="115.0" fill="#FFFFFF" transform="matrix(1.00, 0.00, -0.00, -1.00, 1339.6, 495.2)">s</text><text xml:space="preserve" font-family="Roboto-Medium,Roboto" font-size="115.0" fill="#FFFFFF" transform="matrix(1.00, 0.00, -0.00, -1.00, 1399.4, 495.2)">&gt;</text><text xml:space="preserve" font-family="Roboto-Medium,Roboto" font-size="115.0" fill="#FFFFFF" transform="matrix(1.00, 0.00, -0.00, -1.00, 1459.2, 495.2)">…</text><text xml:space="preserve" font-family="Roboto-Medium,Roboto" font-size="115.0" fill="#FFFFFF" transform="matrix(1.00, 0.00, -0.00, -1.00, 1540.4, 495.2)">?</text><g opacity="0.08"><g><clipPath id="clip0x6080042b2fc0"><path d="M 0.0 0.0 L 1920.0 0.0 L 1920.0 193.0 L 0.0 193.0 Z M 0.0 0.0 "></path></clipPath><g clip-path="url(#clip0x6080042b2fc0)"><image xlink:href="../../00A2D460-797E-4A3D-8078-6DAE34E3C765/assets/80F4D6EDAA1DC792D76052965B195AAC.png" width="1000.00" height="360.00" transform="matrix(-2.35, 0.00, 0.00, -2.35, 2146.3, 191.5)"></image></g></g></g><g opacity="0.08"><g><clipPath id="clip0x6080042b2ea0"><path d="M 0.0 870.0 L 1920.0 870.0 L 1920.0 1080.0 L 0.0 1080.0 Z M 0.0 870.0 "></path></clipPath><g clip-path="url(#clip0x6080042b2ea0)"><image xlink:href="../../00A2D460-797E-4A3D-8078-6DAE34E3C765/assets/80F4D6EDAA1DC792D76052965B195AAC.png" width="1000.00" height="360.00" transform="matrix(-2.35, 0.00, 0.00, -2.35, 2146.3, 1718.5)"></image></g></g></g></g></svg>