<?xml version="1.0" encoding="UTF-8" standalone="no"?><svg xmlns="http://www.w3.org/2000/svg" xmlns:xlink="http://www.w3.org/1999/xlink" clip-rule="evenodd" stroke-miterlimit="10" viewBox="0 0 1920 1080"><desc>SVG generated by Keynote</desc><defs></defs><g transform="matrix(1.00, 0.00, -0.00, -1.00, 0.0, 1080.0)"><path d="M 0.0 1080.0 L 1920.0 1080.0 L 1920.0 0.0 L 0.0 0.0 Z M 0.0 1080.0 " fill="#03BAD4"></path><g opacity="0.15"><g><clipPath id="clip0x6000040a09c0"><path d="M 1641.0 66.0 L 1762.0 66.0 L 1762.0 155.0 L 1641.0 155.0 Z M 1641.0 66.0 "></path></clipPath><g clip-path="url(#clip0x6000040a09c0)"><image xlink:href="../../44E009EB-8F7C-476D-9312-0913697130E7/assets/39E6F1E8D688E92418FF85A8D116B781.png" width="1000.00" height="729.00" transform="matrix(0.12, 0.00, -0.00, -0.12, 1642.9, 153.6)"></image></g></g></g><text xml:space="preserve" font-family="Roboto-Bold,Roboto" font-weight="bold" font-size="107.0" fill="#FFFFFF" transform="matrix(1.00, 0.00, -0.00, -1.00, 481.0, 667.5)">p</text><text xml:space="preserve" font-family="Roboto-Bold,Roboto" font-weight="bold" font-size="107.0" fill="#FFFFFF" transform="matrix(1.00, 0.00, -0.00, -1.00, 541.5, 667.5)">o</text><text xml:space="preserve" font-family="Roboto-Bold,Roboto" font-weight="bold" font-size="107.0" fill="#FFFFFF" transform="matrix(1.00, 0.00, -0.00, -1.00, 601.9, 667.5)">l</text><text xml:space="preserve" font-family="Roboto-Bold,Roboto" font-weight="bold" font-size="107.0" fill="#FFFFFF" transform="matrix(1.00, 0.00, -0.00, -1.00, 630.5, 667.5)">y</text><text xml:space="preserve" font-family="Roboto-Bold,Roboto" font-weight="bold" font-size="107.0" fill="#FFFFFF" transform="matrix(1.00, 0.00, -0.00, -1.00, 685.1, 667.5)">m</text><text xml:space="preserve" font-family="Roboto-Bold,Roboto" font-weight="bold" font-size="107.0" fill="#FFFFFF" transform="matrix(1.00, 0.00, -0.00, -1.00, 777.7, 667.5)">e</text><text xml:space="preserve" font-family="Roboto-Bold,Roboto" font-weight="bold" font-size="107.0" fill="#FFFFFF" transform="matrix(1.00, 0.00, -0.00, -1.00, 834.4, 667.5)">r</text><text xml:space="preserve" font-family="Roboto-Bold,Roboto" font-weight="bold" font-size="107.0" fill="#FFFFFF" transform="matrix(1.00, 0.00, -0.00, -1.00, 871.9, 667.5)">-</text><text xml:space="preserve" font-family="Roboto-Bold,Roboto" font-weight="bold" font-size="107.0" fill="#FFFFFF" transform="matrix(1.00, 0.00, -0.00, -1.00, 913.7, 667.5)">p</text><text xml:space="preserve" font-family="Roboto-Bold,Roboto" font-weight="bold" font-size="107.0" fill="#FFFFFF" transform="matrix(1.00, 0.00, -0.00, -1.00, 974.2, 667.5)">r</text><text xml:space="preserve" font-family="Roboto-Bold,Roboto" font-weight="bold" font-size="107.0" fill="#FFFFFF" transform="matrix(1.00, 0.00, -0.00, -1.00, 1011.7, 667.5)">o</text><text xml:space="preserve" font-family="Roboto-Bold,Roboto" font-weight="bold" font-size="107.0" fill="#FFFFFF" transform="matrix(1.00, 0.00, -0.00, -1.00, 1072.1, 667.5)">j</text><text xml:space="preserve" font-family="Roboto-Bold,Roboto" font-weight="bold" font-size="107.0" fill="#FFFFFF" transform="matrix(1.00, 0.00, -0.00, -1.00, 1100.5, 667.5)">e</text><text xml:space="preserve" font-family="Roboto-Bold,Roboto" font-weight="bold" font-size="107.0" fill="#FFFFFF" transform="matrix(1.00, 0.00, -0.00, -1.00, 1157.2, 667.5)">c</text><text xml:space="preserve" font-family="Roboto-Bold,Roboto" font-weight="bold" font-size="107.0" fill="#FFFFFF" transform="matrix(1.00, 0.00, -0.00, -1.00, 1212.5, 667.5)">t</text><text xml:space="preserve" font-family="Roboto-Bold,Roboto" font-weight="bold" font-size="107.0" fill="#FFFFFF" transform="matrix(1.00, 0.00, -0.00, -1.00, 1249.9, 667.5)">.</text><text xml:space="preserve" font-family="Roboto-Bold,Roboto" font-weight="bold" font-size="107.0" fill="#FFFFFF" transform="matrix(1.00, 0.00, -0.00, -1.00, 1281.0, 667.5)">o</text><text xml:space="preserve" font-family="Roboto-Bold,Roboto" font-weight="bold" font-size="107.0" fill="#FFFFFF" transform="matrix(1.00, 0.00, -0.00, -1.00, 1341.5, 667.5)">r</text><text xml:space="preserve" font-family="Roboto-Bold,Roboto" font-weight="bold" font-size="107.0" fill="#FFFFFF" transform="matrix(1.00, 0.00, -0.00, -1.00, 1378.9, 667.5)">g</text><g><clipPath id="clip0x6000040a2040"><path d="M 160.0 495.0 L 1762.0 495.0 L 1762.0 -264.0 L 160.0 -264.0 Z M 159.6 495.4 "></path></clipPath><g clip-path="url(#clip0x6000040a2040)"><image xlink:href="../../44E009EB-8F7C-476D-9312-0913697130E7/assets/0AE27D7E41F36A2791434D88B42675FF.png" width="1440.00" height="756.00" transform="matrix(1.11, 0.00, -0.00, -1.11, 159.6, 493.3)"></image></g></g></g></svg>