<?xml version="1.0" encoding="UTF-8" standalone="no"?><svg xmlns="http://www.w3.org/2000/svg" xmlns:xlink="http://www.w3.org/1999/xlink" clip-rule="evenodd" stroke-miterlimit="10" viewBox="0 0 1920 1080"><desc>SVG generated by Keynote</desc><defs></defs><g transform="matrix(1.00, 0.00, -0.00, -1.00, 0.0, 1080.0)"><path d="M 0.0 1080.0 L 1920.0 1080.0 L 1920.0 0.0 L 0.0 0.0 Z M 0.0 1080.0 " fill="#FFFFFF"></path><image xlink:href="../../8F91ED94-F9F3-49CC-84DF-BC593D406D34/assets/A960F58DF2EDA1819FF5E86A9EED6F10.png" width="2560.00" height="1440.00" transform="matrix(0.75, 0.00, -0.00, -0.75, 0.0, 1080.0)"></image><text xml:space="preserve" font-family="Roboto-Medium,Roboto" font-size="116.0" fill="#7E7E7E" transform="matrix(1.00, 0.00, -0.00, -1.00, 153.4, 494.9)">p</text><text xml:space="preserve" font-family="Roboto-Medium,Roboto" font-size="116.0" fill="#7E7E7E" transform="matrix(1.00, 0.00, -0.00, -1.00, 219.1, 494.9)">o</text><text xml:space="preserve" font-family="Roboto-Medium,Roboto" font-size="116.0" fill="#7E7E7E" transform="matrix(1.00, 0.00, -0.00, -1.00, 284.9, 494.9)">l</text><text xml:space="preserve" font-family="Roboto-Medium,Roboto" font-size="116.0" fill="#7E7E7E" transform="matrix(1.00, 0.00, -0.00, -1.00, 315.0, 494.9)">y</text><text xml:space="preserve" font-family="Roboto-Medium,Roboto" font-size="116.0" fill="#7E7E7E" transform="matrix(1.00, 0.00, -0.00, -1.00, 373.7, 494.9)">m</text><text xml:space="preserve" font-family="Roboto-Medium,Roboto" font-size="116.0" fill="#7E7E7E" transform="matrix(1.00, 0.00, -0.00, -1.00, 474.5, 494.9)">e</text><text xml:space="preserve" font-family="Roboto-Medium,Roboto" font-size="116.0" fill="#7E7E7E" transform="matrix(1.00, 0.00, -0.00, -1.00, 536.0, 494.9)">r</text><text xml:space="preserve" font-family="Roboto-Medium,Roboto" font-size="116.0" fill="#7E7E7E" transform="matrix(1.00, 0.00, -0.00, -1.00, 567.1, 494.9)">.</text><text xml:space="preserve" font-family="Roboto-Medium,Roboto" font-size="116.0" fill="#7E7E7E" transform="matrix(1.00, 0.00, -0.00, -1.00, 599.6, 494.9)">j</text><text xml:space="preserve" font-family="Roboto-Medium,Roboto" font-size="116.0" fill="#7E7E7E" transform="matrix(1.00, 0.00, -0.00, -1.00, 630.1, 494.9)">s</text><text xml:space="preserve" font-family="Roboto-Regular,Roboto" font-size="41.0" fill="#7E7E7E" transform="matrix(1.00, 0.00, -0.00, -1.00, 161.2, 350.1)">L</text><text xml:space="preserve" font-family="Roboto-Regular,Roboto" font-size="41.0" fill="#7E7E7E" transform="matrix(1.00, 0.00, -0.00, -1.00, 183.3, 350.1)">i</text><text xml:space="preserve" font-family="Roboto-Regular,Roboto" font-size="41.0" fill="#7E7E7E" transform="matrix(1.00, 0.00, -0.00, -1.00, 193.7, 350.1)">g</text><text xml:space="preserve" font-family="Roboto-Regular,Roboto" font-size="41.0" fill="#7E7E7E" transform="matrix(1.00, 0.00, -0.00, -1.00, 217.0, 350.1)">h</text><text xml:space="preserve" font-family="Roboto-Regular,Roboto" font-size="41.0" fill="#7E7E7E" transform="matrix(1.00, 0.00, -0.00, -1.00, 240.3, 350.1)">t</text><text xml:space="preserve" font-family="Roboto-Regular,Roboto" font-size="41.0" fill="#7E7E7E" transform="matrix(1.00, 0.00, -0.00, -1.00, 254.5, 350.1)">w</text><text xml:space="preserve" font-family="Roboto-Regular,Roboto" font-size="41.0" fill="#7E7E7E" transform="matrix(1.00, 0.00, -0.00, -1.00, 285.5, 350.1)">e</text><text xml:space="preserve" font-family="Roboto-Regular,Roboto" font-size="41.0" fill="#7E7E7E" transform="matrix(1.00, 0.00, -0.00, -1.00, 307.2, 350.1)">i</text><text xml:space="preserve" font-family="Roboto-Regular,Roboto" font-size="41.0" fill="#7E7E7E" transform="matrix(1.00, 0.00, -0.00, -1.00, 317.5, 350.1)">g</text><text xml:space="preserve" font-family="Roboto-Regular,Roboto" font-size="41.0" fill="#7E7E7E" transform="matrix(1.00, 0.00, -0.00, -1.00, 340.8, 350.1)">h</text><text xml:space="preserve" font-family="Roboto-Regular,Roboto" font-size="41.0" fill="#7E7E7E" transform="matrix(1.00, 0.00, -0.00, -1.00, 364.1, 350.1)">t</text><text xml:space="preserve" font-family="Roboto-Regular,Roboto" font-size="41.0" fill="#7E7E7E" transform="matrix(1.00, 0.00, -0.00, -1.00, 378.3, 350.1)">,</text><text xml:space="preserve" font-family="Roboto-Regular,Roboto" font-size="41.0" fill="#7E7E7E" transform="matrix(1.00, 0.00, -0.00, -1.00, 386.4, 350.1)"> </text><text xml:space="preserve" font-family="Roboto-Regular,Roboto" font-size="41.0" fill="#7E7E7E" transform="matrix(1.00, 0.00, -0.00, -1.00, 396.6, 350.1)">o</text><text xml:space="preserve" font-family="Roboto-Regular,Roboto" font-size="41.0" fill="#7E7E7E" transform="matrix(1.00, 0.00, -0.00, -1.00, 419.9, 350.1)">p</text><text xml:space="preserve" font-family="Roboto-Regular,Roboto" font-size="41.0" fill="#7E7E7E" transform="matrix(1.00, 0.00, -0.00, -1.00, 443.2, 350.1)">i</text><text xml:space="preserve" font-family="Roboto-Regular,Roboto" font-size="41.0" fill="#7E7E7E" transform="matrix(1.00, 0.00, -0.00, -1.00, 453.5, 350.1)">n</text><text xml:space="preserve" font-family="Roboto-Regular,Roboto" font-size="41.0" fill="#7E7E7E" transform="matrix(1.00, 0.00, -0.00, -1.00, 476.9, 350.1)">i</text><text xml:space="preserve" font-family="Roboto-Regular,Roboto" font-size="41.0" fill="#7E7E7E" transform="matrix(1.00, 0.00, -0.00, -1.00, 487.2, 350.1)">o</text><text xml:space="preserve" font-family="Roboto-Regular,Roboto" font-size="41.0" fill="#7E7E7E" transform="matrix(1.00, 0.00, -0.00, -1.00, 510.5, 350.1)">n</text><text xml:space="preserve" font-family="Roboto-Regular,Roboto" font-size="41.0" fill="#7E7E7E" transform="matrix(1.00, 0.00, -0.00, -1.00, 533.8, 350.1)">a</text><text xml:space="preserve" font-family="Roboto-Regular,Roboto" font-size="41.0" fill="#7E7E7E" transform="matrix(1.00, 0.00, -0.00, -1.00, 556.4, 350.1)">t</text><text xml:space="preserve" font-family="Roboto-Regular,Roboto" font-size="41.0" fill="#7E7E7E" transform="matrix(1.00, 0.00, -0.00, -1.00, 570.5, 350.1)">e</text><text xml:space="preserve" font-family="Roboto-Regular,Roboto" font-size="41.0" fill="#7E7E7E" transform="matrix(1.00, 0.00, -0.00, -1.00, 592.2, 350.1)">d</text><text xml:space="preserve" font-family="Roboto-Regular,Roboto" font-size="41.0" fill="#7E7E7E" transform="matrix(1.00, 0.00, -0.00, -1.00, 615.5, 350.1)"> </text><text xml:space="preserve" font-family="Roboto-Regular,Roboto" font-size="41.0" fill="#7E7E7E" transform="matrix(1.00, 0.00, -0.00, -1.00, 625.7, 350.1)">s</text><text xml:space="preserve" font-family="Roboto-Regular,Roboto" font-size="41.0" fill="#7E7E7E" transform="matrix(1.00, 0.00, -0.00, -1.00, 647.1, 350.1)">u</text><text xml:space="preserve" font-family="Roboto-Regular,Roboto" font-size="41.0" fill="#7E7E7E" transform="matrix(1.00, 0.00, -0.00, -1.00, 670.4, 350.1)">g</text><text xml:space="preserve" font-family="Roboto-Regular,Roboto" font-size="41.0" fill="#7E7E7E" transform="matrix(1.00, 0.00, -0.00, -1.00, 693.8, 350.1)">a</text><text xml:space="preserve" font-family="Roboto-Regular,Roboto" font-size="41.0" fill="#7E7E7E" transform="matrix(1.00, 0.00, -0.00, -1.00, 716.3, 350.1)">r</text><text xml:space="preserve" font-family="Roboto-Regular,Roboto" font-size="41.0" fill="#7E7E7E" transform="matrix(1.00, 0.00, -0.00, -1.00, 730.3, 350.1)"> </text><text xml:space="preserve" font-family="Roboto-Regular,Roboto" font-size="41.0" fill="#7E7E7E" transform="matrix(1.00, 0.00, -0.00, -1.00, 161.2, 301.5)">o</text><text xml:space="preserve" font-family="Roboto-Regular,Roboto" font-size="41.0" fill="#7E7E7E" transform="matrix(1.00, 0.00, -0.00, -1.00, 184.2, 301.5)">v</text><text xml:space="preserve" font-family="Roboto-Regular,Roboto" font-size="41.0" fill="#7E7E7E" transform="matrix(1.00, 0.00, -0.00, -1.00, 204.6, 301.5)">e</text><text xml:space="preserve" font-family="Roboto-Regular,Roboto" font-size="41.0" fill="#7E7E7E" transform="matrix(1.00, 0.00, -0.00, -1.00, 226.2, 301.5)">r</text><text xml:space="preserve" font-family="Roboto-Regular,Roboto" font-size="41.0" fill="#7E7E7E" transform="matrix(1.00, 0.00, -0.00, -1.00, 240.3, 301.5)"> </text><text xml:space="preserve" font-family="Roboto-Regular,Roboto" font-size="41.0" fill="#7E7E7E" transform="matrix(1.00, 0.00, -0.00, -1.00, 250.5, 301.5)">W</text><text xml:space="preserve" font-family="Roboto-Regular,Roboto" font-size="41.0" fill="#7E7E7E" transform="matrix(1.00, 0.00, -0.00, -1.00, 286.1, 301.5)">e</text><text xml:space="preserve" font-family="Roboto-Regular,Roboto" font-size="41.0" fill="#7E7E7E" transform="matrix(1.00, 0.00, -0.00, -1.00, 307.7, 301.5)">b</text><text xml:space="preserve" font-family="Roboto-Regular,Roboto" font-size="41.0" fill="#7E7E7E" transform="matrix(1.00, 0.00, -0.00, -1.00, 331.1, 301.5)"> </text><text xml:space="preserve" font-family="Roboto-Regular,Roboto" font-size="41.0" fill="#7E7E7E" transform="matrix(1.00, 0.00, -0.00, -1.00, 341.2, 301.5)">C</text><text xml:space="preserve" font-family="Roboto-Regular,Roboto" font-size="41.0" fill="#7E7E7E" transform="matrix(1.00, 0.00, -0.00, -1.00, 367.2, 301.5)">o</text><text xml:space="preserve" font-family="Roboto-Regular,Roboto" font-size="41.0" fill="#7E7E7E" transform="matrix(1.00, 0.00, -0.00, -1.00, 390.5, 301.5)">m</text><text xml:space="preserve" font-family="Roboto-Regular,Roboto" font-size="41.0" fill="#7E7E7E" transform="matrix(1.00, 0.00, -0.00, -1.00, 426.4, 301.5)">p</text><text xml:space="preserve" font-family="Roboto-Regular,Roboto" font-size="41.0" fill="#7E7E7E" transform="matrix(1.00, 0.00, -0.00, -1.00, 449.7, 301.5)">o</text><text xml:space="preserve" font-family="Roboto-Regular,Roboto" font-size="41.0" fill="#7E7E7E" transform="matrix(1.00, 0.00, -0.00, -1.00, 473.0, 301.5)">n</text><text xml:space="preserve" font-family="Roboto-Regular,Roboto" font-size="41.0" fill="#7E7E7E" transform="matrix(1.00, 0.00, -0.00, -1.00, 496.3, 301.5)">e</text><text xml:space="preserve" font-family="Roboto-Regular,Roboto" font-size="41.0" fill="#7E7E7E" transform="matrix(1.00, 0.00, -0.00, -1.00, 518.0, 301.5)">n</text><text xml:space="preserve" font-family="Roboto-Regular,Roboto" font-size="41.0" fill="#7E7E7E" transform="matrix(1.00, 0.00, -0.00, -1.00, 541.3, 301.5)">t</text><text xml:space="preserve" font-family="Roboto-Regular,Roboto" font-size="41.0" fill="#7E7E7E" transform="matrix(1.00, 0.00, -0.00, -1.00, 555.5, 301.5)">s</text><text xml:space="preserve" font-family="Roboto-Regular,Roboto" font-size="41.0" fill="#7E7E7E" transform="matrix(1.00, 0.00, -0.00, -1.00, 576.9, 301.5)">.</text></g></svg>