<?xml version="1.0" encoding="UTF-8" standalone="no"?><svg xmlns="http://www.w3.org/2000/svg" xmlns:xlink="http://www.w3.org/1999/xlink" clip-rule="evenodd" stroke-miterlimit="10" viewBox="0 0 1920 1080"><desc>SVG generated by Keynote</desc><defs></defs><g transform="matrix(1.00, 0.00, -0.00, -1.00, 0.0, 1080.0)"><path d="M 0.0 1080.0 L 1920.0 1080.0 L 1920.0 0.0 L 0.0 0.0 Z M 0.0 1080.0 " fill="#0F9BDF"></path><g><clipPath id="clip0x6000042bfda0"><path d="M 996.5 19.4 L 1604.9 19.4 L 1604.9 1027.8 L 996.5 1027.8 Z M 996.5 19.4 "></path></clipPath><g clip-path="url(#clip0x6000042bfda0)"><image xlink:href="../../3510AF59-3604-4D3D-9E6C-9350B3B160FC/assets/FB0CFC4288C48BCA4229E3FED282C269.png" width="823.00" height="1364.00" transform="matrix(0.74, 0.00, -0.00, -0.74, 996.5, 1027.8)"></image></g></g><g><clipPath id="clip0x6080044aec40"><path d="M 1100.4 243.8 L 1505.9 243.8 L 1505.9 814.1 L 1100.4 814.1 Z M 1100.4 243.8 "></path></clipPath><g clip-path="url(#clip0x6080044aec40)"><image xlink:href="../../3510AF59-3604-4D3D-9E6C-9350B3B160FC/assets/DA308EE31028D750587DEF47831097B0.png" width="512.00" height="720.00" transform="matrix(0.79, 0.00, -0.00, -0.79, 1100.4, 814.1)"></image></g></g><text xml:space="preserve" font-family=".LucidaGrandeUI-Bold,.Lucida Grande UI" font-weight="bold" font-size="120.0" fill="#FFFFFF" transform="matrix(1.00, 0.00, -0.00, -1.00, 207.5, 481.3)">M</text><text xml:space="preserve" font-family=".LucidaGrandeUI-Bold,.Lucida Grande UI" font-weight="bold" font-size="120.0" fill="#FFFFFF" transform="matrix(1.00, 0.00, -0.00, -1.00, 317.1, 481.3)">o</text><text xml:space="preserve" font-family=".LucidaGrandeUI-Bold,.Lucida Grande UI" font-weight="bold" font-size="120.0" fill="#FFFFFF" transform="matrix(1.00, 0.00, -0.00, -1.00, 394.1, 481.3)">z</text><text xml:space="preserve" font-family=".LucidaGrandeUI-Bold,.Lucida Grande UI" font-weight="bold" font-size="120.0" fill="#FFFFFF" transform="matrix(1.00, 0.00, -0.00, -1.00, 465.3, 481.3)">i</text><text xml:space="preserve" font-family=".LucidaGrandeUI-Bold,.Lucida Grande UI" font-weight="bold" font-size="120.0" fill="#FFFFFF" transform="matrix(1.00, 0.00, -0.00, -1.00, 504.7, 481.3)">l</text><text xml:space="preserve" font-family=".LucidaGrandeUI-Bold,.Lucida Grande UI" font-weight="bold" font-size="120.0" fill="#FFFFFF" transform="matrix(1.00, 0.00, -0.00, -1.00, 544.2, 481.3)">l</text><text xml:space="preserve" font-family=".LucidaGrandeUI-Bold,.Lucida Grande UI" font-weight="bold" font-size="120.0" fill="#FFFFFF" transform="matrix(1.00, 0.00, -0.00, -1.00, 583.6, 481.3)">a</text><text xml:space="preserve" font-family=".LucidaGrandeUI-Bold,.Lucida Grande UI" font-weight="bold" font-size="120.0" fill="#FFFFFF" transform="matrix(1.00, 0.00, -0.00, -1.00, 654.4, 481.3)"> </text><text xml:space="preserve" font-family=".LucidaGrandeUI-Bold,.Lucida Grande UI" font-weight="bold" font-size="120.0" fill="#FFFFFF" transform="matrix(1.00, 0.00, -0.00, -1.00, 694.2, 481.3)">B</text><text xml:space="preserve" font-family=".LucidaGrandeUI-Bold,.Lucida Grande UI" font-weight="bold" font-size="120.0" fill="#FFFFFF" transform="matrix(1.00, 0.00, -0.00, -1.00, 770.7, 481.3)">r</text><text xml:space="preserve" font-family=".LucidaGrandeUI-Bold,.Lucida Grande UI" font-weight="bold" font-size="120.0" fill="#FFFFFF" transform="matrix(1.00, 0.00, -0.00, -1.00, 826.0, 481.3)">i</text><text xml:space="preserve" font-family=".LucidaGrandeUI-Bold,.Lucida Grande UI" font-weight="bold" font-size="120.0" fill="#FFFFFF" transform="matrix(1.00, 0.00, -0.00, -1.00, 865.4, 481.3)">c</text><text xml:space="preserve" font-family=".LucidaGrandeUI-Bold,.Lucida Grande UI" font-weight="bold" font-size="120.0" fill="#FFFFFF" transform="matrix(1.00, 0.00, -0.00, -1.00, 929.7, 481.3)">k</text><image xlink:href="../../3510AF59-3604-4D3D-9E6C-9350B3B160FC/assets/7CF95A348349683A9591ED9F94DCB106.png" width="679.00" height="615.00" transform="matrix(1.00, 0.00, -0.00, -1.00, 1291.9, 633.3)" opacity="0.25"></image><image xlink:href="../../3510AF59-3604-4D3D-9E6C-9350B3B160FC/assets/156D96AB5B2B725AEA728E5C075D6F2B.png" width="580.00" height="520.00" transform="matrix(1.07, 0.00, -0.00, -1.07, 1321.9, 618.3)"></image></g></svg>