<?xml version="1.0" encoding="UTF-8" standalone="no"?><svg xmlns="http://www.w3.org/2000/svg" xmlns:xlink="http://www.w3.org/1999/xlink" clip-rule="evenodd" stroke-miterlimit="10" viewBox="0 0 1021 340"><desc>SVG generated by Keynote</desc><defs></defs><g transform="matrix(1.00, 0.00, -0.00, -1.00, 0.0, 340.0)"><path d="M 1.5 7.9 L 1.0 332.1 C 1.0 335.7 4.4 339.0 8.0 339.0 L 1012.5 339.0 C 1016.1 339.0 1019.0 335.7 1019.0 332.1 L 1019.0 7.9 C 1019.0 4.3 1016.1 1.0 1012.5 1.0 L 8.0 1.0 C 4.4 1.0 1.5 4.3 1.5 7.9 Z M 1.5 7.9 " fill="#E7E7E7"></path><g><clipPath id="clip0x6000022bae80"><path d="M 1.5 1.4 L 1019.0 1.4 L 1019.0 338.6 L 1.5 338.6 Z M 1.5 1.4 "></path></clipPath><g clip-path="url(#clip0x6000022bae80)"><text xml:space="preserve" font-family=".LucidaGrandeUI,.Lucida Grande UI" font-size="40.0" fill="#4185F4" transform="matrix(1.00, 0.00, -0.00, -1.00, 21.5, 272.5)">&lt;</text><text xml:space="preserve" font-family=".LucidaGrandeUI,.Lucida Grande UI" font-size="40.0" fill="#4185F4" transform="matrix(1.00, 0.00, -0.00, -1.00, 53.3, 272.5)">p</text><text xml:space="preserve" font-family=".LucidaGrandeUI,.Lucida Grande UI" font-size="40.0" fill="#4185F4" transform="matrix(1.00, 0.00, -0.00, -1.00, 78.5, 272.5)">a</text><text xml:space="preserve" font-family=".LucidaGrandeUI,.Lucida Grande UI" font-size="40.0" fill="#4185F4" transform="matrix(1.00, 0.00, -0.00, -1.00, 100.6, 272.5)">p</text><text xml:space="preserve" font-family=".LucidaGrandeUI,.Lucida Grande UI" font-size="40.0" fill="#4185F4" transform="matrix(1.00, 0.00, -0.00, -1.00, 125.8, 272.5)">e</text><text xml:space="preserve" font-family=".LucidaGrandeUI,.Lucida Grande UI" font-size="40.0" fill="#4185F4" transform="matrix(1.00, 0.00, -0.00, -1.00, 148.1, 272.5)">r</text><text xml:space="preserve" font-family=".LucidaGrandeUI,.Lucida Grande UI" font-size="40.0" fill="#4185F4" transform="matrix(1.00, 0.00, -0.00, -1.00, 164.4, 272.5)">-</text><text xml:space="preserve" font-family=".LucidaGrandeUI,.Lucida Grande UI" font-size="40.0" fill="#4185F4" transform="matrix(1.00, 0.00, -0.00, -1.00, 187.6, 272.5)">i</text><text xml:space="preserve" font-family=".LucidaGrandeUI,.Lucida Grande UI" font-size="40.0" fill="#4185F4" transform="matrix(1.00, 0.00, -0.00, -1.00, 199.1, 272.5)">n</text><text xml:space="preserve" font-family=".LucidaGrandeUI,.Lucida Grande UI" font-size="40.0" fill="#4185F4" transform="matrix(1.00, 0.00, -0.00, -1.00, 224.0, 272.5)">p</text><text xml:space="preserve" font-family=".LucidaGrandeUI,.Lucida Grande UI" font-size="40.0" fill="#4185F4" transform="matrix(1.00, 0.00, -0.00, -1.00, 249.2, 272.5)">u</text><text xml:space="preserve" font-family=".LucidaGrandeUI,.Lucida Grande UI" font-size="40.0" fill="#4185F4" transform="matrix(1.00, 0.00, -0.00, -1.00, 274.0, 272.5)">t</text><text xml:space="preserve" font-family=".LucidaGrandeUI,.Lucida Grande UI" font-size="40.0" fill="#000000" transform="matrix(1.00, 0.00, -0.00, -1.00, 288.9, 272.5)"> </text><text xml:space="preserve" font-family=".LucidaGrandeUI,.Lucida Grande UI" font-size="40.0" fill="#E82663" transform="matrix(1.00, 0.00, -0.00, -1.00, 301.5, 272.5)">ﬂ</text><text xml:space="preserve" font-family=".LucidaGrandeUI,.Lucida Grande UI" font-size="40.0" fill="#E82663" transform="matrix(1.00, 0.00, -0.00, -1.00, 327.4, 272.5)">o</text><text xml:space="preserve" font-family=".LucidaGrandeUI,.Lucida Grande UI" font-size="40.0" fill="#E82663" transform="matrix(1.00, 0.00, -0.00, -1.00, 352.0, 272.5)">a</text><text xml:space="preserve" font-family=".LucidaGrandeUI,.Lucida Grande UI" font-size="40.0" fill="#E82663" transform="matrix(1.00, 0.00, -0.00, -1.00, 374.1, 272.5)">t</text><text xml:space="preserve" font-family=".LucidaGrandeUI,.Lucida Grande UI" font-size="40.0" fill="#E82663" transform="matrix(1.00, 0.00, -0.00, -1.00, 389.1, 272.5)">i</text><text xml:space="preserve" font-family=".LucidaGrandeUI,.Lucida Grande UI" font-size="40.0" fill="#E82663" transform="matrix(1.00, 0.00, -0.00, -1.00, 400.7, 272.5)">n</text><text xml:space="preserve" font-family=".LucidaGrandeUI,.Lucida Grande UI" font-size="40.0" fill="#E82663" transform="matrix(1.00, 0.00, -0.00, -1.00, 425.5, 272.5)">g</text><text xml:space="preserve" font-family=".LucidaGrandeUI,.Lucida Grande UI" font-size="40.0" fill="#E82663" transform="matrix(1.00, 0.00, -0.00, -1.00, 450.4, 272.5)">l</text><text xml:space="preserve" font-family=".LucidaGrandeUI,.Lucida Grande UI" font-size="40.0" fill="#E82663" transform="matrix(1.00, 0.00, -0.00, -1.00, 462.0, 272.5)">a</text><text xml:space="preserve" font-family=".LucidaGrandeUI,.Lucida Grande UI" font-size="40.0" fill="#E82663" transform="matrix(1.00, 0.00, -0.00, -1.00, 484.0, 272.5)">b</text><text xml:space="preserve" font-family=".LucidaGrandeUI,.Lucida Grande UI" font-size="40.0" fill="#E82663" transform="matrix(1.00, 0.00, -0.00, -1.00, 509.2, 272.5)">e</text><text xml:space="preserve" font-family=".LucidaGrandeUI,.Lucida Grande UI" font-size="40.0" fill="#E82663" transform="matrix(1.00, 0.00, -0.00, -1.00, 531.5, 272.5)">l</text><text xml:space="preserve" font-family=".LucidaGrandeUI,.Lucida Grande UI" font-size="40.0" fill="#000000" transform="matrix(1.00, 0.00, -0.00, -1.00, 543.1, 272.5)"></text><text xml:space="preserve" font-family=".LucidaGrandeUI,.Lucida Grande UI" font-size="40.0" fill="#000000" transform="matrix(1.00, 0.00, -0.00, -1.00, 21.5, 216.1)"> </text><text xml:space="preserve" font-family=".LucidaGrandeUI,.Lucida Grande UI" font-size="40.0" fill="#000000" transform="matrix(1.00, 0.00, -0.00, -1.00, 34.2, 216.1)"> </text><text xml:space="preserve" font-family=".LucidaGrandeUI,.Lucida Grande UI" font-size="40.0" fill="#E82663" transform="matrix(1.00, 0.00, -0.00, -1.00, 46.8, 216.1)">l</text><text xml:space="preserve" font-family=".LucidaGrandeUI,.Lucida Grande UI" font-size="40.0" fill="#E82663" transform="matrix(1.00, 0.00, -0.00, -1.00, 58.4, 216.1)">a</text><text xml:space="preserve" font-family=".LucidaGrandeUI,.Lucida Grande UI" font-size="40.0" fill="#E82663" transform="matrix(1.00, 0.00, -0.00, -1.00, 80.5, 216.1)">b</text><text xml:space="preserve" font-family=".LucidaGrandeUI,.Lucida Grande UI" font-size="40.0" fill="#E82663" transform="matrix(1.00, 0.00, -0.00, -1.00, 105.6, 216.1)">e</text><text xml:space="preserve" font-family=".LucidaGrandeUI,.Lucida Grande UI" font-size="40.0" fill="#E82663" transform="matrix(1.00, 0.00, -0.00, -1.00, 127.9, 216.1)">l</text><text xml:space="preserve" font-family=".LucidaGrandeUI,.Lucida Grande UI" font-size="40.0" fill="#A3A3A3" transform="matrix(1.00, 0.00, -0.00, -1.00, 139.5, 216.1)">=</text><text xml:space="preserve" font-family=".LucidaGrandeUI,.Lucida Grande UI" font-size="40.0" fill="#0D9D57" transform="matrix(1.00, 0.00, -0.00, -1.00, 171.3, 216.1)">"</text><text xml:space="preserve" font-family=".LucidaGrandeUI,.Lucida Grande UI" font-size="40.0" fill="#0D9D57" transform="matrix(1.00, 0.00, -0.00, -1.00, 186.2, 216.1)">T</text><text xml:space="preserve" font-family=".LucidaGrandeUI,.Lucida Grande UI" font-size="40.0" fill="#0D9D57" transform="matrix(1.00, 0.00, -0.00, -1.00, 209.2, 216.1)">y</text><text xml:space="preserve" font-family=".LucidaGrandeUI,.Lucida Grande UI" font-size="40.0" fill="#0D9D57" transform="matrix(1.00, 0.00, -0.00, -1.00, 229.8, 216.1)">p</text><text xml:space="preserve" font-family=".LucidaGrandeUI,.Lucida Grande UI" font-size="40.0" fill="#0D9D57" transform="matrix(1.00, 0.00, -0.00, -1.00, 255.0, 216.1)">e</text><text xml:space="preserve" font-family=".LucidaGrandeUI,.Lucida Grande UI" font-size="40.0" fill="#0D9D57" transform="matrix(1.00, 0.00, -0.00, -1.00, 277.3, 216.1)"> </text><text xml:space="preserve" font-family=".LucidaGrandeUI,.Lucida Grande UI" font-size="40.0" fill="#0D9D57" transform="matrix(1.00, 0.00, -0.00, -1.00, 290.0, 216.1)">o</text><text xml:space="preserve" font-family=".LucidaGrandeUI,.Lucida Grande UI" font-size="40.0" fill="#0D9D57" transform="matrix(1.00, 0.00, -0.00, -1.00, 314.6, 216.1)">n</text><text xml:space="preserve" font-family=".LucidaGrandeUI,.Lucida Grande UI" font-size="40.0" fill="#0D9D57" transform="matrix(1.00, 0.00, -0.00, -1.00, 339.4, 216.1)">l</text><text xml:space="preserve" font-family=".LucidaGrandeUI,.Lucida Grande UI" font-size="40.0" fill="#0D9D57" transform="matrix(1.00, 0.00, -0.00, -1.00, 350.9, 216.1)">y</text><text xml:space="preserve" font-family=".LucidaGrandeUI,.Lucida Grande UI" font-size="40.0" fill="#0D9D57" transform="matrix(1.00, 0.00, -0.00, -1.00, 371.5, 216.1)"> </text><text xml:space="preserve" font-family=".LucidaGrandeUI,.Lucida Grande UI" font-size="40.0" fill="#0D9D57" transform="matrix(1.00, 0.00, -0.00, -1.00, 384.2, 216.1)">n</text><text xml:space="preserve" font-family=".LucidaGrandeUI,.Lucida Grande UI" font-size="40.0" fill="#0D9D57" transform="matrix(1.00, 0.00, -0.00, -1.00, 409.0, 216.1)">u</text><text xml:space="preserve" font-family=".LucidaGrandeUI,.Lucida Grande UI" font-size="40.0" fill="#0D9D57" transform="matrix(1.00, 0.00, -0.00, -1.00, 433.8, 216.1)">m</text><text xml:space="preserve" font-family=".LucidaGrandeUI,.Lucida Grande UI" font-size="40.0" fill="#0D9D57" transform="matrix(1.00, 0.00, -0.00, -1.00, 471.1, 216.1)">b</text><text xml:space="preserve" font-family=".LucidaGrandeUI,.Lucida Grande UI" font-size="40.0" fill="#0D9D57" transform="matrix(1.00, 0.00, -0.00, -1.00, 496.3, 216.1)">e</text><text xml:space="preserve" font-family=".LucidaGrandeUI,.Lucida Grande UI" font-size="40.0" fill="#0D9D57" transform="matrix(1.00, 0.00, -0.00, -1.00, 518.6, 216.1)">r</text><text xml:space="preserve" font-family=".LucidaGrandeUI,.Lucida Grande UI" font-size="40.0" fill="#0D9D57" transform="matrix(1.00, 0.00, -0.00, -1.00, 535.0, 216.1)">s</text><text xml:space="preserve" font-family=".LucidaGrandeUI,.Lucida Grande UI" font-size="40.0" fill="#0D9D57" transform="matrix(1.00, 0.00, -0.00, -1.00, 553.5, 216.1)">.</text><text xml:space="preserve" font-family=".LucidaGrandeUI,.Lucida Grande UI" font-size="40.0" fill="#0D9D57" transform="matrix(1.00, 0.00, -0.00, -1.00, 566.2, 216.1)">.</text><text xml:space="preserve" font-family=".LucidaGrandeUI,.Lucida Grande UI" font-size="40.0" fill="#0D9D57" transform="matrix(1.00, 0.00, -0.00, -1.00, 578.8, 216.1)">.</text><text xml:space="preserve" font-family=".LucidaGrandeUI,.Lucida Grande UI" font-size="40.0" fill="#0D9D57" transform="matrix(1.00, 0.00, -0.00, -1.00, 591.5, 216.1)"> </text><text xml:space="preserve" font-family=".LucidaGrandeUI,.Lucida Grande UI" font-size="40.0" fill="#0D9D57" transform="matrix(1.00, 0.00, -0.00, -1.00, 604.2, 216.1)">(</text><text xml:space="preserve" font-family=".LucidaGrandeUI,.Lucida Grande UI" font-size="40.0" fill="#0D9D57" transform="matrix(1.00, 0.00, -0.00, -1.00, 617.2, 216.1)">ﬂ</text><text xml:space="preserve" font-family=".LucidaGrandeUI,.Lucida Grande UI" font-size="40.0" fill="#0D9D57" transform="matrix(1.00, 0.00, -0.00, -1.00, 643.1, 216.1)">o</text><text xml:space="preserve" font-family=".LucidaGrandeUI,.Lucida Grande UI" font-size="40.0" fill="#0D9D57" transform="matrix(1.00, 0.00, -0.00, -1.00, 667.7, 216.1)">a</text><text xml:space="preserve" font-family=".LucidaGrandeUI,.Lucida Grande UI" font-size="40.0" fill="#0D9D57" transform="matrix(1.00, 0.00, -0.00, -1.00, 689.8, 216.1)">t</text><text xml:space="preserve" font-family=".LucidaGrandeUI,.Lucida Grande UI" font-size="40.0" fill="#0D9D57" transform="matrix(1.00, 0.00, -0.00, -1.00, 704.8, 216.1)">i</text><text xml:space="preserve" font-family=".LucidaGrandeUI,.Lucida Grande UI" font-size="40.0" fill="#0D9D57" transform="matrix(1.00, 0.00, -0.00, -1.00, 716.3, 216.1)">n</text><text xml:space="preserve" font-family=".LucidaGrandeUI,.Lucida Grande UI" font-size="40.0" fill="#0D9D57" transform="matrix(1.00, 0.00, -0.00, -1.00, 741.1, 216.1)">g</text><text xml:space="preserve" font-family=".LucidaGrandeUI,.Lucida Grande UI" font-size="40.0" fill="#0D9D57" transform="matrix(1.00, 0.00, -0.00, -1.00, 766.1, 216.1)">)</text><text xml:space="preserve" font-family=".LucidaGrandeUI,.Lucida Grande UI" font-size="40.0" fill="#0D9D57" transform="matrix(1.00, 0.00, -0.00, -1.00, 779.1, 216.1)">"</text><text xml:space="preserve" font-family=".LucidaGrandeUI,.Lucida Grande UI" font-size="40.0" fill="#000000" transform="matrix(1.00, 0.00, -0.00, -1.00, 793.9, 216.1)"></text><text xml:space="preserve" font-family=".LucidaGrandeUI,.Lucida Grande UI" font-size="40.0" fill="#000000" transform="matrix(1.00, 0.00, -0.00, -1.00, 21.5, 159.7)"> </text><text xml:space="preserve" font-family=".LucidaGrandeUI,.Lucida Grande UI" font-size="40.0" fill="#000000" transform="matrix(1.00, 0.00, -0.00, -1.00, 34.2, 159.7)"> </text><text xml:space="preserve" font-family=".LucidaGrandeUI,.Lucida Grande UI" font-size="40.0" fill="#E82663" transform="matrix(1.00, 0.00, -0.00, -1.00, 46.8, 159.7)">v</text><text xml:space="preserve" font-family=".LucidaGrandeUI,.Lucida Grande UI" font-size="40.0" fill="#E82663" transform="matrix(1.00, 0.00, -0.00, -1.00, 67.4, 159.7)">a</text><text xml:space="preserve" font-family=".LucidaGrandeUI,.Lucida Grande UI" font-size="40.0" fill="#E82663" transform="matrix(1.00, 0.00, -0.00, -1.00, 89.5, 159.7)">l</text><text xml:space="preserve" font-family=".LucidaGrandeUI,.Lucida Grande UI" font-size="40.0" fill="#E82663" transform="matrix(1.00, 0.00, -0.00, -1.00, 101.0, 159.7)">i</text><text xml:space="preserve" font-family=".LucidaGrandeUI,.Lucida Grande UI" font-size="40.0" fill="#E82663" transform="matrix(1.00, 0.00, -0.00, -1.00, 112.6, 159.7)">d</text><text xml:space="preserve" font-family=".LucidaGrandeUI,.Lucida Grande UI" font-size="40.0" fill="#E82663" transform="matrix(1.00, 0.00, -0.00, -1.00, 137.8, 159.7)">a</text><text xml:space="preserve" font-family=".LucidaGrandeUI,.Lucida Grande UI" font-size="40.0" fill="#E82663" transform="matrix(1.00, 0.00, -0.00, -1.00, 159.9, 159.7)">t</text><text xml:space="preserve" font-family=".LucidaGrandeUI,.Lucida Grande UI" font-size="40.0" fill="#E82663" transform="matrix(1.00, 0.00, -0.00, -1.00, 174.9, 159.7)">e</text><text xml:space="preserve" font-family=".LucidaGrandeUI,.Lucida Grande UI" font-size="40.0" fill="#A3A3A3" transform="matrix(1.00, 0.00, -0.00, -1.00, 197.1, 159.7)">=</text><text xml:space="preserve" font-family=".LucidaGrandeUI,.Lucida Grande UI" font-size="40.0" fill="#0D9D57" transform="matrix(1.00, 0.00, -0.00, -1.00, 228.9, 159.7)">"</text><text xml:space="preserve" font-family=".LucidaGrandeUI,.Lucida Grande UI" font-size="40.0" fill="#0D9D57" transform="matrix(1.00, 0.00, -0.00, -1.00, 243.8, 159.7)">^</text><text xml:space="preserve" font-family=".LucidaGrandeUI,.Lucida Grande UI" font-size="40.0" fill="#0D9D57" transform="matrix(1.00, 0.00, -0.00, -1.00, 269.1, 159.7)">[</text><text xml:space="preserve" font-family=".LucidaGrandeUI,.Lucida Grande UI" font-size="40.0" fill="#0D9D57" transform="matrix(1.00, 0.00, -0.00, -1.00, 282.2, 159.7)">0</text><text xml:space="preserve" font-family=".LucidaGrandeUI,.Lucida Grande UI" font-size="40.0" fill="#0D9D57" transform="matrix(1.00, 0.00, -0.00, -1.00, 307.5, 159.7)">-</text><text xml:space="preserve" font-family=".LucidaGrandeUI,.Lucida Grande UI" font-size="40.0" fill="#0D9D57" transform="matrix(1.00, 0.00, -0.00, -1.00, 330.6, 159.7)">9</text><text xml:space="preserve" font-family=".LucidaGrandeUI,.Lucida Grande UI" font-size="40.0" fill="#0D9D57" transform="matrix(1.00, 0.00, -0.00, -1.00, 355.9, 159.7)">]</text><text xml:space="preserve" font-family=".LucidaGrandeUI,.Lucida Grande UI" font-size="40.0" fill="#0D9D57" transform="matrix(1.00, 0.00, -0.00, -1.00, 369.0, 159.7)">*</text><text xml:space="preserve" font-family=".LucidaGrandeUI,.Lucida Grande UI" font-size="40.0" fill="#0D9D57" transform="matrix(1.00, 0.00, -0.00, -1.00, 388.2, 159.7)">$</text><text xml:space="preserve" font-family=".LucidaGrandeUI,.Lucida Grande UI" font-size="40.0" fill="#0D9D57" transform="matrix(1.00, 0.00, -0.00, -1.00, 413.5, 159.7)">"</text><text xml:space="preserve" font-family=".LucidaGrandeUI,.Lucida Grande UI" font-size="40.0" fill="#000000" transform="matrix(1.00, 0.00, -0.00, -1.00, 428.4, 159.7)"></text><text xml:space="preserve" font-family=".LucidaGrandeUI,.Lucida Grande UI" font-size="40.0" fill="#000000" transform="matrix(1.00, 0.00, -0.00, -1.00, 21.5, 103.3)"> </text><text xml:space="preserve" font-family=".LucidaGrandeUI,.Lucida Grande UI" font-size="40.0" fill="#000000" transform="matrix(1.00, 0.00, -0.00, -1.00, 34.2, 103.3)"> </text><text xml:space="preserve" font-family=".LucidaGrandeUI,.Lucida Grande UI" font-size="40.0" fill="#E82663" transform="matrix(1.00, 0.00, -0.00, -1.00, 46.8, 103.3)">e</text><text xml:space="preserve" font-family=".LucidaGrandeUI,.Lucida Grande UI" font-size="40.0" fill="#E82663" transform="matrix(1.00, 0.00, -0.00, -1.00, 69.1, 103.3)">r</text><text xml:space="preserve" font-family=".LucidaGrandeUI,.Lucida Grande UI" font-size="40.0" fill="#E82663" transform="matrix(1.00, 0.00, -0.00, -1.00, 85.5, 103.3)">r</text><text xml:space="preserve" font-family=".LucidaGrandeUI,.Lucida Grande UI" font-size="40.0" fill="#E82663" transform="matrix(1.00, 0.00, -0.00, -1.00, 101.8, 103.3)">o</text><text xml:space="preserve" font-family=".LucidaGrandeUI,.Lucida Grande UI" font-size="40.0" fill="#E82663" transform="matrix(1.00, 0.00, -0.00, -1.00, 126.4, 103.3)">r</text><text xml:space="preserve" font-family=".LucidaGrandeUI,.Lucida Grande UI" font-size="40.0" fill="#A3A3A3" transform="matrix(1.00, 0.00, -0.00, -1.00, 142.8, 103.3)">=</text><text xml:space="preserve" font-family=".LucidaGrandeUI,.Lucida Grande UI" font-size="40.0" fill="#0D9D57" transform="matrix(1.00, 0.00, -0.00, -1.00, 174.6, 103.3)">"</text><text xml:space="preserve" font-family=".LucidaGrandeUI,.Lucida Grande UI" font-size="40.0" fill="#0D9D57" transform="matrix(1.00, 0.00, -0.00, -1.00, 189.5, 103.3)">I</text><text xml:space="preserve" font-family=".LucidaGrandeUI,.Lucida Grande UI" font-size="40.0" fill="#0D9D57" transform="matrix(1.00, 0.00, -0.00, -1.00, 201.0, 103.3)">n</text><text xml:space="preserve" font-family=".LucidaGrandeUI,.Lucida Grande UI" font-size="40.0" fill="#0D9D57" transform="matrix(1.00, 0.00, -0.00, -1.00, 225.8, 103.3)">p</text><text xml:space="preserve" font-family=".LucidaGrandeUI,.Lucida Grande UI" font-size="40.0" fill="#0D9D57" transform="matrix(1.00, 0.00, -0.00, -1.00, 251.0, 103.3)">u</text><text xml:space="preserve" font-family=".LucidaGrandeUI,.Lucida Grande UI" font-size="40.0" fill="#0D9D57" transform="matrix(1.00, 0.00, -0.00, -1.00, 275.8, 103.3)">t</text><text xml:space="preserve" font-family=".LucidaGrandeUI,.Lucida Grande UI" font-size="40.0" fill="#0D9D57" transform="matrix(1.00, 0.00, -0.00, -1.00, 290.8, 103.3)"> </text><text xml:space="preserve" font-family=".LucidaGrandeUI,.Lucida Grande UI" font-size="40.0" fill="#0D9D57" transform="matrix(1.00, 0.00, -0.00, -1.00, 303.4, 103.3)">i</text><text xml:space="preserve" font-family=".LucidaGrandeUI,.Lucida Grande UI" font-size="40.0" fill="#0D9D57" transform="matrix(1.00, 0.00, -0.00, -1.00, 315.0, 103.3)">s</text><text xml:space="preserve" font-family=".LucidaGrandeUI,.Lucida Grande UI" font-size="40.0" fill="#0D9D57" transform="matrix(1.00, 0.00, -0.00, -1.00, 333.5, 103.3)"> </text><text xml:space="preserve" font-family=".LucidaGrandeUI,.Lucida Grande UI" font-size="40.0" fill="#0D9D57" transform="matrix(1.00, 0.00, -0.00, -1.00, 346.2, 103.3)">n</text><text xml:space="preserve" font-family=".LucidaGrandeUI,.Lucida Grande UI" font-size="40.0" fill="#0D9D57" transform="matrix(1.00, 0.00, -0.00, -1.00, 371.0, 103.3)">o</text><text xml:space="preserve" font-family=".LucidaGrandeUI,.Lucida Grande UI" font-size="40.0" fill="#0D9D57" transform="matrix(1.00, 0.00, -0.00, -1.00, 395.6, 103.3)">t</text><text xml:space="preserve" font-family=".LucidaGrandeUI,.Lucida Grande UI" font-size="40.0" fill="#0D9D57" transform="matrix(1.00, 0.00, -0.00, -1.00, 410.5, 103.3)"> </text><text xml:space="preserve" font-family=".LucidaGrandeUI,.Lucida Grande UI" font-size="40.0" fill="#0D9D57" transform="matrix(1.00, 0.00, -0.00, -1.00, 423.2, 103.3)">a</text><text xml:space="preserve" font-family=".LucidaGrandeUI,.Lucida Grande UI" font-size="40.0" fill="#0D9D57" transform="matrix(1.00, 0.00, -0.00, -1.00, 445.3, 103.3)"> </text><text xml:space="preserve" font-family=".LucidaGrandeUI,.Lucida Grande UI" font-size="40.0" fill="#0D9D57" transform="matrix(1.00, 0.00, -0.00, -1.00, 458.0, 103.3)">n</text><text xml:space="preserve" font-family=".LucidaGrandeUI,.Lucida Grande UI" font-size="40.0" fill="#0D9D57" transform="matrix(1.00, 0.00, -0.00, -1.00, 482.8, 103.3)">u</text><text xml:space="preserve" font-family=".LucidaGrandeUI,.Lucida Grande UI" font-size="40.0" fill="#0D9D57" transform="matrix(1.00, 0.00, -0.00, -1.00, 507.6, 103.3)">m</text><text xml:space="preserve" font-family=".LucidaGrandeUI,.Lucida Grande UI" font-size="40.0" fill="#0D9D57" transform="matrix(1.00, 0.00, -0.00, -1.00, 544.9, 103.3)">b</text><text xml:space="preserve" font-family=".LucidaGrandeUI,.Lucida Grande UI" font-size="40.0" fill="#0D9D57" transform="matrix(1.00, 0.00, -0.00, -1.00, 570.1, 103.3)">e</text><text xml:space="preserve" font-family=".LucidaGrandeUI,.Lucida Grande UI" font-size="40.0" fill="#0D9D57" transform="matrix(1.00, 0.00, -0.00, -1.00, 592.4, 103.3)">r</text><text xml:space="preserve" font-family=".LucidaGrandeUI,.Lucida Grande UI" font-size="40.0" fill="#0D9D57" transform="matrix(1.00, 0.00, -0.00, -1.00, 608.8, 103.3)">!</text><text xml:space="preserve" font-family=".LucidaGrandeUI,.Lucida Grande UI" font-size="40.0" fill="#0D9D57" transform="matrix(1.00, 0.00, -0.00, -1.00, 621.9, 103.3)">"</text><text xml:space="preserve" font-family=".LucidaGrandeUI,.Lucida Grande UI" font-size="40.0" fill="#4185F4" transform="matrix(1.00, 0.00, -0.00, -1.00, 636.8, 103.3)">&gt;</text><text xml:space="preserve" font-family=".LucidaGrandeUI,.Lucida Grande UI" font-size="40.0" fill="#000000" transform="matrix(1.00, 0.00, -0.00, -1.00, 668.6, 103.3)"></text><text xml:space="preserve" font-family=".LucidaGrandeUI,.Lucida Grande UI" font-size="40.0" fill="#4185F4" transform="matrix(1.00, 0.00, -0.00, -1.00, 21.5, 46.9)">&lt;</text><text xml:space="preserve" font-family=".LucidaGrandeUI,.Lucida Grande UI" font-size="40.0" fill="#4185F4" transform="matrix(1.00, 0.00, -0.00, -1.00, 53.3, 46.9)">/</text><text xml:space="preserve" font-family=".LucidaGrandeUI,.Lucida Grande UI" font-size="40.0" fill="#4185F4" transform="matrix(1.00, 0.00, -0.00, -1.00, 74.3, 46.9)">p</text><text xml:space="preserve" font-family=".LucidaGrandeUI,.Lucida Grande UI" font-size="40.0" fill="#4185F4" transform="matrix(1.00, 0.00, -0.00, -1.00, 99.5, 46.9)">a</text><text xml:space="preserve" font-family=".LucidaGrandeUI,.Lucida Grande UI" font-size="40.0" fill="#4185F4" transform="matrix(1.00, 0.00, -0.00, -1.00, 121.6, 46.9)">p</text><text xml:space="preserve" font-family=".LucidaGrandeUI,.Lucida Grande UI" font-size="40.0" fill="#4185F4" transform="matrix(1.00, 0.00, -0.00, -1.00, 146.8, 46.9)">e</text><text xml:space="preserve" font-family=".LucidaGrandeUI,.Lucida Grande UI" font-size="40.0" fill="#4185F4" transform="matrix(1.00, 0.00, -0.00, -1.00, 169.0, 46.9)">r</text><text xml:space="preserve" font-family=".LucidaGrandeUI,.Lucida Grande UI" font-size="40.0" fill="#4185F4" transform="matrix(1.00, 0.00, -0.00, -1.00, 185.4, 46.9)">-</text><text xml:space="preserve" font-family=".LucidaGrandeUI,.Lucida Grande UI" font-size="40.0" fill="#4185F4" transform="matrix(1.00, 0.00, -0.00, -1.00, 208.5, 46.9)">i</text><text xml:space="preserve" font-family=".LucidaGrandeUI,.Lucida Grande UI" font-size="40.0" fill="#4185F4" transform="matrix(1.00, 0.00, -0.00, -1.00, 220.1, 46.9)">n</text><text xml:space="preserve" font-family=".LucidaGrandeUI,.Lucida Grande UI" font-size="40.0" fill="#4185F4" transform="matrix(1.00, 0.00, -0.00, -1.00, 244.9, 46.9)">p</text><text xml:space="preserve" font-family=".LucidaGrandeUI,.Lucida Grande UI" font-size="40.0" fill="#4185F4" transform="matrix(1.00, 0.00, -0.00, -1.00, 270.1, 46.9)">u</text><text xml:space="preserve" font-family=".LucidaGrandeUI,.Lucida Grande UI" font-size="40.0" fill="#4185F4" transform="matrix(1.00, 0.00, -0.00, -1.00, 294.9, 46.9)">t</text><text xml:space="preserve" font-family=".LucidaGrandeUI,.Lucida Grande UI" font-size="40.0" fill="#4185F4" transform="matrix(1.00, 0.00, -0.00, -1.00, 309.9, 46.9)">&gt;</text></g></g></g></svg>