<?xml version="1.0" encoding="UTF-8" standalone="no"?><svg xmlns="http://www.w3.org/2000/svg" xmlns:xlink="http://www.w3.org/1999/xlink" clip-rule="evenodd" stroke-miterlimit="10" viewBox="0 0 719 144"><desc>SVG generated by Keynote</desc><defs></defs><g transform="matrix(1.00, 0.00, -0.00, -1.00, 0.0, 144.0)"><g><clipPath id="clip0x6000044a15c0"><path d="M 718.3 58.0 L 217.3 58.0 L 217.3 86.0 L 718.3 86.0 Z M 718.3 58.0 "></path></clipPath><g clip-path="url(#clip0x6000044a15c0)"><path d="M 22.3 0.0 L 26.0 0.0 L 499.3 0.0 " fill="none" stroke="#F06191" stroke-width="8.00" stroke-linejoin="round" transform="matrix(-1.00, 0.00, 0.00, 1.00, 717.3, 72.0)"></path><path d="M 704.0 85.0 C 711.2 85.0 717.0 79.2 717.0 72.0 C 717.0 64.8 711.2 59.0 704.0 59.0 C 696.8 59.0 691.0 64.8 691.0 72.0 C 691.0 79.2 696.8 85.0 704.0 85.0 Z M 704.0 85.0 " fill="#F06191"></path></g></g><g><clipPath id="clip0x6000044a1c20"><path d="M 0.7 0.1 L 437.4 0.1 L 437.4 143.9 L 0.7 143.9 Z M 0.7 0.1 "></path></clipPath><g clip-path="url(#clip0x6000044a1c20)"><path d="M 1.7 9.9 L 2.0 134.1 C 2.0 139.0 5.6 143.0 10.4 143.0 L 427.7 143.0 C 432.5 143.0 436.0 139.0 436.0 134.1 L 436.0 9.9 C 436.0 5.0 432.5 1.0 427.7 1.0 L 10.4 1.0 C 5.6 1.0 1.7 5.0 1.7 9.9 Z M 1.7 9.9 " fill="#F06191"></path></g></g><g><clipPath id="clip0x6000044a1e60"><path d="M 1.7 1.1 L 436.4 1.1 L 436.4 142.9 L 1.7 142.9 Z M 1.7 1.1 "></path></clipPath><g clip-path="url(#clip0x6000044a1e60)"><text xml:space="preserve" font-family="Roboto-Regular,Roboto" font-size="50.0" fill="#FFFFFF" transform="matrix(1.00, 0.00, -0.00, -1.00, 103.5, 52.9)">b</text><text xml:space="preserve" font-family="Roboto-Regular,Roboto" font-size="50.0" fill="#FFFFFF" transform="matrix(1.00, 0.00, -0.00, -1.00, 131.9, 52.9)">r</text><text xml:space="preserve" font-family="Roboto-Regular,Roboto" font-size="50.0" fill="#FFFFFF" transform="matrix(1.00, 0.00, -0.00, -1.00, 149.1, 52.9)">i</text><text xml:space="preserve" font-family="Roboto-Regular,Roboto" font-size="50.0" fill="#FFFFFF" transform="matrix(1.00, 0.00, -0.00, -1.00, 161.7, 52.9)">c</text><text xml:space="preserve" font-family="Roboto-Regular,Roboto" font-size="50.0" fill="#FFFFFF" transform="matrix(1.00, 0.00, -0.00, -1.00, 188.2, 52.9)">k</text><text xml:space="preserve" font-family="Roboto-Regular,Roboto" font-size="50.0" fill="#FFFFFF" transform="matrix(1.00, 0.00, -0.00, -1.00, 213.8, 52.9)">-</text><text xml:space="preserve" font-family="Roboto-Regular,Roboto" font-size="50.0" fill="#FFFFFF" transform="matrix(1.00, 0.00, -0.00, -1.00, 227.5, 52.9)">d</text><text xml:space="preserve" font-family="Roboto-Regular,Roboto" font-size="50.0" fill="#FFFFFF" transform="matrix(1.00, 0.00, -0.00, -1.00, 255.9, 52.9)">e</text><text xml:space="preserve" font-family="Roboto-Regular,Roboto" font-size="50.0" fill="#FFFFFF" transform="matrix(1.00, 0.00, -0.00, -1.00, 282.4, 52.9)">c</text><text xml:space="preserve" font-family="Roboto-Regular,Roboto" font-size="50.0" fill="#FFFFFF" transform="matrix(1.00, 0.00, -0.00, -1.00, 308.9, 52.9)">k</text></g></g></g></svg>