<?xml version="1.0" encoding="UTF-8" standalone="no"?><svg xmlns="http://www.w3.org/2000/svg" xmlns:xlink="http://www.w3.org/1999/xlink" clip-rule="evenodd" stroke-miterlimit="10" viewBox="0 0 1920 1080"><desc>SVG generated by Keynote</desc><defs></defs><g transform="matrix(1.00, 0.00, -0.00, -1.00, 0.0, 1080.0)"><path d="M 0.0 1080.0 L 1920.0 1080.0 L 1920.0 0.0 L 0.0 0.0 Z M 0.0 1080.0 " fill="#FFFFFF"></path><image xlink:href="3FBD10002B03B0409E2AF806892748C5.png" width="2394.00" height="1984.00" transform="matrix(0.89, 0.00, -0.00, -0.89, -101.8, 1144.0)"></image><g opacity="0.66"><g><clipPath id="clip0x6080046b2e40"><path d="M 0.0 0.0 L 1920.0 0.0 L 1920.0 287.0 L 0.0 287.0 Z M 0.0 0.0 "></path></clipPath><g clip-path="url(#clip0x6080046b2e40)"><image xlink:href="../../1465334E-8E93-4575-A72E-B50B977340FE/assets/3F4A700A4C2BCC6E83F412CCF38D7D99.png" width="2001.00" height="349.00" transform="matrix(1.00, 0.00, -0.00, -1.00, -40.0, 284.5)"></image><path d="M 0.0 195.0 L 1920.0 195.0 L 1920.0 27.0 L 0.0 27.0 Z M 0.0 194.9 " fill="#000000"></path></g></g></g><text xml:space="preserve" font-family="Roboto-Bold,Roboto" font-weight="bold" font-size="90.0" fill="#FFFFFF" transform="matrix(1.00, 0.00, -0.00, -1.00, 578.8, 88.4)">c</text><text xml:space="preserve" font-family="Roboto-Bold,Roboto" font-weight="bold" font-size="90.0" fill="#FFFFFF" transform="matrix(1.00, 0.00, -0.00, -1.00, 625.3, 88.4)">h</text><text xml:space="preserve" font-family="Roboto-Bold,Roboto" font-weight="bold" font-size="90.0" fill="#FFFFFF" transform="matrix(1.00, 0.00, -0.00, -1.00, 676.2, 88.4)">r</text><text xml:space="preserve" font-family="Roboto-Bold,Roboto" font-weight="bold" font-size="90.0" fill="#FFFFFF" transform="matrix(1.00, 0.00, -0.00, -1.00, 707.7, 88.4)">o</text><text xml:space="preserve" font-family="Roboto-Bold,Roboto" font-weight="bold" font-size="90.0" fill="#FFFFFF" transform="matrix(1.00, 0.00, -0.00, -1.00, 758.5, 88.4)">m</text><text xml:space="preserve" font-family="Roboto-Bold,Roboto" font-weight="bold" font-size="90.0" fill="#FFFFFF" transform="matrix(1.00, 0.00, -0.00, -1.00, 836.4, 88.4)">e</text><text xml:space="preserve" font-family="Roboto-Bold,Roboto" font-weight="bold" font-size="90.0" fill="#FFFFFF" transform="matrix(1.00, 0.00, -0.00, -1.00, 884.1, 88.4)">s</text><text xml:space="preserve" font-family="Roboto-Bold,Roboto" font-weight="bold" font-size="90.0" fill="#FFFFFF" transform="matrix(1.00, 0.00, -0.00, -1.00, 930.5, 88.4)">t</text><text xml:space="preserve" font-family="Roboto-Bold,Roboto" font-weight="bold" font-size="90.0" fill="#FFFFFF" transform="matrix(1.00, 0.00, -0.00, -1.00, 961.9, 88.4)">a</text><text xml:space="preserve" font-family="Roboto-Bold,Roboto" font-weight="bold" font-size="90.0" fill="#FFFFFF" transform="matrix(1.00, 0.00, -0.00, -1.00, 1010.2, 88.4)">t</text><text xml:space="preserve" font-family="Roboto-Bold,Roboto" font-weight="bold" font-size="90.0" fill="#FFFFFF" transform="matrix(1.00, 0.00, -0.00, -1.00, 1041.7, 88.4)">u</text><text xml:space="preserve" font-family="Roboto-Bold,Roboto" font-weight="bold" font-size="90.0" fill="#FFFFFF" transform="matrix(1.00, 0.00, -0.00, -1.00, 1092.5, 88.4)">s</text><text xml:space="preserve" font-family="Roboto-Bold,Roboto" font-weight="bold" font-size="90.0" fill="#FFFFFF" transform="matrix(1.00, 0.00, -0.00, -1.00, 1138.9, 88.4)">.</text><text xml:space="preserve" font-family="Roboto-Bold,Roboto" font-weight="bold" font-size="90.0" fill="#FFFFFF" transform="matrix(1.00, 0.00, -0.00, -1.00, 1165.1, 88.4)">c</text><text xml:space="preserve" font-family="Roboto-Bold,Roboto" font-weight="bold" font-size="90.0" fill="#FFFFFF" transform="matrix(1.00, 0.00, -0.00, -1.00, 1211.6, 88.4)">o</text><text xml:space="preserve" font-family="Roboto-Bold,Roboto" font-weight="bold" font-size="90.0" fill="#FFFFFF" transform="matrix(1.00, 0.00, -0.00, -1.00, 1262.5, 88.4)">m</text></g></svg>