<?xml version="1.0" encoding="UTF-8" standalone="no"?><svg xmlns="http://www.w3.org/2000/svg" xmlns:xlink="http://www.w3.org/1999/xlink" clip-rule="evenodd" stroke-miterlimit="10" viewBox="0 0 1920 1080"><desc>SVG generated by Keynote</desc><defs></defs><g transform="matrix(1.00, 0.00, -0.00, -1.00, 0.0, 1080.0)"><path d="M 0.0 1080.0 L 1920.0 1080.0 L 1920.0 0.0 L 0.0 0.0 Z M 0.0 1080.0 " fill="#FFFFFF"></path><g><clipPath id="clip0x6080026ac1e0"><path d="M -130.0 1221.0 L 2050.0 1221.0 L 2050.0 -141.0 L -130.0 -141.0 Z M -130.0 1221.2 "></path></clipPath><g clip-path="url(#clip0x6080026ac1e0)"><image xlink:href="../../F932BE90-E00E-41C7-B031-3CFC8E43349E/assets/17EB369F16AE52095736AB651AA9B8B1.png" width="1440.00" height="900.00" transform="matrix(1.51, 0.00, -0.00, -1.51, -130.0, 1221.2)"></image></g></g><g opacity="0.39"><g><clipPath id="clip0x6000028a4560"><path d="M 0.0 0.0 L 1920.0 0.0 L 1920.0 1080.0 L 0.0 1080.0 Z M 0.0 0.0 "></path></clipPath><g clip-path="url(#clip0x6000028a4560)"><path d="M -20.0 1110.0 L 1940.0 1110.0 L 1940.0 -30.0 L -20.0 -30.0 Z M -19.6 1110.1 " fill="#000000"></path></g></g></g><image xlink:href="1CAA00199B134187F53710BA89998951.png" width="581.00" height="581.00" transform="matrix(1.00, 0.00, -0.00, -1.00, 673.5, 1146.8)"></image></g></svg>