<?xml version="1.0" encoding="UTF-8" standalone="no"?><svg xmlns="http://www.w3.org/2000/svg" xmlns:xlink="http://www.w3.org/1999/xlink" clip-rule="evenodd" stroke-miterlimit="10" viewBox="0 0 1920 1080"><desc>SVG generated by Keynote</desc><defs></defs><g transform="matrix(1.00, 0.00, -0.00, -1.00, 0.0, 1080.0)"><path d="M 0.0 1080.0 L 1920.0 1080.0 L 1920.0 0.0 L 0.0 0.0 Z M 0.0 1080.0 " fill="#FF4081"></path><text xml:space="preserve" font-family="Roboto-Medium,Roboto" font-size="115.0" fill="#FFFFFF" transform="matrix(1.00, 0.00, -0.00, -1.00, 155.9, 495.2)">N</text><text xml:space="preserve" font-family="Roboto-Medium,Roboto" font-size="115.0" fill="#FFFFFF" transform="matrix(1.00, 0.00, -0.00, -1.00, 237.7, 495.2)">o</text><text xml:space="preserve" font-family="Roboto-Medium,Roboto" font-size="115.0" fill="#FFFFFF" transform="matrix(1.00, 0.00, -0.00, -1.00, 302.9, 495.2)">t</text><text xml:space="preserve" font-family="Roboto-Medium,Roboto" font-size="115.0" fill="#FFFFFF" transform="matrix(1.00, 0.00, -0.00, -1.00, 342.8, 495.2)"> </text><text xml:space="preserve" font-family="Roboto-Medium,Roboto" font-size="115.0" fill="#FFFFFF" transform="matrix(1.00, 0.00, -0.00, -1.00, 371.4, 495.2)">j</text><text xml:space="preserve" font-family="Roboto-Medium,Roboto" font-size="115.0" fill="#FFFFFF" transform="matrix(1.00, 0.00, -0.00, -1.00, 401.6, 495.2)">u</text><text xml:space="preserve" font-family="Roboto-Medium,Roboto" font-size="115.0" fill="#FFFFFF" transform="matrix(1.00, 0.00, -0.00, -1.00, 466.8, 495.2)">s</text><text xml:space="preserve" font-family="Roboto-Medium,Roboto" font-size="115.0" fill="#FFFFFF" transform="matrix(1.00, 0.00, -0.00, -1.00, 526.6, 495.2)">t</text><text xml:space="preserve" font-family="Roboto-Medium,Roboto" font-size="115.0" fill="#FFFFFF" transform="matrix(1.00, 0.00, -0.00, -1.00, 566.5, 495.2)"> </text><text xml:space="preserve" font-family="Roboto-Medium,Roboto" font-size="115.0" fill="#FFFFFF" transform="matrix(1.00, 0.00, -0.00, -1.00, 595.2, 495.2)">b</text><text xml:space="preserve" font-family="Roboto-Medium,Roboto" font-size="115.0" fill="#FFFFFF" transform="matrix(1.00, 0.00, -0.00, -1.00, 660.4, 495.2)">r</text><text xml:space="preserve" font-family="Roboto-Medium,Roboto" font-size="115.0" fill="#FFFFFF" transform="matrix(1.00, 0.00, -0.00, -1.00, 700.2, 495.2)">o</text><text xml:space="preserve" font-family="Roboto-Medium,Roboto" font-size="115.0" fill="#FFFFFF" transform="matrix(1.00, 0.00, -0.00, -1.00, 765.4, 495.2)">w</text><text xml:space="preserve" font-family="Roboto-Medium,Roboto" font-size="115.0" fill="#FFFFFF" transform="matrix(1.00, 0.00, -0.00, -1.00, 851.3, 495.2)">s</text><text xml:space="preserve" font-family="Roboto-Medium,Roboto" font-size="115.0" fill="#FFFFFF" transform="matrix(1.00, 0.00, -0.00, -1.00, 911.1, 495.2)">e</text><text xml:space="preserve" font-family="Roboto-Medium,Roboto" font-size="115.0" fill="#FFFFFF" transform="matrix(1.00, 0.00, -0.00, -1.00, 972.0, 495.2)">r</text><text xml:space="preserve" font-family="Roboto-Medium,Roboto" font-size="115.0" fill="#FFFFFF" transform="matrix(1.00, 0.00, -0.00, -1.00, 1011.8, 495.2)"> </text><text xml:space="preserve" font-family="Roboto-Medium,Roboto" font-size="115.0" fill="#FFFFFF" transform="matrix(1.00, 0.00, -0.00, -1.00, 1040.5, 495.2)">m</text><text xml:space="preserve" font-family="Roboto-Medium,Roboto" font-size="115.0" fill="#FFFFFF" transform="matrix(1.00, 0.00, -0.00, -1.00, 1140.4, 495.2)">a</text><text xml:space="preserve" font-family="Roboto-Medium,Roboto" font-size="115.0" fill="#FFFFFF" transform="matrix(1.00, 0.00, -0.00, -1.00, 1203.0, 495.2)">k</text><text xml:space="preserve" font-family="Roboto-Medium,Roboto" font-size="115.0" fill="#FFFFFF" transform="matrix(1.00, 0.00, -0.00, -1.00, 1262.1, 495.2)">e</text><text xml:space="preserve" font-family="Roboto-Medium,Roboto" font-size="115.0" fill="#FFFFFF" transform="matrix(1.00, 0.00, -0.00, -1.00, 1323.0, 495.2)">r</text><text xml:space="preserve" font-family="Roboto-Medium,Roboto" font-size="115.0" fill="#FFFFFF" transform="matrix(1.00, 0.00, -0.00, -1.00, 1362.8, 495.2)">s</text></g></svg>