<?xml version="1.0" encoding="UTF-8" standalone="no"?><svg xmlns="http://www.w3.org/2000/svg" xmlns:xlink="http://www.w3.org/1999/xlink" clip-rule="evenodd" stroke-miterlimit="10" viewBox="0 0 867 171"><desc>SVG generated by Keynote</desc><defs></defs><g transform="matrix(1.00, 0.00, -0.00, -1.00, 0.0, 171.0)"><text xml:space="preserve" font-family="ArialMT,Arial" font-size="0.8" fill="#FFFFFF" transform="matrix(1.00, 0.00, -0.00, -1.00, 0.1, 139.5)">·</text><text xml:space="preserve" font-family="Roboto-Medium,Roboto" font-size="75.0" fill="#FFFFFF" transform="matrix(1.00, 0.00, -0.00, -1.00, 40.1, 110.6)">p</text><text xml:space="preserve" font-family="Roboto-Medium,Roboto" font-size="75.0" fill="#FFFFFF" transform="matrix(1.00, 0.00, -0.00, -1.00, 82.6, 110.6)">o</text><text xml:space="preserve" font-family="Roboto-Medium,Roboto" font-size="75.0" fill="#FFFFFF" transform="matrix(1.00, 0.00, -0.00, -1.00, 125.1, 110.6)">l</text><text xml:space="preserve" font-family="Roboto-Medium,Roboto" font-size="75.0" fill="#FFFFFF" transform="matrix(1.00, 0.00, -0.00, -1.00, 144.6, 110.6)">y</text><text xml:space="preserve" font-family="Roboto-Medium,Roboto" font-size="75.0" fill="#FFFFFF" transform="matrix(1.00, 0.00, -0.00, -1.00, 183.1, 110.6)">f</text><text xml:space="preserve" font-family="Roboto-Medium,Roboto" font-size="75.0" fill="#FFFFFF" transform="matrix(1.00, 0.00, -0.00, -1.00, 209.5, 110.6)">i</text><text xml:space="preserve" font-family="Roboto-Medium,Roboto" font-size="75.0" fill="#FFFFFF" transform="matrix(1.00, 0.00, -0.00, -1.00, 229.0, 110.6)">l</text><text xml:space="preserve" font-family="Roboto-Medium,Roboto" font-size="75.0" fill="#FFFFFF" transform="matrix(1.00, 0.00, -0.00, -1.00, 248.4, 110.6)">l</text><text xml:space="preserve" font-family="Roboto-Medium,Roboto" font-size="75.0" fill="#FFFFFF" transform="matrix(1.00, 0.00, -0.00, -1.00, 267.9, 110.6)">s</text><text xml:space="preserve" font-family="Roboto-Bold,Roboto" font-weight="bold" font-size="75.0" fill="#FFFFFF" transform="matrix(1.00, 0.00, -0.00, -1.00, 306.7, 110.6)"> </text><text xml:space="preserve" font-family="ArialMT,Arial" font-size="0.5" fill="#FFFFFF" transform="matrix(1.00, 0.00, -0.00, -1.00, 0.1, 30.6)">·</text><text xml:space="preserve" font-family=".LucidaGrandeUI,.Lucida Grande UI" font-size="50.0" fill="#FFFFFF" transform="matrix(1.00, 0.00, -0.00, -1.00, 40.1, 12.1)">&lt;</text><text xml:space="preserve" font-family=".LucidaGrandeUI,.Lucida Grande UI" font-size="50.0" fill="#FFFFFF" transform="matrix(1.00, 0.00, -0.00, -1.00, 79.9, 12.1)">s</text><text xml:space="preserve" font-family=".LucidaGrandeUI,.Lucida Grande UI" font-size="50.0" fill="#FFFFFF" transform="matrix(1.00, 0.00, -0.00, -1.00, 103.0, 12.1)">c</text><text xml:space="preserve" font-family=".LucidaGrandeUI,.Lucida Grande UI" font-size="50.0" fill="#FFFFFF" transform="matrix(1.00, 0.00, -0.00, -1.00, 128.6, 12.1)">r</text><text xml:space="preserve" font-family=".LucidaGrandeUI,.Lucida Grande UI" font-size="50.0" fill="#FFFFFF" transform="matrix(1.00, 0.00, -0.00, -1.00, 149.1, 12.1)">i</text><text xml:space="preserve" font-family=".LucidaGrandeUI,.Lucida Grande UI" font-size="50.0" fill="#FFFFFF" transform="matrix(1.00, 0.00, -0.00, -1.00, 163.6, 12.1)">p</text><text xml:space="preserve" font-family=".LucidaGrandeUI,.Lucida Grande UI" font-size="50.0" fill="#FFFFFF" transform="matrix(1.00, 0.00, -0.00, -1.00, 195.0, 12.1)">t</text><text xml:space="preserve" font-family=".LucidaGrandeUI,.Lucida Grande UI" font-size="50.0" fill="#FFFFFF" transform="matrix(1.00, 0.00, -0.00, -1.00, 213.7, 12.1)"> </text><text xml:space="preserve" font-family=".LucidaGrandeUI,.Lucida Grande UI" font-size="50.0" fill="#FFFFFF" transform="matrix(1.00, 0.00, -0.00, -1.00, 229.6, 12.1)">s</text><text xml:space="preserve" font-family=".LucidaGrandeUI,.Lucida Grande UI" font-size="50.0" fill="#FFFFFF" transform="matrix(1.00, 0.00, -0.00, -1.00, 252.7, 12.1)">r</text><text xml:space="preserve" font-family=".LucidaGrandeUI,.Lucida Grande UI" font-size="50.0" fill="#FFFFFF" transform="matrix(1.00, 0.00, -0.00, -1.00, 273.2, 12.1)">c</text><text xml:space="preserve" font-family=".LucidaGrandeUI,.Lucida Grande UI" font-size="50.0" fill="#FFFFFF" transform="matrix(1.00, 0.00, -0.00, -1.00, 298.8, 12.1)">=</text><text xml:space="preserve" font-family=".LucidaGrandeUI,.Lucida Grande UI" font-size="50.0" fill="#FFFFFF" transform="matrix(1.00, 0.00, -0.00, -1.00, 338.6, 12.1)">“</text><text xml:space="preserve" font-family=".LucidaGrandeUI,.Lucida Grande UI" font-size="50.0" fill="#FFFFFF" transform="matrix(1.00, 0.00, -0.00, -1.00, 360.0, 12.1)">w</text><text xml:space="preserve" font-family=".LucidaGrandeUI,.Lucida Grande UI" font-size="50.0" fill="#FFFFFF" transform="matrix(1.00, 0.00, -0.00, -1.00, 398.5, 12.1)">e</text><text xml:space="preserve" font-family=".LucidaGrandeUI,.Lucida Grande UI" font-size="50.0" fill="#FFFFFF" transform="matrix(1.00, 0.00, -0.00, -1.00, 426.4, 12.1)">b</text><text xml:space="preserve" font-family=".LucidaGrandeUI,.Lucida Grande UI" font-size="50.0" fill="#FFFFFF" transform="matrix(1.00, 0.00, -0.00, -1.00, 457.9, 12.1)">c</text><text xml:space="preserve" font-family=".LucidaGrandeUI,.Lucida Grande UI" font-size="50.0" fill="#FFFFFF" transform="matrix(1.00, 0.00, -0.00, -1.00, 483.5, 12.1)">o</text><text xml:space="preserve" font-family=".LucidaGrandeUI,.Lucida Grande UI" font-size="50.0" fill="#FFFFFF" transform="matrix(1.00, 0.00, -0.00, -1.00, 514.2, 12.1)">m</text><text xml:space="preserve" font-family=".LucidaGrandeUI,.Lucida Grande UI" font-size="50.0" fill="#FFFFFF" transform="matrix(1.00, 0.00, -0.00, -1.00, 560.9, 12.1)">p</text><text xml:space="preserve" font-family=".LucidaGrandeUI,.Lucida Grande UI" font-size="50.0" fill="#FFFFFF" transform="matrix(1.00, 0.00, -0.00, -1.00, 592.4, 12.1)">o</text><text xml:space="preserve" font-family=".LucidaGrandeUI,.Lucida Grande UI" font-size="50.0" fill="#FFFFFF" transform="matrix(1.00, 0.00, -0.00, -1.00, 623.1, 12.1)">n</text><text xml:space="preserve" font-family=".LucidaGrandeUI,.Lucida Grande UI" font-size="50.0" fill="#FFFFFF" transform="matrix(1.00, 0.00, -0.00, -1.00, 654.1, 12.1)">e</text><text xml:space="preserve" font-family=".LucidaGrandeUI,.Lucida Grande UI" font-size="50.0" fill="#FFFFFF" transform="matrix(1.00, 0.00, -0.00, -1.00, 682.0, 12.1)">n</text><text xml:space="preserve" font-family=".LucidaGrandeUI,.Lucida Grande UI" font-size="50.0" fill="#FFFFFF" transform="matrix(1.00, 0.00, -0.00, -1.00, 713.0, 12.1)">t</text><text xml:space="preserve" font-family=".LucidaGrandeUI,.Lucida Grande UI" font-size="50.0" fill="#FFFFFF" transform="matrix(1.00, 0.00, -0.00, -1.00, 731.7, 12.1)">s</text><text xml:space="preserve" font-family=".LucidaGrandeUI,.Lucida Grande UI" font-size="50.0" fill="#FFFFFF" transform="matrix(1.00, 0.00, -0.00, -1.00, 754.8, 12.1)">.</text><text xml:space="preserve" font-family=".LucidaGrandeUI,.Lucida Grande UI" font-size="50.0" fill="#FFFFFF" transform="matrix(1.00, 0.00, -0.00, -1.00, 770.7, 12.1)">j</text><text xml:space="preserve" font-family=".LucidaGrandeUI,.Lucida Grande UI" font-size="50.0" fill="#FFFFFF" transform="matrix(1.00, 0.00, -0.00, -1.00, 785.9, 12.1)">s</text><text xml:space="preserve" font-family=".LucidaGrandeUI,.Lucida Grande UI" font-size="50.0" fill="#FFFFFF" transform="matrix(1.00, 0.00, -0.00, -1.00, 809.0, 12.1)">”</text><text xml:space="preserve" font-family=".LucidaGrandeUI,.Lucida Grande UI" font-size="50.0" fill="#FFFFFF" transform="matrix(1.00, 0.00, -0.00, -1.00, 830.5, 12.1)">&gt;</text></g></svg>