<?xml version="1.0" encoding="UTF-8" standalone="no"?><svg xmlns="http://www.w3.org/2000/svg" xmlns:xlink="http://www.w3.org/1999/xlink" clip-rule="evenodd" stroke-miterlimit="10" viewBox="0 0 468 49"><desc>SVG generated by Keynote</desc><defs></defs><g transform="matrix(1.00, 0.00, -0.00, -1.00, 0.0, 49.0)"><text xml:space="preserve" font-family="Roboto-Regular,Roboto" font-size="59.0" fill="#404040" transform="matrix(1.00, 0.00, -0.00, -1.00, -1.2, 2.3)">C</text><text xml:space="preserve" font-family="Roboto-Regular,Roboto" font-size="59.0" fill="#404040" transform="matrix(1.00, 0.00, -0.00, -1.00, 36.2, 2.3)">u</text><text xml:space="preserve" font-family="Roboto-Regular,Roboto" font-size="59.0" fill="#404040" transform="matrix(1.00, 0.00, -0.00, -1.00, 69.8, 2.3)">s</text><text xml:space="preserve" font-family="Roboto-Regular,Roboto" font-size="59.0" fill="#404040" transform="matrix(1.00, 0.00, -0.00, -1.00, 100.6, 2.3)">t</text><text xml:space="preserve" font-family="Roboto-Regular,Roboto" font-size="59.0" fill="#404040" transform="matrix(1.00, 0.00, -0.00, -1.00, 121.0, 2.3)">o</text><text xml:space="preserve" font-family="Roboto-Regular,Roboto" font-size="59.0" fill="#404040" transform="matrix(1.00, 0.00, -0.00, -1.00, 154.6, 2.3)">m</text><text xml:space="preserve" font-family="Roboto-Regular,Roboto" font-size="59.0" fill="#404040" transform="matrix(1.00, 0.00, -0.00, -1.00, 206.1, 2.3)"> </text><text xml:space="preserve" font-family="Roboto-Regular,Roboto" font-size="59.0" fill="#404040" transform="matrix(1.00, 0.00, -0.00, -1.00, 220.8, 2.3)">E</text><text xml:space="preserve" font-family="Roboto-Regular,Roboto" font-size="59.0" fill="#404040" transform="matrix(1.00, 0.00, -0.00, -1.00, 255.3, 2.3)">l</text><text xml:space="preserve" font-family="Roboto-Regular,Roboto" font-size="59.0" fill="#404040" transform="matrix(1.00, 0.00, -0.00, -1.00, 270.1, 2.3)">e</text><text xml:space="preserve" font-family="Roboto-Regular,Roboto" font-size="59.0" fill="#404040" transform="matrix(1.00, 0.00, -0.00, -1.00, 301.3, 2.3)">m</text><text xml:space="preserve" font-family="Roboto-Regular,Roboto" font-size="59.0" fill="#404040" transform="matrix(1.00, 0.00, -0.00, -1.00, 352.9, 2.3)">e</text><text xml:space="preserve" font-family="Roboto-Regular,Roboto" font-size="59.0" fill="#404040" transform="matrix(1.00, 0.00, -0.00, -1.00, 384.1, 2.3)">n</text><text xml:space="preserve" font-family="Roboto-Regular,Roboto" font-size="59.0" fill="#404040" transform="matrix(1.00, 0.00, -0.00, -1.00, 417.6, 2.3)">t</text><text xml:space="preserve" font-family="Roboto-Regular,Roboto" font-size="59.0" fill="#404040" transform="matrix(1.00, 0.00, -0.00, -1.00, 438.0, 2.3)">s</text></g></svg>