<?xml version="1.0" encoding="UTF-8" standalone="no"?><svg xmlns="http://www.w3.org/2000/svg" xmlns:xlink="http://www.w3.org/1999/xlink" clip-rule="evenodd" stroke-miterlimit="10" viewBox="0 0 566 44"><desc>SVG generated by Keynote</desc><defs></defs><g transform="matrix(1.00, 0.00, -0.00, -1.00, 0.0, 44.0)"><text xml:space="preserve" font-family="RobotoCondensed-Regular,Roboto Condensed" font-size="41.0" fill="#404040" transform="matrix(1.00, 0.00, -0.00, -1.00, 0.9, 10.5)">c</text><text xml:space="preserve" font-family="RobotoCondensed-Regular,Roboto Condensed" font-size="41.0" fill="#404040" transform="matrix(1.00, 0.00, -0.00, -1.00, 19.4, 10.5)">o</text><text xml:space="preserve" font-family="RobotoCondensed-Regular,Roboto Condensed" font-size="41.0" fill="#404040" transform="matrix(1.00, 0.00, -0.00, -1.00, 39.3, 10.5)">m</text><text xml:space="preserve" font-family="RobotoCondensed-Regular,Roboto Condensed" font-size="41.0" fill="#404040" transform="matrix(1.00, 0.00, -0.00, -1.00, 69.8, 10.5)">m</text><text xml:space="preserve" font-family="RobotoCondensed-Regular,Roboto Condensed" font-size="41.0" fill="#404040" transform="matrix(1.00, 0.00, -0.00, -1.00, 100.3, 10.5)">o</text><text xml:space="preserve" font-family="RobotoCondensed-Regular,Roboto Condensed" font-size="41.0" fill="#404040" transform="matrix(1.00, 0.00, -0.00, -1.00, 120.2, 10.5)">n</text><text xml:space="preserve" font-family="RobotoCondensed-Regular,Roboto Condensed" font-size="41.0" fill="#404040" transform="matrix(1.00, 0.00, -0.00, -1.00, 140.1, 10.5)"> </text><text xml:space="preserve" font-family="RobotoCondensed-Regular,Roboto Condensed" font-size="41.0" fill="#404040" transform="matrix(1.00, 0.00, -0.00, -1.00, 149.0, 10.5)">w</text><text xml:space="preserve" font-family="RobotoCondensed-Regular,Roboto Condensed" font-size="41.0" fill="#404040" transform="matrix(1.00, 0.00, -0.00, -1.00, 175.2, 10.5)">a</text><text xml:space="preserve" font-family="RobotoCondensed-Regular,Roboto Condensed" font-size="41.0" fill="#404040" transform="matrix(1.00, 0.00, -0.00, -1.00, 194.0, 10.5)">y</text><text xml:space="preserve" font-family="RobotoCondensed-Regular,Roboto Condensed" font-size="41.0" fill="#404040" transform="matrix(1.00, 0.00, -0.00, -1.00, 211.9, 10.5)"> </text><text xml:space="preserve" font-family="RobotoCondensed-Regular,Roboto Condensed" font-size="41.0" fill="#404040" transform="matrix(1.00, 0.00, -0.00, -1.00, 220.8, 10.5)">t</text><text xml:space="preserve" font-family="RobotoCondensed-Regular,Roboto Condensed" font-size="41.0" fill="#404040" transform="matrix(1.00, 0.00, -0.00, -1.00, 232.9, 10.5)">o</text><text xml:space="preserve" font-family="RobotoCondensed-Regular,Roboto Condensed" font-size="41.0" fill="#404040" transform="matrix(1.00, 0.00, -0.00, -1.00, 252.8, 10.5)"> </text><text xml:space="preserve" font-family="RobotoCondensed-Bold,Roboto Condensed" font-weight="bold" font-size="41.0" fill="#404040" transform="matrix(1.00, 0.00, -0.00, -1.00, 261.9, 10.5)">e</text><text xml:space="preserve" font-family="RobotoCondensed-Bold,Roboto Condensed" font-weight="bold" font-size="41.0" fill="#404040" transform="matrix(1.00, 0.00, -0.00, -1.00, 280.7, 10.5)">x</text><text xml:space="preserve" font-family="RobotoCondensed-Bold,Roboto Condensed" font-weight="bold" font-size="41.0" fill="#404040" transform="matrix(1.00, 0.00, -0.00, -1.00, 298.9, 10.5)">t</text><text xml:space="preserve" font-family="RobotoCondensed-Bold,Roboto Condensed" font-weight="bold" font-size="41.0" fill="#404040" transform="matrix(1.00, 0.00, -0.00, -1.00, 311.9, 10.5)">e</text><text xml:space="preserve" font-family="RobotoCondensed-Bold,Roboto Condensed" font-weight="bold" font-size="41.0" fill="#404040" transform="matrix(1.00, 0.00, -0.00, -1.00, 330.7, 10.5)">n</text><text xml:space="preserve" font-family="RobotoCondensed-Bold,Roboto Condensed" font-weight="bold" font-size="41.0" fill="#404040" transform="matrix(1.00, 0.00, -0.00, -1.00, 350.6, 10.5)">d</text><text xml:space="preserve" font-family="RobotoCondensed-Regular,Roboto Condensed" font-size="41.0" fill="#404040" transform="matrix(1.00, 0.00, -0.00, -1.00, 370.5, 10.5)"> </text><text xml:space="preserve" font-family="LucidaGrande,Lucida Grande" font-size="41.0" fill="#404040" transform="matrix(1.00, 0.00, -0.00, -1.00, 379.4, 10.5)">→</text><text xml:space="preserve" font-family="RobotoCondensed-Regular,Roboto Condensed" font-size="41.0" fill="#404040" transform="matrix(1.00, 0.00, -0.00, -1.00, 420.4, 10.5)"> </text><text xml:space="preserve" font-family="RobotoCondensed-Regular,Roboto Condensed" font-size="41.0" fill="#404040" transform="matrix(1.00, 0.00, -0.00, -1.00, 429.3, 10.5)">r</text><text xml:space="preserve" font-family="RobotoCondensed-Regular,Roboto Condensed" font-size="41.0" fill="#404040" transform="matrix(1.00, 0.00, -0.00, -1.00, 441.6, 10.5)">e</text><text xml:space="preserve" font-family="RobotoCondensed-Regular,Roboto Condensed" font-size="41.0" fill="#404040" transform="matrix(1.00, 0.00, -0.00, -1.00, 460.2, 10.5)">u</text><text xml:space="preserve" font-family="RobotoCondensed-Regular,Roboto Condensed" font-size="41.0" fill="#404040" transform="matrix(1.00, 0.00, -0.00, -1.00, 480.2, 10.5)">s</text><text xml:space="preserve" font-family="RobotoCondensed-Regular,Roboto Condensed" font-size="41.0" fill="#404040" transform="matrix(1.00, 0.00, -0.00, -1.00, 498.0, 10.5)">a</text><text xml:space="preserve" font-family="RobotoCondensed-Regular,Roboto Condensed" font-size="41.0" fill="#404040" transform="matrix(1.00, 0.00, -0.00, -1.00, 517.1, 10.5)">b</text><text xml:space="preserve" font-family="RobotoCondensed-Regular,Roboto Condensed" font-size="41.0" fill="#404040" transform="matrix(1.00, 0.00, -0.00, -1.00, 537.0, 10.5)">l</text><text xml:space="preserve" font-family="RobotoCondensed-Regular,Roboto Condensed" font-size="41.0" fill="#404040" transform="matrix(1.00, 0.00, -0.00, -1.00, 546.3, 10.5)">e</text></g></svg>