<?xml version="1.0" encoding="UTF-8" standalone="no"?><svg xmlns="http://www.w3.org/2000/svg" xmlns:xlink="http://www.w3.org/1999/xlink" clip-rule="evenodd" stroke-miterlimit="10" viewBox="0 0 1920 1080"><desc>SVG generated by Keynote</desc><defs></defs><g transform="matrix(1.00, 0.00, -0.00, -1.00, 0.0, 1080.0)"><path d="M 0.0 1080.0 L 1920.0 1080.0 L 1920.0 0.0 L 0.0 0.0 Z M 0.0 1080.0 " fill="#FFFFFF"></path><text xml:space="preserve" font-family="Roboto-Medium,Roboto" font-size="116.0" fill="#7E7E7E" transform="matrix(1.00, 0.00, -0.00, -1.00, 153.4, 494.9)">P</text><text xml:space="preserve" font-family="Roboto-Medium,Roboto" font-size="116.0" fill="#7E7E7E" transform="matrix(1.00, 0.00, -0.00, -1.00, 227.5, 494.9)">o</text><text xml:space="preserve" font-family="Roboto-Medium,Roboto" font-size="116.0" fill="#7E7E7E" transform="matrix(1.00, 0.00, -0.00, -1.00, 293.3, 494.9)">l</text><text xml:space="preserve" font-family="Roboto-Medium,Roboto" font-size="116.0" fill="#7E7E7E" transform="matrix(1.00, 0.00, -0.00, -1.00, 323.4, 494.9)">y</text><text xml:space="preserve" font-family="Roboto-Medium,Roboto" font-size="116.0" fill="#7E7E7E" transform="matrix(1.00, 0.00, -0.00, -1.00, 383.0, 494.9)">f</text><text xml:space="preserve" font-family="Roboto-Medium,Roboto" font-size="116.0" fill="#7E7E7E" transform="matrix(1.00, 0.00, -0.00, -1.00, 423.7, 494.9)">i</text><text xml:space="preserve" font-family="Roboto-Medium,Roboto" font-size="116.0" fill="#7E7E7E" transform="matrix(1.00, 0.00, -0.00, -1.00, 453.8, 494.9)">l</text><text xml:space="preserve" font-family="Roboto-Medium,Roboto" font-size="116.0" fill="#7E7E7E" transform="matrix(1.00, 0.00, -0.00, -1.00, 483.9, 494.9)">l</text><text xml:space="preserve" font-family="Roboto-Medium,Roboto" font-size="116.0" fill="#7E7E7E" transform="matrix(1.00, 0.00, -0.00, -1.00, 514.0, 494.9)">s</text><image xlink:href="../../B3B03FF1-F2B4-432C-838C-86D50CBB0787/assets/E45FA46FC23F2D9AA88B050D339757FF.png" width="512.00" height="512.00" transform="matrix(1.19, 0.00, -0.00, -1.19, 939.6, 844.1)"></image></g></svg>