<?xml version="1.0" encoding="UTF-8" standalone="no"?><svg xmlns="http://www.w3.org/2000/svg" xmlns:xlink="http://www.w3.org/1999/xlink" clip-rule="evenodd" stroke-miterlimit="10" viewBox="0 0 1920 1080"><desc>SVG generated by Keynote</desc><defs></defs><g transform="matrix(1.00, 0.00, -0.00, -1.00, 0.0, 1080.0)"><path d="M 0.0 1080.0 L 1920.0 1080.0 L 1920.0 0.0 L 0.0 0.0 Z M 0.0 1080.0 " fill="#FFFFFF"></path><g><clipPath id="clip0x6080008ae5e0"><path d="M -2.0 1300.0 L 1942.0 1300.0 L 1942.0 -644.0 L -2.0 -644.0 Z M -2.5 1300.5 "></path></clipPath><g clip-path="url(#clip0x6080008ae5e0)"><image xlink:href="85F853CBADAF14D9ED718857666C2C8C.jpeg" width="1400.00" height="1400.00" transform="matrix(1.39, 0.00, -0.00, -1.39, -2.5, 1300.5)"></image></g></g><g><clipPath id="clip0x600000cb7580"><path d="M 68.2 226.3 L 309.0 226.3 L 309.0 467.1 L 68.2 467.1 Z M 68.2 226.3 "></path></clipPath><g clip-path="url(#clip0x600000cb7580)"><image xlink:href="18AA6F97F374455E5F4774D4FD7A3B79.png" width="1000.00" height="1000.00" transform="matrix(0.24, 0.00, -0.00, -0.24, 68.2, 467.1)"></image></g></g><g><clipPath id="clip0x608000eaad40"><path d="M 293.7 288.1 L 1745.4 288.1 L 1745.4 486.1 L 293.7 486.1 Z M 293.7 288.1 "></path></clipPath><g clip-path="url(#clip0x608000eaad40)"><text xml:space="preserve" font-family="Roboto-Regular,Roboto" font-size="100.0" fill="#FFFFFF" transform="matrix(1.00, 0.00, -0.00, -1.00, 326.7, 348.2)">W</text><text xml:space="preserve" font-family="Roboto-Regular,Roboto" font-size="100.0" fill="#FFFFFF" transform="matrix(1.00, 0.00, -0.00, -1.00, 413.6, 348.2)">e</text><text xml:space="preserve" font-family="Roboto-Regular,Roboto" font-size="100.0" fill="#FFFFFF" transform="matrix(1.00, 0.00, -0.00, -1.00, 466.4, 348.2)">b</text><text xml:space="preserve" font-family="Roboto-Regular,Roboto" font-size="100.0" fill="#FFFFFF" transform="matrix(1.00, 0.00, -0.00, -1.00, 523.3, 348.2)"> </text><text xml:space="preserve" font-family="Roboto-Regular,Roboto" font-size="100.0" fill="#FFFFFF" transform="matrix(1.00, 0.00, -0.00, -1.00, 548.1, 348.2)">C</text><text xml:space="preserve" font-family="Roboto-Regular,Roboto" font-size="100.0" fill="#FFFFFF" transform="matrix(1.00, 0.00, -0.00, -1.00, 611.5, 348.2)">o</text><text xml:space="preserve" font-family="Roboto-Regular,Roboto" font-size="100.0" fill="#FFFFFF" transform="matrix(1.00, 0.00, -0.00, -1.00, 668.3, 348.2)">m</text><text xml:space="preserve" font-family="Roboto-Regular,Roboto" font-size="100.0" fill="#FFFFFF" transform="matrix(1.00, 0.00, -0.00, -1.00, 755.7, 348.2)">p</text><text xml:space="preserve" font-family="Roboto-Regular,Roboto" font-size="100.0" fill="#FFFFFF" transform="matrix(1.00, 0.00, -0.00, -1.00, 812.6, 348.2)">o</text><text xml:space="preserve" font-family="Roboto-Regular,Roboto" font-size="100.0" fill="#FFFFFF" transform="matrix(1.00, 0.00, -0.00, -1.00, 869.5, 348.2)">n</text><text xml:space="preserve" font-family="Roboto-Regular,Roboto" font-size="100.0" fill="#FFFFFF" transform="matrix(1.00, 0.00, -0.00, -1.00, 926.4, 348.2)">e</text><text xml:space="preserve" font-family="Roboto-Regular,Roboto" font-size="100.0" fill="#FFFFFF" transform="matrix(1.00, 0.00, -0.00, -1.00, 979.2, 348.2)">n</text><text xml:space="preserve" font-family="Roboto-Regular,Roboto" font-size="100.0" fill="#FFFFFF" transform="matrix(1.00, 0.00, -0.00, -1.00, 1036.1, 348.2)">t</text><text xml:space="preserve" font-family="Roboto-Regular,Roboto" font-size="100.0" fill="#FFFFFF" transform="matrix(1.00, 0.00, -0.00, -1.00, 1070.6, 348.2)">s</text><text xml:space="preserve" font-family="Roboto-Regular,Roboto" font-size="100.0" fill="#FFFFFF" transform="matrix(1.00, 0.00, -0.00, -1.00, 1122.9, 348.2)"> </text><text xml:space="preserve" font-family="Roboto-Regular,Roboto" font-size="100.0" fill="#FFFFFF" transform="matrix(1.00, 0.00, -0.00, -1.00, 1147.7, 348.2)">a</text><text xml:space="preserve" font-family="Roboto-Regular,Roboto" font-size="100.0" fill="#FFFFFF" transform="matrix(1.00, 0.00, -0.00, -1.00, 1202.7, 348.2)">n</text><text xml:space="preserve" font-family="Roboto-Regular,Roboto" font-size="100.0" fill="#FFFFFF" transform="matrix(1.00, 0.00, -0.00, -1.00, 1259.6, 348.2)">d</text><text xml:space="preserve" font-family="Roboto-Regular,Roboto" font-size="100.0" fill="#FFFFFF" transform="matrix(1.00, 0.00, -0.00, -1.00, 1316.4, 348.2)"> </text><text xml:space="preserve" font-family="Roboto-Regular,Roboto" font-size="100.0" fill="#FFFFFF" transform="matrix(1.00, 0.00, -0.00, -1.00, 1341.2, 348.2)">P</text><text xml:space="preserve" font-family="Roboto-Regular,Roboto" font-size="100.0" fill="#FFFFFF" transform="matrix(1.00, 0.00, -0.00, -1.00, 1404.6, 348.2)">o</text><text xml:space="preserve" font-family="Roboto-Regular,Roboto" font-size="100.0" fill="#FFFFFF" transform="matrix(1.00, 0.00, -0.00, -1.00, 1461.5, 348.2)">l</text><text xml:space="preserve" font-family="Roboto-Regular,Roboto" font-size="100.0" fill="#FFFFFF" transform="matrix(1.00, 0.00, -0.00, -1.00, 1486.7, 348.2)">y</text><text xml:space="preserve" font-family="Roboto-Regular,Roboto" font-size="100.0" fill="#FFFFFF" transform="matrix(1.00, 0.00, -0.00, -1.00, 1537.0, 348.2)">m</text><text xml:space="preserve" font-family="Roboto-Regular,Roboto" font-size="100.0" fill="#FFFFFF" transform="matrix(1.00, 0.00, -0.00, -1.00, 1624.4, 348.2)">e</text><text xml:space="preserve" font-family="Roboto-Regular,Roboto" font-size="100.0" fill="#FFFFFF" transform="matrix(1.00, 0.00, -0.00, -1.00, 1677.2, 348.2)">r</text></g></g><g><clipPath id="clip0x6080008b5ae0"><path d="M 309.6 248.0 L 1124.1 248.0 L 1124.1 350.3 L 309.6 350.3 Z M 309.6 248.0 "></path></clipPath><g clip-path="url(#clip0x6080008b5ae0)"><text xml:space="preserve" font-family="Roboto-Light,Roboto" font-size="52.0" fill="#FFFFFF" transform="matrix(1.00, 0.00, -0.00, -1.00, 326.7, 279.2)">A</text><text xml:space="preserve" font-family="Roboto-Light,Roboto" font-size="52.0" fill="#FFFFFF" transform="matrix(1.00, 0.00, -0.00, -1.00, 359.1, 279.2)"> </text><text xml:space="preserve" font-family="Roboto-Light,Roboto" font-size="52.0" fill="#FFFFFF" transform="matrix(1.00, 0.00, -0.00, -1.00, 371.8, 279.2)">n</text><text xml:space="preserve" font-family="Roboto-Light,Roboto" font-size="52.0" fill="#FFFFFF" transform="matrix(1.00, 0.00, -0.00, -1.00, 400.7, 279.2)">e</text><text xml:space="preserve" font-family="Roboto-Light,Roboto" font-size="52.0" fill="#FFFFFF" transform="matrix(1.00, 0.00, -0.00, -1.00, 427.5, 279.2)">w</text><text xml:space="preserve" font-family="Roboto-Light,Roboto" font-size="52.0" fill="#FFFFFF" transform="matrix(1.00, 0.00, -0.00, -1.00, 466.9, 279.2)"> </text><text xml:space="preserve" font-family="Roboto-Light,Roboto" font-size="52.0" fill="#FFFFFF" transform="matrix(1.00, 0.00, -0.00, -1.00, 479.5, 279.2)">w</text><text xml:space="preserve" font-family="Roboto-Light,Roboto" font-size="52.0" fill="#FFFFFF" transform="matrix(1.00, 0.00, -0.00, -1.00, 518.9, 279.2)">a</text><text xml:space="preserve" font-family="Roboto-Light,Roboto" font-size="52.0" fill="#FFFFFF" transform="matrix(1.00, 0.00, -0.00, -1.00, 546.4, 279.2)">y</text><text xml:space="preserve" font-family="Roboto-Light,Roboto" font-size="52.0" fill="#FFFFFF" transform="matrix(1.00, 0.00, -0.00, -1.00, 571.9, 279.2)"> </text><text xml:space="preserve" font-family="Roboto-Light,Roboto" font-size="52.0" fill="#FFFFFF" transform="matrix(1.00, 0.00, -0.00, -1.00, 584.5, 279.2)">t</text><text xml:space="preserve" font-family="Roboto-Light,Roboto" font-size="52.0" fill="#FFFFFF" transform="matrix(1.00, 0.00, -0.00, -1.00, 601.3, 279.2)">o</text><text xml:space="preserve" font-family="Roboto-Light,Roboto" font-size="52.0" fill="#FFFFFF" transform="matrix(1.00, 0.00, -0.00, -1.00, 630.2, 279.2)"> </text><text xml:space="preserve" font-family="Roboto-Light,Roboto" font-size="52.0" fill="#FFFFFF" transform="matrix(1.00, 0.00, -0.00, -1.00, 642.9, 279.2)">t</text><text xml:space="preserve" font-family="Roboto-Light,Roboto" font-size="52.0" fill="#FFFFFF" transform="matrix(1.00, 0.00, -0.00, -1.00, 660.1, 279.2)">h</text><text xml:space="preserve" font-family="Roboto-Light,Roboto" font-size="52.0" fill="#FFFFFF" transform="matrix(1.00, 0.00, -0.00, -1.00, 689.1, 279.2)">i</text><text xml:space="preserve" font-family="Roboto-Light,Roboto" font-size="52.0" fill="#FFFFFF" transform="matrix(1.00, 0.00, -0.00, -1.00, 700.9, 279.2)">n</text><text xml:space="preserve" font-family="Roboto-Light,Roboto" font-size="52.0" fill="#FFFFFF" transform="matrix(1.00, 0.00, -0.00, -1.00, 729.8, 279.2)">k</text><text xml:space="preserve" font-family="Roboto-Light,Roboto" font-size="52.0" fill="#FFFFFF" transform="matrix(1.00, 0.00, -0.00, -1.00, 755.4, 279.2)"> </text><text xml:space="preserve" font-family="Roboto-Light,Roboto" font-size="52.0" fill="#FFFFFF" transform="matrix(1.00, 0.00, -0.00, -1.00, 768.0, 279.2)">a</text><text xml:space="preserve" font-family="Roboto-Light,Roboto" font-size="52.0" fill="#FFFFFF" transform="matrix(1.00, 0.00, -0.00, -1.00, 795.9, 279.2)">b</text><text xml:space="preserve" font-family="Roboto-Light,Roboto" font-size="52.0" fill="#FFFFFF" transform="matrix(1.00, 0.00, -0.00, -1.00, 824.9, 279.2)">o</text><text xml:space="preserve" font-family="Roboto-Light,Roboto" font-size="52.0" fill="#FFFFFF" transform="matrix(1.00, 0.00, -0.00, -1.00, 853.8, 279.2)">u</text><text xml:space="preserve" font-family="Roboto-Light,Roboto" font-size="52.0" fill="#FFFFFF" transform="matrix(1.00, 0.00, -0.00, -1.00, 882.7, 279.2)">t</text><text xml:space="preserve" font-family="Roboto-Light,Roboto" font-size="52.0" fill="#FFFFFF" transform="matrix(1.00, 0.00, -0.00, -1.00, 900.0, 279.2)"> </text><text xml:space="preserve" font-family="Roboto-Light,Roboto" font-size="52.0" fill="#FFFFFF" transform="matrix(1.00, 0.00, -0.00, -1.00, 912.6, 279.2)">t</text><text xml:space="preserve" font-family="Roboto-Light,Roboto" font-size="52.0" fill="#FFFFFF" transform="matrix(1.00, 0.00, -0.00, -1.00, 929.9, 279.2)">h</text><text xml:space="preserve" font-family="Roboto-Light,Roboto" font-size="52.0" fill="#FFFFFF" transform="matrix(1.00, 0.00, -0.00, -1.00, 958.8, 279.2)">e</text><text xml:space="preserve" font-family="Roboto-Light,Roboto" font-size="52.0" fill="#FFFFFF" transform="matrix(1.00, 0.00, -0.00, -1.00, 985.6, 279.2)"> </text><text xml:space="preserve" font-family="Roboto-Light,Roboto" font-size="52.0" fill="#FFFFFF" transform="matrix(1.00, 0.00, -0.00, -1.00, 998.3, 279.2)">w</text><text xml:space="preserve" font-family="Roboto-Light,Roboto" font-size="52.0" fill="#FFFFFF" transform="matrix(1.00, 0.00, -0.00, -1.00, 1037.6, 279.2)">e</text><text xml:space="preserve" font-family="Roboto-Light,Roboto" font-size="52.0" fill="#FFFFFF" transform="matrix(1.00, 0.00, -0.00, -1.00, 1064.4, 279.2)">b</text><text xml:space="preserve" font-family="Roboto-Light,Roboto" font-size="52.0" fill="#FFFFFF" transform="matrix(1.00, 0.00, -0.00, -1.00, 1093.3, 279.2)">.</text></g></g></g></svg>