<?xml version="1.0" encoding="UTF-8" standalone="no"?><svg xmlns="http://www.w3.org/2000/svg" xmlns:xlink="http://www.w3.org/1999/xlink" clip-rule="evenodd" stroke-miterlimit="10" viewBox="0 0 1920 1080"><desc>SVG generated by Keynote</desc><defs></defs><g transform="matrix(1.00, 0.00, -0.00, -1.00, 0.0, 1080.0)"><path d="M 0.0 1080.0 L 1920.0 1080.0 L 1920.0 0.0 L 0.0 0.0 Z M 0.0 1080.0 " fill="#FFFFFF"></path><text xml:space="preserve" font-family="Roboto-Bold,Roboto" font-weight="bold" font-size="80.0" fill="#424242" transform="matrix(1.00, 0.00, -0.00, -1.00, 160.2, 941.5)">B</text><text xml:space="preserve" font-family="Roboto-Bold,Roboto" font-weight="bold" font-size="80.0" fill="#424242" transform="matrix(1.00, 0.00, -0.00, -1.00, 211.5, 941.5)">r</text><text xml:space="preserve" font-family="Roboto-Bold,Roboto" font-weight="bold" font-size="80.0" fill="#424242" transform="matrix(1.00, 0.00, -0.00, -1.00, 239.5, 941.5)">o</text><text xml:space="preserve" font-family="Roboto-Bold,Roboto" font-weight="bold" font-size="80.0" fill="#424242" transform="matrix(1.00, 0.00, -0.00, -1.00, 284.7, 941.5)">w</text><text xml:space="preserve" font-family="Roboto-Bold,Roboto" font-weight="bold" font-size="80.0" fill="#424242" transform="matrix(1.00, 0.00, -0.00, -1.00, 343.6, 941.5)">s</text><text xml:space="preserve" font-family="Roboto-Bold,Roboto" font-weight="bold" font-size="80.0" fill="#424242" transform="matrix(1.00, 0.00, -0.00, -1.00, 384.8, 941.5)">e</text><text xml:space="preserve" font-family="Roboto-Bold,Roboto" font-weight="bold" font-size="80.0" fill="#424242" transform="matrix(1.00, 0.00, -0.00, -1.00, 427.2, 941.5)">r</text><text xml:space="preserve" font-family="Roboto-Bold,Roboto" font-weight="bold" font-size="80.0" fill="#424242" transform="matrix(1.00, 0.00, -0.00, -1.00, 455.2, 941.5)"> </text><text xml:space="preserve" font-family="Roboto-Bold,Roboto" font-weight="bold" font-size="80.0" fill="#424242" transform="matrix(1.00, 0.00, -0.00, -1.00, 475.1, 941.5)">s</text><text xml:space="preserve" font-family="Roboto-Bold,Roboto" font-weight="bold" font-size="80.0" fill="#424242" transform="matrix(1.00, 0.00, -0.00, -1.00, 516.3, 941.5)">u</text><text xml:space="preserve" font-family="Roboto-Bold,Roboto" font-weight="bold" font-size="80.0" fill="#424242" transform="matrix(1.00, 0.00, -0.00, -1.00, 561.5, 941.5)">p</text><text xml:space="preserve" font-family="Roboto-Bold,Roboto" font-weight="bold" font-size="80.0" fill="#424242" transform="matrix(1.00, 0.00, -0.00, -1.00, 606.7, 941.5)">p</text><text xml:space="preserve" font-family="Roboto-Bold,Roboto" font-weight="bold" font-size="80.0" fill="#424242" transform="matrix(1.00, 0.00, -0.00, -1.00, 651.9, 941.5)">o</text><text xml:space="preserve" font-family="Roboto-Bold,Roboto" font-weight="bold" font-size="80.0" fill="#424242" transform="matrix(1.00, 0.00, -0.00, -1.00, 697.1, 941.5)">r</text><text xml:space="preserve" font-family="Roboto-Bold,Roboto" font-weight="bold" font-size="80.0" fill="#424242" transform="matrix(1.00, 0.00, -0.00, -1.00, 726.2, 941.5)">t</text><text xml:space="preserve" font-family="RobotoCondensed-LightItalic,Roboto Condensed" font-style="italic" font-size="54.0" fill="#A7A7A7" transform="matrix(1.00, 0.00, -0.00, -1.00, 160.2, 873.6)">Q</text><text xml:space="preserve" font-family="RobotoCondensed-LightItalic,Roboto Condensed" font-style="italic" font-size="54.0" fill="#A7A7A7" transform="matrix(1.00, 0.00, -0.00, -1.00, 189.8, 873.6)">1</text><text xml:space="preserve" font-family="RobotoCondensed-LightItalic,Roboto Condensed" font-style="italic" font-size="54.0" fill="#A7A7A7" transform="matrix(1.00, 0.00, -0.00, -1.00, 214.3, 873.6)"> </text><text xml:space="preserve" font-family="RobotoCondensed-LightItalic,Roboto Condensed" font-style="italic" font-size="54.0" fill="#A7A7A7" transform="matrix(1.00, 0.00, -0.00, -1.00, 225.5, 873.6)">2</text><text xml:space="preserve" font-family="RobotoCondensed-LightItalic,Roboto Condensed" font-style="italic" font-size="54.0" fill="#A7A7A7" transform="matrix(1.00, 0.00, -0.00, -1.00, 249.9, 873.6)">0</text><text xml:space="preserve" font-family="RobotoCondensed-LightItalic,Roboto Condensed" font-style="italic" font-size="54.0" fill="#A7A7A7" transform="matrix(1.00, 0.00, -0.00, -1.00, 274.8, 873.6)">1</text><text xml:space="preserve" font-family="RobotoCondensed-LightItalic,Roboto Condensed" font-style="italic" font-size="54.0" fill="#A7A7A7" transform="matrix(1.00, 0.00, -0.00, -1.00, 299.2, 873.6)">5</text><text xml:space="preserve" font-family="RobotoCondensed-LightItalic,Roboto Condensed" font-style="italic" font-size="54.0" fill="#A7A7A7" transform="matrix(1.00, 0.00, -0.00, -1.00, 323.7, 873.6)"> </text><text xml:space="preserve" font-family="RobotoCondensed-LightItalic,Roboto Condensed" font-style="italic" font-size="54.0" fill="#00ABC1" transform="matrix(1.00, 0.00, -0.00, -1.00, 334.9, 873.6)">(</text><text xml:space="preserve" font-family="RobotoCondensed-LightItalic,Roboto Condensed" font-style="italic" font-size="54.0" fill="#00ABC1" transform="matrix(1.00, 0.00, -0.00, -1.00, 349.3, 873.6)">w</text><text xml:space="preserve" font-family="RobotoCondensed-LightItalic,Roboto Condensed" font-style="italic" font-size="54.0" fill="#00ABC1" transform="matrix(1.00, 0.00, -0.00, -1.00, 382.3, 873.6)">i</text><text xml:space="preserve" font-family="RobotoCondensed-LightItalic,Roboto Condensed" font-style="italic" font-size="54.0" fill="#00ABC1" transform="matrix(1.00, 0.00, -0.00, -1.00, 393.1, 873.6)">t</text><text xml:space="preserve" font-family="RobotoCondensed-LightItalic,Roboto Condensed" font-style="italic" font-size="54.0" fill="#00ABC1" transform="matrix(1.00, 0.00, -0.00, -1.00, 408.3, 873.6)">h</text><text xml:space="preserve" font-family="RobotoCondensed-LightItalic,Roboto Condensed" font-style="italic" font-size="54.0" fill="#00ABC1" transform="matrix(1.00, 0.00, -0.00, -1.00, 432.9, 873.6)">o</text><text xml:space="preserve" font-family="RobotoCondensed-LightItalic,Roboto Condensed" font-style="italic" font-size="54.0" fill="#00ABC1" transform="matrix(1.00, 0.00, -0.00, -1.00, 457.6, 873.6)">u</text><text xml:space="preserve" font-family="RobotoCondensed-LightItalic,Roboto Condensed" font-style="italic" font-size="54.0" fill="#00ABC1" transform="matrix(1.00, 0.00, -0.00, -1.00, 482.2, 873.6)">t</text><text xml:space="preserve" font-family="RobotoCondensed-LightItalic,Roboto Condensed" font-style="italic" font-size="54.0" fill="#00ABC1" transform="matrix(1.00, 0.00, -0.00, -1.00, 497.4, 873.6)"> </text><text xml:space="preserve" font-family="RobotoCondensed-LightItalic,Roboto Condensed" font-style="italic" font-size="54.0" fill="#00ABC1" transform="matrix(1.00, 0.00, -0.00, -1.00, 508.6, 873.6)">P</text><text xml:space="preserve" font-family="RobotoCondensed-LightItalic,Roboto Condensed" font-style="italic" font-size="54.0" fill="#00ABC1" transform="matrix(1.00, 0.00, -0.00, -1.00, 535.7, 873.6)">o</text><text xml:space="preserve" font-family="RobotoCondensed-LightItalic,Roboto Condensed" font-style="italic" font-size="54.0" fill="#00ABC1" transform="matrix(1.00, 0.00, -0.00, -1.00, 560.4, 873.6)">l</text><text xml:space="preserve" font-family="RobotoCondensed-LightItalic,Roboto Condensed" font-style="italic" font-size="54.0" fill="#00ABC1" transform="matrix(1.00, 0.00, -0.00, -1.00, 571.2, 873.6)">y</text><text xml:space="preserve" font-family="RobotoCondensed-LightItalic,Roboto Condensed" font-style="italic" font-size="54.0" fill="#00ABC1" transform="matrix(1.00, 0.00, -0.00, -1.00, 593.3, 873.6)">f</text><text xml:space="preserve" font-family="RobotoCondensed-LightItalic,Roboto Condensed" font-style="italic" font-size="54.0" fill="#00ABC1" transform="matrix(1.00, 0.00, -0.00, -1.00, 608.4, 873.6)">i</text><text xml:space="preserve" font-family="RobotoCondensed-LightItalic,Roboto Condensed" font-style="italic" font-size="54.0" fill="#00ABC1" transform="matrix(1.00, 0.00, -0.00, -1.00, 619.2, 873.6)">l</text><text xml:space="preserve" font-family="RobotoCondensed-LightItalic,Roboto Condensed" font-style="italic" font-size="54.0" fill="#00ABC1" transform="matrix(1.00, 0.00, -0.00, -1.00, 630.0, 873.6)">l</text><text xml:space="preserve" font-family="RobotoCondensed-LightItalic,Roboto Condensed" font-style="italic" font-size="54.0" fill="#00ABC1" transform="matrix(1.00, 0.00, -0.00, -1.00, 640.8, 873.6)">s</text><text xml:space="preserve" font-family="RobotoCondensed-LightItalic,Roboto Condensed" font-style="italic" font-size="54.0" fill="#00ABC1" transform="matrix(1.00, 0.00, -0.00, -1.00, 662.8, 873.6)">)</text><g><clipPath id="clip0x6080028adf20"><path d="M 107.2 26.2 L 2078.3 26.2 L 2078.3 868.0 L 107.2 868.0 Z M 107.2 26.2 "></path></clipPath><g clip-path="url(#clip0x6080028adf20)"><image xlink:href="../../AFF2936C-70C5-49E4-A944-0B666F729057/assets/D43F1C8E374877EC3C37E0FE404AE6C1.png" width="1440.00" height="615.00" transform="matrix(1.37, 0.00, -0.00, -1.37, 107.2, 868.0)"></image></g></g><g><clipPath id="clip0x6000028b94a0"><path d="M 608.0 864.0 L 1262.0 864.0 L 1262.0 640.0 L 608.0 640.0 Z M 607.7 863.9 "></path></clipPath><g clip-path="url(#clip0x6000028b94a0)"><g><clipPath id="clip0x6000028b8f60"><path d="M 607.7 639.6 L 1261.6 639.6 L 1261.6 863.9 L 607.7 863.9 Z M 607.7 639.6 "></path></clipPath><g clip-path="url(#clip0x6000028b8f60)"><image xlink:href="../../AFF2936C-70C5-49E4-A944-0B666F729057/assets/FC55B1F7431F9D667DBDCB32CC006C9C.png" width="1440.00" height="615.00" transform="matrix(1.37, 0.00, -0.00, -1.37, 107.2, 867.5)"></image></g></g></g></g></g></svg>