<?xml version="1.0" encoding="UTF-8" standalone="no"?><svg xmlns="http://www.w3.org/2000/svg" xmlns:xlink="http://www.w3.org/1999/xlink" clip-rule="evenodd" stroke-miterlimit="10" viewBox="0 0 1920 1080"><desc>SVG generated by Keynote</desc><defs></defs><g transform="matrix(1.00, 0.00, -0.00, -1.00, 0.0, 1080.0)"><path d="M 0.0 1080.0 L 1920.0 1080.0 L 1920.0 0.0 L 0.0 0.0 Z M 0.0 1080.0 " fill="#FFFFFF"></path><image xlink:href="../../1BCAE160-45C5-42C9-89F3-F7746AC05B6D/assets/026F5EDAE62B6C8D72C99993242CA9F2.png" width="588.00" height="548.00" transform="matrix(0.99, 0.00, -0.00, -0.99, 1200.3, 935.0)"></image><image xlink:href="../../1BCAE160-45C5-42C9-89F3-F7746AC05B6D/assets/026F5EDAE62B6C8D72C99993242CA9F2.png" width="588.00" height="548.00" transform="matrix(0.99, 0.00, -0.00, -0.99, 1200.3, -104.8)"></image><image xlink:href="../../1BCAE160-45C5-42C9-89F3-F7746AC05B6D/assets/026F5EDAE62B6C8D72C99993242CA9F2.png" width="588.00" height="548.00" transform="matrix(0.99, 0.00, -0.00, -0.99, 1759.2, -104.8)"></image><path d="M 160.2 102.0 L 160.0 390.6 C 160.0 394.2 163.1 397.0 166.7 397.0 L 1070.8 397.0 C 1074.3 397.0 1077.0 394.2 1077.0 390.6 L 1077.0 102.0 C 1077.0 98.5 1074.3 96.0 1070.8 96.0 L 166.7 96.0 C 163.1 96.0 160.2 98.5 160.2 102.0 Z M 160.2 102.0 " fill="#E7E7E7"></path><g><clipPath id="clip0x6080022aedc0"><path d="M 160.2 95.5 L 1077.3 95.5 L 1077.3 397.1 L 160.2 397.1 Z M 160.2 95.5 "></path></clipPath><g clip-path="url(#clip0x6080022aedc0)"><text xml:space="preserve" font-family=".LucidaGrandeUI,.Lucida Grande UI" font-size="40.0" fill="#4185F4" transform="matrix(1.00, 0.00, -0.00, -1.00, 180.2, 320.1)">&lt;</text><text xml:space="preserve" font-family=".LucidaGrandeUI,.Lucida Grande UI" font-size="40.0" fill="#4185F4" transform="matrix(1.00, 0.00, -0.00, -1.00, 212.0, 320.1)">d</text><text xml:space="preserve" font-family=".LucidaGrandeUI,.Lucida Grande UI" font-size="40.0" fill="#4185F4" transform="matrix(1.00, 0.00, -0.00, -1.00, 237.2, 320.1)">i</text><text xml:space="preserve" font-family=".LucidaGrandeUI,.Lucida Grande UI" font-size="40.0" fill="#4185F4" transform="matrix(1.00, 0.00, -0.00, -1.00, 248.8, 320.1)">v</text><text xml:space="preserve" font-family=".LucidaGrandeUI,.Lucida Grande UI" font-size="40.0" fill="#000000" transform="matrix(1.00, 0.00, -0.00, -1.00, 269.3, 320.1)"> </text><text xml:space="preserve" font-family=".LucidaGrandeUI,.Lucida Grande UI" font-size="40.0" fill="#E82663" transform="matrix(1.00, 0.00, -0.00, -1.00, 282.0, 320.1)">c</text><text xml:space="preserve" font-family=".LucidaGrandeUI,.Lucida Grande UI" font-size="40.0" fill="#E82663" transform="matrix(1.00, 0.00, -0.00, -1.00, 302.5, 320.1)">l</text><text xml:space="preserve" font-family=".LucidaGrandeUI,.Lucida Grande UI" font-size="40.0" fill="#E82663" transform="matrix(1.00, 0.00, -0.00, -1.00, 314.1, 320.1)">a</text><text xml:space="preserve" font-family=".LucidaGrandeUI,.Lucida Grande UI" font-size="40.0" fill="#E82663" transform="matrix(1.00, 0.00, -0.00, -1.00, 336.2, 320.1)">s</text><text xml:space="preserve" font-family=".LucidaGrandeUI,.Lucida Grande UI" font-size="40.0" fill="#E82663" transform="matrix(1.00, 0.00, -0.00, -1.00, 354.7, 320.1)">s</text><text xml:space="preserve" font-family=".LucidaGrandeUI,.Lucida Grande UI" font-size="40.0" fill="#A3A3A3" transform="matrix(1.00, 0.00, -0.00, -1.00, 373.1, 320.1)">=</text><text xml:space="preserve" font-family=".LucidaGrandeUI,.Lucida Grande UI" font-size="40.0" fill="#0D9D57" transform="matrix(1.00, 0.00, -0.00, -1.00, 404.9, 320.1)">“</text><text xml:space="preserve" font-family=".LucidaGrandeUI,.Lucida Grande UI" font-size="40.0" fill="#0D9D57" transform="matrix(1.00, 0.00, -0.00, -1.00, 422.1, 320.1)">c</text><text xml:space="preserve" font-family=".LucidaGrandeUI,.Lucida Grande UI" font-size="40.0" fill="#0D9D57" transform="matrix(1.00, 0.00, -0.00, -1.00, 442.6, 320.1)">a</text><text xml:space="preserve" font-family=".LucidaGrandeUI,.Lucida Grande UI" font-size="40.0" fill="#0D9D57" transform="matrix(1.00, 0.00, -0.00, -1.00, 464.7, 320.1)">r</text><text xml:space="preserve" font-family=".LucidaGrandeUI,.Lucida Grande UI" font-size="40.0" fill="#0D9D57" transform="matrix(1.00, 0.00, -0.00, -1.00, 481.1, 320.1)">d</text><text xml:space="preserve" font-family=".LucidaGrandeUI,.Lucida Grande UI" font-size="40.0" fill="#0D9D57" transform="matrix(1.00, 0.00, -0.00, -1.00, 506.3, 320.1)">”</text><text xml:space="preserve" font-family=".LucidaGrandeUI,.Lucida Grande UI" font-size="40.0" fill="#4185F4" transform="matrix(1.00, 0.00, -0.00, -1.00, 523.4, 320.1)">&gt;</text><text xml:space="preserve" font-family=".LucidaGrandeUI,.Lucida Grande UI" font-size="40.0" fill="#000000" transform="matrix(1.00, 0.00, -0.00, -1.00, 555.2, 320.1)"></text><text xml:space="preserve" font-family=".LucidaGrandeUI,.Lucida Grande UI" font-size="40.0" fill="#000000" transform="matrix(1.00, 0.00, -0.00, -1.00, 180.2, 263.7)"> </text><text xml:space="preserve" font-family=".LucidaGrandeUI,.Lucida Grande UI" font-size="40.0" fill="#000000" transform="matrix(1.00, 0.00, -0.00, -1.00, 192.9, 263.7)"> </text><text xml:space="preserve" font-family=".LucidaGrandeUI,.Lucida Grande UI" font-size="40.0" fill="#4185F4" transform="matrix(1.00, 0.00, -0.00, -1.00, 205.5, 263.7)">&lt;</text><text xml:space="preserve" font-family=".LucidaGrandeUI,.Lucida Grande UI" font-size="40.0" fill="#4185F4" transform="matrix(1.00, 0.00, -0.00, -1.00, 237.3, 263.7)">i</text><text xml:space="preserve" font-family=".LucidaGrandeUI,.Lucida Grande UI" font-size="40.0" fill="#4185F4" transform="matrix(1.00, 0.00, -0.00, -1.00, 248.9, 263.7)">m</text><text xml:space="preserve" font-family=".LucidaGrandeUI,.Lucida Grande UI" font-size="40.0" fill="#4185F4" transform="matrix(1.00, 0.00, -0.00, -1.00, 286.2, 263.7)">g</text><text xml:space="preserve" font-family=".LucidaGrandeUI,.Lucida Grande UI" font-size="40.0" fill="#000000" transform="matrix(1.00, 0.00, -0.00, -1.00, 311.2, 263.7)"> </text><text xml:space="preserve" font-family=".LucidaGrandeUI,.Lucida Grande UI" font-size="40.0" fill="#E82663" transform="matrix(1.00, 0.00, -0.00, -1.00, 323.8, 263.7)">s</text><text xml:space="preserve" font-family=".LucidaGrandeUI,.Lucida Grande UI" font-size="40.0" fill="#E82663" transform="matrix(1.00, 0.00, -0.00, -1.00, 342.4, 263.7)">r</text><text xml:space="preserve" font-family=".LucidaGrandeUI,.Lucida Grande UI" font-size="40.0" fill="#E82663" transform="matrix(1.00, 0.00, -0.00, -1.00, 358.7, 263.7)">c</text><text xml:space="preserve" font-family=".LucidaGrandeUI,.Lucida Grande UI" font-size="40.0" fill="#A3A3A3" transform="matrix(1.00, 0.00, -0.00, -1.00, 379.2, 263.7)">=</text><text xml:space="preserve" font-family=".LucidaGrandeUI,.Lucida Grande UI" font-size="40.0" fill="#0D9D57" transform="matrix(1.00, 0.00, -0.00, -1.00, 411.0, 263.7)">“</text><text xml:space="preserve" font-family=".LucidaGrandeUI,.Lucida Grande UI" font-size="40.0" fill="#0D9D57" transform="matrix(1.00, 0.00, -0.00, -1.00, 428.2, 263.7)">s</text><text xml:space="preserve" font-family=".LucidaGrandeUI,.Lucida Grande UI" font-size="40.0" fill="#0D9D57" transform="matrix(1.00, 0.00, -0.00, -1.00, 446.7, 263.7)">c</text><text xml:space="preserve" font-family=".LucidaGrandeUI,.Lucida Grande UI" font-size="40.0" fill="#0D9D57" transform="matrix(1.00, 0.00, -0.00, -1.00, 467.2, 263.7)">i</text><text xml:space="preserve" font-family=".LucidaGrandeUI,.Lucida Grande UI" font-size="40.0" fill="#0D9D57" transform="matrix(1.00, 0.00, -0.00, -1.00, 478.8, 263.7)">e</text><text xml:space="preserve" font-family=".LucidaGrandeUI,.Lucida Grande UI" font-size="40.0" fill="#0D9D57" transform="matrix(1.00, 0.00, -0.00, -1.00, 501.0, 263.7)">n</text><text xml:space="preserve" font-family=".LucidaGrandeUI,.Lucida Grande UI" font-size="40.0" fill="#0D9D57" transform="matrix(1.00, 0.00, -0.00, -1.00, 525.8, 263.7)">c</text><text xml:space="preserve" font-family=".LucidaGrandeUI,.Lucida Grande UI" font-size="40.0" fill="#0D9D57" transform="matrix(1.00, 0.00, -0.00, -1.00, 546.4, 263.7)">e</text><text xml:space="preserve" font-family=".LucidaGrandeUI,.Lucida Grande UI" font-size="40.0" fill="#0D9D57" transform="matrix(1.00, 0.00, -0.00, -1.00, 568.6, 263.7)">.</text><text xml:space="preserve" font-family=".LucidaGrandeUI,.Lucida Grande UI" font-size="40.0" fill="#0D9D57" transform="matrix(1.00, 0.00, -0.00, -1.00, 581.3, 263.7)">s</text><text xml:space="preserve" font-family=".LucidaGrandeUI,.Lucida Grande UI" font-size="40.0" fill="#0D9D57" transform="matrix(1.00, 0.00, -0.00, -1.00, 599.8, 263.7)">v</text><text xml:space="preserve" font-family=".LucidaGrandeUI,.Lucida Grande UI" font-size="40.0" fill="#0D9D57" transform="matrix(1.00, 0.00, -0.00, -1.00, 620.4, 263.7)">g</text><text xml:space="preserve" font-family=".LucidaGrandeUI,.Lucida Grande UI" font-size="40.0" fill="#0D9D57" transform="matrix(1.00, 0.00, -0.00, -1.00, 645.3, 263.7)">”</text><text xml:space="preserve" font-family=".LucidaGrandeUI,.Lucida Grande UI" font-size="40.0" fill="#4185F4" transform="matrix(1.00, 0.00, -0.00, -1.00, 662.5, 263.7)">&gt;</text><text xml:space="preserve" font-family=".LucidaGrandeUI,.Lucida Grande UI" font-size="40.0" fill="#000000" transform="matrix(1.00, 0.00, -0.00, -1.00, 694.3, 263.7)"></text><text xml:space="preserve" font-family=".LucidaGrandeUI,.Lucida Grande UI" font-size="40.0" fill="#000000" transform="matrix(1.00, 0.00, -0.00, -1.00, 180.2, 207.3)"> </text><text xml:space="preserve" font-family=".LucidaGrandeUI,.Lucida Grande UI" font-size="40.0" fill="#000000" transform="matrix(1.00, 0.00, -0.00, -1.00, 192.9, 207.3)"> </text><text xml:space="preserve" font-family=".LucidaGrandeUI,.Lucida Grande UI" font-size="40.0" fill="#4185F4" transform="matrix(1.00, 0.00, -0.00, -1.00, 205.5, 207.3)">&lt;</text><text xml:space="preserve" font-family=".LucidaGrandeUI,.Lucida Grande UI" font-size="40.0" fill="#4185F4" transform="matrix(1.00, 0.00, -0.00, -1.00, 237.3, 207.3)">p</text><text xml:space="preserve" font-family=".LucidaGrandeUI,.Lucida Grande UI" font-size="40.0" fill="#4185F4" transform="matrix(1.00, 0.00, -0.00, -1.00, 262.5, 207.3)">a</text><text xml:space="preserve" font-family=".LucidaGrandeUI,.Lucida Grande UI" font-size="40.0" fill="#4185F4" transform="matrix(1.00, 0.00, -0.00, -1.00, 284.6, 207.3)">p</text><text xml:space="preserve" font-family=".LucidaGrandeUI,.Lucida Grande UI" font-size="40.0" fill="#4185F4" transform="matrix(1.00, 0.00, -0.00, -1.00, 309.8, 207.3)">e</text><text xml:space="preserve" font-family=".LucidaGrandeUI,.Lucida Grande UI" font-size="40.0" fill="#4185F4" transform="matrix(1.00, 0.00, -0.00, -1.00, 332.1, 207.3)">r</text><text xml:space="preserve" font-family=".LucidaGrandeUI,.Lucida Grande UI" font-size="40.0" fill="#4185F4" transform="matrix(1.00, 0.00, -0.00, -1.00, 348.5, 207.3)">-</text><text xml:space="preserve" font-family=".LucidaGrandeUI,.Lucida Grande UI" font-size="40.0" fill="#4185F4" transform="matrix(1.00, 0.00, -0.00, -1.00, 371.6, 207.3)">r</text><text xml:space="preserve" font-family=".LucidaGrandeUI,.Lucida Grande UI" font-size="40.0" fill="#4185F4" transform="matrix(1.00, 0.00, -0.00, -1.00, 388.0, 207.3)">i</text><text xml:space="preserve" font-family=".LucidaGrandeUI,.Lucida Grande UI" font-size="40.0" fill="#4185F4" transform="matrix(1.00, 0.00, -0.00, -1.00, 399.5, 207.3)">p</text><text xml:space="preserve" font-family=".LucidaGrandeUI,.Lucida Grande UI" font-size="40.0" fill="#4185F4" transform="matrix(1.00, 0.00, -0.00, -1.00, 424.8, 207.3)">p</text><text xml:space="preserve" font-family=".LucidaGrandeUI,.Lucida Grande UI" font-size="40.0" fill="#4185F4" transform="matrix(1.00, 0.00, -0.00, -1.00, 450.0, 207.3)">l</text><text xml:space="preserve" font-family=".LucidaGrandeUI,.Lucida Grande UI" font-size="40.0" fill="#4185F4" transform="matrix(1.00, 0.00, -0.00, -1.00, 461.5, 207.3)">e</text><text xml:space="preserve" font-family=".LucidaGrandeUI,.Lucida Grande UI" font-size="40.0" fill="#000000" transform="matrix(1.00, 0.00, -0.00, -1.00, 483.7, 207.3)"> </text><text xml:space="preserve" font-family=".LucidaGrandeUI,.Lucida Grande UI" font-size="40.0" fill="#E82663" transform="matrix(1.00, 0.00, -0.00, -1.00, 496.4, 207.3)">ﬁ</text><text xml:space="preserve" font-family=".LucidaGrandeUI,.Lucida Grande UI" font-size="40.0" fill="#E82663" transform="matrix(1.00, 0.00, -0.00, -1.00, 522.1, 207.3)">t</text><text xml:space="preserve" font-family=".LucidaGrandeUI,.Lucida Grande UI" font-size="40.0" fill="#4185F4" transform="matrix(1.00, 0.00, -0.00, -1.00, 537.1, 207.3)">&gt;</text><text xml:space="preserve" font-family=".LucidaGrandeUI,.Lucida Grande UI" font-size="40.0" fill="#4185F4" transform="matrix(1.00, 0.00, -0.00, -1.00, 568.9, 207.3)">&lt;</text><text xml:space="preserve" font-family=".LucidaGrandeUI,.Lucida Grande UI" font-size="40.0" fill="#4185F4" transform="matrix(1.00, 0.00, -0.00, -1.00, 600.7, 207.3)">/</text><text xml:space="preserve" font-family=".LucidaGrandeUI,.Lucida Grande UI" font-size="40.0" fill="#4185F4" transform="matrix(1.00, 0.00, -0.00, -1.00, 621.7, 207.3)">p</text><text xml:space="preserve" font-family=".LucidaGrandeUI,.Lucida Grande UI" font-size="40.0" fill="#4185F4" transform="matrix(1.00, 0.00, -0.00, -1.00, 646.9, 207.3)">a</text><text xml:space="preserve" font-family=".LucidaGrandeUI,.Lucida Grande UI" font-size="40.0" fill="#4185F4" transform="matrix(1.00, 0.00, -0.00, -1.00, 669.0, 207.3)">p</text><text xml:space="preserve" font-family=".LucidaGrandeUI,.Lucida Grande UI" font-size="40.0" fill="#4185F4" transform="matrix(1.00, 0.00, -0.00, -1.00, 694.2, 207.3)">e</text><text xml:space="preserve" font-family=".LucidaGrandeUI,.Lucida Grande UI" font-size="40.0" fill="#4185F4" transform="matrix(1.00, 0.00, -0.00, -1.00, 716.5, 207.3)">r</text><text xml:space="preserve" font-family=".LucidaGrandeUI,.Lucida Grande UI" font-size="40.0" fill="#4185F4" transform="matrix(1.00, 0.00, -0.00, -1.00, 732.9, 207.3)">-</text><text xml:space="preserve" font-family=".LucidaGrandeUI,.Lucida Grande UI" font-size="40.0" fill="#4185F4" transform="matrix(1.00, 0.00, -0.00, -1.00, 756.0, 207.3)">r</text><text xml:space="preserve" font-family=".LucidaGrandeUI,.Lucida Grande UI" font-size="40.0" fill="#4185F4" transform="matrix(1.00, 0.00, -0.00, -1.00, 772.4, 207.3)">i</text><text xml:space="preserve" font-family=".LucidaGrandeUI,.Lucida Grande UI" font-size="40.0" fill="#4185F4" transform="matrix(1.00, 0.00, -0.00, -1.00, 783.9, 207.3)">p</text><text xml:space="preserve" font-family=".LucidaGrandeUI,.Lucida Grande UI" font-size="40.0" fill="#4185F4" transform="matrix(1.00, 0.00, -0.00, -1.00, 809.1, 207.3)">p</text><text xml:space="preserve" font-family=".LucidaGrandeUI,.Lucida Grande UI" font-size="40.0" fill="#4185F4" transform="matrix(1.00, 0.00, -0.00, -1.00, 834.3, 207.3)">l</text><text xml:space="preserve" font-family=".LucidaGrandeUI,.Lucida Grande UI" font-size="40.0" fill="#4185F4" transform="matrix(1.00, 0.00, -0.00, -1.00, 845.9, 207.3)">e</text><text xml:space="preserve" font-family=".LucidaGrandeUI,.Lucida Grande UI" font-size="40.0" fill="#4185F4" transform="matrix(1.00, 0.00, -0.00, -1.00, 868.2, 207.3)">&gt;</text><text xml:space="preserve" font-family=".LucidaGrandeUI,.Lucida Grande UI" font-size="40.0" fill="#000000" transform="matrix(1.00, 0.00, -0.00, -1.00, 899.8, 207.3)"></text><text xml:space="preserve" font-family=".LucidaGrandeUI,.Lucida Grande UI" font-size="40.0" fill="#4185F4" transform="matrix(1.00, 0.00, -0.00, -1.00, 180.2, 150.9)">&lt;</text><text xml:space="preserve" font-family=".LucidaGrandeUI,.Lucida Grande UI" font-size="40.0" fill="#4185F4" transform="matrix(1.00, 0.00, -0.00, -1.00, 212.0, 150.9)">/</text><text xml:space="preserve" font-family=".LucidaGrandeUI,.Lucida Grande UI" font-size="40.0" fill="#4185F4" transform="matrix(1.00, 0.00, -0.00, -1.00, 233.0, 150.9)">d</text><text xml:space="preserve" font-family=".LucidaGrandeUI,.Lucida Grande UI" font-size="40.0" fill="#4185F4" transform="matrix(1.00, 0.00, -0.00, -1.00, 258.2, 150.9)">i</text><text xml:space="preserve" font-family=".LucidaGrandeUI,.Lucida Grande UI" font-size="40.0" fill="#4185F4" transform="matrix(1.00, 0.00, -0.00, -1.00, 269.8, 150.9)">v</text><text xml:space="preserve" font-family=".LucidaGrandeUI,.Lucida Grande UI" font-size="40.0" fill="#4185F4" transform="matrix(1.00, 0.00, -0.00, -1.00, 290.4, 150.9)">&gt;</text></g></g><text xml:space="preserve" font-family="Roboto-Regular,Roboto" font-size="50.0" fill="#404040" transform="matrix(1.00, 0.00, -0.00, -1.00, 160.2, 551.6)">A</text><text xml:space="preserve" font-family="Roboto-Regular,Roboto" font-size="50.0" fill="#404040" transform="matrix(1.00, 0.00, -0.00, -1.00, 192.6, 551.6)"> </text><text xml:space="preserve" font-family="Roboto-Regular,Roboto" font-size="50.0" fill="#404040" transform="matrix(1.00, 0.00, -0.00, -1.00, 205.0, 551.6)">r</text><text xml:space="preserve" font-family="Roboto-Regular,Roboto" font-size="50.0" fill="#404040" transform="matrix(1.00, 0.00, -0.00, -1.00, 221.7, 551.6)">e</text><text xml:space="preserve" font-family="Roboto-Regular,Roboto" font-size="50.0" fill="#404040" transform="matrix(1.00, 0.00, -0.00, -1.00, 248.1, 551.6)">a</text><text xml:space="preserve" font-family="Roboto-Regular,Roboto" font-size="50.0" fill="#404040" transform="matrix(1.00, 0.00, -0.00, -1.00, 275.6, 551.6)">c</text><text xml:space="preserve" font-family="Roboto-Regular,Roboto" font-size="50.0" fill="#404040" transform="matrix(1.00, 0.00, -0.00, -1.00, 302.1, 551.6)">t</text><text xml:space="preserve" font-family="Roboto-Regular,Roboto" font-size="50.0" fill="#404040" transform="matrix(1.00, 0.00, -0.00, -1.00, 319.4, 551.6)">i</text><text xml:space="preserve" font-family="Roboto-Regular,Roboto" font-size="50.0" fill="#404040" transform="matrix(1.00, 0.00, -0.00, -1.00, 332.0, 551.6)">v</text><text xml:space="preserve" font-family="Roboto-Regular,Roboto" font-size="50.0" fill="#404040" transform="matrix(1.00, 0.00, -0.00, -1.00, 356.8, 551.6)">e</text><text xml:space="preserve" font-family="Roboto-Regular,Roboto" font-size="50.0" fill="#404040" transform="matrix(1.00, 0.00, -0.00, -1.00, 383.3, 551.6)"> </text><text xml:space="preserve" font-family="Roboto-Regular,Roboto" font-size="50.0" fill="#404040" transform="matrix(1.00, 0.00, -0.00, -1.00, 395.7, 551.6)">i</text><text xml:space="preserve" font-family="Roboto-Regular,Roboto" font-size="50.0" fill="#404040" transform="matrix(1.00, 0.00, -0.00, -1.00, 408.3, 551.6)">n</text><text xml:space="preserve" font-family="Roboto-Regular,Roboto" font-size="50.0" fill="#404040" transform="matrix(1.00, 0.00, -0.00, -1.00, 436.7, 551.6)">k</text><text xml:space="preserve" font-family="Roboto-Regular,Roboto" font-size="50.0" fill="#404040" transform="matrix(1.00, 0.00, -0.00, -1.00, 462.3, 551.6)"> </text><text xml:space="preserve" font-family="Roboto-Regular,Roboto" font-size="50.0" fill="#404040" transform="matrix(1.00, 0.00, -0.00, -1.00, 474.7, 551.6)">e</text><text xml:space="preserve" font-family="Roboto-Regular,Roboto" font-size="50.0" fill="#404040" transform="matrix(1.00, 0.00, -0.00, -1.00, 501.1, 551.6)">f</text><text xml:space="preserve" font-family="Roboto-Regular,Roboto" font-size="50.0" fill="#404040" transform="matrix(1.00, 0.00, -0.00, -1.00, 518.4, 551.6)">f</text><text xml:space="preserve" font-family="Roboto-Regular,Roboto" font-size="50.0" fill="#404040" transform="matrix(1.00, 0.00, -0.00, -1.00, 535.1, 551.6)">e</text><text xml:space="preserve" font-family="Roboto-Regular,Roboto" font-size="50.0" fill="#404040" transform="matrix(1.00, 0.00, -0.00, -1.00, 561.5, 551.6)">c</text><text xml:space="preserve" font-family="Roboto-Regular,Roboto" font-size="50.0" fill="#404040" transform="matrix(1.00, 0.00, -0.00, -1.00, 588.1, 551.6)">t</text><text xml:space="preserve" font-family="Roboto-Regular,Roboto" font-size="50.0" fill="#404040" transform="matrix(1.00, 0.00, -0.00, -1.00, 605.3, 551.6)"> </text><text xml:space="preserve" font-family="Roboto-Regular,Roboto" font-size="50.0" fill="#404040" transform="matrix(1.00, 0.00, -0.00, -1.00, 617.7, 551.6)">f</text><text xml:space="preserve" font-family="Roboto-Regular,Roboto" font-size="50.0" fill="#404040" transform="matrix(1.00, 0.00, -0.00, -1.00, 635.0, 551.6)">o</text><text xml:space="preserve" font-family="Roboto-Regular,Roboto" font-size="50.0" fill="#404040" transform="matrix(1.00, 0.00, -0.00, -1.00, 663.4, 551.6)">r</text><text xml:space="preserve" font-family="Roboto-Regular,Roboto" font-size="50.0" fill="#404040" transform="matrix(1.00, 0.00, -0.00, -1.00, 680.6, 551.6)"> </text><text xml:space="preserve" font-family="Roboto-Regular,Roboto" font-size="50.0" fill="#404040" transform="matrix(1.00, 0.00, -0.00, -1.00, 693.0, 551.6)">i</text><text xml:space="preserve" font-family="Roboto-Regular,Roboto" font-size="50.0" fill="#404040" transform="matrix(1.00, 0.00, -0.00, -1.00, 705.6, 551.6)">n</text><text xml:space="preserve" font-family="Roboto-Regular,Roboto" font-size="50.0" fill="#404040" transform="matrix(1.00, 0.00, -0.00, -1.00, 734.0, 551.6)">d</text><text xml:space="preserve" font-family="Roboto-Regular,Roboto" font-size="50.0" fill="#404040" transform="matrix(1.00, 0.00, -0.00, -1.00, 762.4, 551.6)">i</text><text xml:space="preserve" font-family="Roboto-Regular,Roboto" font-size="50.0" fill="#404040" transform="matrix(1.00, 0.00, -0.00, -1.00, 775.0, 551.6)">c</text><text xml:space="preserve" font-family="Roboto-Regular,Roboto" font-size="50.0" fill="#404040" transform="matrix(1.00, 0.00, -0.00, -1.00, 801.6, 551.6)">a</text><text xml:space="preserve" font-family="Roboto-Regular,Roboto" font-size="50.0" fill="#404040" transform="matrix(1.00, 0.00, -0.00, -1.00, 829.0, 551.6)">t</text><text xml:space="preserve" font-family="Roboto-Regular,Roboto" font-size="50.0" fill="#404040" transform="matrix(1.00, 0.00, -0.00, -1.00, 846.3, 551.6)">i</text><text xml:space="preserve" font-family="Roboto-Regular,Roboto" font-size="50.0" fill="#404040" transform="matrix(1.00, 0.00, -0.00, -1.00, 858.9, 551.6)">n</text><text xml:space="preserve" font-family="Roboto-Regular,Roboto" font-size="50.0" fill="#404040" transform="matrix(1.00, 0.00, -0.00, -1.00, 887.4, 551.6)">g</text><text xml:space="preserve" font-family="Roboto-Regular,Roboto" font-size="50.0" fill="#404040" transform="matrix(1.00, 0.00, -0.00, -1.00, 915.8, 551.6)"> </text><text xml:space="preserve" font-family="Roboto-Regular,Roboto" font-size="50.0" fill="#404040" transform="matrix(1.00, 0.00, -0.00, -1.00, 928.2, 551.6)">t</text><text xml:space="preserve" font-family="Roboto-Regular,Roboto" font-size="50.0" fill="#404040" transform="matrix(1.00, 0.00, -0.00, -1.00, 945.5, 551.6)">o</text><text xml:space="preserve" font-family="Roboto-Regular,Roboto" font-size="50.0" fill="#404040" transform="matrix(1.00, 0.00, -0.00, -1.00, 973.9, 551.6)">u</text><text xml:space="preserve" font-family="Roboto-Regular,Roboto" font-size="50.0" fill="#404040" transform="matrix(1.00, 0.00, -0.00, -1.00, 1002.3, 551.6)">c</text><text xml:space="preserve" font-family="Roboto-Regular,Roboto" font-size="50.0" fill="#404040" transform="matrix(1.00, 0.00, -0.00, -1.00, 1028.9, 551.6)">h</text><text xml:space="preserve" font-family="Roboto-Regular,Roboto" font-size="50.0" fill="#404040" transform="matrix(1.00, 0.00, -0.00, -1.00, 1057.3, 551.6)"> </text><text xml:space="preserve" font-family="Roboto-Regular,Roboto" font-size="50.0" fill="#404040" transform="matrix(1.00, 0.00, -0.00, -1.00, 160.2, 481.2)">a</text><text xml:space="preserve" font-family="Roboto-Regular,Roboto" font-size="50.0" fill="#404040" transform="matrix(1.00, 0.00, -0.00, -1.00, 187.7, 481.2)">n</text><text xml:space="preserve" font-family="Roboto-Regular,Roboto" font-size="50.0" fill="#404040" transform="matrix(1.00, 0.00, -0.00, -1.00, 216.1, 481.2)">d</text><text xml:space="preserve" font-family="Roboto-Regular,Roboto" font-size="50.0" fill="#404040" transform="matrix(1.00, 0.00, -0.00, -1.00, 244.6, 481.2)"> </text><text xml:space="preserve" font-family="Roboto-Regular,Roboto" font-size="50.0" fill="#404040" transform="matrix(1.00, 0.00, -0.00, -1.00, 257.0, 481.2)">m</text><text xml:space="preserve" font-family="Roboto-Regular,Roboto" font-size="50.0" fill="#404040" transform="matrix(1.00, 0.00, -0.00, -1.00, 300.7, 481.2)">o</text><text xml:space="preserve" font-family="Roboto-Regular,Roboto" font-size="50.0" fill="#404040" transform="matrix(1.00, 0.00, -0.00, -1.00, 329.1, 481.2)">u</text><text xml:space="preserve" font-family="Roboto-Regular,Roboto" font-size="50.0" fill="#404040" transform="matrix(1.00, 0.00, -0.00, -1.00, 357.6, 481.2)">s</text><text xml:space="preserve" font-family="Roboto-Regular,Roboto" font-size="50.0" fill="#404040" transform="matrix(1.00, 0.00, -0.00, -1.00, 383.7, 481.2)">e</text><text xml:space="preserve" font-family="Roboto-Regular,Roboto" font-size="50.0" fill="#404040" transform="matrix(1.00, 0.00, -0.00, -1.00, 410.1, 481.2)"> </text><text xml:space="preserve" font-family="Roboto-Regular,Roboto" font-size="50.0" fill="#404040" transform="matrix(1.00, 0.00, -0.00, -1.00, 422.5, 481.2)">a</text><text xml:space="preserve" font-family="Roboto-Regular,Roboto" font-size="50.0" fill="#404040" transform="matrix(1.00, 0.00, -0.00, -1.00, 450.0, 481.2)">c</text><text xml:space="preserve" font-family="Roboto-Regular,Roboto" font-size="50.0" fill="#404040" transform="matrix(1.00, 0.00, -0.00, -1.00, 476.5, 481.2)">t</text><text xml:space="preserve" font-family="Roboto-Regular,Roboto" font-size="50.0" fill="#404040" transform="matrix(1.00, 0.00, -0.00, -1.00, 493.8, 481.2)">i</text><text xml:space="preserve" font-family="Roboto-Regular,Roboto" font-size="50.0" fill="#404040" transform="matrix(1.00, 0.00, -0.00, -1.00, 506.4, 481.2)">o</text><text xml:space="preserve" font-family="Roboto-Regular,Roboto" font-size="50.0" fill="#404040" transform="matrix(1.00, 0.00, -0.00, -1.00, 534.9, 481.2)">n</text><text xml:space="preserve" font-family="Roboto-Regular,Roboto" font-size="50.0" fill="#404040" transform="matrix(1.00, 0.00, -0.00, -1.00, 563.3, 481.2)">s</text><text xml:space="preserve" font-family="Roboto-Bold,Roboto" font-weight="bold" font-size="80.0" fill="#424242" transform="matrix(1.00, 0.00, -0.00, -1.00, 160.2, 653.7)">&lt;</text><text xml:space="preserve" font-family="Roboto-Bold,Roboto" font-weight="bold" font-size="80.0" fill="#424242" transform="matrix(1.00, 0.00, -0.00, -1.00, 201.0, 653.7)">p</text><text xml:space="preserve" font-family="Roboto-Bold,Roboto" font-weight="bold" font-size="80.0" fill="#424242" transform="matrix(1.00, 0.00, -0.00, -1.00, 246.2, 653.7)">a</text><text xml:space="preserve" font-family="Roboto-Bold,Roboto" font-weight="bold" font-size="80.0" fill="#424242" transform="matrix(1.00, 0.00, -0.00, -1.00, 289.2, 653.7)">p</text><text xml:space="preserve" font-family="Roboto-Bold,Roboto" font-weight="bold" font-size="80.0" fill="#424242" transform="matrix(1.00, 0.00, -0.00, -1.00, 334.3, 653.7)">e</text><text xml:space="preserve" font-family="Roboto-Bold,Roboto" font-weight="bold" font-size="80.0" fill="#424242" transform="matrix(1.00, 0.00, -0.00, -1.00, 376.7, 653.7)">r</text><text xml:space="preserve" font-family="Roboto-Bold,Roboto" font-weight="bold" font-size="80.0" fill="#424242" transform="matrix(1.00, 0.00, -0.00, -1.00, 404.7, 653.7)">-</text><text xml:space="preserve" font-family="Roboto-Bold,Roboto" font-weight="bold" font-size="80.0" fill="#424242" transform="matrix(1.00, 0.00, -0.00, -1.00, 436.1, 653.7)">r</text><text xml:space="preserve" font-family="Roboto-Bold,Roboto" font-weight="bold" font-size="80.0" fill="#424242" transform="matrix(1.00, 0.00, -0.00, -1.00, 464.1, 653.7)">i</text><text xml:space="preserve" font-family="Roboto-Bold,Roboto" font-weight="bold" font-size="80.0" fill="#424242" transform="matrix(1.00, 0.00, -0.00, -1.00, 485.5, 653.7)">p</text><text xml:space="preserve" font-family="Roboto-Bold,Roboto" font-weight="bold" font-size="80.0" fill="#424242" transform="matrix(1.00, 0.00, -0.00, -1.00, 530.7, 653.7)">p</text><text xml:space="preserve" font-family="Roboto-Bold,Roboto" font-weight="bold" font-size="80.0" fill="#424242" transform="matrix(1.00, 0.00, -0.00, -1.00, 575.8, 653.7)">l</text><text xml:space="preserve" font-family="Roboto-Bold,Roboto" font-weight="bold" font-size="80.0" fill="#424242" transform="matrix(1.00, 0.00, -0.00, -1.00, 597.2, 653.7)">e</text><text xml:space="preserve" font-family="Roboto-Bold,Roboto" font-weight="bold" font-size="80.0" fill="#424242" transform="matrix(1.00, 0.00, -0.00, -1.00, 639.6, 653.7)">&gt;</text><image xlink:href="../../1BCAE160-45C5-42C9-89F3-F7746AC05B6D/assets/562289B6704F56AC28A45C71BECEB82E.png" width="588.00" height="547.00" transform="matrix(1.00, 0.00, -0.00, -1.00, 1196.0, 1460.5)"></image><image xlink:href="../../1BCAE160-45C5-42C9-89F3-F7746AC05B6D/assets/562289B6704F56AC28A45C71BECEB82E.png" width="588.00" height="547.00" transform="matrix(1.00, 0.00, -0.00, -1.00, 1196.0, 414.5)"></image><image xlink:href="../../1BCAE160-45C5-42C9-89F3-F7746AC05B6D/assets/562289B6704F56AC28A45C71BECEB82E.png" width="588.00" height="547.00" transform="matrix(1.00, 0.00, -0.00, -1.00, 1762.0, 414.5)"></image><image xlink:href="../../1BCAE160-45C5-42C9-89F3-F7746AC05B6D/assets/562289B6704F56AC28A45C71BECEB82E.png" width="588.00" height="547.00" transform="matrix(1.00, 0.00, -0.00, -1.00, 1762.0, 938.5)"></image><image xlink:href="../../1BCAE160-45C5-42C9-89F3-F7746AC05B6D/assets/562289B6704F56AC28A45C71BECEB82E.png" width="588.00" height="547.00" transform="matrix(1.00, 0.00, -0.00, -1.00, 1762.0, 1460.5)"></image></g></svg>