<?xml version="1.0" encoding="UTF-8" standalone="no"?><svg xmlns="http://www.w3.org/2000/svg" xmlns:xlink="http://www.w3.org/1999/xlink" clip-rule="evenodd" stroke-miterlimit="10" viewBox="0 0 1920 1080"><desc>SVG generated by Keynote</desc><defs></defs><g transform="matrix(1.00, 0.00, -0.00, -1.00, 0.0, 1080.0)"><path d="M 0.0 1080.0 L 1920.0 1080.0 L 1920.0 0.0 L 0.0 0.0 Z M 0.0 1080.0 " fill="#FF4081"></path><text xml:space="preserve" font-family="Roboto-Medium,Roboto" font-size="120.0" fill="#FFFFFF" transform="matrix(1.00, 0.00, -0.00, -1.00, 153.4, 572.5)">W</text><text xml:space="preserve" font-family="Roboto-Medium,Roboto" font-size="120.0" fill="#FFFFFF" transform="matrix(1.00, 0.00, -0.00, -1.00, 259.5, 572.5)">h</text><text xml:space="preserve" font-family="Roboto-Medium,Roboto" font-size="120.0" fill="#FFFFFF" transform="matrix(1.00, 0.00, -0.00, -1.00, 327.6, 572.5)">a</text><text xml:space="preserve" font-family="Roboto-Medium,Roboto" font-size="120.0" fill="#FFFFFF" transform="matrix(1.00, 0.00, -0.00, -1.00, 392.8, 572.5)">t</text><text xml:space="preserve" font-family="Roboto-Medium,Roboto" font-size="120.0" fill="#FFFFFF" transform="matrix(1.00, 0.00, -0.00, -1.00, 434.5, 572.5)"> </text><text xml:space="preserve" font-family="Roboto-Medium,Roboto" font-size="120.0" fill="#FFFFFF" transform="matrix(1.00, 0.00, -0.00, -1.00, 464.4, 572.5)">i</text><text xml:space="preserve" font-family="Roboto-Medium,Roboto" font-size="120.0" fill="#FFFFFF" transform="matrix(1.00, 0.00, -0.00, -1.00, 495.5, 572.5)">f</text><text xml:space="preserve" font-family="Roboto-Medium,Roboto" font-size="120.0" fill="#FFFFFF" transform="matrix(1.00, 0.00, -0.00, -1.00, 537.7, 572.5)"> </text><text xml:space="preserve" font-family="Roboto-Medium,Roboto" font-size="120.0" fill="#FFFFFF" transform="matrix(1.00, 0.00, -0.00, -1.00, 567.6, 572.5)">w</text><text xml:space="preserve" font-family="Roboto-Medium,Roboto" font-size="120.0" fill="#FFFFFF" transform="matrix(1.00, 0.00, -0.00, -1.00, 657.2, 572.5)">e</text><text xml:space="preserve" font-family="Roboto-Medium,Roboto" font-size="120.0" fill="#FFFFFF" transform="matrix(1.00, 0.00, -0.00, -1.00, 720.8, 572.5)"> </text><text xml:space="preserve" font-family="Roboto-Medium,Roboto" font-size="120.0" fill="#FFFFFF" transform="matrix(1.00, 0.00, -0.00, -1.00, 750.7, 572.5)">d</text><text xml:space="preserve" font-family="Roboto-Medium,Roboto" font-size="120.0" fill="#FFFFFF" transform="matrix(1.00, 0.00, -0.00, -1.00, 818.7, 572.5)">e</text><text xml:space="preserve" font-family="Roboto-Medium,Roboto" font-size="120.0" fill="#FFFFFF" transform="matrix(1.00, 0.00, -0.00, -1.00, 882.2, 572.5)">s</text><text xml:space="preserve" font-family="Roboto-Medium,Roboto" font-size="120.0" fill="#FFFFFF" transform="matrix(1.00, 0.00, -0.00, -1.00, 944.6, 572.5)">i</text><text xml:space="preserve" font-family="Roboto-Medium,Roboto" font-size="120.0" fill="#FFFFFF" transform="matrix(1.00, 0.00, -0.00, -1.00, 975.8, 572.5)">g</text><text xml:space="preserve" font-family="Roboto-Medium,Roboto" font-size="120.0" fill="#FFFFFF" transform="matrix(1.00, 0.00, -0.00, -1.00, 1043.8, 572.5)">n</text><text xml:space="preserve" font-family="Roboto-Medium,Roboto" font-size="120.0" fill="#FFFFFF" transform="matrix(1.00, 0.00, -0.00, -1.00, 1111.8, 572.5)">e</text><text xml:space="preserve" font-family="Roboto-Medium,Roboto" font-size="120.0" fill="#FFFFFF" transform="matrix(1.00, 0.00, -0.00, -1.00, 1175.4, 572.5)">d</text><text xml:space="preserve" font-family="Roboto-Medium,Roboto" font-size="120.0" fill="#FFFFFF" transform="matrix(1.00, 0.00, -0.00, -1.00, 1243.4, 572.5)"> </text><text xml:space="preserve" font-family="Roboto-Medium,Roboto" font-size="120.0" fill="#FFFFFF" transform="matrix(1.00, 0.00, -0.00, -1.00, 1273.3, 572.5)">H</text><text xml:space="preserve" font-family="Roboto-Medium,Roboto" font-size="120.0" fill="#FFFFFF" transform="matrix(1.00, 0.00, -0.00, -1.00, 1358.6, 572.5)">T</text><text xml:space="preserve" font-family="Roboto-Medium,Roboto" font-size="120.0" fill="#FFFFFF" transform="matrix(1.00, 0.00, -0.00, -1.00, 1427.9, 572.5)">M</text><text xml:space="preserve" font-family="Roboto-Medium,Roboto" font-size="120.0" fill="#FFFFFF" transform="matrix(1.00, 0.00, -0.00, -1.00, 1533.1, 572.5)">L</text><text xml:space="preserve" font-family="Roboto-Medium,Roboto" font-size="120.0" fill="#FFFFFF" transform="matrix(1.00, 0.00, -0.00, -1.00, 1598.0, 572.5)"> </text><text xml:space="preserve" font-family="Roboto-Medium,Roboto" font-size="120.0" fill="#FFFFFF" transform="matrix(1.00, 0.00, -0.00, -1.00, 153.4, 413.5)">f</text><text xml:space="preserve" font-family="Roboto-Medium,Roboto" font-size="120.0" fill="#FFFFFF" transform="matrix(1.00, 0.00, -0.00, -1.00, 195.5, 413.5)">o</text><text xml:space="preserve" font-family="Roboto-Medium,Roboto" font-size="120.0" fill="#FFFFFF" transform="matrix(1.00, 0.00, -0.00, -1.00, 263.6, 413.5)">r</text><text xml:space="preserve" font-family="Roboto-Medium,Roboto" font-size="120.0" fill="#FFFFFF" transform="matrix(1.00, 0.00, -0.00, -1.00, 305.1, 413.5)"> </text><text xml:space="preserve" font-family="Roboto-Medium,Roboto" font-size="120.0" fill="#FFFFFF" transform="matrix(1.00, 0.00, -0.00, -1.00, 335.0, 413.5)">t</text><text xml:space="preserve" font-family="Roboto-Medium,Roboto" font-size="120.0" fill="#FFFFFF" transform="matrix(1.00, 0.00, -0.00, -1.00, 376.7, 413.5)">h</text><text xml:space="preserve" font-family="Roboto-Medium,Roboto" font-size="120.0" fill="#FFFFFF" transform="matrix(1.00, 0.00, -0.00, -1.00, 444.7, 413.5)">e</text><text xml:space="preserve" font-family="Roboto-Medium,Roboto" font-size="120.0" fill="#FFFFFF" transform="matrix(1.00, 0.00, -0.00, -1.00, 508.3, 413.5)"> </text><text xml:space="preserve" font-family="Roboto-Medium,Roboto" font-size="120.0" fill="#FFFFFF" transform="matrix(1.00, 0.00, -0.00, -1.00, 538.1, 413.5)">m</text><text xml:space="preserve" font-family="Roboto-Medium,Roboto" font-size="120.0" fill="#FFFFFF" transform="matrix(1.00, 0.00, -0.00, -1.00, 642.4, 413.5)">o</text><text xml:space="preserve" font-family="Roboto-Medium,Roboto" font-size="120.0" fill="#FFFFFF" transform="matrix(1.00, 0.00, -0.00, -1.00, 710.5, 413.5)">b</text><text xml:space="preserve" font-family="Roboto-Medium,Roboto" font-size="120.0" fill="#FFFFFF" transform="matrix(1.00, 0.00, -0.00, -1.00, 778.5, 413.5)">i</text><text xml:space="preserve" font-family="Roboto-Medium,Roboto" font-size="120.0" fill="#FFFFFF" transform="matrix(1.00, 0.00, -0.00, -1.00, 809.6, 413.5)">l</text><text xml:space="preserve" font-family="Roboto-Medium,Roboto" font-size="120.0" fill="#FFFFFF" transform="matrix(1.00, 0.00, -0.00, -1.00, 840.8, 413.5)">e</text><text xml:space="preserve" font-family="Roboto-Medium,Roboto" font-size="120.0" fill="#FFFFFF" transform="matrix(1.00, 0.00, -0.00, -1.00, 904.3, 413.5)"> </text><text xml:space="preserve" font-family="Roboto-Medium,Roboto" font-size="120.0" fill="#FFFFFF" transform="matrix(1.00, 0.00, -0.00, -1.00, 934.2, 413.5)">w</text><text xml:space="preserve" font-family="Roboto-Medium,Roboto" font-size="120.0" fill="#FFFFFF" transform="matrix(1.00, 0.00, -0.00, -1.00, 1023.9, 413.5)">e</text><text xml:space="preserve" font-family="Roboto-Medium,Roboto" font-size="120.0" fill="#FFFFFF" transform="matrix(1.00, 0.00, -0.00, -1.00, 1087.4, 413.5)">b</text><text xml:space="preserve" font-family="Roboto-Medium,Roboto" font-size="120.0" fill="#FFFFFF" transform="matrix(1.00, 0.00, -0.00, -1.00, 1155.4, 413.5)">?</text></g></svg>