<?xml version="1.0" encoding="UTF-8" standalone="no"?><svg xmlns="http://www.w3.org/2000/svg" xmlns:xlink="http://www.w3.org/1999/xlink" clip-rule="evenodd" stroke-miterlimit="10" viewBox="0 0 1920 1080"><desc>SVG generated by Keynote</desc><defs></defs><g transform="matrix(1.00, 0.00, -0.00, -1.00, 0.0, 1080.0)"><path d="M 0.0 1080.0 L 1920.0 1080.0 L 1920.0 0.0 L 0.0 0.0 Z M 0.0 1080.0 " fill="#FF4081"></path><text xml:space="preserve" font-family="Roboto-Medium,Roboto" font-size="116.0" fill="#FFFFFF" transform="matrix(1.00, 0.00, -0.00, -1.00, 156.6, 494.9)">H</text><text xml:space="preserve" font-family="Roboto-Medium,Roboto" font-size="116.0" fill="#FFFFFF" transform="matrix(1.00, 0.00, -0.00, -1.00, 239.1, 494.9)">o</text><text xml:space="preserve" font-family="Roboto-Medium,Roboto" font-size="116.0" fill="#FFFFFF" transform="matrix(1.00, 0.00, -0.00, -1.00, 304.8, 494.9)">w</text><text xml:space="preserve" font-family="Roboto-Medium,Roboto" font-size="116.0" fill="#FFFFFF" transform="matrix(1.00, 0.00, -0.00, -1.00, 391.5, 494.9)"> </text><text xml:space="preserve" font-family="Roboto-Medium,Roboto" font-size="116.0" fill="#FFFFFF" transform="matrix(1.00, 0.00, -0.00, -1.00, 420.4, 494.9)">c</text><text xml:space="preserve" font-family="Roboto-Medium,Roboto" font-size="116.0" fill="#FFFFFF" transform="matrix(1.00, 0.00, -0.00, -1.00, 481.3, 494.9)">a</text><text xml:space="preserve" font-family="Roboto-Medium,Roboto" font-size="116.0" fill="#FFFFFF" transform="matrix(1.00, 0.00, -0.00, -1.00, 544.3, 494.9)">n</text><text xml:space="preserve" font-family="Roboto-Medium,Roboto" font-size="116.0" fill="#FFFFFF" transform="matrix(1.00, 0.00, -0.00, -1.00, 610.1, 494.9)"> </text><text xml:space="preserve" font-family="Roboto-Medium,Roboto" font-size="116.0" fill="#FFFFFF" transform="matrix(1.00, 0.00, -0.00, -1.00, 639.0, 494.9)">I</text><text xml:space="preserve" font-family="Roboto-Medium,Roboto" font-size="116.0" fill="#FFFFFF" transform="matrix(1.00, 0.00, -0.00, -1.00, 672.3, 494.9)"> </text><text xml:space="preserve" font-family="Roboto-Medium,Roboto" font-size="116.0" fill="#FFFFFF" transform="matrix(1.00, 0.00, -0.00, -1.00, 701.2, 494.9)">t</text><text xml:space="preserve" font-family="Roboto-Medium,Roboto" font-size="116.0" fill="#FFFFFF" transform="matrix(1.00, 0.00, -0.00, -1.00, 741.5, 494.9)">i</text><text xml:space="preserve" font-family="Roboto-Medium,Roboto" font-size="116.0" fill="#FFFFFF" transform="matrix(1.00, 0.00, -0.00, -1.00, 771.6, 494.9)">e</text><text xml:space="preserve" font-family="Roboto-Medium,Roboto" font-size="116.0" fill="#FFFFFF" transform="matrix(1.00, 0.00, -0.00, -1.00, 833.0, 494.9)"> </text><text xml:space="preserve" font-family="Roboto-Medium,Roboto" font-size="116.0" fill="#FFFFFF" transform="matrix(1.00, 0.00, -0.00, -1.00, 861.9, 494.9)">t</text><text xml:space="preserve" font-family="Roboto-Medium,Roboto" font-size="116.0" fill="#FFFFFF" transform="matrix(1.00, 0.00, -0.00, -1.00, 902.2, 494.9)">h</text><text xml:space="preserve" font-family="Roboto-Medium,Roboto" font-size="116.0" fill="#FFFFFF" transform="matrix(1.00, 0.00, -0.00, -1.00, 968.0, 494.9)">e</text><text xml:space="preserve" font-family="Roboto-Medium,Roboto" font-size="116.0" fill="#FFFFFF" transform="matrix(1.00, 0.00, -0.00, -1.00, 1029.4, 494.9)">s</text><text xml:space="preserve" font-family="Roboto-Medium,Roboto" font-size="116.0" fill="#FFFFFF" transform="matrix(1.00, 0.00, -0.00, -1.00, 1089.7, 494.9)">e</text><text xml:space="preserve" font-family="Roboto-Medium,Roboto" font-size="116.0" fill="#FFFFFF" transform="matrix(1.00, 0.00, -0.00, -1.00, 1151.1, 494.9)"> </text><text xml:space="preserve" font-family="Roboto-Medium,Roboto" font-size="116.0" fill="#FFFFFF" transform="matrix(1.00, 0.00, -0.00, -1.00, 1180.0, 494.9)">a</text><text xml:space="preserve" font-family="Roboto-Medium,Roboto" font-size="116.0" fill="#FFFFFF" transform="matrix(1.00, 0.00, -0.00, -1.00, 1243.1, 494.9)">l</text><text xml:space="preserve" font-family="Roboto-Medium,Roboto" font-size="116.0" fill="#FFFFFF" transform="matrix(1.00, 0.00, -0.00, -1.00, 1273.2, 494.9)">l</text><text xml:space="preserve" font-family="Roboto-Medium,Roboto" font-size="116.0" fill="#FFFFFF" transform="matrix(1.00, 0.00, -0.00, -1.00, 1303.3, 494.9)"> </text><text xml:space="preserve" font-family="Roboto-Medium,Roboto" font-size="116.0" fill="#FFFFFF" transform="matrix(1.00, 0.00, -0.00, -1.00, 1332.2, 494.9)">t</text><text xml:space="preserve" font-family="Roboto-Medium,Roboto" font-size="116.0" fill="#FFFFFF" transform="matrix(1.00, 0.00, -0.00, -1.00, 1372.5, 494.9)">o</text><text xml:space="preserve" font-family="Roboto-Medium,Roboto" font-size="116.0" fill="#FFFFFF" transform="matrix(1.00, 0.00, -0.00, -1.00, 1438.3, 494.9)">g</text><text xml:space="preserve" font-family="Roboto-Medium,Roboto" font-size="116.0" fill="#FFFFFF" transform="matrix(1.00, 0.00, -0.00, -1.00, 1504.0, 494.9)">e</text><text xml:space="preserve" font-family="Roboto-Medium,Roboto" font-size="116.0" fill="#FFFFFF" transform="matrix(1.00, 0.00, -0.00, -1.00, 1565.4, 494.9)">t</text><text xml:space="preserve" font-family="Roboto-Medium,Roboto" font-size="116.0" fill="#FFFFFF" transform="matrix(1.00, 0.00, -0.00, -1.00, 1605.7, 494.9)">h</text><text xml:space="preserve" font-family="Roboto-Medium,Roboto" font-size="116.0" fill="#FFFFFF" transform="matrix(1.00, 0.00, -0.00, -1.00, 1671.5, 494.9)">e</text><text xml:space="preserve" font-family="Roboto-Medium,Roboto" font-size="116.0" fill="#FFFFFF" transform="matrix(1.00, 0.00, -0.00, -1.00, 1732.9, 494.9)">r</text><text xml:space="preserve" font-family="Roboto-Medium,Roboto" font-size="116.0" fill="#FFFFFF" transform="matrix(1.00, 0.00, -0.00, -1.00, 1773.1, 494.9)">?</text></g></svg>