<?xml version="1.0" encoding="UTF-8" standalone="no"?><svg xmlns="http://www.w3.org/2000/svg" xmlns:xlink="http://www.w3.org/1999/xlink" clip-rule="evenodd" stroke-miterlimit="10" viewBox="0 0 1920 1080"><desc>SVG generated by Keynote</desc><defs></defs><g transform="matrix(1.00, 0.00, -0.00, -1.00, 0.0, 1080.0)"><path d="M 0.0 1080.0 L 1920.0 1080.0 L 1920.0 0.0 L 0.0 0.0 Z M 0.0 1080.0 " fill="#2E3B97"></path><text xml:space="preserve" font-family="Roboto-Medium,Roboto" font-size="91.0" fill="#FFFFFF" transform="matrix(1.00, 0.00, -0.00, -1.00, 167.2, 504.7)">P</text><text xml:space="preserve" font-family="Roboto-Medium,Roboto" font-size="91.0" fill="#FFFFFF" transform="matrix(1.00, 0.00, -0.00, -1.00, 225.4, 504.7)">o</text><text xml:space="preserve" font-family="Roboto-Medium,Roboto" font-size="91.0" fill="#FFFFFF" transform="matrix(1.00, 0.00, -0.00, -1.00, 277.0, 504.7)">l</text><text xml:space="preserve" font-family="Roboto-Medium,Roboto" font-size="91.0" fill="#FFFFFF" transform="matrix(1.00, 0.00, -0.00, -1.00, 300.6, 504.7)">y</text><text xml:space="preserve" font-family="Roboto-Medium,Roboto" font-size="91.0" fill="#FFFFFF" transform="matrix(1.00, 0.00, -0.00, -1.00, 346.7, 504.7)">m</text><text xml:space="preserve" font-family="Roboto-Medium,Roboto" font-size="91.0" fill="#FFFFFF" transform="matrix(1.00, 0.00, -0.00, -1.00, 425.8, 504.7)">e</text><text xml:space="preserve" font-family="Roboto-Medium,Roboto" font-size="91.0" fill="#FFFFFF" transform="matrix(1.00, 0.00, -0.00, -1.00, 474.0, 504.7)">r</text><text xml:space="preserve" font-family="Roboto-Medium,Roboto" font-size="91.0" fill="#FFFFFF" transform="matrix(1.00, 0.00, -0.00, -1.00, 506.3, 504.7)">’</text><text xml:space="preserve" font-family="Roboto-Medium,Roboto" font-size="91.0" fill="#FFFFFF" transform="matrix(1.00, 0.00, -0.00, -1.00, 520.6, 504.7)">s</text><text xml:space="preserve" font-family="Roboto-Medium,Roboto" font-size="91.0" fill="#FFFFFF" transform="matrix(1.00, 0.00, -0.00, -1.00, 567.9, 504.7)"> </text><text xml:space="preserve" font-family="Roboto-Medium,Roboto" font-size="91.0" fill="#FFFFFF" transform="matrix(1.00, 0.00, -0.00, -1.00, 590.6, 504.7)">O</text><text xml:space="preserve" font-family="Roboto-Medium,Roboto" font-size="91.0" fill="#FFFFFF" transform="matrix(1.00, 0.00, -0.00, -1.00, 652.7, 504.7)">p</text><text xml:space="preserve" font-family="Roboto-Medium,Roboto" font-size="91.0" fill="#FFFFFF" transform="matrix(1.00, 0.00, -0.00, -1.00, 704.3, 504.7)">i</text><text xml:space="preserve" font-family="Roboto-Medium,Roboto" font-size="91.0" fill="#FFFFFF" transform="matrix(1.00, 0.00, -0.00, -1.00, 727.9, 504.7)">n</text><text xml:space="preserve" font-family="Roboto-Medium,Roboto" font-size="91.0" fill="#FFFFFF" transform="matrix(1.00, 0.00, -0.00, -1.00, 779.5, 504.7)">i</text><text xml:space="preserve" font-family="Roboto-Medium,Roboto" font-size="91.0" fill="#FFFFFF" transform="matrix(1.00, 0.00, -0.00, -1.00, 803.1, 504.7)">o</text><text xml:space="preserve" font-family="Roboto-Medium,Roboto" font-size="91.0" fill="#FFFFFF" transform="matrix(1.00, 0.00, -0.00, -1.00, 854.7, 504.7)">n</text></g></svg>