<?xml version="1.0" encoding="UTF-8" standalone="no"?><svg xmlns="http://www.w3.org/2000/svg" xmlns:xlink="http://www.w3.org/1999/xlink" clip-rule="evenodd" stroke-miterlimit="10" viewBox="0 0 1920 1080"><desc>SVG generated by Keynote</desc><defs></defs><g transform="matrix(1.00, 0.00, -0.00, -1.00, 0.0, 1080.0)"><path d="M 0.0 1080.0 L 1920.0 1080.0 L 1920.0 0.0 L 0.0 0.0 Z M 0.0 1080.0 " fill="#FFFFFF"></path><g><clipPath id="clip0x6080022bf620"><path d="M 0.0 -92.0 L 1920.0 -92.0 L 1920.0 1108.0 L 0.0 1108.0 Z M 0.0 -92.0 "></path></clipPath><g clip-path="url(#clip0x6080022bf620)"><image xlink:href="D9724A9F7C12808907874DA139B65D3A.png" width="1440.00" height="900.00" transform="matrix(1.33, 0.00, -0.00, -1.33, 0.0, 1108.0)"></image></g></g><g opacity="0.66"><g><clipPath id="clip0x6080022bd5e0"><path d="M 0.0 0.0 L 1920.0 0.0 L 1920.0 287.0 L 0.0 287.0 Z M 0.0 0.0 "></path></clipPath><g clip-path="url(#clip0x6080022bd5e0)"><image xlink:href="../../1465334E-8E93-4575-A72E-B50B977340FE/assets/3F4A700A4C2BCC6E83F412CCF38D7D99.png" width="2001.00" height="349.00" transform="matrix(1.00, 0.00, -0.00, -1.00, -40.0, 284.5)"></image><path d="M 0.0 195.0 L 1920.0 195.0 L 1920.0 27.0 L 0.0 27.0 Z M 0.0 194.9 " fill="#000000"></path></g></g></g><text xml:space="preserve" font-family="Roboto-Bold,Roboto" font-weight="bold" font-size="75.0" fill="#FFFFFF" transform="matrix(1.00, 0.00, -0.00, -1.00, 348.0, 87.8)">p</text><text xml:space="preserve" font-family="Roboto-Bold,Roboto" font-weight="bold" font-size="75.0" fill="#FFFFFF" transform="matrix(1.00, 0.00, -0.00, -1.00, 390.4, 87.8)">o</text><text xml:space="preserve" font-family="Roboto-Bold,Roboto" font-weight="bold" font-size="75.0" fill="#FFFFFF" transform="matrix(1.00, 0.00, -0.00, -1.00, 432.7, 87.8)">l</text><text xml:space="preserve" font-family="Roboto-Bold,Roboto" font-weight="bold" font-size="75.0" fill="#FFFFFF" transform="matrix(1.00, 0.00, -0.00, -1.00, 452.8, 87.8)">y</text><text xml:space="preserve" font-family="Roboto-Bold,Roboto" font-weight="bold" font-size="75.0" fill="#FFFFFF" transform="matrix(1.00, 0.00, -0.00, -1.00, 491.1, 87.8)">m</text><text xml:space="preserve" font-family="Roboto-Bold,Roboto" font-weight="bold" font-size="75.0" fill="#FFFFFF" transform="matrix(1.00, 0.00, -0.00, -1.00, 556.0, 87.8)">e</text><text xml:space="preserve" font-family="Roboto-Bold,Roboto" font-weight="bold" font-size="75.0" fill="#FFFFFF" transform="matrix(1.00, 0.00, -0.00, -1.00, 595.7, 87.8)">r</text><text xml:space="preserve" font-family="Roboto-Bold,Roboto" font-weight="bold" font-size="75.0" fill="#FFFFFF" transform="matrix(1.00, 0.00, -0.00, -1.00, 622.0, 87.8)">-</text><text xml:space="preserve" font-family="Roboto-Bold,Roboto" font-weight="bold" font-size="75.0" fill="#FFFFFF" transform="matrix(1.00, 0.00, -0.00, -1.00, 651.3, 87.8)">p</text><text xml:space="preserve" font-family="Roboto-Bold,Roboto" font-weight="bold" font-size="75.0" fill="#FFFFFF" transform="matrix(1.00, 0.00, -0.00, -1.00, 693.7, 87.8)">r</text><text xml:space="preserve" font-family="Roboto-Bold,Roboto" font-weight="bold" font-size="75.0" fill="#FFFFFF" transform="matrix(1.00, 0.00, -0.00, -1.00, 719.9, 87.8)">o</text><text xml:space="preserve" font-family="Roboto-Bold,Roboto" font-weight="bold" font-size="75.0" fill="#FFFFFF" transform="matrix(1.00, 0.00, -0.00, -1.00, 762.3, 87.8)">j</text><text xml:space="preserve" font-family="Roboto-Bold,Roboto" font-weight="bold" font-size="75.0" fill="#FFFFFF" transform="matrix(1.00, 0.00, -0.00, -1.00, 782.2, 87.8)">e</text><text xml:space="preserve" font-family="Roboto-Bold,Roboto" font-weight="bold" font-size="75.0" fill="#FFFFFF" transform="matrix(1.00, 0.00, -0.00, -1.00, 821.9, 87.8)">c</text><text xml:space="preserve" font-family="Roboto-Bold,Roboto" font-weight="bold" font-size="75.0" fill="#FFFFFF" transform="matrix(1.00, 0.00, -0.00, -1.00, 860.7, 87.8)">t</text><text xml:space="preserve" font-family="Roboto-Bold,Roboto" font-weight="bold" font-size="75.0" fill="#FFFFFF" transform="matrix(1.00, 0.00, -0.00, -1.00, 886.9, 87.8)">.</text><text xml:space="preserve" font-family="Roboto-Bold,Roboto" font-weight="bold" font-size="75.0" fill="#FFFFFF" transform="matrix(1.00, 0.00, -0.00, -1.00, 908.7, 87.8)">o</text><text xml:space="preserve" font-family="Roboto-Bold,Roboto" font-weight="bold" font-size="75.0" fill="#FFFFFF" transform="matrix(1.00, 0.00, -0.00, -1.00, 951.1, 87.8)">r</text><text xml:space="preserve" font-family="Roboto-Bold,Roboto" font-weight="bold" font-size="75.0" fill="#FFFFFF" transform="matrix(1.00, 0.00, -0.00, -1.00, 977.4, 87.8)">g</text><text xml:space="preserve" font-family="Roboto-Bold,Roboto" font-weight="bold" font-size="75.0" fill="#FFFFFF" transform="matrix(1.00, 0.00, -0.00, -1.00, 1019.7, 87.8)">/</text><text xml:space="preserve" font-family="Roboto-Bold,Roboto" font-weight="bold" font-size="75.0" fill="#FFFFFF" transform="matrix(1.00, 0.00, -0.00, -1.00, 1049.9, 87.8)">t</text><text xml:space="preserve" font-family="Roboto-Bold,Roboto" font-weight="bold" font-size="75.0" fill="#FFFFFF" transform="matrix(1.00, 0.00, -0.00, -1.00, 1076.1, 87.8)">o</text><text xml:space="preserve" font-family="Roboto-Bold,Roboto" font-weight="bold" font-size="75.0" fill="#FFFFFF" transform="matrix(1.00, 0.00, -0.00, -1.00, 1118.5, 87.8)">o</text><text xml:space="preserve" font-family="Roboto-Bold,Roboto" font-weight="bold" font-size="75.0" fill="#FFFFFF" transform="matrix(1.00, 0.00, -0.00, -1.00, 1160.9, 87.8)">l</text><text xml:space="preserve" font-family="Roboto-Bold,Roboto" font-weight="bold" font-size="75.0" fill="#FFFFFF" transform="matrix(1.00, 0.00, -0.00, -1.00, 1180.9, 87.8)">s</text><text xml:space="preserve" font-family="Roboto-Bold,Roboto" font-weight="bold" font-size="75.0" fill="#FFFFFF" transform="matrix(1.00, 0.00, -0.00, -1.00, 1219.5, 87.8)">/</text><text xml:space="preserve" font-family="Roboto-Bold,Roboto" font-weight="bold" font-size="75.0" fill="#FFFFFF" transform="matrix(1.00, 0.00, -0.00, -1.00, 1249.7, 87.8)">d</text><text xml:space="preserve" font-family="Roboto-Bold,Roboto" font-weight="bold" font-size="75.0" fill="#FFFFFF" transform="matrix(1.00, 0.00, -0.00, -1.00, 1292.1, 87.8)">e</text><text xml:space="preserve" font-family="Roboto-Bold,Roboto" font-weight="bold" font-size="75.0" fill="#FFFFFF" transform="matrix(1.00, 0.00, -0.00, -1.00, 1331.8, 87.8)">s</text><text xml:space="preserve" font-family="Roboto-Bold,Roboto" font-weight="bold" font-size="75.0" fill="#FFFFFF" transform="matrix(1.00, 0.00, -0.00, -1.00, 1370.5, 87.8)">i</text><text xml:space="preserve" font-family="Roboto-Bold,Roboto" font-weight="bold" font-size="75.0" fill="#FFFFFF" transform="matrix(1.00, 0.00, -0.00, -1.00, 1390.5, 87.8)">g</text><text xml:space="preserve" font-family="Roboto-Bold,Roboto" font-weight="bold" font-size="75.0" fill="#FFFFFF" transform="matrix(1.00, 0.00, -0.00, -1.00, 1432.9, 87.8)">n</text><text xml:space="preserve" font-family="Roboto-Bold,Roboto" font-weight="bold" font-size="75.0" fill="#FFFFFF" transform="matrix(1.00, 0.00, -0.00, -1.00, 1475.3, 87.8)">e</text><text xml:space="preserve" font-family="Roboto-Bold,Roboto" font-weight="bold" font-size="75.0" fill="#FFFFFF" transform="matrix(1.00, 0.00, -0.00, -1.00, 1515.0, 87.8)">r</text><text xml:space="preserve" font-family="Roboto-Bold,Roboto" font-weight="bold" font-size="75.0" fill="#FFFFFF" transform="matrix(1.00, 0.00, -0.00, -1.00, 1541.2, 87.8)">/</text></g></svg>