<?xml version="1.0" encoding="UTF-8" standalone="no"?><svg xmlns="http://www.w3.org/2000/svg" xmlns:xlink="http://www.w3.org/1999/xlink" clip-rule="evenodd" stroke-miterlimit="10" viewBox="0 0 1920 1080"><desc>SVG generated by Keynote</desc><defs></defs><g transform="matrix(1.00, 0.00, -0.00, -1.00, 0.0, 1080.0)"><path d="M 0.0 1080.0 L 1920.0 1080.0 L 1920.0 0.0 L 0.0 0.0 Z M 0.0 1080.0 " fill="#F3B400"></path><text xml:space="preserve" font-family="Roboto-Medium,Roboto" font-size="141.0" fill="#FFFFFF" transform="matrix(1.00, 0.00, -0.00, -1.00, 555.6, 861.4)">&lt;</text><text xml:space="preserve" font-family="Roboto-Medium,Roboto" font-size="141.0" fill="#FFFFFF" transform="matrix(1.00, 0.00, -0.00, -1.00, 627.3, 861.4)">a</text><text xml:space="preserve" font-family="Roboto-Medium,Roboto" font-size="141.0" fill="#FFFFFF" transform="matrix(1.00, 0.00, -0.00, -1.00, 704.1, 861.4)">p</text><text xml:space="preserve" font-family="Roboto-Medium,Roboto" font-size="141.0" fill="#FFFFFF" transform="matrix(1.00, 0.00, -0.00, -1.00, 784.0, 861.4)">p</text><text xml:space="preserve" font-family="Roboto-Medium,Roboto" font-size="141.0" fill="#FFFFFF" transform="matrix(1.00, 0.00, -0.00, -1.00, 863.9, 861.4)">-</text><text xml:space="preserve" font-family="Roboto-Medium,Roboto" font-size="141.0" fill="#FFFFFF" transform="matrix(1.00, 0.00, -0.00, -1.00, 910.2, 861.4)">r</text><text xml:space="preserve" font-family="Roboto-Medium,Roboto" font-size="141.0" fill="#FFFFFF" transform="matrix(1.00, 0.00, -0.00, -1.00, 959.0, 861.4)">o</text><text xml:space="preserve" font-family="Roboto-Medium,Roboto" font-size="141.0" fill="#FFFFFF" transform="matrix(1.00, 0.00, -0.00, -1.00, 1039.0, 861.4)">u</text><text xml:space="preserve" font-family="Roboto-Medium,Roboto" font-size="141.0" fill="#FFFFFF" transform="matrix(1.00, 0.00, -0.00, -1.00, 1118.9, 861.4)">t</text><text xml:space="preserve" font-family="Roboto-Medium,Roboto" font-size="141.0" fill="#FFFFFF" transform="matrix(1.00, 0.00, -0.00, -1.00, 1167.8, 861.4)">e</text><text xml:space="preserve" font-family="Roboto-Medium,Roboto" font-size="141.0" fill="#FFFFFF" transform="matrix(1.00, 0.00, -0.00, -1.00, 1242.5, 861.4)">r</text><text xml:space="preserve" font-family="Roboto-Medium,Roboto" font-size="141.0" fill="#FFFFFF" transform="matrix(1.00, 0.00, -0.00, -1.00, 1291.3, 861.4)">&gt;</text><text xml:space="preserve" font-family="Roboto-Regular,Roboto" font-size="37.0" fill="#FFFFFF" transform="matrix(1.00, 0.00, -0.00, -1.00, 648.0, 782.7)">g</text><text xml:space="preserve" font-family="Roboto-Regular,Roboto" font-size="37.0" fill="#FFFFFF" transform="matrix(1.00, 0.00, -0.00, -1.00, 669.1, 782.7)">i</text><text xml:space="preserve" font-family="Roboto-Regular,Roboto" font-size="37.0" fill="#FFFFFF" transform="matrix(1.00, 0.00, -0.00, -1.00, 678.4, 782.7)">t</text><text xml:space="preserve" font-family="Roboto-Regular,Roboto" font-size="37.0" fill="#FFFFFF" transform="matrix(1.00, 0.00, -0.00, -1.00, 691.2, 782.7)">h</text><text xml:space="preserve" font-family="Roboto-Regular,Roboto" font-size="37.0" fill="#FFFFFF" transform="matrix(1.00, 0.00, -0.00, -1.00, 712.2, 782.7)">u</text><text xml:space="preserve" font-family="Roboto-Regular,Roboto" font-size="37.0" fill="#FFFFFF" transform="matrix(1.00, 0.00, -0.00, -1.00, 733.3, 782.7)">b</text><text xml:space="preserve" font-family="Roboto-Regular,Roboto" font-size="37.0" fill="#FFFFFF" transform="matrix(1.00, 0.00, -0.00, -1.00, 754.3, 782.7)">.</text><text xml:space="preserve" font-family="Roboto-Regular,Roboto" font-size="37.0" fill="#FFFFFF" transform="matrix(1.00, 0.00, -0.00, -1.00, 764.2, 782.7)">c</text><text xml:space="preserve" font-family="Roboto-Regular,Roboto" font-size="37.0" fill="#FFFFFF" transform="matrix(1.00, 0.00, -0.00, -1.00, 783.8, 782.7)">o</text><text xml:space="preserve" font-family="Roboto-Regular,Roboto" font-size="37.0" fill="#FFFFFF" transform="matrix(1.00, 0.00, -0.00, -1.00, 804.9, 782.7)">m</text><text xml:space="preserve" font-family="Roboto-Regular,Roboto" font-size="37.0" fill="#FFFFFF" transform="matrix(1.00, 0.00, -0.00, -1.00, 837.2, 782.7)">/</text><text xml:space="preserve" font-family="Roboto-Regular,Roboto" font-size="37.0" fill="#FFFFFF" transform="matrix(1.00, 0.00, -0.00, -1.00, 852.6, 782.7)">e</text><text xml:space="preserve" font-family="Roboto-Regular,Roboto" font-size="37.0" fill="#FFFFFF" transform="matrix(1.00, 0.00, -0.00, -1.00, 872.1, 782.7)">r</text><text xml:space="preserve" font-family="Roboto-Regular,Roboto" font-size="37.0" fill="#FFFFFF" transform="matrix(1.00, 0.00, -0.00, -1.00, 884.8, 782.7)">i</text><text xml:space="preserve" font-family="Roboto-Regular,Roboto" font-size="37.0" fill="#FFFFFF" transform="matrix(1.00, 0.00, -0.00, -1.00, 894.1, 782.7)">k</text><text xml:space="preserve" font-family="Roboto-Regular,Roboto" font-size="37.0" fill="#FFFFFF" transform="matrix(1.00, 0.00, -0.00, -1.00, 913.1, 782.7)">r</text><text xml:space="preserve" font-family="Roboto-Regular,Roboto" font-size="37.0" fill="#FFFFFF" transform="matrix(1.00, 0.00, -0.00, -1.00, 925.8, 782.7)">i</text><text xml:space="preserve" font-family="Roboto-Regular,Roboto" font-size="37.0" fill="#FFFFFF" transform="matrix(1.00, 0.00, -0.00, -1.00, 935.1, 782.7)">n</text><text xml:space="preserve" font-family="Roboto-Regular,Roboto" font-size="37.0" fill="#FFFFFF" transform="matrix(1.00, 0.00, -0.00, -1.00, 956.1, 782.7)">g</text><text xml:space="preserve" font-family="Roboto-Regular,Roboto" font-size="37.0" fill="#FFFFFF" transform="matrix(1.00, 0.00, -0.00, -1.00, 977.2, 782.7)">s</text><text xml:space="preserve" font-family="Roboto-Regular,Roboto" font-size="37.0" fill="#FFFFFF" transform="matrix(1.00, 0.00, -0.00, -1.00, 996.5, 782.7)">m</text><text xml:space="preserve" font-family="Roboto-Regular,Roboto" font-size="37.0" fill="#FFFFFF" transform="matrix(1.00, 0.00, -0.00, -1.00, 1028.8, 782.7)">u</text><text xml:space="preserve" font-family="Roboto-Regular,Roboto" font-size="37.0" fill="#FFFFFF" transform="matrix(1.00, 0.00, -0.00, -1.00, 1049.9, 782.7)">t</text><text xml:space="preserve" font-family="Roboto-Regular,Roboto" font-size="37.0" fill="#FFFFFF" transform="matrix(1.00, 0.00, -0.00, -1.00, 1062.7, 782.7)">h</text><text xml:space="preserve" font-family="Roboto-Regular,Roboto" font-size="37.0" fill="#FFFFFF" transform="matrix(1.00, 0.00, -0.00, -1.00, 1083.7, 782.7)">/</text><text xml:space="preserve" font-family="Roboto-Regular,Roboto" font-size="37.0" fill="#FFFFFF" transform="matrix(1.00, 0.00, -0.00, -1.00, 1099.1, 782.7)">a</text><text xml:space="preserve" font-family="Roboto-Regular,Roboto" font-size="37.0" fill="#FFFFFF" transform="matrix(1.00, 0.00, -0.00, -1.00, 1119.4, 782.7)">p</text><text xml:space="preserve" font-family="Roboto-Regular,Roboto" font-size="37.0" fill="#FFFFFF" transform="matrix(1.00, 0.00, -0.00, -1.00, 1140.4, 782.7)">p</text><text xml:space="preserve" font-family="Roboto-Regular,Roboto" font-size="37.0" fill="#FFFFFF" transform="matrix(1.00, 0.00, -0.00, -1.00, 1161.5, 782.7)">-</text><text xml:space="preserve" font-family="Roboto-Regular,Roboto" font-size="37.0" fill="#FFFFFF" transform="matrix(1.00, 0.00, -0.00, -1.00, 1171.6, 782.7)">r</text><text xml:space="preserve" font-family="Roboto-Regular,Roboto" font-size="37.0" fill="#FFFFFF" transform="matrix(1.00, 0.00, -0.00, -1.00, 1183.9, 782.7)">o</text><text xml:space="preserve" font-family="Roboto-Regular,Roboto" font-size="37.0" fill="#FFFFFF" transform="matrix(1.00, 0.00, -0.00, -1.00, 1205.0, 782.7)">u</text><text xml:space="preserve" font-family="Roboto-Regular,Roboto" font-size="37.0" fill="#FFFFFF" transform="matrix(1.00, 0.00, -0.00, -1.00, 1226.0, 782.7)">t</text><text xml:space="preserve" font-family="Roboto-Regular,Roboto" font-size="37.0" fill="#FFFFFF" transform="matrix(1.00, 0.00, -0.00, -1.00, 1238.8, 782.7)">e</text><text xml:space="preserve" font-family="Roboto-Regular,Roboto" font-size="37.0" fill="#FFFFFF" transform="matrix(1.00, 0.00, -0.00, -1.00, 1258.4, 782.7)">r</text><g><clipPath id="clip0x6080046a0d20"><path d="M 9.0 876.0 L 1911.0 876.0 L 1911.0 -567.0 L 9.0 -567.0 Z M 9.0 876.3 "></path></clipPath><g clip-path="url(#clip0x6080046a0d20)"><image xlink:href="../../8AFA84B7-D1E2-448D-8FF5-63B5FA31F376/assets/B7D334E08780915D84B4A8F826C707BB.png" width="1120.00" height="850.00" transform="matrix(1.70, 0.00, -0.00, -1.70, 9.0, 876.3)"></image></g></g><g><clipPath id="clip0x6080046a0d80"><path d="M 436.9 595.0 L 856.2 595.0 L 856.2 628.0 L 436.9 628.0 Z M 436.9 595.0 "></path></clipPath><g clip-path="url(#clip0x6080046a0d80)"><text xml:space="preserve" font-family="Roboto-Regular,Roboto" font-size="30.0" fill="#424242" transform="matrix(1.00, 0.00, -0.00, -1.00, 446.8, 597.1)">m</text><text xml:space="preserve" font-family="Roboto-Regular,Roboto" font-size="30.0" fill="#424242" transform="matrix(1.00, 0.00, -0.00, -1.00, 473.0, 597.1)">y</text><text xml:space="preserve" font-family="Roboto-Regular,Roboto" font-size="30.0" fill="#424242" transform="matrix(1.00, 0.00, -0.00, -1.00, 488.1, 597.1)">-</text><text xml:space="preserve" font-family="Roboto-Regular,Roboto" font-size="30.0" fill="#424242" transform="matrix(1.00, 0.00, -0.00, -1.00, 496.3, 597.1)">s</text><text xml:space="preserve" font-family="Roboto-Regular,Roboto" font-size="30.0" fill="#424242" transform="matrix(1.00, 0.00, -0.00, -1.00, 512.0, 597.1)">i</text><text xml:space="preserve" font-family="Roboto-Regular,Roboto" font-size="30.0" fill="#424242" transform="matrix(1.00, 0.00, -0.00, -1.00, 519.6, 597.1)">t</text><text xml:space="preserve" font-family="Roboto-Regular,Roboto" font-size="30.0" fill="#424242" transform="matrix(1.00, 0.00, -0.00, -1.00, 529.9, 597.1)">e</text><text xml:space="preserve" font-family="Roboto-Regular,Roboto" font-size="30.0" fill="#424242" transform="matrix(1.00, 0.00, -0.00, -1.00, 545.8, 597.1)">.</text><text xml:space="preserve" font-family="Roboto-Regular,Roboto" font-size="30.0" fill="#424242" transform="matrix(1.00, 0.00, -0.00, -1.00, 553.8, 597.1)">c</text><text xml:space="preserve" font-family="Roboto-Regular,Roboto" font-size="30.0" fill="#424242" transform="matrix(1.00, 0.00, -0.00, -1.00, 569.7, 597.1)">o</text><text xml:space="preserve" font-family="Roboto-Regular,Roboto" font-size="30.0" fill="#424242" transform="matrix(1.00, 0.00, -0.00, -1.00, 586.8, 597.1)">m</text><text xml:space="preserve" font-family="Roboto-Regular,Roboto" font-size="30.0" fill="#424242" transform="matrix(1.00, 0.00, -0.00, -1.00, 613.0, 597.1)">/</text><text xml:space="preserve" font-family="Roboto-Regular,Roboto" font-size="30.0" fill="#424242" transform="matrix(1.00, 0.00, -0.00, -1.00, 625.4, 597.1)">o</text><text xml:space="preserve" font-family="Roboto-Regular,Roboto" font-size="30.0" fill="#424242" transform="matrix(1.00, 0.00, -0.00, -1.00, 642.5, 597.1)">r</text><text xml:space="preserve" font-family="Roboto-Regular,Roboto" font-size="30.0" fill="#424242" transform="matrix(1.00, 0.00, -0.00, -1.00, 652.5, 597.1)">d</text><text xml:space="preserve" font-family="Roboto-Regular,Roboto" font-size="30.0" fill="#424242" transform="matrix(1.00, 0.00, -0.00, -1.00, 669.6, 597.1)">e</text><text xml:space="preserve" font-family="Roboto-Regular,Roboto" font-size="30.0" fill="#424242" transform="matrix(1.00, 0.00, -0.00, -1.00, 685.4, 597.1)">r</text><text xml:space="preserve" font-family="Roboto-Regular,Roboto" font-size="30.0" fill="#424242" transform="matrix(1.00, 0.00, -0.00, -1.00, 695.7, 597.1)">/</text><text xml:space="preserve" font-family="Roboto-Regular,Roboto" font-size="30.0" fill="#424242" transform="matrix(1.00, 0.00, -0.00, -1.00, 708.2, 597.1)">:</text><text xml:space="preserve" font-family="Roboto-Regular,Roboto" font-size="30.0" fill="#424242" transform="matrix(1.00, 0.00, -0.00, -1.00, 715.7, 597.1)">i</text><text xml:space="preserve" font-family="Roboto-Regular,Roboto" font-size="30.0" fill="#424242" transform="matrix(1.00, 0.00, -0.00, -1.00, 723.3, 597.1)">d</text></g></g><image xlink:href="../../8AFA84B7-D1E2-448D-8FF5-63B5FA31F376/assets/977159056EB1BD8E03250B3D14520906.png" width="1619.00" height="431.00" transform="matrix(1.00, 0.00, -0.00, -1.00, 150.7, 528.4)" opacity="0.50"></image><path d="M 169.7 136.3 L 170.0 516.7 C 170.0 520.3 172.6 523.0 176.2 523.0 L 1743.8 523.0 C 1747.4 523.0 1750.0 520.3 1750.0 516.7 L 1750.0 136.3 C 1750.0 132.7 1747.4 130.0 1743.8 130.0 L 176.2 130.0 C 172.6 130.0 169.7 132.7 169.7 136.3 Z M 169.7 136.3 " fill="#FFFFFF"></path><g><clipPath id="clip0x6000052a6b40"><path d="M 169.7 129.8 L 1750.3 129.8 L 1750.3 523.3 L 169.7 523.3 Z M 169.7 129.8 "></path></clipPath><g clip-path="url(#clip0x6000052a6b40)"><text xml:space="preserve" font-family=".LucidaGrandeUI,.Lucida Grande UI" font-size="40.0" fill="#4185F4" transform="matrix(1.00, 0.00, -0.00, -1.00, 189.7, 464.7)">&lt;</text><text xml:space="preserve" font-family=".LucidaGrandeUI,.Lucida Grande UI" font-size="40.0" fill="#4185F4" transform="matrix(1.00, 0.00, -0.00, -1.00, 221.5, 464.7)">a</text><text xml:space="preserve" font-family=".LucidaGrandeUI,.Lucida Grande UI" font-size="40.0" fill="#4185F4" transform="matrix(1.00, 0.00, -0.00, -1.00, 243.6, 464.7)">p</text><text xml:space="preserve" font-family=".LucidaGrandeUI,.Lucida Grande UI" font-size="40.0" fill="#4185F4" transform="matrix(1.00, 0.00, -0.00, -1.00, 268.8, 464.7)">p</text><text xml:space="preserve" font-family=".LucidaGrandeUI,.Lucida Grande UI" font-size="40.0" fill="#4185F4" transform="matrix(1.00, 0.00, -0.00, -1.00, 294.0, 464.7)">-</text><text xml:space="preserve" font-family=".LucidaGrandeUI,.Lucida Grande UI" font-size="40.0" fill="#4185F4" transform="matrix(1.00, 0.00, -0.00, -1.00, 317.1, 464.7)">r</text><text xml:space="preserve" font-family=".LucidaGrandeUI,.Lucida Grande UI" font-size="40.0" fill="#4185F4" transform="matrix(1.00, 0.00, -0.00, -1.00, 333.5, 464.7)">o</text><text xml:space="preserve" font-family=".LucidaGrandeUI,.Lucida Grande UI" font-size="40.0" fill="#4185F4" transform="matrix(1.00, 0.00, -0.00, -1.00, 358.1, 464.7)">u</text><text xml:space="preserve" font-family=".LucidaGrandeUI,.Lucida Grande UI" font-size="40.0" fill="#4185F4" transform="matrix(1.00, 0.00, -0.00, -1.00, 382.9, 464.7)">t</text><text xml:space="preserve" font-family=".LucidaGrandeUI,.Lucida Grande UI" font-size="40.0" fill="#4185F4" transform="matrix(1.00, 0.00, -0.00, -1.00, 397.9, 464.7)">e</text><text xml:space="preserve" font-family=".LucidaGrandeUI,.Lucida Grande UI" font-size="40.0" fill="#4185F4" transform="matrix(1.00, 0.00, -0.00, -1.00, 420.1, 464.7)">r</text><text xml:space="preserve" font-family=".LucidaGrandeUI,.Lucida Grande UI" font-size="40.0" fill="#4185F4" transform="matrix(1.00, 0.00, -0.00, -1.00, 436.5, 464.7)">&gt;</text><text xml:space="preserve" font-family=".LucidaGrandeUI,.Lucida Grande UI" font-size="40.0" fill="#000000" transform="matrix(1.00, 0.00, -0.00, -1.00, 468.3, 464.7)"></text><text xml:space="preserve" font-family=".LucidaGrandeUI,.Lucida Grande UI" font-size="40.0" fill="#000000" transform="matrix(1.00, 0.00, -0.00, -1.00, 189.7, 408.3)"> </text><text xml:space="preserve" font-family=".LucidaGrandeUI,.Lucida Grande UI" font-size="40.0" fill="#000000" transform="matrix(1.00, 0.00, -0.00, -1.00, 202.4, 408.3)"> </text><text xml:space="preserve" font-family=".LucidaGrandeUI,.Lucida Grande UI" font-size="40.0" fill="#989898" transform="matrix(1.00, 0.00, -0.00, -1.00, 215.0, 408.3)">&lt;</text><text xml:space="preserve" font-family=".LucidaGrandeUI,.Lucida Grande UI" font-size="40.0" fill="#989898" transform="matrix(1.00, 0.00, -0.00, -1.00, 246.8, 408.3)">!</text><text xml:space="preserve" font-family=".LucidaGrandeUI,.Lucida Grande UI" font-size="40.0" fill="#989898" transform="matrix(1.00, 0.00, -0.00, -1.00, 260.0, 408.3)">-</text><text xml:space="preserve" font-family=".LucidaGrandeUI,.Lucida Grande UI" font-size="40.0" fill="#989898" transform="matrix(1.00, 0.00, -0.00, -1.00, 283.1, 408.3)">-</text><text xml:space="preserve" font-family=".LucidaGrandeUI,.Lucida Grande UI" font-size="40.0" fill="#989898" transform="matrix(1.00, 0.00, -0.00, -1.00, 306.2, 408.3)"> </text><text xml:space="preserve" font-family=".LucidaGrandeUI,.Lucida Grande UI" font-size="40.0" fill="#989898" transform="matrix(1.00, 0.00, -0.00, -1.00, 318.9, 408.3)">m</text><text xml:space="preserve" font-family=".LucidaGrandeUI,.Lucida Grande UI" font-size="40.0" fill="#989898" transform="matrix(1.00, 0.00, -0.00, -1.00, 356.2, 408.3)">a</text><text xml:space="preserve" font-family=".LucidaGrandeUI,.Lucida Grande UI" font-size="40.0" fill="#989898" transform="matrix(1.00, 0.00, -0.00, -1.00, 378.3, 408.3)">t</text><text xml:space="preserve" font-family=".LucidaGrandeUI,.Lucida Grande UI" font-size="40.0" fill="#989898" transform="matrix(1.00, 0.00, -0.00, -1.00, 393.3, 408.3)">c</text><text xml:space="preserve" font-family=".LucidaGrandeUI,.Lucida Grande UI" font-size="40.0" fill="#989898" transform="matrix(1.00, 0.00, -0.00, -1.00, 413.8, 408.3)">h</text><text xml:space="preserve" font-family=".LucidaGrandeUI,.Lucida Grande UI" font-size="40.0" fill="#989898" transform="matrix(1.00, 0.00, -0.00, -1.00, 438.6, 408.3)">e</text><text xml:space="preserve" font-family=".LucidaGrandeUI,.Lucida Grande UI" font-size="40.0" fill="#989898" transform="matrix(1.00, 0.00, -0.00, -1.00, 460.9, 408.3)">s</text><text xml:space="preserve" font-family=".LucidaGrandeUI,.Lucida Grande UI" font-size="40.0" fill="#989898" transform="matrix(1.00, 0.00, -0.00, -1.00, 479.4, 408.3)"> </text><text xml:space="preserve" font-family=".LucidaGrandeUI,.Lucida Grande UI" font-size="40.0" fill="#989898" transform="matrix(1.00, 0.00, -0.00, -1.00, 492.0, 408.3)">a</text><text xml:space="preserve" font-family=".LucidaGrandeUI,.Lucida Grande UI" font-size="40.0" fill="#989898" transform="matrix(1.00, 0.00, -0.00, -1.00, 514.1, 408.3)">n</text><text xml:space="preserve" font-family=".LucidaGrandeUI,.Lucida Grande UI" font-size="40.0" fill="#989898" transform="matrix(1.00, 0.00, -0.00, -1.00, 539.0, 408.3)"> </text><text xml:space="preserve" font-family=".LucidaGrandeUI,.Lucida Grande UI" font-size="40.0" fill="#989898" transform="matrix(1.00, 0.00, -0.00, -1.00, 551.6, 408.3)">e</text><text xml:space="preserve" font-family=".LucidaGrandeUI,.Lucida Grande UI" font-size="40.0" fill="#989898" transform="matrix(1.00, 0.00, -0.00, -1.00, 573.9, 408.3)">x</text><text xml:space="preserve" font-family=".LucidaGrandeUI,.Lucida Grande UI" font-size="40.0" fill="#989898" transform="matrix(1.00, 0.00, -0.00, -1.00, 596.2, 408.3)">a</text><text xml:space="preserve" font-family=".LucidaGrandeUI,.Lucida Grande UI" font-size="40.0" fill="#989898" transform="matrix(1.00, 0.00, -0.00, -1.00, 618.3, 408.3)">c</text><text xml:space="preserve" font-family=".LucidaGrandeUI,.Lucida Grande UI" font-size="40.0" fill="#989898" transform="matrix(1.00, 0.00, -0.00, -1.00, 638.8, 408.3)">t</text><text xml:space="preserve" font-family=".LucidaGrandeUI,.Lucida Grande UI" font-size="40.0" fill="#989898" transform="matrix(1.00, 0.00, -0.00, -1.00, 653.7, 408.3)"> </text><text xml:space="preserve" font-family=".LucidaGrandeUI,.Lucida Grande UI" font-size="40.0" fill="#989898" transform="matrix(1.00, 0.00, -0.00, -1.00, 666.4, 408.3)">p</text><text xml:space="preserve" font-family=".LucidaGrandeUI,.Lucida Grande UI" font-size="40.0" fill="#989898" transform="matrix(1.00, 0.00, -0.00, -1.00, 691.6, 408.3)">a</text><text xml:space="preserve" font-family=".LucidaGrandeUI,.Lucida Grande UI" font-size="40.0" fill="#989898" transform="matrix(1.00, 0.00, -0.00, -1.00, 713.7, 408.3)">t</text><text xml:space="preserve" font-family=".LucidaGrandeUI,.Lucida Grande UI" font-size="40.0" fill="#989898" transform="matrix(1.00, 0.00, -0.00, -1.00, 728.6, 408.3)">h</text><text xml:space="preserve" font-family=".LucidaGrandeUI,.Lucida Grande UI" font-size="40.0" fill="#989898" transform="matrix(1.00, 0.00, -0.00, -1.00, 753.5, 408.3)"> </text><text xml:space="preserve" font-family=".LucidaGrandeUI,.Lucida Grande UI" font-size="40.0" fill="#989898" transform="matrix(1.00, 0.00, -0.00, -1.00, 766.1, 408.3)">-</text><text xml:space="preserve" font-family=".LucidaGrandeUI,.Lucida Grande UI" font-size="40.0" fill="#989898" transform="matrix(1.00, 0.00, -0.00, -1.00, 789.3, 408.3)">-</text><text xml:space="preserve" font-family=".LucidaGrandeUI,.Lucida Grande UI" font-size="40.0" fill="#989898" transform="matrix(1.00, 0.00, -0.00, -1.00, 812.4, 408.3)">&gt;</text><text xml:space="preserve" font-family=".LucidaGrandeUI,.Lucida Grande UI" font-size="40.0" fill="#000000" transform="matrix(1.00, 0.00, -0.00, -1.00, 844.2, 408.3)"></text><text xml:space="preserve" font-family=".LucidaGrandeUI,.Lucida Grande UI" font-size="40.0" fill="#000000" transform="matrix(1.00, 0.00, -0.00, -1.00, 189.7, 351.9)"> </text><text xml:space="preserve" font-family=".LucidaGrandeUI,.Lucida Grande UI" font-size="40.0" fill="#000000" transform="matrix(1.00, 0.00, -0.00, -1.00, 202.4, 351.9)"> </text><text xml:space="preserve" font-family=".LucidaGrandeUI,.Lucida Grande UI" font-size="40.0" fill="#4185F4" transform="matrix(1.00, 0.00, -0.00, -1.00, 215.0, 351.9)">&lt;</text><text xml:space="preserve" font-family=".LucidaGrandeUI,.Lucida Grande UI" font-size="40.0" fill="#4185F4" transform="matrix(1.00, 0.00, -0.00, -1.00, 246.8, 351.9)">a</text><text xml:space="preserve" font-family=".LucidaGrandeUI,.Lucida Grande UI" font-size="40.0" fill="#4185F4" transform="matrix(1.00, 0.00, -0.00, -1.00, 268.9, 351.9)">p</text><text xml:space="preserve" font-family=".LucidaGrandeUI,.Lucida Grande UI" font-size="40.0" fill="#4185F4" transform="matrix(1.00, 0.00, -0.00, -1.00, 294.1, 351.9)">p</text><text xml:space="preserve" font-family=".LucidaGrandeUI,.Lucida Grande UI" font-size="40.0" fill="#4185F4" transform="matrix(1.00, 0.00, -0.00, -1.00, 319.3, 351.9)">-</text><text xml:space="preserve" font-family=".LucidaGrandeUI,.Lucida Grande UI" font-size="40.0" fill="#4185F4" transform="matrix(1.00, 0.00, -0.00, -1.00, 342.4, 351.9)">r</text><text xml:space="preserve" font-family=".LucidaGrandeUI,.Lucida Grande UI" font-size="40.0" fill="#4185F4" transform="matrix(1.00, 0.00, -0.00, -1.00, 358.8, 351.9)">o</text><text xml:space="preserve" font-family=".LucidaGrandeUI,.Lucida Grande UI" font-size="40.0" fill="#4185F4" transform="matrix(1.00, 0.00, -0.00, -1.00, 383.4, 351.9)">u</text><text xml:space="preserve" font-family=".LucidaGrandeUI,.Lucida Grande UI" font-size="40.0" fill="#4185F4" transform="matrix(1.00, 0.00, -0.00, -1.00, 408.2, 351.9)">t</text><text xml:space="preserve" font-family=".LucidaGrandeUI,.Lucida Grande UI" font-size="40.0" fill="#4185F4" transform="matrix(1.00, 0.00, -0.00, -1.00, 423.2, 351.9)">e</text><text xml:space="preserve" font-family=".LucidaGrandeUI,.Lucida Grande UI" font-size="40.0" fill="#000000" transform="matrix(1.00, 0.00, -0.00, -1.00, 445.4, 351.9)"> </text><text xml:space="preserve" font-family=".LucidaGrandeUI,.Lucida Grande UI" font-size="40.0" fill="#E82663" transform="matrix(1.00, 0.00, -0.00, -1.00, 458.1, 351.9)">p</text><text xml:space="preserve" font-family=".LucidaGrandeUI,.Lucida Grande UI" font-size="40.0" fill="#E82663" transform="matrix(1.00, 0.00, -0.00, -1.00, 483.3, 351.9)">a</text><text xml:space="preserve" font-family=".LucidaGrandeUI,.Lucida Grande UI" font-size="40.0" fill="#E82663" transform="matrix(1.00, 0.00, -0.00, -1.00, 505.4, 351.9)">t</text><text xml:space="preserve" font-family=".LucidaGrandeUI,.Lucida Grande UI" font-size="40.0" fill="#E82663" transform="matrix(1.00, 0.00, -0.00, -1.00, 520.3, 351.9)">h</text><text xml:space="preserve" font-family=".LucidaGrandeUI,.Lucida Grande UI" font-size="40.0" fill="#A3A3A3" transform="matrix(1.00, 0.00, -0.00, -1.00, 545.1, 351.9)">=</text><text xml:space="preserve" font-family=".LucidaGrandeUI,.Lucida Grande UI" font-size="40.0" fill="#0D9D57" transform="matrix(1.00, 0.00, -0.00, -1.00, 576.9, 351.9)">"</text><text xml:space="preserve" font-family=".LucidaGrandeUI,.Lucida Grande UI" font-size="40.0" fill="#0D9D57" transform="matrix(1.00, 0.00, -0.00, -1.00, 591.8, 351.9)">/</text><text xml:space="preserve" font-family=".LucidaGrandeUI,.Lucida Grande UI" font-size="40.0" fill="#0D9D57" transform="matrix(1.00, 0.00, -0.00, -1.00, 612.8, 351.9)">h</text><text xml:space="preserve" font-family=".LucidaGrandeUI,.Lucida Grande UI" font-size="40.0" fill="#0D9D57" transform="matrix(1.00, 0.00, -0.00, -1.00, 637.7, 351.9)">o</text><text xml:space="preserve" font-family=".LucidaGrandeUI,.Lucida Grande UI" font-size="40.0" fill="#0D9D57" transform="matrix(1.00, 0.00, -0.00, -1.00, 662.2, 351.9)">m</text><text xml:space="preserve" font-family=".LucidaGrandeUI,.Lucida Grande UI" font-size="40.0" fill="#0D9D57" transform="matrix(1.00, 0.00, -0.00, -1.00, 699.6, 351.9)">e</text><text xml:space="preserve" font-family=".LucidaGrandeUI,.Lucida Grande UI" font-size="40.0" fill="#0D9D57" transform="matrix(1.00, 0.00, -0.00, -1.00, 721.9, 351.9)">"</text><text xml:space="preserve" font-family=".LucidaGrandeUI,.Lucida Grande UI" font-size="40.0" fill="#000000" transform="matrix(1.00, 0.00, -0.00, -1.00, 736.8, 351.9)"> </text><text xml:space="preserve" font-family=".LucidaGrandeUI,.Lucida Grande UI" font-size="40.0" fill="#E82663" transform="matrix(1.00, 0.00, -0.00, -1.00, 749.5, 351.9)">i</text><text xml:space="preserve" font-family=".LucidaGrandeUI,.Lucida Grande UI" font-size="40.0" fill="#E82663" transform="matrix(1.00, 0.00, -0.00, -1.00, 761.0, 351.9)">m</text><text xml:space="preserve" font-family=".LucidaGrandeUI,.Lucida Grande UI" font-size="40.0" fill="#E82663" transform="matrix(1.00, 0.00, -0.00, -1.00, 798.3, 351.9)">p</text><text xml:space="preserve" font-family=".LucidaGrandeUI,.Lucida Grande UI" font-size="40.0" fill="#E82663" transform="matrix(1.00, 0.00, -0.00, -1.00, 823.5, 351.9)">o</text><text xml:space="preserve" font-family=".LucidaGrandeUI,.Lucida Grande UI" font-size="40.0" fill="#E82663" transform="matrix(1.00, 0.00, -0.00, -1.00, 848.1, 351.9)">r</text><text xml:space="preserve" font-family=".LucidaGrandeUI,.Lucida Grande UI" font-size="40.0" fill="#E82663" transform="matrix(1.00, 0.00, -0.00, -1.00, 864.5, 351.9)">t</text><text xml:space="preserve" font-family=".LucidaGrandeUI,.Lucida Grande UI" font-size="40.0" fill="#A3A3A3" transform="matrix(1.00, 0.00, -0.00, -1.00, 879.4, 351.9)">=</text><text xml:space="preserve" font-family=".LucidaGrandeUI,.Lucida Grande UI" font-size="40.0" fill="#0D9D57" transform="matrix(1.00, 0.00, -0.00, -1.00, 911.2, 351.9)">"</text><text xml:space="preserve" font-family=".LucidaGrandeUI,.Lucida Grande UI" font-size="40.0" fill="#0D9D57" transform="matrix(1.00, 0.00, -0.00, -1.00, 926.2, 351.9)">/</text><text xml:space="preserve" font-family=".LucidaGrandeUI,.Lucida Grande UI" font-size="40.0" fill="#0D9D57" transform="matrix(1.00, 0.00, -0.00, -1.00, 947.2, 351.9)">p</text><text xml:space="preserve" font-family=".LucidaGrandeUI,.Lucida Grande UI" font-size="40.0" fill="#0D9D57" transform="matrix(1.00, 0.00, -0.00, -1.00, 972.4, 351.9)">a</text><text xml:space="preserve" font-family=".LucidaGrandeUI,.Lucida Grande UI" font-size="40.0" fill="#0D9D57" transform="matrix(1.00, 0.00, -0.00, -1.00, 994.4, 351.9)">g</text><text xml:space="preserve" font-family=".LucidaGrandeUI,.Lucida Grande UI" font-size="40.0" fill="#0D9D57" transform="matrix(1.00, 0.00, -0.00, -1.00, 1019.4, 351.9)">e</text><text xml:space="preserve" font-family=".LucidaGrandeUI,.Lucida Grande UI" font-size="40.0" fill="#0D9D57" transform="matrix(1.00, 0.00, -0.00, -1.00, 1041.7, 351.9)">s</text><text xml:space="preserve" font-family=".LucidaGrandeUI,.Lucida Grande UI" font-size="40.0" fill="#0D9D57" transform="matrix(1.00, 0.00, -0.00, -1.00, 1060.2, 351.9)">/</text><text xml:space="preserve" font-family=".LucidaGrandeUI,.Lucida Grande UI" font-size="40.0" fill="#0D9D57" transform="matrix(1.00, 0.00, -0.00, -1.00, 1081.2, 351.9)">h</text><text xml:space="preserve" font-family=".LucidaGrandeUI,.Lucida Grande UI" font-size="40.0" fill="#0D9D57" transform="matrix(1.00, 0.00, -0.00, -1.00, 1106.0, 351.9)">o</text><text xml:space="preserve" font-family=".LucidaGrandeUI,.Lucida Grande UI" font-size="40.0" fill="#0D9D57" transform="matrix(1.00, 0.00, -0.00, -1.00, 1130.6, 351.9)">m</text><text xml:space="preserve" font-family=".LucidaGrandeUI,.Lucida Grande UI" font-size="40.0" fill="#0D9D57" transform="matrix(1.00, 0.00, -0.00, -1.00, 1167.9, 351.9)">e</text><text xml:space="preserve" font-family=".LucidaGrandeUI,.Lucida Grande UI" font-size="40.0" fill="#0D9D57" transform="matrix(1.00, 0.00, -0.00, -1.00, 1190.2, 351.9)">-</text><text xml:space="preserve" font-family=".LucidaGrandeUI,.Lucida Grande UI" font-size="40.0" fill="#0D9D57" transform="matrix(1.00, 0.00, -0.00, -1.00, 1213.3, 351.9)">p</text><text xml:space="preserve" font-family=".LucidaGrandeUI,.Lucida Grande UI" font-size="40.0" fill="#0D9D57" transform="matrix(1.00, 0.00, -0.00, -1.00, 1238.5, 351.9)">a</text><text xml:space="preserve" font-family=".LucidaGrandeUI,.Lucida Grande UI" font-size="40.0" fill="#0D9D57" transform="matrix(1.00, 0.00, -0.00, -1.00, 1260.6, 351.9)">g</text><text xml:space="preserve" font-family=".LucidaGrandeUI,.Lucida Grande UI" font-size="40.0" fill="#0D9D57" transform="matrix(1.00, 0.00, -0.00, -1.00, 1285.5, 351.9)">e</text><text xml:space="preserve" font-family=".LucidaGrandeUI,.Lucida Grande UI" font-size="40.0" fill="#0D9D57" transform="matrix(1.00, 0.00, -0.00, -1.00, 1307.8, 351.9)">.</text><text xml:space="preserve" font-family=".LucidaGrandeUI,.Lucida Grande UI" font-size="40.0" fill="#0D9D57" transform="matrix(1.00, 0.00, -0.00, -1.00, 1320.5, 351.9)">h</text><text xml:space="preserve" font-family=".LucidaGrandeUI,.Lucida Grande UI" font-size="40.0" fill="#0D9D57" transform="matrix(1.00, 0.00, -0.00, -1.00, 1345.3, 351.9)">t</text><text xml:space="preserve" font-family=".LucidaGrandeUI,.Lucida Grande UI" font-size="40.0" fill="#0D9D57" transform="matrix(1.00, 0.00, -0.00, -1.00, 1360.2, 351.9)">m</text><text xml:space="preserve" font-family=".LucidaGrandeUI,.Lucida Grande UI" font-size="40.0" fill="#0D9D57" transform="matrix(1.00, 0.00, -0.00, -1.00, 1397.6, 351.9)">l</text><text xml:space="preserve" font-family=".LucidaGrandeUI,.Lucida Grande UI" font-size="40.0" fill="#0D9D57" transform="matrix(1.00, 0.00, -0.00, -1.00, 1409.1, 351.9)">"</text><text xml:space="preserve" font-family=".LucidaGrandeUI,.Lucida Grande UI" font-size="40.0" fill="#4185F4" transform="matrix(1.00, 0.00, -0.00, -1.00, 1424.1, 351.9)">&gt;</text><text xml:space="preserve" font-family=".LucidaGrandeUI,.Lucida Grande UI" font-size="40.0" fill="#4185F4" transform="matrix(1.00, 0.00, -0.00, -1.00, 1455.9, 351.9)">&lt;</text><text xml:space="preserve" font-family=".LucidaGrandeUI,.Lucida Grande UI" font-size="40.0" fill="#4185F4" transform="matrix(1.00, 0.00, -0.00, -1.00, 1487.7, 351.9)">/</text><text xml:space="preserve" font-family=".LucidaGrandeUI,.Lucida Grande UI" font-size="40.0" fill="#4185F4" transform="matrix(1.00, 0.00, -0.00, -1.00, 1508.7, 351.9)">a</text><text xml:space="preserve" font-family=".LucidaGrandeUI,.Lucida Grande UI" font-size="40.0" fill="#4185F4" transform="matrix(1.00, 0.00, -0.00, -1.00, 1530.8, 351.9)">p</text><text xml:space="preserve" font-family=".LucidaGrandeUI,.Lucida Grande UI" font-size="40.0" fill="#4185F4" transform="matrix(1.00, 0.00, -0.00, -1.00, 1556.0, 351.9)">p</text><text xml:space="preserve" font-family=".LucidaGrandeUI,.Lucida Grande UI" font-size="40.0" fill="#4185F4" transform="matrix(1.00, 0.00, -0.00, -1.00, 1581.2, 351.9)">-</text><text xml:space="preserve" font-family=".LucidaGrandeUI,.Lucida Grande UI" font-size="40.0" fill="#4185F4" transform="matrix(1.00, 0.00, -0.00, -1.00, 189.7, 295.5)">r</text><text xml:space="preserve" font-family=".LucidaGrandeUI,.Lucida Grande UI" font-size="40.0" fill="#4185F4" transform="matrix(1.00, 0.00, -0.00, -1.00, 206.1, 295.5)">o</text><text xml:space="preserve" font-family=".LucidaGrandeUI,.Lucida Grande UI" font-size="40.0" fill="#4185F4" transform="matrix(1.00, 0.00, -0.00, -1.00, 230.7, 295.5)">u</text><text xml:space="preserve" font-family=".LucidaGrandeUI,.Lucida Grande UI" font-size="40.0" fill="#4185F4" transform="matrix(1.00, 0.00, -0.00, -1.00, 255.5, 295.5)">t</text><text xml:space="preserve" font-family=".LucidaGrandeUI,.Lucida Grande UI" font-size="40.0" fill="#4185F4" transform="matrix(1.00, 0.00, -0.00, -1.00, 270.4, 295.5)">e</text><text xml:space="preserve" font-family=".LucidaGrandeUI,.Lucida Grande UI" font-size="40.0" fill="#4185F4" transform="matrix(1.00, 0.00, -0.00, -1.00, 292.7, 295.5)">&gt;</text><text xml:space="preserve" font-family=".LucidaGrandeUI,.Lucida Grande UI" font-size="40.0" fill="#000000" transform="matrix(1.00, 0.00, -0.00, -1.00, 324.5, 295.5)"></text><text xml:space="preserve" font-family=".LucidaGrandeUI,.Lucida Grande UI" font-size="40.0" fill="#000000" transform="matrix(1.00, 0.00, -0.00, -1.00, 189.7, 182.7)"> </text><text xml:space="preserve" font-family=".LucidaGrandeUI,.Lucida Grande UI" font-size="40.0" fill="#000000" transform="matrix(1.00, 0.00, -0.00, -1.00, 202.4, 182.7)"> </text><text xml:space="preserve" font-family=".LucidaGrandeUI,.Lucida Grande UI" font-size="40.0" fill="#989898" transform="matrix(1.00, 0.00, -0.00, -1.00, 215.0, 182.7)">&lt;</text><text xml:space="preserve" font-family=".LucidaGrandeUI,.Lucida Grande UI" font-size="40.0" fill="#989898" transform="matrix(1.00, 0.00, -0.00, -1.00, 246.8, 182.7)">!</text><text xml:space="preserve" font-family=".LucidaGrandeUI,.Lucida Grande UI" font-size="40.0" fill="#989898" transform="matrix(1.00, 0.00, -0.00, -1.00, 260.0, 182.7)">-</text><text xml:space="preserve" font-family=".LucidaGrandeUI,.Lucida Grande UI" font-size="40.0" fill="#989898" transform="matrix(1.00, 0.00, -0.00, -1.00, 283.1, 182.7)">-</text><text xml:space="preserve" font-family=".LucidaGrandeUI,.Lucida Grande UI" font-size="40.0" fill="#989898" transform="matrix(1.00, 0.00, -0.00, -1.00, 306.2, 182.7)"> </text><text xml:space="preserve" font-family=".LucidaGrandeUI,.Lucida Grande UI" font-size="40.0" fill="#989898" transform="matrix(1.00, 0.00, -0.00, -1.00, 318.9, 182.7)">m</text><text xml:space="preserve" font-family=".LucidaGrandeUI,.Lucida Grande UI" font-size="40.0" fill="#989898" transform="matrix(1.00, 0.00, -0.00, -1.00, 356.2, 182.7)">a</text><text xml:space="preserve" font-family=".LucidaGrandeUI,.Lucida Grande UI" font-size="40.0" fill="#989898" transform="matrix(1.00, 0.00, -0.00, -1.00, 378.3, 182.7)">t</text><text xml:space="preserve" font-family=".LucidaGrandeUI,.Lucida Grande UI" font-size="40.0" fill="#989898" transform="matrix(1.00, 0.00, -0.00, -1.00, 393.3, 182.7)">c</text><text xml:space="preserve" font-family=".LucidaGrandeUI,.Lucida Grande UI" font-size="40.0" fill="#989898" transform="matrix(1.00, 0.00, -0.00, -1.00, 413.8, 182.7)">h</text><text xml:space="preserve" font-family=".LucidaGrandeUI,.Lucida Grande UI" font-size="40.0" fill="#989898" transform="matrix(1.00, 0.00, -0.00, -1.00, 438.6, 182.7)">e</text><text xml:space="preserve" font-family=".LucidaGrandeUI,.Lucida Grande UI" font-size="40.0" fill="#989898" transform="matrix(1.00, 0.00, -0.00, -1.00, 460.9, 182.7)">s</text><text xml:space="preserve" font-family=".LucidaGrandeUI,.Lucida Grande UI" font-size="40.0" fill="#989898" transform="matrix(1.00, 0.00, -0.00, -1.00, 479.4, 182.7)"> </text><text xml:space="preserve" font-family=".LucidaGrandeUI,.Lucida Grande UI" font-size="40.0" fill="#989898" transform="matrix(1.00, 0.00, -0.00, -1.00, 492.0, 182.7)">u</text><text xml:space="preserve" font-family=".LucidaGrandeUI,.Lucida Grande UI" font-size="40.0" fill="#989898" transform="matrix(1.00, 0.00, -0.00, -1.00, 516.9, 182.7)">s</text><text xml:space="preserve" font-family=".LucidaGrandeUI,.Lucida Grande UI" font-size="40.0" fill="#989898" transform="matrix(1.00, 0.00, -0.00, -1.00, 535.4, 182.7)">i</text><text xml:space="preserve" font-family=".LucidaGrandeUI,.Lucida Grande UI" font-size="40.0" fill="#989898" transform="matrix(1.00, 0.00, -0.00, -1.00, 546.9, 182.7)">n</text><text xml:space="preserve" font-family=".LucidaGrandeUI,.Lucida Grande UI" font-size="40.0" fill="#989898" transform="matrix(1.00, 0.00, -0.00, -1.00, 571.7, 182.7)">g</text><text xml:space="preserve" font-family=".LucidaGrandeUI,.Lucida Grande UI" font-size="40.0" fill="#989898" transform="matrix(1.00, 0.00, -0.00, -1.00, 596.7, 182.7)"> </text><text xml:space="preserve" font-family=".LucidaGrandeUI,.Lucida Grande UI" font-size="40.0" fill="#989898" transform="matrix(1.00, 0.00, -0.00, -1.00, 609.3, 182.7)">a</text><text xml:space="preserve" font-family=".LucidaGrandeUI,.Lucida Grande UI" font-size="40.0" fill="#989898" transform="matrix(1.00, 0.00, -0.00, -1.00, 631.4, 182.7)"> </text><text xml:space="preserve" font-family=".LucidaGrandeUI,.Lucida Grande UI" font-size="40.0" fill="#989898" transform="matrix(1.00, 0.00, -0.00, -1.00, 644.1, 182.7)">p</text><text xml:space="preserve" font-family=".LucidaGrandeUI,.Lucida Grande UI" font-size="40.0" fill="#989898" transform="matrix(1.00, 0.00, -0.00, -1.00, 669.3, 182.7)">a</text><text xml:space="preserve" font-family=".LucidaGrandeUI,.Lucida Grande UI" font-size="40.0" fill="#989898" transform="matrix(1.00, 0.00, -0.00, -1.00, 691.4, 182.7)">t</text><text xml:space="preserve" font-family=".LucidaGrandeUI,.Lucida Grande UI" font-size="40.0" fill="#989898" transform="matrix(1.00, 0.00, -0.00, -1.00, 706.4, 182.7)">h</text><text xml:space="preserve" font-family=".LucidaGrandeUI,.Lucida Grande UI" font-size="40.0" fill="#989898" transform="matrix(1.00, 0.00, -0.00, -1.00, 731.2, 182.7)"> </text><text xml:space="preserve" font-family=".LucidaGrandeUI,.Lucida Grande UI" font-size="40.0" fill="#989898" transform="matrix(1.00, 0.00, -0.00, -1.00, 743.8, 182.7)">v</text><text xml:space="preserve" font-family=".LucidaGrandeUI,.Lucida Grande UI" font-size="40.0" fill="#989898" transform="matrix(1.00, 0.00, -0.00, -1.00, 764.4, 182.7)">a</text><text xml:space="preserve" font-family=".LucidaGrandeUI,.Lucida Grande UI" font-size="40.0" fill="#989898" transform="matrix(1.00, 0.00, -0.00, -1.00, 786.5, 182.7)">r</text><text xml:space="preserve" font-family=".LucidaGrandeUI,.Lucida Grande UI" font-size="40.0" fill="#989898" transform="matrix(1.00, 0.00, -0.00, -1.00, 802.9, 182.7)">i</text><text xml:space="preserve" font-family=".LucidaGrandeUI,.Lucida Grande UI" font-size="40.0" fill="#989898" transform="matrix(1.00, 0.00, -0.00, -1.00, 814.4, 182.7)">a</text><text xml:space="preserve" font-family=".LucidaGrandeUI,.Lucida Grande UI" font-size="40.0" fill="#989898" transform="matrix(1.00, 0.00, -0.00, -1.00, 836.5, 182.7)">b</text><text xml:space="preserve" font-family=".LucidaGrandeUI,.Lucida Grande UI" font-size="40.0" fill="#989898" transform="matrix(1.00, 0.00, -0.00, -1.00, 861.7, 182.7)">l</text><text xml:space="preserve" font-family=".LucidaGrandeUI,.Lucida Grande UI" font-size="40.0" fill="#989898" transform="matrix(1.00, 0.00, -0.00, -1.00, 873.3, 182.7)">e</text><text xml:space="preserve" font-family=".LucidaGrandeUI,.Lucida Grande UI" font-size="40.0" fill="#989898" transform="matrix(1.00, 0.00, -0.00, -1.00, 895.6, 182.7)"> </text><text xml:space="preserve" font-family=".LucidaGrandeUI,.Lucida Grande UI" font-size="40.0" fill="#989898" transform="matrix(1.00, 0.00, -0.00, -1.00, 908.3, 182.7)">-</text><text xml:space="preserve" font-family=".LucidaGrandeUI,.Lucida Grande UI" font-size="40.0" fill="#989898" transform="matrix(1.00, 0.00, -0.00, -1.00, 931.4, 182.7)">-</text><text xml:space="preserve" font-family=".LucidaGrandeUI,.Lucida Grande UI" font-size="40.0" fill="#989898" transform="matrix(1.00, 0.00, -0.00, -1.00, 954.5, 182.7)">&gt;</text><text xml:space="preserve" font-family=".LucidaGrandeUI,.Lucida Grande UI" font-size="40.0" fill="#000000" transform="matrix(1.00, 0.00, -0.00, -1.00, 986.3, 182.7)"></text></g></g></g></svg>