<?xml version="1.0" encoding="UTF-8" standalone="no"?><svg xmlns="http://www.w3.org/2000/svg" xmlns:xlink="http://www.w3.org/1999/xlink" clip-rule="evenodd" stroke-miterlimit="10" viewBox="0 0 1920 1080"><desc>SVG generated by Keynote</desc><defs></defs><g transform="matrix(1.00, 0.00, -0.00, -1.00, 0.0, 1080.0)"><path d="M 0.0 1080.0 L 1920.0 1080.0 L 1920.0 0.0 L 0.0 0.0 Z M 0.0 1080.0 " fill="#FFFFFF"></path><image xlink:href="../../85E23BC5-FBC2-403D-A7A0-E477252C062B/assets/02D670F3D57A2E96B1C0E8A43F8046D0.png" width="696.00" height="602.00" transform="matrix(0.79, 0.00, -0.00, -0.79, 1290.2, 1035.2)"></image><image xlink:href="../../85E23BC5-FBC2-403D-A7A0-E477252C062B/assets/E8C089E4ABA334D2B5E061D3EE0C984A.png" width="446.00" height="136.00" transform="matrix(1.48, 0.00, -0.00, -1.48, 70.0, 943.3)"></image><image xlink:href="../../85E23BC5-FBC2-403D-A7A0-E477252C062B/assets/026F5EDAE62B6C8D72C99993242CA9F2.png" width="588.00" height="548.00" transform="matrix(0.59, 0.00, -0.00, -0.59, 123.2, 581.1)"></image><image xlink:href="../../85E23BC5-FBC2-403D-A7A0-E477252C062B/assets/A7A5E179683252878EF53F7CD568D171.png" width="726.00" height="622.00" transform="matrix(0.67, 0.00, -0.00, -0.67, 1320.4, 522.3)"></image><image xlink:href="../../CE88E550-6579-4E18-826D-DFF90AD633AC/assets/E4E7FD7D0A79E1AB1A86972AF3506094.png" width="1435.00" height="2539.00" transform="matrix(0.43, 0.00, -0.00, -0.43, 654.8, 1090.0)"></image><image xlink:href="../../85E23BC5-FBC2-403D-A7A0-E477252C062B/assets/BDAC3CA4CDD40979A48EF7815EF9DB40.png" width="360.00" height="640.00" transform="matrix(1.28, 0.00, -0.00, -1.28, 733.0, 965.0)"></image></g></svg>