<?xml version="1.0" encoding="UTF-8" standalone="no"?><svg xmlns="http://www.w3.org/2000/svg" xmlns:xlink="http://www.w3.org/1999/xlink" clip-rule="evenodd" stroke-miterlimit="10" viewBox="0 0 832 174"><desc>SVG generated by Keynote</desc><defs></defs><g transform="matrix(1.00, 0.00, -0.00, -1.00, 0.0, 174.0)"><text xml:space="preserve" font-family="ArialMT,Arial" font-size="0.8" fill="#FFFFFF" transform="matrix(1.00, 0.00, -0.00, -1.00, 0.1, 143.5)">·</text><text xml:space="preserve" font-family="Roboto-Medium,Roboto" font-size="75.0" fill="#FFFFFF" transform="matrix(1.00, 0.00, -0.00, -1.00, 40.1, 114.7)">e</text><text xml:space="preserve" font-family="Roboto-Medium,Roboto" font-size="75.0" fill="#FFFFFF" transform="matrix(1.00, 0.00, -0.00, -1.00, 79.8, 114.7)">l</text><text xml:space="preserve" font-family="Roboto-Medium,Roboto" font-size="75.0" fill="#FFFFFF" transform="matrix(1.00, 0.00, -0.00, -1.00, 99.3, 114.7)">e</text><text xml:space="preserve" font-family="Roboto-Medium,Roboto" font-size="75.0" fill="#FFFFFF" transform="matrix(1.00, 0.00, -0.00, -1.00, 139.0, 114.7)">m</text><text xml:space="preserve" font-family="Roboto-Medium,Roboto" font-size="75.0" fill="#FFFFFF" transform="matrix(1.00, 0.00, -0.00, -1.00, 204.2, 114.7)">e</text><text xml:space="preserve" font-family="Roboto-Medium,Roboto" font-size="75.0" fill="#FFFFFF" transform="matrix(1.00, 0.00, -0.00, -1.00, 243.9, 114.7)">n</text><text xml:space="preserve" font-family="Roboto-Medium,Roboto" font-size="75.0" fill="#FFFFFF" transform="matrix(1.00, 0.00, -0.00, -1.00, 286.4, 114.7)">t</text><text xml:space="preserve" font-family="Roboto-Medium,Roboto" font-size="75.0" fill="#FFFFFF" transform="matrix(1.00, 0.00, -0.00, -1.00, 312.4, 114.7)">s</text><text xml:space="preserve" font-family="Roboto-Bold,Roboto" font-weight="bold" font-size="75.0" fill="#FFFFFF" transform="matrix(1.00, 0.00, -0.00, -1.00, 351.4, 114.7)"> </text><text xml:space="preserve" font-family="ArialMT,Arial" font-size="0.5" fill="#FFFFFF" transform="matrix(1.00, 0.00, -0.00, -1.00, 0.1, 31.2)">·</text><text xml:space="preserve" font-family="Roboto-Regular,Roboto" font-size="50.0" fill="#FFFFFF" transform="matrix(1.00, 0.00, -0.00, -1.00, 40.1, 12.1)">c</text><text xml:space="preserve" font-family="Roboto-Regular,Roboto" font-size="50.0" fill="#FFFFFF" transform="matrix(1.00, 0.00, -0.00, -1.00, 66.7, 12.1)">o</text><text xml:space="preserve" font-family="Roboto-Regular,Roboto" font-size="50.0" fill="#FFFFFF" transform="matrix(1.00, 0.00, -0.00, -1.00, 95.1, 12.1)">r</text><text xml:space="preserve" font-family="Roboto-Regular,Roboto" font-size="50.0" fill="#FFFFFF" transform="matrix(1.00, 0.00, -0.00, -1.00, 111.8, 12.1)">e</text><text xml:space="preserve" font-family="Roboto-Regular,Roboto" font-size="50.0" fill="#FFFFFF" transform="matrix(1.00, 0.00, -0.00, -1.00, 138.2, 12.1)"> </text><text xml:space="preserve" font-family="Roboto-Regular,Roboto" font-size="50.0" fill="#FFFFFF" transform="matrix(1.00, 0.00, -0.00, -1.00, 150.6, 12.1)">e</text><text xml:space="preserve" font-family="Roboto-Regular,Roboto" font-size="50.0" fill="#FFFFFF" transform="matrix(1.00, 0.00, -0.00, -1.00, 177.0, 12.1)">l</text><text xml:space="preserve" font-family="Roboto-Regular,Roboto" font-size="50.0" fill="#FFFFFF" transform="matrix(1.00, 0.00, -0.00, -1.00, 189.6, 12.1)">e</text><text xml:space="preserve" font-family="Roboto-Regular,Roboto" font-size="50.0" fill="#FFFFFF" transform="matrix(1.00, 0.00, -0.00, -1.00, 216.0, 12.1)">m</text><text xml:space="preserve" font-family="Roboto-Regular,Roboto" font-size="50.0" fill="#FFFFFF" transform="matrix(1.00, 0.00, -0.00, -1.00, 259.7, 12.1)">e</text><text xml:space="preserve" font-family="Roboto-Regular,Roboto" font-size="50.0" fill="#FFFFFF" transform="matrix(1.00, 0.00, -0.00, -1.00, 286.2, 12.1)">n</text><text xml:space="preserve" font-family="Roboto-Regular,Roboto" font-size="50.0" fill="#FFFFFF" transform="matrix(1.00, 0.00, -0.00, -1.00, 314.6, 12.1)">t</text><text xml:space="preserve" font-family="Roboto-Regular,Roboto" font-size="50.0" fill="#FFFFFF" transform="matrix(1.00, 0.00, -0.00, -1.00, 331.9, 12.1)">s</text><text xml:space="preserve" font-family="Roboto-Regular,Roboto" font-size="50.0" fill="#FFFFFF" transform="matrix(1.00, 0.00, -0.00, -1.00, 358.0, 12.1)">,</text><text xml:space="preserve" font-family="Roboto-Regular,Roboto" font-size="50.0" fill="#FFFFFF" transform="matrix(1.00, 0.00, -0.00, -1.00, 367.9, 12.1)"> </text><text xml:space="preserve" font-family="Roboto-Regular,Roboto" font-size="50.0" fill="#FFFFFF" transform="matrix(1.00, 0.00, -0.00, -1.00, 380.3, 12.1)">p</text><text xml:space="preserve" font-family="Roboto-Regular,Roboto" font-size="50.0" fill="#FFFFFF" transform="matrix(1.00, 0.00, -0.00, -1.00, 408.7, 12.1)">a</text><text xml:space="preserve" font-family="Roboto-Regular,Roboto" font-size="50.0" fill="#FFFFFF" transform="matrix(1.00, 0.00, -0.00, -1.00, 436.2, 12.1)">p</text><text xml:space="preserve" font-family="Roboto-Regular,Roboto" font-size="50.0" fill="#FFFFFF" transform="matrix(1.00, 0.00, -0.00, -1.00, 464.7, 12.1)">e</text><text xml:space="preserve" font-family="Roboto-Regular,Roboto" font-size="50.0" fill="#FFFFFF" transform="matrix(1.00, 0.00, -0.00, -1.00, 491.1, 12.1)">r</text><text xml:space="preserve" font-family="Roboto-Regular,Roboto" font-size="50.0" fill="#FFFFFF" transform="matrix(1.00, 0.00, -0.00, -1.00, 508.2, 12.1)"> </text><text xml:space="preserve" font-family="Roboto-Regular,Roboto" font-size="50.0" fill="#FFFFFF" transform="matrix(1.00, 0.00, -0.00, -1.00, 520.6, 12.1)">e</text><text xml:space="preserve" font-family="Roboto-Regular,Roboto" font-size="50.0" fill="#FFFFFF" transform="matrix(1.00, 0.00, -0.00, -1.00, 547.1, 12.1)">l</text><text xml:space="preserve" font-family="Roboto-Regular,Roboto" font-size="50.0" fill="#FFFFFF" transform="matrix(1.00, 0.00, -0.00, -1.00, 559.7, 12.1)">e</text><text xml:space="preserve" font-family="Roboto-Regular,Roboto" font-size="50.0" fill="#FFFFFF" transform="matrix(1.00, 0.00, -0.00, -1.00, 586.1, 12.1)">m</text><text xml:space="preserve" font-family="Roboto-Regular,Roboto" font-size="50.0" fill="#FFFFFF" transform="matrix(1.00, 0.00, -0.00, -1.00, 629.8, 12.1)">e</text><text xml:space="preserve" font-family="Roboto-Regular,Roboto" font-size="50.0" fill="#FFFFFF" transform="matrix(1.00, 0.00, -0.00, -1.00, 656.2, 12.1)">n</text><text xml:space="preserve" font-family="Roboto-Regular,Roboto" font-size="50.0" fill="#FFFFFF" transform="matrix(1.00, 0.00, -0.00, -1.00, 684.7, 12.1)">t</text><text xml:space="preserve" font-family="Roboto-Regular,Roboto" font-size="50.0" fill="#FFFFFF" transform="matrix(1.00, 0.00, -0.00, -1.00, 701.9, 12.1)">s</text><text xml:space="preserve" font-family="Roboto-Regular,Roboto" font-size="50.0" fill="#FFFFFF" transform="matrix(1.00, 0.00, -0.00, -1.00, 728.1, 12.1)">,</text><text xml:space="preserve" font-family="Roboto-Regular,Roboto" font-size="50.0" fill="#FFFFFF" transform="matrix(1.00, 0.00, -0.00, -1.00, 737.9, 12.1)"> </text><text xml:space="preserve" font-family="Roboto-Regular,Roboto" font-size="50.0" fill="#FFFFFF" transform="matrix(1.00, 0.00, -0.00, -1.00, 750.3, 12.1)">e</text><text xml:space="preserve" font-family="Roboto-Regular,Roboto" font-size="50.0" fill="#FFFFFF" transform="matrix(1.00, 0.00, -0.00, -1.00, 776.8, 12.1)">t</text><text xml:space="preserve" font-family="Roboto-Regular,Roboto" font-size="50.0" fill="#FFFFFF" transform="matrix(1.00, 0.00, -0.00, -1.00, 794.0, 12.1)">c</text><text xml:space="preserve" font-family="Roboto-Regular,Roboto" font-size="50.0" fill="#FFFFFF" transform="matrix(1.00, 0.00, -0.00, -1.00, 820.6, 12.1)">.</text></g></svg>