<?xml version="1.0" encoding="utf-8"?>
<!-- Generator: Adobe Illustrator 16.0.0, SVG Export Plug-In . SVG Version: 6.00 Build 0)  -->
<!DOCTYPE svg PUBLIC "-//W3C//DTD SVG 1.1//EN" "http://www.w3.org/Graphics/SVG/1.1/DTD/svg11.dtd">
<svg version="1.1" id="Layer_1" xmlns="http://www.w3.org/2000/svg" xmlns:xlink="http://www.w3.org/1999/xlink" x="0px" y="0px"
	 width="236px" height="40px" viewBox="0 0 236 40" enable-background="new 0 0 236 40" xml:space="preserve">
<symbol  id="polymer-logo--lockup" viewBox="-84 -20 168 40">
	<g>
		<g>
			<path fill="#666666" d="M-14.167,0.828c0-2.573-0.573-4.64-1.72-6.202c-1.146-1.562-2.747-2.342-4.802-2.342
				c-1.058,0-1.981,0.161-2.771,0.48c-0.79,0.321-1.474,0.812-2.054,1.463v-8.106h-2.879V9.435h2.489l0.233-1.93
				c0.581,0.736,1.276,1.294,2.086,1.673c0.81,0.378,1.759,0.568,2.848,0.568c2.106,0,3.728-0.77,4.864-2.303
				c1.136-1.536,1.704-3.634,1.704-6.288V0.828H-14.167z M-17.047,1.155c0,1.806-0.379,3.279-1.136,4.428
				c-0.758,1.146-1.894,1.72-3.408,1.72c-0.943,0-1.735-0.205-2.373-0.613c-0.639-0.41-1.155-0.979-1.549-1.705v-8.048
				c0.404-0.735,0.923-1.305,1.557-1.703c0.633-0.399,1.432-0.601,2.396-0.601c1.494,0,2.619,0.576,3.377,1.729
				c0.757,1.15,1.136,2.641,1.136,4.467V1.155z"/>
			<path fill="#666666" d="M-11.671,1.171c0,2.521,0.688,4.581,2.062,6.179c1.375,1.599,3.234,2.396,5.58,2.396
				c2.365,0,4.238-0.796,5.619-2.389C2.969,5.765,3.659,3.702,3.659,1.17V0.827c0-2.532-0.688-4.588-2.062-6.17
				C0.222-6.926-1.642-7.717-3.998-7.717s-4.224,0.791-5.604,2.374c-1.38,1.582-2.07,3.639-2.07,6.17L-11.671,1.171L-11.671,1.171z
				 M-8.775,0.828c0-1.805,0.407-3.289,1.222-4.451c0.815-1.162,2-1.743,3.557-1.743c1.536,0,2.715,0.581,3.54,1.743
				c0.825,1.162,1.238,2.646,1.238,4.451v0.343c0,1.785-0.416,3.266-1.246,4.443c-0.83,1.177-2.018,1.767-3.563,1.767
				c-1.536,0-2.711-0.589-3.525-1.767c-0.814-1.18-1.222-2.659-1.222-4.443L-8.775,0.828L-8.775,0.828z"/>
			<path fill="#666666" d="M9.539-7.405h-2.88v24.28h2.88V-7.405z"/>
			<path fill="#666666" d="M18.787-1.755l0.28-1.074l3.968,12.264h3.223l-6.771-19.438c-0.426-1.144-1.022-2.127-1.789-2.958
				c-0.769-0.83-1.838-1.245-3.207-1.245c-0.198,0-0.421,0.023-0.669,0.07c-0.25,0.046-0.565,0.104-0.95,0.179l0.016,2.335
				c0.072-0.01,0.197-0.022,0.374-0.039c0.176-0.016,0.306-0.021,0.389-0.021c0.976,0,1.699,0.204,2.171,0.613
				c0.473,0.41,0.896,1.149,1.269,2.22l0.685,2.038L11.909,9.436h3.206L18.787-1.755z"/>
			<path fill="#666666" d="M31.106,9.435l0.172-1.93c0.591,0.728,1.302,1.282,2.132,1.666c0.829,0.384,1.801,0.576,2.91,0.576
				c1.121,0,2.089-0.241,2.903-0.724c0.814-0.483,1.45-1.224,1.906-2.22c0.592,0.924,1.333,1.646,2.226,2.164
				c0.893,0.521,1.94,0.778,3.145,0.778c1.753,0,3.131-0.578,4.132-1.735c1.002-1.155,1.502-2.929,1.502-5.314V-7.405h-2.879V2.727
				c0,1.683-0.307,2.864-0.919,3.551c-0.612,0.685-1.505,1.025-2.677,1.025c-1.142,0-2.046-0.376-2.717-1.128
				c-0.669-0.752-1.06-1.699-1.175-2.84V-7.404h-2.896V2.759c0,1.6-0.308,2.755-0.925,3.473c-0.618,0.716-1.508,1.072-2.669,1.072
				c-1.008,0-1.821-0.21-2.444-0.63s-1.1-1.015-1.432-1.782V-7.403h-2.88v16.84h2.585V9.435z"/>
			<path fill="#666666" d="M62.476-7.716c-2.365,0-4.243,0.747-5.634,2.241c-1.391,1.492-2.085,3.46-2.085,5.897v0.654
				c0,2.667,0.716,4.778,2.147,6.334c1.431,1.556,3.17,2.334,5.214,2.334c2.345,0,4.085-0.747,5.222-2.241
				c1.136-1.494,1.704-3.502,1.704-6.021V0.19H57.636c0.031-1.631,0.492-2.964,1.386-4c0.893-1.038,2.096-1.558,3.611-1.558
				c0.975,0,1.814,0.191,2.521,0.576c0.706,0.384,1.344,0.95,1.915,1.696l1.758-1.37c-0.644-0.978-1.473-1.762-2.489-2.358
				C65.319-7.417,64.032-7.716,62.476-7.716z M62.118,7.381c-1.193,0-2.177-0.415-2.949-1.245c-0.772-0.831-1.253-2.022-1.439-3.58
				h8.436v0.22c-0.094,1.315-0.451,2.415-1.074,3.292C64.469,6.942,63.478,7.381,62.118,7.381z"/>
			<path fill="#666666" d="M80.25,6.852c-0.259,0.032-0.492,0.059-0.7,0.078c-0.208,0.021-0.446,0.031-0.716,0.031
				c-0.976,0-1.779-0.21-2.412-0.63c-0.634-0.42-1.11-1.015-1.433-1.782V-7.404H72.11v16.84h2.661l0.156-1.896
				c0.478,0.705,1.051,1.25,1.719,1.634c0.67,0.384,1.445,0.576,2.328,0.576c0.197,0,0.43-0.026,0.7-0.078s0.461-0.099,0.575-0.14
				L80.25,6.852L80.25,6.852z"/>
		</g>
	</g>
	<g>
		<g>
			<polygon fill="#303F9F" points="-71.908,0 -75.877,-6.875 -71.908,-13.75 -67.938,-6.875 			"/>
			<polygon fill="#3F51B5" points="-48.092,13.75 -52.062,6.875 -48.092,0 -44.123,6.875 			"/>
			<polygon fill="#7986CB" points="-44.123,6.875 -56.031,-13.75 -48.092,-13.75 -40.153,0 			"/>
			<polygon fill="#FF4081" points="-56.031,13.75 -71.908,-13.75 -63.969,-13.75 -48.092,13.75 			"/>
			<polygon fill="#536DFE" points="-71.908,13.75 -79.847,0 -75.877,-6.875 -63.969,13.75 			"/>
			<polygon fill="#FFFFFF" fill-opacity="0.2" points="-56.031,13.75 -52.062,6.875 -48.092,13.75 			"/>
			<polygon fill="#FFFFFF" fill-opacity="0.1" points="-60,6.875 -56.031,13.75 -52.062,6.875 			"/>
			<polygon fill="#FFFFFF" fill-opacity="0" points="-60,6.875 -56.031,0 -52.062,6.875 			"/>
			<polygon fill-opacity="0.1" points="-63.969,0 -60,6.875 -56.031,0 			"/>
			<polygon fill-opacity="0.2" points="-63.969,0 -60,-6.875 -56.031,0 			"/>
			<polygon fill-opacity="0.3" points="-67.938,-6.875 -63.969,0 -60,-6.875 			"/>
			<polygon fill-opacity="0.4" points="-67.938,-6.875 -63.969,-13.75 -60,-6.875 			"/>
			<polygon fill-opacity="0.5" points="-71.908,-13.75 -67.938,-6.875 -63.969,-13.75 			"/>
			<polygon fill="#FFFFFF" fill-opacity="0.2" points="-71.908,13.75 -67.938,6.875 -63.969,13.75 			"/>
			<polygon fill="#FFFFFF" fill-opacity="0.1" points="-75.877,6.875 -71.908,13.75 -67.938,6.875 			"/>
			<polygon fill="#FFFFFF" fill-opacity="0" points="-75.877,6.875 -71.908,0 -67.938,6.875 			"/>
			<polygon fill-opacity="0.1" points="-79.847,0 -75.877,6.875 -71.908,0 			"/>
			<polygon fill-opacity="0.2" points="-79.847,0 -75.877,-6.875 -71.908,0 			"/>
			<polygon fill="#FFFFFF" fill-opacity="0" points="-67.938,-6.875 -71.908,0 -75.877,-6.875 			"/>
			<polygon fill-opacity="0.2" points="-67.938,-6.875 -71.908,-13.75 -75.877,-6.875 			"/>
			<polygon fill-opacity="0.2" points="-44.123,6.875 -48.092,13.75 -52.062,6.875 			"/>
			<polygon fill="#FFFFFF" fill-opacity="0" points="-44.123,6.875 -48.092,0 -52.062,6.875 			"/>
			<g>
				<polygon fill="#FFFFFF" fill-opacity="0.2" points="-48.092,0 -44.123,6.875 -40.153,0 				"/>
				<polygon fill="#FFFFFF" fill-opacity="0.1" points="-48.092,0 -44.123,-6.875 -40.153,0 				"/>
				<polygon fill="#FFFFFF" fill-opacity="0" points="-52.062,-6.875 -48.092,0 -44.123,-6.875 				"/>
				<polygon fill-opacity="0.1" points="-52.062,-6.875 -48.092,-13.75 -44.123,-6.875 				"/>
				<polygon fill-opacity="0.2" points="-56.031,-13.75 -52.062,-6.875 -48.092,-13.75 				"/>
			</g>
		</g>
		<polygon fill="none" points="-40,-20 -80,-20 -80,20 -40,20 		"/>
	</g>
	<polygon fill="none" points="84,-20 -84,-20 -84,20 84,20 	"/>
</symbol>
<use xlink:href="#polymer-logo--lockup"  width="168" height="40" x="-84" y="-20" transform="matrix(1 0 0 -1 84 20)" overflow="visible"/>
<g enable-background="new    ">
	<path fill="#666666" d="M189.02,19.915c0,2.399-0.576,4.335-1.73,5.807c-1.153,1.471-2.74,2.207-4.76,2.207
		c-1.098,0-2.051-0.213-2.861-0.639c-0.811-0.425-1.481-1.054-2.015-1.884l-0.369,2.199h-2.477V3.611h3.03v9.32
		c0.523-0.738,1.172-1.302,1.945-1.691c0.774-0.39,1.68-0.584,2.715-0.584c2.051,0,3.65,0.82,4.799,2.461s1.723,3.799,1.723,6.475
		V19.915z M185.99,19.592c0-1.907-0.352-3.463-1.055-4.668c-0.701-1.205-1.771-1.807-3.206-1.807c-0.934,0-1.721,0.228-2.361,0.684
		c-0.641,0.457-1.151,1.069-1.53,1.838v7.214c0.39,0.82,0.9,1.462,1.53,1.923c0.631,0.461,1.428,0.692,2.392,0.692
		c1.426,0,2.486-0.508,3.184-1.522c0.697-1.016,1.047-2.358,1.047-4.03V19.592z"/>
	<path fill="#666666" d="M195.263,27.605h-3.03V3.611h3.03V27.605z"/>
	<path fill="#666666" d="M198.491,19.131c0-2.461,0.666-4.489,1.999-6.083c1.333-1.595,3.143-2.392,5.43-2.392
		c2.307,0,4.13,0.794,5.468,2.384c1.339,1.589,2.007,3.619,2.007,6.091v0.338c0,2.481-0.666,4.512-1.999,6.091
		s-3.147,2.369-5.444,2.369s-4.115-0.792-5.453-2.377c-1.338-1.584-2.007-3.611-2.007-6.083V19.131z M201.521,19.461
		c0,1.762,0.371,3.216,1.115,4.363c0.742,1.146,1.848,1.721,3.314,1.721c1.445,0,2.543-0.574,3.291-1.721
		c0.748-1.147,1.123-2.602,1.123-4.363v-0.338c0-1.741-0.377-3.19-1.131-4.348s-1.858-1.735-3.314-1.735
		c-1.445,0-2.541,0.578-3.283,1.735c-0.744,1.157-1.115,2.606-1.115,4.348V19.461z"/>
	<path fill="#666666" d="M215.717,19.592c0-2.676,0.584-4.834,1.753-6.475s2.784-2.461,4.845-2.461c1.057,0,1.984,0.213,2.784,0.638
		c0.8,0.426,1.466,1.038,1.999,1.838l0.369-2.169h2.416v16.734c0,2.133-0.621,3.771-1.861,4.915
		c-1.241,1.143-3.031,1.715-5.369,1.715c-0.799,0-1.663-0.11-2.591-0.331c-0.929-0.221-1.745-0.521-2.454-0.899l0.77-2.354
		c0.543,0.308,1.199,0.556,1.969,0.746c0.77,0.189,1.527,0.284,2.277,0.284c1.477,0,2.55-0.336,3.222-1.007
		c0.671-0.672,1.007-1.695,1.007-3.069v-1.876c-0.543,0.697-1.194,1.223-1.953,1.576c-0.759,0.354-1.631,0.531-2.615,0.531
		c-2.04,0-3.645-0.738-4.813-2.215s-1.753-3.409-1.753-5.799V19.592z M218.746,19.915c0,1.672,0.354,3.015,1.062,4.03
		c0.708,1.015,1.784,1.522,3.229,1.522c0.913,0,1.678-0.208,2.293-0.623s1.122-1.002,1.521-1.761v-7.66
		c-0.389-0.707-0.896-1.269-1.521-1.685c-0.627-0.415-1.38-0.622-2.262-0.622c-1.445,0-2.527,0.604-3.246,1.814
		c-0.717,1.21-1.076,2.764-1.076,4.66V19.915z"/>
</g>
<g>
</g>
<g>
</g>
<g>
</g>
</svg>
