<?xml version="1.0" encoding="UTF-8" standalone="no"?><svg xmlns="http://www.w3.org/2000/svg" xmlns:xlink="http://www.w3.org/1999/xlink" clip-rule="evenodd" stroke-miterlimit="10" viewBox="0 0 1920 1080"><desc>SVG generated by Keynote</desc><defs></defs><g transform="matrix(1.00, 0.00, -0.00, -1.00, 0.0, 1080.0)"><path d="M 0.0 1080.0 L 1920.0 1080.0 L 1920.0 0.0 L 0.0 0.0 Z M 0.0 1080.0 " fill="#3848AA"></path><text xml:space="preserve" font-family="Roboto-Light,Roboto" font-size="180.0" fill="#FFFFFF" transform="matrix(1.00, 0.00, -0.00, -1.00, 473.2, 798.7)">&lt;</text><text xml:space="preserve" font-family="Roboto-Light,Roboto" font-size="180.0" fill="#FFFFFF" transform="matrix(1.00, 0.00, -0.00, -1.00, 565.2, 798.7)">t</text><text xml:space="preserve" font-family="Roboto-Light,Roboto" font-size="180.0" fill="#FFFFFF" transform="matrix(1.00, 0.00, -0.00, -1.00, 625.0, 798.7)">h</text><text xml:space="preserve" font-family="Roboto-Light,Roboto" font-size="180.0" fill="#FFFFFF" transform="matrix(1.00, 0.00, -0.00, -1.00, 725.1, 798.7)">a</text><text xml:space="preserve" font-family="Roboto-Light,Roboto" font-size="180.0" fill="#FFFFFF" transform="matrix(1.00, 0.00, -0.00, -1.00, 821.8, 798.7)">n</text><text xml:space="preserve" font-family="Roboto-Light,Roboto" font-size="180.0" fill="#FFFFFF" transform="matrix(1.00, 0.00, -0.00, -1.00, 921.9, 798.7)">k</text><text xml:space="preserve" font-family="Roboto-Light,Roboto" font-size="180.0" fill="#FFFFFF" transform="matrix(1.00, 0.00, -0.00, -1.00, 1010.4, 798.7)">-</text><text xml:space="preserve" font-family="Roboto-Light,Roboto" font-size="180.0" fill="#FFFFFF" transform="matrix(1.00, 0.00, -0.00, -1.00, 1061.9, 798.7)">y</text><text xml:space="preserve" font-family="Roboto-Light,Roboto" font-size="180.0" fill="#FFFFFF" transform="matrix(1.00, 0.00, -0.00, -1.00, 1148.7, 798.7)">o</text><text xml:space="preserve" font-family="Roboto-Light,Roboto" font-size="180.0" fill="#FFFFFF" transform="matrix(1.00, 0.00, -0.00, -1.00, 1248.8, 798.7)">u</text><text xml:space="preserve" font-family="Roboto-Light,Roboto" font-size="180.0" fill="#FFFFFF" transform="matrix(1.00, 0.00, -0.00, -1.00, 1348.9, 798.7)">&gt;</text><text xml:space="preserve" font-family="RobotoCondensed-Regular,Roboto Condensed" font-size="50.0" fill="#FFFFFF" transform="matrix(1.00, 0.00, -0.00, -1.00, 948.2, 445.5)">&lt;</text><text xml:space="preserve" font-family="RobotoCondensed-Regular,Roboto Condensed" font-size="50.0" fill="#FFFFFF" transform="matrix(1.00, 0.00, -0.00, -1.00, 970.1, 445.5)">c</text><text xml:space="preserve" font-family="RobotoCondensed-Regular,Roboto Condensed" font-size="50.0" fill="#FFFFFF" transform="matrix(1.00, 0.00, -0.00, -1.00, 992.6, 445.5)">o</text><text xml:space="preserve" font-family="RobotoCondensed-Regular,Roboto Condensed" font-size="50.0" fill="#FFFFFF" transform="matrix(1.00, 0.00, -0.00, -1.00, 1016.9, 445.5)">n</text><text xml:space="preserve" font-family="RobotoCondensed-Regular,Roboto Condensed" font-size="50.0" fill="#FFFFFF" transform="matrix(1.00, 0.00, -0.00, -1.00, 1041.1, 445.5)">t</text><text xml:space="preserve" font-family="RobotoCondensed-Regular,Roboto Condensed" font-size="50.0" fill="#FFFFFF" transform="matrix(1.00, 0.00, -0.00, -1.00, 1056.5, 445.5)">a</text><text xml:space="preserve" font-family="RobotoCondensed-Regular,Roboto Condensed" font-size="50.0" fill="#FFFFFF" transform="matrix(1.00, 0.00, -0.00, -1.00, 1079.8, 445.5)">c</text><text xml:space="preserve" font-family="RobotoCondensed-Regular,Roboto Condensed" font-size="50.0" fill="#FFFFFF" transform="matrix(1.00, 0.00, -0.00, -1.00, 1102.3, 445.5)">t</text><text xml:space="preserve" font-family="RobotoCondensed-Regular,Roboto Condensed" font-size="50.0" fill="#FFFFFF" transform="matrix(1.00, 0.00, -0.00, -1.00, 1117.6, 445.5)">-</text><text xml:space="preserve" font-family="RobotoCondensed-Regular,Roboto Condensed" font-size="50.0" fill="#FFFFFF" transform="matrix(1.00, 0.00, -0.00, -1.00, 1132.2, 445.5)">c</text><text xml:space="preserve" font-family="RobotoCondensed-Regular,Roboto Condensed" font-size="50.0" fill="#FFFFFF" transform="matrix(1.00, 0.00, -0.00, -1.00, 1154.6, 445.5)">a</text><text xml:space="preserve" font-family="RobotoCondensed-Regular,Roboto Condensed" font-size="50.0" fill="#FFFFFF" transform="matrix(1.00, 0.00, -0.00, -1.00, 1178.0, 445.5)">r</text><text xml:space="preserve" font-family="RobotoCondensed-Regular,Roboto Condensed" font-size="50.0" fill="#FFFFFF" transform="matrix(1.00, 0.00, -0.00, -1.00, 1193.0, 445.5)">d</text><text xml:space="preserve" font-family="RobotoCondensed-Regular,Roboto Condensed" font-size="50.0" fill="#FFFFFF" transform="matrix(1.00, 0.00, -0.00, -1.00, 1217.2, 445.5)">&gt;</text><text xml:space="preserve" font-family="RobotoCondensed-Regular,Roboto Condensed" font-size="50.0" fill="#FFFFFF" transform="matrix(1.00, 0.00, -0.00, -1.00, 1239.6, 445.5)"> </text><text xml:space="preserve" font-family="RobotoCondensed-Regular,Roboto Condensed" font-size="50.0" fill="#FFFFFF" transform="matrix(1.00, 0.00, -0.00, -1.00, 948.2, 375.1)">	</text><text xml:space="preserve" font-family="RobotoCondensed-Regular,Roboto Condensed" font-size="50.0" fill="#FFFFFF" transform="matrix(1.00, 0.00, -0.00, -1.00, 1014.2, 375.1)">&lt;</text><text xml:space="preserve" font-family="RobotoCondensed-Regular,Roboto Condensed" font-size="50.0" fill="#FFFFFF" transform="matrix(1.00, 0.00, -0.00, -1.00, 1036.1, 375.1)">e</text><text xml:space="preserve" font-family="RobotoCondensed-Regular,Roboto Condensed" font-size="50.0" fill="#FFFFFF" transform="matrix(1.00, 0.00, -0.00, -1.00, 1058.8, 375.1)">-</text><text xml:space="preserve" font-family="RobotoCondensed-Regular,Roboto Condensed" font-size="50.0" fill="#FFFFFF" transform="matrix(1.00, 0.00, -0.00, -1.00, 1073.4, 375.1)">m</text><text xml:space="preserve" font-family="RobotoCondensed-Regular,Roboto Condensed" font-size="50.0" fill="#FFFFFF" transform="matrix(1.00, 0.00, -0.00, -1.00, 1110.6, 375.1)">a</text><text xml:space="preserve" font-family="RobotoCondensed-Regular,Roboto Condensed" font-size="50.0" fill="#FFFFFF" transform="matrix(1.00, 0.00, -0.00, -1.00, 1134.0, 375.1)">i</text><text xml:space="preserve" font-family="RobotoCondensed-Regular,Roboto Condensed" font-size="50.0" fill="#FFFFFF" transform="matrix(1.00, 0.00, -0.00, -1.00, 1145.2, 375.1)">l</text><text xml:space="preserve" font-family="RobotoCondensed-Regular,Roboto Condensed" font-size="50.0" fill="#FFFFFF" transform="matrix(1.00, 0.00, -0.00, -1.00, 1156.5, 375.1)">&gt;</text><text xml:space="preserve" font-family="RobotoCondensed-Regular,Roboto Condensed" font-size="50.0" fill="#FFFFFF" transform="matrix(1.00, 0.00, -0.00, -1.00, 1178.9, 375.1)">t</text><text xml:space="preserve" font-family="RobotoCondensed-Regular,Roboto Condensed" font-size="50.0" fill="#FFFFFF" transform="matrix(1.00, 0.00, -0.00, -1.00, 1194.2, 375.1)">j</text><text xml:space="preserve" font-family="RobotoCondensed-Regular,Roboto Condensed" font-size="50.0" fill="#FFFFFF" transform="matrix(1.00, 0.00, -0.00, -1.00, 1205.6, 375.1)">s</text><text xml:space="preserve" font-family="RobotoCondensed-Regular,Roboto Condensed" font-size="50.0" fill="#FFFFFF" transform="matrix(1.00, 0.00, -0.00, -1.00, 1227.3, 375.1)">a</text><text xml:space="preserve" font-family="RobotoCondensed-Regular,Roboto Condensed" font-size="50.0" fill="#FFFFFF" transform="matrix(1.00, 0.00, -0.00, -1.00, 1250.3, 375.1)">v</text><text xml:space="preserve" font-family="RobotoCondensed-Regular,Roboto Condensed" font-size="50.0" fill="#FFFFFF" transform="matrix(1.00, 0.00, -0.00, -1.00, 1271.7, 375.1)">a</text><text xml:space="preserve" font-family="RobotoCondensed-Regular,Roboto Condensed" font-size="50.0" fill="#FFFFFF" transform="matrix(1.00, 0.00, -0.00, -1.00, 1295.0, 375.1)">g</text><text xml:space="preserve" font-family="RobotoCondensed-Regular,Roboto Condensed" font-size="50.0" fill="#FFFFFF" transform="matrix(1.00, 0.00, -0.00, -1.00, 1319.3, 375.1)">e</text><text xml:space="preserve" font-family="RobotoCondensed-Regular,Roboto Condensed" font-size="50.0" fill="#FFFFFF" transform="matrix(1.00, 0.00, -0.00, -1.00, 1342.0, 375.1)">@</text><text xml:space="preserve" font-family="RobotoCondensed-Regular,Roboto Condensed" font-size="50.0" fill="#FFFFFF" transform="matrix(1.00, 0.00, -0.00, -1.00, 1381.9, 375.1)">g</text><text xml:space="preserve" font-family="RobotoCondensed-Regular,Roboto Condensed" font-size="50.0" fill="#FFFFFF" transform="matrix(1.00, 0.00, -0.00, -1.00, 1406.2, 375.1)">o</text><text xml:space="preserve" font-family="RobotoCondensed-Regular,Roboto Condensed" font-size="50.0" fill="#FFFFFF" transform="matrix(1.00, 0.00, -0.00, -1.00, 1430.5, 375.1)">o</text><text xml:space="preserve" font-family="RobotoCondensed-Regular,Roboto Condensed" font-size="50.0" fill="#FFFFFF" transform="matrix(1.00, 0.00, -0.00, -1.00, 1454.8, 375.1)">g</text><text xml:space="preserve" font-family="RobotoCondensed-Regular,Roboto Condensed" font-size="50.0" fill="#FFFFFF" transform="matrix(1.00, 0.00, -0.00, -1.00, 1479.1, 375.1)">l</text><text xml:space="preserve" font-family="RobotoCondensed-Regular,Roboto Condensed" font-size="50.0" fill="#FFFFFF" transform="matrix(1.00, 0.00, -0.00, -1.00, 1490.3, 375.1)">e</text><text xml:space="preserve" font-family="RobotoCondensed-Regular,Roboto Condensed" font-size="50.0" fill="#FFFFFF" transform="matrix(1.00, 0.00, -0.00, -1.00, 1513.0, 375.1)">.</text><text xml:space="preserve" font-family="RobotoCondensed-Regular,Roboto Condensed" font-size="50.0" fill="#FFFFFF" transform="matrix(1.00, 0.00, -0.00, -1.00, 1525.2, 375.1)">c</text><text xml:space="preserve" font-family="RobotoCondensed-Regular,Roboto Condensed" font-size="50.0" fill="#FFFFFF" transform="matrix(1.00, 0.00, -0.00, -1.00, 1547.6, 375.1)">o</text><text xml:space="preserve" font-family="RobotoCondensed-Regular,Roboto Condensed" font-size="50.0" fill="#FFFFFF" transform="matrix(1.00, 0.00, -0.00, -1.00, 1571.9, 375.1)">m</text><text xml:space="preserve" font-family="RobotoCondensed-Regular,Roboto Condensed" font-size="50.0" fill="#FFFFFF" transform="matrix(1.00, 0.00, -0.00, -1.00, 1609.1, 375.1)">&lt;</text><text xml:space="preserve" font-family="RobotoCondensed-Regular,Roboto Condensed" font-size="50.0" fill="#FFFFFF" transform="matrix(1.00, 0.00, -0.00, -1.00, 1631.1, 375.1)">/</text><text xml:space="preserve" font-family="RobotoCondensed-Regular,Roboto Condensed" font-size="50.0" fill="#FFFFFF" transform="matrix(1.00, 0.00, -0.00, -1.00, 1648.0, 375.1)">e</text><text xml:space="preserve" font-family="RobotoCondensed-Regular,Roboto Condensed" font-size="50.0" fill="#FFFFFF" transform="matrix(1.00, 0.00, -0.00, -1.00, 1670.7, 375.1)">-</text><text xml:space="preserve" font-family="RobotoCondensed-Regular,Roboto Condensed" font-size="50.0" fill="#FFFFFF" transform="matrix(1.00, 0.00, -0.00, -1.00, 1685.3, 375.1)">m</text><text xml:space="preserve" font-family="RobotoCondensed-Regular,Roboto Condensed" font-size="50.0" fill="#FFFFFF" transform="matrix(1.00, 0.00, -0.00, -1.00, 1722.5, 375.1)">a</text><text xml:space="preserve" font-family="RobotoCondensed-Regular,Roboto Condensed" font-size="50.0" fill="#FFFFFF" transform="matrix(1.00, 0.00, -0.00, -1.00, 1745.9, 375.1)">i</text><text xml:space="preserve" font-family="RobotoCondensed-Regular,Roboto Condensed" font-size="50.0" fill="#FFFFFF" transform="matrix(1.00, 0.00, -0.00, -1.00, 1757.1, 375.1)">l</text><text xml:space="preserve" font-family="RobotoCondensed-Regular,Roboto Condensed" font-size="50.0" fill="#FFFFFF" transform="matrix(1.00, 0.00, -0.00, -1.00, 1768.4, 375.1)">&gt;</text><text xml:space="preserve" font-family="RobotoCondensed-Regular,Roboto Condensed" font-size="50.0" fill="#FFFFFF" transform="matrix(1.00, 0.00, -0.00, -1.00, 1790.8, 375.1)"> </text><text xml:space="preserve" font-family="RobotoCondensed-Regular,Roboto Condensed" font-size="50.0" fill="#FFFFFF" transform="matrix(1.00, 0.00, -0.00, -1.00, 948.2, 304.7)">&lt;</text><text xml:space="preserve" font-family="RobotoCondensed-Regular,Roboto Condensed" font-size="50.0" fill="#FFFFFF" transform="matrix(1.00, 0.00, -0.00, -1.00, 970.1, 304.7)">/</text><text xml:space="preserve" font-family="RobotoCondensed-Regular,Roboto Condensed" font-size="50.0" fill="#FFFFFF" transform="matrix(1.00, 0.00, -0.00, -1.00, 987.0, 304.7)">c</text><text xml:space="preserve" font-family="RobotoCondensed-Regular,Roboto Condensed" font-size="50.0" fill="#FFFFFF" transform="matrix(1.00, 0.00, -0.00, -1.00, 1009.5, 304.7)">o</text><text xml:space="preserve" font-family="RobotoCondensed-Regular,Roboto Condensed" font-size="50.0" fill="#FFFFFF" transform="matrix(1.00, 0.00, -0.00, -1.00, 1033.8, 304.7)">n</text><text xml:space="preserve" font-family="RobotoCondensed-Regular,Roboto Condensed" font-size="50.0" fill="#FFFFFF" transform="matrix(1.00, 0.00, -0.00, -1.00, 1058.1, 304.7)">t</text><text xml:space="preserve" font-family="RobotoCondensed-Regular,Roboto Condensed" font-size="50.0" fill="#FFFFFF" transform="matrix(1.00, 0.00, -0.00, -1.00, 1073.4, 304.7)">a</text><text xml:space="preserve" font-family="RobotoCondensed-Regular,Roboto Condensed" font-size="50.0" fill="#FFFFFF" transform="matrix(1.00, 0.00, -0.00, -1.00, 1096.7, 304.7)">c</text><text xml:space="preserve" font-family="RobotoCondensed-Regular,Roboto Condensed" font-size="50.0" fill="#FFFFFF" transform="matrix(1.00, 0.00, -0.00, -1.00, 1119.2, 304.7)">t</text><text xml:space="preserve" font-family="RobotoCondensed-Regular,Roboto Condensed" font-size="50.0" fill="#FFFFFF" transform="matrix(1.00, 0.00, -0.00, -1.00, 1134.5, 304.7)">-</text><text xml:space="preserve" font-family="RobotoCondensed-Regular,Roboto Condensed" font-size="50.0" fill="#FFFFFF" transform="matrix(1.00, 0.00, -0.00, -1.00, 1149.1, 304.7)">c</text><text xml:space="preserve" font-family="RobotoCondensed-Regular,Roboto Condensed" font-size="50.0" fill="#FFFFFF" transform="matrix(1.00, 0.00, -0.00, -1.00, 1171.6, 304.7)">a</text><text xml:space="preserve" font-family="RobotoCondensed-Regular,Roboto Condensed" font-size="50.0" fill="#FFFFFF" transform="matrix(1.00, 0.00, -0.00, -1.00, 1194.9, 304.7)">r</text><text xml:space="preserve" font-family="RobotoCondensed-Regular,Roboto Condensed" font-size="50.0" fill="#FFFFFF" transform="matrix(1.00, 0.00, -0.00, -1.00, 1209.9, 304.7)">d</text><text xml:space="preserve" font-family="RobotoCondensed-Regular,Roboto Condensed" font-size="50.0" fill="#FFFFFF" transform="matrix(1.00, 0.00, -0.00, -1.00, 1234.2, 304.7)">&gt;</text></g></svg>