<?xml version="1.0" encoding="UTF-8" standalone="no"?><svg xmlns="http://www.w3.org/2000/svg" xmlns:xlink="http://www.w3.org/1999/xlink" clip-rule="evenodd" stroke-miterlimit="10" viewBox="0 0 333 41"><desc>SVG generated by Keynote</desc><defs></defs><g transform="matrix(1.00, 0.00, -0.00, -1.00, 0.0, 41.0)"><text xml:space="preserve" font-family="RobotoCondensed-Bold,Roboto Condensed" font-weight="bold" font-size="41.0" fill="#404040" transform="matrix(1.00, 0.00, -0.00, -1.00, 0.9, 7.5)">d</text><text xml:space="preserve" font-family="RobotoCondensed-Bold,Roboto Condensed" font-weight="bold" font-size="41.0" fill="#404040" transform="matrix(1.00, 0.00, -0.00, -1.00, 20.8, 7.5)">e</text><text xml:space="preserve" font-family="RobotoCondensed-Bold,Roboto Condensed" font-weight="bold" font-size="41.0" fill="#404040" transform="matrix(1.00, 0.00, -0.00, -1.00, 39.6, 7.5)">c</text><text xml:space="preserve" font-family="RobotoCondensed-Bold,Roboto Condensed" font-weight="bold" font-size="41.0" fill="#404040" transform="matrix(1.00, 0.00, -0.00, -1.00, 57.9, 7.5)">l</text><text xml:space="preserve" font-family="RobotoCondensed-Bold,Roboto Condensed" font-weight="bold" font-size="41.0" fill="#404040" transform="matrix(1.00, 0.00, -0.00, -1.00, 67.7, 7.5)">a</text><text xml:space="preserve" font-family="RobotoCondensed-Bold,Roboto Condensed" font-weight="bold" font-size="41.0" fill="#404040" transform="matrix(1.00, 0.00, -0.00, -1.00, 86.6, 7.5)">r</text><text xml:space="preserve" font-family="RobotoCondensed-Bold,Roboto Condensed" font-weight="bold" font-size="41.0" fill="#404040" transform="matrix(1.00, 0.00, -0.00, -1.00, 99.7, 7.5)">a</text><text xml:space="preserve" font-family="RobotoCondensed-Bold,Roboto Condensed" font-weight="bold" font-size="41.0" fill="#404040" transform="matrix(1.00, 0.00, -0.00, -1.00, 118.6, 7.5)">t</text><text xml:space="preserve" font-family="RobotoCondensed-Bold,Roboto Condensed" font-weight="bold" font-size="41.0" fill="#404040" transform="matrix(1.00, 0.00, -0.00, -1.00, 131.6, 7.5)">i</text><text xml:space="preserve" font-family="RobotoCondensed-Bold,Roboto Condensed" font-weight="bold" font-size="41.0" fill="#404040" transform="matrix(1.00, 0.00, -0.00, -1.00, 141.5, 7.5)">v</text><text xml:space="preserve" font-family="RobotoCondensed-Bold,Roboto Condensed" font-weight="bold" font-size="41.0" fill="#404040" transform="matrix(1.00, 0.00, -0.00, -1.00, 159.5, 7.5)">e</text><text xml:space="preserve" font-family="RobotoCondensed-Regular,Roboto Condensed" font-size="41.0" fill="#404040" transform="matrix(1.00, 0.00, -0.00, -1.00, 178.3, 7.5)">,</text><text xml:space="preserve" font-family="RobotoCondensed-Regular,Roboto Condensed" font-size="41.0" fill="#404040" transform="matrix(1.00, 0.00, -0.00, -1.00, 186.2, 7.5)"> </text><text xml:space="preserve" font-family="RobotoCondensed-Regular,Roboto Condensed" font-size="41.0" fill="#404040" transform="matrix(1.00, 0.00, -0.00, -1.00, 195.1, 7.5)">r</text><text xml:space="preserve" font-family="RobotoCondensed-Regular,Roboto Condensed" font-size="41.0" fill="#404040" transform="matrix(1.00, 0.00, -0.00, -1.00, 207.4, 7.5)">e</text><text xml:space="preserve" font-family="RobotoCondensed-Regular,Roboto Condensed" font-size="41.0" fill="#404040" transform="matrix(1.00, 0.00, -0.00, -1.00, 226.0, 7.5)">a</text><text xml:space="preserve" font-family="RobotoCondensed-Regular,Roboto Condensed" font-size="41.0" fill="#404040" transform="matrix(1.00, 0.00, -0.00, -1.00, 245.2, 7.5)">d</text><text xml:space="preserve" font-family="RobotoCondensed-Regular,Roboto Condensed" font-size="41.0" fill="#404040" transform="matrix(1.00, 0.00, -0.00, -1.00, 265.1, 7.5)">a</text><text xml:space="preserve" font-family="RobotoCondensed-Regular,Roboto Condensed" font-size="41.0" fill="#404040" transform="matrix(1.00, 0.00, -0.00, -1.00, 284.2, 7.5)">b</text><text xml:space="preserve" font-family="RobotoCondensed-Regular,Roboto Condensed" font-size="41.0" fill="#404040" transform="matrix(1.00, 0.00, -0.00, -1.00, 304.2, 7.5)">l</text><text xml:space="preserve" font-family="RobotoCondensed-Regular,Roboto Condensed" font-size="41.0" fill="#404040" transform="matrix(1.00, 0.00, -0.00, -1.00, 313.4, 7.5)">e</text></g></svg>