<?xml version="1.0" encoding="UTF-8" standalone="no"?><svg xmlns="http://www.w3.org/2000/svg" xmlns:xlink="http://www.w3.org/1999/xlink" clip-rule="evenodd" stroke-miterlimit="10" viewBox="0 0 907 174"><desc>SVG generated by Keynote</desc><defs></defs><g transform="matrix(1.00, 0.00, -0.00, -1.00, 0.0, 174.0)"><text xml:space="preserve" font-family="ArialMT,Arial" font-size="0.8" fill="#FFFFFF" transform="matrix(1.00, 0.00, -0.00, -1.00, 0.2, 143.6)">·</text><text xml:space="preserve" font-family="Roboto-Medium,Roboto" font-size="75.0" fill="#FFFFFF" transform="matrix(1.00, 0.00, -0.00, -1.00, 40.2, 114.7)">i</text><text xml:space="preserve" font-family="Roboto-Medium,Roboto" font-size="75.0" fill="#FFFFFF" transform="matrix(1.00, 0.00, -0.00, -1.00, 59.7, 114.7)">n</text><text xml:space="preserve" font-family="Roboto-Medium,Roboto" font-size="75.0" fill="#FFFFFF" transform="matrix(1.00, 0.00, -0.00, -1.00, 102.2, 114.7)">t</text><text xml:space="preserve" font-family="Roboto-Medium,Roboto" font-size="75.0" fill="#FFFFFF" transform="matrix(1.00, 0.00, -0.00, -1.00, 128.2, 114.7)">e</text><text xml:space="preserve" font-family="Roboto-Medium,Roboto" font-size="75.0" fill="#FFFFFF" transform="matrix(1.00, 0.00, -0.00, -1.00, 168.0, 114.7)">r</text><text xml:space="preserve" font-family="Roboto-Medium,Roboto" font-size="75.0" fill="#FFFFFF" transform="matrix(1.00, 0.00, -0.00, -1.00, 193.9, 114.7)">o</text><text xml:space="preserve" font-family="Roboto-Medium,Roboto" font-size="75.0" fill="#FFFFFF" transform="matrix(1.00, 0.00, -0.00, -1.00, 236.5, 114.7)">p</text><text xml:space="preserve" font-family="Roboto-Medium,Roboto" font-size="75.0" fill="#FFFFFF" transform="matrix(1.00, 0.00, -0.00, -1.00, 279.0, 114.7)">e</text><text xml:space="preserve" font-family="Roboto-Medium,Roboto" font-size="75.0" fill="#FFFFFF" transform="matrix(1.00, 0.00, -0.00, -1.00, 318.7, 114.7)">r</text><text xml:space="preserve" font-family="Roboto-Medium,Roboto" font-size="75.0" fill="#FFFFFF" transform="matrix(1.00, 0.00, -0.00, -1.00, 344.7, 114.7)">a</text><text xml:space="preserve" font-family="Roboto-Medium,Roboto" font-size="75.0" fill="#FFFFFF" transform="matrix(1.00, 0.00, -0.00, -1.00, 385.5, 114.7)">t</text><text xml:space="preserve" font-family="Roboto-Medium,Roboto" font-size="75.0" fill="#FFFFFF" transform="matrix(1.00, 0.00, -0.00, -1.00, 411.5, 114.7)">e</text><text xml:space="preserve" font-family="Roboto-Medium,Roboto" font-size="75.0" fill="#FFFFFF" transform="matrix(1.00, 0.00, -0.00, -1.00, 451.2, 114.7)">,</text><text xml:space="preserve" font-family="Roboto-Medium,Roboto" font-size="75.0" fill="#FFFFFF" transform="matrix(1.00, 0.00, -0.00, -1.00, 468.1, 114.7)"> </text><text xml:space="preserve" font-family="Roboto-Medium,Roboto" font-size="75.0" fill="#FFFFFF" transform="matrix(1.00, 0.00, -0.00, -1.00, 486.8, 114.7)">d</text><text xml:space="preserve" font-family="Roboto-Medium,Roboto" font-size="75.0" fill="#FFFFFF" transform="matrix(1.00, 0.00, -0.00, -1.00, 529.3, 114.7)">o</text><text xml:space="preserve" font-family="Roboto-Medium,Roboto" font-size="75.0" fill="#FFFFFF" transform="matrix(1.00, 0.00, -0.00, -1.00, 571.8, 114.7)">n</text><text xml:space="preserve" font-family="Roboto-Medium,Roboto" font-size="75.0" fill="#FFFFFF" transform="matrix(1.00, 0.00, -0.00, -1.00, 613.1, 114.7)">’</text><text xml:space="preserve" font-family="Roboto-Medium,Roboto" font-size="75.0" fill="#FFFFFF" transform="matrix(1.00, 0.00, -0.00, -1.00, 628.2, 114.7)">t</text><text xml:space="preserve" font-family="Roboto-Medium,Roboto" font-size="75.0" fill="#FFFFFF" transform="matrix(1.00, 0.00, -0.00, -1.00, 654.2, 114.7)"> </text><text xml:space="preserve" font-family="Roboto-Medium,Roboto" font-size="75.0" fill="#FFFFFF" transform="matrix(1.00, 0.00, -0.00, -1.00, 672.9, 114.7)">d</text><text xml:space="preserve" font-family="Roboto-Medium,Roboto" font-size="75.0" fill="#FFFFFF" transform="matrix(1.00, 0.00, -0.00, -1.00, 715.4, 114.7)">i</text><text xml:space="preserve" font-family="Roboto-Medium,Roboto" font-size="75.0" fill="#FFFFFF" transform="matrix(1.00, 0.00, -0.00, -1.00, 734.9, 114.7)">c</text><text xml:space="preserve" font-family="Roboto-Medium,Roboto" font-size="75.0" fill="#FFFFFF" transform="matrix(1.00, 0.00, -0.00, -1.00, 774.2, 114.7)">t</text><text xml:space="preserve" font-family="Roboto-Medium,Roboto" font-size="75.0" fill="#FFFFFF" transform="matrix(1.00, 0.00, -0.00, -1.00, 800.3, 114.7)">a</text><text xml:space="preserve" font-family="Roboto-Medium,Roboto" font-size="75.0" fill="#FFFFFF" transform="matrix(1.00, 0.00, -0.00, -1.00, 841.1, 114.7)">t</text><text xml:space="preserve" font-family="Roboto-Medium,Roboto" font-size="75.0" fill="#FFFFFF" transform="matrix(1.00, 0.00, -0.00, -1.00, 867.1, 114.7)">e</text><text xml:space="preserve" font-family="Roboto-Bold,Roboto" font-weight="bold" font-size="75.0" fill="#FFFFFF" transform="matrix(1.00, 0.00, -0.00, -1.00, 906.7, 114.7)"> </text><text xml:space="preserve" font-family="ArialMT,Arial" font-size="0.5" fill="#FFFFFF" transform="matrix(1.00, 0.00, -0.00, -1.00, 0.2, 31.2)">·</text><text xml:space="preserve" font-family="Roboto-Regular,Roboto" font-size="50.0" fill="#FFFFFF" transform="matrix(1.00, 0.00, -0.00, -1.00, 40.2, 12.1)">b</text><text xml:space="preserve" font-family="Roboto-Regular,Roboto" font-size="50.0" fill="#FFFFFF" transform="matrix(1.00, 0.00, -0.00, -1.00, 68.7, 12.1)">o</text><text xml:space="preserve" font-family="Roboto-Regular,Roboto" font-size="50.0" fill="#FFFFFF" transform="matrix(1.00, 0.00, -0.00, -1.00, 97.1, 12.1)">t</text><text xml:space="preserve" font-family="Roboto-Regular,Roboto" font-size="50.0" fill="#FFFFFF" transform="matrix(1.00, 0.00, -0.00, -1.00, 114.4, 12.1)">t</text><text xml:space="preserve" font-family="Roboto-Regular,Roboto" font-size="50.0" fill="#FFFFFF" transform="matrix(1.00, 0.00, -0.00, -1.00, 131.6, 12.1)">o</text><text xml:space="preserve" font-family="Roboto-Regular,Roboto" font-size="50.0" fill="#FFFFFF" transform="matrix(1.00, 0.00, -0.00, -1.00, 160.1, 12.1)">m</text><text xml:space="preserve" font-family="Roboto-Regular,Roboto" font-size="50.0" fill="#FFFFFF" transform="matrix(1.00, 0.00, -0.00, -1.00, 203.8, 12.1)">-</text><text xml:space="preserve" font-family="Roboto-Regular,Roboto" font-size="50.0" fill="#FFFFFF" transform="matrix(1.00, 0.00, -0.00, -1.00, 217.5, 12.1)">u</text><text xml:space="preserve" font-family="Roboto-Regular,Roboto" font-size="50.0" fill="#FFFFFF" transform="matrix(1.00, 0.00, -0.00, -1.00, 245.9, 12.1)">p</text><text xml:space="preserve" font-family="Roboto-Regular,Roboto" font-size="50.0" fill="#FFFFFF" transform="matrix(1.00, 0.00, -0.00, -1.00, 274.3, 12.1)"> </text><text xml:space="preserve" font-family="Roboto-Regular,Roboto" font-size="50.0" fill="#FFFFFF" transform="matrix(1.00, 0.00, -0.00, -1.00, 286.7, 12.1)">n</text><text xml:space="preserve" font-family="Roboto-Regular,Roboto" font-size="50.0" fill="#FFFFFF" transform="matrix(1.00, 0.00, -0.00, -1.00, 315.2, 12.1)">o</text><text xml:space="preserve" font-family="Roboto-Regular,Roboto" font-size="50.0" fill="#FFFFFF" transform="matrix(1.00, 0.00, -0.00, -1.00, 343.6, 12.1)">t</text><text xml:space="preserve" font-family="Roboto-Regular,Roboto" font-size="50.0" fill="#FFFFFF" transform="matrix(1.00, 0.00, -0.00, -1.00, 360.9, 12.1)"> </text><text xml:space="preserve" font-family="Roboto-Regular,Roboto" font-size="50.0" fill="#FFFFFF" transform="matrix(1.00, 0.00, -0.00, -1.00, 373.3, 12.1)">t</text><text xml:space="preserve" font-family="Roboto-Regular,Roboto" font-size="50.0" fill="#FFFFFF" transform="matrix(1.00, 0.00, -0.00, -1.00, 390.6, 12.1)">o</text><text xml:space="preserve" font-family="Roboto-Regular,Roboto" font-size="50.0" fill="#FFFFFF" transform="matrix(1.00, 0.00, -0.00, -1.00, 419.0, 12.1)">p</text><text xml:space="preserve" font-family="Roboto-Regular,Roboto" font-size="50.0" fill="#FFFFFF" transform="matrix(1.00, 0.00, -0.00, -1.00, 447.4, 12.1)">-</text><text xml:space="preserve" font-family="Roboto-Regular,Roboto" font-size="50.0" fill="#FFFFFF" transform="matrix(1.00, 0.00, -0.00, -1.00, 461.1, 12.1)">d</text><text xml:space="preserve" font-family="Roboto-Regular,Roboto" font-size="50.0" fill="#FFFFFF" transform="matrix(1.00, 0.00, -0.00, -1.00, 489.6, 12.1)">o</text><text xml:space="preserve" font-family="Roboto-Regular,Roboto" font-size="50.0" fill="#FFFFFF" transform="matrix(1.00, 0.00, -0.00, -1.00, 518.0, 12.1)">w</text><text xml:space="preserve" font-family="Roboto-Regular,Roboto" font-size="50.0" fill="#FFFFFF" transform="matrix(1.00, 0.00, -0.00, -1.00, 555.8, 12.1)">n</text></g></svg>