<?xml version="1.0" encoding="UTF-8" standalone="no"?><svg xmlns="http://www.w3.org/2000/svg" xmlns:xlink="http://www.w3.org/1999/xlink" clip-rule="evenodd" stroke-miterlimit="10" viewBox="0 0 665 175"><desc>SVG generated by Keynote</desc><defs></defs><g transform="matrix(1.00, 0.00, -0.00, -1.00, 0.0, 175.0)"><text xml:space="preserve" font-family="ArialMT,Arial" font-size="0.8" fill="#FFFFFF" transform="matrix(1.00, 0.00, -0.00, -1.00, 0.8, 143.3)">·</text><text xml:space="preserve" font-family="Roboto-Medium,Roboto" font-size="75.0" fill="#FFFFFF" transform="matrix(1.00, 0.00, -0.00, -1.00, 40.8, 114.4)">d</text><text xml:space="preserve" font-family="Roboto-Medium,Roboto" font-size="75.0" fill="#FFFFFF" transform="matrix(1.00, 0.00, -0.00, -1.00, 83.3, 114.4)">e</text><text xml:space="preserve" font-family="Roboto-Medium,Roboto" font-size="75.0" fill="#FFFFFF" transform="matrix(1.00, 0.00, -0.00, -1.00, 123.0, 114.4)">c</text><text xml:space="preserve" font-family="Roboto-Medium,Roboto" font-size="75.0" fill="#FFFFFF" transform="matrix(1.00, 0.00, -0.00, -1.00, 162.4, 114.4)">l</text><text xml:space="preserve" font-family="Roboto-Medium,Roboto" font-size="75.0" fill="#FFFFFF" transform="matrix(1.00, 0.00, -0.00, -1.00, 181.9, 114.4)">a</text><text xml:space="preserve" font-family="Roboto-Medium,Roboto" font-size="75.0" fill="#FFFFFF" transform="matrix(1.00, 0.00, -0.00, -1.00, 222.7, 114.4)">r</text><text xml:space="preserve" font-family="Roboto-Medium,Roboto" font-size="75.0" fill="#FFFFFF" transform="matrix(1.00, 0.00, -0.00, -1.00, 248.6, 114.4)">a</text><text xml:space="preserve" font-family="Roboto-Medium,Roboto" font-size="75.0" fill="#FFFFFF" transform="matrix(1.00, 0.00, -0.00, -1.00, 289.4, 114.4)">t</text><text xml:space="preserve" font-family="Roboto-Medium,Roboto" font-size="75.0" fill="#FFFFFF" transform="matrix(1.00, 0.00, -0.00, -1.00, 315.5, 114.4)">i</text><text xml:space="preserve" font-family="Roboto-Medium,Roboto" font-size="75.0" fill="#FFFFFF" transform="matrix(1.00, 0.00, -0.00, -1.00, 334.9, 114.4)">v</text><text xml:space="preserve" font-family="Roboto-Medium,Roboto" font-size="75.0" fill="#FFFFFF" transform="matrix(1.00, 0.00, -0.00, -1.00, 372.4, 114.4)">e</text><text xml:space="preserve" font-family="Roboto-Medium,Roboto" font-size="75.0" fill="#FFFFFF" transform="matrix(1.00, 0.00, -0.00, -1.00, 412.1, 114.4)"> </text><text xml:space="preserve" font-family="Roboto-Medium,Roboto" font-size="75.0" fill="#FFFFFF" transform="matrix(1.00, 0.00, -0.00, -1.00, 430.8, 114.4)">f</text><text xml:space="preserve" font-family="Roboto-Medium,Roboto" font-size="75.0" fill="#FFFFFF" transform="matrix(1.00, 0.00, -0.00, -1.00, 457.2, 114.4)">i</text><text xml:space="preserve" font-family="Roboto-Medium,Roboto" font-size="75.0" fill="#FFFFFF" transform="matrix(1.00, 0.00, -0.00, -1.00, 476.6, 114.4)">r</text><text xml:space="preserve" font-family="Roboto-Medium,Roboto" font-size="75.0" fill="#FFFFFF" transform="matrix(1.00, 0.00, -0.00, -1.00, 502.6, 114.4)">s</text><text xml:space="preserve" font-family="Roboto-Medium,Roboto" font-size="75.0" fill="#FFFFFF" transform="matrix(1.00, 0.00, -0.00, -1.00, 541.6, 114.4)">t</text><text xml:space="preserve" font-family="Roboto-Bold,Roboto" font-weight="bold" font-size="75.0" fill="#FFFFFF" transform="matrix(1.00, 0.00, -0.00, -1.00, 567.6, 114.4)"> </text><text xml:space="preserve" font-family="ArialMT,Arial" font-size="0.5" fill="#FFFFFF" transform="matrix(1.00, 0.00, -0.00, -1.00, 0.8, 30.9)">·</text><text xml:space="preserve" font-family="Roboto-Regular,Roboto" font-size="50.0" fill="#FFFFFF" transform="matrix(1.00, 0.00, -0.00, -1.00, 40.8, 11.9)">i</text><text xml:space="preserve" font-family="Roboto-Regular,Roboto" font-size="50.0" fill="#FFFFFF" transform="matrix(1.00, 0.00, -0.00, -1.00, 53.4, 11.9)">t</text><text xml:space="preserve" font-family="Roboto-Regular,Roboto" font-size="50.0" fill="#FFFFFF" transform="matrix(1.00, 0.00, -0.00, -1.00, 70.7, 11.9)">’</text><text xml:space="preserve" font-family="Roboto-Regular,Roboto" font-size="50.0" fill="#FFFFFF" transform="matrix(1.00, 0.00, -0.00, -1.00, 78.7, 11.9)">s</text><text xml:space="preserve" font-family="Roboto-Regular,Roboto" font-size="50.0" fill="#FFFFFF" transform="matrix(1.00, 0.00, -0.00, -1.00, 104.8, 11.9)"> </text><text xml:space="preserve" font-family="Roboto-Regular,Roboto" font-size="50.0" fill="#FFFFFF" transform="matrix(1.00, 0.00, -0.00, -1.00, 117.2, 11.9)">w</text><text xml:space="preserve" font-family="Roboto-Regular,Roboto" font-size="50.0" fill="#FFFFFF" transform="matrix(1.00, 0.00, -0.00, -1.00, 155.0, 11.9)">h</text><text xml:space="preserve" font-family="Roboto-Regular,Roboto" font-size="50.0" fill="#FFFFFF" transform="matrix(1.00, 0.00, -0.00, -1.00, 183.5, 11.9)">a</text><text xml:space="preserve" font-family="Roboto-Regular,Roboto" font-size="50.0" fill="#FFFFFF" transform="matrix(1.00, 0.00, -0.00, -1.00, 211.0, 11.9)">t</text><text xml:space="preserve" font-family="Roboto-Regular,Roboto" font-size="50.0" fill="#FFFFFF" transform="matrix(1.00, 0.00, -0.00, -1.00, 228.2, 11.9)"> </text><text xml:space="preserve" font-family="Roboto-Regular,Roboto" font-size="50.0" fill="#FFFFFF" transform="matrix(1.00, 0.00, -0.00, -1.00, 240.6, 11.9)">m</text><text xml:space="preserve" font-family="Roboto-Regular,Roboto" font-size="50.0" fill="#FFFFFF" transform="matrix(1.00, 0.00, -0.00, -1.00, 284.3, 11.9)">a</text><text xml:space="preserve" font-family="Roboto-Regular,Roboto" font-size="50.0" fill="#FFFFFF" transform="matrix(1.00, 0.00, -0.00, -1.00, 311.8, 11.9)">k</text><text xml:space="preserve" font-family="Roboto-Regular,Roboto" font-size="50.0" fill="#FFFFFF" transform="matrix(1.00, 0.00, -0.00, -1.00, 336.9, 11.9)">e</text><text xml:space="preserve" font-family="Roboto-Regular,Roboto" font-size="50.0" fill="#FFFFFF" transform="matrix(1.00, 0.00, -0.00, -1.00, 363.4, 11.9)">s</text><text xml:space="preserve" font-family="Roboto-Regular,Roboto" font-size="50.0" fill="#FFFFFF" transform="matrix(1.00, 0.00, -0.00, -1.00, 389.5, 11.9)"> </text><text xml:space="preserve" font-family="Roboto-Regular,Roboto" font-size="50.0" fill="#FFFFFF" transform="matrix(1.00, 0.00, -0.00, -1.00, 401.9, 11.9)">H</text><text xml:space="preserve" font-family="Roboto-Regular,Roboto" font-size="50.0" fill="#FFFFFF" transform="matrix(1.00, 0.00, -0.00, -1.00, 436.9, 11.9)">T</text><text xml:space="preserve" font-family="Roboto-Regular,Roboto" font-size="50.0" fill="#FFFFFF" transform="matrix(1.00, 0.00, -0.00, -1.00, 466.2, 11.9)">M</text><text xml:space="preserve" font-family="Roboto-Regular,Roboto" font-size="50.0" fill="#FFFFFF" transform="matrix(1.00, 0.00, -0.00, -1.00, 510.1, 11.9)">L</text><text xml:space="preserve" font-family="Roboto-Regular,Roboto" font-size="50.0" fill="#FFFFFF" transform="matrix(1.00, 0.00, -0.00, -1.00, 537.1, 11.9)"> </text><text xml:space="preserve" font-family="Roboto-Regular,Roboto" font-size="50.0" fill="#FFFFFF" transform="matrix(1.00, 0.00, -0.00, -1.00, 549.5, 11.9)">g</text><text xml:space="preserve" font-family="Roboto-Regular,Roboto" font-size="50.0" fill="#FFFFFF" transform="matrix(1.00, 0.00, -0.00, -1.00, 578.0, 11.9)">r</text><text xml:space="preserve" font-family="Roboto-Regular,Roboto" font-size="50.0" fill="#FFFFFF" transform="matrix(1.00, 0.00, -0.00, -1.00, 594.6, 11.9)">e</text><text xml:space="preserve" font-family="Roboto-Regular,Roboto" font-size="50.0" fill="#FFFFFF" transform="matrix(1.00, 0.00, -0.00, -1.00, 621.1, 11.9)">a</text><text xml:space="preserve" font-family="Roboto-Regular,Roboto" font-size="50.0" fill="#FFFFFF" transform="matrix(1.00, 0.00, -0.00, -1.00, 648.5, 11.9)">t</text></g></svg>