<?xml version="1.0" encoding="UTF-8" standalone="no"?><svg xmlns="http://www.w3.org/2000/svg" xmlns:xlink="http://www.w3.org/1999/xlink" clip-rule="evenodd" stroke-miterlimit="10" viewBox="0 0 739 113"><desc>SVG generated by Keynote</desc><defs></defs><g transform="matrix(1.00, 0.00, -0.00, -1.00, 0.0, 113.0)"><text xml:space="preserve" font-family="Roboto-Regular,Roboto" font-size="50.0" fill="#404040" transform="matrix(1.00, 0.00, -0.00, -1.00, 1.2, 72.6)">A</text><text xml:space="preserve" font-family="Roboto-Regular,Roboto" font-size="50.0" fill="#404040" transform="matrix(1.00, 0.00, -0.00, -1.00, 33.6, 72.6)"> </text><text xml:space="preserve" font-family="Roboto-Regular,Roboto" font-size="50.0" fill="#404040" transform="matrix(1.00, 0.00, -0.00, -1.00, 46.0, 72.6)">s</text><text xml:space="preserve" font-family="Roboto-Regular,Roboto" font-size="50.0" fill="#404040" transform="matrix(1.00, 0.00, -0.00, -1.00, 72.2, 72.6)">i</text><text xml:space="preserve" font-family="Roboto-Regular,Roboto" font-size="50.0" fill="#404040" transform="matrix(1.00, 0.00, -0.00, -1.00, 84.8, 72.6)">m</text><text xml:space="preserve" font-family="Roboto-Regular,Roboto" font-size="50.0" fill="#404040" transform="matrix(1.00, 0.00, -0.00, -1.00, 128.5, 72.6)">p</text><text xml:space="preserve" font-family="Roboto-Regular,Roboto" font-size="50.0" fill="#404040" transform="matrix(1.00, 0.00, -0.00, -1.00, 156.9, 72.6)">l</text><text xml:space="preserve" font-family="Roboto-Regular,Roboto" font-size="50.0" fill="#404040" transform="matrix(1.00, 0.00, -0.00, -1.00, 169.5, 72.6)">e</text><text xml:space="preserve" font-family="Roboto-Regular,Roboto" font-size="50.0" fill="#404040" transform="matrix(1.00, 0.00, -0.00, -1.00, 195.9, 72.6)"> </text><text xml:space="preserve" font-family="Roboto-Regular,Roboto" font-size="50.0" fill="#404040" transform="matrix(1.00, 0.00, -0.00, -1.00, 208.3, 72.6)">c</text><text xml:space="preserve" font-family="Roboto-Regular,Roboto" font-size="50.0" fill="#404040" transform="matrix(1.00, 0.00, -0.00, -1.00, 234.9, 72.6)">o</text><text xml:space="preserve" font-family="Roboto-Regular,Roboto" font-size="50.0" fill="#404040" transform="matrix(1.00, 0.00, -0.00, -1.00, 263.3, 72.6)">n</text><text xml:space="preserve" font-family="Roboto-Regular,Roboto" font-size="50.0" fill="#404040" transform="matrix(1.00, 0.00, -0.00, -1.00, 291.7, 72.6)">t</text><text xml:space="preserve" font-family="Roboto-Regular,Roboto" font-size="50.0" fill="#404040" transform="matrix(1.00, 0.00, -0.00, -1.00, 309.0, 72.6)">a</text><text xml:space="preserve" font-family="Roboto-Regular,Roboto" font-size="50.0" fill="#404040" transform="matrix(1.00, 0.00, -0.00, -1.00, 336.5, 72.6)">i</text><text xml:space="preserve" font-family="Roboto-Regular,Roboto" font-size="50.0" fill="#404040" transform="matrix(1.00, 0.00, -0.00, -1.00, 349.1, 72.6)">n</text><text xml:space="preserve" font-family="Roboto-Regular,Roboto" font-size="50.0" fill="#404040" transform="matrix(1.00, 0.00, -0.00, -1.00, 377.5, 72.6)">e</text><text xml:space="preserve" font-family="Roboto-Regular,Roboto" font-size="50.0" fill="#404040" transform="matrix(1.00, 0.00, -0.00, -1.00, 404.0, 72.6)">r</text><text xml:space="preserve" font-family="Roboto-Regular,Roboto" font-size="50.0" fill="#404040" transform="matrix(1.00, 0.00, -0.00, -1.00, 421.1, 72.6)"> </text><text xml:space="preserve" font-family="Roboto-Regular,Roboto" font-size="50.0" fill="#404040" transform="matrix(1.00, 0.00, -0.00, -1.00, 433.5, 72.6)">w</text><text xml:space="preserve" font-family="Roboto-Regular,Roboto" font-size="50.0" fill="#404040" transform="matrix(1.00, 0.00, -0.00, -1.00, 471.3, 72.6)">i</text><text xml:space="preserve" font-family="Roboto-Regular,Roboto" font-size="50.0" fill="#404040" transform="matrix(1.00, 0.00, -0.00, -1.00, 483.9, 72.6)">t</text><text xml:space="preserve" font-family="Roboto-Regular,Roboto" font-size="50.0" fill="#404040" transform="matrix(1.00, 0.00, -0.00, -1.00, 501.2, 72.6)">h</text><text xml:space="preserve" font-family="Roboto-Regular,Roboto" font-size="50.0" fill="#404040" transform="matrix(1.00, 0.00, -0.00, -1.00, 529.6, 72.6)"> </text><text xml:space="preserve" font-family="Roboto-Regular,Roboto" font-size="50.0" fill="#404040" transform="matrix(1.00, 0.00, -0.00, -1.00, 542.0, 72.6)">a</text><text xml:space="preserve" font-family="Roboto-Regular,Roboto" font-size="50.0" fill="#404040" transform="matrix(1.00, 0.00, -0.00, -1.00, 569.5, 72.6)"> </text><text xml:space="preserve" font-family="Roboto-Regular,Roboto" font-size="50.0" fill="#404040" transform="matrix(1.00, 0.00, -0.00, -1.00, 581.9, 72.6)">h</text><text xml:space="preserve" font-family="Roboto-Regular,Roboto" font-size="50.0" fill="#404040" transform="matrix(1.00, 0.00, -0.00, -1.00, 610.3, 72.6)">e</text><text xml:space="preserve" font-family="Roboto-Regular,Roboto" font-size="50.0" fill="#404040" transform="matrix(1.00, 0.00, -0.00, -1.00, 636.8, 72.6)">a</text><text xml:space="preserve" font-family="Roboto-Regular,Roboto" font-size="50.0" fill="#404040" transform="matrix(1.00, 0.00, -0.00, -1.00, 664.3, 72.6)">d</text><text xml:space="preserve" font-family="Roboto-Regular,Roboto" font-size="50.0" fill="#404040" transform="matrix(1.00, 0.00, -0.00, -1.00, 692.7, 72.6)">e</text><text xml:space="preserve" font-family="Roboto-Regular,Roboto" font-size="50.0" fill="#404040" transform="matrix(1.00, 0.00, -0.00, -1.00, 719.1, 72.6)">r</text><text xml:space="preserve" font-family="Roboto-Regular,Roboto" font-size="50.0" fill="#404040" transform="matrix(1.00, 0.00, -0.00, -1.00, 736.3, 72.6)"> </text><text xml:space="preserve" font-family="Roboto-Regular,Roboto" font-size="50.0" fill="#404040" transform="matrix(1.00, 0.00, -0.00, -1.00, 1.2, 2.2)">s</text><text xml:space="preserve" font-family="Roboto-Regular,Roboto" font-size="50.0" fill="#404040" transform="matrix(1.00, 0.00, -0.00, -1.00, 27.4, 2.2)">e</text><text xml:space="preserve" font-family="Roboto-Regular,Roboto" font-size="50.0" fill="#404040" transform="matrix(1.00, 0.00, -0.00, -1.00, 53.8, 2.2)">c</text><text xml:space="preserve" font-family="Roboto-Regular,Roboto" font-size="50.0" fill="#404040" transform="matrix(1.00, 0.00, -0.00, -1.00, 80.3, 2.2)">t</text><text xml:space="preserve" font-family="Roboto-Regular,Roboto" font-size="50.0" fill="#404040" transform="matrix(1.00, 0.00, -0.00, -1.00, 97.6, 2.2)">i</text><text xml:space="preserve" font-family="Roboto-Regular,Roboto" font-size="50.0" fill="#404040" transform="matrix(1.00, 0.00, -0.00, -1.00, 110.2, 2.2)">o</text><text xml:space="preserve" font-family="Roboto-Regular,Roboto" font-size="50.0" fill="#404040" transform="matrix(1.00, 0.00, -0.00, -1.00, 138.6, 2.2)">n</text><text xml:space="preserve" font-family="Roboto-Regular,Roboto" font-size="50.0" fill="#404040" transform="matrix(1.00, 0.00, -0.00, -1.00, 167.1, 2.2)"> </text><text xml:space="preserve" font-family="Roboto-Regular,Roboto" font-size="50.0" fill="#404040" transform="matrix(1.00, 0.00, -0.00, -1.00, 179.5, 2.2)">a</text><text xml:space="preserve" font-family="Roboto-Regular,Roboto" font-size="50.0" fill="#404040" transform="matrix(1.00, 0.00, -0.00, -1.00, 207.0, 2.2)">n</text><text xml:space="preserve" font-family="Roboto-Regular,Roboto" font-size="50.0" fill="#404040" transform="matrix(1.00, 0.00, -0.00, -1.00, 235.4, 2.2)">d</text><text xml:space="preserve" font-family="Roboto-Regular,Roboto" font-size="50.0" fill="#404040" transform="matrix(1.00, 0.00, -0.00, -1.00, 263.8, 2.2)"> </text><text xml:space="preserve" font-family="Roboto-Regular,Roboto" font-size="50.0" fill="#404040" transform="matrix(1.00, 0.00, -0.00, -1.00, 276.2, 2.2)">a</text><text xml:space="preserve" font-family="Roboto-Regular,Roboto" font-size="50.0" fill="#404040" transform="matrix(1.00, 0.00, -0.00, -1.00, 303.7, 2.2)"> </text><text xml:space="preserve" font-family="Roboto-Regular,Roboto" font-size="50.0" fill="#404040" transform="matrix(1.00, 0.00, -0.00, -1.00, 316.1, 2.2)">c</text><text xml:space="preserve" font-family="Roboto-Regular,Roboto" font-size="50.0" fill="#404040" transform="matrix(1.00, 0.00, -0.00, -1.00, 342.6, 2.2)">o</text><text xml:space="preserve" font-family="Roboto-Regular,Roboto" font-size="50.0" fill="#404040" transform="matrix(1.00, 0.00, -0.00, -1.00, 371.1, 2.2)">n</text><text xml:space="preserve" font-family="Roboto-Regular,Roboto" font-size="50.0" fill="#404040" transform="matrix(1.00, 0.00, -0.00, -1.00, 399.5, 2.2)">t</text><text xml:space="preserve" font-family="Roboto-Regular,Roboto" font-size="50.0" fill="#404040" transform="matrix(1.00, 0.00, -0.00, -1.00, 416.8, 2.2)">e</text><text xml:space="preserve" font-family="Roboto-Regular,Roboto" font-size="50.0" fill="#404040" transform="matrix(1.00, 0.00, -0.00, -1.00, 443.2, 2.2)">n</text><text xml:space="preserve" font-family="Roboto-Regular,Roboto" font-size="50.0" fill="#404040" transform="matrix(1.00, 0.00, -0.00, -1.00, 471.7, 2.2)">t</text><text xml:space="preserve" font-family="Roboto-Regular,Roboto" font-size="50.0" fill="#404040" transform="matrix(1.00, 0.00, -0.00, -1.00, 488.9, 2.2)"> </text><text xml:space="preserve" font-family="Roboto-Regular,Roboto" font-size="50.0" fill="#404040" transform="matrix(1.00, 0.00, -0.00, -1.00, 501.3, 2.2)">s</text><text xml:space="preserve" font-family="Roboto-Regular,Roboto" font-size="50.0" fill="#404040" transform="matrix(1.00, 0.00, -0.00, -1.00, 527.5, 2.2)">e</text><text xml:space="preserve" font-family="Roboto-Regular,Roboto" font-size="50.0" fill="#404040" transform="matrix(1.00, 0.00, -0.00, -1.00, 553.9, 2.2)">c</text><text xml:space="preserve" font-family="Roboto-Regular,Roboto" font-size="50.0" fill="#404040" transform="matrix(1.00, 0.00, -0.00, -1.00, 580.4, 2.2)">t</text><text xml:space="preserve" font-family="Roboto-Regular,Roboto" font-size="50.0" fill="#404040" transform="matrix(1.00, 0.00, -0.00, -1.00, 597.7, 2.2)">i</text><text xml:space="preserve" font-family="Roboto-Regular,Roboto" font-size="50.0" fill="#404040" transform="matrix(1.00, 0.00, -0.00, -1.00, 610.3, 2.2)">o</text><text xml:space="preserve" font-family="Roboto-Regular,Roboto" font-size="50.0" fill="#404040" transform="matrix(1.00, 0.00, -0.00, -1.00, 638.7, 2.2)">n</text></g></svg>