<?xml version="1.0" encoding="UTF-8" standalone="no"?><svg xmlns="http://www.w3.org/2000/svg" xmlns:xlink="http://www.w3.org/1999/xlink" clip-rule="evenodd" stroke-miterlimit="10" viewBox="0 0 1920 1080"><desc>SVG generated by Keynote</desc><defs></defs><g transform="matrix(1.00, 0.00, -0.00, -1.00, 0.0, 1080.0)"><path d="M 0.0 1080.0 L 1920.0 1080.0 L 1920.0 0.0 L 0.0 0.0 Z M 0.0 1080.0 " fill="#FF4081"></path><g><clipPath id="clip0x6000020b3c20"><path d="M 135.4 890.0 L 824.4 890.0 L 824.4 1048.8 L 135.4 1048.8 Z M 135.4 890.0 "></path></clipPath><g clip-path="url(#clip0x6000020b3c20)"><text xml:space="preserve" font-family="Roboto-Bold,Roboto" font-weight="bold" font-size="80.0" fill="#FFFFFF" transform="matrix(1.00, 0.00, -0.00, -1.00, 161.8, 938.1)">C</text><text xml:space="preserve" font-family="Roboto-Bold,Roboto" font-weight="bold" font-size="80.0" fill="#FFFFFF" transform="matrix(1.00, 0.00, -0.00, -1.00, 212.9, 938.1)">u</text><text xml:space="preserve" font-family="Roboto-Bold,Roboto" font-weight="bold" font-size="80.0" fill="#FFFFFF" transform="matrix(1.00, 0.00, -0.00, -1.00, 258.1, 938.1)">s</text><text xml:space="preserve" font-family="Roboto-Bold,Roboto" font-weight="bold" font-size="80.0" fill="#FFFFFF" transform="matrix(1.00, 0.00, -0.00, -1.00, 299.3, 938.1)">t</text><text xml:space="preserve" font-family="Roboto-Bold,Roboto" font-weight="bold" font-size="80.0" fill="#FFFFFF" transform="matrix(1.00, 0.00, -0.00, -1.00, 327.3, 938.1)">o</text><text xml:space="preserve" font-family="Roboto-Bold,Roboto" font-weight="bold" font-size="80.0" fill="#FFFFFF" transform="matrix(1.00, 0.00, -0.00, -1.00, 372.5, 938.1)">m</text><text xml:space="preserve" font-family="Roboto-Bold,Roboto" font-weight="bold" font-size="80.0" fill="#FFFFFF" transform="matrix(1.00, 0.00, -0.00, -1.00, 441.7, 938.1)"> </text><text xml:space="preserve" font-family="Roboto-Bold,Roboto" font-weight="bold" font-size="80.0" fill="#FFFFFF" transform="matrix(1.00, 0.00, -0.00, -1.00, 461.6, 938.1)">E</text><text xml:space="preserve" font-family="Roboto-Bold,Roboto" font-weight="bold" font-size="80.0" fill="#FFFFFF" transform="matrix(1.00, 0.00, -0.00, -1.00, 507.6, 938.1)">l</text><text xml:space="preserve" font-family="Roboto-Bold,Roboto" font-weight="bold" font-size="80.0" fill="#FFFFFF" transform="matrix(1.00, 0.00, -0.00, -1.00, 528.9, 938.1)">e</text><text xml:space="preserve" font-family="Roboto-Bold,Roboto" font-weight="bold" font-size="80.0" fill="#FFFFFF" transform="matrix(1.00, 0.00, -0.00, -1.00, 571.3, 938.1)">m</text><text xml:space="preserve" font-family="Roboto-Bold,Roboto" font-weight="bold" font-size="80.0" fill="#FFFFFF" transform="matrix(1.00, 0.00, -0.00, -1.00, 640.5, 938.1)">e</text><text xml:space="preserve" font-family="Roboto-Bold,Roboto" font-weight="bold" font-size="80.0" fill="#FFFFFF" transform="matrix(1.00, 0.00, -0.00, -1.00, 682.9, 938.1)">n</text><text xml:space="preserve" font-family="Roboto-Bold,Roboto" font-weight="bold" font-size="80.0" fill="#FFFFFF" transform="matrix(1.00, 0.00, -0.00, -1.00, 728.1, 938.1)">t</text><text xml:space="preserve" font-family="Roboto-Bold,Roboto" font-weight="bold" font-size="80.0" fill="#FFFFFF" transform="matrix(1.00, 0.00, -0.00, -1.00, 756.0, 938.1)">s</text></g></g><g><clipPath id="clip0x600001ca9120"><path d="M 145.3 828.8 L 1370.5 828.8 L 1370.5 934.4 L 145.3 934.4 Z M 145.3 828.8 "></path></clipPath><g clip-path="url(#clip0x600001ca9120)"><text xml:space="preserve" font-family="Roboto-Regular,Roboto" font-size="50.0" fill="#FFFFFF" transform="matrix(1.00, 0.00, -0.00, -1.00, 161.8, 865.4)">C</text><text xml:space="preserve" font-family="Roboto-Regular,Roboto" font-size="50.0" fill="#FFFFFF" transform="matrix(1.00, 0.00, -0.00, -1.00, 193.4, 865.4)">r</text><text xml:space="preserve" font-family="Roboto-Regular,Roboto" font-size="50.0" fill="#FFFFFF" transform="matrix(1.00, 0.00, -0.00, -1.00, 210.1, 865.4)">e</text><text xml:space="preserve" font-family="Roboto-Regular,Roboto" font-size="50.0" fill="#FFFFFF" transform="matrix(1.00, 0.00, -0.00, -1.00, 236.5, 865.4)">a</text><text xml:space="preserve" font-family="Roboto-Regular,Roboto" font-size="50.0" fill="#FFFFFF" transform="matrix(1.00, 0.00, -0.00, -1.00, 264.0, 865.4)">t</text><text xml:space="preserve" font-family="Roboto-Regular,Roboto" font-size="50.0" fill="#FFFFFF" transform="matrix(1.00, 0.00, -0.00, -1.00, 281.3, 865.4)">e</text><text xml:space="preserve" font-family="Roboto-Regular,Roboto" font-size="50.0" fill="#FFFFFF" transform="matrix(1.00, 0.00, -0.00, -1.00, 307.7, 865.4)"> </text><text xml:space="preserve" font-family="Roboto-Regular,Roboto" font-size="50.0" fill="#FFFFFF" transform="matrix(1.00, 0.00, -0.00, -1.00, 320.1, 865.4)">n</text><text xml:space="preserve" font-family="Roboto-Regular,Roboto" font-size="50.0" fill="#FFFFFF" transform="matrix(1.00, 0.00, -0.00, -1.00, 348.5, 865.4)">e</text><text xml:space="preserve" font-family="Roboto-Regular,Roboto" font-size="50.0" fill="#FFFFFF" transform="matrix(1.00, 0.00, -0.00, -1.00, 375.0, 865.4)">w</text><text xml:space="preserve" font-family="Roboto-Regular,Roboto" font-size="50.0" fill="#FFFFFF" transform="matrix(1.00, 0.00, -0.00, -1.00, 412.8, 865.4)"> </text><text xml:space="preserve" font-family="Roboto-Regular,Roboto" font-size="50.0" fill="#FFFFFF" transform="matrix(1.00, 0.00, -0.00, -1.00, 425.2, 865.4)">H</text><text xml:space="preserve" font-family="Roboto-Regular,Roboto" font-size="50.0" fill="#FFFFFF" transform="matrix(1.00, 0.00, -0.00, -1.00, 460.2, 865.4)">T</text><text xml:space="preserve" font-family="Roboto-Regular,Roboto" font-size="50.0" fill="#FFFFFF" transform="matrix(1.00, 0.00, -0.00, -1.00, 489.5, 865.4)">M</text><text xml:space="preserve" font-family="Roboto-Regular,Roboto" font-size="50.0" fill="#FFFFFF" transform="matrix(1.00, 0.00, -0.00, -1.00, 533.4, 865.4)">L</text><text xml:space="preserve" font-family="Roboto-Regular,Roboto" font-size="50.0" fill="#FFFFFF" transform="matrix(1.00, 0.00, -0.00, -1.00, 560.4, 865.4)"> </text><text xml:space="preserve" font-family="Roboto-Regular,Roboto" font-size="50.0" fill="#FFFFFF" transform="matrix(1.00, 0.00, -0.00, -1.00, 572.8, 865.4)">e</text><text xml:space="preserve" font-family="Roboto-Regular,Roboto" font-size="50.0" fill="#FFFFFF" transform="matrix(1.00, 0.00, -0.00, -1.00, 599.3, 865.4)">l</text><text xml:space="preserve" font-family="Roboto-Regular,Roboto" font-size="50.0" fill="#FFFFFF" transform="matrix(1.00, 0.00, -0.00, -1.00, 611.9, 865.4)">e</text><text xml:space="preserve" font-family="Roboto-Regular,Roboto" font-size="50.0" fill="#FFFFFF" transform="matrix(1.00, 0.00, -0.00, -1.00, 638.3, 865.4)">m</text><text xml:space="preserve" font-family="Roboto-Regular,Roboto" font-size="50.0" fill="#FFFFFF" transform="matrix(1.00, 0.00, -0.00, -1.00, 682.0, 865.4)">e</text><text xml:space="preserve" font-family="Roboto-Regular,Roboto" font-size="50.0" fill="#FFFFFF" transform="matrix(1.00, 0.00, -0.00, -1.00, 708.4, 865.4)">n</text><text xml:space="preserve" font-family="Roboto-Regular,Roboto" font-size="50.0" fill="#FFFFFF" transform="matrix(1.00, 0.00, -0.00, -1.00, 736.9, 865.4)">t</text><text xml:space="preserve" font-family="Roboto-Regular,Roboto" font-size="50.0" fill="#FFFFFF" transform="matrix(1.00, 0.00, -0.00, -1.00, 754.1, 865.4)">s</text><text xml:space="preserve" font-family="Roboto-Regular,Roboto" font-size="50.0" fill="#FFFFFF" transform="matrix(1.00, 0.00, -0.00, -1.00, 780.3, 865.4)"> </text><text xml:space="preserve" font-family="Roboto-Regular,Roboto" font-size="50.0" fill="#FFFFFF" transform="matrix(1.00, 0.00, -0.00, -1.00, 792.7, 865.4)">a</text><text xml:space="preserve" font-family="Roboto-Regular,Roboto" font-size="50.0" fill="#FFFFFF" transform="matrix(1.00, 0.00, -0.00, -1.00, 820.2, 865.4)">n</text><text xml:space="preserve" font-family="Roboto-Regular,Roboto" font-size="50.0" fill="#FFFFFF" transform="matrix(1.00, 0.00, -0.00, -1.00, 848.6, 865.4)">d</text><text xml:space="preserve" font-family="Roboto-Regular,Roboto" font-size="50.0" fill="#FFFFFF" transform="matrix(1.00, 0.00, -0.00, -1.00, 877.0, 865.4)"> </text><text xml:space="preserve" font-family="Roboto-Regular,Roboto" font-size="50.0" fill="#FFFFFF" transform="matrix(1.00, 0.00, -0.00, -1.00, 889.4, 865.4)">e</text><text xml:space="preserve" font-family="Roboto-Regular,Roboto" font-size="50.0" fill="#FFFFFF" transform="matrix(1.00, 0.00, -0.00, -1.00, 915.9, 865.4)">x</text><text xml:space="preserve" font-family="Roboto-Regular,Roboto" font-size="50.0" fill="#FFFFFF" transform="matrix(1.00, 0.00, -0.00, -1.00, 941.0, 865.4)">t</text><text xml:space="preserve" font-family="Roboto-Regular,Roboto" font-size="50.0" fill="#FFFFFF" transform="matrix(1.00, 0.00, -0.00, -1.00, 958.3, 865.4)">e</text><text xml:space="preserve" font-family="Roboto-Regular,Roboto" font-size="50.0" fill="#FFFFFF" transform="matrix(1.00, 0.00, -0.00, -1.00, 984.7, 865.4)">n</text><text xml:space="preserve" font-family="Roboto-Regular,Roboto" font-size="50.0" fill="#FFFFFF" transform="matrix(1.00, 0.00, -0.00, -1.00, 1013.1, 865.4)">d</text><text xml:space="preserve" font-family="Roboto-Regular,Roboto" font-size="50.0" fill="#FFFFFF" transform="matrix(1.00, 0.00, -0.00, -1.00, 1041.6, 865.4)"> </text><text xml:space="preserve" font-family="Roboto-Regular,Roboto" font-size="50.0" fill="#FFFFFF" transform="matrix(1.00, 0.00, -0.00, -1.00, 1054.0, 865.4)">e</text><text xml:space="preserve" font-family="Roboto-Regular,Roboto" font-size="50.0" fill="#FFFFFF" transform="matrix(1.00, 0.00, -0.00, -1.00, 1080.4, 865.4)">x</text><text xml:space="preserve" font-family="Roboto-Regular,Roboto" font-size="50.0" fill="#FFFFFF" transform="matrix(1.00, 0.00, -0.00, -1.00, 1105.6, 865.4)">i</text><text xml:space="preserve" font-family="Roboto-Regular,Roboto" font-size="50.0" fill="#FFFFFF" transform="matrix(1.00, 0.00, -0.00, -1.00, 1118.1, 865.4)">s</text><text xml:space="preserve" font-family="Roboto-Regular,Roboto" font-size="50.0" fill="#FFFFFF" transform="matrix(1.00, 0.00, -0.00, -1.00, 1144.3, 865.4)">t</text><text xml:space="preserve" font-family="Roboto-Regular,Roboto" font-size="50.0" fill="#FFFFFF" transform="matrix(1.00, 0.00, -0.00, -1.00, 1161.6, 865.4)">i</text><text xml:space="preserve" font-family="Roboto-Regular,Roboto" font-size="50.0" fill="#FFFFFF" transform="matrix(1.00, 0.00, -0.00, -1.00, 1174.2, 865.4)">n</text><text xml:space="preserve" font-family="Roboto-Regular,Roboto" font-size="50.0" fill="#FFFFFF" transform="matrix(1.00, 0.00, -0.00, -1.00, 1202.6, 865.4)">g</text><text xml:space="preserve" font-family="Roboto-Regular,Roboto" font-size="50.0" fill="#FFFFFF" transform="matrix(1.00, 0.00, -0.00, -1.00, 1231.0, 865.4)"> </text><text xml:space="preserve" font-family="Roboto-Regular,Roboto" font-size="50.0" fill="#FFFFFF" transform="matrix(1.00, 0.00, -0.00, -1.00, 1243.4, 865.4)">o</text><text xml:space="preserve" font-family="Roboto-Regular,Roboto" font-size="50.0" fill="#FFFFFF" transform="matrix(1.00, 0.00, -0.00, -1.00, 1271.9, 865.4)">n</text><text xml:space="preserve" font-family="Roboto-Regular,Roboto" font-size="50.0" fill="#FFFFFF" transform="matrix(1.00, 0.00, -0.00, -1.00, 1300.3, 865.4)">e</text><text xml:space="preserve" font-family="Roboto-Regular,Roboto" font-size="50.0" fill="#FFFFFF" transform="matrix(1.00, 0.00, -0.00, -1.00, 1326.7, 865.4)">s</text></g></g></g></svg>