<?xml version="1.0" encoding="UTF-8" standalone="no"?><svg xmlns="http://www.w3.org/2000/svg" xmlns:xlink="http://www.w3.org/1999/xlink" clip-rule="evenodd" stroke-miterlimit="10" viewBox="0 0 910 314"><desc>SVG generated by Keynote</desc><defs></defs><g transform="matrix(1.00, 0.00, -0.00, -1.00, 0.0, 314.0)"><path d="M 1.4 7.4 L 1.0 306.3 C 1.0 309.6 4.1 312.0 7.4 312.0 L 902.8 312.0 C 906.1 312.0 909.0 309.6 909.0 306.3 L 909.0 7.4 C 909.0 4.1 906.1 1.0 902.8 1.0 L 7.4 1.0 C 4.1 1.0 1.4 4.1 1.4 7.4 Z M 1.4 7.4 " fill="#E7E7E7"></path><g><clipPath id="clip0x608000ca3360"><path d="M 1.4 1.4 L 908.8 1.4 L 908.8 312.3 L 1.4 312.3 Z M 1.4 1.4 "></path></clipPath><g clip-path="url(#clip0x608000ca3360)"><text xml:space="preserve" font-family=".LucidaGrandeUI,.Lucida Grande UI" font-size="34.0" fill="#4185F4" transform="matrix(1.00, 0.00, -0.00, -1.00, 21.4, 220.3)">v</text><text xml:space="preserve" font-family=".LucidaGrandeUI,.Lucida Grande UI" font-size="34.0" fill="#4185F4" transform="matrix(1.00, 0.00, -0.00, -1.00, 38.9, 220.3)">a</text><text xml:space="preserve" font-family=".LucidaGrandeUI,.Lucida Grande UI" font-size="34.0" fill="#4185F4" transform="matrix(1.00, 0.00, -0.00, -1.00, 57.7, 220.3)">r</text><text xml:space="preserve" font-family=".LucidaGrandeUI,.Lucida Grande UI" font-size="34.0" fill="#4185F4" transform="matrix(1.00, 0.00, -0.00, -1.00, 71.6, 220.3)"> </text><text xml:space="preserve" font-family=".LucidaGrandeUI,.Lucida Grande UI" font-size="34.0" fill="#4185F4" transform="matrix(1.00, 0.00, -0.00, -1.00, 82.4, 220.3)">t</text><text xml:space="preserve" font-family=".LucidaGrandeUI,.Lucida Grande UI" font-size="34.0" fill="#4185F4" transform="matrix(1.00, 0.00, -0.00, -1.00, 95.1, 220.3)">a</text><text xml:space="preserve" font-family=".LucidaGrandeUI,.Lucida Grande UI" font-size="34.0" fill="#4185F4" transform="matrix(1.00, 0.00, -0.00, -1.00, 113.9, 220.3)">b</text><text xml:space="preserve" font-family=".LucidaGrandeUI,.Lucida Grande UI" font-size="34.0" fill="#4185F4" transform="matrix(1.00, 0.00, -0.00, -1.00, 135.3, 220.3)">s</text><text xml:space="preserve" font-family=".LucidaGrandeUI,.Lucida Grande UI" font-size="34.0" fill="#4185F4" transform="matrix(1.00, 0.00, -0.00, -1.00, 151.0, 220.3)"> </text><text xml:space="preserve" font-family=".LucidaGrandeUI,.Lucida Grande UI" font-size="34.0" fill="#A3A3A3" transform="matrix(1.00, 0.00, -0.00, -1.00, 161.7, 220.3)">=</text><text xml:space="preserve" font-family=".LucidaGrandeUI,.Lucida Grande UI" font-size="34.0" fill="#4185F4" transform="matrix(1.00, 0.00, -0.00, -1.00, 188.8, 220.3)"> </text><text xml:space="preserve" font-family=".LucidaGrandeUI,.Lucida Grande UI" font-size="34.0" fill="#4185F4" transform="matrix(1.00, 0.00, -0.00, -1.00, 199.5, 220.3)">d</text><text xml:space="preserve" font-family=".LucidaGrandeUI,.Lucida Grande UI" font-size="34.0" fill="#4185F4" transform="matrix(1.00, 0.00, -0.00, -1.00, 221.0, 220.3)">o</text><text xml:space="preserve" font-family=".LucidaGrandeUI,.Lucida Grande UI" font-size="34.0" fill="#4185F4" transform="matrix(1.00, 0.00, -0.00, -1.00, 241.9, 220.3)">c</text><text xml:space="preserve" font-family=".LucidaGrandeUI,.Lucida Grande UI" font-size="34.0" fill="#4185F4" transform="matrix(1.00, 0.00, -0.00, -1.00, 259.3, 220.3)">u</text><text xml:space="preserve" font-family=".LucidaGrandeUI,.Lucida Grande UI" font-size="34.0" fill="#4185F4" transform="matrix(1.00, 0.00, -0.00, -1.00, 280.4, 220.3)">m</text><text xml:space="preserve" font-family=".LucidaGrandeUI,.Lucida Grande UI" font-size="34.0" fill="#4185F4" transform="matrix(1.00, 0.00, -0.00, -1.00, 312.1, 220.3)">e</text><text xml:space="preserve" font-family=".LucidaGrandeUI,.Lucida Grande UI" font-size="34.0" fill="#4185F4" transform="matrix(1.00, 0.00, -0.00, -1.00, 331.0, 220.3)">n</text><text xml:space="preserve" font-family=".LucidaGrandeUI,.Lucida Grande UI" font-size="34.0" fill="#4185F4" transform="matrix(1.00, 0.00, -0.00, -1.00, 352.1, 220.3)">t</text><text xml:space="preserve" font-family=".LucidaGrandeUI,.Lucida Grande UI" font-size="34.0" fill="#A3A3A3" transform="matrix(1.00, 0.00, -0.00, -1.00, 364.8, 220.3)">.</text><text xml:space="preserve" font-family=".LucidaGrandeUI,.Lucida Grande UI" font-size="34.0" fill="#4185F4" transform="matrix(1.00, 0.00, -0.00, -1.00, 375.6, 220.3)">q</text><text xml:space="preserve" font-family=".LucidaGrandeUI,.Lucida Grande UI" font-size="34.0" fill="#4185F4" transform="matrix(1.00, 0.00, -0.00, -1.00, 397.0, 220.3)">u</text><text xml:space="preserve" font-family=".LucidaGrandeUI,.Lucida Grande UI" font-size="34.0" fill="#4185F4" transform="matrix(1.00, 0.00, -0.00, -1.00, 418.1, 220.3)">e</text><text xml:space="preserve" font-family=".LucidaGrandeUI,.Lucida Grande UI" font-size="34.0" fill="#4185F4" transform="matrix(1.00, 0.00, -0.00, -1.00, 437.0, 220.3)">r</text><text xml:space="preserve" font-family=".LucidaGrandeUI,.Lucida Grande UI" font-size="34.0" fill="#4185F4" transform="matrix(1.00, 0.00, -0.00, -1.00, 451.0, 220.3)">y</text><text xml:space="preserve" font-family=".LucidaGrandeUI,.Lucida Grande UI" font-size="34.0" fill="#4185F4" transform="matrix(1.00, 0.00, -0.00, -1.00, 468.4, 220.3)">S</text><text xml:space="preserve" font-family=".LucidaGrandeUI,.Lucida Grande UI" font-size="34.0" fill="#4185F4" transform="matrix(1.00, 0.00, -0.00, -1.00, 486.7, 220.3)">e</text><text xml:space="preserve" font-family=".LucidaGrandeUI,.Lucida Grande UI" font-size="34.0" fill="#4185F4" transform="matrix(1.00, 0.00, -0.00, -1.00, 505.7, 220.3)">l</text><text xml:space="preserve" font-family=".LucidaGrandeUI,.Lucida Grande UI" font-size="34.0" fill="#4185F4" transform="matrix(1.00, 0.00, -0.00, -1.00, 515.5, 220.3)">e</text><text xml:space="preserve" font-family=".LucidaGrandeUI,.Lucida Grande UI" font-size="34.0" fill="#4185F4" transform="matrix(1.00, 0.00, -0.00, -1.00, 534.5, 220.3)">c</text><text xml:space="preserve" font-family=".LucidaGrandeUI,.Lucida Grande UI" font-size="34.0" fill="#4185F4" transform="matrix(1.00, 0.00, -0.00, -1.00, 551.9, 220.3)">t</text><text xml:space="preserve" font-family=".LucidaGrandeUI,.Lucida Grande UI" font-size="34.0" fill="#4185F4" transform="matrix(1.00, 0.00, -0.00, -1.00, 564.6, 220.3)">o</text><text xml:space="preserve" font-family=".LucidaGrandeUI,.Lucida Grande UI" font-size="34.0" fill="#4185F4" transform="matrix(1.00, 0.00, -0.00, -1.00, 585.5, 220.3)">r</text><text xml:space="preserve" font-family=".LucidaGrandeUI,.Lucida Grande UI" font-size="34.0" fill="#A3A3A3" transform="matrix(1.00, 0.00, -0.00, -1.00, 599.4, 220.3)">(</text><text xml:space="preserve" font-family=".LucidaGrandeUI,.Lucida Grande UI" font-size="34.0" fill="#0D9D57" transform="matrix(1.00, 0.00, -0.00, -1.00, 610.4, 220.3)">'</text><text xml:space="preserve" font-family=".LucidaGrandeUI,.Lucida Grande UI" font-size="34.0" fill="#0D9D57" transform="matrix(1.00, 0.00, -0.00, -1.00, 618.2, 220.3)">p</text><text xml:space="preserve" font-family=".LucidaGrandeUI,.Lucida Grande UI" font-size="34.0" fill="#0D9D57" transform="matrix(1.00, 0.00, -0.00, -1.00, 639.6, 220.3)">a</text><text xml:space="preserve" font-family=".LucidaGrandeUI,.Lucida Grande UI" font-size="34.0" fill="#0D9D57" transform="matrix(1.00, 0.00, -0.00, -1.00, 658.4, 220.3)">p</text><text xml:space="preserve" font-family=".LucidaGrandeUI,.Lucida Grande UI" font-size="34.0" fill="#0D9D57" transform="matrix(1.00, 0.00, -0.00, -1.00, 679.8, 220.3)">e</text><text xml:space="preserve" font-family=".LucidaGrandeUI,.Lucida Grande UI" font-size="34.0" fill="#0D9D57" transform="matrix(1.00, 0.00, -0.00, -1.00, 698.8, 220.3)">r</text><text xml:space="preserve" font-family=".LucidaGrandeUI,.Lucida Grande UI" font-size="34.0" fill="#0D9D57" transform="matrix(1.00, 0.00, -0.00, -1.00, 712.7, 220.3)">-</text><text xml:space="preserve" font-family=".LucidaGrandeUI,.Lucida Grande UI" font-size="34.0" fill="#0D9D57" transform="matrix(1.00, 0.00, -0.00, -1.00, 732.4, 220.3)">t</text><text xml:space="preserve" font-family=".LucidaGrandeUI,.Lucida Grande UI" font-size="34.0" fill="#0D9D57" transform="matrix(1.00, 0.00, -0.00, -1.00, 745.1, 220.3)">a</text><text xml:space="preserve" font-family=".LucidaGrandeUI,.Lucida Grande UI" font-size="34.0" fill="#0D9D57" transform="matrix(1.00, 0.00, -0.00, -1.00, 763.9, 220.3)">b</text><text xml:space="preserve" font-family=".LucidaGrandeUI,.Lucida Grande UI" font-size="34.0" fill="#0D9D57" transform="matrix(1.00, 0.00, -0.00, -1.00, 785.3, 220.3)">s</text><text xml:space="preserve" font-family=".LucidaGrandeUI,.Lucida Grande UI" font-size="34.0" fill="#0D9D57" transform="matrix(1.00, 0.00, -0.00, -1.00, 801.0, 220.3)">'</text><text xml:space="preserve" font-family=".LucidaGrandeUI,.Lucida Grande UI" font-size="34.0" fill="#A3A3A3" transform="matrix(1.00, 0.00, -0.00, -1.00, 808.7, 220.3)">)</text><text xml:space="preserve" font-family=".LucidaGrandeUI,.Lucida Grande UI" font-size="34.0" fill="#A3A3A3" transform="matrix(1.00, 0.00, -0.00, -1.00, 819.8, 220.3)">;</text><text xml:space="preserve" font-family=".LucidaGrandeUI,.Lucida Grande UI" font-size="34.0" fill="#4185F4" transform="matrix(1.00, 0.00, -0.00, -1.00, 830.5, 220.3)"></text><text xml:space="preserve" font-family=".LucidaGrandeUI,.Lucida Grande UI" font-size="34.0" fill="#4185F4" transform="matrix(1.00, 0.00, -0.00, -1.00, 21.4, 172.3)">t</text><text xml:space="preserve" font-family=".LucidaGrandeUI,.Lucida Grande UI" font-size="34.0" fill="#4185F4" transform="matrix(1.00, 0.00, -0.00, -1.00, 34.1, 172.3)">a</text><text xml:space="preserve" font-family=".LucidaGrandeUI,.Lucida Grande UI" font-size="34.0" fill="#4185F4" transform="matrix(1.00, 0.00, -0.00, -1.00, 52.9, 172.3)">b</text><text xml:space="preserve" font-family=".LucidaGrandeUI,.Lucida Grande UI" font-size="34.0" fill="#4185F4" transform="matrix(1.00, 0.00, -0.00, -1.00, 74.3, 172.3)">s</text><text xml:space="preserve" font-family=".LucidaGrandeUI,.Lucida Grande UI" font-size="34.0" fill="#A3A3A3" transform="matrix(1.00, 0.00, -0.00, -1.00, 90.0, 172.3)">.</text><text xml:space="preserve" font-family=".LucidaGrandeUI,.Lucida Grande UI" font-size="34.0" fill="#4185F4" transform="matrix(1.00, 0.00, -0.00, -1.00, 100.8, 172.3)">a</text><text xml:space="preserve" font-family=".LucidaGrandeUI,.Lucida Grande UI" font-size="34.0" fill="#4185F4" transform="matrix(1.00, 0.00, -0.00, -1.00, 119.6, 172.3)">d</text><text xml:space="preserve" font-family=".LucidaGrandeUI,.Lucida Grande UI" font-size="34.0" fill="#4185F4" transform="matrix(1.00, 0.00, -0.00, -1.00, 141.0, 172.3)">d</text><text xml:space="preserve" font-family=".LucidaGrandeUI,.Lucida Grande UI" font-size="34.0" fill="#4185F4" transform="matrix(1.00, 0.00, -0.00, -1.00, 162.4, 172.3)">E</text><text xml:space="preserve" font-family=".LucidaGrandeUI,.Lucida Grande UI" font-size="34.0" fill="#4185F4" transform="matrix(1.00, 0.00, -0.00, -1.00, 180.8, 172.3)">v</text><text xml:space="preserve" font-family=".LucidaGrandeUI,.Lucida Grande UI" font-size="34.0" fill="#4185F4" transform="matrix(1.00, 0.00, -0.00, -1.00, 198.3, 172.3)">e</text><text xml:space="preserve" font-family=".LucidaGrandeUI,.Lucida Grande UI" font-size="34.0" fill="#4185F4" transform="matrix(1.00, 0.00, -0.00, -1.00, 217.3, 172.3)">n</text><text xml:space="preserve" font-family=".LucidaGrandeUI,.Lucida Grande UI" font-size="34.0" fill="#4185F4" transform="matrix(1.00, 0.00, -0.00, -1.00, 238.4, 172.3)">t</text><text xml:space="preserve" font-family=".LucidaGrandeUI,.Lucida Grande UI" font-size="34.0" fill="#4185F4" transform="matrix(1.00, 0.00, -0.00, -1.00, 251.1, 172.3)">L</text><text xml:space="preserve" font-family=".LucidaGrandeUI,.Lucida Grande UI" font-size="34.0" fill="#4185F4" transform="matrix(1.00, 0.00, -0.00, -1.00, 269.0, 172.3)">i</text><text xml:space="preserve" font-family=".LucidaGrandeUI,.Lucida Grande UI" font-size="34.0" fill="#4185F4" transform="matrix(1.00, 0.00, -0.00, -1.00, 278.9, 172.3)">s</text><text xml:space="preserve" font-family=".LucidaGrandeUI,.Lucida Grande UI" font-size="34.0" fill="#4185F4" transform="matrix(1.00, 0.00, -0.00, -1.00, 294.6, 172.3)">t</text><text xml:space="preserve" font-family=".LucidaGrandeUI,.Lucida Grande UI" font-size="34.0" fill="#4185F4" transform="matrix(1.00, 0.00, -0.00, -1.00, 307.3, 172.3)">e</text><text xml:space="preserve" font-family=".LucidaGrandeUI,.Lucida Grande UI" font-size="34.0" fill="#4185F4" transform="matrix(1.00, 0.00, -0.00, -1.00, 326.3, 172.3)">n</text><text xml:space="preserve" font-family=".LucidaGrandeUI,.Lucida Grande UI" font-size="34.0" fill="#4185F4" transform="matrix(1.00, 0.00, -0.00, -1.00, 347.4, 172.3)">e</text><text xml:space="preserve" font-family=".LucidaGrandeUI,.Lucida Grande UI" font-size="34.0" fill="#4185F4" transform="matrix(1.00, 0.00, -0.00, -1.00, 366.3, 172.3)">r</text><text xml:space="preserve" font-family=".LucidaGrandeUI,.Lucida Grande UI" font-size="34.0" fill="#A3A3A3" transform="matrix(1.00, 0.00, -0.00, -1.00, 380.2, 172.3)">(</text><text xml:space="preserve" font-family=".LucidaGrandeUI,.Lucida Grande UI" font-size="34.0" fill="#0D9D57" transform="matrix(1.00, 0.00, -0.00, -1.00, 391.2, 172.3)">'</text><text xml:space="preserve" font-family=".LucidaGrandeUI,.Lucida Grande UI" font-size="34.0" fill="#0D9D57" transform="matrix(1.00, 0.00, -0.00, -1.00, 399.0, 172.3)">c</text><text xml:space="preserve" font-family=".LucidaGrandeUI,.Lucida Grande UI" font-size="34.0" fill="#0D9D57" transform="matrix(1.00, 0.00, -0.00, -1.00, 416.5, 172.3)">o</text><text xml:space="preserve" font-family=".LucidaGrandeUI,.Lucida Grande UI" font-size="34.0" fill="#0D9D57" transform="matrix(1.00, 0.00, -0.00, -1.00, 437.3, 172.3)">r</text><text xml:space="preserve" font-family=".LucidaGrandeUI,.Lucida Grande UI" font-size="34.0" fill="#0D9D57" transform="matrix(1.00, 0.00, -0.00, -1.00, 451.3, 172.3)">e</text><text xml:space="preserve" font-family=".LucidaGrandeUI,.Lucida Grande UI" font-size="34.0" fill="#0D9D57" transform="matrix(1.00, 0.00, -0.00, -1.00, 470.2, 172.3)">-</text><text xml:space="preserve" font-family=".LucidaGrandeUI,.Lucida Grande UI" font-size="34.0" fill="#0D9D57" transform="matrix(1.00, 0.00, -0.00, -1.00, 489.9, 172.3)">a</text><text xml:space="preserve" font-family=".LucidaGrandeUI,.Lucida Grande UI" font-size="34.0" fill="#0D9D57" transform="matrix(1.00, 0.00, -0.00, -1.00, 508.7, 172.3)">c</text><text xml:space="preserve" font-family=".LucidaGrandeUI,.Lucida Grande UI" font-size="34.0" fill="#0D9D57" transform="matrix(1.00, 0.00, -0.00, -1.00, 526.1, 172.3)">t</text><text xml:space="preserve" font-family=".LucidaGrandeUI,.Lucida Grande UI" font-size="34.0" fill="#0D9D57" transform="matrix(1.00, 0.00, -0.00, -1.00, 538.8, 172.3)">i</text><text xml:space="preserve" font-family=".LucidaGrandeUI,.Lucida Grande UI" font-size="34.0" fill="#0D9D57" transform="matrix(1.00, 0.00, -0.00, -1.00, 548.6, 172.3)">v</text><text xml:space="preserve" font-family=".LucidaGrandeUI,.Lucida Grande UI" font-size="34.0" fill="#0D9D57" transform="matrix(1.00, 0.00, -0.00, -1.00, 566.1, 172.3)">a</text><text xml:space="preserve" font-family=".LucidaGrandeUI,.Lucida Grande UI" font-size="34.0" fill="#0D9D57" transform="matrix(1.00, 0.00, -0.00, -1.00, 584.9, 172.3)">t</text><text xml:space="preserve" font-family=".LucidaGrandeUI,.Lucida Grande UI" font-size="34.0" fill="#0D9D57" transform="matrix(1.00, 0.00, -0.00, -1.00, 597.6, 172.3)">e</text><text xml:space="preserve" font-family=".LucidaGrandeUI,.Lucida Grande UI" font-size="34.0" fill="#0D9D57" transform="matrix(1.00, 0.00, -0.00, -1.00, 616.6, 172.3)">'</text><text xml:space="preserve" font-family=".LucidaGrandeUI,.Lucida Grande UI" font-size="34.0" fill="#A3A3A3" transform="matrix(1.00, 0.00, -0.00, -1.00, 624.3, 172.3)">,</text><text xml:space="preserve" font-family=".LucidaGrandeUI,.Lucida Grande UI" font-size="34.0" fill="#4185F4" transform="matrix(1.00, 0.00, -0.00, -1.00, 635.1, 172.3)"> </text><text xml:space="preserve" font-family=".LucidaGrandeUI,.Lucida Grande UI" font-size="34.0" fill="#4185F4" transform="matrix(1.00, 0.00, -0.00, -1.00, 645.8, 172.3)">f</text><text xml:space="preserve" font-family=".LucidaGrandeUI,.Lucida Grande UI" font-size="34.0" fill="#4185F4" transform="matrix(1.00, 0.00, -0.00, -1.00, 658.3, 172.3)">u</text><text xml:space="preserve" font-family=".LucidaGrandeUI,.Lucida Grande UI" font-size="34.0" fill="#4185F4" transform="matrix(1.00, 0.00, -0.00, -1.00, 679.4, 172.3)">n</text><text xml:space="preserve" font-family=".LucidaGrandeUI,.Lucida Grande UI" font-size="34.0" fill="#4185F4" transform="matrix(1.00, 0.00, -0.00, -1.00, 700.5, 172.3)">c</text><text xml:space="preserve" font-family=".LucidaGrandeUI,.Lucida Grande UI" font-size="34.0" fill="#4185F4" transform="matrix(1.00, 0.00, -0.00, -1.00, 717.9, 172.3)">t</text><text xml:space="preserve" font-family=".LucidaGrandeUI,.Lucida Grande UI" font-size="34.0" fill="#4185F4" transform="matrix(1.00, 0.00, -0.00, -1.00, 730.6, 172.3)">i</text><text xml:space="preserve" font-family=".LucidaGrandeUI,.Lucida Grande UI" font-size="34.0" fill="#4185F4" transform="matrix(1.00, 0.00, -0.00, -1.00, 740.5, 172.3)">o</text><text xml:space="preserve" font-family=".LucidaGrandeUI,.Lucida Grande UI" font-size="34.0" fill="#4185F4" transform="matrix(1.00, 0.00, -0.00, -1.00, 761.4, 172.3)">n</text><text xml:space="preserve" font-family=".LucidaGrandeUI,.Lucida Grande UI" font-size="34.0" fill="#A3A3A3" transform="matrix(1.00, 0.00, -0.00, -1.00, 782.5, 172.3)">(</text><text xml:space="preserve" font-family=".LucidaGrandeUI,.Lucida Grande UI" font-size="34.0" fill="#A3A3A3" transform="matrix(1.00, 0.00, -0.00, -1.00, 793.5, 172.3)">)</text><text xml:space="preserve" font-family=".LucidaGrandeUI,.Lucida Grande UI" font-size="34.0" fill="#4185F4" transform="matrix(1.00, 0.00, -0.00, -1.00, 804.6, 172.3)"> </text><text xml:space="preserve" font-family=".LucidaGrandeUI,.Lucida Grande UI" font-size="34.0" fill="#A3A3A3" transform="matrix(1.00, 0.00, -0.00, -1.00, 815.3, 172.3)">{</text><text xml:space="preserve" font-family=".LucidaGrandeUI,.Lucida Grande UI" font-size="34.0" fill="#4185F4" transform="matrix(1.00, 0.00, -0.00, -1.00, 826.4, 172.3)"></text><text xml:space="preserve" font-family=".LucidaGrandeUI,.Lucida Grande UI" font-size="34.0" fill="#4185F4" transform="matrix(1.00, 0.00, -0.00, -1.00, 21.4, 124.3)"> </text><text xml:space="preserve" font-family=".LucidaGrandeUI,.Lucida Grande UI" font-size="34.0" fill="#4185F4" transform="matrix(1.00, 0.00, -0.00, -1.00, 32.2, 124.3)"> </text><text xml:space="preserve" font-family=".LucidaGrandeUI,.Lucida Grande UI" font-size="34.0" fill="#4185F4" transform="matrix(1.00, 0.00, -0.00, -1.00, 43.0, 124.3)">c</text><text xml:space="preserve" font-family=".LucidaGrandeUI,.Lucida Grande UI" font-size="34.0" fill="#4185F4" transform="matrix(1.00, 0.00, -0.00, -1.00, 60.4, 124.3)">o</text><text xml:space="preserve" font-family=".LucidaGrandeUI,.Lucida Grande UI" font-size="34.0" fill="#4185F4" transform="matrix(1.00, 0.00, -0.00, -1.00, 81.3, 124.3)">n</text><text xml:space="preserve" font-family=".LucidaGrandeUI,.Lucida Grande UI" font-size="34.0" fill="#4185F4" transform="matrix(1.00, 0.00, -0.00, -1.00, 102.4, 124.3)">s</text><text xml:space="preserve" font-family=".LucidaGrandeUI,.Lucida Grande UI" font-size="34.0" fill="#4185F4" transform="matrix(1.00, 0.00, -0.00, -1.00, 118.1, 124.3)">o</text><text xml:space="preserve" font-family=".LucidaGrandeUI,.Lucida Grande UI" font-size="34.0" fill="#4185F4" transform="matrix(1.00, 0.00, -0.00, -1.00, 139.0, 124.3)">l</text><text xml:space="preserve" font-family=".LucidaGrandeUI,.Lucida Grande UI" font-size="34.0" fill="#4185F4" transform="matrix(1.00, 0.00, -0.00, -1.00, 148.9, 124.3)">e</text><text xml:space="preserve" font-family=".LucidaGrandeUI,.Lucida Grande UI" font-size="34.0" fill="#A3A3A3" transform="matrix(1.00, 0.00, -0.00, -1.00, 167.7, 124.3)">.</text><text xml:space="preserve" font-family=".LucidaGrandeUI,.Lucida Grande UI" font-size="34.0" fill="#4185F4" transform="matrix(1.00, 0.00, -0.00, -1.00, 178.5, 124.3)">l</text><text xml:space="preserve" font-family=".LucidaGrandeUI,.Lucida Grande UI" font-size="34.0" fill="#4185F4" transform="matrix(1.00, 0.00, -0.00, -1.00, 188.3, 124.3)">o</text><text xml:space="preserve" font-family=".LucidaGrandeUI,.Lucida Grande UI" font-size="34.0" fill="#4185F4" transform="matrix(1.00, 0.00, -0.00, -1.00, 209.2, 124.3)">g</text><text xml:space="preserve" font-family=".LucidaGrandeUI,.Lucida Grande UI" font-size="34.0" fill="#A3A3A3" transform="matrix(1.00, 0.00, -0.00, -1.00, 230.4, 124.3)">(</text><text xml:space="preserve" font-family=".LucidaGrandeUI,.Lucida Grande UI" font-size="34.0" fill="#4185F4" transform="matrix(1.00, 0.00, -0.00, -1.00, 241.4, 124.3)">t</text><text xml:space="preserve" font-family=".LucidaGrandeUI,.Lucida Grande UI" font-size="34.0" fill="#4185F4" transform="matrix(1.00, 0.00, -0.00, -1.00, 254.2, 124.3)">h</text><text xml:space="preserve" font-family=".LucidaGrandeUI,.Lucida Grande UI" font-size="34.0" fill="#4185F4" transform="matrix(1.00, 0.00, -0.00, -1.00, 275.3, 124.3)">i</text><text xml:space="preserve" font-family=".LucidaGrandeUI,.Lucida Grande UI" font-size="34.0" fill="#4185F4" transform="matrix(1.00, 0.00, -0.00, -1.00, 285.1, 124.3)">s</text><text xml:space="preserve" font-family=".LucidaGrandeUI,.Lucida Grande UI" font-size="34.0" fill="#A3A3A3" transform="matrix(1.00, 0.00, -0.00, -1.00, 300.8, 124.3)">.</text><text xml:space="preserve" font-family=".LucidaGrandeUI,.Lucida Grande UI" font-size="34.0" fill="#4185F4" transform="matrix(1.00, 0.00, -0.00, -1.00, 311.6, 124.3)">s</text><text xml:space="preserve" font-family=".LucidaGrandeUI,.Lucida Grande UI" font-size="34.0" fill="#4185F4" transform="matrix(1.00, 0.00, -0.00, -1.00, 327.3, 124.3)">e</text><text xml:space="preserve" font-family=".LucidaGrandeUI,.Lucida Grande UI" font-size="34.0" fill="#4185F4" transform="matrix(1.00, 0.00, -0.00, -1.00, 346.3, 124.3)">l</text><text xml:space="preserve" font-family=".LucidaGrandeUI,.Lucida Grande UI" font-size="34.0" fill="#4185F4" transform="matrix(1.00, 0.00, -0.00, -1.00, 356.1, 124.3)">e</text><text xml:space="preserve" font-family=".LucidaGrandeUI,.Lucida Grande UI" font-size="34.0" fill="#4185F4" transform="matrix(1.00, 0.00, -0.00, -1.00, 375.0, 124.3)">c</text><text xml:space="preserve" font-family=".LucidaGrandeUI,.Lucida Grande UI" font-size="34.0" fill="#4185F4" transform="matrix(1.00, 0.00, -0.00, -1.00, 392.5, 124.3)">t</text><text xml:space="preserve" font-family=".LucidaGrandeUI,.Lucida Grande UI" font-size="34.0" fill="#4185F4" transform="matrix(1.00, 0.00, -0.00, -1.00, 405.2, 124.3)">e</text><text xml:space="preserve" font-family=".LucidaGrandeUI,.Lucida Grande UI" font-size="34.0" fill="#4185F4" transform="matrix(1.00, 0.00, -0.00, -1.00, 424.1, 124.3)">d</text><text xml:space="preserve" font-family=".LucidaGrandeUI,.Lucida Grande UI" font-size="34.0" fill="#A3A3A3" transform="matrix(1.00, 0.00, -0.00, -1.00, 445.5, 124.3)">)</text><text xml:space="preserve" font-family=".LucidaGrandeUI,.Lucida Grande UI" font-size="34.0" fill="#A3A3A3" transform="matrix(1.00, 0.00, -0.00, -1.00, 456.5, 124.3)">;</text><text xml:space="preserve" font-family=".LucidaGrandeUI,.Lucida Grande UI" font-size="34.0" fill="#4185F4" transform="matrix(1.00, 0.00, -0.00, -1.00, 467.3, 124.3)"></text><text xml:space="preserve" font-family=".LucidaGrandeUI,.Lucida Grande UI" font-size="34.0" fill="#A3A3A3" transform="matrix(1.00, 0.00, -0.00, -1.00, 21.4, 76.3)">}</text><text xml:space="preserve" font-family=".LucidaGrandeUI,.Lucida Grande UI" font-size="34.0" fill="#A3A3A3" transform="matrix(1.00, 0.00, -0.00, -1.00, 32.5, 76.3)">)</text><text xml:space="preserve" font-family=".LucidaGrandeUI,.Lucida Grande UI" font-size="34.0" fill="#A3A3A3" transform="matrix(1.00, 0.00, -0.00, -1.00, 43.6, 76.3)">;</text></g></g></g></svg>