<?xml version="1.0" encoding="UTF-8" standalone="no"?><svg xmlns="http://www.w3.org/2000/svg" xmlns:xlink="http://www.w3.org/1999/xlink" clip-rule="evenodd" stroke-miterlimit="10" viewBox="0 0 1920 1080"><desc>SVG generated by Keynote</desc><defs></defs><g transform="matrix(1.00, 0.00, -0.00, -1.00, 0.0, 1080.0)"><path d="M 0.0 1080.0 L 1920.0 1080.0 L 1920.0 0.0 L 0.0 0.0 Z M 0.0 1080.0 " fill="#FFFFFF"></path><g><clipPath id="clip0x6080030adb60"><path d="M 321.1 743.1 L 1597.3 743.1 L 1597.3 885.4 L 321.1 885.4 Z M 321.1 743.1 "></path></clipPath><g clip-path="url(#clip0x6080030adb60)"><path d="M 322.0 884.0 L 1596.0 884.0 L 1596.0 744.0 L 322.0 744.0 Z M 322.1 884.4 " fill="#E0E0E0"></path></g></g><g><clipPath id="clip0x6080030ad980"><path d="M 321.1 887.6 L 638.5 887.6 L 638.5 1029.9 L 321.1 1029.9 Z M 321.1 887.6 "></path></clipPath><g clip-path="url(#clip0x6080030ad980)"><path d="M 322.0 1029.0 L 638.0 1029.0 L 638.0 889.0 L 322.0 889.0 Z M 322.1 1028.9 " fill="#E0E0E0"></path></g></g><g><clipPath id="clip0x6080030adaa0"><path d="M 311.0 888.6 L 648.6 888.6 L 648.6 1028.9 L 311.0 1028.9 Z M 311.0 888.6 "></path></clipPath><g clip-path="url(#clip0x6080030adaa0)"><text xml:space="preserve" font-family="Roboto-Regular,Roboto" font-size="50.0" fill="#404040" transform="matrix(1.00, 0.00, -0.00, -1.00, 404.4, 939.0)">R</text><text xml:space="preserve" font-family="Roboto-Regular,Roboto" font-size="50.0" fill="#404040" transform="matrix(1.00, 0.00, -0.00, -1.00, 437.5, 939.0)">o</text><text xml:space="preserve" font-family="Roboto-Regular,Roboto" font-size="50.0" fill="#404040" transform="matrix(1.00, 0.00, -0.00, -1.00, 465.9, 939.0)">u</text><text xml:space="preserve" font-family="Roboto-Regular,Roboto" font-size="50.0" fill="#404040" transform="matrix(1.00, 0.00, -0.00, -1.00, 494.4, 939.0)">t</text><text xml:space="preserve" font-family="Roboto-Regular,Roboto" font-size="50.0" fill="#404040" transform="matrix(1.00, 0.00, -0.00, -1.00, 511.7, 939.0)">e</text><text xml:space="preserve" font-family="Roboto-Regular,Roboto" font-size="50.0" fill="#404040" transform="matrix(1.00, 0.00, -0.00, -1.00, 538.1, 939.0)">r</text></g></g><g><clipPath id="clip0x6080030ad560"><path d="M 641.2 887.6 L 958.7 887.6 L 958.7 1029.9 L 641.2 1029.9 Z M 641.2 887.6 "></path></clipPath><g clip-path="url(#clip0x6080030ad560)"><path d="M 642.0 1029.0 L 958.0 1029.0 L 958.0 889.0 L 642.0 889.0 Z M 642.2 1028.9 " fill="#E0E0E0"></path></g></g><g><clipPath id="clip0x6080030ad0e0"><path d="M 631.1 888.6 L 968.7 888.6 L 968.7 1028.9 L 631.1 1028.9 Z M 631.1 888.6 "></path></clipPath><g clip-path="url(#clip0x6080030ad0e0)"><text xml:space="preserve" font-family="Roboto-Regular,Roboto" font-size="50.0" fill="#404040" transform="matrix(1.00, 0.00, -0.00, -1.00, 693.1, 939.0)">D</text><text xml:space="preserve" font-family="Roboto-Regular,Roboto" font-size="50.0" fill="#404040" transform="matrix(1.00, 0.00, -0.00, -1.00, 726.0, 939.0)">a</text><text xml:space="preserve" font-family="Roboto-Regular,Roboto" font-size="50.0" fill="#404040" transform="matrix(1.00, 0.00, -0.00, -1.00, 753.5, 939.0)">t</text><text xml:space="preserve" font-family="Roboto-Regular,Roboto" font-size="50.0" fill="#404040" transform="matrix(1.00, 0.00, -0.00, -1.00, 770.7, 939.0)">a</text><text xml:space="preserve" font-family="Roboto-Regular,Roboto" font-size="50.0" fill="#404040" transform="matrix(1.00, 0.00, -0.00, -1.00, 798.2, 939.0)"> </text><text xml:space="preserve" font-family="Roboto-Regular,Roboto" font-size="50.0" fill="#404040" transform="matrix(1.00, 0.00, -0.00, -1.00, 810.6, 939.0)">f</text><text xml:space="preserve" font-family="Roboto-Regular,Roboto" font-size="50.0" fill="#404040" transform="matrix(1.00, 0.00, -0.00, -1.00, 827.9, 939.0)">l</text><text xml:space="preserve" font-family="Roboto-Regular,Roboto" font-size="50.0" fill="#404040" transform="matrix(1.00, 0.00, -0.00, -1.00, 840.5, 939.0)">o</text><text xml:space="preserve" font-family="Roboto-Regular,Roboto" font-size="50.0" fill="#404040" transform="matrix(1.00, 0.00, -0.00, -1.00, 868.9, 939.0)">w</text></g></g><g><clipPath id="clip0x6080030acc00"><path d="M 961.3 887.6 L 1278.8 887.6 L 1278.8 1029.9 L 961.3 1029.9 Z M 961.3 887.6 "></path></clipPath><g clip-path="url(#clip0x6080030acc00)"><path d="M 962.0 1029.0 L 1278.0 1029.0 L 1278.0 889.0 L 962.0 889.0 Z M 962.3 1028.9 " fill="#E0E0E0"></path></g></g><g><clipPath id="clip0x6080030ac900"><path d="M 951.3 888.6 L 1288.9 888.6 L 1288.9 1028.9 L 951.3 1028.9 Z M 951.3 888.6 "></path></clipPath><g clip-path="url(#clip0x6080030ac900)"><text xml:space="preserve" font-family="Roboto-Regular,Roboto" font-size="50.0" fill="#404040" transform="matrix(1.00, 0.00, -0.00, -1.00, 1022.9, 939.0)">M</text><text xml:space="preserve" font-family="Roboto-Regular,Roboto" font-size="50.0" fill="#404040" transform="matrix(1.00, 0.00, -0.00, -1.00, 1066.8, 939.0)">o</text><text xml:space="preserve" font-family="Roboto-Regular,Roboto" font-size="50.0" fill="#404040" transform="matrix(1.00, 0.00, -0.00, -1.00, 1095.3, 939.0)">d</text><text xml:space="preserve" font-family="Roboto-Regular,Roboto" font-size="50.0" fill="#404040" transform="matrix(1.00, 0.00, -0.00, -1.00, 1123.7, 939.0)">u</text><text xml:space="preserve" font-family="Roboto-Regular,Roboto" font-size="50.0" fill="#404040" transform="matrix(1.00, 0.00, -0.00, -1.00, 1152.1, 939.0)">l</text><text xml:space="preserve" font-family="Roboto-Regular,Roboto" font-size="50.0" fill="#404040" transform="matrix(1.00, 0.00, -0.00, -1.00, 1164.7, 939.0)">e</text><text xml:space="preserve" font-family="Roboto-Regular,Roboto" font-size="50.0" fill="#404040" transform="matrix(1.00, 0.00, -0.00, -1.00, 1191.2, 939.0)">s</text></g></g><g><clipPath id="clip0x6080030ac480"><path d="M 1281.5 887.6 L 1598.9 887.6 L 1598.9 1029.9 L 1281.5 1029.9 Z M 1281.5 887.6 "></path></clipPath><g clip-path="url(#clip0x6080030ac480)"><path d="M 1282.0 1029.0 L 1598.0 1029.0 L 1598.0 889.0 L 1282.0 889.0 Z M 1282.5 1028.9 " fill="#E0E0E0"></path></g></g><g><clipPath id="clip0x6080030ac180"><path d="M 1271.4 888.6 L 1609.0 888.6 L 1609.0 1028.9 L 1271.4 1028.9 Z M 1271.4 888.6 "></path></clipPath><g clip-path="url(#clip0x6080030ac180)"><text xml:space="preserve" font-family="Roboto-Regular,Roboto" font-size="50.0" fill="#404040" transform="matrix(1.00, 0.00, -0.00, -1.00, 1329.0, 939.0)">D</text><text xml:space="preserve" font-family="Roboto-Regular,Roboto" font-size="50.0" fill="#404040" transform="matrix(1.00, 0.00, -0.00, -1.00, 1361.9, 939.0)">i</text><text xml:space="preserve" font-family="Roboto-Regular,Roboto" font-size="50.0" fill="#404040" transform="matrix(1.00, 0.00, -0.00, -1.00, 1374.5, 939.0)">r</text><text xml:space="preserve" font-family="Roboto-Regular,Roboto" font-size="50.0" fill="#404040" transform="matrix(1.00, 0.00, -0.00, -1.00, 1391.1, 939.0)">e</text><text xml:space="preserve" font-family="Roboto-Regular,Roboto" font-size="50.0" fill="#404040" transform="matrix(1.00, 0.00, -0.00, -1.00, 1417.6, 939.0)">c</text><text xml:space="preserve" font-family="Roboto-Regular,Roboto" font-size="50.0" fill="#404040" transform="matrix(1.00, 0.00, -0.00, -1.00, 1444.1, 939.0)">t</text><text xml:space="preserve" font-family="Roboto-Regular,Roboto" font-size="50.0" fill="#404040" transform="matrix(1.00, 0.00, -0.00, -1.00, 1461.4, 939.0)">i</text><text xml:space="preserve" font-family="Roboto-Regular,Roboto" font-size="50.0" fill="#404040" transform="matrix(1.00, 0.00, -0.00, -1.00, 1474.0, 939.0)">v</text><text xml:space="preserve" font-family="Roboto-Regular,Roboto" font-size="50.0" fill="#404040" transform="matrix(1.00, 0.00, -0.00, -1.00, 1498.8, 939.0)">e</text><text xml:space="preserve" font-family="Roboto-Regular,Roboto" font-size="50.0" fill="#404040" transform="matrix(1.00, 0.00, -0.00, -1.00, 1525.2, 939.0)">s</text></g></g><g><clipPath id="clip0x6080030aba60"><path d="M 771.4 766.1 L 1147.0 766.1 L 1147.0 862.3 L 771.4 862.3 Z M 771.4 766.1 "></path></clipPath><g clip-path="url(#clip0x6080030aba60)"><image xlink:href="../../F6EE5EB5-35E5-42D6-8D80-56C5DA967E8A/assets/A95514FD730F30DCA26ACD47ABE749CE.png" width="687.00" height="176.00" transform="matrix(0.55, 0.00, -0.00, -0.55, 771.4, 862.3)"></image></g></g><g><clipPath id="clip0x6080030ab9a0"><path d="M 321.1 398.1 L 1597.3 398.1 L 1597.3 538.0 L 321.1 538.0 Z M 321.1 398.1 "></path></clipPath><g clip-path="url(#clip0x6080030ab9a0)"><path d="M 322.0 537.0 L 1596.0 537.0 L 1596.0 399.0 L 322.0 399.0 Z M 322.1 537.0 " fill="#E0E0E0"></path></g></g><g><clipPath id="clip0x6080030ab580"><path d="M 321.1 539.6 L 638.5 539.6 L 638.5 681.9 L 321.1 681.9 Z M 321.1 539.6 "></path></clipPath><g clip-path="url(#clip0x6080030ab580)"><path d="M 322.0 681.0 L 638.0 681.0 L 638.0 541.0 L 322.0 541.0 Z M 322.1 680.9 " fill="#E0E0E0"></path></g></g><g><clipPath id="clip0x6080030ab2e0"><path d="M 311.0 540.6 L 648.6 540.6 L 648.6 680.9 L 311.0 680.9 Z M 311.0 540.6 "></path></clipPath><g clip-path="url(#clip0x6080030ab2e0)"><text xml:space="preserve" font-family="Roboto-Regular,Roboto" font-size="50.0" fill="#404040" transform="matrix(1.00, 0.00, -0.00, -1.00, 408.0, 591.0)">S</text><text xml:space="preserve" font-family="Roboto-Regular,Roboto" font-size="50.0" fill="#404040" transform="matrix(1.00, 0.00, -0.00, -1.00, 439.1, 591.0)">e</text><text xml:space="preserve" font-family="Roboto-Regular,Roboto" font-size="50.0" fill="#404040" transform="matrix(1.00, 0.00, -0.00, -1.00, 465.6, 591.0)">r</text><text xml:space="preserve" font-family="Roboto-Regular,Roboto" font-size="50.0" fill="#404040" transform="matrix(1.00, 0.00, -0.00, -1.00, 483.1, 591.0)">v</text><text xml:space="preserve" font-family="Roboto-Regular,Roboto" font-size="50.0" fill="#404040" transform="matrix(1.00, 0.00, -0.00, -1.00, 507.9, 591.0)">e</text><text xml:space="preserve" font-family="Roboto-Regular,Roboto" font-size="50.0" fill="#404040" transform="matrix(1.00, 0.00, -0.00, -1.00, 534.4, 591.0)">r</text></g></g><g><clipPath id="clip0x6080030aae60"><path d="M 641.2 539.6 L 958.7 539.6 L 958.7 681.9 L 641.2 681.9 Z M 641.2 539.6 "></path></clipPath><g clip-path="url(#clip0x6080030aae60)"><path d="M 642.0 681.0 L 958.0 681.0 L 958.0 541.0 L 642.0 541.0 Z M 642.2 680.9 " fill="#E0E0E0"></path></g></g><g><clipPath id="clip0x6080030aac20"><path d="M 631.1 540.6 L 968.7 540.6 L 968.7 680.9 L 631.1 680.9 Z M 631.1 540.6 "></path></clipPath><g clip-path="url(#clip0x6080030aac20)"><text xml:space="preserve" font-family="Roboto-Regular,Roboto" font-size="50.0" fill="#404040" transform="matrix(1.00, 0.00, -0.00, -1.00, 673.7, 591.0)">T</text><text xml:space="preserve" font-family="Roboto-Regular,Roboto" font-size="50.0" fill="#404040" transform="matrix(1.00, 0.00, -0.00, -1.00, 700.8, 591.0)">e</text><text xml:space="preserve" font-family="Roboto-Regular,Roboto" font-size="50.0" fill="#404040" transform="matrix(1.00, 0.00, -0.00, -1.00, 727.2, 591.0)">m</text><text xml:space="preserve" font-family="Roboto-Regular,Roboto" font-size="50.0" fill="#404040" transform="matrix(1.00, 0.00, -0.00, -1.00, 770.9, 591.0)">p</text><text xml:space="preserve" font-family="Roboto-Regular,Roboto" font-size="50.0" fill="#404040" transform="matrix(1.00, 0.00, -0.00, -1.00, 799.4, 591.0)">l</text><text xml:space="preserve" font-family="Roboto-Regular,Roboto" font-size="50.0" fill="#404040" transform="matrix(1.00, 0.00, -0.00, -1.00, 812.0, 591.0)">a</text><text xml:space="preserve" font-family="Roboto-Regular,Roboto" font-size="50.0" fill="#404040" transform="matrix(1.00, 0.00, -0.00, -1.00, 839.5, 591.0)">t</text><text xml:space="preserve" font-family="Roboto-Regular,Roboto" font-size="50.0" fill="#404040" transform="matrix(1.00, 0.00, -0.00, -1.00, 856.7, 591.0)">i</text><text xml:space="preserve" font-family="Roboto-Regular,Roboto" font-size="50.0" fill="#404040" transform="matrix(1.00, 0.00, -0.00, -1.00, 869.3, 591.0)">n</text><text xml:space="preserve" font-family="Roboto-Regular,Roboto" font-size="50.0" fill="#404040" transform="matrix(1.00, 0.00, -0.00, -1.00, 897.8, 591.0)">g</text></g></g><g><clipPath id="clip0x6080030aa560"><path d="M 961.3 539.6 L 1278.8 539.6 L 1278.8 681.9 L 961.3 681.9 Z M 961.3 539.6 "></path></clipPath><g clip-path="url(#clip0x6080030aa560)"><path d="M 962.0 681.0 L 1278.0 681.0 L 1278.0 541.0 L 962.0 541.0 Z M 962.3 680.9 " fill="#E0E0E0"></path></g></g><g><clipPath id="clip0x6000032b7940"><path d="M 951.3 540.6 L 1288.9 540.6 L 1288.9 680.9 L 951.3 680.9 Z M 951.3 540.6 "></path></clipPath><g clip-path="url(#clip0x6000032b7940)"><text xml:space="preserve" font-family="Roboto-Regular,Roboto" font-size="50.0" fill="#404040" transform="matrix(1.00, 0.00, -0.00, -1.00, 1013.2, 591.0)">D</text><text xml:space="preserve" font-family="Roboto-Regular,Roboto" font-size="50.0" fill="#404040" transform="matrix(1.00, 0.00, -0.00, -1.00, 1046.1, 591.0)">a</text><text xml:space="preserve" font-family="Roboto-Regular,Roboto" font-size="50.0" fill="#404040" transform="matrix(1.00, 0.00, -0.00, -1.00, 1073.6, 591.0)">t</text><text xml:space="preserve" font-family="Roboto-Regular,Roboto" font-size="50.0" fill="#404040" transform="matrix(1.00, 0.00, -0.00, -1.00, 1090.9, 591.0)">a</text><text xml:space="preserve" font-family="Roboto-Regular,Roboto" font-size="50.0" fill="#404040" transform="matrix(1.00, 0.00, -0.00, -1.00, 1118.4, 591.0)">b</text><text xml:space="preserve" font-family="Roboto-Regular,Roboto" font-size="50.0" fill="#404040" transform="matrix(1.00, 0.00, -0.00, -1.00, 1146.8, 591.0)">a</text><text xml:space="preserve" font-family="Roboto-Regular,Roboto" font-size="50.0" fill="#404040" transform="matrix(1.00, 0.00, -0.00, -1.00, 1174.3, 591.0)">s</text><text xml:space="preserve" font-family="Roboto-Regular,Roboto" font-size="50.0" fill="#404040" transform="matrix(1.00, 0.00, -0.00, -1.00, 1200.4, 591.0)">e</text></g></g><g><clipPath id="clip0x6000032b6500"><path d="M 1281.5 539.6 L 1598.9 539.6 L 1598.9 681.9 L 1281.5 681.9 Z M 1281.5 539.6 "></path></clipPath><g clip-path="url(#clip0x6000032b6500)"><path d="M 1282.0 681.0 L 1598.0 681.0 L 1598.0 541.0 L 1282.0 541.0 Z M 1282.5 680.9 " fill="#E0E0E0"></path></g></g><g><clipPath id="clip0x6000032b62c0"><path d="M 1271.4 540.6 L 1609.0 540.6 L 1609.0 680.9 L 1271.4 680.9 Z M 1271.4 540.6 "></path></clipPath><g clip-path="url(#clip0x6000032b62c0)"><text xml:space="preserve" font-family="Roboto-Regular,Roboto" font-size="50.0" fill="#404040" transform="matrix(1.00, 0.00, -0.00, -1.00, 1403.8, 591.0)">C</text><text xml:space="preserve" font-family="Roboto-Regular,Roboto" font-size="50.0" fill="#404040" transform="matrix(1.00, 0.00, -0.00, -1.00, 1435.5, 591.0)">L</text><text xml:space="preserve" font-family="Roboto-Regular,Roboto" font-size="50.0" fill="#404040" transform="matrix(1.00, 0.00, -0.00, -1.00, 1462.5, 591.0)">I</text></g></g><g><clipPath id="clip0x6080030aa440"><path d="M 758.5 435.5 L 1161.5 435.5 L 1161.5 530.8 L 758.5 530.8 Z M 758.5 435.5 "></path></clipPath><g clip-path="url(#clip0x6080030aa440)"><image xlink:href="../../F6EE5EB5-35E5-42D6-8D80-56C5DA967E8A/assets/CE7AA21EABE07957349ED28E9B5C97BD.png" width="600.00" height="142.00" transform="matrix(0.67, 0.00, -0.00, -0.67, 758.5, 530.8)"></image></g></g><g><clipPath id="clip0x6080030aa500"><path d="M 321.1 53.1 L 1597.3 53.1 L 1597.3 193.0 L 321.1 193.0 Z M 321.1 53.1 "></path></clipPath><g clip-path="url(#clip0x6080030aa500)"><path d="M 322.0 192.0 L 1596.0 192.0 L 1596.0 54.0 L 322.0 54.0 Z M 322.1 192.0 " fill="#E0E0E0"></path></g></g><g><clipPath id="clip0x6080030aa020"><path d="M 321.1 194.6 L 638.5 194.6 L 638.5 336.9 L 321.1 336.9 Z M 321.1 194.6 "></path></clipPath><g clip-path="url(#clip0x6080030aa020)"><path d="M 322.0 336.0 L 638.0 336.0 L 638.0 196.0 L 322.0 196.0 Z M 322.1 335.9 " fill="#E0E0E0"></path></g></g><g><clipPath id="clip0x6080030a9de0"><path d="M 311.0 195.6 L 648.6 195.6 L 648.6 335.9 L 311.0 335.9 Z M 311.0 195.6 "></path></clipPath><g clip-path="url(#clip0x6080030a9de0)"><text xml:space="preserve" font-family="Roboto-Regular,Roboto" font-size="50.0" fill="#404040" transform="matrix(1.00, 0.00, -0.00, -1.00, 424.3, 246.0)">D</text><text xml:space="preserve" font-family="Roboto-Regular,Roboto" font-size="50.0" fill="#404040" transform="matrix(1.00, 0.00, -0.00, -1.00, 457.2, 246.0)">O</text><text xml:space="preserve" font-family="Roboto-Regular,Roboto" font-size="50.0" fill="#404040" transform="matrix(1.00, 0.00, -0.00, -1.00, 491.3, 246.0)">M</text></g></g><g><clipPath id="clip0x6080030a9a20"><path d="M 641.2 194.6 L 958.7 194.6 L 958.7 336.9 L 641.2 336.9 Z M 641.2 194.6 "></path></clipPath><g clip-path="url(#clip0x6080030a9a20)"><path d="M 642.0 336.0 L 958.0 336.0 L 958.0 196.0 L 642.0 196.0 Z M 642.2 335.9 " fill="#E0E0E0"></path></g></g><g><clipPath id="clip0x6080030a9780"><path d="M 631.1 195.6 L 968.7 195.6 L 968.7 335.9 L 631.1 335.9 Z M 631.1 195.6 "></path></clipPath><g clip-path="url(#clip0x6080030a9780)"><text xml:space="preserve" font-family="Roboto-Regular,Roboto" font-size="50.0" fill="#404040" transform="matrix(1.00, 0.00, -0.00, -1.00, 656.3, 246.0)">C</text><text xml:space="preserve" font-family="Roboto-Regular,Roboto" font-size="50.0" fill="#404040" transform="matrix(1.00, 0.00, -0.00, -1.00, 687.9, 246.0)">o</text><text xml:space="preserve" font-family="Roboto-Regular,Roboto" font-size="50.0" fill="#404040" transform="matrix(1.00, 0.00, -0.00, -1.00, 716.4, 246.0)">m</text><text xml:space="preserve" font-family="Roboto-Regular,Roboto" font-size="50.0" fill="#404040" transform="matrix(1.00, 0.00, -0.00, -1.00, 760.1, 246.0)">p</text><text xml:space="preserve" font-family="Roboto-Regular,Roboto" font-size="50.0" fill="#404040" transform="matrix(1.00, 0.00, -0.00, -1.00, 788.5, 246.0)">o</text><text xml:space="preserve" font-family="Roboto-Regular,Roboto" font-size="50.0" fill="#404040" transform="matrix(1.00, 0.00, -0.00, -1.00, 817.0, 246.0)">n</text><text xml:space="preserve" font-family="Roboto-Regular,Roboto" font-size="50.0" fill="#404040" transform="matrix(1.00, 0.00, -0.00, -1.00, 845.4, 246.0)">e</text><text xml:space="preserve" font-family="Roboto-Regular,Roboto" font-size="50.0" fill="#404040" transform="matrix(1.00, 0.00, -0.00, -1.00, 871.8, 246.0)">n</text><text xml:space="preserve" font-family="Roboto-Regular,Roboto" font-size="50.0" fill="#404040" transform="matrix(1.00, 0.00, -0.00, -1.00, 900.3, 246.0)">t</text><text xml:space="preserve" font-family="Roboto-Regular,Roboto" font-size="50.0" fill="#404040" transform="matrix(1.00, 0.00, -0.00, -1.00, 917.5, 246.0)">s</text></g></g><g><clipPath id="clip0x6080030a9000"><path d="M 961.3 194.6 L 1278.8 194.6 L 1278.8 336.9 L 961.3 336.9 Z M 961.3 194.6 "></path></clipPath><g clip-path="url(#clip0x6080030a9000)"><path d="M 962.0 336.0 L 1278.0 336.0 L 1278.0 196.0 L 962.0 196.0 Z M 962.3 335.9 " fill="#E0E0E0"></path></g></g><g><clipPath id="clip0x6080030a8dc0"><path d="M 951.3 195.6 L 1288.9 195.6 L 1288.9 335.9 L 951.3 335.9 Z M 951.3 195.6 "></path></clipPath><g clip-path="url(#clip0x6080030a8dc0)"><text xml:space="preserve" font-family="Roboto-Regular,Roboto" font-size="50.0" fill="#404040" transform="matrix(1.00, 0.00, -0.00, -1.00, 1044.2, 246.0)">E</text><text xml:space="preserve" font-family="Roboto-Regular,Roboto" font-size="50.0" fill="#404040" transform="matrix(1.00, 0.00, -0.00, -1.00, 1072.8, 246.0)">v</text><text xml:space="preserve" font-family="Roboto-Regular,Roboto" font-size="50.0" fill="#404040" transform="matrix(1.00, 0.00, -0.00, -1.00, 1097.7, 246.0)">e</text><text xml:space="preserve" font-family="Roboto-Regular,Roboto" font-size="50.0" fill="#404040" transform="matrix(1.00, 0.00, -0.00, -1.00, 1124.1, 246.0)">n</text><text xml:space="preserve" font-family="Roboto-Regular,Roboto" font-size="50.0" fill="#404040" transform="matrix(1.00, 0.00, -0.00, -1.00, 1152.6, 246.0)">t</text><text xml:space="preserve" font-family="Roboto-Regular,Roboto" font-size="50.0" fill="#404040" transform="matrix(1.00, 0.00, -0.00, -1.00, 1169.8, 246.0)">s</text></g></g><g><clipPath id="clip0x6080030a88e0"><path d="M 1281.5 194.6 L 1598.9 194.6 L 1598.9 336.9 L 1281.5 336.9 Z M 1281.5 194.6 "></path></clipPath><g clip-path="url(#clip0x6080030a88e0)"><path d="M 1282.0 336.0 L 1598.0 336.0 L 1598.0 196.0 L 1282.0 196.0 Z M 1282.5 335.9 " fill="#E0E0E0"></path></g></g><g><clipPath id="clip0x6080030a8580"><path d="M 1271.4 195.6 L 1609.0 195.6 L 1609.0 335.9 L 1271.4 335.9 Z M 1271.4 195.6 "></path></clipPath><g clip-path="url(#clip0x6080030a8580)"><text xml:space="preserve" font-family="Roboto-Regular,Roboto" font-size="50.0" fill="#404040" transform="matrix(1.00, 0.00, -0.00, -1.00, 1395.0, 246.0)">J</text><text xml:space="preserve" font-family="Roboto-Regular,Roboto" font-size="50.0" fill="#404040" transform="matrix(1.00, 0.00, -0.00, -1.00, 1422.6, 246.0)">S</text><text xml:space="preserve" font-family="Roboto-Regular,Roboto" font-size="50.0" fill="#404040" transform="matrix(1.00, 0.00, -0.00, -1.00, 1453.8, 246.0)">X</text></g></g><g><clipPath id="clip0x6080030a81c0"><path d="M 761.3 71.6 L 1158.7 71.6 L 1158.7 182.2 L 761.3 182.2 Z M 761.3 71.6 "></path></clipPath><g clip-path="url(#clip0x6080030a81c0)"><image xlink:href="../../F6EE5EB5-35E5-42D6-8D80-56C5DA967E8A/assets/504C1D06A31D0CFA65A8F9E7DC93B2D2.png" width="600.00" height="167.00" transform="matrix(0.66, 0.00, -0.00, -0.66, 761.3, 182.2)"></image></g></g></g></svg>