<?xml version="1.0" encoding="UTF-8" standalone="no"?><svg xmlns="http://www.w3.org/2000/svg" xmlns:xlink="http://www.w3.org/1999/xlink" clip-rule="evenodd" stroke-miterlimit="10" viewBox="0 0 1920 1080"><desc>SVG generated by Keynote</desc><defs></defs><g transform="matrix(1.00, 0.00, -0.00, -1.00, 0.0, 1080.0)"><path d="M 0.0 1080.0 L 1920.0 1080.0 L 1920.0 0.0 L 0.0 0.0 Z M 0.0 1080.0 " fill="#FFFFFF"></path><g><clipPath id="clip0x6000042b09e0"><path d="M 522.2 406.5 L 1397.8 406.5 L 1397.8 673.5 L 522.2 673.5 Z M 522.2 406.5 "></path></clipPath><g clip-path="url(#clip0x6000042b09e0)"><path d="M 523.2 421.0 L 523.0 659.0 C 523.0 666.5 529.3 673.0 536.8 673.0 L 1383.2 673.0 C 1390.7 673.0 1397.0 666.5 1397.0 659.0 L 1397.0 421.0 C 1397.0 413.5 1390.7 407.0 1383.2 407.0 L 536.8 407.0 C 529.3 407.0 523.2 413.5 523.2 421.0 Z M 523.2 421.0 " fill="#8C8C8C"></path></g></g><g><clipPath id="clip0x6000042b0c80"><path d="M 560.8 429.5 L 1359.2 429.5 L 1359.2 650.4 L 560.8 650.4 Z M 560.8 429.5 "></path></clipPath><g clip-path="url(#clip0x6000042b0c80)"><text xml:space="preserve" font-family="Roboto-Regular,Roboto" font-size="112.0" fill="#FFFFFF" transform="matrix(1.00, 0.00, -0.00, -1.00, 626.5, 496.8)">D</text><text xml:space="preserve" font-family="Roboto-Regular,Roboto" font-size="112.0" fill="#FFFFFF" transform="matrix(1.00, 0.00, -0.00, -1.00, 695.8, 496.8)">E</text><text xml:space="preserve" font-family="Roboto-Regular,Roboto" font-size="112.0" fill="#FFFFFF" transform="matrix(1.00, 0.00, -0.00, -1.00, 756.9, 496.8)">V</text><text xml:space="preserve" font-family="Roboto-Regular,Roboto" font-size="112.0" fill="#FFFFFF" transform="matrix(1.00, 0.00, -0.00, -1.00, 823.3, 496.8)"> </text><text xml:space="preserve" font-family="Roboto-Regular,Roboto" font-size="112.0" fill="#FFFFFF" transform="matrix(1.00, 0.00, -0.00, -1.00, 846.6, 496.8)">P</text><text xml:space="preserve" font-family="Roboto-Regular,Roboto" font-size="112.0" fill="#FFFFFF" transform="matrix(1.00, 0.00, -0.00, -1.00, 913.8, 496.8)">R</text><text xml:space="preserve" font-family="Roboto-Regular,Roboto" font-size="112.0" fill="#FFFFFF" transform="matrix(1.00, 0.00, -0.00, -1.00, 983.5, 496.8)">E</text><text xml:space="preserve" font-family="Roboto-Regular,Roboto" font-size="112.0" fill="#FFFFFF" transform="matrix(1.00, 0.00, -0.00, -1.00, 1044.6, 496.8)">V</text><text xml:space="preserve" font-family="Roboto-Regular,Roboto" font-size="112.0" fill="#FFFFFF" transform="matrix(1.00, 0.00, -0.00, -1.00, 1111.0, 496.8)">I</text><text xml:space="preserve" font-family="Roboto-Regular,Roboto" font-size="112.0" fill="#FFFFFF" transform="matrix(1.00, 0.00, -0.00, -1.00, 1138.2, 496.8)">E</text><text xml:space="preserve" font-family="Roboto-Regular,Roboto" font-size="112.0" fill="#FFFFFF" transform="matrix(1.00, 0.00, -0.00, -1.00, 1199.2, 496.8)">W</text></g></g></g></svg>