<?xml version="1.0" encoding="UTF-8" standalone="no"?><svg xmlns="http://www.w3.org/2000/svg" xmlns:xlink="http://www.w3.org/1999/xlink" clip-rule="evenodd" stroke-miterlimit="10" viewBox="0 0 1920 1080"><desc>SVG generated by Keynote</desc><defs></defs><g transform="matrix(1.00, 0.00, -0.00, -1.00, 0.0, 1080.0)"><path d="M 0.0 1080.0 L 1920.0 1080.0 L 1920.0 0.0 L 0.0 0.0 Z M 0.0 1080.0 " fill="#FF4081"></path><text xml:space="preserve" font-family="Roboto-Medium,Roboto" font-size="116.0" fill="#FFFFFF" transform="matrix(1.00, 0.00, -0.00, -1.00, 38.4, 494.9)">I</text><text xml:space="preserve" font-family="Roboto-Medium,Roboto" font-size="116.0" fill="#FFFFFF" transform="matrix(1.00, 0.00, -0.00, -1.00, 71.7, 494.9)"> </text><text xml:space="preserve" font-family="Roboto-Medium,Roboto" font-size="116.0" fill="#FFFFFF" transform="matrix(1.00, 0.00, -0.00, -1.00, 100.6, 494.9)">w</text><text xml:space="preserve" font-family="Roboto-Medium,Roboto" font-size="116.0" fill="#FFFFFF" transform="matrix(1.00, 0.00, -0.00, -1.00, 187.3, 494.9)">a</text><text xml:space="preserve" font-family="Roboto-Medium,Roboto" font-size="116.0" fill="#FFFFFF" transform="matrix(1.00, 0.00, -0.00, -1.00, 250.4, 494.9)">n</text><text xml:space="preserve" font-family="Roboto-Medium,Roboto" font-size="116.0" fill="#FFFFFF" transform="matrix(1.00, 0.00, -0.00, -1.00, 316.1, 494.9)">t</text><text xml:space="preserve" font-family="Roboto-Medium,Roboto" font-size="116.0" fill="#FFFFFF" transform="matrix(1.00, 0.00, -0.00, -1.00, 356.4, 494.9)"> </text><text xml:space="preserve" font-family="Roboto-Medium,Roboto" font-size="116.0" fill="#FFFFFF" transform="matrix(1.00, 0.00, -0.00, -1.00, 385.3, 494.9)">t</text><text xml:space="preserve" font-family="Roboto-Medium,Roboto" font-size="116.0" fill="#FFFFFF" transform="matrix(1.00, 0.00, -0.00, -1.00, 425.6, 494.9)">o</text><text xml:space="preserve" font-family="Roboto-Medium,Roboto" font-size="116.0" fill="#FFFFFF" transform="matrix(1.00, 0.00, -0.00, -1.00, 491.3, 494.9)"> </text><text xml:space="preserve" font-family="Roboto-Medium,Roboto" font-size="116.0" fill="#FFFFFF" transform="matrix(1.00, 0.00, -0.00, -1.00, 520.2, 494.9)">m</text><text xml:space="preserve" font-family="Roboto-Medium,Roboto" font-size="116.0" fill="#FFFFFF" transform="matrix(1.00, 0.00, -0.00, -1.00, 621.1, 494.9)">a</text><text xml:space="preserve" font-family="Roboto-Medium,Roboto" font-size="116.0" fill="#FFFFFF" transform="matrix(1.00, 0.00, -0.00, -1.00, 684.1, 494.9)">k</text><text xml:space="preserve" font-family="Roboto-Medium,Roboto" font-size="116.0" fill="#FFFFFF" transform="matrix(1.00, 0.00, -0.00, -1.00, 743.7, 494.9)">e</text><text xml:space="preserve" font-family="Roboto-Medium,Roboto" font-size="116.0" fill="#FFFFFF" transform="matrix(1.00, 0.00, -0.00, -1.00, 805.2, 494.9)"> </text><text xml:space="preserve" font-family="Roboto-Medium,Roboto" font-size="116.0" fill="#FFFFFF" transform="matrix(1.00, 0.00, -0.00, -1.00, 834.0, 494.9)">a</text><text xml:space="preserve" font-family="Roboto-Medium,Roboto" font-size="116.0" fill="#FFFFFF" transform="matrix(1.00, 0.00, -0.00, -1.00, 897.1, 494.9)">n</text><text xml:space="preserve" font-family="Roboto-Medium,Roboto" font-size="116.0" fill="#FFFFFF" transform="matrix(1.00, 0.00, -0.00, -1.00, 962.9, 494.9)"> </text><text xml:space="preserve" font-family="Roboto-Medium,Roboto" font-size="116.0" fill="#FFFFFF" transform="matrix(1.00, 0.00, -0.00, -1.00, 991.8, 494.9)">e</text><text xml:space="preserve" font-family="Roboto-Medium,Roboto" font-size="116.0" fill="#FFFFFF" transform="matrix(1.00, 0.00, -0.00, -1.00, 1053.2, 494.9)">l</text><text xml:space="preserve" font-family="Roboto-Medium,Roboto" font-size="116.0" fill="#FFFFFF" transform="matrix(1.00, 0.00, -0.00, -1.00, 1083.3, 494.9)">e</text><text xml:space="preserve" font-family="Roboto-Medium,Roboto" font-size="116.0" fill="#FFFFFF" transform="matrix(1.00, 0.00, -0.00, -1.00, 1144.7, 494.9)">m</text><text xml:space="preserve" font-family="Roboto-Medium,Roboto" font-size="116.0" fill="#FFFFFF" transform="matrix(1.00, 0.00, -0.00, -1.00, 1245.6, 494.9)">e</text><text xml:space="preserve" font-family="Roboto-Medium,Roboto" font-size="116.0" fill="#FFFFFF" transform="matrix(1.00, 0.00, -0.00, -1.00, 1307.0, 494.9)">n</text><text xml:space="preserve" font-family="Roboto-Medium,Roboto" font-size="116.0" fill="#FFFFFF" transform="matrix(1.00, 0.00, -0.00, -1.00, 1372.8, 494.9)">t</text><text xml:space="preserve" font-family="Roboto-Medium,Roboto" font-size="116.0" fill="#FFFFFF" transform="matrix(1.00, 0.00, -0.00, -1.00, 1413.1, 494.9)"> </text><text xml:space="preserve" font-family="Roboto-Medium,Roboto" font-size="116.0" fill="#FFFFFF" transform="matrix(1.00, 0.00, -0.00, -1.00, 1441.9, 494.9)">l</text><text xml:space="preserve" font-family="Roboto-Medium,Roboto" font-size="116.0" fill="#FFFFFF" transform="matrix(1.00, 0.00, -0.00, -1.00, 1472.1, 494.9)">i</text><text xml:space="preserve" font-family="Roboto-Medium,Roboto" font-size="116.0" fill="#FFFFFF" transform="matrix(1.00, 0.00, -0.00, -1.00, 1502.2, 494.9)">k</text><text xml:space="preserve" font-family="Roboto-Medium,Roboto" font-size="116.0" fill="#FFFFFF" transform="matrix(1.00, 0.00, -0.00, -1.00, 1561.7, 494.9)">e</text><text xml:space="preserve" font-family="Roboto-Medium,Roboto" font-size="116.0" fill="#FFFFFF" transform="matrix(1.00, 0.00, -0.00, -1.00, 1623.2, 494.9)"> </text><text xml:space="preserve" font-family="Roboto-Medium,Roboto" font-size="116.0" fill="#FFFFFF" transform="matrix(1.00, 0.00, -0.00, -1.00, 1652.1, 494.9)">t</text><text xml:space="preserve" font-family="Roboto-Medium,Roboto" font-size="116.0" fill="#FFFFFF" transform="matrix(1.00, 0.00, -0.00, -1.00, 1692.4, 494.9)">h</text><text xml:space="preserve" font-family="Roboto-Medium,Roboto" font-size="116.0" fill="#FFFFFF" transform="matrix(1.00, 0.00, -0.00, -1.00, 1758.1, 494.9)">i</text><text xml:space="preserve" font-family="Roboto-Medium,Roboto" font-size="116.0" fill="#FFFFFF" transform="matrix(1.00, 0.00, -0.00, -1.00, 1788.2, 494.9)">s</text><text xml:space="preserve" font-family="Roboto-Medium,Roboto" font-size="116.0" fill="#FFFFFF" transform="matrix(1.00, 0.00, -0.00, -1.00, 1848.5, 494.9)">.</text></g></svg>