<?xml version="1.0" encoding="UTF-8" standalone="no"?><svg xmlns="http://www.w3.org/2000/svg" xmlns:xlink="http://www.w3.org/1999/xlink" clip-rule="evenodd" stroke-miterlimit="10" viewBox="0 0 1920 1080"><desc>SVG generated by Keynote</desc><defs></defs><g transform="matrix(1.00, 0.00, -0.00, -1.00, 0.0, 1080.0)"><path d="M 0.0 1080.0 L 1920.0 1080.0 L 1920.0 0.0 L 0.0 0.0 Z M 0.0 1080.0 " fill="#FF4081"></path><text xml:space="preserve" font-family="Roboto-Medium,Roboto" font-size="116.0" fill="#FFFFFF" transform="matrix(1.00, 0.00, -0.00, -1.00, 153.4, 494.9)">S</text><text xml:space="preserve" font-family="Roboto-Medium,Roboto" font-size="116.0" fill="#FFFFFF" transform="matrix(1.00, 0.00, -0.00, -1.00, 226.3, 494.9)">u</text><text xml:space="preserve" font-family="Roboto-Medium,Roboto" font-size="116.0" fill="#FFFFFF" transform="matrix(1.00, 0.00, -0.00, -1.00, 292.1, 494.9)">g</text><text xml:space="preserve" font-family="Roboto-Medium,Roboto" font-size="116.0" fill="#FFFFFF" transform="matrix(1.00, 0.00, -0.00, -1.00, 357.8, 494.9)">a</text><text xml:space="preserve" font-family="Roboto-Medium,Roboto" font-size="116.0" fill="#FFFFFF" transform="matrix(1.00, 0.00, -0.00, -1.00, 420.9, 494.9)">r</text><text xml:space="preserve" font-family="Roboto-Medium,Roboto" font-size="116.0" fill="#FFFFFF" transform="matrix(1.00, 0.00, -0.00, -1.00, 461.1, 494.9)">i</text><text xml:space="preserve" font-family="Roboto-Medium,Roboto" font-size="116.0" fill="#FFFFFF" transform="matrix(1.00, 0.00, -0.00, -1.00, 491.2, 494.9)">n</text><text xml:space="preserve" font-family="Roboto-Medium,Roboto" font-size="116.0" fill="#FFFFFF" transform="matrix(1.00, 0.00, -0.00, -1.00, 557.0, 494.9)">g</text><text xml:space="preserve" font-family="Roboto-Medium,Roboto" font-size="116.0" fill="#FFFFFF" transform="matrix(1.00, 0.00, -0.00, -1.00, 622.7, 494.9)">:</text><text xml:space="preserve" font-family="Roboto-Medium,Roboto" font-size="116.0" fill="#FFFFFF" transform="matrix(1.00, 0.00, -0.00, -1.00, 653.8, 494.9)"> </text><text xml:space="preserve" font-family="Roboto-Medium,Roboto" font-size="116.0" fill="#FFFFFF" transform="matrix(1.00, 0.00, -0.00, -1.00, 682.7, 494.9)">H</text><text xml:space="preserve" font-family="Roboto-Medium,Roboto" font-size="116.0" fill="#FFFFFF" transform="matrix(1.00, 0.00, -0.00, -1.00, 765.2, 494.9)">T</text><text xml:space="preserve" font-family="Roboto-Medium,Roboto" font-size="116.0" fill="#FFFFFF" transform="matrix(1.00, 0.00, -0.00, -1.00, 832.2, 494.9)">M</text><text xml:space="preserve" font-family="Roboto-Medium,Roboto" font-size="116.0" fill="#FFFFFF" transform="matrix(1.00, 0.00, -0.00, -1.00, 933.8, 494.9)">L</text><text xml:space="preserve" font-family="Roboto-Medium,Roboto" font-size="116.0" fill="#FFFFFF" transform="matrix(1.00, 0.00, -0.00, -1.00, 996.6, 494.9)"> </text><text xml:space="preserve" font-family="Roboto-Medium,Roboto" font-size="116.0" fill="#FFFFFF" transform="matrix(1.00, 0.00, -0.00, -1.00, 1025.5, 494.9)">I</text><text xml:space="preserve" font-family="Roboto-Medium,Roboto" font-size="116.0" fill="#FFFFFF" transform="matrix(1.00, 0.00, -0.00, -1.00, 1058.8, 494.9)">m</text><text xml:space="preserve" font-family="Roboto-Medium,Roboto" font-size="116.0" fill="#FFFFFF" transform="matrix(1.00, 0.00, -0.00, -1.00, 1159.6, 494.9)">p</text><text xml:space="preserve" font-family="Roboto-Medium,Roboto" font-size="116.0" fill="#FFFFFF" transform="matrix(1.00, 0.00, -0.00, -1.00, 1225.4, 494.9)">o</text><text xml:space="preserve" font-family="Roboto-Medium,Roboto" font-size="116.0" fill="#FFFFFF" transform="matrix(1.00, 0.00, -0.00, -1.00, 1291.1, 494.9)">r</text><text xml:space="preserve" font-family="Roboto-Medium,Roboto" font-size="116.0" fill="#FFFFFF" transform="matrix(1.00, 0.00, -0.00, -1.00, 1332.5, 494.9)">t</text><text xml:space="preserve" font-family="Roboto-Medium,Roboto" font-size="116.0" fill="#FFFFFF" transform="matrix(1.00, 0.00, -0.00, -1.00, 1372.8, 494.9)">s</text></g></svg>