<?xml version="1.0" encoding="UTF-8" standalone="no"?><svg xmlns="http://www.w3.org/2000/svg" xmlns:xlink="http://www.w3.org/1999/xlink" clip-rule="evenodd" stroke-miterlimit="10" viewBox="0 0 1920 1080"><desc>SVG generated by Keynote</desc><defs></defs><g transform="matrix(1.00, 0.00, -0.00, -1.00, 0.0, 1080.0)"><path d="M 0.0 1080.0 L 1920.0 1080.0 L 1920.0 0.0 L 0.0 0.0 Z M 0.0 1080.0 " fill="#FFFFFF"></path><path d="M 472.2 72.7 L 472.0 463.3 C 472.0 466.6 474.9 469.0 478.2 469.0 L 1441.8 469.0 C 1445.1 469.0 1448.0 466.6 1448.0 463.3 L 1448.0 72.7 C 1448.0 69.4 1445.1 67.0 1441.8 67.0 L 478.2 67.0 C 474.9 67.0 472.2 69.4 472.2 72.7 Z M 472.2 72.7 " fill="#E7E7E7"></path><g><clipPath id="clip0x6080022aa740"><path d="M 472.2 66.8 L 1447.8 66.8 L 1447.8 469.3 L 472.2 469.3 Z M 472.2 66.8 "></path></clipPath><g clip-path="url(#clip0x6080022aa740)"><text xml:space="preserve" font-family=".LucidaGrandeUI,.Lucida Grande UI" font-size="40.0" fill="#333333" transform="matrix(1.00, 0.00, -0.00, -1.00, 492.2, 370.4)">&gt;</text><text xml:space="preserve" font-family=".LucidaGrandeUI,.Lucida Grande UI" font-size="40.0" fill="#4185F4" transform="matrix(1.00, 0.00, -0.00, -1.00, 524.0, 370.4)"> </text><text xml:space="preserve" font-family=".LucidaGrandeUI,.Lucida Grande UI" font-size="40.0" fill="#4185F4" transform="matrix(1.00, 0.00, -0.00, -1.00, 536.7, 370.4)">t</text><text xml:space="preserve" font-family=".LucidaGrandeUI,.Lucida Grande UI" font-size="40.0" fill="#4185F4" transform="matrix(1.00, 0.00, -0.00, -1.00, 551.7, 370.4)">h</text><text xml:space="preserve" font-family=".LucidaGrandeUI,.Lucida Grande UI" font-size="40.0" fill="#4185F4" transform="matrix(1.00, 0.00, -0.00, -1.00, 576.5, 370.4)">i</text><text xml:space="preserve" font-family=".LucidaGrandeUI,.Lucida Grande UI" font-size="40.0" fill="#4185F4" transform="matrix(1.00, 0.00, -0.00, -1.00, 588.0, 370.4)">s</text><text xml:space="preserve" font-family=".LucidaGrandeUI,.Lucida Grande UI" font-size="40.0" fill="#4185F4" transform="matrix(1.00, 0.00, -0.00, -1.00, 606.6, 370.4)">.</text><text xml:space="preserve" font-family=".LucidaGrandeUI,.Lucida Grande UI" font-size="40.0" fill="#333333" transform="matrix(1.00, 0.00, -0.00, -1.00, 619.2, 370.4)">s</text><text xml:space="preserve" font-family=".LucidaGrandeUI,.Lucida Grande UI" font-size="40.0" fill="#333333" transform="matrix(1.00, 0.00, -0.00, -1.00, 637.7, 370.4)">e</text><text xml:space="preserve" font-family=".LucidaGrandeUI,.Lucida Grande UI" font-size="40.0" fill="#333333" transform="matrix(1.00, 0.00, -0.00, -1.00, 660.0, 370.4)">l</text><text xml:space="preserve" font-family=".LucidaGrandeUI,.Lucida Grande UI" font-size="40.0" fill="#333333" transform="matrix(1.00, 0.00, -0.00, -1.00, 671.6, 370.4)">e</text><text xml:space="preserve" font-family=".LucidaGrandeUI,.Lucida Grande UI" font-size="40.0" fill="#333333" transform="matrix(1.00, 0.00, -0.00, -1.00, 693.9, 370.4)">c</text><text xml:space="preserve" font-family=".LucidaGrandeUI,.Lucida Grande UI" font-size="40.0" fill="#333333" transform="matrix(1.00, 0.00, -0.00, -1.00, 714.3, 370.4)">t</text><text xml:space="preserve" font-family=".LucidaGrandeUI,.Lucida Grande UI" font-size="40.0" fill="#333333" transform="matrix(1.00, 0.00, -0.00, -1.00, 729.3, 370.4)">e</text><text xml:space="preserve" font-family=".LucidaGrandeUI,.Lucida Grande UI" font-size="40.0" fill="#333333" transform="matrix(1.00, 0.00, -0.00, -1.00, 751.6, 370.4)">d</text><text xml:space="preserve" font-family=".LucidaGrandeUI,.Lucida Grande UI" font-size="40.0" fill="#333333" transform="matrix(1.00, 0.00, -0.00, -1.00, 776.8, 370.4)">I</text><text xml:space="preserve" font-family=".LucidaGrandeUI,.Lucida Grande UI" font-size="40.0" fill="#333333" transform="matrix(1.00, 0.00, -0.00, -1.00, 788.3, 370.4)">n</text><text xml:space="preserve" font-family=".LucidaGrandeUI,.Lucida Grande UI" font-size="40.0" fill="#333333" transform="matrix(1.00, 0.00, -0.00, -1.00, 813.1, 370.4)">d</text><text xml:space="preserve" font-family=".LucidaGrandeUI,.Lucida Grande UI" font-size="40.0" fill="#333333" transform="matrix(1.00, 0.00, -0.00, -1.00, 838.3, 370.4)">e</text><text xml:space="preserve" font-family=".LucidaGrandeUI,.Lucida Grande UI" font-size="40.0" fill="#333333" transform="matrix(1.00, 0.00, -0.00, -1.00, 860.6, 370.4)">x</text><text xml:space="preserve" font-family=".LucidaGrandeUI,.Lucida Grande UI" font-size="40.0" fill="#333333" transform="matrix(1.00, 0.00, -0.00, -1.00, 883.5, 370.4)">;</text><text xml:space="preserve" font-family=".LucidaGrandeUI,.Lucida Grande UI" font-size="40.0" fill="#333333" transform="matrix(1.00, 0.00, -0.00, -1.00, 896.1, 370.4)"></text><text xml:space="preserve" font-family=".LucidaGrandeUI,.Lucida Grande UI" font-size="40.0" fill="#333333" transform="matrix(1.00, 0.00, -0.00, -1.00, 492.2, 314.0)">&gt;</text><text xml:space="preserve" font-family=".LucidaGrandeUI,.Lucida Grande UI" font-size="40.0" fill="#333333" transform="matrix(1.00, 0.00, -0.00, -1.00, 524.0, 314.0)"> </text><text xml:space="preserve" font-family=".LucidaGrandeUI,.Lucida Grande UI" font-size="40.0" fill="#333333" transform="matrix(1.00, 0.00, -0.00, -1.00, 536.7, 314.0)">0</text><text xml:space="preserve" font-family=".LucidaGrandeUI,.Lucida Grande UI" font-size="40.0" fill="#333333" transform="matrix(1.00, 0.00, -0.00, -1.00, 562.0, 314.0)"></text><text xml:space="preserve" font-family=".LucidaGrandeUI,.Lucida Grande UI" font-size="40.0" fill="#333333" transform="matrix(1.00, 0.00, -0.00, -1.00, 492.2, 257.6)">&gt;</text><text xml:space="preserve" font-family=".LucidaGrandeUI,.Lucida Grande UI" font-size="40.0" fill="#333333" transform="matrix(1.00, 0.00, -0.00, -1.00, 524.0, 257.6)"> </text><text xml:space="preserve" font-family=".LucidaGrandeUI,.Lucida Grande UI" font-size="40.0" fill="#333333" transform="matrix(1.00, 0.00, -0.00, -1.00, 536.7, 257.6)">t</text><text xml:space="preserve" font-family=".LucidaGrandeUI,.Lucida Grande UI" font-size="40.0" fill="#333333" transform="matrix(1.00, 0.00, -0.00, -1.00, 551.7, 257.6)">h</text><text xml:space="preserve" font-family=".LucidaGrandeUI,.Lucida Grande UI" font-size="40.0" fill="#333333" transform="matrix(1.00, 0.00, -0.00, -1.00, 576.5, 257.6)">i</text><text xml:space="preserve" font-family=".LucidaGrandeUI,.Lucida Grande UI" font-size="40.0" fill="#333333" transform="matrix(1.00, 0.00, -0.00, -1.00, 588.0, 257.6)">s</text><text xml:space="preserve" font-family=".LucidaGrandeUI,.Lucida Grande UI" font-size="40.0" fill="#333333" transform="matrix(1.00, 0.00, -0.00, -1.00, 606.6, 257.6)">.</text><text xml:space="preserve" font-family=".LucidaGrandeUI,.Lucida Grande UI" font-size="40.0" fill="#333333" transform="matrix(1.00, 0.00, -0.00, -1.00, 619.2, 257.6)">a</text><text xml:space="preserve" font-family=".LucidaGrandeUI,.Lucida Grande UI" font-size="40.0" fill="#333333" transform="matrix(1.00, 0.00, -0.00, -1.00, 641.3, 257.6)">d</text><text xml:space="preserve" font-family=".LucidaGrandeUI,.Lucida Grande UI" font-size="40.0" fill="#333333" transform="matrix(1.00, 0.00, -0.00, -1.00, 666.5, 257.6)">d</text><text xml:space="preserve" font-family=".LucidaGrandeUI,.Lucida Grande UI" font-size="40.0" fill="#333333" transform="matrix(1.00, 0.00, -0.00, -1.00, 691.7, 257.6)">E</text><text xml:space="preserve" font-family=".LucidaGrandeUI,.Lucida Grande UI" font-size="40.0" fill="#333333" transform="matrix(1.00, 0.00, -0.00, -1.00, 713.4, 257.6)">v</text><text xml:space="preserve" font-family=".LucidaGrandeUI,.Lucida Grande UI" font-size="40.0" fill="#333333" transform="matrix(1.00, 0.00, -0.00, -1.00, 734.0, 257.6)">e</text><text xml:space="preserve" font-family=".LucidaGrandeUI,.Lucida Grande UI" font-size="40.0" fill="#333333" transform="matrix(1.00, 0.00, -0.00, -1.00, 756.2, 257.6)">n</text><text xml:space="preserve" font-family=".LucidaGrandeUI,.Lucida Grande UI" font-size="40.0" fill="#333333" transform="matrix(1.00, 0.00, -0.00, -1.00, 781.1, 257.6)">t</text><text xml:space="preserve" font-family=".LucidaGrandeUI,.Lucida Grande UI" font-size="40.0" fill="#333333" transform="matrix(1.00, 0.00, -0.00, -1.00, 796.0, 257.6)">L</text><text xml:space="preserve" font-family=".LucidaGrandeUI,.Lucida Grande UI" font-size="40.0" fill="#333333" transform="matrix(1.00, 0.00, -0.00, -1.00, 817.2, 257.6)">i</text><text xml:space="preserve" font-family=".LucidaGrandeUI,.Lucida Grande UI" font-size="40.0" fill="#333333" transform="matrix(1.00, 0.00, -0.00, -1.00, 828.7, 257.6)">s</text><text xml:space="preserve" font-family=".LucidaGrandeUI,.Lucida Grande UI" font-size="40.0" fill="#333333" transform="matrix(1.00, 0.00, -0.00, -1.00, 847.2, 257.6)">t</text><text xml:space="preserve" font-family=".LucidaGrandeUI,.Lucida Grande UI" font-size="40.0" fill="#333333" transform="matrix(1.00, 0.00, -0.00, -1.00, 862.2, 257.6)">e</text><text xml:space="preserve" font-family=".LucidaGrandeUI,.Lucida Grande UI" font-size="40.0" fill="#333333" transform="matrix(1.00, 0.00, -0.00, -1.00, 884.5, 257.6)">n</text><text xml:space="preserve" font-family=".LucidaGrandeUI,.Lucida Grande UI" font-size="40.0" fill="#333333" transform="matrix(1.00, 0.00, -0.00, -1.00, 909.3, 257.6)">e</text><text xml:space="preserve" font-family=".LucidaGrandeUI,.Lucida Grande UI" font-size="40.0" fill="#333333" transform="matrix(1.00, 0.00, -0.00, -1.00, 931.6, 257.6)">r</text><text xml:space="preserve" font-family=".LucidaGrandeUI,.Lucida Grande UI" font-size="40.0" fill="#333333" transform="matrix(1.00, 0.00, -0.00, -1.00, 948.0, 257.6)">(</text><text xml:space="preserve" font-family=".LucidaGrandeUI,.Lucida Grande UI" font-size="40.0" fill="#333333" transform="matrix(1.00, 0.00, -0.00, -1.00, 961.0, 257.6)">‘</text><text xml:space="preserve" font-family=".LucidaGrandeUI,.Lucida Grande UI" font-size="40.0" fill="#333333" transform="matrix(1.00, 0.00, -0.00, -1.00, 970.1, 257.6)">c</text><text xml:space="preserve" font-family=".LucidaGrandeUI,.Lucida Grande UI" font-size="40.0" fill="#333333" transform="matrix(1.00, 0.00, -0.00, -1.00, 990.6, 257.6)">h</text><text xml:space="preserve" font-family=".LucidaGrandeUI,.Lucida Grande UI" font-size="40.0" fill="#333333" transform="matrix(1.00, 0.00, -0.00, -1.00, 1015.4, 257.6)">a</text><text xml:space="preserve" font-family=".LucidaGrandeUI,.Lucida Grande UI" font-size="40.0" fill="#333333" transform="matrix(1.00, 0.00, -0.00, -1.00, 1037.5, 257.6)">n</text><text xml:space="preserve" font-family=".LucidaGrandeUI,.Lucida Grande UI" font-size="40.0" fill="#333333" transform="matrix(1.00, 0.00, -0.00, -1.00, 1062.3, 257.6)">g</text><text xml:space="preserve" font-family=".LucidaGrandeUI,.Lucida Grande UI" font-size="40.0" fill="#333333" transform="matrix(1.00, 0.00, -0.00, -1.00, 1087.3, 257.6)">e</text><text xml:space="preserve" font-family=".LucidaGrandeUI,.Lucida Grande UI" font-size="40.0" fill="#333333" transform="matrix(1.00, 0.00, -0.00, -1.00, 1109.6, 257.6)">’</text><text xml:space="preserve" font-family=".LucidaGrandeUI,.Lucida Grande UI" font-size="40.0" fill="#333333" transform="matrix(1.00, 0.00, -0.00, -1.00, 1118.7, 257.6)">,</text><text xml:space="preserve" font-family=".LucidaGrandeUI,.Lucida Grande UI" font-size="40.0" fill="#333333" transform="matrix(1.00, 0.00, -0.00, -1.00, 1131.4, 257.6)"> </text><text xml:space="preserve" font-family=".LucidaGrandeUI,.Lucida Grande UI" font-size="40.0" fill="#333333" transform="matrix(1.00, 0.00, -0.00, -1.00, 1144.1, 257.6)">f</text><text xml:space="preserve" font-family=".LucidaGrandeUI,.Lucida Grande UI" font-size="40.0" fill="#333333" transform="matrix(1.00, 0.00, -0.00, -1.00, 1158.8, 257.6)">u</text><text xml:space="preserve" font-family=".LucidaGrandeUI,.Lucida Grande UI" font-size="40.0" fill="#333333" transform="matrix(1.00, 0.00, -0.00, -1.00, 1183.6, 257.6)">n</text><text xml:space="preserve" font-family=".LucidaGrandeUI,.Lucida Grande UI" font-size="40.0" fill="#333333" transform="matrix(1.00, 0.00, -0.00, -1.00, 1208.4, 257.6)">c</text><text xml:space="preserve" font-family=".LucidaGrandeUI,.Lucida Grande UI" font-size="40.0" fill="#333333" transform="matrix(1.00, 0.00, -0.00, -1.00, 1228.9, 257.6)">t</text><text xml:space="preserve" font-family=".LucidaGrandeUI,.Lucida Grande UI" font-size="40.0" fill="#333333" transform="matrix(1.00, 0.00, -0.00, -1.00, 1243.8, 257.6)">i</text><text xml:space="preserve" font-family=".LucidaGrandeUI,.Lucida Grande UI" font-size="40.0" fill="#333333" transform="matrix(1.00, 0.00, -0.00, -1.00, 1255.4, 257.6)">o</text><text xml:space="preserve" font-family=".LucidaGrandeUI,.Lucida Grande UI" font-size="40.0" fill="#333333" transform="matrix(1.00, 0.00, -0.00, -1.00, 1280.0, 257.6)">n</text><text xml:space="preserve" font-family=".LucidaGrandeUI,.Lucida Grande UI" font-size="40.0" fill="#333333" transform="matrix(1.00, 0.00, -0.00, -1.00, 1304.8, 257.6)">(</text><text xml:space="preserve" font-family=".LucidaGrandeUI,.Lucida Grande UI" font-size="40.0" fill="#333333" transform="matrix(1.00, 0.00, -0.00, -1.00, 1317.8, 257.6)">)</text><text xml:space="preserve" font-family=".LucidaGrandeUI,.Lucida Grande UI" font-size="40.0" fill="#333333" transform="matrix(1.00, 0.00, -0.00, -1.00, 1330.8, 257.6)"> </text><text xml:space="preserve" font-family=".LucidaGrandeUI,.Lucida Grande UI" font-size="40.0" fill="#333333" transform="matrix(1.00, 0.00, -0.00, -1.00, 1343.5, 257.6)">{</text><text xml:space="preserve" font-family=".LucidaGrandeUI,.Lucida Grande UI" font-size="40.0" fill="#333333" transform="matrix(1.00, 0.00, -0.00, -1.00, 1356.5, 257.6)"></text><text xml:space="preserve" font-family=".LucidaGrandeUI,.Lucida Grande UI" font-size="40.0" fill="#333333" transform="matrix(1.00, 0.00, -0.00, -1.00, 492.2, 201.2)">&gt;</text><text xml:space="preserve" font-family=".LucidaGrandeUI,.Lucida Grande UI" font-size="40.0" fill="#333333" transform="matrix(1.00, 0.00, -0.00, -1.00, 524.0, 201.2)"></text><text xml:space="preserve" font-family=".LucidaGrandeUI,.Lucida Grande UI" font-size="40.0" fill="#333333" transform="matrix(1.00, 0.00, -0.00, -1.00, 515.6, 201.2)"></text><text xml:space="preserve" font-family=".LucidaGrandeUI,.Lucida Grande UI" font-size="40.0" fill="#333333" transform="matrix(1.00, 0.00, -0.00, -1.00, 539.0, 201.2)">c</text><text xml:space="preserve" font-family=".LucidaGrandeUI,.Lucida Grande UI" font-size="40.0" fill="#333333" transform="matrix(1.00, 0.00, -0.00, -1.00, 559.4, 201.2)">o</text><text xml:space="preserve" font-family=".LucidaGrandeUI,.Lucida Grande UI" font-size="40.0" fill="#333333" transform="matrix(1.00, 0.00, -0.00, -1.00, 584.0, 201.2)">n</text><text xml:space="preserve" font-family=".LucidaGrandeUI,.Lucida Grande UI" font-size="40.0" fill="#333333" transform="matrix(1.00, 0.00, -0.00, -1.00, 608.8, 201.2)">s</text><text xml:space="preserve" font-family=".LucidaGrandeUI,.Lucida Grande UI" font-size="40.0" fill="#333333" transform="matrix(1.00, 0.00, -0.00, -1.00, 627.4, 201.2)">o</text><text xml:space="preserve" font-family=".LucidaGrandeUI,.Lucida Grande UI" font-size="40.0" fill="#333333" transform="matrix(1.00, 0.00, -0.00, -1.00, 651.9, 201.2)">l</text><text xml:space="preserve" font-family=".LucidaGrandeUI,.Lucida Grande UI" font-size="40.0" fill="#333333" transform="matrix(1.00, 0.00, -0.00, -1.00, 663.5, 201.2)">e</text><text xml:space="preserve" font-family=".LucidaGrandeUI,.Lucida Grande UI" font-size="40.0" fill="#333333" transform="matrix(1.00, 0.00, -0.00, -1.00, 685.8, 201.2)">.</text><text xml:space="preserve" font-family=".LucidaGrandeUI,.Lucida Grande UI" font-size="40.0" fill="#333333" transform="matrix(1.00, 0.00, -0.00, -1.00, 698.5, 201.2)">l</text><text xml:space="preserve" font-family=".LucidaGrandeUI,.Lucida Grande UI" font-size="40.0" fill="#333333" transform="matrix(1.00, 0.00, -0.00, -1.00, 710.0, 201.2)">o</text><text xml:space="preserve" font-family=".LucidaGrandeUI,.Lucida Grande UI" font-size="40.0" fill="#333333" transform="matrix(1.00, 0.00, -0.00, -1.00, 734.6, 201.2)">g</text><text xml:space="preserve" font-family=".LucidaGrandeUI,.Lucida Grande UI" font-size="40.0" fill="#333333" transform="matrix(1.00, 0.00, -0.00, -1.00, 759.5, 201.2)">(</text><text xml:space="preserve" font-family=".LucidaGrandeUI,.Lucida Grande UI" font-size="40.0" fill="#333333" transform="matrix(1.00, 0.00, -0.00, -1.00, 772.5, 201.2)">“</text><text xml:space="preserve" font-family=".LucidaGrandeUI,.Lucida Grande UI" font-size="40.0" fill="#333333" transform="matrix(1.00, 0.00, -0.00, -1.00, 789.7, 201.2)">I</text><text xml:space="preserve" font-family=".LucidaGrandeUI,.Lucida Grande UI" font-size="40.0" fill="#333333" transform="matrix(1.00, 0.00, -0.00, -1.00, 801.2, 201.2)"> </text><text xml:space="preserve" font-family=".LucidaGrandeUI,.Lucida Grande UI" font-size="40.0" fill="#333333" transform="matrix(1.00, 0.00, -0.00, -1.00, 813.9, 201.2)">c</text><text xml:space="preserve" font-family=".LucidaGrandeUI,.Lucida Grande UI" font-size="40.0" fill="#333333" transform="matrix(1.00, 0.00, -0.00, -1.00, 834.4, 201.2)">h</text><text xml:space="preserve" font-family=".LucidaGrandeUI,.Lucida Grande UI" font-size="40.0" fill="#333333" transform="matrix(1.00, 0.00, -0.00, -1.00, 859.2, 201.2)">a</text><text xml:space="preserve" font-family=".LucidaGrandeUI,.Lucida Grande UI" font-size="40.0" fill="#333333" transform="matrix(1.00, 0.00, -0.00, -1.00, 881.3, 201.2)">n</text><text xml:space="preserve" font-family=".LucidaGrandeUI,.Lucida Grande UI" font-size="40.0" fill="#333333" transform="matrix(1.00, 0.00, -0.00, -1.00, 906.1, 201.2)">g</text><text xml:space="preserve" font-family=".LucidaGrandeUI,.Lucida Grande UI" font-size="40.0" fill="#333333" transform="matrix(1.00, 0.00, -0.00, -1.00, 931.1, 201.2)">e</text><text xml:space="preserve" font-family=".LucidaGrandeUI,.Lucida Grande UI" font-size="40.0" fill="#333333" transform="matrix(1.00, 0.00, -0.00, -1.00, 953.3, 201.2)">d</text><text xml:space="preserve" font-family=".LucidaGrandeUI,.Lucida Grande UI" font-size="40.0" fill="#333333" transform="matrix(1.00, 0.00, -0.00, -1.00, 978.6, 201.2)">!</text><text xml:space="preserve" font-family=".LucidaGrandeUI,.Lucida Grande UI" font-size="40.0" fill="#333333" transform="matrix(1.00, 0.00, -0.00, -1.00, 991.7, 201.2)">”</text><text xml:space="preserve" font-family=".LucidaGrandeUI,.Lucida Grande UI" font-size="40.0" fill="#333333" transform="matrix(1.00, 0.00, -0.00, -1.00, 1008.9, 201.2)">)</text><text xml:space="preserve" font-family=".LucidaGrandeUI,.Lucida Grande UI" font-size="40.0" fill="#333333" transform="matrix(1.00, 0.00, -0.00, -1.00, 1021.9, 201.2)">;</text><text xml:space="preserve" font-family=".LucidaGrandeUI,.Lucida Grande UI" font-size="40.0" fill="#333333" transform="matrix(1.00, 0.00, -0.00, -1.00, 1034.6, 201.2)"></text><text xml:space="preserve" font-family=".LucidaGrandeUI,.Lucida Grande UI" font-size="40.0" fill="#333333" transform="matrix(1.00, 0.00, -0.00, -1.00, 492.2, 144.8)">&gt;</text><text xml:space="preserve" font-family=".LucidaGrandeUI,.Lucida Grande UI" font-size="40.0" fill="#333333" transform="matrix(1.00, 0.00, -0.00, -1.00, 524.0, 144.8)"></text><text xml:space="preserve" font-family=".LucidaGrandeUI,.Lucida Grande UI" font-size="40.0" fill="#333333" transform="matrix(1.00, 0.00, -0.00, -1.00, 515.6, 144.8)">}</text><text xml:space="preserve" font-family=".LucidaGrandeUI,.Lucida Grande UI" font-size="40.0" fill="#333333" transform="matrix(1.00, 0.00, -0.00, -1.00, 528.6, 144.8)">)</text><text xml:space="preserve" font-family=".LucidaGrandeUI,.Lucida Grande UI" font-size="40.0" fill="#333333" transform="matrix(1.00, 0.00, -0.00, -1.00, 541.6, 144.8)">;</text></g></g><image xlink:href="../../018A80B2-2C9E-4126-8521-F8BE2B268177/assets/E239A69C5BC8C4E661BEBE49DAF1B24E.png" width="475.00" height="361.00" transform="matrix(1.00, 0.00, -0.00, -1.00, 722.5, 900.7)"></image><text xml:space="preserve" font-family="Roboto-Bold,Roboto" font-weight="bold" font-size="80.0" fill="#424242" transform="matrix(1.00, 0.00, -0.00, -1.00, 161.3, 918.2)">P</text><text xml:space="preserve" font-family="Roboto-Bold,Roboto" font-weight="bold" font-size="80.0" fill="#424242" transform="matrix(1.00, 0.00, -0.00, -1.00, 213.4, 918.2)">r</text><text xml:space="preserve" font-family="Roboto-Bold,Roboto" font-weight="bold" font-size="80.0" fill="#424242" transform="matrix(1.00, 0.00, -0.00, -1.00, 241.5, 918.2)">o</text><text xml:space="preserve" font-family="Roboto-Bold,Roboto" font-weight="bold" font-size="80.0" fill="#424242" transform="matrix(1.00, 0.00, -0.00, -1.00, 286.7, 918.2)">g</text><text xml:space="preserve" font-family="Roboto-Bold,Roboto" font-weight="bold" font-size="80.0" fill="#424242" transform="matrix(1.00, 0.00, -0.00, -1.00, 331.8, 918.2)">r</text><text xml:space="preserve" font-family="Roboto-Bold,Roboto" font-weight="bold" font-size="80.0" fill="#424242" transform="matrix(1.00, 0.00, -0.00, -1.00, 359.9, 918.2)">a</text><text xml:space="preserve" font-family="Roboto-Bold,Roboto" font-weight="bold" font-size="80.0" fill="#424242" transform="matrix(1.00, 0.00, -0.00, -1.00, 402.9, 918.2)">m</text><text xml:space="preserve" font-family="Roboto-Bold,Roboto" font-weight="bold" font-size="80.0" fill="#424242" transform="matrix(1.00, 0.00, -0.00, -1.00, 472.1, 918.2)">m</text><text xml:space="preserve" font-family="Roboto-Bold,Roboto" font-weight="bold" font-size="80.0" fill="#424242" transform="matrix(1.00, 0.00, -0.00, -1.00, 541.4, 918.2)">a</text><text xml:space="preserve" font-family="Roboto-Bold,Roboto" font-weight="bold" font-size="80.0" fill="#424242" transform="matrix(1.00, 0.00, -0.00, -1.00, 584.4, 918.2)">b</text><text xml:space="preserve" font-family="Roboto-Bold,Roboto" font-weight="bold" font-size="80.0" fill="#424242" transform="matrix(1.00, 0.00, -0.00, -1.00, 629.6, 918.2)">l</text><text xml:space="preserve" font-family="Roboto-Bold,Roboto" font-weight="bold" font-size="80.0" fill="#424242" transform="matrix(1.00, 0.00, -0.00, -1.00, 651.0, 918.2)">e</text></g></svg>