<?xml version="1.0" encoding="UTF-8" standalone="no"?><svg xmlns="http://www.w3.org/2000/svg" xmlns:xlink="http://www.w3.org/1999/xlink" clip-rule="evenodd" stroke-miterlimit="10" viewBox="0 0 1920 1080"><desc>SVG generated by Keynote</desc><defs></defs><g transform="matrix(1.00, 0.00, -0.00, -1.00, 0.0, 1080.0)"><path d="M 0.0 1080.0 L 1920.0 1080.0 L 1920.0 0.0 L 0.0 0.0 Z M 0.0 1080.0 " fill="#FFFFFF"></path><image xlink:href="../../8F91ED94-F9F3-49CC-84DF-BC593D406D34/assets/A960F58DF2EDA1819FF5E86A9EED6F10.png" width="2560.00" height="1440.00" transform="matrix(0.75, 0.00, -0.00, -0.75, 0.0, 1080.0)"></image><text xml:space="preserve" font-family="Roboto-Medium,Roboto" font-size="116.0" fill="#7E7E7E" transform="matrix(1.00, 0.00, -0.00, -1.00, 153.4, 494.9)">p</text><text xml:space="preserve" font-family="Roboto-Medium,Roboto" font-size="116.0" fill="#7E7E7E" transform="matrix(1.00, 0.00, -0.00, -1.00, 219.1, 494.9)">o</text><text xml:space="preserve" font-family="Roboto-Medium,Roboto" font-size="116.0" fill="#7E7E7E" transform="matrix(1.00, 0.00, -0.00, -1.00, 284.9, 494.9)">l</text><text xml:space="preserve" font-family="Roboto-Medium,Roboto" font-size="116.0" fill="#7E7E7E" transform="matrix(1.00, 0.00, -0.00, -1.00, 315.0, 494.9)">y</text><text xml:space="preserve" font-family="Roboto-Medium,Roboto" font-size="116.0" fill="#7E7E7E" transform="matrix(1.00, 0.00, -0.00, -1.00, 373.7, 494.9)">m</text><text xml:space="preserve" font-family="Roboto-Medium,Roboto" font-size="116.0" fill="#7E7E7E" transform="matrix(1.00, 0.00, -0.00, -1.00, 474.5, 494.9)">e</text><text xml:space="preserve" font-family="Roboto-Medium,Roboto" font-size="116.0" fill="#7E7E7E" transform="matrix(1.00, 0.00, -0.00, -1.00, 536.0, 494.9)">r</text><text xml:space="preserve" font-family="Roboto-Medium,Roboto" font-size="116.0" fill="#7E7E7E" transform="matrix(1.00, 0.00, -0.00, -1.00, 567.1, 494.9)">.</text><text xml:space="preserve" font-family="Roboto-Medium,Roboto" font-size="116.0" fill="#7E7E7E" transform="matrix(1.00, 0.00, -0.00, -1.00, 599.6, 494.9)">j</text><text xml:space="preserve" font-family="Roboto-Medium,Roboto" font-size="116.0" fill="#7E7E7E" transform="matrix(1.00, 0.00, -0.00, -1.00, 630.1, 494.9)">s</text></g></svg>