<?xml version="1.0" encoding="UTF-8" standalone="no"?><svg xmlns="http://www.w3.org/2000/svg" xmlns:xlink="http://www.w3.org/1999/xlink" clip-rule="evenodd" stroke-miterlimit="10" viewBox="0 0 1920 1080"><desc>SVG generated by Keynote</desc><defs></defs><g transform="matrix(1.00, 0.00, -0.00, -1.00, 0.0, 1080.0)"><path d="M 0.0 1080.0 L 1920.0 1080.0 L 1920.0 0.0 L 0.0 0.0 Z M 0.0 1080.0 " fill="#FFFFFF"></path><path d="M 528.2 25.0 L 528.0 456.5 C 528.0 459.8 530.9 462.0 534.2 462.0 L 1385.8 462.0 C 1389.1 462.0 1392.0 459.8 1392.0 456.5 L 1392.0 25.0 C 1392.0 21.7 1389.1 19.0 1385.8 19.0 L 534.2 19.0 C 530.9 19.0 528.2 21.7 528.2 25.0 Z M 528.2 25.0 " fill="#E7E7E7"></path><g><clipPath id="clip0x6000012a5160"><path d="M 528.2 19.0 L 1391.8 19.0 L 1391.8 462.4 L 528.2 462.4 Z M 528.2 19.0 "></path></clipPath><g clip-path="url(#clip0x6000012a5160)"><text xml:space="preserve" font-family=".LucidaGrandeUI,.Lucida Grande UI" font-size="40.0" fill="#4185F4" transform="matrix(1.00, 0.00, -0.00, -1.00, 548.2, 399.9)">&lt;</text><text xml:space="preserve" font-family=".LucidaGrandeUI,.Lucida Grande UI" font-size="40.0" fill="#4185F4" transform="matrix(1.00, 0.00, -0.00, -1.00, 580.0, 399.9)">s</text><text xml:space="preserve" font-family=".LucidaGrandeUI,.Lucida Grande UI" font-size="40.0" fill="#4185F4" transform="matrix(1.00, 0.00, -0.00, -1.00, 598.5, 399.9)">e</text><text xml:space="preserve" font-family=".LucidaGrandeUI,.Lucida Grande UI" font-size="40.0" fill="#4185F4" transform="matrix(1.00, 0.00, -0.00, -1.00, 620.8, 399.9)">l</text><text xml:space="preserve" font-family=".LucidaGrandeUI,.Lucida Grande UI" font-size="40.0" fill="#4185F4" transform="matrix(1.00, 0.00, -0.00, -1.00, 632.4, 399.9)">e</text><text xml:space="preserve" font-family=".LucidaGrandeUI,.Lucida Grande UI" font-size="40.0" fill="#4185F4" transform="matrix(1.00, 0.00, -0.00, -1.00, 654.7, 399.9)">c</text><text xml:space="preserve" font-family=".LucidaGrandeUI,.Lucida Grande UI" font-size="40.0" fill="#4185F4" transform="matrix(1.00, 0.00, -0.00, -1.00, 675.2, 399.9)">t</text><text xml:space="preserve" font-family=".LucidaGrandeUI,.Lucida Grande UI" font-size="40.0" fill="#4185F4" transform="matrix(1.00, 0.00, -0.00, -1.00, 690.1, 399.9)">&gt;</text><text xml:space="preserve" font-family=".LucidaGrandeUI,.Lucida Grande UI" font-size="40.0" fill="#4185F4" transform="matrix(1.00, 0.00, -0.00, -1.00, 721.9, 399.9)"></text><text xml:space="preserve" font-family=".LucidaGrandeUI,.Lucida Grande UI" font-size="40.0" fill="#4185F4" transform="matrix(1.00, 0.00, -0.00, -1.00, 548.2, 343.5)"></text><text xml:space="preserve" font-family=".LucidaGrandeUI,.Lucida Grande UI" font-size="40.0" fill="#4185F4" transform="matrix(1.00, 0.00, -0.00, -1.00, 571.6, 343.5)">&lt;</text><text xml:space="preserve" font-family=".LucidaGrandeUI,.Lucida Grande UI" font-size="40.0" fill="#4185F4" transform="matrix(1.00, 0.00, -0.00, -1.00, 603.4, 343.5)">o</text><text xml:space="preserve" font-family=".LucidaGrandeUI,.Lucida Grande UI" font-size="40.0" fill="#4185F4" transform="matrix(1.00, 0.00, -0.00, -1.00, 627.9, 343.5)">p</text><text xml:space="preserve" font-family=".LucidaGrandeUI,.Lucida Grande UI" font-size="40.0" fill="#4185F4" transform="matrix(1.00, 0.00, -0.00, -1.00, 653.1, 343.5)">t</text><text xml:space="preserve" font-family=".LucidaGrandeUI,.Lucida Grande UI" font-size="40.0" fill="#4185F4" transform="matrix(1.00, 0.00, -0.00, -1.00, 668.1, 343.5)">i</text><text xml:space="preserve" font-family=".LucidaGrandeUI,.Lucida Grande UI" font-size="40.0" fill="#4185F4" transform="matrix(1.00, 0.00, -0.00, -1.00, 679.7, 343.5)">o</text><text xml:space="preserve" font-family=".LucidaGrandeUI,.Lucida Grande UI" font-size="40.0" fill="#4185F4" transform="matrix(1.00, 0.00, -0.00, -1.00, 704.2, 343.5)">n</text><text xml:space="preserve" font-family=".LucidaGrandeUI,.Lucida Grande UI" font-size="40.0" fill="#4185F4" transform="matrix(1.00, 0.00, -0.00, -1.00, 729.1, 343.5)">&gt;</text><text xml:space="preserve" font-family=".LucidaGrandeUI,.Lucida Grande UI" font-size="40.0" fill="#333333" transform="matrix(1.00, 0.00, -0.00, -1.00, 773.5, 343.5)">N</text><text xml:space="preserve" font-family=".LucidaGrandeUI,.Lucida Grande UI" font-size="40.0" fill="#333333" transform="matrix(1.00, 0.00, -0.00, -1.00, 803.0, 343.5)">y</text><text xml:space="preserve" font-family=".LucidaGrandeUI,.Lucida Grande UI" font-size="40.0" fill="#333333" transform="matrix(1.00, 0.00, -0.00, -1.00, 823.6, 343.5)">l</text><text xml:space="preserve" font-family=".LucidaGrandeUI,.Lucida Grande UI" font-size="40.0" fill="#333333" transform="matrix(1.00, 0.00, -0.00, -1.00, 835.1, 343.5)">o</text><text xml:space="preserve" font-family=".LucidaGrandeUI,.Lucida Grande UI" font-size="40.0" fill="#333333" transform="matrix(1.00, 0.00, -0.00, -1.00, 859.7, 343.5)">n</text><text xml:space="preserve" font-family=".LucidaGrandeUI,.Lucida Grande UI" font-size="40.0" fill="#4185F4" transform="matrix(1.00, 0.00, -0.00, -1.00, 884.5, 343.5)">&lt;</text><text xml:space="preserve" font-family=".LucidaGrandeUI,.Lucida Grande UI" font-size="40.0" fill="#4185F4" transform="matrix(1.00, 0.00, -0.00, -1.00, 916.3, 343.5)">/</text><text xml:space="preserve" font-family=".LucidaGrandeUI,.Lucida Grande UI" font-size="40.0" fill="#4185F4" transform="matrix(1.00, 0.00, -0.00, -1.00, 937.3, 343.5)">o</text><text xml:space="preserve" font-family=".LucidaGrandeUI,.Lucida Grande UI" font-size="40.0" fill="#4185F4" transform="matrix(1.00, 0.00, -0.00, -1.00, 961.9, 343.5)">p</text><text xml:space="preserve" font-family=".LucidaGrandeUI,.Lucida Grande UI" font-size="40.0" fill="#4185F4" transform="matrix(1.00, 0.00, -0.00, -1.00, 987.1, 343.5)">t</text><text xml:space="preserve" font-family=".LucidaGrandeUI,.Lucida Grande UI" font-size="40.0" fill="#4185F4" transform="matrix(1.00, 0.00, -0.00, -1.00, 1002.1, 343.5)">i</text><text xml:space="preserve" font-family=".LucidaGrandeUI,.Lucida Grande UI" font-size="40.0" fill="#4185F4" transform="matrix(1.00, 0.00, -0.00, -1.00, 1013.6, 343.5)">o</text><text xml:space="preserve" font-family=".LucidaGrandeUI,.Lucida Grande UI" font-size="40.0" fill="#4185F4" transform="matrix(1.00, 0.00, -0.00, -1.00, 1038.2, 343.5)">n</text><text xml:space="preserve" font-family=".LucidaGrandeUI,.Lucida Grande UI" font-size="40.0" fill="#4185F4" transform="matrix(1.00, 0.00, -0.00, -1.00, 1063.0, 343.5)">&gt;</text><text xml:space="preserve" font-family=".LucidaGrandeUI,.Lucida Grande UI" font-size="40.0" fill="#4185F4" transform="matrix(1.00, 0.00, -0.00, -1.00, 1094.8, 343.5)"></text><text xml:space="preserve" font-family=".LucidaGrandeUI,.Lucida Grande UI" font-size="40.0" fill="#4185F4" transform="matrix(1.00, 0.00, -0.00, -1.00, 548.2, 287.1)"> </text><text xml:space="preserve" font-family=".LucidaGrandeUI,.Lucida Grande UI" font-size="40.0" fill="#4185F4" transform="matrix(1.00, 0.00, -0.00, -1.00, 560.9, 287.1)"> </text><text xml:space="preserve" font-family=".LucidaGrandeUI,.Lucida Grande UI" font-size="40.0" fill="#4185F4" transform="matrix(1.00, 0.00, -0.00, -1.00, 573.6, 287.1)"> </text><text xml:space="preserve" font-family=".LucidaGrandeUI,.Lucida Grande UI" font-size="40.0" fill="#4185F4" transform="matrix(1.00, 0.00, -0.00, -1.00, 586.2, 287.1)">&lt;</text><text xml:space="preserve" font-family=".LucidaGrandeUI,.Lucida Grande UI" font-size="40.0" fill="#4185F4" transform="matrix(1.00, 0.00, -0.00, -1.00, 618.0, 287.1)">o</text><text xml:space="preserve" font-family=".LucidaGrandeUI,.Lucida Grande UI" font-size="40.0" fill="#4185F4" transform="matrix(1.00, 0.00, -0.00, -1.00, 642.6, 287.1)">p</text><text xml:space="preserve" font-family=".LucidaGrandeUI,.Lucida Grande UI" font-size="40.0" fill="#4185F4" transform="matrix(1.00, 0.00, -0.00, -1.00, 667.8, 287.1)">t</text><text xml:space="preserve" font-family=".LucidaGrandeUI,.Lucida Grande UI" font-size="40.0" fill="#4185F4" transform="matrix(1.00, 0.00, -0.00, -1.00, 682.8, 287.1)">i</text><text xml:space="preserve" font-family=".LucidaGrandeUI,.Lucida Grande UI" font-size="40.0" fill="#4185F4" transform="matrix(1.00, 0.00, -0.00, -1.00, 694.3, 287.1)">o</text><text xml:space="preserve" font-family=".LucidaGrandeUI,.Lucida Grande UI" font-size="40.0" fill="#4185F4" transform="matrix(1.00, 0.00, -0.00, -1.00, 718.9, 287.1)">n</text><text xml:space="preserve" font-family=".LucidaGrandeUI,.Lucida Grande UI" font-size="40.0" fill="#4185F4" transform="matrix(1.00, 0.00, -0.00, -1.00, 743.7, 287.1)">&gt;</text><text xml:space="preserve" font-family=".LucidaGrandeUI,.Lucida Grande UI" font-size="40.0" fill="#333333" transform="matrix(1.00, 0.00, -0.00, -1.00, 775.4, 287.1)">T</text><text xml:space="preserve" font-family=".LucidaGrandeUI,.Lucida Grande UI" font-size="40.0" fill="#333333" transform="matrix(1.00, 0.00, -0.00, -1.00, 797.9, 287.1)">e</text><text xml:space="preserve" font-family=".LucidaGrandeUI,.Lucida Grande UI" font-size="40.0" fill="#333333" transform="matrix(1.00, 0.00, -0.00, -1.00, 820.2, 287.1)">ﬂ</text><text xml:space="preserve" font-family=".LucidaGrandeUI,.Lucida Grande UI" font-size="40.0" fill="#333333" transform="matrix(1.00, 0.00, -0.00, -1.00, 846.1, 287.1)">o</text><text xml:space="preserve" font-family=".LucidaGrandeUI,.Lucida Grande UI" font-size="40.0" fill="#333333" transform="matrix(1.00, 0.00, -0.00, -1.00, 870.7, 287.1)">n</text><text xml:space="preserve" font-family=".LucidaGrandeUI,.Lucida Grande UI" font-size="40.0" fill="#4185F4" transform="matrix(1.00, 0.00, -0.00, -1.00, 895.5, 287.1)">&lt;</text><text xml:space="preserve" font-family=".LucidaGrandeUI,.Lucida Grande UI" font-size="40.0" fill="#4185F4" transform="matrix(1.00, 0.00, -0.00, -1.00, 927.3, 287.1)">/</text><text xml:space="preserve" font-family=".LucidaGrandeUI,.Lucida Grande UI" font-size="40.0" fill="#4185F4" transform="matrix(1.00, 0.00, -0.00, -1.00, 948.3, 287.1)">o</text><text xml:space="preserve" font-family=".LucidaGrandeUI,.Lucida Grande UI" font-size="40.0" fill="#4185F4" transform="matrix(1.00, 0.00, -0.00, -1.00, 972.8, 287.1)">p</text><text xml:space="preserve" font-family=".LucidaGrandeUI,.Lucida Grande UI" font-size="40.0" fill="#4185F4" transform="matrix(1.00, 0.00, -0.00, -1.00, 998.0, 287.1)">t</text><text xml:space="preserve" font-family=".LucidaGrandeUI,.Lucida Grande UI" font-size="40.0" fill="#4185F4" transform="matrix(1.00, 0.00, -0.00, -1.00, 1013.0, 287.1)">i</text><text xml:space="preserve" font-family=".LucidaGrandeUI,.Lucida Grande UI" font-size="40.0" fill="#4185F4" transform="matrix(1.00, 0.00, -0.00, -1.00, 1024.6, 287.1)">o</text><text xml:space="preserve" font-family=".LucidaGrandeUI,.Lucida Grande UI" font-size="40.0" fill="#4185F4" transform="matrix(1.00, 0.00, -0.00, -1.00, 1049.1, 287.1)">n</text><text xml:space="preserve" font-family=".LucidaGrandeUI,.Lucida Grande UI" font-size="40.0" fill="#4185F4" transform="matrix(1.00, 0.00, -0.00, -1.00, 1073.9, 287.1)">&gt;</text><text xml:space="preserve" font-family=".LucidaGrandeUI,.Lucida Grande UI" font-size="40.0" fill="#4185F4" transform="matrix(1.00, 0.00, -0.00, -1.00, 1105.7, 287.1)"></text><text xml:space="preserve" font-family=".LucidaGrandeUI,.Lucida Grande UI" font-size="40.0" fill="#4185F4" transform="matrix(1.00, 0.00, -0.00, -1.00, 548.2, 230.7)"></text><text xml:space="preserve" font-family=".LucidaGrandeUI,.Lucida Grande UI" font-size="40.0" fill="#4185F4" transform="matrix(1.00, 0.00, -0.00, -1.00, 548.2, 230.7)">&lt;</text><text xml:space="preserve" font-family=".LucidaGrandeUI,.Lucida Grande UI" font-size="40.0" fill="#4185F4" transform="matrix(1.00, 0.00, -0.00, -1.00, 580.0, 230.7)">p</text><text xml:space="preserve" font-family=".LucidaGrandeUI,.Lucida Grande UI" font-size="40.0" fill="#4185F4" transform="matrix(1.00, 0.00, -0.00, -1.00, 605.2, 230.7)">&gt;</text><text xml:space="preserve" font-family=".LucidaGrandeUI,.Lucida Grande UI" font-size="40.0" fill="#333333" transform="matrix(1.00, 0.00, -0.00, -1.00, 673.0, 230.7)">P</text><text xml:space="preserve" font-family=".LucidaGrandeUI,.Lucida Grande UI" font-size="40.0" fill="#333333" transform="matrix(1.00, 0.00, -0.00, -1.00, 695.1, 230.7)">r</text><text xml:space="preserve" font-family=".LucidaGrandeUI,.Lucida Grande UI" font-size="40.0" fill="#333333" transform="matrix(1.00, 0.00, -0.00, -1.00, 711.5, 230.7)">o</text><text xml:space="preserve" font-family=".LucidaGrandeUI,.Lucida Grande UI" font-size="40.0" fill="#333333" transform="matrix(1.00, 0.00, -0.00, -1.00, 736.1, 230.7)">p</text><text xml:space="preserve" font-family=".LucidaGrandeUI,.Lucida Grande UI" font-size="40.0" fill="#333333" transform="matrix(1.00, 0.00, -0.00, -1.00, 761.3, 230.7)">y</text><text xml:space="preserve" font-family=".LucidaGrandeUI,.Lucida Grande UI" font-size="40.0" fill="#333333" transform="matrix(1.00, 0.00, -0.00, -1.00, 781.9, 230.7)">l</text><text xml:space="preserve" font-family=".LucidaGrandeUI,.Lucida Grande UI" font-size="40.0" fill="#333333" transform="matrix(1.00, 0.00, -0.00, -1.00, 793.4, 230.7)">e</text><text xml:space="preserve" font-family=".LucidaGrandeUI,.Lucida Grande UI" font-size="40.0" fill="#333333" transform="matrix(1.00, 0.00, -0.00, -1.00, 815.7, 230.7)">n</text><text xml:space="preserve" font-family=".LucidaGrandeUI,.Lucida Grande UI" font-size="40.0" fill="#333333" transform="matrix(1.00, 0.00, -0.00, -1.00, 840.5, 230.7)">e</text><text xml:space="preserve" font-family=".LucidaGrandeUI,.Lucida Grande UI" font-size="40.0" fill="#333333" transform="matrix(1.00, 0.00, -0.00, -1.00, 862.8, 230.7)">?</text><text xml:space="preserve" font-family=".LucidaGrandeUI,.Lucida Grande UI" font-size="40.0" fill="#4185F4" transform="matrix(1.00, 0.00, -0.00, -1.00, 880.5, 230.7)">&lt;</text><text xml:space="preserve" font-family=".LucidaGrandeUI,.Lucida Grande UI" font-size="40.0" fill="#4185F4" transform="matrix(1.00, 0.00, -0.00, -1.00, 912.3, 230.7)">/</text><text xml:space="preserve" font-family=".LucidaGrandeUI,.Lucida Grande UI" font-size="40.0" fill="#4185F4" transform="matrix(1.00, 0.00, -0.00, -1.00, 933.3, 230.7)">p</text><text xml:space="preserve" font-family=".LucidaGrandeUI,.Lucida Grande UI" font-size="40.0" fill="#4185F4" transform="matrix(1.00, 0.00, -0.00, -1.00, 958.5, 230.7)">&gt;</text><text xml:space="preserve" font-family=".LucidaGrandeUI,.Lucida Grande UI" font-size="40.0" fill="#4185F4" transform="matrix(1.00, 0.00, -0.00, -1.00, 990.2, 230.7)"></text><path d="M 20.0 221.1 L 144.8 221.1 " fill="none" stroke="#4185F4" stroke-width="1.89" transform="matrix(1.00, 0.00, 0.00, -1.00, 528.2, 462.4)"></path><path d="M 144.8 221.1 L 352.3 221.1 " fill="none" stroke="#333333" stroke-width="1.89" transform="matrix(1.00, 0.00, 0.00, -1.00, 528.2, 462.4)"></path><path d="M 352.3 221.1 L 462.0 221.1 " fill="none" stroke="#4185F4" stroke-width="1.89" transform="matrix(1.00, 0.00, 0.00, -1.00, 528.2, 462.4)"></path><text xml:space="preserve" font-family=".LucidaGrandeUI,.Lucida Grande UI" font-size="40.0" fill="#4185F4" transform="matrix(1.00, 0.00, -0.00, -1.00, 548.2, 174.3)"></text><text xml:space="preserve" font-family=".LucidaGrandeUI,.Lucida Grande UI" font-size="40.0" fill="#4185F4" transform="matrix(1.00, 0.00, -0.00, -1.00, 571.6, 174.3)">&lt;</text><text xml:space="preserve" font-family=".LucidaGrandeUI,.Lucida Grande UI" font-size="40.0" fill="#4185F4" transform="matrix(1.00, 0.00, -0.00, -1.00, 603.4, 174.3)">o</text><text xml:space="preserve" font-family=".LucidaGrandeUI,.Lucida Grande UI" font-size="40.0" fill="#4185F4" transform="matrix(1.00, 0.00, -0.00, -1.00, 627.9, 174.3)">p</text><text xml:space="preserve" font-family=".LucidaGrandeUI,.Lucida Grande UI" font-size="40.0" fill="#4185F4" transform="matrix(1.00, 0.00, -0.00, -1.00, 653.1, 174.3)">t</text><text xml:space="preserve" font-family=".LucidaGrandeUI,.Lucida Grande UI" font-size="40.0" fill="#4185F4" transform="matrix(1.00, 0.00, -0.00, -1.00, 668.1, 174.3)">i</text><text xml:space="preserve" font-family=".LucidaGrandeUI,.Lucida Grande UI" font-size="40.0" fill="#4185F4" transform="matrix(1.00, 0.00, -0.00, -1.00, 679.7, 174.3)">o</text><text xml:space="preserve" font-family=".LucidaGrandeUI,.Lucida Grande UI" font-size="40.0" fill="#4185F4" transform="matrix(1.00, 0.00, -0.00, -1.00, 704.2, 174.3)">n</text><text xml:space="preserve" font-family=".LucidaGrandeUI,.Lucida Grande UI" font-size="40.0" fill="#4185F4" transform="matrix(1.00, 0.00, -0.00, -1.00, 729.1, 174.3)">&gt;</text><text xml:space="preserve" font-family=".LucidaGrandeUI,.Lucida Grande UI" font-size="40.0" fill="#333333" transform="matrix(1.00, 0.00, -0.00, -1.00, 773.5, 174.3)">S</text><text xml:space="preserve" font-family=".LucidaGrandeUI,.Lucida Grande UI" font-size="40.0" fill="#333333" transform="matrix(1.00, 0.00, -0.00, -1.00, 795.0, 174.3)">t</text><text xml:space="preserve" font-family=".LucidaGrandeUI,.Lucida Grande UI" font-size="40.0" fill="#333333" transform="matrix(1.00, 0.00, -0.00, -1.00, 810.0, 174.3)">y</text><text xml:space="preserve" font-family=".LucidaGrandeUI,.Lucida Grande UI" font-size="40.0" fill="#333333" transform="matrix(1.00, 0.00, -0.00, -1.00, 830.5, 174.3)">r</text><text xml:space="preserve" font-family=".LucidaGrandeUI,.Lucida Grande UI" font-size="40.0" fill="#333333" transform="matrix(1.00, 0.00, -0.00, -1.00, 846.9, 174.3)">o</text><text xml:space="preserve" font-family=".LucidaGrandeUI,.Lucida Grande UI" font-size="40.0" fill="#333333" transform="matrix(1.00, 0.00, -0.00, -1.00, 871.5, 174.3)">f</text><text xml:space="preserve" font-family=".LucidaGrandeUI,.Lucida Grande UI" font-size="40.0" fill="#333333" transform="matrix(1.00, 0.00, -0.00, -1.00, 886.2, 174.3)">o</text><text xml:space="preserve" font-family=".LucidaGrandeUI,.Lucida Grande UI" font-size="40.0" fill="#333333" transform="matrix(1.00, 0.00, -0.00, -1.00, 910.8, 174.3)">a</text><text xml:space="preserve" font-family=".LucidaGrandeUI,.Lucida Grande UI" font-size="40.0" fill="#333333" transform="matrix(1.00, 0.00, -0.00, -1.00, 932.9, 174.3)">m</text><text xml:space="preserve" font-family=".LucidaGrandeUI,.Lucida Grande UI" font-size="40.0" fill="#4185F4" transform="matrix(1.00, 0.00, -0.00, -1.00, 970.2, 174.3)">&lt;</text><text xml:space="preserve" font-family=".LucidaGrandeUI,.Lucida Grande UI" font-size="40.0" fill="#4185F4" transform="matrix(1.00, 0.00, -0.00, -1.00, 1002.0, 174.3)">/</text><text xml:space="preserve" font-family=".LucidaGrandeUI,.Lucida Grande UI" font-size="40.0" fill="#4185F4" transform="matrix(1.00, 0.00, -0.00, -1.00, 1023.0, 174.3)">o</text><text xml:space="preserve" font-family=".LucidaGrandeUI,.Lucida Grande UI" font-size="40.0" fill="#4185F4" transform="matrix(1.00, 0.00, -0.00, -1.00, 1047.6, 174.3)">p</text><text xml:space="preserve" font-family=".LucidaGrandeUI,.Lucida Grande UI" font-size="40.0" fill="#4185F4" transform="matrix(1.00, 0.00, -0.00, -1.00, 1072.7, 174.3)">t</text><text xml:space="preserve" font-family=".LucidaGrandeUI,.Lucida Grande UI" font-size="40.0" fill="#4185F4" transform="matrix(1.00, 0.00, -0.00, -1.00, 1087.7, 174.3)">i</text><text xml:space="preserve" font-family=".LucidaGrandeUI,.Lucida Grande UI" font-size="40.0" fill="#4185F4" transform="matrix(1.00, 0.00, -0.00, -1.00, 1099.3, 174.3)">o</text><text xml:space="preserve" font-family=".LucidaGrandeUI,.Lucida Grande UI" font-size="40.0" fill="#4185F4" transform="matrix(1.00, 0.00, -0.00, -1.00, 1123.9, 174.3)">n</text><text xml:space="preserve" font-family=".LucidaGrandeUI,.Lucida Grande UI" font-size="40.0" fill="#4185F4" transform="matrix(1.00, 0.00, -0.00, -1.00, 1148.7, 174.3)">&gt;</text><text xml:space="preserve" font-family=".LucidaGrandeUI,.Lucida Grande UI" font-size="40.0" fill="#4185F4" transform="matrix(1.00, 0.00, -0.00, -1.00, 1180.5, 174.3)"></text><text xml:space="preserve" font-family=".LucidaGrandeUI,.Lucida Grande UI" font-size="40.0" fill="#4185F4" transform="matrix(1.00, 0.00, -0.00, -1.00, 548.2, 117.9)"> </text><text xml:space="preserve" font-family=".LucidaGrandeUI,.Lucida Grande UI" font-size="40.0" fill="#4185F4" transform="matrix(1.00, 0.00, -0.00, -1.00, 560.9, 117.9)"> </text><text xml:space="preserve" font-family=".LucidaGrandeUI,.Lucida Grande UI" font-size="40.0" fill="#4185F4" transform="matrix(1.00, 0.00, -0.00, -1.00, 573.6, 117.9)"> </text><text xml:space="preserve" font-family=".LucidaGrandeUI,.Lucida Grande UI" font-size="40.0" fill="#4185F4" transform="matrix(1.00, 0.00, -0.00, -1.00, 586.2, 117.9)">&lt;</text><text xml:space="preserve" font-family=".LucidaGrandeUI,.Lucida Grande UI" font-size="40.0" fill="#4185F4" transform="matrix(1.00, 0.00, -0.00, -1.00, 618.0, 117.9)">o</text><text xml:space="preserve" font-family=".LucidaGrandeUI,.Lucida Grande UI" font-size="40.0" fill="#4185F4" transform="matrix(1.00, 0.00, -0.00, -1.00, 642.6, 117.9)">p</text><text xml:space="preserve" font-family=".LucidaGrandeUI,.Lucida Grande UI" font-size="40.0" fill="#4185F4" transform="matrix(1.00, 0.00, -0.00, -1.00, 667.8, 117.9)">t</text><text xml:space="preserve" font-family=".LucidaGrandeUI,.Lucida Grande UI" font-size="40.0" fill="#4185F4" transform="matrix(1.00, 0.00, -0.00, -1.00, 682.8, 117.9)">i</text><text xml:space="preserve" font-family=".LucidaGrandeUI,.Lucida Grande UI" font-size="40.0" fill="#4185F4" transform="matrix(1.00, 0.00, -0.00, -1.00, 694.3, 117.9)">o</text><text xml:space="preserve" font-family=".LucidaGrandeUI,.Lucida Grande UI" font-size="40.0" fill="#4185F4" transform="matrix(1.00, 0.00, -0.00, -1.00, 718.9, 117.9)">n</text><text xml:space="preserve" font-family=".LucidaGrandeUI,.Lucida Grande UI" font-size="40.0" fill="#4185F4" transform="matrix(1.00, 0.00, -0.00, -1.00, 743.7, 117.9)">&gt;</text><text xml:space="preserve" font-family=".LucidaGrandeUI,.Lucida Grande UI" font-size="40.0" fill="#333333" transform="matrix(1.00, 0.00, -0.00, -1.00, 775.4, 117.9)">L</text><text xml:space="preserve" font-family=".LucidaGrandeUI,.Lucida Grande UI" font-size="40.0" fill="#333333" transform="matrix(1.00, 0.00, -0.00, -1.00, 796.4, 117.9)">y</text><text xml:space="preserve" font-family=".LucidaGrandeUI,.Lucida Grande UI" font-size="40.0" fill="#333333" transform="matrix(1.00, 0.00, -0.00, -1.00, 817.0, 117.9)">c</text><text xml:space="preserve" font-family=".LucidaGrandeUI,.Lucida Grande UI" font-size="40.0" fill="#333333" transform="matrix(1.00, 0.00, -0.00, -1.00, 837.5, 117.9)">r</text><text xml:space="preserve" font-family=".LucidaGrandeUI,.Lucida Grande UI" font-size="40.0" fill="#333333" transform="matrix(1.00, 0.00, -0.00, -1.00, 853.8, 117.9)">a</text><text xml:space="preserve" font-family=".LucidaGrandeUI,.Lucida Grande UI" font-size="40.0" fill="#4185F4" transform="matrix(1.00, 0.00, -0.00, -1.00, 875.9, 117.9)">&lt;</text><text xml:space="preserve" font-family=".LucidaGrandeUI,.Lucida Grande UI" font-size="40.0" fill="#4185F4" transform="matrix(1.00, 0.00, -0.00, -1.00, 907.7, 117.9)">/</text><text xml:space="preserve" font-family=".LucidaGrandeUI,.Lucida Grande UI" font-size="40.0" fill="#4185F4" transform="matrix(1.00, 0.00, -0.00, -1.00, 928.7, 117.9)">o</text><text xml:space="preserve" font-family=".LucidaGrandeUI,.Lucida Grande UI" font-size="40.0" fill="#4185F4" transform="matrix(1.00, 0.00, -0.00, -1.00, 953.2, 117.9)">p</text><text xml:space="preserve" font-family=".LucidaGrandeUI,.Lucida Grande UI" font-size="40.0" fill="#4185F4" transform="matrix(1.00, 0.00, -0.00, -1.00, 978.4, 117.9)">t</text><text xml:space="preserve" font-family=".LucidaGrandeUI,.Lucida Grande UI" font-size="40.0" fill="#4185F4" transform="matrix(1.00, 0.00, -0.00, -1.00, 993.4, 117.9)">i</text><text xml:space="preserve" font-family=".LucidaGrandeUI,.Lucida Grande UI" font-size="40.0" fill="#4185F4" transform="matrix(1.00, 0.00, -0.00, -1.00, 1005.0, 117.9)">o</text><text xml:space="preserve" font-family=".LucidaGrandeUI,.Lucida Grande UI" font-size="40.0" fill="#4185F4" transform="matrix(1.00, 0.00, -0.00, -1.00, 1029.6, 117.9)">n</text><text xml:space="preserve" font-family=".LucidaGrandeUI,.Lucida Grande UI" font-size="40.0" fill="#4185F4" transform="matrix(1.00, 0.00, -0.00, -1.00, 1054.4, 117.9)">&gt;</text><text xml:space="preserve" font-family=".LucidaGrandeUI,.Lucida Grande UI" font-size="40.0" fill="#4185F4" transform="matrix(1.00, 0.00, -0.00, -1.00, 1086.1, 117.9)"></text><text xml:space="preserve" font-family=".LucidaGrandeUI,.Lucida Grande UI" font-size="40.0" fill="#4185F4" transform="matrix(1.00, 0.00, -0.00, -1.00, 548.2, 61.5)">&lt;</text><text xml:space="preserve" font-family=".LucidaGrandeUI,.Lucida Grande UI" font-size="40.0" fill="#4185F4" transform="matrix(1.00, 0.00, -0.00, -1.00, 580.0, 61.5)">/</text><text xml:space="preserve" font-family=".LucidaGrandeUI,.Lucida Grande UI" font-size="40.0" fill="#4185F4" transform="matrix(1.00, 0.00, -0.00, -1.00, 601.0, 61.5)">s</text><text xml:space="preserve" font-family=".LucidaGrandeUI,.Lucida Grande UI" font-size="40.0" fill="#4185F4" transform="matrix(1.00, 0.00, -0.00, -1.00, 619.5, 61.5)">e</text><text xml:space="preserve" font-family=".LucidaGrandeUI,.Lucida Grande UI" font-size="40.0" fill="#4185F4" transform="matrix(1.00, 0.00, -0.00, -1.00, 641.8, 61.5)">l</text><text xml:space="preserve" font-family=".LucidaGrandeUI,.Lucida Grande UI" font-size="40.0" fill="#4185F4" transform="matrix(1.00, 0.00, -0.00, -1.00, 653.4, 61.5)">e</text><text xml:space="preserve" font-family=".LucidaGrandeUI,.Lucida Grande UI" font-size="40.0" fill="#4185F4" transform="matrix(1.00, 0.00, -0.00, -1.00, 675.6, 61.5)">c</text><text xml:space="preserve" font-family=".LucidaGrandeUI,.Lucida Grande UI" font-size="40.0" fill="#4185F4" transform="matrix(1.00, 0.00, -0.00, -1.00, 696.1, 61.5)">t</text><text xml:space="preserve" font-family=".LucidaGrandeUI,.Lucida Grande UI" font-size="40.0" fill="#4185F4" transform="matrix(1.00, 0.00, -0.00, -1.00, 711.1, 61.5)">&gt;</text></g></g><image xlink:href="../../018A80B2-2C9E-4126-8521-F8BE2B268177/assets/E239A69C5BC8C4E661BEBE49DAF1B24E.png" width="475.00" height="361.00" transform="matrix(1.00, 0.00, -0.00, -1.00, 722.5, 900.7)"></image><text xml:space="preserve" font-family="Roboto-Bold,Roboto" font-weight="bold" font-size="80.0" fill="#424242" transform="matrix(1.00, 0.00, -0.00, -1.00, 161.3, 918.2)">F</text><text xml:space="preserve" font-family="Roboto-Bold,Roboto" font-weight="bold" font-size="80.0" fill="#424242" transform="matrix(1.00, 0.00, -0.00, -1.00, 205.4, 918.2)">o</text><text xml:space="preserve" font-family="Roboto-Bold,Roboto" font-weight="bold" font-size="80.0" fill="#424242" transform="matrix(1.00, 0.00, -0.00, -1.00, 250.6, 918.2)">r</text><text xml:space="preserve" font-family="Roboto-Bold,Roboto" font-weight="bold" font-size="80.0" fill="#424242" transform="matrix(1.00, 0.00, -0.00, -1.00, 278.6, 918.2)">g</text><text xml:space="preserve" font-family="Roboto-Bold,Roboto" font-weight="bold" font-size="80.0" fill="#424242" transform="matrix(1.00, 0.00, -0.00, -1.00, 323.8, 918.2)">i</text><text xml:space="preserve" font-family="Roboto-Bold,Roboto" font-weight="bold" font-size="80.0" fill="#424242" transform="matrix(1.00, 0.00, -0.00, -1.00, 345.1, 918.2)">v</text><text xml:space="preserve" font-family="Roboto-Bold,Roboto" font-weight="bold" font-size="80.0" fill="#424242" transform="matrix(1.00, 0.00, -0.00, -1.00, 386.0, 918.2)">i</text><text xml:space="preserve" font-family="Roboto-Bold,Roboto" font-weight="bold" font-size="80.0" fill="#424242" transform="matrix(1.00, 0.00, -0.00, -1.00, 407.3, 918.2)">n</text><text xml:space="preserve" font-family="Roboto-Bold,Roboto" font-weight="bold" font-size="80.0" fill="#424242" transform="matrix(1.00, 0.00, -0.00, -1.00, 452.6, 918.2)">g</text></g></svg>