<?xml version="1.0" encoding="UTF-8" standalone="no"?><svg xmlns="http://www.w3.org/2000/svg" xmlns:xlink="http://www.w3.org/1999/xlink" clip-rule="evenodd" stroke-miterlimit="10" viewBox="0 0 1920 1080"><desc>SVG generated by Keynote</desc><defs></defs><g transform="matrix(1.00, 0.00, -0.00, -1.00, 0.0, 1080.0)"><path d="M 0.0 1080.0 L 1920.0 1080.0 L 1920.0 0.0 L 0.0 0.0 Z M 0.0 1080.0 " fill="#FFFFFF"></path><g><clipPath id="clip0x6080020bd220"><path d="M 0.0 1127.0 L 1920.0 1127.0 L 1920.0 -152.0 L 0.0 -152.0 Z M 0.0 1126.7 "></path></clipPath><g clip-path="url(#clip0x6080020bd220)"><image xlink:href="../../3365C7E9-0D33-4EFB-B2CB-FB7BA8DBE41F/assets/91676F4DD8CDBE755A5060BFAAF5CF06.jpeg" width="780.00" height="585.00" transform="matrix(2.46, 0.00, -0.00, -2.46, 0.0, 1207.4)"></image></g></g><g opacity="0.50"><g><clipPath id="clip0x6000022b3a40"><path d="M 0.0 0.0 L 1920.0 0.0 L 1920.0 1080.0 L 0.0 1080.0 Z M 0.0 0.0 "></path></clipPath><g clip-path="url(#clip0x6000022b3a40)"><path d="M 0.0 1080.0 L 1920.0 1080.0 L 1920.0 0.0 L 0.0 0.0 Z M -0.0 1080.0 " fill="#424242"></path></g></g></g><text xml:space="preserve" font-family="RobotoCondensed-Bold,Roboto Condensed" font-weight="bold" font-size="225.0" fill="#FFFFFF" transform="matrix(1.00, 0.00, -0.00, -1.00, 266.7, 452.5)">p</text><text xml:space="preserve" font-family="RobotoCondensed-Bold,Roboto Condensed" font-weight="bold" font-size="225.0" fill="#FFFFFF" transform="matrix(1.00, 0.00, -0.00, -1.00, 375.9, 452.5)">a</text><text xml:space="preserve" font-family="RobotoCondensed-Bold,Roboto Condensed" font-weight="bold" font-size="225.0" fill="#FFFFFF" transform="matrix(1.00, 0.00, -0.00, -1.00, 479.6, 452.5)">p</text><text xml:space="preserve" font-family="RobotoCondensed-Bold,Roboto Condensed" font-weight="bold" font-size="225.0" fill="#FFFFFF" transform="matrix(1.00, 0.00, -0.00, -1.00, 588.9, 452.5)">e</text><text xml:space="preserve" font-family="RobotoCondensed-Bold,Roboto Condensed" font-weight="bold" font-size="225.0" fill="#FFFFFF" transform="matrix(1.00, 0.00, -0.00, -1.00, 691.9, 452.5)">r</text><text xml:space="preserve" font-family="RobotoCondensed-Bold,Roboto Condensed" font-weight="bold" font-size="225.0" fill="#FFFFFF" transform="matrix(1.00, 0.00, -0.00, -1.00, 763.8, 452.5)">-</text><text xml:space="preserve" font-family="RobotoCondensed-Bold,Roboto Condensed" font-weight="bold" font-size="225.0" fill="#FFFFFF" transform="matrix(1.00, 0.00, -0.00, -1.00, 846.1, 452.5)">e</text><text xml:space="preserve" font-family="RobotoCondensed-Bold,Roboto Condensed" font-weight="bold" font-size="225.0" fill="#FFFFFF" transform="matrix(1.00, 0.00, -0.00, -1.00, 949.1, 452.5)">l</text><text xml:space="preserve" font-family="RobotoCondensed-Bold,Roboto Condensed" font-weight="bold" font-size="225.0" fill="#FFFFFF" transform="matrix(1.00, 0.00, -0.00, -1.00, 1003.4, 452.5)">e</text><text xml:space="preserve" font-family="RobotoCondensed-Bold,Roboto Condensed" font-weight="bold" font-size="225.0" fill="#FFFFFF" transform="matrix(1.00, 0.00, -0.00, -1.00, 1106.5, 452.5)">m</text><text xml:space="preserve" font-family="RobotoCondensed-Bold,Roboto Condensed" font-weight="bold" font-size="225.0" fill="#FFFFFF" transform="matrix(1.00, 0.00, -0.00, -1.00, 1272.0, 452.5)">e</text><text xml:space="preserve" font-family="RobotoCondensed-Bold,Roboto Condensed" font-weight="bold" font-size="225.0" fill="#FFFFFF" transform="matrix(1.00, 0.00, -0.00, -1.00, 1375.1, 452.5)">n</text><text xml:space="preserve" font-family="RobotoCondensed-Bold,Roboto Condensed" font-weight="bold" font-size="225.0" fill="#FFFFFF" transform="matrix(1.00, 0.00, -0.00, -1.00, 1484.3, 452.5)">t</text><text xml:space="preserve" font-family="RobotoCondensed-Bold,Roboto Condensed" font-weight="bold" font-size="225.0" fill="#FFFFFF" transform="matrix(1.00, 0.00, -0.00, -1.00, 1555.6, 452.5)">s</text></g></svg>