<?xml version="1.0" encoding="UTF-8" standalone="no"?><svg xmlns="http://www.w3.org/2000/svg" xmlns:xlink="http://www.w3.org/1999/xlink" clip-rule="evenodd" stroke-miterlimit="10" viewBox="0 0 1920 1080"><desc>SVG generated by Keynote</desc><defs></defs><g transform="matrix(1.00, 0.00, -0.00, -1.00, 0.0, 1080.0)"><path d="M 0.0 1080.0 L 1920.0 1080.0 L 1920.0 0.0 L 0.0 0.0 Z M 0.0 1080.0 " fill="#FFFFFF"></path><image xlink:href="FFC59703DA1A7C74FCA42A9C1F468D8B.png" width="330.00" height="330.00" transform="matrix(1.00, 0.00, -0.00, -1.00, 1109.2, 615.6)"></image><image xlink:href="60DD022DFE5CBB4EAF62DBC6CE98C47D.png" width="500.00" height="86.00" transform="matrix(1.00, 0.00, -0.00, -1.00, 1024.2, 781.9)"></image><text xml:space="preserve" font-family="Roboto-Regular,Roboto" font-size="38.0" fill="#424242" transform="matrix(1.00, 0.00, -0.00, -1.00, 166.5, -47.7)">a</text><text xml:space="preserve" font-family="Roboto-Regular,Roboto" font-size="38.0" fill="#424242" transform="matrix(1.00, 0.00, -0.00, -1.00, 187.3, -47.7)">m</text><text xml:space="preserve" font-family="Roboto-Regular,Roboto" font-size="38.0" fill="#424242" transform="matrix(1.00, 0.00, -0.00, -1.00, 220.6, -47.7)">p</text><text xml:space="preserve" font-family="Roboto-Regular,Roboto" font-size="38.0" fill="#424242" transform="matrix(1.00, 0.00, -0.00, -1.00, 242.2, -47.7)">e</text><text xml:space="preserve" font-family="Roboto-Regular,Roboto" font-size="38.0" fill="#424242" transform="matrix(1.00, 0.00, -0.00, -1.00, 262.3, -47.7)">r</text><text xml:space="preserve" font-family="Roboto-Regular,Roboto" font-size="38.0" fill="#424242" transform="matrix(1.00, 0.00, -0.00, -1.00, 275.3, -47.7)">s</text><text xml:space="preserve" font-family="Roboto-Regular,Roboto" font-size="38.0" fill="#424242" transform="matrix(1.00, 0.00, -0.00, -1.00, 295.1, -47.7)">a</text><text xml:space="preserve" font-family="Roboto-Regular,Roboto" font-size="38.0" fill="#424242" transform="matrix(1.00, 0.00, -0.00, -1.00, 316.0, -47.7)">n</text><text xml:space="preserve" font-family="Roboto-Regular,Roboto" font-size="38.0" fill="#424242" transform="matrix(1.00, 0.00, -0.00, -1.00, 337.6, -47.7)">d</text><text xml:space="preserve" font-family="Roboto-Regular,Roboto" font-size="38.0" fill="#424242" transform="matrix(1.00, 0.00, -0.00, -1.00, 359.3, -47.7)"> </text></g></svg>