<?xml version="1.0" encoding="UTF-8" standalone="no"?><svg xmlns="http://www.w3.org/2000/svg" xmlns:xlink="http://www.w3.org/1999/xlink" clip-rule="evenodd" stroke-miterlimit="10" viewBox="0 0 560 72"><desc>SVG generated by Keynote</desc><defs></defs><g transform="matrix(1.00, 0.00, -0.00, -1.00, 0.0, 72.0)"><text xml:space="preserve" font-family="Roboto-Regular,Roboto" font-size="89.0" fill="#404040" transform="matrix(1.00, 0.00, -0.00, -1.00, -5.7, 3.0)">M</text><text xml:space="preserve" font-family="Roboto-Regular,Roboto" font-size="89.0" fill="#404040" transform="matrix(1.00, 0.00, -0.00, -1.00, 72.6, 3.0)">a</text><text xml:space="preserve" font-family="Roboto-Regular,Roboto" font-size="89.0" fill="#404040" transform="matrix(1.00, 0.00, -0.00, -1.00, 121.5, 3.0)">c</text><text xml:space="preserve" font-family="Roboto-Regular,Roboto" font-size="89.0" fill="#404040" transform="matrix(1.00, 0.00, -0.00, -1.00, 168.7, 3.0)">r</text><text xml:space="preserve" font-family="Roboto-Regular,Roboto" font-size="89.0" fill="#404040" transform="matrix(1.00, 0.00, -0.00, -1.00, 198.3, 3.0)">o</text><text xml:space="preserve" font-family="Roboto-Regular,Roboto" font-size="89.0" fill="#404040" transform="matrix(1.00, 0.00, -0.00, -1.00, 248.9, 3.0)">b</text><text xml:space="preserve" font-family="Roboto-Regular,Roboto" font-size="89.0" fill="#404040" transform="matrix(1.00, 0.00, -0.00, -1.00, 299.6, 3.0)">i</text><text xml:space="preserve" font-family="Roboto-Regular,Roboto" font-size="89.0" fill="#404040" transform="matrix(1.00, 0.00, -0.00, -1.00, 322.0, 3.0)">o</text><text xml:space="preserve" font-family="Roboto-Regular,Roboto" font-size="89.0" fill="#404040" transform="matrix(1.00, 0.00, -0.00, -1.00, 372.6, 3.0)">t</text><text xml:space="preserve" font-family="Roboto-Regular,Roboto" font-size="89.0" fill="#404040" transform="matrix(1.00, 0.00, -0.00, -1.00, 403.3, 3.0)">i</text><text xml:space="preserve" font-family="Roboto-Regular,Roboto" font-size="89.0" fill="#404040" transform="matrix(1.00, 0.00, -0.00, -1.00, 425.8, 3.0)">c</text><text xml:space="preserve" font-family="Roboto-Regular,Roboto" font-size="89.0" fill="#404040" transform="matrix(1.00, 0.00, -0.00, -1.00, 473.0, 3.0)">s</text><text xml:space="preserve" font-family="Roboto-Regular,Roboto" font-size="89.0" fill="#404040" transform="matrix(1.00, 0.00, -0.00, -1.00, 519.5, 3.0)">?</text></g></svg>