<?xml version="1.0" encoding="UTF-8" standalone="no"?><svg xmlns="http://www.w3.org/2000/svg" xmlns:xlink="http://www.w3.org/1999/xlink" clip-rule="evenodd" stroke-miterlimit="10" viewBox="0 0 415 73"><desc>SVG generated by Keynote</desc><defs></defs><g transform="matrix(1.00, 0.00, -0.00, -1.00, 0.0, 73.0)"><text xml:space="preserve" font-family="Roboto-Regular,Roboto" font-size="89.0" fill="#404040" transform="matrix(1.00, 0.00, -0.00, -1.00, -5.5, 3.0)">R</text><text xml:space="preserve" font-family="Roboto-Regular,Roboto" font-size="89.0" fill="#404040" transform="matrix(1.00, 0.00, -0.00, -1.00, 53.4, 3.0)">a</text><text xml:space="preserve" font-family="Roboto-Regular,Roboto" font-size="89.0" fill="#404040" transform="matrix(1.00, 0.00, -0.00, -1.00, 102.3, 3.0)">w</text><text xml:space="preserve" font-family="Roboto-Regular,Roboto" font-size="89.0" fill="#404040" transform="matrix(1.00, 0.00, -0.00, -1.00, 169.7, 3.0)"> </text><text xml:space="preserve" font-family="Roboto-Regular,Roboto" font-size="89.0" fill="#404040" transform="matrix(1.00, 0.00, -0.00, -1.00, 191.8, 3.0)">f</text><text xml:space="preserve" font-family="Roboto-Regular,Roboto" font-size="89.0" fill="#404040" transform="matrix(1.00, 0.00, -0.00, -1.00, 222.5, 3.0)">o</text><text xml:space="preserve" font-family="Roboto-Regular,Roboto" font-size="89.0" fill="#404040" transform="matrix(1.00, 0.00, -0.00, -1.00, 273.2, 3.0)">o</text><text xml:space="preserve" font-family="Roboto-Regular,Roboto" font-size="89.0" fill="#404040" transform="matrix(1.00, 0.00, -0.00, -1.00, 323.8, 3.0)">d</text><text xml:space="preserve" font-family="Roboto-Regular,Roboto" font-size="89.0" fill="#404040" transform="matrix(1.00, 0.00, -0.00, -1.00, 374.4, 3.0)">?</text></g></svg>