<?xml version="1.0" encoding="UTF-8" standalone="no"?><svg xmlns="http://www.w3.org/2000/svg" xmlns:xlink="http://www.w3.org/1999/xlink" clip-rule="evenodd" stroke-miterlimit="10" viewBox="0 0 400 72"><desc>SVG generated by Keynote</desc><defs></defs><g transform="matrix(1.00, 0.00, -0.00, -1.00, 0.0, 72.0)"><text xml:space="preserve" font-family="Roboto-Regular,Roboto" font-size="89.0" fill="#404040" transform="matrix(1.00, 0.00, -0.00, -1.00, -5.6, 2.5)">L</text><text xml:space="preserve" font-family="Roboto-Regular,Roboto" font-size="89.0" fill="#404040" transform="matrix(1.00, 0.00, -0.00, -1.00, 42.5, 2.5)">o</text><text xml:space="preserve" font-family="Roboto-Regular,Roboto" font-size="89.0" fill="#404040" transform="matrix(1.00, 0.00, -0.00, -1.00, 93.1, 2.5)">w</text><text xml:space="preserve" font-family="Roboto-Regular,Roboto" font-size="89.0" fill="#404040" transform="matrix(1.00, 0.00, -0.00, -1.00, 160.5, 2.5)"> </text><text xml:space="preserve" font-family="Roboto-Regular,Roboto" font-size="89.0" fill="#404040" transform="matrix(1.00, 0.00, -0.00, -1.00, 182.5, 2.5)">c</text><text xml:space="preserve" font-family="Roboto-Regular,Roboto" font-size="89.0" fill="#404040" transform="matrix(1.00, 0.00, -0.00, -1.00, 229.8, 2.5)">a</text><text xml:space="preserve" font-family="Roboto-Regular,Roboto" font-size="89.0" fill="#404040" transform="matrix(1.00, 0.00, -0.00, -1.00, 278.7, 2.5)">r</text><text xml:space="preserve" font-family="Roboto-Regular,Roboto" font-size="89.0" fill="#404040" transform="matrix(1.00, 0.00, -0.00, -1.00, 309.2, 2.5)">b</text><text xml:space="preserve" font-family="Roboto-Regular,Roboto" font-size="89.0" fill="#404040" transform="matrix(1.00, 0.00, -0.00, -1.00, 359.8, 2.5)">?</text></g></svg>