<?xml version="1.0" encoding="UTF-8" standalone="no"?><svg xmlns="http://www.w3.org/2000/svg" xmlns:xlink="http://www.w3.org/1999/xlink" clip-rule="evenodd" stroke-miterlimit="10" viewBox="0 0 783 90"><desc>SVG generated by Keynote</desc><defs></defs><g transform="matrix(1.00, 0.00, -0.00, -1.00, 0.0, 90.0)"><text xml:space="preserve" font-family="Roboto-Regular,Roboto" font-size="89.0" fill="#404040" transform="matrix(1.00, 0.00, -0.00, -1.00, -3.6, 21.0)">C</text><text xml:space="preserve" font-family="Roboto-Regular,Roboto" font-size="89.0" fill="#404040" transform="matrix(1.00, 0.00, -0.00, -1.00, 52.8, 21.0)">a</text><text xml:space="preserve" font-family="Roboto-Regular,Roboto" font-size="89.0" fill="#404040" transform="matrix(1.00, 0.00, -0.00, -1.00, 101.7, 21.0)">b</text><text xml:space="preserve" font-family="Roboto-Regular,Roboto" font-size="89.0" fill="#404040" transform="matrix(1.00, 0.00, -0.00, -1.00, 152.3, 21.0)">b</text><text xml:space="preserve" font-family="Roboto-Regular,Roboto" font-size="89.0" fill="#404040" transform="matrix(1.00, 0.00, -0.00, -1.00, 202.9, 21.0)">a</text><text xml:space="preserve" font-family="Roboto-Regular,Roboto" font-size="89.0" fill="#404040" transform="matrix(1.00, 0.00, -0.00, -1.00, 251.9, 21.0)">g</text><text xml:space="preserve" font-family="Roboto-Regular,Roboto" font-size="89.0" fill="#404040" transform="matrix(1.00, 0.00, -0.00, -1.00, 302.5, 21.0)">e</text><text xml:space="preserve" font-family="Roboto-Regular,Roboto" font-size="89.0" fill="#404040" transform="matrix(1.00, 0.00, -0.00, -1.00, 349.5, 21.0)"> </text><text xml:space="preserve" font-family="Roboto-Regular,Roboto" font-size="89.0" fill="#404040" transform="matrix(1.00, 0.00, -0.00, -1.00, 371.6, 21.0)">s</text><text xml:space="preserve" font-family="Roboto-Regular,Roboto" font-size="89.0" fill="#404040" transform="matrix(1.00, 0.00, -0.00, -1.00, 418.1, 21.0)">o</text><text xml:space="preserve" font-family="Roboto-Regular,Roboto" font-size="89.0" fill="#404040" transform="matrix(1.00, 0.00, -0.00, -1.00, 468.7, 21.0)">u</text><text xml:space="preserve" font-family="Roboto-Regular,Roboto" font-size="89.0" fill="#404040" transform="matrix(1.00, 0.00, -0.00, -1.00, 519.4, 21.0)">p</text><text xml:space="preserve" font-family="Roboto-Regular,Roboto" font-size="89.0" fill="#404040" transform="matrix(1.00, 0.00, -0.00, -1.00, 570.0, 21.0)"> </text><text xml:space="preserve" font-family="Roboto-Regular,Roboto" font-size="89.0" fill="#404040" transform="matrix(1.00, 0.00, -0.00, -1.00, 592.1, 21.0)">d</text><text xml:space="preserve" font-family="Roboto-Regular,Roboto" font-size="89.0" fill="#404040" transform="matrix(1.00, 0.00, -0.00, -1.00, 642.7, 21.0)">i</text><text xml:space="preserve" font-family="Roboto-Regular,Roboto" font-size="89.0" fill="#404040" transform="matrix(1.00, 0.00, -0.00, -1.00, 665.1, 21.0)">e</text><text xml:space="preserve" font-family="Roboto-Regular,Roboto" font-size="89.0" fill="#404040" transform="matrix(1.00, 0.00, -0.00, -1.00, 712.1, 21.0)">t</text><text xml:space="preserve" font-family="Roboto-Regular,Roboto" font-size="89.0" fill="#404040" transform="matrix(1.00, 0.00, -0.00, -1.00, 742.9, 21.0)">?</text></g></svg>