<?xml version="1.0" encoding="UTF-8" standalone="no"?><svg xmlns="http://www.w3.org/2000/svg" xmlns:xlink="http://www.w3.org/1999/xlink" clip-rule="evenodd" stroke-miterlimit="10" viewBox="0 0 649 72"><desc>SVG generated by Keynote</desc><defs></defs><g transform="matrix(1.00, 0.00, -0.00, -1.00, 0.0, 72.0)"><text xml:space="preserve" font-family="Roboto-Regular,Roboto" font-size="89.0" fill="#404040" transform="matrix(1.00, 0.00, -0.00, -1.00, -5.1, 2.3)">M</text><text xml:space="preserve" font-family="Roboto-Regular,Roboto" font-size="89.0" fill="#404040" transform="matrix(1.00, 0.00, -0.00, -1.00, 73.2, 2.3)">a</text><text xml:space="preserve" font-family="Roboto-Regular,Roboto" font-size="89.0" fill="#404040" transform="matrix(1.00, 0.00, -0.00, -1.00, 122.1, 2.3)">s</text><text xml:space="preserve" font-family="Roboto-Regular,Roboto" font-size="89.0" fill="#404040" transform="matrix(1.00, 0.00, -0.00, -1.00, 168.6, 2.3)">t</text><text xml:space="preserve" font-family="Roboto-Regular,Roboto" font-size="89.0" fill="#404040" transform="matrix(1.00, 0.00, -0.00, -1.00, 199.3, 2.3)">e</text><text xml:space="preserve" font-family="Roboto-Regular,Roboto" font-size="89.0" fill="#404040" transform="matrix(1.00, 0.00, -0.00, -1.00, 246.4, 2.3)">r</text><text xml:space="preserve" font-family="Roboto-Regular,Roboto" font-size="89.0" fill="#404040" transform="matrix(1.00, 0.00, -0.00, -1.00, 276.9, 2.3)"> </text><text xml:space="preserve" font-family="Roboto-Regular,Roboto" font-size="89.0" fill="#404040" transform="matrix(1.00, 0.00, -0.00, -1.00, 299.0, 2.3)">c</text><text xml:space="preserve" font-family="Roboto-Regular,Roboto" font-size="89.0" fill="#404040" transform="matrix(1.00, 0.00, -0.00, -1.00, 346.2, 2.3)">l</text><text xml:space="preserve" font-family="Roboto-Regular,Roboto" font-size="89.0" fill="#404040" transform="matrix(1.00, 0.00, -0.00, -1.00, 368.6, 2.3)">e</text><text xml:space="preserve" font-family="Roboto-Regular,Roboto" font-size="89.0" fill="#404040" transform="matrix(1.00, 0.00, -0.00, -1.00, 415.6, 2.3)">a</text><text xml:space="preserve" font-family="Roboto-Regular,Roboto" font-size="89.0" fill="#404040" transform="matrix(1.00, 0.00, -0.00, -1.00, 464.6, 2.3)">n</text><text xml:space="preserve" font-family="Roboto-Regular,Roboto" font-size="89.0" fill="#404040" transform="matrix(1.00, 0.00, -0.00, -1.00, 515.2, 2.3)">s</text><text xml:space="preserve" font-family="Roboto-Regular,Roboto" font-size="89.0" fill="#404040" transform="matrix(1.00, 0.00, -0.00, -1.00, 561.7, 2.3)">e</text><text xml:space="preserve" font-family="Roboto-Regular,Roboto" font-size="89.0" fill="#404040" transform="matrix(1.00, 0.00, -0.00, -1.00, 608.8, 2.3)">?</text></g></svg>