<?xml version="1.0" encoding="UTF-8" standalone="no"?><svg xmlns="http://www.w3.org/2000/svg" xmlns:xlink="http://www.w3.org/1999/xlink" clip-rule="evenodd" stroke-miterlimit="10" viewBox="0 0 719 145"><desc>SVG generated by Keynote</desc><defs></defs><g transform="matrix(1.00, 0.00, -0.00, -1.00, 0.0, 145.0)"><g><clipPath id="clip0x6000044a4320"><path d="M 718.3 58.7 L 217.3 58.7 L 217.3 86.7 L 718.3 86.7 Z M 718.3 58.7 "></path></clipPath><g clip-path="url(#clip0x6000044a4320)"><path d="M 22.3 0.3 L 26.0 0.3 L 499.3 0.3 " fill="none" stroke="#F06191" stroke-width="8.00" stroke-linejoin="round" transform="matrix(-1.00, 0.00, 0.00, 1.00, 717.3, 72.7)"></path><path d="M 704.0 86.0 C 711.2 86.0 717.0 80.2 717.0 73.0 C 717.0 65.8 711.2 60.0 704.0 60.0 C 696.8 60.0 691.0 65.8 691.0 73.0 C 691.0 80.2 696.8 86.0 704.0 86.0 Z M 704.0 86.0 " fill="#F06191"></path></g></g><g><clipPath id="clip0x6000044a4a40"><path d="M 0.7 0.9 L 437.4 0.9 L 437.4 144.6 L 0.7 144.6 Z M 0.7 0.9 "></path></clipPath><g clip-path="url(#clip0x6000044a4a40)"><path d="M 1.7 10.6 L 2.0 134.9 C 2.0 139.7 5.6 144.0 10.4 144.0 L 427.7 144.0 C 432.5 144.0 436.0 139.7 436.0 134.9 L 436.0 10.6 C 436.0 5.8 432.5 2.0 427.7 2.0 L 10.4 2.0 C 5.6 2.0 1.7 5.8 1.7 10.6 Z M 1.7 10.6 " fill="#F06191"></path></g></g><g><clipPath id="clip0x6000044a4c80"><path d="M 1.7 1.9 L 436.4 1.9 L 436.4 143.6 L 1.7 143.6 Z M 1.7 1.9 "></path></clipPath><g clip-path="url(#clip0x6000044a4c80)"><text xml:space="preserve" font-family="Roboto-Regular,Roboto" font-size="50.0" fill="#FFFFFF" transform="matrix(1.00, 0.00, -0.00, -1.00, 115.2, 53.6)">c</text><text xml:space="preserve" font-family="Roboto-Regular,Roboto" font-size="50.0" fill="#FFFFFF" transform="matrix(1.00, 0.00, -0.00, -1.00, 141.7, 53.6)">o</text><text xml:space="preserve" font-family="Roboto-Regular,Roboto" font-size="50.0" fill="#FFFFFF" transform="matrix(1.00, 0.00, -0.00, -1.00, 170.1, 53.6)">r</text><text xml:space="preserve" font-family="Roboto-Regular,Roboto" font-size="50.0" fill="#FFFFFF" transform="matrix(1.00, 0.00, -0.00, -1.00, 186.8, 53.6)">e</text><text xml:space="preserve" font-family="Roboto-Regular,Roboto" font-size="50.0" fill="#FFFFFF" transform="matrix(1.00, 0.00, -0.00, -1.00, 213.2, 53.6)">-</text><text xml:space="preserve" font-family="Roboto-Regular,Roboto" font-size="50.0" fill="#FFFFFF" transform="matrix(1.00, 0.00, -0.00, -1.00, 226.9, 53.6)">i</text><text xml:space="preserve" font-family="Roboto-Regular,Roboto" font-size="50.0" fill="#FFFFFF" transform="matrix(1.00, 0.00, -0.00, -1.00, 239.5, 53.6)">c</text><text xml:space="preserve" font-family="Roboto-Regular,Roboto" font-size="50.0" fill="#FFFFFF" transform="matrix(1.00, 0.00, -0.00, -1.00, 266.0, 53.6)">o</text><text xml:space="preserve" font-family="Roboto-Regular,Roboto" font-size="50.0" fill="#FFFFFF" transform="matrix(1.00, 0.00, -0.00, -1.00, 294.5, 53.6)">n</text></g></g></g></svg>