<?xml version="1.0" encoding="UTF-8" standalone="no"?><svg xmlns="http://www.w3.org/2000/svg" xmlns:xlink="http://www.w3.org/1999/xlink" clip-rule="evenodd" stroke-miterlimit="10" viewBox="0 0 1920 1080"><desc>SVG generated by Keynote</desc><defs></defs><g transform="matrix(1.00, 0.00, -0.00, -1.00, 0.0, 1080.0)"><path d="M 0.0 1080.0 L 1920.0 1080.0 L 1920.0 0.0 L 0.0 0.0 Z M 0.0 1080.0 " fill="#FF4081"></path><text xml:space="preserve" font-family="Roboto-Medium,Roboto" font-size="116.0" fill="#FFFFFF" transform="matrix(1.00, 0.00, -0.00, -1.00, 162.9, 494.9)">I</text><text xml:space="preserve" font-family="Roboto-Medium,Roboto" font-size="116.0" fill="#FFFFFF" transform="matrix(1.00, 0.00, -0.00, -1.00, 196.2, 494.9)"> </text><text xml:space="preserve" font-family="Roboto-Medium,Roboto" font-size="116.0" fill="#FFFFFF" transform="matrix(1.00, 0.00, -0.00, -1.00, 225.1, 494.9)">w</text><text xml:space="preserve" font-family="Roboto-Medium,Roboto" font-size="116.0" fill="#FFFFFF" transform="matrix(1.00, 0.00, -0.00, -1.00, 311.8, 494.9)">a</text><text xml:space="preserve" font-family="Roboto-Medium,Roboto" font-size="116.0" fill="#FFFFFF" transform="matrix(1.00, 0.00, -0.00, -1.00, 374.9, 494.9)">n</text><text xml:space="preserve" font-family="Roboto-Medium,Roboto" font-size="116.0" fill="#FFFFFF" transform="matrix(1.00, 0.00, -0.00, -1.00, 440.6, 494.9)">t</text><text xml:space="preserve" font-family="Roboto-Medium,Roboto" font-size="116.0" fill="#FFFFFF" transform="matrix(1.00, 0.00, -0.00, -1.00, 480.9, 494.9)"> </text><text xml:space="preserve" font-family="Roboto-Medium,Roboto" font-size="116.0" fill="#FFFFFF" transform="matrix(1.00, 0.00, -0.00, -1.00, 509.8, 494.9)">t</text><text xml:space="preserve" font-family="Roboto-Medium,Roboto" font-size="116.0" fill="#FFFFFF" transform="matrix(1.00, 0.00, -0.00, -1.00, 550.1, 494.9)">o</text><text xml:space="preserve" font-family="Roboto-Medium,Roboto" font-size="116.0" fill="#FFFFFF" transform="matrix(1.00, 0.00, -0.00, -1.00, 615.9, 494.9)"> </text><text xml:space="preserve" font-family="Roboto-Medium,Roboto" font-size="116.0" fill="#FFFFFF" transform="matrix(1.00, 0.00, -0.00, -1.00, 644.8, 494.9)">b</text><text xml:space="preserve" font-family="Roboto-Medium,Roboto" font-size="116.0" fill="#FFFFFF" transform="matrix(1.00, 0.00, -0.00, -1.00, 710.5, 494.9)">u</text><text xml:space="preserve" font-family="Roboto-Medium,Roboto" font-size="116.0" fill="#FFFFFF" transform="matrix(1.00, 0.00, -0.00, -1.00, 776.3, 494.9)">i</text><text xml:space="preserve" font-family="Roboto-Medium,Roboto" font-size="116.0" fill="#FFFFFF" transform="matrix(1.00, 0.00, -0.00, -1.00, 806.4, 494.9)">l</text><text xml:space="preserve" font-family="Roboto-Medium,Roboto" font-size="116.0" fill="#FFFFFF" transform="matrix(1.00, 0.00, -0.00, -1.00, 836.5, 494.9)">d</text><text xml:space="preserve" font-family="Roboto-Medium,Roboto" font-size="116.0" fill="#FFFFFF" transform="matrix(1.00, 0.00, -0.00, -1.00, 902.2, 494.9)"> </text><text xml:space="preserve" font-family="Roboto-Medium,Roboto" font-size="116.0" fill="#FFFFFF" transform="matrix(1.00, 0.00, -0.00, -1.00, 931.1, 494.9)">e</text><text xml:space="preserve" font-family="Roboto-Medium,Roboto" font-size="116.0" fill="#FFFFFF" transform="matrix(1.00, 0.00, -0.00, -1.00, 992.5, 494.9)">l</text><text xml:space="preserve" font-family="Roboto-Medium,Roboto" font-size="116.0" fill="#FFFFFF" transform="matrix(1.00, 0.00, -0.00, -1.00, 1022.7, 494.9)">e</text><text xml:space="preserve" font-family="Roboto-Medium,Roboto" font-size="116.0" fill="#FFFFFF" transform="matrix(1.00, 0.00, -0.00, -1.00, 1084.1, 494.9)">m</text><text xml:space="preserve" font-family="Roboto-Medium,Roboto" font-size="116.0" fill="#FFFFFF" transform="matrix(1.00, 0.00, -0.00, -1.00, 1184.9, 494.9)">e</text><text xml:space="preserve" font-family="Roboto-Medium,Roboto" font-size="116.0" fill="#FFFFFF" transform="matrix(1.00, 0.00, -0.00, -1.00, 1246.4, 494.9)">n</text><text xml:space="preserve" font-family="Roboto-Medium,Roboto" font-size="116.0" fill="#FFFFFF" transform="matrix(1.00, 0.00, -0.00, -1.00, 1312.1, 494.9)">t</text><text xml:space="preserve" font-family="Roboto-Medium,Roboto" font-size="116.0" fill="#FFFFFF" transform="matrix(1.00, 0.00, -0.00, -1.00, 1352.4, 494.9)">s</text><text xml:space="preserve" font-family="Roboto-Medium,Roboto" font-size="116.0" fill="#FFFFFF" transform="matrix(1.00, 0.00, -0.00, -1.00, 1412.7, 494.9)"> </text><text xml:space="preserve" font-family="Roboto-Medium,Roboto" font-size="116.0" fill="#FFFFFF" transform="matrix(1.00, 0.00, -0.00, -1.00, 1441.6, 494.9)">l</text><text xml:space="preserve" font-family="Roboto-Medium,Roboto" font-size="116.0" fill="#FFFFFF" transform="matrix(1.00, 0.00, -0.00, -1.00, 1471.7, 494.9)">i</text><text xml:space="preserve" font-family="Roboto-Medium,Roboto" font-size="116.0" fill="#FFFFFF" transform="matrix(1.00, 0.00, -0.00, -1.00, 1501.8, 494.9)">k</text><text xml:space="preserve" font-family="Roboto-Medium,Roboto" font-size="116.0" fill="#FFFFFF" transform="matrix(1.00, 0.00, -0.00, -1.00, 1561.4, 494.9)">e</text><text xml:space="preserve" font-family="Roboto-Medium,Roboto" font-size="116.0" fill="#FFFFFF" transform="matrix(1.00, 0.00, -0.00, -1.00, 1622.8, 494.9)"> </text><text xml:space="preserve" font-family="Roboto-Medium,Roboto" font-size="116.0" fill="#FFFFFF" transform="matrix(1.00, 0.00, -0.00, -1.00, 1651.7, 494.9)">t</text><text xml:space="preserve" font-family="Roboto-Medium,Roboto" font-size="116.0" fill="#FFFFFF" transform="matrix(1.00, 0.00, -0.00, -1.00, 1692.0, 494.9)">h</text><text xml:space="preserve" font-family="Roboto-Medium,Roboto" font-size="116.0" fill="#FFFFFF" transform="matrix(1.00, 0.00, -0.00, -1.00, 1757.8, 494.9)">i</text><text xml:space="preserve" font-family="Roboto-Medium,Roboto" font-size="116.0" fill="#FFFFFF" transform="matrix(1.00, 0.00, -0.00, -1.00, 1787.9, 494.9)">s</text><text xml:space="preserve" font-family="Roboto-Medium,Roboto" font-size="116.0" fill="#FFFFFF" transform="matrix(1.00, 0.00, -0.00, -1.00, 1848.2, 494.9)">.</text></g></svg>