<?xml version="1.0" encoding="UTF-8" standalone="no"?><svg xmlns="http://www.w3.org/2000/svg" xmlns:xlink="http://www.w3.org/1999/xlink" clip-rule="evenodd" stroke-miterlimit="10" viewBox="0 0 1920 1080"><desc>SVG generated by Keynote</desc><defs></defs><g transform="matrix(1.00, 0.00, -0.00, -1.00, 0.0, 1080.0)"><path d="M 0.0 1080.0 L 1920.0 1080.0 L 1920.0 0.0 L 0.0 0.0 Z M 0.0 1080.0 " fill="#424242"></path><text xml:space="preserve" font-family="Roboto-LightItalic,Roboto" font-style="italic" font-size="120.0" fill="#E7E7E7" transform="matrix(1.00, 0.00, -0.00, -1.00, 158.9, 707.7)">“</text><text xml:space="preserve" font-family="Roboto-LightItalic,Roboto" font-style="italic" font-size="120.0" fill="#E7E7E7" transform="matrix(1.00, 0.00, -0.00, -1.00, 193.3, 707.7)">W</text><text xml:space="preserve" font-family="Roboto-LightItalic,Roboto" font-style="italic" font-size="120.0" fill="#E7E7E7" transform="matrix(1.00, 0.00, -0.00, -1.00, 293.6, 707.7)">h</text><text xml:space="preserve" font-family="Roboto-LightItalic,Roboto" font-style="italic" font-size="120.0" fill="#E7E7E7" transform="matrix(1.00, 0.00, -0.00, -1.00, 356.5, 707.7)">e</text><text xml:space="preserve" font-family="Roboto-LightItalic,Roboto" font-style="italic" font-size="120.0" fill="#E7E7E7" transform="matrix(1.00, 0.00, -0.00, -1.00, 414.7, 707.7)">n</text><text xml:space="preserve" font-family="Roboto-LightItalic,Roboto" font-style="italic" font-size="120.0" fill="#E7E7E7" transform="matrix(1.00, 0.00, -0.00, -1.00, 477.5, 707.7)"> </text><text xml:space="preserve" font-family="Roboto-LightItalic,Roboto" font-style="italic" font-size="120.0" fill="#E7E7E7" transform="matrix(1.00, 0.00, -0.00, -1.00, 505.4, 707.7)">y</text><text xml:space="preserve" font-family="Roboto-LightItalic,Roboto" font-style="italic" font-size="120.0" fill="#E7E7E7" transform="matrix(1.00, 0.00, -0.00, -1.00, 559.8, 707.7)">o</text><text xml:space="preserve" font-family="Roboto-LightItalic,Roboto" font-style="italic" font-size="120.0" fill="#E7E7E7" transform="matrix(1.00, 0.00, -0.00, -1.00, 622.7, 707.7)">u</text><text xml:space="preserve" font-family="Roboto-LightItalic,Roboto" font-style="italic" font-size="120.0" fill="#E7E7E7" transform="matrix(1.00, 0.00, -0.00, -1.00, 685.6, 707.7)"> </text><text xml:space="preserve" font-family="Roboto-LightItalic,Roboto" font-style="italic" font-size="120.0" fill="#E7E7E7" transform="matrix(1.00, 0.00, -0.00, -1.00, 713.4, 707.7)">c</text><text xml:space="preserve" font-family="Roboto-LightItalic,Roboto" font-style="italic" font-size="120.0" fill="#E7E7E7" transform="matrix(1.00, 0.00, -0.00, -1.00, 772.0, 707.7)">a</text><text xml:space="preserve" font-family="Roboto-LightItalic,Roboto" font-style="italic" font-size="120.0" fill="#E7E7E7" transform="matrix(1.00, 0.00, -0.00, -1.00, 832.7, 707.7)">l</text><text xml:space="preserve" font-family="Roboto-LightItalic,Roboto" font-style="italic" font-size="120.0" fill="#E7E7E7" transform="matrix(1.00, 0.00, -0.00, -1.00, 858.8, 707.7)">l</text><text xml:space="preserve" font-family="Roboto-LightItalic,Roboto" font-style="italic" font-size="120.0" fill="#E7E7E7" transform="matrix(1.00, 0.00, -0.00, -1.00, 885.0, 707.7)"> </text><text xml:space="preserve" font-family="Roboto-LightItalic,Roboto" font-style="italic" font-size="120.0" fill="#E7E7E7" transform="matrix(1.00, 0.00, -0.00, -1.00, 912.8, 707.7)">a</text><text xml:space="preserve" font-family="Roboto-LightItalic,Roboto" font-style="italic" font-size="120.0" fill="#E7E7E7" transform="matrix(1.00, 0.00, -0.00, -1.00, 973.5, 707.7)"> </text><text xml:space="preserve" font-family="Roboto-LightItalic,Roboto" font-style="italic" font-size="120.0" fill="#E7E7E7" transform="matrix(1.00, 0.00, -0.00, -1.00, 1001.4, 707.7)">l</text><text xml:space="preserve" font-family="Roboto-LightItalic,Roboto" font-style="italic" font-size="120.0" fill="#E7E7E7" transform="matrix(1.00, 0.00, -0.00, -1.00, 1027.5, 707.7)">i</text><text xml:space="preserve" font-family="Roboto-LightItalic,Roboto" font-style="italic" font-size="120.0" fill="#E7E7E7" transform="matrix(1.00, 0.00, -0.00, -1.00, 1053.7, 707.7)">b</text><text xml:space="preserve" font-family="Roboto-LightItalic,Roboto" font-style="italic" font-size="120.0" fill="#E7E7E7" transform="matrix(1.00, 0.00, -0.00, -1.00, 1116.6, 707.7)">r</text><text xml:space="preserve" font-family="Roboto-LightItalic,Roboto" font-style="italic" font-size="120.0" fill="#E7E7E7" transform="matrix(1.00, 0.00, -0.00, -1.00, 1155.1, 707.7)">a</text><text xml:space="preserve" font-family="Roboto-LightItalic,Roboto" font-style="italic" font-size="120.0" fill="#E7E7E7" transform="matrix(1.00, 0.00, -0.00, -1.00, 1215.9, 707.7)">r</text><text xml:space="preserve" font-family="Roboto-LightItalic,Roboto" font-style="italic" font-size="120.0" fill="#E7E7E7" transform="matrix(1.00, 0.00, -0.00, -1.00, 1255.5, 707.7)">y</text><text xml:space="preserve" font-family="Roboto-LightItalic,Roboto" font-style="italic" font-size="120.0" fill="#E7E7E7" transform="matrix(1.00, 0.00, -0.00, -1.00, 1304.5, 707.7)">,</text><text xml:space="preserve" font-family="Roboto-LightItalic,Roboto" font-style="italic" font-size="120.0" fill="#E7E7E7" transform="matrix(1.00, 0.00, -0.00, -1.00, 1326.6, 707.7)"> </text><text xml:space="preserve" font-family="Roboto-LightItalic,Roboto" font-style="italic" font-size="120.0" fill="#E7E7E7" transform="matrix(1.00, 0.00, -0.00, -1.00, 1354.4, 707.7)">y</text><text xml:space="preserve" font-family="Roboto-LightItalic,Roboto" font-style="italic" font-size="120.0" fill="#E7E7E7" transform="matrix(1.00, 0.00, -0.00, -1.00, 1408.8, 707.7)">o</text><text xml:space="preserve" font-family="Roboto-LightItalic,Roboto" font-style="italic" font-size="120.0" fill="#E7E7E7" transform="matrix(1.00, 0.00, -0.00, -1.00, 1471.7, 707.7)">u</text><text xml:space="preserve" font-family="Roboto-LightItalic,Roboto" font-style="italic" font-size="120.0" fill="#E7E7E7" transform="matrix(1.00, 0.00, -0.00, -1.00, 1534.6, 707.7)"> </text><text xml:space="preserve" font-family="Roboto-LightItalic,Roboto" font-style="italic" font-size="120.0" fill="#E7E7E7" transform="matrix(1.00, 0.00, -0.00, -1.00, 1562.5, 707.7)">a</text><text xml:space="preserve" font-family="Roboto-LightItalic,Roboto" font-style="italic" font-size="120.0" fill="#E7E7E7" transform="matrix(1.00, 0.00, -0.00, -1.00, 1623.2, 707.7)">r</text><text xml:space="preserve" font-family="Roboto-LightItalic,Roboto" font-style="italic" font-size="120.0" fill="#E7E7E7" transform="matrix(1.00, 0.00, -0.00, -1.00, 1660.7, 707.7)">e</text><text xml:space="preserve" font-family="Roboto-LightItalic,Roboto" font-style="italic" font-size="120.0" fill="#E7E7E7" transform="matrix(1.00, 0.00, -0.00, -1.00, 1718.8, 707.7)"> </text><text xml:space="preserve" font-family="Roboto-LightItalic,Roboto" font-style="italic" font-size="120.0" fill="#E7E7E7" transform="matrix(1.00, 0.00, -0.00, -1.00, 1746.6, 707.7)">i</text><text xml:space="preserve" font-family="Roboto-LightItalic,Roboto" font-style="italic" font-size="120.0" fill="#E7E7E7" transform="matrix(1.00, 0.00, -0.00, -1.00, 1772.8, 707.7)">n</text><text xml:space="preserve" font-family="Roboto-LightItalic,Roboto" font-style="italic" font-size="120.0" fill="#E7E7E7" transform="matrix(1.00, 0.00, -0.00, -1.00, 1835.7, 707.7)"> </text><text xml:space="preserve" font-family="Roboto-LightItalic,Roboto" font-style="italic" font-size="120.0" fill="#E7E7E7" transform="matrix(1.00, 0.00, -0.00, -1.00, 158.9, 564.6)">c</text><text xml:space="preserve" font-family="Roboto-LightItalic,Roboto" font-style="italic" font-size="120.0" fill="#E7E7E7" transform="matrix(1.00, 0.00, -0.00, -1.00, 217.4, 564.6)">o</text><text xml:space="preserve" font-family="Roboto-LightItalic,Roboto" font-style="italic" font-size="120.0" fill="#E7E7E7" transform="matrix(1.00, 0.00, -0.00, -1.00, 280.3, 564.6)">n</text><text xml:space="preserve" font-family="Roboto-LightItalic,Roboto" font-style="italic" font-size="120.0" fill="#E7E7E7" transform="matrix(1.00, 0.00, -0.00, -1.00, 343.1, 564.6)">t</text><text xml:space="preserve" font-family="Roboto-LightItalic,Roboto" font-style="italic" font-size="120.0" fill="#E7E7E7" transform="matrix(1.00, 0.00, -0.00, -1.00, 380.9, 564.6)">r</text><text xml:space="preserve" font-family="Roboto-LightItalic,Roboto" font-style="italic" font-size="120.0" fill="#E7E7E7" transform="matrix(1.00, 0.00, -0.00, -1.00, 418.3, 564.6)">o</text><text xml:space="preserve" font-family="Roboto-LightItalic,Roboto" font-style="italic" font-size="120.0" fill="#E7E7E7" transform="matrix(1.00, 0.00, -0.00, -1.00, 481.2, 564.6)">l</text><text xml:space="preserve" font-family="Roboto-LightItalic,Roboto" font-style="italic" font-size="120.0" fill="#E7E7E7" transform="matrix(1.00, 0.00, -0.00, -1.00, 507.3, 564.6)">.</text><text xml:space="preserve" font-family="Roboto-LightItalic,Roboto" font-style="italic" font-size="120.0" fill="#E7E7E7" transform="matrix(1.00, 0.00, -0.00, -1.00, 534.7, 564.6)"> </text><text xml:space="preserve" font-family="Roboto-LightItalic,Roboto" font-style="italic" font-size="120.0" fill="#E7E7E7" transform="matrix(1.00, 0.00, -0.00, -1.00, 562.5, 564.6)">B</text><text xml:space="preserve" font-family="Roboto-LightItalic,Roboto" font-style="italic" font-size="120.0" fill="#E7E7E7" transform="matrix(1.00, 0.00, -0.00, -1.00, 632.3, 564.6)">u</text><text xml:space="preserve" font-family="Roboto-LightItalic,Roboto" font-style="italic" font-size="120.0" fill="#E7E7E7" transform="matrix(1.00, 0.00, -0.00, -1.00, 695.2, 564.6)">t</text><text xml:space="preserve" font-family="Roboto-LightItalic,Roboto" font-style="italic" font-size="120.0" fill="#E7E7E7" transform="matrix(1.00, 0.00, -0.00, -1.00, 733.0, 564.6)"> </text><text xml:space="preserve" font-family="Roboto-LightItalic,Roboto" font-style="italic" font-size="120.0" fill="#E7E7E7" transform="matrix(1.00, 0.00, -0.00, -1.00, 760.8, 564.6)">w</text><text xml:space="preserve" font-family="Roboto-LightItalic,Roboto" font-style="italic" font-size="120.0" fill="#E7E7E7" transform="matrix(1.00, 0.00, -0.00, -1.00, 845.9, 564.6)">i</text><text xml:space="preserve" font-family="Roboto-LightItalic,Roboto" font-style="italic" font-size="120.0" fill="#E7E7E7" transform="matrix(1.00, 0.00, -0.00, -1.00, 872.0, 564.6)">t</text><text xml:space="preserve" font-family="Roboto-LightItalic,Roboto" font-style="italic" font-size="120.0" fill="#E7E7E7" transform="matrix(1.00, 0.00, -0.00, -1.00, 909.8, 564.6)">h</text><text xml:space="preserve" font-family="Roboto-LightItalic,Roboto" font-style="italic" font-size="120.0" fill="#E7E7E7" transform="matrix(1.00, 0.00, -0.00, -1.00, 972.6, 564.6)"> </text><text xml:space="preserve" font-family="Roboto-LightItalic,Roboto" font-style="italic" font-size="120.0" fill="#E7E7E7" transform="matrix(1.00, 0.00, -0.00, -1.00, 1000.5, 564.6)">a</text><text xml:space="preserve" font-family="Roboto-LightItalic,Roboto" font-style="italic" font-size="120.0" fill="#E7E7E7" transform="matrix(1.00, 0.00, -0.00, -1.00, 1061.1, 564.6)"> </text><text xml:space="preserve" font-family="Roboto-LightItalic,Roboto" font-style="italic" font-size="120.0" fill="#E7E7E7" transform="matrix(1.00, 0.00, -0.00, -1.00, 1089.0, 564.6)">f</text><text xml:space="preserve" font-family="Roboto-LightItalic,Roboto" font-style="italic" font-size="120.0" fill="#E7E7E7" transform="matrix(1.00, 0.00, -0.00, -1.00, 1126.3, 564.6)">r</text><text xml:space="preserve" font-family="Roboto-LightItalic,Roboto" font-style="italic" font-size="120.0" fill="#E7E7E7" transform="matrix(1.00, 0.00, -0.00, -1.00, 1164.9, 564.6)">a</text><text xml:space="preserve" font-family="Roboto-LightItalic,Roboto" font-style="italic" font-size="120.0" fill="#E7E7E7" transform="matrix(1.00, 0.00, -0.00, -1.00, 1225.6, 564.6)">m</text><text xml:space="preserve" font-family="Roboto-LightItalic,Roboto" font-style="italic" font-size="120.0" fill="#E7E7E7" transform="matrix(1.00, 0.00, -0.00, -1.00, 1325.0, 564.6)">e</text><text xml:space="preserve" font-family="Roboto-LightItalic,Roboto" font-style="italic" font-size="120.0" fill="#E7E7E7" transform="matrix(1.00, 0.00, -0.00, -1.00, 1383.1, 564.6)">w</text><text xml:space="preserve" font-family="Roboto-LightItalic,Roboto" font-style="italic" font-size="120.0" fill="#E7E7E7" transform="matrix(1.00, 0.00, -0.00, -1.00, 1468.2, 564.6)">o</text><text xml:space="preserve" font-family="Roboto-LightItalic,Roboto" font-style="italic" font-size="120.0" fill="#E7E7E7" transform="matrix(1.00, 0.00, -0.00, -1.00, 1531.1, 564.6)">r</text><text xml:space="preserve" font-family="Roboto-LightItalic,Roboto" font-style="italic" font-size="120.0" fill="#E7E7E7" transform="matrix(1.00, 0.00, -0.00, -1.00, 1569.7, 564.6)">k</text><text xml:space="preserve" font-family="Roboto-LightItalic,Roboto" font-style="italic" font-size="120.0" fill="#E7E7E7" transform="matrix(1.00, 0.00, -0.00, -1.00, 1625.2, 564.6)">,</text><text xml:space="preserve" font-family="Roboto-LightItalic,Roboto" font-style="italic" font-size="120.0" fill="#E7E7E7" transform="matrix(1.00, 0.00, -0.00, -1.00, 1647.2, 564.6)"> </text><text xml:space="preserve" font-family="Roboto-LightItalic,Roboto" font-style="italic" font-size="120.0" fill="#E7E7E7" transform="matrix(1.00, 0.00, -0.00, -1.00, 1675.0, 564.6)">t</text><text xml:space="preserve" font-family="Roboto-LightItalic,Roboto" font-style="italic" font-size="120.0" fill="#E7E7E7" transform="matrix(1.00, 0.00, -0.00, -1.00, 1712.8, 564.6)">h</text><text xml:space="preserve" font-family="Roboto-LightItalic,Roboto" font-style="italic" font-size="120.0" fill="#E7E7E7" transform="matrix(1.00, 0.00, -0.00, -1.00, 1775.6, 564.6)">e</text><text xml:space="preserve" font-family="Roboto-LightItalic,Roboto" font-style="italic" font-size="120.0" fill="#E7E7E7" transform="matrix(1.00, 0.00, -0.00, -1.00, 1833.8, 564.6)"> </text><text xml:space="preserve" font-family="Roboto-LightItalic,Roboto" font-style="italic" font-size="120.0" fill="#E7E7E7" transform="matrix(1.00, 0.00, -0.00, -1.00, 158.9, 421.5)">c</text><text xml:space="preserve" font-family="Roboto-LightItalic,Roboto" font-style="italic" font-size="120.0" fill="#E7E7E7" transform="matrix(1.00, 0.00, -0.00, -1.00, 217.4, 421.5)">o</text><text xml:space="preserve" font-family="Roboto-LightItalic,Roboto" font-style="italic" font-size="120.0" fill="#E7E7E7" transform="matrix(1.00, 0.00, -0.00, -1.00, 280.3, 421.5)">n</text><text xml:space="preserve" font-family="Roboto-LightItalic,Roboto" font-style="italic" font-size="120.0" fill="#E7E7E7" transform="matrix(1.00, 0.00, -0.00, -1.00, 343.1, 421.5)">t</text><text xml:space="preserve" font-family="Roboto-LightItalic,Roboto" font-style="italic" font-size="120.0" fill="#E7E7E7" transform="matrix(1.00, 0.00, -0.00, -1.00, 380.9, 421.5)">r</text><text xml:space="preserve" font-family="Roboto-LightItalic,Roboto" font-style="italic" font-size="120.0" fill="#E7E7E7" transform="matrix(1.00, 0.00, -0.00, -1.00, 418.3, 421.5)">o</text><text xml:space="preserve" font-family="Roboto-LightItalic,Roboto" font-style="italic" font-size="120.0" fill="#E7E7E7" transform="matrix(1.00, 0.00, -0.00, -1.00, 481.2, 421.5)">l</text><text xml:space="preserve" font-family="Roboto-LightItalic,Roboto" font-style="italic" font-size="120.0" fill="#E7E7E7" transform="matrix(1.00, 0.00, -0.00, -1.00, 507.3, 421.5)"> </text><text xml:space="preserve" font-family="Roboto-LightItalic,Roboto" font-style="italic" font-size="120.0" fill="#E7E7E7" transform="matrix(1.00, 0.00, -0.00, -1.00, 535.1, 421.5)">i</text><text xml:space="preserve" font-family="Roboto-LightItalic,Roboto" font-style="italic" font-size="120.0" fill="#E7E7E7" transform="matrix(1.00, 0.00, -0.00, -1.00, 561.2, 421.5)">s</text><text xml:space="preserve" font-family="Roboto-LightItalic,Roboto" font-style="italic" font-size="120.0" fill="#E7E7E7" transform="matrix(1.00, 0.00, -0.00, -1.00, 618.8, 421.5)"> </text><text xml:space="preserve" font-family="Roboto-LightItalic,Roboto" font-style="italic" font-size="120.0" fill="#E7E7E7" transform="matrix(1.00, 0.00, -0.00, -1.00, 646.7, 421.5)">i</text><text xml:space="preserve" font-family="Roboto-LightItalic,Roboto" font-style="italic" font-size="120.0" fill="#E7E7E7" transform="matrix(1.00, 0.00, -0.00, -1.00, 672.8, 421.5)">n</text><text xml:space="preserve" font-family="Roboto-LightItalic,Roboto" font-style="italic" font-size="120.0" fill="#E7E7E7" transform="matrix(1.00, 0.00, -0.00, -1.00, 735.6, 421.5)">v</text><text xml:space="preserve" font-family="Roboto-LightItalic,Roboto" font-style="italic" font-size="120.0" fill="#E7E7E7" transform="matrix(1.00, 0.00, -0.00, -1.00, 790.2, 421.5)">e</text><text xml:space="preserve" font-family="Roboto-LightItalic,Roboto" font-style="italic" font-size="120.0" fill="#E7E7E7" transform="matrix(1.00, 0.00, -0.00, -1.00, 848.4, 421.5)">r</text><text xml:space="preserve" font-family="Roboto-LightItalic,Roboto" font-style="italic" font-size="120.0" fill="#E7E7E7" transform="matrix(1.00, 0.00, -0.00, -1.00, 888.8, 421.5)">t</text><text xml:space="preserve" font-family="Roboto-LightItalic,Roboto" font-style="italic" font-size="120.0" fill="#E7E7E7" transform="matrix(1.00, 0.00, -0.00, -1.00, 926.6, 421.5)">e</text><text xml:space="preserve" font-family="Roboto-LightItalic,Roboto" font-style="italic" font-size="120.0" fill="#E7E7E7" transform="matrix(1.00, 0.00, -0.00, -1.00, 984.8, 421.5)">d</text><text xml:space="preserve" font-family="Roboto-LightItalic,Roboto" font-style="italic" font-size="120.0" fill="#E7E7E7" transform="matrix(1.00, 0.00, -0.00, -1.00, 1047.6, 421.5)">:</text><text xml:space="preserve" font-family="Roboto-LightItalic,Roboto" font-style="italic" font-size="120.0" fill="#E7E7E7" transform="matrix(1.00, 0.00, -0.00, -1.00, 1072.1, 421.5)"> </text><text xml:space="preserve" font-family="Roboto-LightItalic,Roboto" font-style="italic" font-size="120.0" fill="#E7E7E7" transform="matrix(1.00, 0.00, -0.00, -1.00, 1099.9, 421.5)">t</text><text xml:space="preserve" font-family="Roboto-LightItalic,Roboto" font-style="italic" font-size="120.0" fill="#E7E7E7" transform="matrix(1.00, 0.00, -0.00, -1.00, 1137.7, 421.5)">h</text><text xml:space="preserve" font-family="Roboto-LightItalic,Roboto" font-style="italic" font-size="120.0" fill="#E7E7E7" transform="matrix(1.00, 0.00, -0.00, -1.00, 1200.6, 421.5)">e</text><text xml:space="preserve" font-family="Roboto-LightItalic,Roboto" font-style="italic" font-size="120.0" fill="#E7E7E7" transform="matrix(1.00, 0.00, -0.00, -1.00, 1258.8, 421.5)"> </text><text xml:space="preserve" font-family="Roboto-LightItalic,Roboto" font-style="italic" font-size="120.0" fill="#E7E7E7" transform="matrix(1.00, 0.00, -0.00, -1.00, 1286.6, 421.5)">f</text><text xml:space="preserve" font-family="Roboto-LightItalic,Roboto" font-style="italic" font-size="120.0" fill="#E7E7E7" transform="matrix(1.00, 0.00, -0.00, -1.00, 1323.9, 421.5)">r</text><text xml:space="preserve" font-family="Roboto-LightItalic,Roboto" font-style="italic" font-size="120.0" fill="#E7E7E7" transform="matrix(1.00, 0.00, -0.00, -1.00, 1362.5, 421.5)">a</text><text xml:space="preserve" font-family="Roboto-LightItalic,Roboto" font-style="italic" font-size="120.0" fill="#E7E7E7" transform="matrix(1.00, 0.00, -0.00, -1.00, 1423.2, 421.5)">m</text><text xml:space="preserve" font-family="Roboto-LightItalic,Roboto" font-style="italic" font-size="120.0" fill="#E7E7E7" transform="matrix(1.00, 0.00, -0.00, -1.00, 1522.6, 421.5)">e</text><text xml:space="preserve" font-family="Roboto-LightItalic,Roboto" font-style="italic" font-size="120.0" fill="#E7E7E7" transform="matrix(1.00, 0.00, -0.00, -1.00, 1580.7, 421.5)">w</text><text xml:space="preserve" font-family="Roboto-LightItalic,Roboto" font-style="italic" font-size="120.0" fill="#E7E7E7" transform="matrix(1.00, 0.00, -0.00, -1.00, 1665.8, 421.5)">o</text><text xml:space="preserve" font-family="Roboto-LightItalic,Roboto" font-style="italic" font-size="120.0" fill="#E7E7E7" transform="matrix(1.00, 0.00, -0.00, -1.00, 1728.7, 421.5)">r</text><text xml:space="preserve" font-family="Roboto-LightItalic,Roboto" font-style="italic" font-size="120.0" fill="#E7E7E7" transform="matrix(1.00, 0.00, -0.00, -1.00, 1767.3, 421.5)">k</text><text xml:space="preserve" font-family="Roboto-LightItalic,Roboto" font-style="italic" font-size="120.0" fill="#E7E7E7" transform="matrix(1.00, 0.00, -0.00, -1.00, 1822.8, 421.5)"> </text><text xml:space="preserve" font-family="Roboto-LightItalic,Roboto" font-style="italic" font-size="120.0" fill="#E7E7E7" transform="matrix(1.00, 0.00, -0.00, -1.00, 158.9, 278.4)">c</text><text xml:space="preserve" font-family="Roboto-LightItalic,Roboto" font-style="italic" font-size="120.0" fill="#E7E7E7" transform="matrix(1.00, 0.00, -0.00, -1.00, 217.4, 278.4)">a</text><text xml:space="preserve" font-family="Roboto-LightItalic,Roboto" font-style="italic" font-size="120.0" fill="#E7E7E7" transform="matrix(1.00, 0.00, -0.00, -1.00, 278.1, 278.4)">l</text><text xml:space="preserve" font-family="Roboto-LightItalic,Roboto" font-style="italic" font-size="120.0" fill="#E7E7E7" transform="matrix(1.00, 0.00, -0.00, -1.00, 304.2, 278.4)">l</text><text xml:space="preserve" font-family="Roboto-LightItalic,Roboto" font-style="italic" font-size="120.0" fill="#E7E7E7" transform="matrix(1.00, 0.00, -0.00, -1.00, 330.3, 278.4)">s</text><text xml:space="preserve" font-family="Roboto-LightItalic,Roboto" font-style="italic" font-size="120.0" fill="#E7E7E7" transform="matrix(1.00, 0.00, -0.00, -1.00, 387.9, 278.4)"> </text><text xml:space="preserve" font-family="Roboto-LightItalic,Roboto" font-style="italic" font-size="120.0" fill="#E7E7E7" transform="matrix(1.00, 0.00, -0.00, -1.00, 415.7, 278.4)">y</text><text xml:space="preserve" font-family="Roboto-LightItalic,Roboto" font-style="italic" font-size="120.0" fill="#E7E7E7" transform="matrix(1.00, 0.00, -0.00, -1.00, 470.1, 278.4)">o</text><text xml:space="preserve" font-family="Roboto-LightItalic,Roboto" font-style="italic" font-size="120.0" fill="#E7E7E7" transform="matrix(1.00, 0.00, -0.00, -1.00, 532.9, 278.4)">u</text><text xml:space="preserve" font-family="Roboto-LightItalic,Roboto" font-style="italic" font-size="120.0" fill="#E7E7E7" transform="matrix(1.00, 0.00, -0.00, -1.00, 595.8, 278.4)">.</text><text xml:space="preserve" font-family="Roboto-LightItalic,Roboto" font-style="italic" font-size="120.0" fill="#E7E7E7" transform="matrix(1.00, 0.00, -0.00, -1.00, 613.2, 278.4)">”</text><text xml:space="preserve" font-family="Roboto-Regular,Roboto" font-size="39.0" fill="#B2B2B2" transform="matrix(1.00, 0.00, -0.00, -1.00, 831.1, 171.8)">-</text><text xml:space="preserve" font-family="Roboto-Regular,Roboto" font-size="39.0" fill="#B2B2B2" transform="matrix(1.00, 0.00, -0.00, -1.00, 841.7, 171.8)"> </text><text xml:space="preserve" font-family="Roboto-Regular,Roboto" font-size="39.0" fill="#B2B2B2" transform="matrix(1.00, 0.00, -0.00, -1.00, 851.4, 171.8)">J</text><text xml:space="preserve" font-family="Roboto-Regular,Roboto" font-size="39.0" fill="#B2B2B2" transform="matrix(1.00, 0.00, -0.00, -1.00, 872.9, 171.8)">ö</text><text xml:space="preserve" font-family="Roboto-Regular,Roboto" font-size="39.0" fill="#B2B2B2" transform="matrix(1.00, 0.00, -0.00, -1.00, 895.1, 171.8)">r</text><text xml:space="preserve" font-family="Roboto-Regular,Roboto" font-size="39.0" fill="#B2B2B2" transform="matrix(1.00, 0.00, -0.00, -1.00, 908.1, 171.8)">g</text><text xml:space="preserve" font-family="Roboto-Regular,Roboto" font-size="39.0" fill="#B2B2B2" transform="matrix(1.00, 0.00, -0.00, -1.00, 930.3, 171.8)"> </text><text xml:space="preserve" font-family="Roboto-Regular,Roboto" font-size="39.0" fill="#B2B2B2" transform="matrix(1.00, 0.00, -0.00, -1.00, 940.0, 171.8)">W</text><text xml:space="preserve" font-family="Roboto-Regular,Roboto" font-size="39.0" fill="#B2B2B2" transform="matrix(1.00, 0.00, -0.00, -1.00, 974.4, 171.8)"> </text><text xml:space="preserve" font-family="Roboto-Regular,Roboto" font-size="39.0" fill="#B2B2B2" transform="matrix(1.00, 0.00, -0.00, -1.00, 984.1, 171.8)">M</text><text xml:space="preserve" font-family="Roboto-Regular,Roboto" font-size="39.0" fill="#B2B2B2" transform="matrix(1.00, 0.00, -0.00, -1.00, 1018.4, 171.8)">i</text><text xml:space="preserve" font-family="Roboto-Regular,Roboto" font-size="39.0" fill="#B2B2B2" transform="matrix(1.00, 0.00, -0.00, -1.00, 1028.2, 171.8)">t</text><text xml:space="preserve" font-family="Roboto-Regular,Roboto" font-size="39.0" fill="#B2B2B2" transform="matrix(1.00, 0.00, -0.00, -1.00, 1041.7, 171.8)">t</text><text xml:space="preserve" font-family="Roboto-Regular,Roboto" font-size="39.0" fill="#B2B2B2" transform="matrix(1.00, 0.00, -0.00, -1.00, 1055.1, 171.8)">a</text><text xml:space="preserve" font-family="Roboto-Regular,Roboto" font-size="39.0" fill="#B2B2B2" transform="matrix(1.00, 0.00, -0.00, -1.00, 1076.6, 171.8)">g</text><text xml:space="preserve" font-family="Roboto-Regular,Roboto" font-size="39.0" fill="#B2B2B2" transform="matrix(1.00, 0.00, -0.00, -1.00, 1098.7, 171.8)"> </text><text xml:space="preserve" font-family="Roboto-Regular,Roboto" font-size="39.0" fill="#B2B2B2" transform="matrix(1.00, 0.00, -0.00, -1.00, 1108.4, 171.8)">o</text><text xml:space="preserve" font-family="Roboto-Regular,Roboto" font-size="39.0" fill="#B2B2B2" transform="matrix(1.00, 0.00, -0.00, -1.00, 1130.6, 171.8)">n</text><text xml:space="preserve" font-family="Roboto-Regular,Roboto" font-size="39.0" fill="#B2B2B2" transform="matrix(1.00, 0.00, -0.00, -1.00, 1152.8, 171.8)"> </text><text xml:space="preserve" font-family="Roboto-Regular,Roboto" font-size="39.0" fill="#B2B2B2" transform="matrix(1.00, 0.00, -0.00, -1.00, 1162.5, 171.8)">“</text><text xml:space="preserve" font-family="Roboto-Regular,Roboto" font-size="39.0" fill="#B2B2B2" transform="matrix(1.00, 0.00, -0.00, -1.00, 1176.6, 171.8)">F</text><text xml:space="preserve" font-family="Roboto-Regular,Roboto" font-size="39.0" fill="#B2B2B2" transform="matrix(1.00, 0.00, -0.00, -1.00, 1198.8, 171.8)">r</text><text xml:space="preserve" font-family="Roboto-Regular,Roboto" font-size="39.0" fill="#B2B2B2" transform="matrix(1.00, 0.00, -0.00, -1.00, 1212.2, 171.8)">a</text><text xml:space="preserve" font-family="Roboto-Regular,Roboto" font-size="39.0" fill="#B2B2B2" transform="matrix(1.00, 0.00, -0.00, -1.00, 1233.6, 171.8)">m</text><text xml:space="preserve" font-family="Roboto-Regular,Roboto" font-size="39.0" fill="#B2B2B2" transform="matrix(1.00, 0.00, -0.00, -1.00, 1267.7, 171.8)">e</text><text xml:space="preserve" font-family="Roboto-Regular,Roboto" font-size="39.0" fill="#B2B2B2" transform="matrix(1.00, 0.00, -0.00, -1.00, 1288.3, 171.8)">w</text><text xml:space="preserve" font-family="Roboto-Regular,Roboto" font-size="39.0" fill="#B2B2B2" transform="matrix(1.00, 0.00, -0.00, -1.00, 1317.8, 171.8)">o</text><text xml:space="preserve" font-family="Roboto-Regular,Roboto" font-size="39.0" fill="#B2B2B2" transform="matrix(1.00, 0.00, -0.00, -1.00, 1340.0, 171.8)">r</text><text xml:space="preserve" font-family="Roboto-Regular,Roboto" font-size="39.0" fill="#B2B2B2" transform="matrix(1.00, 0.00, -0.00, -1.00, 1353.4, 171.8)">k</text><text xml:space="preserve" font-family="Roboto-Regular,Roboto" font-size="39.0" fill="#B2B2B2" transform="matrix(1.00, 0.00, -0.00, -1.00, 1373.4, 171.8)"> </text><text xml:space="preserve" font-family="Roboto-Regular,Roboto" font-size="39.0" fill="#B2B2B2" transform="matrix(1.00, 0.00, -0.00, -1.00, 1383.0, 171.8)">v</text><text xml:space="preserve" font-family="Roboto-Regular,Roboto" font-size="39.0" fill="#B2B2B2" transform="matrix(1.00, 0.00, -0.00, -1.00, 1402.7, 171.8)">s</text><text xml:space="preserve" font-family="Roboto-Regular,Roboto" font-size="39.0" fill="#B2B2B2" transform="matrix(1.00, 0.00, -0.00, -1.00, 1423.0, 171.8)">.</text><text xml:space="preserve" font-family="Roboto-Regular,Roboto" font-size="39.0" fill="#B2B2B2" transform="matrix(1.00, 0.00, -0.00, -1.00, 1433.5, 171.8)"> </text><text xml:space="preserve" font-family="Roboto-Regular,Roboto" font-size="39.0" fill="#B2B2B2" transform="matrix(1.00, 0.00, -0.00, -1.00, 1443.1, 171.8)">T</text><text xml:space="preserve" font-family="Roboto-Regular,Roboto" font-size="39.0" fill="#B2B2B2" transform="matrix(1.00, 0.00, -0.00, -1.00, 1464.5, 171.8)">o</text><text xml:space="preserve" font-family="Roboto-Regular,Roboto" font-size="39.0" fill="#B2B2B2" transform="matrix(1.00, 0.00, -0.00, -1.00, 1486.7, 171.8)">o</text><text xml:space="preserve" font-family="Roboto-Regular,Roboto" font-size="39.0" fill="#B2B2B2" transform="matrix(1.00, 0.00, -0.00, -1.00, 1508.8, 171.8)">l</text><text xml:space="preserve" font-family="Roboto-Regular,Roboto" font-size="39.0" fill="#B2B2B2" transform="matrix(1.00, 0.00, -0.00, -1.00, 1518.7, 171.8)">k</text><text xml:space="preserve" font-family="Roboto-Regular,Roboto" font-size="39.0" fill="#B2B2B2" transform="matrix(1.00, 0.00, -0.00, -1.00, 1538.7, 171.8)">i</text><text xml:space="preserve" font-family="Roboto-Regular,Roboto" font-size="39.0" fill="#B2B2B2" transform="matrix(1.00, 0.00, -0.00, -1.00, 1548.5, 171.8)">t</text><text xml:space="preserve" font-family="Roboto-Regular,Roboto" font-size="39.0" fill="#B2B2B2" transform="matrix(1.00, 0.00, -0.00, -1.00, 1562.0, 171.8)"> </text><text xml:space="preserve" font-family="Roboto-Regular,Roboto" font-size="39.0" fill="#B2B2B2" transform="matrix(1.00, 0.00, -0.00, -1.00, 1571.6, 171.8)">v</text><text xml:space="preserve" font-family="Roboto-Regular,Roboto" font-size="39.0" fill="#B2B2B2" transform="matrix(1.00, 0.00, -0.00, -1.00, 1591.2, 171.8)">s</text><text xml:space="preserve" font-family="Roboto-Regular,Roboto" font-size="39.0" fill="#B2B2B2" transform="matrix(1.00, 0.00, -0.00, -1.00, 1611.6, 171.8)">.</text><text xml:space="preserve" font-family="Roboto-Regular,Roboto" font-size="39.0" fill="#B2B2B2" transform="matrix(1.00, 0.00, -0.00, -1.00, 1622.1, 171.8)"> </text><text xml:space="preserve" font-family="Roboto-Regular,Roboto" font-size="39.0" fill="#B2B2B2" transform="matrix(1.00, 0.00, -0.00, -1.00, 1631.7, 171.8)">L</text><text xml:space="preserve" font-family="Roboto-Regular,Roboto" font-size="39.0" fill="#B2B2B2" transform="matrix(1.00, 0.00, -0.00, -1.00, 1652.8, 171.8)">i</text><text xml:space="preserve" font-family="Roboto-Regular,Roboto" font-size="39.0" fill="#B2B2B2" transform="matrix(1.00, 0.00, -0.00, -1.00, 1662.6, 171.8)">b</text><text xml:space="preserve" font-family="Roboto-Regular,Roboto" font-size="39.0" fill="#B2B2B2" transform="matrix(1.00, 0.00, -0.00, -1.00, 1684.8, 171.8)">r</text><text xml:space="preserve" font-family="Roboto-Regular,Roboto" font-size="39.0" fill="#B2B2B2" transform="matrix(1.00, 0.00, -0.00, -1.00, 1698.2, 171.8)">a</text><text xml:space="preserve" font-family="Roboto-Regular,Roboto" font-size="39.0" fill="#B2B2B2" transform="matrix(1.00, 0.00, -0.00, -1.00, 1719.6, 171.8)">r</text><text xml:space="preserve" font-family="Roboto-Regular,Roboto" font-size="39.0" fill="#B2B2B2" transform="matrix(1.00, 0.00, -0.00, -1.00, 1733.3, 171.8)">y</text><text xml:space="preserve" font-family="Roboto-Regular,Roboto" font-size="39.0" fill="#B2B2B2" transform="matrix(1.00, 0.00, -0.00, -1.00, 1753.2, 171.8)">”</text></g></svg>