<?xml version="1.0" encoding="UTF-8" standalone="no"?><svg xmlns="http://www.w3.org/2000/svg" xmlns:xlink="http://www.w3.org/1999/xlink" clip-rule="evenodd" stroke-miterlimit="10" viewBox="0 0 1920 1080"><desc>SVG generated by Keynote</desc><defs></defs><g transform="matrix(1.00, 0.00, -0.00, -1.00, 0.0, 1080.0)"><path d="M 0.0 1080.0 L 1920.0 1080.0 L 1920.0 0.0 L 0.0 0.0 Z M 0.0 1080.0 " fill="#FFFFFF"></path><path d="M 127.0 70.0 L 622.0 70.0 L 622.0 -30.0 L 127.0 -30.0 Z M 126.7 69.8 " fill="#FFFFFF"></path><text xml:space="preserve" font-family="RobotoCondensed-Bold,Roboto Condensed" font-weight="bold" font-size="41.0" fill="#404040" transform="matrix(1.00, 0.00, -0.00, -1.00, 202.9, 690.5)">u</text><text xml:space="preserve" font-family="RobotoCondensed-Bold,Roboto Condensed" font-weight="bold" font-size="41.0" fill="#404040" transform="matrix(1.00, 0.00, -0.00, -1.00, 222.8, 690.5)">s</text><text xml:space="preserve" font-family="RobotoCondensed-Bold,Roboto Condensed" font-weight="bold" font-size="41.0" fill="#404040" transform="matrix(1.00, 0.00, -0.00, -1.00, 240.6, 690.5)">e</text><text xml:space="preserve" font-family="RobotoCondensed-Bold,Roboto Condensed" font-weight="bold" font-size="41.0" fill="#404040" transform="matrix(1.00, 0.00, -0.00, -1.00, 259.4, 690.5)"> </text><text xml:space="preserve" font-family="RobotoCondensed-Bold,Roboto Condensed" font-weight="bold" font-size="41.0" fill="#404040" transform="matrix(1.00, 0.00, -0.00, -1.00, 268.4, 690.5)">D</text><text xml:space="preserve" font-family="RobotoCondensed-Bold,Roboto Condensed" font-weight="bold" font-size="41.0" fill="#404040" transform="matrix(1.00, 0.00, -0.00, -1.00, 291.4, 690.5)">O</text><text xml:space="preserve" font-family="RobotoCondensed-Bold,Roboto Condensed" font-weight="bold" font-size="41.0" fill="#404040" transform="matrix(1.00, 0.00, -0.00, -1.00, 314.8, 690.5)">M</text><text xml:space="preserve" font-family="RobotoCondensed-Bold,Roboto Condensed" font-weight="bold" font-size="41.0" fill="#404040" transform="matrix(1.00, 0.00, -0.00, -1.00, 344.4, 690.5)"> </text><text xml:space="preserve" font-family="RobotoCondensed-Regular,Roboto Condensed" font-size="41.0" fill="#404040" transform="matrix(1.00, 0.00, -0.00, -1.00, 353.4, 690.5)">t</text><text xml:space="preserve" font-family="RobotoCondensed-Regular,Roboto Condensed" font-size="41.0" fill="#404040" transform="matrix(1.00, 0.00, -0.00, -1.00, 365.6, 690.5)">o</text><text xml:space="preserve" font-family="RobotoCondensed-Regular,Roboto Condensed" font-size="41.0" fill="#404040" transform="matrix(1.00, 0.00, -0.00, -1.00, 385.5, 690.5)"> </text><text xml:space="preserve" font-family="RobotoCondensed-Regular,Roboto Condensed" font-size="41.0" fill="#404040" transform="matrix(1.00, 0.00, -0.00, -1.00, 394.4, 690.5)">s</text><text xml:space="preserve" font-family="RobotoCondensed-Regular,Roboto Condensed" font-size="41.0" fill="#404040" transform="matrix(1.00, 0.00, -0.00, -1.00, 412.2, 690.5)">c</text><text xml:space="preserve" font-family="RobotoCondensed-Regular,Roboto Condensed" font-size="41.0" fill="#404040" transform="matrix(1.00, 0.00, -0.00, -1.00, 430.7, 690.5)">a</text><text xml:space="preserve" font-family="RobotoCondensed-Regular,Roboto Condensed" font-size="41.0" fill="#404040" transform="matrix(1.00, 0.00, -0.00, -1.00, 449.8, 690.5)">f</text><text xml:space="preserve" font-family="RobotoCondensed-Regular,Roboto Condensed" font-size="41.0" fill="#404040" transform="matrix(1.00, 0.00, -0.00, -1.00, 462.3, 690.5)">f</text><text xml:space="preserve" font-family="RobotoCondensed-Regular,Roboto Condensed" font-size="41.0" fill="#404040" transform="matrix(1.00, 0.00, -0.00, -1.00, 474.7, 690.5)">o</text><text xml:space="preserve" font-family="RobotoCondensed-Regular,Roboto Condensed" font-size="41.0" fill="#404040" transform="matrix(1.00, 0.00, -0.00, -1.00, 494.6, 690.5)">l</text><text xml:space="preserve" font-family="RobotoCondensed-Regular,Roboto Condensed" font-size="41.0" fill="#404040" transform="matrix(1.00, 0.00, -0.00, -1.00, 503.9, 690.5)">d</text><text xml:space="preserve" font-family="RobotoCondensed-Regular,Roboto Condensed" font-size="41.0" fill="#404040" transform="matrix(1.00, 0.00, -0.00, -1.00, 523.8, 690.5)"> </text><text xml:space="preserve" font-family="RobotoCondensed-Regular,Roboto Condensed" font-size="41.0" fill="#404040" transform="matrix(1.00, 0.00, -0.00, -1.00, 532.7, 690.5)">D</text><text xml:space="preserve" font-family="RobotoCondensed-Regular,Roboto Condensed" font-size="41.0" fill="#404040" transform="matrix(1.00, 0.00, -0.00, -1.00, 555.9, 690.5)">O</text><text xml:space="preserve" font-family="RobotoCondensed-Regular,Roboto Condensed" font-size="41.0" fill="#404040" transform="matrix(1.00, 0.00, -0.00, -1.00, 579.1, 690.5)">M</text><text xml:space="preserve" font-family="RobotoCondensed-Bold,Roboto Condensed" font-weight="bold" font-size="41.0" fill="#404040" transform="matrix(1.00, 0.00, -0.00, -1.00, 202.9, 575.5)">p</text><text xml:space="preserve" font-family="RobotoCondensed-Bold,Roboto Condensed" font-weight="bold" font-size="41.0" fill="#404040" transform="matrix(1.00, 0.00, -0.00, -1.00, 222.8, 575.5)">a</text><text xml:space="preserve" font-family="RobotoCondensed-Bold,Roboto Condensed" font-weight="bold" font-size="41.0" fill="#404040" transform="matrix(1.00, 0.00, -0.00, -1.00, 241.7, 575.5)">r</text><text xml:space="preserve" font-family="RobotoCondensed-Bold,Roboto Condensed" font-weight="bold" font-size="41.0" fill="#404040" transform="matrix(1.00, 0.00, -0.00, -1.00, 254.8, 575.5)">s</text><text xml:space="preserve" font-family="RobotoCondensed-Bold,Roboto Condensed" font-weight="bold" font-size="41.0" fill="#404040" transform="matrix(1.00, 0.00, -0.00, -1.00, 272.6, 575.5)">e</text><text xml:space="preserve" font-family="RobotoCondensed-Bold,Roboto Condensed" font-weight="bold" font-size="41.0" fill="#404040" transform="matrix(1.00, 0.00, -0.00, -1.00, 291.4, 575.5)">d</text><text xml:space="preserve" font-family="RobotoCondensed-Regular,Roboto Condensed" font-size="41.0" fill="#404040" transform="matrix(1.00, 0.00, -0.00, -1.00, 311.3, 575.5)">,</text><text xml:space="preserve" font-family="RobotoCondensed-Regular,Roboto Condensed" font-size="41.0" fill="#404040" transform="matrix(1.00, 0.00, -0.00, -1.00, 319.3, 575.5)"> </text><text xml:space="preserve" font-family="RobotoCondensed-Regular,Roboto Condensed" font-size="41.0" fill="#404040" transform="matrix(1.00, 0.00, -0.00, -1.00, 328.2, 575.5)">n</text><text xml:space="preserve" font-family="RobotoCondensed-Regular,Roboto Condensed" font-size="41.0" fill="#404040" transform="matrix(1.00, 0.00, -0.00, -1.00, 348.1, 575.5)">o</text><text xml:space="preserve" font-family="RobotoCondensed-Regular,Roboto Condensed" font-size="41.0" fill="#404040" transform="matrix(1.00, 0.00, -0.00, -1.00, 368.0, 575.5)">t</text><text xml:space="preserve" font-family="RobotoCondensed-Regular,Roboto Condensed" font-size="41.0" fill="#404040" transform="matrix(1.00, 0.00, -0.00, -1.00, 380.6, 575.5)"> </text><text xml:space="preserve" font-family="RobotoCondensed-Regular,Roboto Condensed" font-size="41.0" fill="#404040" transform="matrix(1.00, 0.00, -0.00, -1.00, 389.5, 575.5)">r</text><text xml:space="preserve" font-family="RobotoCondensed-Regular,Roboto Condensed" font-size="41.0" fill="#404040" transform="matrix(1.00, 0.00, -0.00, -1.00, 401.8, 575.5)">e</text><text xml:space="preserve" font-family="RobotoCondensed-Regular,Roboto Condensed" font-size="41.0" fill="#404040" transform="matrix(1.00, 0.00, -0.00, -1.00, 420.4, 575.5)">n</text><text xml:space="preserve" font-family="RobotoCondensed-Regular,Roboto Condensed" font-size="41.0" fill="#404040" transform="matrix(1.00, 0.00, -0.00, -1.00, 440.3, 575.5)">d</text><text xml:space="preserve" font-family="RobotoCondensed-Regular,Roboto Condensed" font-size="41.0" fill="#404040" transform="matrix(1.00, 0.00, -0.00, -1.00, 460.2, 575.5)">e</text><text xml:space="preserve" font-family="RobotoCondensed-Regular,Roboto Condensed" font-size="41.0" fill="#404040" transform="matrix(1.00, 0.00, -0.00, -1.00, 478.8, 575.5)">r</text><text xml:space="preserve" font-family="RobotoCondensed-Regular,Roboto Condensed" font-size="41.0" fill="#404040" transform="matrix(1.00, 0.00, -0.00, -1.00, 491.1, 575.5)">e</text><text xml:space="preserve" font-family="RobotoCondensed-Regular,Roboto Condensed" font-size="41.0" fill="#404040" transform="matrix(1.00, 0.00, -0.00, -1.00, 509.7, 575.5)">d</text><image xlink:href="../../42108B0D-5631-4EC7-9BA6-BB72AD183C44/assets/4BD94B8597B1338F0A326BABA9C8D028.png" width="98.00" height="97.00" transform="matrix(0.37, 0.00, -0.00, -0.37, 158.7, 719.5)"></image><text xml:space="preserve" font-family="RobotoCondensed-Bold,Roboto Condensed" font-weight="bold" font-size="41.0" fill="#404040" transform="matrix(1.00, 0.00, -0.00, -1.00, 202.9, 463.5)">c</text><text xml:space="preserve" font-family="RobotoCondensed-Bold,Roboto Condensed" font-weight="bold" font-size="41.0" fill="#404040" transform="matrix(1.00, 0.00, -0.00, -1.00, 221.2, 463.5)">o</text><text xml:space="preserve" font-family="RobotoCondensed-Bold,Roboto Condensed" font-weight="bold" font-size="41.0" fill="#404040" transform="matrix(1.00, 0.00, -0.00, -1.00, 241.1, 463.5)">n</text><text xml:space="preserve" font-family="RobotoCondensed-Bold,Roboto Condensed" font-weight="bold" font-size="41.0" fill="#404040" transform="matrix(1.00, 0.00, -0.00, -1.00, 261.0, 463.5)">t</text><text xml:space="preserve" font-family="RobotoCondensed-Bold,Roboto Condensed" font-weight="bold" font-size="41.0" fill="#404040" transform="matrix(1.00, 0.00, -0.00, -1.00, 274.0, 463.5)">e</text><text xml:space="preserve" font-family="RobotoCondensed-Bold,Roboto Condensed" font-weight="bold" font-size="41.0" fill="#404040" transform="matrix(1.00, 0.00, -0.00, -1.00, 292.8, 463.5)">n</text><text xml:space="preserve" font-family="RobotoCondensed-Bold,Roboto Condensed" font-weight="bold" font-size="41.0" fill="#404040" transform="matrix(1.00, 0.00, -0.00, -1.00, 312.7, 463.5)">t</text><text xml:space="preserve" font-family="RobotoCondensed-Bold,Roboto Condensed" font-weight="bold" font-size="41.0" fill="#404040" transform="matrix(1.00, 0.00, -0.00, -1.00, 325.7, 463.5)"> </text><text xml:space="preserve" font-family="RobotoCondensed-Bold,Roboto Condensed" font-weight="bold" font-size="41.0" fill="#404040" transform="matrix(1.00, 0.00, -0.00, -1.00, 334.6, 463.5)">i</text><text xml:space="preserve" font-family="RobotoCondensed-Bold,Roboto Condensed" font-weight="bold" font-size="41.0" fill="#404040" transform="matrix(1.00, 0.00, -0.00, -1.00, 344.5, 463.5)">s</text><text xml:space="preserve" font-family="RobotoCondensed-Bold,Roboto Condensed" font-weight="bold" font-size="41.0" fill="#404040" transform="matrix(1.00, 0.00, -0.00, -1.00, 362.3, 463.5)"> </text><text xml:space="preserve" font-family="RobotoCondensed-Bold,Roboto Condensed" font-weight="bold" font-size="41.0" fill="#404040" transform="matrix(1.00, 0.00, -0.00, -1.00, 371.3, 463.5)">i</text><text xml:space="preserve" font-family="RobotoCondensed-Bold,Roboto Condensed" font-weight="bold" font-size="41.0" fill="#404040" transform="matrix(1.00, 0.00, -0.00, -1.00, 381.2, 463.5)">n</text><text xml:space="preserve" font-family="RobotoCondensed-Bold,Roboto Condensed" font-weight="bold" font-size="41.0" fill="#404040" transform="matrix(1.00, 0.00, -0.00, -1.00, 401.1, 463.5)">e</text><text xml:space="preserve" font-family="RobotoCondensed-Bold,Roboto Condensed" font-weight="bold" font-size="41.0" fill="#404040" transform="matrix(1.00, 0.00, -0.00, -1.00, 419.9, 463.5)">r</text><text xml:space="preserve" font-family="RobotoCondensed-Bold,Roboto Condensed" font-weight="bold" font-size="41.0" fill="#404040" transform="matrix(1.00, 0.00, -0.00, -1.00, 433.6, 463.5)">t</text><text xml:space="preserve" font-family="RobotoCondensed-Regular,Roboto Condensed" font-size="41.0" fill="#404040" transform="matrix(1.00, 0.00, -0.00, -1.00, 446.6, 463.5)"> </text><text xml:space="preserve" font-family="RobotoCondensed-Regular,Roboto Condensed" font-size="41.0" fill="#404040" transform="matrix(1.00, 0.00, -0.00, -1.00, 455.5, 463.5)">u</text><text xml:space="preserve" font-family="RobotoCondensed-Regular,Roboto Condensed" font-size="41.0" fill="#404040" transform="matrix(1.00, 0.00, -0.00, -1.00, 475.5, 463.5)">n</text><text xml:space="preserve" font-family="RobotoCondensed-Regular,Roboto Condensed" font-size="41.0" fill="#404040" transform="matrix(1.00, 0.00, -0.00, -1.00, 495.4, 463.5)">t</text><text xml:space="preserve" font-family="RobotoCondensed-Regular,Roboto Condensed" font-size="41.0" fill="#404040" transform="matrix(1.00, 0.00, -0.00, -1.00, 507.9, 463.5)">i</text><text xml:space="preserve" font-family="RobotoCondensed-Regular,Roboto Condensed" font-size="41.0" fill="#404040" transform="matrix(1.00, 0.00, -0.00, -1.00, 517.2, 463.5)">l</text><text xml:space="preserve" font-family="RobotoCondensed-Regular,Roboto Condensed" font-size="41.0" fill="#404040" transform="matrix(1.00, 0.00, -0.00, -1.00, 526.4, 463.5)"> </text><text xml:space="preserve" font-family="RobotoCondensed-Regular,Roboto Condensed" font-size="41.0" fill="#404040" transform="matrix(1.00, 0.00, -0.00, -1.00, 535.3, 463.5)">c</text><text xml:space="preserve" font-family="RobotoCondensed-Regular,Roboto Condensed" font-size="41.0" fill="#404040" transform="matrix(1.00, 0.00, -0.00, -1.00, 553.8, 463.5)">l</text><text xml:space="preserve" font-family="RobotoCondensed-Regular,Roboto Condensed" font-size="41.0" fill="#404040" transform="matrix(1.00, 0.00, -0.00, -1.00, 563.0, 463.5)">o</text><text xml:space="preserve" font-family="RobotoCondensed-Regular,Roboto Condensed" font-size="41.0" fill="#404040" transform="matrix(1.00, 0.00, -0.00, -1.00, 582.9, 463.5)">n</text><text xml:space="preserve" font-family="RobotoCondensed-Regular,Roboto Condensed" font-size="41.0" fill="#404040" transform="matrix(1.00, 0.00, -0.00, -1.00, 602.8, 463.5)">e</text><text xml:space="preserve" font-family="RobotoCondensed-Regular,Roboto Condensed" font-size="41.0" fill="#404040" transform="matrix(1.00, 0.00, -0.00, -1.00, 621.4, 463.5)">d</text><text xml:space="preserve" font-family="RobotoCondensed-Regular,Roboto Condensed" font-size="41.0" fill="#404040" transform="matrix(1.00, 0.00, -0.00, -1.00, 641.4, 463.5)">/</text><text xml:space="preserve" font-family="RobotoCondensed-Regular,Roboto Condensed" font-size="41.0" fill="#404040" transform="matrix(1.00, 0.00, -0.00, -1.00, 655.3, 463.5)">u</text><text xml:space="preserve" font-family="RobotoCondensed-Regular,Roboto Condensed" font-size="41.0" fill="#404040" transform="matrix(1.00, 0.00, -0.00, -1.00, 675.2, 463.5)">s</text><text xml:space="preserve" font-family="RobotoCondensed-Regular,Roboto Condensed" font-size="41.0" fill="#404040" transform="matrix(1.00, 0.00, -0.00, -1.00, 693.0, 463.5)">e</text><text xml:space="preserve" font-family="RobotoCondensed-Regular,Roboto Condensed" font-size="41.0" fill="#404040" transform="matrix(1.00, 0.00, -0.00, -1.00, 711.6, 463.5)">d</text><text xml:space="preserve" font-family="Roboto-Regular,Roboto" font-size="59.0" fill="#404040" transform="matrix(1.00, 0.00, -0.00, -1.00, 160.8, 891.3)">H</text><text xml:space="preserve" font-family="Roboto-Regular,Roboto" font-size="59.0" fill="#404040" transform="matrix(1.00, 0.00, -0.00, -1.00, 202.1, 891.3)">T</text><text xml:space="preserve" font-family="Roboto-Regular,Roboto" font-size="59.0" fill="#404040" transform="matrix(1.00, 0.00, -0.00, -1.00, 236.7, 891.3)">M</text><text xml:space="preserve" font-family="Roboto-Regular,Roboto" font-size="59.0" fill="#404040" transform="matrix(1.00, 0.00, -0.00, -1.00, 288.5, 891.3)">L</text><text xml:space="preserve" font-family="Roboto-Regular,Roboto" font-size="59.0" fill="#404040" transform="matrix(1.00, 0.00, -0.00, -1.00, 320.4, 891.3)"> </text><text xml:space="preserve" font-family="Roboto-Regular,Roboto" font-size="59.0" fill="#404040" transform="matrix(1.00, 0.00, -0.00, -1.00, 335.0, 891.3)">T</text><text xml:space="preserve" font-family="Roboto-Regular,Roboto" font-size="59.0" fill="#404040" transform="matrix(1.00, 0.00, -0.00, -1.00, 367.0, 891.3)">e</text><text xml:space="preserve" font-family="Roboto-Regular,Roboto" font-size="59.0" fill="#404040" transform="matrix(1.00, 0.00, -0.00, -1.00, 398.2, 891.3)">m</text><text xml:space="preserve" font-family="Roboto-Regular,Roboto" font-size="59.0" fill="#404040" transform="matrix(1.00, 0.00, -0.00, -1.00, 449.8, 891.3)">p</text><text xml:space="preserve" font-family="Roboto-Regular,Roboto" font-size="59.0" fill="#404040" transform="matrix(1.00, 0.00, -0.00, -1.00, 483.3, 891.3)">l</text><text xml:space="preserve" font-family="Roboto-Regular,Roboto" font-size="59.0" fill="#404040" transform="matrix(1.00, 0.00, -0.00, -1.00, 498.2, 891.3)">a</text><text xml:space="preserve" font-family="Roboto-Regular,Roboto" font-size="59.0" fill="#404040" transform="matrix(1.00, 0.00, -0.00, -1.00, 530.6, 891.3)">t</text><text xml:space="preserve" font-family="Roboto-Regular,Roboto" font-size="59.0" fill="#404040" transform="matrix(1.00, 0.00, -0.00, -1.00, 551.0, 891.3)">e</text><text xml:space="preserve" font-family="Roboto-Regular,Roboto" font-size="59.0" fill="#404040" transform="matrix(1.00, 0.00, -0.00, -1.00, 582.2, 891.3)">s</text><text xml:space="preserve" font-family="RobotoCondensed-Regular,Roboto Condensed" font-size="40.0" fill="#B2B2B2" transform="matrix(1.00, 0.00, -0.00, -1.00, 160.8, 831.2)">n</text><text xml:space="preserve" font-family="RobotoCondensed-Regular,Roboto Condensed" font-size="40.0" fill="#B2B2B2" transform="matrix(1.00, 0.00, -0.00, -1.00, 180.3, 831.2)">a</text><text xml:space="preserve" font-family="RobotoCondensed-Regular,Roboto Condensed" font-size="40.0" fill="#B2B2B2" transform="matrix(1.00, 0.00, -0.00, -1.00, 198.9, 831.2)">t</text><text xml:space="preserve" font-family="RobotoCondensed-Regular,Roboto Condensed" font-size="40.0" fill="#B2B2B2" transform="matrix(1.00, 0.00, -0.00, -1.00, 211.2, 831.2)">i</text><text xml:space="preserve" font-family="RobotoCondensed-Regular,Roboto Condensed" font-size="40.0" fill="#B2B2B2" transform="matrix(1.00, 0.00, -0.00, -1.00, 220.2, 831.2)">v</text><text xml:space="preserve" font-family="RobotoCondensed-Regular,Roboto Condensed" font-size="40.0" fill="#B2B2B2" transform="matrix(1.00, 0.00, -0.00, -1.00, 237.3, 831.2)">e</text><text xml:space="preserve" font-family="RobotoCondensed-Regular,Roboto Condensed" font-size="40.0" fill="#B2B2B2" transform="matrix(1.00, 0.00, -0.00, -1.00, 255.5, 831.2)"> </text><text xml:space="preserve" font-family="RobotoCondensed-Regular,Roboto Condensed" font-size="40.0" fill="#B2B2B2" transform="matrix(1.00, 0.00, -0.00, -1.00, 264.2, 831.2)">c</text><text xml:space="preserve" font-family="RobotoCondensed-Regular,Roboto Condensed" font-size="40.0" fill="#B2B2B2" transform="matrix(1.00, 0.00, -0.00, -1.00, 282.2, 831.2)">l</text><text xml:space="preserve" font-family="RobotoCondensed-Regular,Roboto Condensed" font-size="40.0" fill="#B2B2B2" transform="matrix(1.00, 0.00, -0.00, -1.00, 291.2, 831.2)">i</text><text xml:space="preserve" font-family="RobotoCondensed-Regular,Roboto Condensed" font-size="40.0" fill="#B2B2B2" transform="matrix(1.00, 0.00, -0.00, -1.00, 300.2, 831.2)">e</text><text xml:space="preserve" font-family="RobotoCondensed-Regular,Roboto Condensed" font-size="40.0" fill="#B2B2B2" transform="matrix(1.00, 0.00, -0.00, -1.00, 318.4, 831.2)">n</text><text xml:space="preserve" font-family="RobotoCondensed-Regular,Roboto Condensed" font-size="40.0" fill="#B2B2B2" transform="matrix(1.00, 0.00, -0.00, -1.00, 337.8, 831.2)">t</text><text xml:space="preserve" font-family="RobotoCondensed-Regular,Roboto Condensed" font-size="40.0" fill="#B2B2B2" transform="matrix(1.00, 0.00, -0.00, -1.00, 350.0, 831.2)">-</text><text xml:space="preserve" font-family="RobotoCondensed-Regular,Roboto Condensed" font-size="40.0" fill="#B2B2B2" transform="matrix(1.00, 0.00, -0.00, -1.00, 361.7, 831.2)">s</text><text xml:space="preserve" font-family="RobotoCondensed-Regular,Roboto Condensed" font-size="40.0" fill="#B2B2B2" transform="matrix(1.00, 0.00, -0.00, -1.00, 379.1, 831.2)">i</text><text xml:space="preserve" font-family="RobotoCondensed-Regular,Roboto Condensed" font-size="40.0" fill="#B2B2B2" transform="matrix(1.00, 0.00, -0.00, -1.00, 388.1, 831.2)">d</text><text xml:space="preserve" font-family="RobotoCondensed-Regular,Roboto Condensed" font-size="40.0" fill="#B2B2B2" transform="matrix(1.00, 0.00, -0.00, -1.00, 407.6, 831.2)">e</text><text xml:space="preserve" font-family="RobotoCondensed-Regular,Roboto Condensed" font-size="40.0" fill="#B2B2B2" transform="matrix(1.00, 0.00, -0.00, -1.00, 425.7, 831.2)"> </text><text xml:space="preserve" font-family="RobotoCondensed-Regular,Roboto Condensed" font-size="40.0" fill="#B2B2B2" transform="matrix(1.00, 0.00, -0.00, -1.00, 434.4, 831.2)">t</text><text xml:space="preserve" font-family="RobotoCondensed-Regular,Roboto Condensed" font-size="40.0" fill="#B2B2B2" transform="matrix(1.00, 0.00, -0.00, -1.00, 446.7, 831.2)">e</text><text xml:space="preserve" font-family="RobotoCondensed-Regular,Roboto Condensed" font-size="40.0" fill="#B2B2B2" transform="matrix(1.00, 0.00, -0.00, -1.00, 464.9, 831.2)">m</text><text xml:space="preserve" font-family="RobotoCondensed-Regular,Roboto Condensed" font-size="40.0" fill="#B2B2B2" transform="matrix(1.00, 0.00, -0.00, -1.00, 494.6, 831.2)">p</text><text xml:space="preserve" font-family="RobotoCondensed-Regular,Roboto Condensed" font-size="40.0" fill="#B2B2B2" transform="matrix(1.00, 0.00, -0.00, -1.00, 514.1, 831.2)">l</text><text xml:space="preserve" font-family="RobotoCondensed-Regular,Roboto Condensed" font-size="40.0" fill="#B2B2B2" transform="matrix(1.00, 0.00, -0.00, -1.00, 523.1, 831.2)">a</text><text xml:space="preserve" font-family="RobotoCondensed-Regular,Roboto Condensed" font-size="40.0" fill="#B2B2B2" transform="matrix(1.00, 0.00, -0.00, -1.00, 541.7, 831.2)">t</text><text xml:space="preserve" font-family="RobotoCondensed-Regular,Roboto Condensed" font-size="40.0" fill="#B2B2B2" transform="matrix(1.00, 0.00, -0.00, -1.00, 554.0, 831.2)">e</text><text xml:space="preserve" font-family="RobotoCondensed-Regular,Roboto Condensed" font-size="40.0" fill="#B2B2B2" transform="matrix(1.00, 0.00, -0.00, -1.00, 572.1, 831.2)">s</text><image xlink:href="../../42108B0D-5631-4EC7-9BA6-BB72AD183C44/assets/4BD94B8597B1338F0A326BABA9C8D028.png" width="98.00" height="97.00" transform="matrix(0.37, 0.00, -0.00, -0.37, 158.7, 602.9)"></image><image xlink:href="../../42108B0D-5631-4EC7-9BA6-BB72AD183C44/assets/4BD94B8597B1338F0A326BABA9C8D028.png" width="98.00" height="97.00" transform="matrix(0.37, 0.00, -0.00, -0.37, 158.7, 490.6)"></image><path d="M 853.4 401.4 L 853.0 745.3 C 853.0 748.6 856.1 751.0 859.4 751.0 L 1754.8 751.0 C 1758.1 751.0 1761.0 748.6 1761.0 745.3 L 1761.0 401.4 C 1761.0 398.1 1758.1 395.0 1754.8 395.0 L 859.4 395.0 C 856.1 395.0 853.4 398.1 853.4 401.4 Z M 853.4 401.4 " fill="#E7E7E7"></path><g><clipPath id="clip0x6000012af420"><path d="M 853.4 395.4 L 1760.8 395.4 L 1760.8 751.3 L 853.4 751.3 Z M 853.4 395.4 "></path></clipPath><g clip-path="url(#clip0x6000012af420)"><text xml:space="preserve" font-family=".LucidaGrandeUI,.Lucida Grande UI" font-size="34.0" fill="#4185F4" transform="matrix(1.00, 0.00, -0.00, -1.00, 873.4, 684.9)">&lt;</text><text xml:space="preserve" font-family=".LucidaGrandeUI,.Lucida Grande UI" font-size="34.0" fill="#4185F4" transform="matrix(1.00, 0.00, -0.00, -1.00, 900.5, 684.9)">t</text><text xml:space="preserve" font-family=".LucidaGrandeUI,.Lucida Grande UI" font-size="34.0" fill="#4185F4" transform="matrix(1.00, 0.00, -0.00, -1.00, 913.2, 684.9)">e</text><text xml:space="preserve" font-family=".LucidaGrandeUI,.Lucida Grande UI" font-size="34.0" fill="#4185F4" transform="matrix(1.00, 0.00, -0.00, -1.00, 932.1, 684.9)">m</text><text xml:space="preserve" font-family=".LucidaGrandeUI,.Lucida Grande UI" font-size="34.0" fill="#4185F4" transform="matrix(1.00, 0.00, -0.00, -1.00, 963.8, 684.9)">p</text><text xml:space="preserve" font-family=".LucidaGrandeUI,.Lucida Grande UI" font-size="34.0" fill="#4185F4" transform="matrix(1.00, 0.00, -0.00, -1.00, 985.3, 684.9)">l</text><text xml:space="preserve" font-family=".LucidaGrandeUI,.Lucida Grande UI" font-size="34.0" fill="#4185F4" transform="matrix(1.00, 0.00, -0.00, -1.00, 995.1, 684.9)">a</text><text xml:space="preserve" font-family=".LucidaGrandeUI,.Lucida Grande UI" font-size="34.0" fill="#4185F4" transform="matrix(1.00, 0.00, -0.00, -1.00, 1013.9, 684.9)">t</text><text xml:space="preserve" font-family=".LucidaGrandeUI,.Lucida Grande UI" font-size="34.0" fill="#4185F4" transform="matrix(1.00, 0.00, -0.00, -1.00, 1026.6, 684.9)">e</text><text xml:space="preserve" font-family=".LucidaGrandeUI,.Lucida Grande UI" font-size="34.0" fill="#4185F4" transform="matrix(1.00, 0.00, -0.00, -1.00, 1045.5, 684.9)">&gt;</text><text xml:space="preserve" font-family=".LucidaGrandeUI,.Lucida Grande UI" font-size="34.0" fill="#4185F4" transform="matrix(1.00, 0.00, -0.00, -1.00, 1072.6, 684.9)"></text><text xml:space="preserve" font-family=".LucidaGrandeUI,.Lucida Grande UI" font-size="34.0" fill="#4185F4" transform="matrix(1.00, 0.00, -0.00, -1.00, 873.4, 636.9)"></text><text xml:space="preserve" font-family=".LucidaGrandeUI,.Lucida Grande UI" font-size="34.0" fill="#4185F4" transform="matrix(1.00, 0.00, -0.00, -1.00, 873.4, 636.9)">&lt;</text><text xml:space="preserve" font-family=".LucidaGrandeUI,.Lucida Grande UI" font-size="34.0" fill="#4185F4" transform="matrix(1.00, 0.00, -0.00, -1.00, 900.4, 636.9)">d</text><text xml:space="preserve" font-family=".LucidaGrandeUI,.Lucida Grande UI" font-size="34.0" fill="#4185F4" transform="matrix(1.00, 0.00, -0.00, -1.00, 921.9, 636.9)">i</text><text xml:space="preserve" font-family=".LucidaGrandeUI,.Lucida Grande UI" font-size="34.0" fill="#4185F4" transform="matrix(1.00, 0.00, -0.00, -1.00, 931.7, 636.9)">v</text><text xml:space="preserve" font-family=".LucidaGrandeUI,.Lucida Grande UI" font-size="34.0" fill="#4185F4" transform="matrix(1.00, 0.00, -0.00, -1.00, 949.2, 636.9)"> </text><text xml:space="preserve" font-family=".LucidaGrandeUI,.Lucida Grande UI" font-size="34.0" fill="#E82663" transform="matrix(1.00, 0.00, -0.00, -1.00, 995.9, 636.9)">c</text><text xml:space="preserve" font-family=".LucidaGrandeUI,.Lucida Grande UI" font-size="34.0" fill="#E82663" transform="matrix(1.00, 0.00, -0.00, -1.00, 1013.4, 636.9)">l</text><text xml:space="preserve" font-family=".LucidaGrandeUI,.Lucida Grande UI" font-size="34.0" fill="#E82663" transform="matrix(1.00, 0.00, -0.00, -1.00, 1023.2, 636.9)">a</text><text xml:space="preserve" font-family=".LucidaGrandeUI,.Lucida Grande UI" font-size="34.0" fill="#E82663" transform="matrix(1.00, 0.00, -0.00, -1.00, 1042.0, 636.9)">s</text><text xml:space="preserve" font-family=".LucidaGrandeUI,.Lucida Grande UI" font-size="34.0" fill="#E82663" transform="matrix(1.00, 0.00, -0.00, -1.00, 1057.7, 636.9)">s</text><text xml:space="preserve" font-family=".LucidaGrandeUI,.Lucida Grande UI" font-size="34.0" fill="#7E7E7E" transform="matrix(1.00, 0.00, -0.00, -1.00, 1073.4, 636.9)">=</text><text xml:space="preserve" font-family=".LucidaGrandeUI,.Lucida Grande UI" font-size="34.0" fill="#00A96B" transform="matrix(1.00, 0.00, -0.00, -1.00, 1100.4, 636.9)">“</text><text xml:space="preserve" font-family=".LucidaGrandeUI,.Lucida Grande UI" font-size="34.0" fill="#00A96B" transform="matrix(1.00, 0.00, -0.00, -1.00, 1115.0, 636.9)">c</text><text xml:space="preserve" font-family=".LucidaGrandeUI,.Lucida Grande UI" font-size="34.0" fill="#00A96B" transform="matrix(1.00, 0.00, -0.00, -1.00, 1132.4, 636.9)">o</text><text xml:space="preserve" font-family=".LucidaGrandeUI,.Lucida Grande UI" font-size="34.0" fill="#00A96B" transform="matrix(1.00, 0.00, -0.00, -1.00, 1153.3, 636.9)">m</text><text xml:space="preserve" font-family=".LucidaGrandeUI,.Lucida Grande UI" font-size="34.0" fill="#00A96B" transform="matrix(1.00, 0.00, -0.00, -1.00, 1185.1, 636.9)">m</text><text xml:space="preserve" font-family=".LucidaGrandeUI,.Lucida Grande UI" font-size="34.0" fill="#00A96B" transform="matrix(1.00, 0.00, -0.00, -1.00, 1216.8, 636.9)">e</text><text xml:space="preserve" font-family=".LucidaGrandeUI,.Lucida Grande UI" font-size="34.0" fill="#00A96B" transform="matrix(1.00, 0.00, -0.00, -1.00, 1235.7, 636.9)">n</text><text xml:space="preserve" font-family=".LucidaGrandeUI,.Lucida Grande UI" font-size="34.0" fill="#00A96B" transform="matrix(1.00, 0.00, -0.00, -1.00, 1256.8, 636.9)">t</text><text xml:space="preserve" font-family=".LucidaGrandeUI,.Lucida Grande UI" font-size="34.0" fill="#00A96B" transform="matrix(1.00, 0.00, -0.00, -1.00, 1269.6, 636.9)">”</text><text xml:space="preserve" font-family=".LucidaGrandeUI,.Lucida Grande UI" font-size="34.0" fill="#4185F4" transform="matrix(1.00, 0.00, -0.00, -1.00, 1284.2, 636.9)">&gt;</text><text xml:space="preserve" font-family=".LucidaGrandeUI,.Lucida Grande UI" font-size="34.0" fill="#4185F4" transform="matrix(1.00, 0.00, -0.00, -1.00, 1311.2, 636.9)"></text><text xml:space="preserve" font-family=".LucidaGrandeUI,.Lucida Grande UI" font-size="34.0" fill="#4185F4" transform="matrix(1.00, 0.00, -0.00, -1.00, 873.4, 588.9)"></text><text xml:space="preserve" font-family=".LucidaGrandeUI,.Lucida Grande UI" font-size="34.0" fill="#4185F4" transform="matrix(1.00, 0.00, -0.00, -1.00, 873.4, 588.9)"></text><text xml:space="preserve" font-family=".LucidaGrandeUI,.Lucida Grande UI" font-size="34.0" fill="#4185F4" transform="matrix(1.00, 0.00, -0.00, -1.00, 873.4, 588.9)">&lt;</text><text xml:space="preserve" font-family=".LucidaGrandeUI,.Lucida Grande UI" font-size="34.0" fill="#4185F4" transform="matrix(1.00, 0.00, -0.00, -1.00, 900.4, 588.9)">i</text><text xml:space="preserve" font-family=".LucidaGrandeUI,.Lucida Grande UI" font-size="34.0" fill="#4185F4" transform="matrix(1.00, 0.00, -0.00, -1.00, 910.3, 588.9)">m</text><text xml:space="preserve" font-family=".LucidaGrandeUI,.Lucida Grande UI" font-size="34.0" fill="#4185F4" transform="matrix(1.00, 0.00, -0.00, -1.00, 942.0, 588.9)">g</text><text xml:space="preserve" font-family=".LucidaGrandeUI,.Lucida Grande UI" font-size="34.0" fill="#4185F4" transform="matrix(1.00, 0.00, -0.00, -1.00, 963.2, 588.9)"> </text><text xml:space="preserve" font-family=".LucidaGrandeUI,.Lucida Grande UI" font-size="34.0" fill="#E82663" transform="matrix(1.00, 0.00, -0.00, -1.00, 1046.0, 588.9)">s</text><text xml:space="preserve" font-family=".LucidaGrandeUI,.Lucida Grande UI" font-size="34.0" fill="#E82663" transform="matrix(1.00, 0.00, -0.00, -1.00, 1061.7, 588.9)">r</text><text xml:space="preserve" font-family=".LucidaGrandeUI,.Lucida Grande UI" font-size="34.0" fill="#E82663" transform="matrix(1.00, 0.00, -0.00, -1.00, 1075.6, 588.9)">c</text><text xml:space="preserve" font-family=".LucidaGrandeUI,.Lucida Grande UI" font-size="34.0" fill="#7E7E7E" transform="matrix(1.00, 0.00, -0.00, -1.00, 1093.0, 588.9)">=</text><text xml:space="preserve" font-family=".LucidaGrandeUI,.Lucida Grande UI" font-size="34.0" fill="#00A96B" transform="matrix(1.00, 0.00, -0.00, -1.00, 1120.1, 588.9)">“</text><text xml:space="preserve" font-family=".LucidaGrandeUI,.Lucida Grande UI" font-size="34.0" fill="#00A96B" transform="matrix(1.00, 0.00, -0.00, -1.00, 1134.7, 588.9)">i</text><text xml:space="preserve" font-family=".LucidaGrandeUI,.Lucida Grande UI" font-size="34.0" fill="#00A96B" transform="matrix(1.00, 0.00, -0.00, -1.00, 1144.5, 588.9)">m</text><text xml:space="preserve" font-family=".LucidaGrandeUI,.Lucida Grande UI" font-size="34.0" fill="#00A96B" transform="matrix(1.00, 0.00, -0.00, -1.00, 1176.2, 588.9)">a</text><text xml:space="preserve" font-family=".LucidaGrandeUI,.Lucida Grande UI" font-size="34.0" fill="#00A96B" transform="matrix(1.00, 0.00, -0.00, -1.00, 1195.0, 588.9)">g</text><text xml:space="preserve" font-family=".LucidaGrandeUI,.Lucida Grande UI" font-size="34.0" fill="#00A96B" transform="matrix(1.00, 0.00, -0.00, -1.00, 1216.2, 588.9)">e</text><text xml:space="preserve" font-family=".LucidaGrandeUI,.Lucida Grande UI" font-size="34.0" fill="#00A96B" transform="matrix(1.00, 0.00, -0.00, -1.00, 1235.1, 588.9)">.</text><text xml:space="preserve" font-family=".LucidaGrandeUI,.Lucida Grande UI" font-size="34.0" fill="#00A96B" transform="matrix(1.00, 0.00, -0.00, -1.00, 1245.9, 588.9)">p</text><text xml:space="preserve" font-family=".LucidaGrandeUI,.Lucida Grande UI" font-size="34.0" fill="#00A96B" transform="matrix(1.00, 0.00, -0.00, -1.00, 1267.3, 588.9)">n</text><text xml:space="preserve" font-family=".LucidaGrandeUI,.Lucida Grande UI" font-size="34.0" fill="#00A96B" transform="matrix(1.00, 0.00, -0.00, -1.00, 1288.4, 588.9)">g</text><text xml:space="preserve" font-family=".LucidaGrandeUI,.Lucida Grande UI" font-size="34.0" fill="#00A96B" transform="matrix(1.00, 0.00, -0.00, -1.00, 1309.6, 588.9)">”</text><text xml:space="preserve" font-family=".LucidaGrandeUI,.Lucida Grande UI" font-size="34.0" fill="#4185F4" transform="matrix(1.00, 0.00, -0.00, -1.00, 1324.2, 588.9)">&gt;</text><text xml:space="preserve" font-family=".LucidaGrandeUI,.Lucida Grande UI" font-size="34.0" fill="#4185F4" transform="matrix(1.00, 0.00, -0.00, -1.00, 1351.2, 588.9)"></text><text xml:space="preserve" font-family=".LucidaGrandeUI,.Lucida Grande UI" font-size="34.0" fill="#4185F4" transform="matrix(1.00, 0.00, -0.00, -1.00, 873.4, 540.9)"></text><text xml:space="preserve" font-family=".LucidaGrandeUI,.Lucida Grande UI" font-size="34.0" fill="#4185F4" transform="matrix(1.00, 0.00, -0.00, -1.00, 873.4, 540.9)">&lt;</text><text xml:space="preserve" font-family=".LucidaGrandeUI,.Lucida Grande UI" font-size="34.0" fill="#4185F4" transform="matrix(1.00, 0.00, -0.00, -1.00, 900.4, 540.9)">/</text><text xml:space="preserve" font-family=".LucidaGrandeUI,.Lucida Grande UI" font-size="34.0" fill="#4185F4" transform="matrix(1.00, 0.00, -0.00, -1.00, 918.3, 540.9)">d</text><text xml:space="preserve" font-family=".LucidaGrandeUI,.Lucida Grande UI" font-size="34.0" fill="#4185F4" transform="matrix(1.00, 0.00, -0.00, -1.00, 939.7, 540.9)">i</text><text xml:space="preserve" font-family=".LucidaGrandeUI,.Lucida Grande UI" font-size="34.0" fill="#4185F4" transform="matrix(1.00, 0.00, -0.00, -1.00, 949.6, 540.9)">v</text><text xml:space="preserve" font-family=".LucidaGrandeUI,.Lucida Grande UI" font-size="34.0" fill="#4185F4" transform="matrix(1.00, 0.00, -0.00, -1.00, 967.0, 540.9)">&gt;</text><text xml:space="preserve" font-family=".LucidaGrandeUI,.Lucida Grande UI" font-size="34.0" fill="#4185F4" transform="matrix(1.00, 0.00, -0.00, -1.00, 994.1, 540.9)"></text><text xml:space="preserve" font-family=".LucidaGrandeUI,.Lucida Grande UI" font-size="34.0" fill="#4185F4" transform="matrix(1.00, 0.00, -0.00, -1.00, 873.4, 492.9)"></text><text xml:space="preserve" font-family=".LucidaGrandeUI,.Lucida Grande UI" font-size="34.0" fill="#4185F4" transform="matrix(1.00, 0.00, -0.00, -1.00, 898.7, 492.9)">&lt;</text><text xml:space="preserve" font-family=".LucidaGrandeUI,.Lucida Grande UI" font-size="34.0" fill="#4185F4" transform="matrix(1.00, 0.00, -0.00, -1.00, 925.7, 492.9)">s</text><text xml:space="preserve" font-family=".LucidaGrandeUI,.Lucida Grande UI" font-size="34.0" fill="#4185F4" transform="matrix(1.00, 0.00, -0.00, -1.00, 941.4, 492.9)">c</text><text xml:space="preserve" font-family=".LucidaGrandeUI,.Lucida Grande UI" font-size="34.0" fill="#4185F4" transform="matrix(1.00, 0.00, -0.00, -1.00, 958.9, 492.9)">r</text><text xml:space="preserve" font-family=".LucidaGrandeUI,.Lucida Grande UI" font-size="34.0" fill="#4185F4" transform="matrix(1.00, 0.00, -0.00, -1.00, 972.8, 492.9)">i</text><text xml:space="preserve" font-family=".LucidaGrandeUI,.Lucida Grande UI" font-size="34.0" fill="#4185F4" transform="matrix(1.00, 0.00, -0.00, -1.00, 982.6, 492.9)">p</text><text xml:space="preserve" font-family=".LucidaGrandeUI,.Lucida Grande UI" font-size="34.0" fill="#4185F4" transform="matrix(1.00, 0.00, -0.00, -1.00, 1004.0, 492.9)">t</text><text xml:space="preserve" font-family=".LucidaGrandeUI,.Lucida Grande UI" font-size="34.0" fill="#4185F4" transform="matrix(1.00, 0.00, -0.00, -1.00, 1016.7, 492.9)">&gt;</text><text xml:space="preserve" font-family=".LucidaGrandeUI,.Lucida Grande UI" font-size="34.0" fill="#7E7E7E" transform="matrix(1.00, 0.00, -0.00, -1.00, 1054.5, 492.9)">…</text><text xml:space="preserve" font-family=".LucidaGrandeUI,.Lucida Grande UI" font-size="34.0" fill="#4185F4" transform="matrix(1.00, 0.00, -0.00, -1.00, 1088.5, 492.9)">&lt;</text><text xml:space="preserve" font-family=".LucidaGrandeUI,.Lucida Grande UI" font-size="34.0" fill="#4185F4" transform="matrix(1.00, 0.00, -0.00, -1.00, 1115.5, 492.9)">/</text><text xml:space="preserve" font-family=".LucidaGrandeUI,.Lucida Grande UI" font-size="34.0" fill="#4185F4" transform="matrix(1.00, 0.00, -0.00, -1.00, 1133.3, 492.9)">s</text><text xml:space="preserve" font-family=".LucidaGrandeUI,.Lucida Grande UI" font-size="34.0" fill="#4185F4" transform="matrix(1.00, 0.00, -0.00, -1.00, 1149.1, 492.9)">c</text><text xml:space="preserve" font-family=".LucidaGrandeUI,.Lucida Grande UI" font-size="34.0" fill="#4185F4" transform="matrix(1.00, 0.00, -0.00, -1.00, 1166.5, 492.9)">r</text><text xml:space="preserve" font-family=".LucidaGrandeUI,.Lucida Grande UI" font-size="34.0" fill="#4185F4" transform="matrix(1.00, 0.00, -0.00, -1.00, 1180.4, 492.9)">i</text><text xml:space="preserve" font-family=".LucidaGrandeUI,.Lucida Grande UI" font-size="34.0" fill="#4185F4" transform="matrix(1.00, 0.00, -0.00, -1.00, 1190.2, 492.9)">p</text><text xml:space="preserve" font-family=".LucidaGrandeUI,.Lucida Grande UI" font-size="34.0" fill="#4185F4" transform="matrix(1.00, 0.00, -0.00, -1.00, 1211.7, 492.9)">t</text><text xml:space="preserve" font-family=".LucidaGrandeUI,.Lucida Grande UI" font-size="34.0" fill="#4185F4" transform="matrix(1.00, 0.00, -0.00, -1.00, 1224.4, 492.9)">&gt;</text><text xml:space="preserve" font-family=".LucidaGrandeUI,.Lucida Grande UI" font-size="34.0" fill="#4185F4" transform="matrix(1.00, 0.00, -0.00, -1.00, 1251.4, 492.9)"></text><text xml:space="preserve" font-family=".LucidaGrandeUI,.Lucida Grande UI" font-size="34.0" fill="#4185F4" transform="matrix(1.00, 0.00, -0.00, -1.00, 873.4, 444.9)">&lt;</text><text xml:space="preserve" font-family=".LucidaGrandeUI,.Lucida Grande UI" font-size="34.0" fill="#4185F4" transform="matrix(1.00, 0.00, -0.00, -1.00, 900.5, 444.9)">/</text><text xml:space="preserve" font-family=".LucidaGrandeUI,.Lucida Grande UI" font-size="34.0" fill="#4185F4" transform="matrix(1.00, 0.00, -0.00, -1.00, 918.3, 444.9)">t</text><text xml:space="preserve" font-family=".LucidaGrandeUI,.Lucida Grande UI" font-size="34.0" fill="#4185F4" transform="matrix(1.00, 0.00, -0.00, -1.00, 931.0, 444.9)">e</text><text xml:space="preserve" font-family=".LucidaGrandeUI,.Lucida Grande UI" font-size="34.0" fill="#4185F4" transform="matrix(1.00, 0.00, -0.00, -1.00, 950.0, 444.9)">m</text><text xml:space="preserve" font-family=".LucidaGrandeUI,.Lucida Grande UI" font-size="34.0" fill="#4185F4" transform="matrix(1.00, 0.00, -0.00, -1.00, 981.7, 444.9)">p</text><text xml:space="preserve" font-family=".LucidaGrandeUI,.Lucida Grande UI" font-size="34.0" fill="#4185F4" transform="matrix(1.00, 0.00, -0.00, -1.00, 1003.1, 444.9)">l</text><text xml:space="preserve" font-family=".LucidaGrandeUI,.Lucida Grande UI" font-size="34.0" fill="#4185F4" transform="matrix(1.00, 0.00, -0.00, -1.00, 1012.9, 444.9)">a</text><text xml:space="preserve" font-family=".LucidaGrandeUI,.Lucida Grande UI" font-size="34.0" fill="#4185F4" transform="matrix(1.00, 0.00, -0.00, -1.00, 1031.7, 444.9)">t</text><text xml:space="preserve" font-family=".LucidaGrandeUI,.Lucida Grande UI" font-size="34.0" fill="#4185F4" transform="matrix(1.00, 0.00, -0.00, -1.00, 1044.4, 444.9)">e</text><text xml:space="preserve" font-family=".LucidaGrandeUI,.Lucida Grande UI" font-size="34.0" fill="#4185F4" transform="matrix(1.00, 0.00, -0.00, -1.00, 1063.4, 444.9)">&gt;</text></g></g><text xml:space="preserve" font-family="RobotoCondensed-Bold,Roboto Condensed" font-weight="bold" font-size="41.0" fill="#404040" transform="matrix(1.00, 0.00, -0.00, -1.00, 201.9, 361.0)">d</text><text xml:space="preserve" font-family="RobotoCondensed-Bold,Roboto Condensed" font-weight="bold" font-size="41.0" fill="#404040" transform="matrix(1.00, 0.00, -0.00, -1.00, 221.8, 361.0)">o</text><text xml:space="preserve" font-family="RobotoCondensed-Bold,Roboto Condensed" font-weight="bold" font-size="41.0" fill="#404040" transform="matrix(1.00, 0.00, -0.00, -1.00, 241.7, 361.0)">c</text><text xml:space="preserve" font-family="RobotoCondensed-Bold,Roboto Condensed" font-weight="bold" font-size="41.0" fill="#404040" transform="matrix(1.00, 0.00, -0.00, -1.00, 260.0, 361.0)"> </text><text xml:space="preserve" font-family="RobotoCondensed-Bold,Roboto Condensed" font-weight="bold" font-size="41.0" fill="#404040" transform="matrix(1.00, 0.00, -0.00, -1.00, 269.0, 361.0)">f</text><text xml:space="preserve" font-family="RobotoCondensed-Bold,Roboto Condensed" font-weight="bold" font-size="41.0" fill="#404040" transform="matrix(1.00, 0.00, -0.00, -1.00, 281.9, 361.0)">r</text><text xml:space="preserve" font-family="RobotoCondensed-Bold,Roboto Condensed" font-weight="bold" font-size="41.0" fill="#404040" transform="matrix(1.00, 0.00, -0.00, -1.00, 295.0, 361.0)">a</text><text xml:space="preserve" font-family="RobotoCondensed-Bold,Roboto Condensed" font-weight="bold" font-size="41.0" fill="#404040" transform="matrix(1.00, 0.00, -0.00, -1.00, 313.9, 361.0)">g</text><text xml:space="preserve" font-family="RobotoCondensed-Bold,Roboto Condensed" font-weight="bold" font-size="41.0" fill="#404040" transform="matrix(1.00, 0.00, -0.00, -1.00, 333.8, 361.0)">m</text><text xml:space="preserve" font-family="RobotoCondensed-Bold,Roboto Condensed" font-weight="bold" font-size="41.0" fill="#404040" transform="matrix(1.00, 0.00, -0.00, -1.00, 364.0, 361.0)">e</text><text xml:space="preserve" font-family="RobotoCondensed-Bold,Roboto Condensed" font-weight="bold" font-size="41.0" fill="#404040" transform="matrix(1.00, 0.00, -0.00, -1.00, 382.8, 361.0)">n</text><text xml:space="preserve" font-family="RobotoCondensed-Bold,Roboto Condensed" font-weight="bold" font-size="41.0" fill="#404040" transform="matrix(1.00, 0.00, -0.00, -1.00, 402.7, 361.0)">t</text><text xml:space="preserve" font-family="RobotoCondensed-Regular,Roboto Condensed" font-size="41.0" fill="#404040" transform="matrix(1.00, 0.00, -0.00, -1.00, 415.7, 361.0)"> </text><text xml:space="preserve" font-family="RobotoCondensed-Regular,Roboto Condensed" font-size="41.0" fill="#404040" transform="matrix(1.00, 0.00, -0.00, -1.00, 424.6, 361.0)">-</text><text xml:space="preserve" font-family="RobotoCondensed-Regular,Roboto Condensed" font-size="41.0" fill="#404040" transform="matrix(1.00, 0.00, -0.00, -1.00, 436.6, 361.0)"> </text><text xml:space="preserve" font-family="RobotoCondensed-Regular,Roboto Condensed" font-size="41.0" fill="#404040" transform="matrix(1.00, 0.00, -0.00, -1.00, 445.5, 361.0)">n</text><text xml:space="preserve" font-family="RobotoCondensed-Regular,Roboto Condensed" font-size="41.0" fill="#404040" transform="matrix(1.00, 0.00, -0.00, -1.00, 465.4, 361.0)">o</text><text xml:space="preserve" font-family="RobotoCondensed-Regular,Roboto Condensed" font-size="41.0" fill="#404040" transform="matrix(1.00, 0.00, -0.00, -1.00, 485.3, 361.0)">t</text><text xml:space="preserve" font-family="RobotoCondensed-Regular,Roboto Condensed" font-size="41.0" fill="#404040" transform="matrix(1.00, 0.00, -0.00, -1.00, 497.9, 361.0)"> </text><text xml:space="preserve" font-family="RobotoCondensed-Regular,Roboto Condensed" font-size="41.0" fill="#404040" transform="matrix(1.00, 0.00, -0.00, -1.00, 506.8, 361.0)">p</text><text xml:space="preserve" font-family="RobotoCondensed-Regular,Roboto Condensed" font-size="41.0" fill="#404040" transform="matrix(1.00, 0.00, -0.00, -1.00, 526.7, 361.0)">a</text><text xml:space="preserve" font-family="RobotoCondensed-Regular,Roboto Condensed" font-size="41.0" fill="#404040" transform="matrix(1.00, 0.00, -0.00, -1.00, 545.8, 361.0)">r</text><text xml:space="preserve" font-family="RobotoCondensed-Regular,Roboto Condensed" font-size="41.0" fill="#404040" transform="matrix(1.00, 0.00, -0.00, -1.00, 559.1, 361.0)">t</text><text xml:space="preserve" font-family="RobotoCondensed-Regular,Roboto Condensed" font-size="41.0" fill="#404040" transform="matrix(1.00, 0.00, -0.00, -1.00, 571.7, 361.0)"> </text><text xml:space="preserve" font-family="RobotoCondensed-Regular,Roboto Condensed" font-size="41.0" fill="#404040" transform="matrix(1.00, 0.00, -0.00, -1.00, 580.6, 361.0)">o</text><text xml:space="preserve" font-family="RobotoCondensed-Regular,Roboto Condensed" font-size="41.0" fill="#404040" transform="matrix(1.00, 0.00, -0.00, -1.00, 600.5, 361.0)">f</text><text xml:space="preserve" font-family="RobotoCondensed-Regular,Roboto Condensed" font-size="41.0" fill="#404040" transform="matrix(1.00, 0.00, -0.00, -1.00, 613.0, 361.0)"> </text><text xml:space="preserve" font-family="RobotoCondensed-Regular,Roboto Condensed" font-size="41.0" fill="#404040" transform="matrix(1.00, 0.00, -0.00, -1.00, 621.9, 361.0)">t</text><text xml:space="preserve" font-family="RobotoCondensed-Regular,Roboto Condensed" font-size="41.0" fill="#404040" transform="matrix(1.00, 0.00, -0.00, -1.00, 634.5, 361.0)">h</text><text xml:space="preserve" font-family="RobotoCondensed-Regular,Roboto Condensed" font-size="41.0" fill="#404040" transform="matrix(1.00, 0.00, -0.00, -1.00, 654.4, 361.0)">e</text><text xml:space="preserve" font-family="RobotoCondensed-Regular,Roboto Condensed" font-size="41.0" fill="#404040" transform="matrix(1.00, 0.00, -0.00, -1.00, 673.0, 361.0)"> </text><text xml:space="preserve" font-family="RobotoCondensed-Regular,Roboto Condensed" font-size="41.0" fill="#404040" transform="matrix(1.00, 0.00, -0.00, -1.00, 681.9, 361.0)">p</text><text xml:space="preserve" font-family="RobotoCondensed-Regular,Roboto Condensed" font-size="41.0" fill="#404040" transform="matrix(1.00, 0.00, -0.00, -1.00, 701.8, 361.0)">a</text><text xml:space="preserve" font-family="RobotoCondensed-Regular,Roboto Condensed" font-size="41.0" fill="#404040" transform="matrix(1.00, 0.00, -0.00, -1.00, 721.0, 361.0)">g</text><text xml:space="preserve" font-family="RobotoCondensed-Regular,Roboto Condensed" font-size="41.0" fill="#404040" transform="matrix(1.00, 0.00, -0.00, -1.00, 740.9, 361.0)">e</text><image xlink:href="../../42108B0D-5631-4EC7-9BA6-BB72AD183C44/assets/4BD94B8597B1338F0A326BABA9C8D028.png" width="98.00" height="97.00" transform="matrix(0.37, 0.00, -0.00, -0.37, 157.7, 388.2)"></image></g></svg>