<?xml version="1.0" encoding="UTF-8" standalone="no"?><svg xmlns="http://www.w3.org/2000/svg" xmlns:xlink="http://www.w3.org/1999/xlink" clip-rule="evenodd" stroke-miterlimit="10" viewBox="0 0 1920 1080"><desc>SVG generated by Keynote</desc><defs></defs><g transform="matrix(1.00, 0.00, -0.00, -1.00, 0.0, 1080.0)"><path d="M 0.0 1080.0 L 1920.0 1080.0 L 1920.0 0.0 L 0.0 0.0 Z M 0.0 1080.0 " fill="#FFFFFF"></path><text xml:space="preserve" font-family=".LucidaGrandeUI,.Lucida Grande UI" font-size="53.0" fill="#4185F4" transform="matrix(1.00, 0.00, -0.00, -1.00, 396.0, 250.4)">&lt;</text><text xml:space="preserve" font-family=".LucidaGrandeUI,.Lucida Grande UI" font-size="53.0" fill="#4185F4" transform="matrix(1.00, 0.00, -0.00, -1.00, 438.1, 250.4)">v</text><text xml:space="preserve" font-family=".LucidaGrandeUI,.Lucida Grande UI" font-size="53.0" fill="#4185F4" transform="matrix(1.00, 0.00, -0.00, -1.00, 465.4, 250.4)">i</text><text xml:space="preserve" font-family=".LucidaGrandeUI,.Lucida Grande UI" font-size="53.0" fill="#4185F4" transform="matrix(1.00, 0.00, -0.00, -1.00, 480.7, 250.4)">d</text><text xml:space="preserve" font-family=".LucidaGrandeUI,.Lucida Grande UI" font-size="53.0" fill="#4185F4" transform="matrix(1.00, 0.00, -0.00, -1.00, 514.1, 250.4)">e</text><text xml:space="preserve" font-family=".LucidaGrandeUI,.Lucida Grande UI" font-size="53.0" fill="#4185F4" transform="matrix(1.00, 0.00, -0.00, -1.00, 543.6, 250.4)">o</text><text xml:space="preserve" font-family=".LucidaGrandeUI,.Lucida Grande UI" font-size="53.0" fill="#4185F4" transform="matrix(1.00, 0.00, -0.00, -1.00, 576.2, 250.4)"> </text><text xml:space="preserve" font-family=".LucidaGrandeUI,.Lucida Grande UI" font-size="53.0" fill="#E82663" transform="matrix(1.00, 0.00, -0.00, -1.00, 592.9, 250.4)">s</text><text xml:space="preserve" font-family=".LucidaGrandeUI,.Lucida Grande UI" font-size="53.0" fill="#E82663" transform="matrix(1.00, 0.00, -0.00, -1.00, 617.5, 250.4)">r</text><text xml:space="preserve" font-family=".LucidaGrandeUI,.Lucida Grande UI" font-size="53.0" fill="#E82663" transform="matrix(1.00, 0.00, -0.00, -1.00, 639.2, 250.4)">c</text><text xml:space="preserve" font-family=".LucidaGrandeUI,.Lucida Grande UI" font-size="53.0" fill="#A3A3A3" transform="matrix(1.00, 0.00, -0.00, -1.00, 666.3, 250.4)">=</text><text xml:space="preserve" font-family=".LucidaGrandeUI,.Lucida Grande UI" font-size="53.0" fill="#0D9D57" transform="matrix(1.00, 0.00, -0.00, -1.00, 708.4, 250.4)">“</text><text xml:space="preserve" font-family=".LucidaGrandeUI,.Lucida Grande UI" font-size="53.0" fill="#0D9D57" transform="matrix(1.00, 0.00, -0.00, -1.00, 731.2, 250.4)">f</text><text xml:space="preserve" font-family=".LucidaGrandeUI,.Lucida Grande UI" font-size="53.0" fill="#0D9D57" transform="matrix(1.00, 0.00, -0.00, -1.00, 750.6, 250.4)">o</text><text xml:space="preserve" font-family=".LucidaGrandeUI,.Lucida Grande UI" font-size="53.0" fill="#0D9D57" transform="matrix(1.00, 0.00, -0.00, -1.00, 783.2, 250.4)">o</text><text xml:space="preserve" font-family=".LucidaGrandeUI,.Lucida Grande UI" font-size="53.0" fill="#0D9D57" transform="matrix(1.00, 0.00, -0.00, -1.00, 815.8, 250.4)">.</text><text xml:space="preserve" font-family=".LucidaGrandeUI,.Lucida Grande UI" font-size="53.0" fill="#0D9D57" transform="matrix(1.00, 0.00, -0.00, -1.00, 832.6, 250.4)">w</text><text xml:space="preserve" font-family=".LucidaGrandeUI,.Lucida Grande UI" font-size="53.0" fill="#0D9D57" transform="matrix(1.00, 0.00, -0.00, -1.00, 873.4, 250.4)">e</text><text xml:space="preserve" font-family=".LucidaGrandeUI,.Lucida Grande UI" font-size="53.0" fill="#0D9D57" transform="matrix(1.00, 0.00, -0.00, -1.00, 902.9, 250.4)">b</text><text xml:space="preserve" font-family=".LucidaGrandeUI,.Lucida Grande UI" font-size="53.0" fill="#0D9D57" transform="matrix(1.00, 0.00, -0.00, -1.00, 936.3, 250.4)">m</text><text xml:space="preserve" font-family=".LucidaGrandeUI,.Lucida Grande UI" font-size="53.0" fill="#0D9D57" transform="matrix(1.00, 0.00, -0.00, -1.00, 985.8, 250.4)">”</text><text xml:space="preserve" font-family=".LucidaGrandeUI,.Lucida Grande UI" font-size="53.0" fill="#0D9D57" transform="matrix(1.00, 0.00, -0.00, -1.00, 1008.5, 250.4)"> </text><text xml:space="preserve" font-family=".LucidaGrandeUI,.Lucida Grande UI" font-size="53.0" fill="#E82663" transform="matrix(1.00, 0.00, -0.00, -1.00, 1025.3, 250.4)">c</text><text xml:space="preserve" font-family=".LucidaGrandeUI,.Lucida Grande UI" font-size="53.0" fill="#E82663" transform="matrix(1.00, 0.00, -0.00, -1.00, 1052.4, 250.4)">o</text><text xml:space="preserve" font-family=".LucidaGrandeUI,.Lucida Grande UI" font-size="53.0" fill="#E82663" transform="matrix(1.00, 0.00, -0.00, -1.00, 1085.0, 250.4)">n</text><text xml:space="preserve" font-family=".LucidaGrandeUI,.Lucida Grande UI" font-size="53.0" fill="#E82663" transform="matrix(1.00, 0.00, -0.00, -1.00, 1117.9, 250.4)">t</text><text xml:space="preserve" font-family=".LucidaGrandeUI,.Lucida Grande UI" font-size="53.0" fill="#E82663" transform="matrix(1.00, 0.00, -0.00, -1.00, 1137.7, 250.4)">r</text><text xml:space="preserve" font-family=".LucidaGrandeUI,.Lucida Grande UI" font-size="53.0" fill="#E82663" transform="matrix(1.00, 0.00, -0.00, -1.00, 1159.4, 250.4)">o</text><text xml:space="preserve" font-family=".LucidaGrandeUI,.Lucida Grande UI" font-size="53.0" fill="#E82663" transform="matrix(1.00, 0.00, -0.00, -1.00, 1192.0, 250.4)">l</text><text xml:space="preserve" font-family=".LucidaGrandeUI,.Lucida Grande UI" font-size="53.0" fill="#E82663" transform="matrix(1.00, 0.00, -0.00, -1.00, 1207.3, 250.4)">s</text><text xml:space="preserve" font-family=".LucidaGrandeUI,.Lucida Grande UI" font-size="53.0" fill="#4185F4" transform="matrix(1.00, 0.00, -0.00, -1.00, 1231.8, 250.4)">&gt;</text><text xml:space="preserve" font-family=".LucidaGrandeUI,.Lucida Grande UI" font-size="53.0" fill="#4185F4" transform="matrix(1.00, 0.00, -0.00, -1.00, 1273.9, 250.4)">&lt;</text><text xml:space="preserve" font-family=".LucidaGrandeUI,.Lucida Grande UI" font-size="53.0" fill="#4185F4" transform="matrix(1.00, 0.00, -0.00, -1.00, 1316.0, 250.4)">/</text><text xml:space="preserve" font-family=".LucidaGrandeUI,.Lucida Grande UI" font-size="53.0" fill="#4185F4" transform="matrix(1.00, 0.00, -0.00, -1.00, 1343.9, 250.4)">v</text><text xml:space="preserve" font-family=".LucidaGrandeUI,.Lucida Grande UI" font-size="53.0" fill="#4185F4" transform="matrix(1.00, 0.00, -0.00, -1.00, 1371.1, 250.4)">i</text><text xml:space="preserve" font-family=".LucidaGrandeUI,.Lucida Grande UI" font-size="53.0" fill="#4185F4" transform="matrix(1.00, 0.00, -0.00, -1.00, 1386.4, 250.4)">d</text><text xml:space="preserve" font-family=".LucidaGrandeUI,.Lucida Grande UI" font-size="53.0" fill="#4185F4" transform="matrix(1.00, 0.00, -0.00, -1.00, 1419.9, 250.4)">e</text><text xml:space="preserve" font-family=".LucidaGrandeUI,.Lucida Grande UI" font-size="53.0" fill="#4185F4" transform="matrix(1.00, 0.00, -0.00, -1.00, 1449.4, 250.4)">o</text><text xml:space="preserve" font-family=".LucidaGrandeUI,.Lucida Grande UI" font-size="53.0" fill="#4185F4" transform="matrix(1.00, 0.00, -0.00, -1.00, 1481.9, 250.4)">&gt;</text><image xlink:href="../../3E09F1B9-4789-43DC-964E-0D821FA1F33D/assets/601196E09366A46CCF893D4720180FA9.png" width="600.00" height="300.00" transform="matrix(1.74, 0.00, -0.00, -1.74, 402.0, 850.5)"></image><g><clipPath id="clip0x6080012b90e0"><path d="M 546.2 339.7 L 452.8 433.1 L 472.6 452.9 L 566.0 359.5 Z M 546.2 339.7 "></path></clipPath><g clip-path="url(#clip0x6080012b90e0)"><path d="M 22.0 0.0 L 26.0 0.0 L 130.1 0.0 " fill="none" stroke="#F06191" stroke-width="8.00" stroke-linejoin="round" transform="matrix(-0.71, 0.71, 0.71, 0.71, 555.4, 350.3)"></path><path d="M 555.4 368.7 C 560.5 363.6 560.5 355.4 555.4 350.3 C 550.3 345.2 542.1 345.2 537.0 350.3 C 531.9 355.4 531.9 363.6 537.0 368.7 C 542.1 373.8 550.3 373.8 555.4 368.7 Z M 555.4 368.7 " fill="#F06191"></path></g></g><g><clipPath id="clip0x6080012b95c0"><path d="M 177.2 409.8 L 735.0 409.8 L 735.0 568.2 L 177.2 568.2 Z M 177.2 409.8 "></path></clipPath><g clip-path="url(#clip0x6080012b95c0)"><path d="M 178.2 417.6 L 178.0 560.3 C 178.0 564.1 181.3 567.0 185.0 567.0 L 727.2 567.0 C 730.9 567.0 734.0 564.1 734.0 560.3 L 734.0 417.6 C 734.0 413.8 730.9 411.0 727.2 411.0 L 185.0 411.0 C 181.3 411.0 178.2 413.8 178.2 417.6 Z M 178.2 417.6 " fill="#F06191"></path></g></g><g><clipPath id="clip0x6080012b9800"><path d="M 178.2 410.8 L 734.0 410.8 L 734.0 567.2 L 178.2 567.2 Z M 178.2 410.8 "></path></clipPath><g clip-path="url(#clip0x6080012b9800)"><text xml:space="preserve" font-family="Roboto-Regular,Roboto" font-size="50.0" fill="#FFFFFF" transform="matrix(1.00, 0.00, -0.00, -1.00, 206.1, 469.3)">A</text><text xml:space="preserve" font-family="Roboto-Regular,Roboto" font-size="50.0" fill="#FFFFFF" transform="matrix(1.00, 0.00, -0.00, -1.00, 238.5, 469.3)">c</text><text xml:space="preserve" font-family="Roboto-Regular,Roboto" font-size="50.0" fill="#FFFFFF" transform="matrix(1.00, 0.00, -0.00, -1.00, 265.0, 469.3)">t</text><text xml:space="preserve" font-family="Roboto-Regular,Roboto" font-size="50.0" fill="#FFFFFF" transform="matrix(1.00, 0.00, -0.00, -1.00, 282.3, 469.3)">u</text><text xml:space="preserve" font-family="Roboto-Regular,Roboto" font-size="50.0" fill="#FFFFFF" transform="matrix(1.00, 0.00, -0.00, -1.00, 310.7, 469.3)">a</text><text xml:space="preserve" font-family="Roboto-Regular,Roboto" font-size="50.0" fill="#FFFFFF" transform="matrix(1.00, 0.00, -0.00, -1.00, 338.2, 469.3)">l</text><text xml:space="preserve" font-family="Roboto-Regular,Roboto" font-size="50.0" fill="#FFFFFF" transform="matrix(1.00, 0.00, -0.00, -1.00, 350.8, 469.3)">l</text><text xml:space="preserve" font-family="Roboto-Regular,Roboto" font-size="50.0" fill="#FFFFFF" transform="matrix(1.00, 0.00, -0.00, -1.00, 363.4, 469.3)">y</text><text xml:space="preserve" font-family="Roboto-Regular,Roboto" font-size="50.0" fill="#FFFFFF" transform="matrix(1.00, 0.00, -0.00, -1.00, 388.6, 469.3)"> </text><text xml:space="preserve" font-family="Roboto-Regular,Roboto" font-size="50.0" fill="#FFFFFF" transform="matrix(1.00, 0.00, -0.00, -1.00, 401.0, 469.3)">S</text><text xml:space="preserve" font-family="Roboto-Regular,Roboto" font-size="50.0" fill="#FFFFFF" transform="matrix(1.00, 0.00, -0.00, -1.00, 432.1, 469.3)">h</text><text xml:space="preserve" font-family="Roboto-Regular,Roboto" font-size="50.0" fill="#FFFFFF" transform="matrix(1.00, 0.00, -0.00, -1.00, 460.5, 469.3)">a</text><text xml:space="preserve" font-family="Roboto-Regular,Roboto" font-size="50.0" fill="#FFFFFF" transform="matrix(1.00, 0.00, -0.00, -1.00, 488.0, 469.3)">d</text><text xml:space="preserve" font-family="Roboto-Regular,Roboto" font-size="50.0" fill="#FFFFFF" transform="matrix(1.00, 0.00, -0.00, -1.00, 516.5, 469.3)">o</text><text xml:space="preserve" font-family="Roboto-Regular,Roboto" font-size="50.0" fill="#FFFFFF" transform="matrix(1.00, 0.00, -0.00, -1.00, 544.9, 469.3)">w</text><text xml:space="preserve" font-family="Roboto-Regular,Roboto" font-size="50.0" fill="#FFFFFF" transform="matrix(1.00, 0.00, -0.00, -1.00, 582.7, 469.3)"> </text><text xml:space="preserve" font-family="Roboto-Regular,Roboto" font-size="50.0" fill="#FFFFFF" transform="matrix(1.00, 0.00, -0.00, -1.00, 595.1, 469.3)">D</text><text xml:space="preserve" font-family="Roboto-Regular,Roboto" font-size="50.0" fill="#FFFFFF" transform="matrix(1.00, 0.00, -0.00, -1.00, 628.1, 469.3)">O</text><text xml:space="preserve" font-family="Roboto-Regular,Roboto" font-size="50.0" fill="#FFFFFF" transform="matrix(1.00, 0.00, -0.00, -1.00, 662.1, 469.3)">M</text><text xml:space="preserve" font-family="Roboto-Regular,Roboto" font-size="50.0" fill="#FFFFFF" transform="matrix(1.00, 0.00, -0.00, -1.00, 706.1, 469.3)"> </text></g></g></g></svg>