<?xml version="1.0" encoding="UTF-8" standalone="no"?><svg xmlns="http://www.w3.org/2000/svg" xmlns:xlink="http://www.w3.org/1999/xlink" clip-rule="evenodd" stroke-miterlimit="10" viewBox="0 0 1920 1080"><desc>SVG generated by Keynote</desc><defs></defs><g transform="matrix(1.00, 0.00, -0.00, -1.00, 0.0, 1080.0)"><path d="M 0.0 1080.0 L 1920.0 1080.0 L 1920.0 0.0 L 0.0 0.0 Z M 0.0 1080.0 " fill="#FFFFFF"></path><path d="M 335.0 518.0 L 817.0 518.0 L 817.0 378.0 L 335.0 378.0 Z M 335.4 518.4 " fill="#E0E0E0"></path><g><clipPath id="clip0x6080030b30e0"><path d="M 324.3 378.2 L 827.6 378.2 L 827.6 518.4 L 324.3 518.4 Z M 324.3 378.2 "></path></clipPath><g clip-path="url(#clip0x6080030b30e0)"><text xml:space="preserve" font-family="Roboto-Regular,Roboto" font-size="50.0" fill="#404040" transform="matrix(1.00, 0.00, -0.00, -1.00, 441.7, 428.6)">&lt;</text><text xml:space="preserve" font-family="Roboto-Regular,Roboto" font-size="50.0" fill="#404040" transform="matrix(1.00, 0.00, -0.00, -1.00, 467.1, 428.6)">m</text><text xml:space="preserve" font-family="Roboto-Regular,Roboto" font-size="50.0" fill="#404040" transform="matrix(1.00, 0.00, -0.00, -1.00, 510.8, 428.6)">y</text><text xml:space="preserve" font-family="Roboto-Regular,Roboto" font-size="50.0" fill="#404040" transform="matrix(1.00, 0.00, -0.00, -1.00, 535.9, 428.6)">-</text><text xml:space="preserve" font-family="Roboto-Regular,Roboto" font-size="50.0" fill="#404040" transform="matrix(1.00, 0.00, -0.00, -1.00, 549.6, 428.6)">r</text><text xml:space="preserve" font-family="Roboto-Regular,Roboto" font-size="50.0" fill="#404040" transform="matrix(1.00, 0.00, -0.00, -1.00, 566.3, 428.6)">o</text><text xml:space="preserve" font-family="Roboto-Regular,Roboto" font-size="50.0" fill="#404040" transform="matrix(1.00, 0.00, -0.00, -1.00, 594.7, 428.6)">u</text><text xml:space="preserve" font-family="Roboto-Regular,Roboto" font-size="50.0" fill="#404040" transform="matrix(1.00, 0.00, -0.00, -1.00, 623.1, 428.6)">t</text><text xml:space="preserve" font-family="Roboto-Regular,Roboto" font-size="50.0" fill="#404040" transform="matrix(1.00, 0.00, -0.00, -1.00, 640.4, 428.6)">e</text><text xml:space="preserve" font-family="Roboto-Regular,Roboto" font-size="50.0" fill="#404040" transform="matrix(1.00, 0.00, -0.00, -1.00, 666.8, 428.6)">r</text><text xml:space="preserve" font-family="Roboto-Regular,Roboto" font-size="50.0" fill="#404040" transform="matrix(1.00, 0.00, -0.00, -1.00, 684.0, 428.6)">&gt;</text></g></g><path d="M 333.0 685.0 L 814.0 685.0 L 814.0 528.0 L 333.0 528.0 Z M 333.0 684.8 " fill="#E0E0E0"></path><g><clipPath id="clip0x6080030b2360"><path d="M 321.9 527.5 L 825.2 527.5 L 825.2 684.8 L 321.9 684.8 Z M 321.9 527.5 "></path></clipPath><g clip-path="url(#clip0x6080030b2360)"><text xml:space="preserve" font-family="Roboto-Regular,Roboto" font-size="50.0" fill="#404040" transform="matrix(1.00, 0.00, -0.00, -1.00, 360.8, 587.0)">&lt;</text><text xml:space="preserve" font-family="Roboto-Regular,Roboto" font-size="50.0" fill="#404040" transform="matrix(1.00, 0.00, -0.00, -1.00, 386.1, 587.0)">m</text><text xml:space="preserve" font-family="Roboto-Regular,Roboto" font-size="50.0" fill="#404040" transform="matrix(1.00, 0.00, -0.00, -1.00, 429.8, 587.0)">y</text><text xml:space="preserve" font-family="Roboto-Regular,Roboto" font-size="50.0" fill="#404040" transform="matrix(1.00, 0.00, -0.00, -1.00, 455.0, 587.0)">-</text><text xml:space="preserve" font-family="Roboto-Regular,Roboto" font-size="50.0" fill="#404040" transform="matrix(1.00, 0.00, -0.00, -1.00, 468.7, 587.0)">d</text><text xml:space="preserve" font-family="Roboto-Regular,Roboto" font-size="50.0" fill="#404040" transform="matrix(1.00, 0.00, -0.00, -1.00, 497.1, 587.0)">r</text><text xml:space="preserve" font-family="Roboto-Regular,Roboto" font-size="50.0" fill="#404040" transform="matrix(1.00, 0.00, -0.00, -1.00, 514.2, 587.0)">a</text><text xml:space="preserve" font-family="Roboto-Regular,Roboto" font-size="50.0" fill="#404040" transform="matrix(1.00, 0.00, -0.00, -1.00, 541.7, 587.0)">w</text><text xml:space="preserve" font-family="Roboto-Regular,Roboto" font-size="50.0" fill="#404040" transform="matrix(1.00, 0.00, -0.00, -1.00, 579.6, 587.0)">e</text><text xml:space="preserve" font-family="Roboto-Regular,Roboto" font-size="50.0" fill="#404040" transform="matrix(1.00, 0.00, -0.00, -1.00, 606.0, 587.0)">r</text><text xml:space="preserve" font-family="Roboto-Regular,Roboto" font-size="50.0" fill="#404040" transform="matrix(1.00, 0.00, -0.00, -1.00, 623.1, 587.0)">-</text><text xml:space="preserve" font-family="Roboto-Regular,Roboto" font-size="50.0" fill="#404040" transform="matrix(1.00, 0.00, -0.00, -1.00, 636.8, 587.0)">p</text><text xml:space="preserve" font-family="Roboto-Regular,Roboto" font-size="50.0" fill="#404040" transform="matrix(1.00, 0.00, -0.00, -1.00, 665.2, 587.0)">a</text><text xml:space="preserve" font-family="Roboto-Regular,Roboto" font-size="50.0" fill="#404040" transform="matrix(1.00, 0.00, -0.00, -1.00, 692.7, 587.0)">n</text><text xml:space="preserve" font-family="Roboto-Regular,Roboto" font-size="50.0" fill="#404040" transform="matrix(1.00, 0.00, -0.00, -1.00, 721.2, 587.0)">e</text><text xml:space="preserve" font-family="Roboto-Regular,Roboto" font-size="50.0" fill="#404040" transform="matrix(1.00, 0.00, -0.00, -1.00, 747.6, 587.0)">l</text><text xml:space="preserve" font-family="Roboto-Regular,Roboto" font-size="50.0" fill="#404040" transform="matrix(1.00, 0.00, -0.00, -1.00, 760.2, 587.0)">&gt;</text></g></g><path d="M 852.0 685.0 L 1326.0 685.0 L 1326.0 528.0 L 852.0 528.0 Z M 852.0 684.8 " fill="#E0E0E0"></path><g><clipPath id="clip0x6080030b1a60"><path d="M 840.9 527.5 L 1337.1 527.5 L 1337.1 684.8 L 840.9 684.8 Z M 840.9 527.5 "></path></clipPath><g clip-path="url(#clip0x6080030b1a60)"><text xml:space="preserve" font-family="Roboto-Regular,Roboto" font-size="50.0" fill="#404040" transform="matrix(1.00, 0.00, -0.00, -1.00, 900.4, 587.0)">t</text><text xml:space="preserve" font-family="Roboto-Regular,Roboto" font-size="50.0" fill="#404040" transform="matrix(1.00, 0.00, -0.00, -1.00, 917.6, 587.0)">w</text><text xml:space="preserve" font-family="Roboto-Regular,Roboto" font-size="50.0" fill="#404040" transform="matrix(1.00, 0.00, -0.00, -1.00, 955.5, 587.0)">i</text><text xml:space="preserve" font-family="Roboto-Regular,Roboto" font-size="50.0" fill="#404040" transform="matrix(1.00, 0.00, -0.00, -1.00, 968.1, 587.0)">t</text><text xml:space="preserve" font-family="Roboto-Regular,Roboto" font-size="50.0" fill="#404040" transform="matrix(1.00, 0.00, -0.00, -1.00, 985.3, 587.0)">t</text><text xml:space="preserve" font-family="Roboto-Regular,Roboto" font-size="50.0" fill="#404040" transform="matrix(1.00, 0.00, -0.00, -1.00, 1002.6, 587.0)">e</text><text xml:space="preserve" font-family="Roboto-Regular,Roboto" font-size="50.0" fill="#404040" transform="matrix(1.00, 0.00, -0.00, -1.00, 1029.0, 587.0)">r</text><text xml:space="preserve" font-family="Roboto-Regular,Roboto" font-size="50.0" fill="#404040" transform="matrix(1.00, 0.00, -0.00, -1.00, 1046.2, 587.0)"> </text><text xml:space="preserve" font-family="Roboto-Regular,Roboto" font-size="50.0" fill="#404040" transform="matrix(1.00, 0.00, -0.00, -1.00, 1058.6, 587.0)">b</text><text xml:space="preserve" font-family="Roboto-Regular,Roboto" font-size="50.0" fill="#404040" transform="matrix(1.00, 0.00, -0.00, -1.00, 1087.0, 587.0)">o</text><text xml:space="preserve" font-family="Roboto-Regular,Roboto" font-size="50.0" fill="#404040" transform="matrix(1.00, 0.00, -0.00, -1.00, 1115.4, 587.0)">o</text><text xml:space="preserve" font-family="Roboto-Regular,Roboto" font-size="50.0" fill="#404040" transform="matrix(1.00, 0.00, -0.00, -1.00, 1143.9, 587.0)">t</text><text xml:space="preserve" font-family="Roboto-Regular,Roboto" font-size="50.0" fill="#404040" transform="matrix(1.00, 0.00, -0.00, -1.00, 1161.2, 587.0)">s</text><text xml:space="preserve" font-family="Roboto-Regular,Roboto" font-size="50.0" fill="#404040" transform="matrix(1.00, 0.00, -0.00, -1.00, 1187.3, 587.0)">t</text><text xml:space="preserve" font-family="Roboto-Regular,Roboto" font-size="50.0" fill="#404040" transform="matrix(1.00, 0.00, -0.00, -1.00, 1204.6, 587.0)">r</text><text xml:space="preserve" font-family="Roboto-Regular,Roboto" font-size="50.0" fill="#404040" transform="matrix(1.00, 0.00, -0.00, -1.00, 1221.7, 587.0)">a</text><text xml:space="preserve" font-family="Roboto-Regular,Roboto" font-size="50.0" fill="#404040" transform="matrix(1.00, 0.00, -0.00, -1.00, 1249.2, 587.0)">p</text></g></g><path d="M 852.0 518.0 L 1326.0 518.0 L 1326.0 229.0 L 852.0 229.0 Z M 852.0 518.4 " fill="#E0E0E0"></path><path d="M 1362.0 518.0 L 1843.0 518.0 L 1843.0 378.0 L 1362.0 378.0 Z M 1361.5 518.4 " fill="#E0E0E0"></path><image xlink:href="../../BB8A0293-82D3-4C0F-AAC4-39310E3C2F48/assets/3BEC34B330CA596800EEA28823728B9B.png" width="899.00" height="160.00" transform="matrix(0.35, 0.00, -0.00, -0.35, 1446.0, 476.1)"></image><g opacity="0.26"><g><clipPath id="clip0x6000032b9f20"><path d="M 503.0 499.0 L 649.0 499.0 L 649.0 398.0 L 503.0 398.0 Z M 502.8 498.6 "></path></clipPath><g clip-path="url(#clip0x6000032b9f20)"><g><clipPath id="clip0x6000032b9d40"><path d="M 501.0 397.0 L 651.0 397.0 L 651.0 500.0 L 501.0 500.0 Z M 501.0 397.0 "></path></clipPath><g clip-path="url(#clip0x6000032b9d40)"><image xlink:href="../../BB8A0293-82D3-4C0F-AAC4-39310E3C2F48/assets/463177310DE505E17095268FEB095F3E.png" width="416.00" height="286.00" transform="matrix(0.35, 0.00, -0.00, -0.35, 502.8, 498.6)"></image></g></g></g></g></g><g opacity="0.26"><g><clipPath id="clip0x6080030b0f20"><path d="M 501.0 554.0 L 651.0 554.0 L 651.0 658.0 L 501.0 658.0 Z M 501.0 554.0 "></path></clipPath><g clip-path="url(#clip0x6080030b0f20)"><image xlink:href="../../BB8A0293-82D3-4C0F-AAC4-39310E3C2F48/assets/463177310DE505E17095268FEB095F3E.png" width="416.00" height="286.00" transform="matrix(0.35, 0.00, -0.00, -0.35, 502.8, 656.4)"></image></g></g></g><g><clipPath id="clip0x6000032b9e00"><path d="M 334.4 692.9 L 817.5 692.9 L 817.5 852.2 L 334.4 852.2 Z M 334.4 692.9 "></path></clipPath><g clip-path="url(#clip0x6000032b9e00)"><path d="M 335.0 851.0 L 817.0 851.0 L 817.0 694.0 L 335.0 694.0 Z M 335.4 851.2 " fill="#E0E0E0"></path></g></g><g><clipPath id="clip0x6000032b9920"><path d="M 324.3 693.9 L 827.6 693.9 L 827.6 851.2 L 324.3 851.2 Z M 324.3 693.9 "></path></clipPath><g clip-path="url(#clip0x6000032b9920)"><text xml:space="preserve" font-family="Roboto-Regular,Roboto" font-size="50.0" fill="#404040" transform="matrix(1.00, 0.00, -0.00, -1.00, 417.2, 753.4)">&lt;</text><text xml:space="preserve" font-family="Roboto-Regular,Roboto" font-size="50.0" fill="#404040" transform="matrix(1.00, 0.00, -0.00, -1.00, 442.5, 753.4)">g</text><text xml:space="preserve" font-family="Roboto-Regular,Roboto" font-size="50.0" fill="#404040" transform="matrix(1.00, 0.00, -0.00, -1.00, 471.0, 753.4)">o</text><text xml:space="preserve" font-family="Roboto-Regular,Roboto" font-size="50.0" fill="#404040" transform="matrix(1.00, 0.00, -0.00, -1.00, 499.4, 753.4)">o</text><text xml:space="preserve" font-family="Roboto-Regular,Roboto" font-size="50.0" fill="#404040" transform="matrix(1.00, 0.00, -0.00, -1.00, 527.8, 753.4)">g</text><text xml:space="preserve" font-family="Roboto-Regular,Roboto" font-size="50.0" fill="#404040" transform="matrix(1.00, 0.00, -0.00, -1.00, 556.3, 753.4)">l</text><text xml:space="preserve" font-family="Roboto-Regular,Roboto" font-size="50.0" fill="#404040" transform="matrix(1.00, 0.00, -0.00, -1.00, 568.9, 753.4)">e</text><text xml:space="preserve" font-family="Roboto-Regular,Roboto" font-size="50.0" fill="#404040" transform="matrix(1.00, 0.00, -0.00, -1.00, 595.3, 753.4)">-</text><text xml:space="preserve" font-family="Roboto-Regular,Roboto" font-size="50.0" fill="#404040" transform="matrix(1.00, 0.00, -0.00, -1.00, 609.0, 753.4)">m</text><text xml:space="preserve" font-family="Roboto-Regular,Roboto" font-size="50.0" fill="#404040" transform="matrix(1.00, 0.00, -0.00, -1.00, 652.7, 753.4)">a</text><text xml:space="preserve" font-family="Roboto-Regular,Roboto" font-size="50.0" fill="#404040" transform="matrix(1.00, 0.00, -0.00, -1.00, 680.2, 753.4)">p</text><text xml:space="preserve" font-family="Roboto-Regular,Roboto" font-size="50.0" fill="#404040" transform="matrix(1.00, 0.00, -0.00, -1.00, 708.6, 753.4)">&gt;</text></g></g><g><clipPath id="clip0x6000032b9080"><path d="M 502.8 722.3 L 649.1 722.3 L 649.1 822.8 L 502.8 822.8 Z M 502.8 722.3 "></path></clipPath><g clip-path="url(#clip0x6000032b9080)"><image xlink:href="../../BB8A0293-82D3-4C0F-AAC4-39310E3C2F48/assets/463177310DE505E17095268FEB095F3E.png" width="416.00" height="286.00" transform="matrix(0.35, 0.00, -0.00, -0.35, 502.8, 822.8)" opacity="0.26"></image></g></g><path d="M 335.0 369.0 L 817.0 369.0 L 817.0 229.0 L 335.0 229.0 Z M 335.4 369.0 " fill="#E0E0E0"></path><g><clipPath id="clip0x6000032b91a0"><path d="M 324.3 228.8 L 827.6 228.8 L 827.6 369.0 L 324.3 369.0 Z M 324.3 228.8 "></path></clipPath><g clip-path="url(#clip0x6000032b91a0)"><text xml:space="preserve" font-family="Roboto-Regular,Roboto" font-size="50.0" fill="#404040" transform="matrix(1.00, 0.00, -0.00, -1.00, 466.7, 279.2)">&lt;</text><text xml:space="preserve" font-family="Roboto-Regular,Roboto" font-size="50.0" fill="#404040" transform="matrix(1.00, 0.00, -0.00, -1.00, 492.1, 279.2)">m</text><text xml:space="preserve" font-family="Roboto-Regular,Roboto" font-size="50.0" fill="#404040" transform="matrix(1.00, 0.00, -0.00, -1.00, 535.8, 279.2)">y</text><text xml:space="preserve" font-family="Roboto-Regular,Roboto" font-size="50.0" fill="#404040" transform="matrix(1.00, 0.00, -0.00, -1.00, 561.0, 279.2)">-</text><text xml:space="preserve" font-family="Roboto-Regular,Roboto" font-size="50.0" fill="#404040" transform="matrix(1.00, 0.00, -0.00, -1.00, 574.6, 279.2)">a</text><text xml:space="preserve" font-family="Roboto-Regular,Roboto" font-size="50.0" fill="#404040" transform="matrix(1.00, 0.00, -0.00, -1.00, 602.1, 279.2)">p</text><text xml:space="preserve" font-family="Roboto-Regular,Roboto" font-size="50.0" fill="#404040" transform="matrix(1.00, 0.00, -0.00, -1.00, 630.6, 279.2)">p</text><text xml:space="preserve" font-family="Roboto-Regular,Roboto" font-size="50.0" fill="#404040" transform="matrix(1.00, 0.00, -0.00, -1.00, 659.0, 279.2)">&gt;</text></g></g><g opacity="0.26"><g><clipPath id="clip0x6000032bda00"><path d="M 501.0 247.0 L 651.0 247.0 L 651.0 351.0 L 501.0 351.0 Z M 501.0 247.0 "></path></clipPath><g clip-path="url(#clip0x6000032bda00)"><image xlink:href="../../BB8A0293-82D3-4C0F-AAC4-39310E3C2F48/assets/463177310DE505E17095268FEB095F3E.png" width="416.00" height="286.00" transform="matrix(0.35, 0.00, -0.00, -0.35, 502.8, 349.2)"></image></g></g></g><g><clipPath id="clip0x6000032be7e0"><path d="M 847.4 692.9 L 1330.6 692.9 L 1330.6 852.2 L 847.4 852.2 Z M 847.4 692.9 "></path></clipPath><g clip-path="url(#clip0x6000032be7e0)"><path d="M 848.0 851.0 L 1330.0 851.0 L 1330.0 694.0 L 848.0 694.0 Z M 848.4 851.2 " fill="#E0E0E0"></path></g></g><g><clipPath id="clip0x6000032bdb80"><path d="M 837.4 693.9 L 1340.7 693.9 L 1340.7 851.2 L 837.4 851.2 Z M 837.4 693.9 "></path></clipPath><g clip-path="url(#clip0x6000032bdb80)"><text xml:space="preserve" font-family="Roboto-Regular,Roboto" font-size="50.0" fill="#404040" transform="matrix(1.00, 0.00, -0.00, -1.00, 930.2, 753.4)">&lt;</text><text xml:space="preserve" font-family="Roboto-Regular,Roboto" font-size="50.0" fill="#404040" transform="matrix(1.00, 0.00, -0.00, -1.00, 955.6, 753.4)">g</text><text xml:space="preserve" font-family="Roboto-Regular,Roboto" font-size="50.0" fill="#404040" transform="matrix(1.00, 0.00, -0.00, -1.00, 984.1, 753.4)">o</text><text xml:space="preserve" font-family="Roboto-Regular,Roboto" font-size="50.0" fill="#404040" transform="matrix(1.00, 0.00, -0.00, -1.00, 1012.5, 753.4)">o</text><text xml:space="preserve" font-family="Roboto-Regular,Roboto" font-size="50.0" fill="#404040" transform="matrix(1.00, 0.00, -0.00, -1.00, 1040.9, 753.4)">g</text><text xml:space="preserve" font-family="Roboto-Regular,Roboto" font-size="50.0" fill="#404040" transform="matrix(1.00, 0.00, -0.00, -1.00, 1069.4, 753.4)">l</text><text xml:space="preserve" font-family="Roboto-Regular,Roboto" font-size="50.0" fill="#404040" transform="matrix(1.00, 0.00, -0.00, -1.00, 1082.0, 753.4)">e</text><text xml:space="preserve" font-family="Roboto-Regular,Roboto" font-size="50.0" fill="#404040" transform="matrix(1.00, 0.00, -0.00, -1.00, 1108.4, 753.4)">-</text><text xml:space="preserve" font-family="Roboto-Regular,Roboto" font-size="50.0" fill="#404040" transform="matrix(1.00, 0.00, -0.00, -1.00, 1122.1, 753.4)">m</text><text xml:space="preserve" font-family="Roboto-Regular,Roboto" font-size="50.0" fill="#404040" transform="matrix(1.00, 0.00, -0.00, -1.00, 1165.8, 753.4)">a</text><text xml:space="preserve" font-family="Roboto-Regular,Roboto" font-size="50.0" fill="#404040" transform="matrix(1.00, 0.00, -0.00, -1.00, 1193.3, 753.4)">p</text><text xml:space="preserve" font-family="Roboto-Regular,Roboto" font-size="50.0" fill="#404040" transform="matrix(1.00, 0.00, -0.00, -1.00, 1221.7, 753.4)">&gt;</text></g></g><g><clipPath id="clip0x6000032be5a0"><path d="M 1015.9 722.3 L 1162.1 722.3 L 1162.1 822.8 L 1015.9 822.8 Z M 1015.9 722.3 "></path></clipPath><g clip-path="url(#clip0x6000032be5a0)"><image xlink:href="../../BB8A0293-82D3-4C0F-AAC4-39310E3C2F48/assets/463177310DE505E17095268FEB095F3E.png" width="416.00" height="286.00" transform="matrix(0.35, 0.00, -0.00, -0.35, 1015.9, 822.8)" opacity="0.26"></image></g></g><path d="M 1362.0 369.0 L 1843.0 369.0 L 1843.0 229.0 L 1362.0 229.0 Z M 1361.5 369.0 " fill="#E0E0E0"></path><g><clipPath id="clip0x6000032bde80"><path d="M 1350.4 228.8 L 1853.8 228.8 L 1853.8 369.0 L 1350.4 369.0 Z M 1350.4 228.8 "></path></clipPath><g clip-path="url(#clip0x6000032bde80)"><text xml:space="preserve" font-family="Roboto-Regular,Roboto" font-size="50.0" fill="#404040" transform="matrix(1.00, 0.00, -0.00, -1.00, 1492.9, 279.2)">&lt;</text><text xml:space="preserve" font-family="Roboto-Regular,Roboto" font-size="50.0" fill="#404040" transform="matrix(1.00, 0.00, -0.00, -1.00, 1518.3, 279.2)">m</text><text xml:space="preserve" font-family="Roboto-Regular,Roboto" font-size="50.0" fill="#404040" transform="matrix(1.00, 0.00, -0.00, -1.00, 1562.0, 279.2)">y</text><text xml:space="preserve" font-family="Roboto-Regular,Roboto" font-size="50.0" fill="#404040" transform="matrix(1.00, 0.00, -0.00, -1.00, 1587.1, 279.2)">-</text><text xml:space="preserve" font-family="Roboto-Regular,Roboto" font-size="50.0" fill="#404040" transform="matrix(1.00, 0.00, -0.00, -1.00, 1600.8, 279.2)">a</text><text xml:space="preserve" font-family="Roboto-Regular,Roboto" font-size="50.0" fill="#404040" transform="matrix(1.00, 0.00, -0.00, -1.00, 1628.3, 279.2)">p</text><text xml:space="preserve" font-family="Roboto-Regular,Roboto" font-size="50.0" fill="#404040" transform="matrix(1.00, 0.00, -0.00, -1.00, 1656.7, 279.2)">p</text><text xml:space="preserve" font-family="Roboto-Regular,Roboto" font-size="50.0" fill="#404040" transform="matrix(1.00, 0.00, -0.00, -1.00, 1685.2, 279.2)">&gt;</text></g></g><g opacity="0.26"><g><clipPath id="clip0x6000032beba0"><path d="M 1527.0 247.0 L 1677.0 247.0 L 1677.0 351.0 L 1527.0 351.0 Z M 1527.0 247.0 "></path></clipPath><g clip-path="url(#clip0x6000032beba0)"><image xlink:href="../../BB8A0293-82D3-4C0F-AAC4-39310E3C2F48/assets/463177310DE505E17095268FEB095F3E.png" width="416.00" height="286.00" transform="matrix(0.35, 0.00, -0.00, -0.35, 1529.0, 349.2)"></image></g></g></g><path d="M 1362.0 685.0 L 1843.0 685.0 L 1843.0 528.0 L 1362.0 528.0 Z M 1361.5 684.8 " fill="#E0E0E0"></path><g><clipPath id="clip0x6000032bff20"><path d="M 1350.4 527.5 L 1853.8 527.5 L 1853.8 684.8 L 1350.4 684.8 Z M 1350.4 527.5 "></path></clipPath><g clip-path="url(#clip0x6000032bff20)"><text xml:space="preserve" font-family="Roboto-Regular,Roboto" font-size="50.0" fill="#404040" transform="matrix(1.00, 0.00, -0.00, -1.00, 1389.3, 587.0)">&lt;</text><text xml:space="preserve" font-family="Roboto-Regular,Roboto" font-size="50.0" fill="#404040" transform="matrix(1.00, 0.00, -0.00, -1.00, 1414.7, 587.0)">m</text><text xml:space="preserve" font-family="Roboto-Regular,Roboto" font-size="50.0" fill="#404040" transform="matrix(1.00, 0.00, -0.00, -1.00, 1458.4, 587.0)">y</text><text xml:space="preserve" font-family="Roboto-Regular,Roboto" font-size="50.0" fill="#404040" transform="matrix(1.00, 0.00, -0.00, -1.00, 1483.5, 587.0)">-</text><text xml:space="preserve" font-family="Roboto-Regular,Roboto" font-size="50.0" fill="#404040" transform="matrix(1.00, 0.00, -0.00, -1.00, 1497.2, 587.0)">d</text><text xml:space="preserve" font-family="Roboto-Regular,Roboto" font-size="50.0" fill="#404040" transform="matrix(1.00, 0.00, -0.00, -1.00, 1525.6, 587.0)">r</text><text xml:space="preserve" font-family="Roboto-Regular,Roboto" font-size="50.0" fill="#404040" transform="matrix(1.00, 0.00, -0.00, -1.00, 1542.8, 587.0)">a</text><text xml:space="preserve" font-family="Roboto-Regular,Roboto" font-size="50.0" fill="#404040" transform="matrix(1.00, 0.00, -0.00, -1.00, 1570.3, 587.0)">w</text><text xml:space="preserve" font-family="Roboto-Regular,Roboto" font-size="50.0" fill="#404040" transform="matrix(1.00, 0.00, -0.00, -1.00, 1608.1, 587.0)">e</text><text xml:space="preserve" font-family="Roboto-Regular,Roboto" font-size="50.0" fill="#404040" transform="matrix(1.00, 0.00, -0.00, -1.00, 1634.5, 587.0)">r</text><text xml:space="preserve" font-family="Roboto-Regular,Roboto" font-size="50.0" fill="#404040" transform="matrix(1.00, 0.00, -0.00, -1.00, 1651.6, 587.0)">-</text><text xml:space="preserve" font-family="Roboto-Regular,Roboto" font-size="50.0" fill="#404040" transform="matrix(1.00, 0.00, -0.00, -1.00, 1665.3, 587.0)">p</text><text xml:space="preserve" font-family="Roboto-Regular,Roboto" font-size="50.0" fill="#404040" transform="matrix(1.00, 0.00, -0.00, -1.00, 1693.8, 587.0)">a</text><text xml:space="preserve" font-family="Roboto-Regular,Roboto" font-size="50.0" fill="#404040" transform="matrix(1.00, 0.00, -0.00, -1.00, 1721.3, 587.0)">n</text><text xml:space="preserve" font-family="Roboto-Regular,Roboto" font-size="50.0" fill="#404040" transform="matrix(1.00, 0.00, -0.00, -1.00, 1749.7, 587.0)">e</text><text xml:space="preserve" font-family="Roboto-Regular,Roboto" font-size="50.0" fill="#404040" transform="matrix(1.00, 0.00, -0.00, -1.00, 1776.1, 587.0)">l</text><text xml:space="preserve" font-family="Roboto-Regular,Roboto" font-size="50.0" fill="#404040" transform="matrix(1.00, 0.00, -0.00, -1.00, 1788.7, 587.0)">&gt;</text></g></g><g opacity="0.26"><g><clipPath id="clip0x6000032bf620"><path d="M 1530.0 554.0 L 1679.0 554.0 L 1679.0 658.0 L 1530.0 658.0 Z M 1530.0 554.0 "></path></clipPath><g clip-path="url(#clip0x6000032bf620)"><image xlink:href="../../BB8A0293-82D3-4C0F-AAC4-39310E3C2F48/assets/463177310DE505E17095268FEB095F3E.png" width="416.00" height="286.00" transform="matrix(0.35, 0.00, -0.00, -0.35, 1531.4, 656.4)"></image></g></g></g><path d="M 1362.0 851.0 L 1843.0 851.0 L 1843.0 694.0 L 1362.0 694.0 Z M 1361.5 851.2 " fill="#E0E0E0"></path><g><clipPath id="clip0x6000032bf320"><path d="M 1350.4 693.9 L 1853.8 693.9 L 1853.8 851.2 L 1350.4 851.2 Z M 1350.4 693.9 "></path></clipPath><g clip-path="url(#clip0x6000032bf320)"><text xml:space="preserve" font-family="Roboto-Regular,Roboto" font-size="50.0" fill="#404040" transform="matrix(1.00, 0.00, -0.00, -1.00, 1498.8, 753.4)">m</text><text xml:space="preserve" font-family="Roboto-Regular,Roboto" font-size="50.0" fill="#404040" transform="matrix(1.00, 0.00, -0.00, -1.00, 1542.5, 753.4)">a</text><text xml:space="preserve" font-family="Roboto-Regular,Roboto" font-size="50.0" fill="#404040" transform="matrix(1.00, 0.00, -0.00, -1.00, 1569.9, 753.4)">p</text><text xml:space="preserve" font-family="Roboto-Regular,Roboto" font-size="50.0" fill="#404040" transform="matrix(1.00, 0.00, -0.00, -1.00, 1598.4, 753.4)">s</text><text xml:space="preserve" font-family="Roboto-Regular,Roboto" font-size="50.0" fill="#404040" transform="matrix(1.00, 0.00, -0.00, -1.00, 1624.5, 753.4)"> </text><text xml:space="preserve" font-family="Roboto-Regular,Roboto" font-size="50.0" fill="#404040" transform="matrix(1.00, 0.00, -0.00, -1.00, 1636.9, 753.4)">a</text><text xml:space="preserve" font-family="Roboto-Regular,Roboto" font-size="50.0" fill="#404040" transform="matrix(1.00, 0.00, -0.00, -1.00, 1664.4, 753.4)">p</text><text xml:space="preserve" font-family="Roboto-Regular,Roboto" font-size="50.0" fill="#404040" transform="matrix(1.00, 0.00, -0.00, -1.00, 1692.8, 753.4)">i</text></g></g><text xml:space="preserve" font-family="Roboto-Regular,Roboto" font-size="30.0" fill="#424242" transform="matrix(1.00, 0.00, -0.00, -1.00, 76.4, 761.2)">S</text><text xml:space="preserve" font-family="Roboto-Regular,Roboto" font-size="30.0" fill="#424242" transform="matrix(1.00, 0.00, -0.00, -1.00, 95.1, 761.2)">h</text><text xml:space="preserve" font-family="Roboto-Regular,Roboto" font-size="30.0" fill="#424242" transform="matrix(1.00, 0.00, -0.00, -1.00, 112.1, 761.2)">o</text><text xml:space="preserve" font-family="Roboto-Regular,Roboto" font-size="30.0" fill="#424242" transform="matrix(1.00, 0.00, -0.00, -1.00, 129.2, 761.2)">w</text><text xml:space="preserve" font-family="Roboto-Regular,Roboto" font-size="30.0" fill="#424242" transform="matrix(1.00, 0.00, -0.00, -1.00, 151.9, 761.2)"> </text><text xml:space="preserve" font-family="Roboto-Regular,Roboto" font-size="30.0" fill="#424242" transform="matrix(1.00, 0.00, -0.00, -1.00, 159.3, 761.2)">a</text><text xml:space="preserve" font-family="Roboto-Regular,Roboto" font-size="30.0" fill="#424242" transform="matrix(1.00, 0.00, -0.00, -1.00, 175.8, 761.2)"> </text><text xml:space="preserve" font-family="Roboto-Regular,Roboto" font-size="30.0" fill="#424242" transform="matrix(1.00, 0.00, -0.00, -1.00, 183.3, 761.2)">m</text><text xml:space="preserve" font-family="Roboto-Regular,Roboto" font-size="30.0" fill="#424242" transform="matrix(1.00, 0.00, -0.00, -1.00, 209.5, 761.2)">a</text><text xml:space="preserve" font-family="Roboto-Regular,Roboto" font-size="30.0" fill="#424242" transform="matrix(1.00, 0.00, -0.00, -1.00, 226.0, 761.2)">p</text><text xml:space="preserve" font-family="Roboto-Regular,Roboto" font-size="30.0" fill="#424242" transform="matrix(1.00, 0.00, -0.00, -1.00, 59.2, 594.8)">G</text><text xml:space="preserve" font-family="Roboto-Regular,Roboto" font-size="30.0" fill="#424242" transform="matrix(1.00, 0.00, -0.00, -1.00, 79.6, 594.8)">i</text><text xml:space="preserve" font-family="Roboto-Regular,Roboto" font-size="30.0" fill="#424242" transform="matrix(1.00, 0.00, -0.00, -1.00, 87.2, 594.8)">v</text><text xml:space="preserve" font-family="Roboto-Regular,Roboto" font-size="30.0" fill="#424242" transform="matrix(1.00, 0.00, -0.00, -1.00, 102.1, 594.8)">e</text><text xml:space="preserve" font-family="Roboto-Regular,Roboto" font-size="30.0" fill="#424242" transform="matrix(1.00, 0.00, -0.00, -1.00, 117.9, 594.8)"> </text><text xml:space="preserve" font-family="Roboto-Regular,Roboto" font-size="30.0" fill="#424242" transform="matrix(1.00, 0.00, -0.00, -1.00, 125.4, 594.8)">m</text><text xml:space="preserve" font-family="Roboto-Regular,Roboto" font-size="30.0" fill="#424242" transform="matrix(1.00, 0.00, -0.00, -1.00, 151.6, 594.8)">e</text><text xml:space="preserve" font-family="Roboto-Regular,Roboto" font-size="30.0" fill="#424242" transform="matrix(1.00, 0.00, -0.00, -1.00, 167.5, 594.8)"> </text><text xml:space="preserve" font-family="Roboto-Regular,Roboto" font-size="30.0" fill="#424242" transform="matrix(1.00, 0.00, -0.00, -1.00, 174.9, 594.8)">a</text><text xml:space="preserve" font-family="Roboto-Regular,Roboto" font-size="30.0" fill="#424242" transform="matrix(1.00, 0.00, -0.00, -1.00, 191.4, 594.8)"> </text><text xml:space="preserve" font-family="Roboto-Regular,Roboto" font-size="30.0" fill="#424242" transform="matrix(1.00, 0.00, -0.00, -1.00, 198.8, 594.8)">s</text><text xml:space="preserve" font-family="Roboto-Regular,Roboto" font-size="30.0" fill="#424242" transform="matrix(1.00, 0.00, -0.00, -1.00, 214.5, 594.8)">i</text><text xml:space="preserve" font-family="Roboto-Regular,Roboto" font-size="30.0" fill="#424242" transform="matrix(1.00, 0.00, -0.00, -1.00, 222.1, 594.8)">d</text><text xml:space="preserve" font-family="Roboto-Regular,Roboto" font-size="30.0" fill="#424242" transform="matrix(1.00, 0.00, -0.00, -1.00, 239.1, 594.8)">e</text><text xml:space="preserve" font-family="Roboto-Regular,Roboto" font-size="30.0" fill="#424242" transform="matrix(1.00, 0.00, -0.00, -1.00, 255.0, 594.8)">b</text><text xml:space="preserve" font-family="Roboto-Regular,Roboto" font-size="30.0" fill="#424242" transform="matrix(1.00, 0.00, -0.00, -1.00, 272.1, 594.8)">a</text><text xml:space="preserve" font-family="Roboto-Regular,Roboto" font-size="30.0" fill="#424242" transform="matrix(1.00, 0.00, -0.00, -1.00, 288.5, 594.8)">r</text><text xml:space="preserve" font-family="Roboto-Regular,Roboto" font-size="30.0" fill="#424242" transform="matrix(1.00, 0.00, -0.00, -1.00, 114.5, 436.9)">R</text><text xml:space="preserve" font-family="Roboto-Regular,Roboto" font-size="30.0" fill="#424242" transform="matrix(1.00, 0.00, -0.00, -1.00, 134.3, 436.9)">o</text><text xml:space="preserve" font-family="Roboto-Regular,Roboto" font-size="30.0" fill="#424242" transform="matrix(1.00, 0.00, -0.00, -1.00, 151.4, 436.9)">u</text><text xml:space="preserve" font-family="Roboto-Regular,Roboto" font-size="30.0" fill="#424242" transform="matrix(1.00, 0.00, -0.00, -1.00, 168.5, 436.9)">t</text><text xml:space="preserve" font-family="Roboto-Regular,Roboto" font-size="30.0" fill="#424242" transform="matrix(1.00, 0.00, -0.00, -1.00, 178.8, 436.9)">e</text><text xml:space="preserve" font-family="Roboto-Regular,Roboto" font-size="30.0" fill="#424242" transform="matrix(1.00, 0.00, -0.00, -1.00, 194.7, 436.9)">r</text><text xml:space="preserve" font-family="Roboto-Regular,Roboto" font-size="30.0" fill="#424242" transform="matrix(1.00, 0.00, -0.00, -1.00, 51.9, 279.0)">S</text><text xml:space="preserve" font-family="Roboto-Regular,Roboto" font-size="30.0" fill="#424242" transform="matrix(1.00, 0.00, -0.00, -1.00, 70.6, 279.0)">t</text><text xml:space="preserve" font-family="Roboto-Regular,Roboto" font-size="30.0" fill="#424242" transform="matrix(1.00, 0.00, -0.00, -1.00, 81.0, 279.0)">r</text><text xml:space="preserve" font-family="Roboto-Regular,Roboto" font-size="30.0" fill="#424242" transform="matrix(1.00, 0.00, -0.00, -1.00, 91.2, 279.0)">u</text><text xml:space="preserve" font-family="Roboto-Regular,Roboto" font-size="30.0" fill="#424242" transform="matrix(1.00, 0.00, -0.00, -1.00, 108.3, 279.0)">c</text><text xml:space="preserve" font-family="Roboto-Regular,Roboto" font-size="30.0" fill="#424242" transform="matrix(1.00, 0.00, -0.00, -1.00, 124.2, 279.0)">t</text><text xml:space="preserve" font-family="Roboto-Regular,Roboto" font-size="30.0" fill="#424242" transform="matrix(1.00, 0.00, -0.00, -1.00, 134.6, 279.0)">u</text><text xml:space="preserve" font-family="Roboto-Regular,Roboto" font-size="30.0" fill="#424242" transform="matrix(1.00, 0.00, -0.00, -1.00, 151.6, 279.0)">r</text><text xml:space="preserve" font-family="Roboto-Regular,Roboto" font-size="30.0" fill="#424242" transform="matrix(1.00, 0.00, -0.00, -1.00, 161.6, 279.0)">e</text><text xml:space="preserve" font-family="Roboto-Regular,Roboto" font-size="30.0" fill="#424242" transform="matrix(1.00, 0.00, -0.00, -1.00, 177.5, 279.0)"> </text><text xml:space="preserve" font-family="Roboto-Regular,Roboto" font-size="30.0" fill="#424242" transform="matrix(1.00, 0.00, -0.00, -1.00, 184.9, 279.0)">m</text><text xml:space="preserve" font-family="Roboto-Regular,Roboto" font-size="30.0" fill="#424242" transform="matrix(1.00, 0.00, -0.00, -1.00, 211.2, 279.0)">y</text><text xml:space="preserve" font-family="Roboto-Regular,Roboto" font-size="30.0" fill="#424242" transform="matrix(1.00, 0.00, -0.00, -1.00, 226.2, 279.0)"> </text><text xml:space="preserve" font-family="Roboto-Regular,Roboto" font-size="30.0" fill="#424242" transform="matrix(1.00, 0.00, -0.00, -1.00, 233.7, 279.0)">l</text><text xml:space="preserve" font-family="Roboto-Regular,Roboto" font-size="30.0" fill="#424242" transform="matrix(1.00, 0.00, -0.00, -1.00, 241.2, 279.0)">o</text><text xml:space="preserve" font-family="Roboto-Regular,Roboto" font-size="30.0" fill="#424242" transform="matrix(1.00, 0.00, -0.00, -1.00, 258.3, 279.0)">g</text><text xml:space="preserve" font-family="Roboto-Regular,Roboto" font-size="30.0" fill="#424242" transform="matrix(1.00, 0.00, -0.00, -1.00, 275.4, 279.0)">i</text><text xml:space="preserve" font-family="Roboto-Regular,Roboto" font-size="30.0" fill="#424242" transform="matrix(1.00, 0.00, -0.00, -1.00, 282.9, 279.0)">c</text><text xml:space="preserve" font-family="Roboto-Bold,Roboto" font-weight="bold" font-size="80.0" fill="#424242" transform="matrix(1.00, 0.00, -0.00, -1.00, 161.3, 924.1)">I</text><text xml:space="preserve" font-family="Roboto-Bold,Roboto" font-weight="bold" font-size="80.0" fill="#424242" transform="matrix(1.00, 0.00, -0.00, -1.00, 184.8, 924.1)">n</text><text xml:space="preserve" font-family="Roboto-Bold,Roboto" font-weight="bold" font-size="80.0" fill="#424242" transform="matrix(1.00, 0.00, -0.00, -1.00, 230.0, 924.1)">t</text><text xml:space="preserve" font-family="Roboto-Bold,Roboto" font-weight="bold" font-size="80.0" fill="#424242" transform="matrix(1.00, 0.00, -0.00, -1.00, 257.9, 924.1)">e</text><text xml:space="preserve" font-family="Roboto-Bold,Roboto" font-weight="bold" font-size="80.0" fill="#424242" transform="matrix(1.00, 0.00, -0.00, -1.00, 300.3, 924.1)">r</text><text xml:space="preserve" font-family="Roboto-Bold,Roboto" font-weight="bold" font-size="80.0" fill="#424242" transform="matrix(1.00, 0.00, -0.00, -1.00, 328.3, 924.1)">o</text><text xml:space="preserve" font-family="Roboto-Bold,Roboto" font-weight="bold" font-size="80.0" fill="#424242" transform="matrix(1.00, 0.00, -0.00, -1.00, 373.5, 924.1)">p</text><text xml:space="preserve" font-family="Roboto-Bold,Roboto" font-weight="bold" font-size="80.0" fill="#424242" transform="matrix(1.00, 0.00, -0.00, -1.00, 418.7, 924.1)">e</text><text xml:space="preserve" font-family="Roboto-Bold,Roboto" font-weight="bold" font-size="80.0" fill="#424242" transform="matrix(1.00, 0.00, -0.00, -1.00, 461.1, 924.1)">r</text><text xml:space="preserve" font-family="Roboto-Bold,Roboto" font-weight="bold" font-size="80.0" fill="#424242" transform="matrix(1.00, 0.00, -0.00, -1.00, 489.1, 924.1)">a</text><text xml:space="preserve" font-family="Roboto-Bold,Roboto" font-weight="bold" font-size="80.0" fill="#424242" transform="matrix(1.00, 0.00, -0.00, -1.00, 532.1, 924.1)">t</text><text xml:space="preserve" font-family="Roboto-Bold,Roboto" font-weight="bold" font-size="80.0" fill="#424242" transform="matrix(1.00, 0.00, -0.00, -1.00, 560.0, 924.1)">e</text><text xml:space="preserve" font-family="Roboto-Bold,Roboto" font-weight="bold" font-size="80.0" fill="#424242" transform="matrix(1.00, 0.00, -0.00, -1.00, 602.4, 924.1)">,</text><text xml:space="preserve" font-family="Roboto-Bold,Roboto" font-weight="bold" font-size="80.0" fill="#424242" transform="matrix(1.00, 0.00, -0.00, -1.00, 623.0, 924.1)"> </text><text xml:space="preserve" font-family="Roboto-Bold,Roboto" font-weight="bold" font-size="80.0" fill="#424242" transform="matrix(1.00, 0.00, -0.00, -1.00, 642.9, 924.1)">d</text><text xml:space="preserve" font-family="Roboto-Bold,Roboto" font-weight="bold" font-size="80.0" fill="#424242" transform="matrix(1.00, 0.00, -0.00, -1.00, 688.1, 924.1)">o</text><text xml:space="preserve" font-family="Roboto-Bold,Roboto" font-weight="bold" font-size="80.0" fill="#424242" transform="matrix(1.00, 0.00, -0.00, -1.00, 733.3, 924.1)">n</text><text xml:space="preserve" font-family="Roboto-Bold,Roboto" font-weight="bold" font-size="80.0" fill="#424242" transform="matrix(1.00, 0.00, -0.00, -1.00, 776.3, 924.1)">’</text><text xml:space="preserve" font-family="Roboto-Bold,Roboto" font-weight="bold" font-size="80.0" fill="#424242" transform="matrix(1.00, 0.00, -0.00, -1.00, 792.1, 924.1)">t</text><text xml:space="preserve" font-family="Roboto-Bold,Roboto" font-weight="bold" font-size="80.0" fill="#424242" transform="matrix(1.00, 0.00, -0.00, -1.00, 820.0, 924.1)"> </text><text xml:space="preserve" font-family="Roboto-Bold,Roboto" font-weight="bold" font-size="80.0" fill="#424242" transform="matrix(1.00, 0.00, -0.00, -1.00, 840.0, 924.1)">d</text><text xml:space="preserve" font-family="Roboto-Bold,Roboto" font-weight="bold" font-size="80.0" fill="#424242" transform="matrix(1.00, 0.00, -0.00, -1.00, 885.2, 924.1)">i</text><text xml:space="preserve" font-family="Roboto-Bold,Roboto" font-weight="bold" font-size="80.0" fill="#424242" transform="matrix(1.00, 0.00, -0.00, -1.00, 906.5, 924.1)">c</text><text xml:space="preserve" font-family="Roboto-Bold,Roboto" font-weight="bold" font-size="80.0" fill="#424242" transform="matrix(1.00, 0.00, -0.00, -1.00, 947.9, 924.1)">t</text><text xml:space="preserve" font-family="Roboto-Bold,Roboto" font-weight="bold" font-size="80.0" fill="#424242" transform="matrix(1.00, 0.00, -0.00, -1.00, 975.8, 924.1)">a</text><text xml:space="preserve" font-family="Roboto-Bold,Roboto" font-weight="bold" font-size="80.0" fill="#424242" transform="matrix(1.00, 0.00, -0.00, -1.00, 1018.8, 924.1)">t</text><text xml:space="preserve" font-family="Roboto-Bold,Roboto" font-weight="bold" font-size="80.0" fill="#424242" transform="matrix(1.00, 0.00, -0.00, -1.00, 1046.8, 924.1)">e</text><image xlink:href="../../F6EE5EB5-35E5-42D6-8D80-56C5DA967E8A/assets/CE7AA21EABE07957349ED28E9B5C97BD.png" width="600.00" height="142.00" transform="matrix(0.67, 0.00, -0.00, -0.67, 887.5, 439.0)"></image></g></svg>