<?xml version="1.0" encoding="UTF-8" standalone="no"?><svg xmlns="http://www.w3.org/2000/svg" xmlns:xlink="http://www.w3.org/1999/xlink" clip-rule="evenodd" stroke-miterlimit="10" viewBox="0 0 1920 1080"><desc>SVG generated by Keynote</desc><defs></defs><g transform="matrix(1.00, 0.00, -0.00, -1.00, 0.0, 1080.0)"><path d="M 0.0 1080.0 L 1920.0 1080.0 L 1920.0 0.0 L 0.0 0.0 Z M 0.0 1080.0 " fill="#FDFDFD"></path><image xlink:href="E8C089E4ABA334D2B5E061D3EE0C984A.png" width="446.00" height="136.00" transform="matrix(2.28, 0.00, -0.00, -2.28, 426.2, 869.6)"></image><path d="M 424.5 216.9 L 424.0 541.1 C 424.0 544.7 427.4 548.0 431.0 548.0 L 1435.5 548.0 C 1439.1 548.0 1442.0 544.7 1442.0 541.1 L 1442.0 216.9 C 1442.0 213.3 1439.1 210.0 1435.5 210.0 L 431.0 210.0 C 427.4 210.0 424.5 213.3 424.5 216.9 Z M 424.5 216.9 " fill="#E7E7E7"></path><g><clipPath id="clip0x6000022b6980"><path d="M 424.5 210.4 L 1442.0 210.4 L 1442.0 547.6 L 424.5 547.6 Z M 424.5 210.4 "></path></clipPath><g clip-path="url(#clip0x6000022b6980)"><text xml:space="preserve" font-family=".LucidaGrandeUI,.Lucida Grande UI" font-size="40.0" fill="#4185F4" transform="matrix(1.00, 0.00, -0.00, -1.00, 444.5, 481.5)">&lt;</text><text xml:space="preserve" font-family=".LucidaGrandeUI,.Lucida Grande UI" font-size="40.0" fill="#4185F4" transform="matrix(1.00, 0.00, -0.00, -1.00, 476.3, 481.5)">p</text><text xml:space="preserve" font-family=".LucidaGrandeUI,.Lucida Grande UI" font-size="40.0" fill="#4185F4" transform="matrix(1.00, 0.00, -0.00, -1.00, 501.5, 481.5)">a</text><text xml:space="preserve" font-family=".LucidaGrandeUI,.Lucida Grande UI" font-size="40.0" fill="#4185F4" transform="matrix(1.00, 0.00, -0.00, -1.00, 523.6, 481.5)">p</text><text xml:space="preserve" font-family=".LucidaGrandeUI,.Lucida Grande UI" font-size="40.0" fill="#4185F4" transform="matrix(1.00, 0.00, -0.00, -1.00, 548.8, 481.5)">e</text><text xml:space="preserve" font-family=".LucidaGrandeUI,.Lucida Grande UI" font-size="40.0" fill="#4185F4" transform="matrix(1.00, 0.00, -0.00, -1.00, 571.1, 481.5)">r</text><text xml:space="preserve" font-family=".LucidaGrandeUI,.Lucida Grande UI" font-size="40.0" fill="#4185F4" transform="matrix(1.00, 0.00, -0.00, -1.00, 587.4, 481.5)">-</text><text xml:space="preserve" font-family=".LucidaGrandeUI,.Lucida Grande UI" font-size="40.0" fill="#4185F4" transform="matrix(1.00, 0.00, -0.00, -1.00, 610.6, 481.5)">i</text><text xml:space="preserve" font-family=".LucidaGrandeUI,.Lucida Grande UI" font-size="40.0" fill="#4185F4" transform="matrix(1.00, 0.00, -0.00, -1.00, 622.1, 481.5)">n</text><text xml:space="preserve" font-family=".LucidaGrandeUI,.Lucida Grande UI" font-size="40.0" fill="#4185F4" transform="matrix(1.00, 0.00, -0.00, -1.00, 647.0, 481.5)">p</text><text xml:space="preserve" font-family=".LucidaGrandeUI,.Lucida Grande UI" font-size="40.0" fill="#4185F4" transform="matrix(1.00, 0.00, -0.00, -1.00, 672.2, 481.5)">u</text><text xml:space="preserve" font-family=".LucidaGrandeUI,.Lucida Grande UI" font-size="40.0" fill="#4185F4" transform="matrix(1.00, 0.00, -0.00, -1.00, 697.0, 481.5)">t</text><text xml:space="preserve" font-family=".LucidaGrandeUI,.Lucida Grande UI" font-size="40.0" fill="#000000" transform="matrix(1.00, 0.00, -0.00, -1.00, 711.9, 481.5)"> </text><text xml:space="preserve" font-family=".LucidaGrandeUI,.Lucida Grande UI" font-size="40.0" fill="#E82663" transform="matrix(1.00, 0.00, -0.00, -1.00, 724.5, 481.5)">ﬂ</text><text xml:space="preserve" font-family=".LucidaGrandeUI,.Lucida Grande UI" font-size="40.0" fill="#E82663" transform="matrix(1.00, 0.00, -0.00, -1.00, 750.4, 481.5)">o</text><text xml:space="preserve" font-family=".LucidaGrandeUI,.Lucida Grande UI" font-size="40.0" fill="#E82663" transform="matrix(1.00, 0.00, -0.00, -1.00, 775.0, 481.5)">a</text><text xml:space="preserve" font-family=".LucidaGrandeUI,.Lucida Grande UI" font-size="40.0" fill="#E82663" transform="matrix(1.00, 0.00, -0.00, -1.00, 797.1, 481.5)">t</text><text xml:space="preserve" font-family=".LucidaGrandeUI,.Lucida Grande UI" font-size="40.0" fill="#E82663" transform="matrix(1.00, 0.00, -0.00, -1.00, 812.1, 481.5)">i</text><text xml:space="preserve" font-family=".LucidaGrandeUI,.Lucida Grande UI" font-size="40.0" fill="#E82663" transform="matrix(1.00, 0.00, -0.00, -1.00, 823.7, 481.5)">n</text><text xml:space="preserve" font-family=".LucidaGrandeUI,.Lucida Grande UI" font-size="40.0" fill="#E82663" transform="matrix(1.00, 0.00, -0.00, -1.00, 848.5, 481.5)">g</text><text xml:space="preserve" font-family=".LucidaGrandeUI,.Lucida Grande UI" font-size="40.0" fill="#E82663" transform="matrix(1.00, 0.00, -0.00, -1.00, 873.4, 481.5)">l</text><text xml:space="preserve" font-family=".LucidaGrandeUI,.Lucida Grande UI" font-size="40.0" fill="#E82663" transform="matrix(1.00, 0.00, -0.00, -1.00, 885.0, 481.5)">a</text><text xml:space="preserve" font-family=".LucidaGrandeUI,.Lucida Grande UI" font-size="40.0" fill="#E82663" transform="matrix(1.00, 0.00, -0.00, -1.00, 907.0, 481.5)">b</text><text xml:space="preserve" font-family=".LucidaGrandeUI,.Lucida Grande UI" font-size="40.0" fill="#E82663" transform="matrix(1.00, 0.00, -0.00, -1.00, 932.2, 481.5)">e</text><text xml:space="preserve" font-family=".LucidaGrandeUI,.Lucida Grande UI" font-size="40.0" fill="#E82663" transform="matrix(1.00, 0.00, -0.00, -1.00, 954.5, 481.5)">l</text><text xml:space="preserve" font-family=".LucidaGrandeUI,.Lucida Grande UI" font-size="40.0" fill="#000000" transform="matrix(1.00, 0.00, -0.00, -1.00, 966.1, 481.5)"></text><text xml:space="preserve" font-family=".LucidaGrandeUI,.Lucida Grande UI" font-size="40.0" fill="#000000" transform="matrix(1.00, 0.00, -0.00, -1.00, 444.5, 425.1)"> </text><text xml:space="preserve" font-family=".LucidaGrandeUI,.Lucida Grande UI" font-size="40.0" fill="#000000" transform="matrix(1.00, 0.00, -0.00, -1.00, 457.2, 425.1)"> </text><text xml:space="preserve" font-family=".LucidaGrandeUI,.Lucida Grande UI" font-size="40.0" fill="#E82663" transform="matrix(1.00, 0.00, -0.00, -1.00, 469.8, 425.1)">l</text><text xml:space="preserve" font-family=".LucidaGrandeUI,.Lucida Grande UI" font-size="40.0" fill="#E82663" transform="matrix(1.00, 0.00, -0.00, -1.00, 481.4, 425.1)">a</text><text xml:space="preserve" font-family=".LucidaGrandeUI,.Lucida Grande UI" font-size="40.0" fill="#E82663" transform="matrix(1.00, 0.00, -0.00, -1.00, 503.5, 425.1)">b</text><text xml:space="preserve" font-family=".LucidaGrandeUI,.Lucida Grande UI" font-size="40.0" fill="#E82663" transform="matrix(1.00, 0.00, -0.00, -1.00, 528.6, 425.1)">e</text><text xml:space="preserve" font-family=".LucidaGrandeUI,.Lucida Grande UI" font-size="40.0" fill="#E82663" transform="matrix(1.00, 0.00, -0.00, -1.00, 550.9, 425.1)">l</text><text xml:space="preserve" font-family=".LucidaGrandeUI,.Lucida Grande UI" font-size="40.0" fill="#A3A3A3" transform="matrix(1.00, 0.00, -0.00, -1.00, 562.5, 425.1)">=</text><text xml:space="preserve" font-family=".LucidaGrandeUI,.Lucida Grande UI" font-size="40.0" fill="#0D9D57" transform="matrix(1.00, 0.00, -0.00, -1.00, 594.3, 425.1)">"</text><text xml:space="preserve" font-family=".LucidaGrandeUI,.Lucida Grande UI" font-size="40.0" fill="#0D9D57" transform="matrix(1.00, 0.00, -0.00, -1.00, 609.2, 425.1)">T</text><text xml:space="preserve" font-family=".LucidaGrandeUI,.Lucida Grande UI" font-size="40.0" fill="#0D9D57" transform="matrix(1.00, 0.00, -0.00, -1.00, 632.2, 425.1)">y</text><text xml:space="preserve" font-family=".LucidaGrandeUI,.Lucida Grande UI" font-size="40.0" fill="#0D9D57" transform="matrix(1.00, 0.00, -0.00, -1.00, 652.8, 425.1)">p</text><text xml:space="preserve" font-family=".LucidaGrandeUI,.Lucida Grande UI" font-size="40.0" fill="#0D9D57" transform="matrix(1.00, 0.00, -0.00, -1.00, 678.0, 425.1)">e</text><text xml:space="preserve" font-family=".LucidaGrandeUI,.Lucida Grande UI" font-size="40.0" fill="#0D9D57" transform="matrix(1.00, 0.00, -0.00, -1.00, 700.3, 425.1)"> </text><text xml:space="preserve" font-family=".LucidaGrandeUI,.Lucida Grande UI" font-size="40.0" fill="#0D9D57" transform="matrix(1.00, 0.00, -0.00, -1.00, 713.0, 425.1)">o</text><text xml:space="preserve" font-family=".LucidaGrandeUI,.Lucida Grande UI" font-size="40.0" fill="#0D9D57" transform="matrix(1.00, 0.00, -0.00, -1.00, 737.6, 425.1)">n</text><text xml:space="preserve" font-family=".LucidaGrandeUI,.Lucida Grande UI" font-size="40.0" fill="#0D9D57" transform="matrix(1.00, 0.00, -0.00, -1.00, 762.4, 425.1)">l</text><text xml:space="preserve" font-family=".LucidaGrandeUI,.Lucida Grande UI" font-size="40.0" fill="#0D9D57" transform="matrix(1.00, 0.00, -0.00, -1.00, 773.9, 425.1)">y</text><text xml:space="preserve" font-family=".LucidaGrandeUI,.Lucida Grande UI" font-size="40.0" fill="#0D9D57" transform="matrix(1.00, 0.00, -0.00, -1.00, 794.5, 425.1)"> </text><text xml:space="preserve" font-family=".LucidaGrandeUI,.Lucida Grande UI" font-size="40.0" fill="#0D9D57" transform="matrix(1.00, 0.00, -0.00, -1.00, 807.2, 425.1)">n</text><text xml:space="preserve" font-family=".LucidaGrandeUI,.Lucida Grande UI" font-size="40.0" fill="#0D9D57" transform="matrix(1.00, 0.00, -0.00, -1.00, 832.0, 425.1)">u</text><text xml:space="preserve" font-family=".LucidaGrandeUI,.Lucida Grande UI" font-size="40.0" fill="#0D9D57" transform="matrix(1.00, 0.00, -0.00, -1.00, 856.8, 425.1)">m</text><text xml:space="preserve" font-family=".LucidaGrandeUI,.Lucida Grande UI" font-size="40.0" fill="#0D9D57" transform="matrix(1.00, 0.00, -0.00, -1.00, 894.1, 425.1)">b</text><text xml:space="preserve" font-family=".LucidaGrandeUI,.Lucida Grande UI" font-size="40.0" fill="#0D9D57" transform="matrix(1.00, 0.00, -0.00, -1.00, 919.3, 425.1)">e</text><text xml:space="preserve" font-family=".LucidaGrandeUI,.Lucida Grande UI" font-size="40.0" fill="#0D9D57" transform="matrix(1.00, 0.00, -0.00, -1.00, 941.6, 425.1)">r</text><text xml:space="preserve" font-family=".LucidaGrandeUI,.Lucida Grande UI" font-size="40.0" fill="#0D9D57" transform="matrix(1.00, 0.00, -0.00, -1.00, 958.0, 425.1)">s</text><text xml:space="preserve" font-family=".LucidaGrandeUI,.Lucida Grande UI" font-size="40.0" fill="#0D9D57" transform="matrix(1.00, 0.00, -0.00, -1.00, 976.5, 425.1)">.</text><text xml:space="preserve" font-family=".LucidaGrandeUI,.Lucida Grande UI" font-size="40.0" fill="#0D9D57" transform="matrix(1.00, 0.00, -0.00, -1.00, 989.2, 425.1)">.</text><text xml:space="preserve" font-family=".LucidaGrandeUI,.Lucida Grande UI" font-size="40.0" fill="#0D9D57" transform="matrix(1.00, 0.00, -0.00, -1.00, 1001.8, 425.1)">.</text><text xml:space="preserve" font-family=".LucidaGrandeUI,.Lucida Grande UI" font-size="40.0" fill="#0D9D57" transform="matrix(1.00, 0.00, -0.00, -1.00, 1014.5, 425.1)"> </text><text xml:space="preserve" font-family=".LucidaGrandeUI,.Lucida Grande UI" font-size="40.0" fill="#0D9D57" transform="matrix(1.00, 0.00, -0.00, -1.00, 1027.2, 425.1)">(</text><text xml:space="preserve" font-family=".LucidaGrandeUI,.Lucida Grande UI" font-size="40.0" fill="#0D9D57" transform="matrix(1.00, 0.00, -0.00, -1.00, 1040.2, 425.1)">ﬂ</text><text xml:space="preserve" font-family=".LucidaGrandeUI,.Lucida Grande UI" font-size="40.0" fill="#0D9D57" transform="matrix(1.00, 0.00, -0.00, -1.00, 1066.1, 425.1)">o</text><text xml:space="preserve" font-family=".LucidaGrandeUI,.Lucida Grande UI" font-size="40.0" fill="#0D9D57" transform="matrix(1.00, 0.00, -0.00, -1.00, 1090.7, 425.1)">a</text><text xml:space="preserve" font-family=".LucidaGrandeUI,.Lucida Grande UI" font-size="40.0" fill="#0D9D57" transform="matrix(1.00, 0.00, -0.00, -1.00, 1112.8, 425.1)">t</text><text xml:space="preserve" font-family=".LucidaGrandeUI,.Lucida Grande UI" font-size="40.0" fill="#0D9D57" transform="matrix(1.00, 0.00, -0.00, -1.00, 1127.8, 425.1)">i</text><text xml:space="preserve" font-family=".LucidaGrandeUI,.Lucida Grande UI" font-size="40.0" fill="#0D9D57" transform="matrix(1.00, 0.00, -0.00, -1.00, 1139.3, 425.1)">n</text><text xml:space="preserve" font-family=".LucidaGrandeUI,.Lucida Grande UI" font-size="40.0" fill="#0D9D57" transform="matrix(1.00, 0.00, -0.00, -1.00, 1164.1, 425.1)">g</text><text xml:space="preserve" font-family=".LucidaGrandeUI,.Lucida Grande UI" font-size="40.0" fill="#0D9D57" transform="matrix(1.00, 0.00, -0.00, -1.00, 1189.1, 425.1)">)</text><text xml:space="preserve" font-family=".LucidaGrandeUI,.Lucida Grande UI" font-size="40.0" fill="#0D9D57" transform="matrix(1.00, 0.00, -0.00, -1.00, 1202.1, 425.1)">"</text><text xml:space="preserve" font-family=".LucidaGrandeUI,.Lucida Grande UI" font-size="40.0" fill="#000000" transform="matrix(1.00, 0.00, -0.00, -1.00, 1216.9, 425.1)"></text><text xml:space="preserve" font-family=".LucidaGrandeUI,.Lucida Grande UI" font-size="40.0" fill="#000000" transform="matrix(1.00, 0.00, -0.00, -1.00, 444.5, 368.7)"> </text><text xml:space="preserve" font-family=".LucidaGrandeUI,.Lucida Grande UI" font-size="40.0" fill="#000000" transform="matrix(1.00, 0.00, -0.00, -1.00, 457.2, 368.7)"> </text><text xml:space="preserve" font-family=".LucidaGrandeUI,.Lucida Grande UI" font-size="40.0" fill="#E82663" transform="matrix(1.00, 0.00, -0.00, -1.00, 469.8, 368.7)">v</text><text xml:space="preserve" font-family=".LucidaGrandeUI,.Lucida Grande UI" font-size="40.0" fill="#E82663" transform="matrix(1.00, 0.00, -0.00, -1.00, 490.4, 368.7)">a</text><text xml:space="preserve" font-family=".LucidaGrandeUI,.Lucida Grande UI" font-size="40.0" fill="#E82663" transform="matrix(1.00, 0.00, -0.00, -1.00, 512.5, 368.7)">l</text><text xml:space="preserve" font-family=".LucidaGrandeUI,.Lucida Grande UI" font-size="40.0" fill="#E82663" transform="matrix(1.00, 0.00, -0.00, -1.00, 524.0, 368.7)">i</text><text xml:space="preserve" font-family=".LucidaGrandeUI,.Lucida Grande UI" font-size="40.0" fill="#E82663" transform="matrix(1.00, 0.00, -0.00, -1.00, 535.6, 368.7)">d</text><text xml:space="preserve" font-family=".LucidaGrandeUI,.Lucida Grande UI" font-size="40.0" fill="#E82663" transform="matrix(1.00, 0.00, -0.00, -1.00, 560.8, 368.7)">a</text><text xml:space="preserve" font-family=".LucidaGrandeUI,.Lucida Grande UI" font-size="40.0" fill="#E82663" transform="matrix(1.00, 0.00, -0.00, -1.00, 582.9, 368.7)">t</text><text xml:space="preserve" font-family=".LucidaGrandeUI,.Lucida Grande UI" font-size="40.0" fill="#E82663" transform="matrix(1.00, 0.00, -0.00, -1.00, 597.9, 368.7)">e</text><text xml:space="preserve" font-family=".LucidaGrandeUI,.Lucida Grande UI" font-size="40.0" fill="#A3A3A3" transform="matrix(1.00, 0.00, -0.00, -1.00, 620.1, 368.7)">=</text><text xml:space="preserve" font-family=".LucidaGrandeUI,.Lucida Grande UI" font-size="40.0" fill="#0D9D57" transform="matrix(1.00, 0.00, -0.00, -1.00, 651.9, 368.7)">"</text><text xml:space="preserve" font-family=".LucidaGrandeUI,.Lucida Grande UI" font-size="40.0" fill="#0D9D57" transform="matrix(1.00, 0.00, -0.00, -1.00, 666.8, 368.7)">^</text><text xml:space="preserve" font-family=".LucidaGrandeUI,.Lucida Grande UI" font-size="40.0" fill="#0D9D57" transform="matrix(1.00, 0.00, -0.00, -1.00, 692.1, 368.7)">[</text><text xml:space="preserve" font-family=".LucidaGrandeUI,.Lucida Grande UI" font-size="40.0" fill="#0D9D57" transform="matrix(1.00, 0.00, -0.00, -1.00, 705.2, 368.7)">0</text><text xml:space="preserve" font-family=".LucidaGrandeUI,.Lucida Grande UI" font-size="40.0" fill="#0D9D57" transform="matrix(1.00, 0.00, -0.00, -1.00, 730.5, 368.7)">-</text><text xml:space="preserve" font-family=".LucidaGrandeUI,.Lucida Grande UI" font-size="40.0" fill="#0D9D57" transform="matrix(1.00, 0.00, -0.00, -1.00, 753.6, 368.7)">9</text><text xml:space="preserve" font-family=".LucidaGrandeUI,.Lucida Grande UI" font-size="40.0" fill="#0D9D57" transform="matrix(1.00, 0.00, -0.00, -1.00, 778.9, 368.7)">]</text><text xml:space="preserve" font-family=".LucidaGrandeUI,.Lucida Grande UI" font-size="40.0" fill="#0D9D57" transform="matrix(1.00, 0.00, -0.00, -1.00, 792.0, 368.7)">*</text><text xml:space="preserve" font-family=".LucidaGrandeUI,.Lucida Grande UI" font-size="40.0" fill="#0D9D57" transform="matrix(1.00, 0.00, -0.00, -1.00, 811.2, 368.7)">$</text><text xml:space="preserve" font-family=".LucidaGrandeUI,.Lucida Grande UI" font-size="40.0" fill="#0D9D57" transform="matrix(1.00, 0.00, -0.00, -1.00, 836.5, 368.7)">"</text><text xml:space="preserve" font-family=".LucidaGrandeUI,.Lucida Grande UI" font-size="40.0" fill="#000000" transform="matrix(1.00, 0.00, -0.00, -1.00, 851.4, 368.7)"></text><text xml:space="preserve" font-family=".LucidaGrandeUI,.Lucida Grande UI" font-size="40.0" fill="#000000" transform="matrix(1.00, 0.00, -0.00, -1.00, 444.5, 312.3)"> </text><text xml:space="preserve" font-family=".LucidaGrandeUI,.Lucida Grande UI" font-size="40.0" fill="#000000" transform="matrix(1.00, 0.00, -0.00, -1.00, 457.2, 312.3)"> </text><text xml:space="preserve" font-family=".LucidaGrandeUI,.Lucida Grande UI" font-size="40.0" fill="#E82663" transform="matrix(1.00, 0.00, -0.00, -1.00, 469.8, 312.3)">e</text><text xml:space="preserve" font-family=".LucidaGrandeUI,.Lucida Grande UI" font-size="40.0" fill="#E82663" transform="matrix(1.00, 0.00, -0.00, -1.00, 492.1, 312.3)">r</text><text xml:space="preserve" font-family=".LucidaGrandeUI,.Lucida Grande UI" font-size="40.0" fill="#E82663" transform="matrix(1.00, 0.00, -0.00, -1.00, 508.5, 312.3)">r</text><text xml:space="preserve" font-family=".LucidaGrandeUI,.Lucida Grande UI" font-size="40.0" fill="#E82663" transform="matrix(1.00, 0.00, -0.00, -1.00, 524.8, 312.3)">o</text><text xml:space="preserve" font-family=".LucidaGrandeUI,.Lucida Grande UI" font-size="40.0" fill="#E82663" transform="matrix(1.00, 0.00, -0.00, -1.00, 549.4, 312.3)">r</text><text xml:space="preserve" font-family=".LucidaGrandeUI,.Lucida Grande UI" font-size="40.0" fill="#A3A3A3" transform="matrix(1.00, 0.00, -0.00, -1.00, 565.8, 312.3)">=</text><text xml:space="preserve" font-family=".LucidaGrandeUI,.Lucida Grande UI" font-size="40.0" fill="#0D9D57" transform="matrix(1.00, 0.00, -0.00, -1.00, 597.6, 312.3)">"</text><text xml:space="preserve" font-family=".LucidaGrandeUI,.Lucida Grande UI" font-size="40.0" fill="#0D9D57" transform="matrix(1.00, 0.00, -0.00, -1.00, 612.5, 312.3)">I</text><text xml:space="preserve" font-family=".LucidaGrandeUI,.Lucida Grande UI" font-size="40.0" fill="#0D9D57" transform="matrix(1.00, 0.00, -0.00, -1.00, 624.0, 312.3)">n</text><text xml:space="preserve" font-family=".LucidaGrandeUI,.Lucida Grande UI" font-size="40.0" fill="#0D9D57" transform="matrix(1.00, 0.00, -0.00, -1.00, 648.8, 312.3)">p</text><text xml:space="preserve" font-family=".LucidaGrandeUI,.Lucida Grande UI" font-size="40.0" fill="#0D9D57" transform="matrix(1.00, 0.00, -0.00, -1.00, 674.0, 312.3)">u</text><text xml:space="preserve" font-family=".LucidaGrandeUI,.Lucida Grande UI" font-size="40.0" fill="#0D9D57" transform="matrix(1.00, 0.00, -0.00, -1.00, 698.8, 312.3)">t</text><text xml:space="preserve" font-family=".LucidaGrandeUI,.Lucida Grande UI" font-size="40.0" fill="#0D9D57" transform="matrix(1.00, 0.00, -0.00, -1.00, 713.8, 312.3)"> </text><text xml:space="preserve" font-family=".LucidaGrandeUI,.Lucida Grande UI" font-size="40.0" fill="#0D9D57" transform="matrix(1.00, 0.00, -0.00, -1.00, 726.4, 312.3)">i</text><text xml:space="preserve" font-family=".LucidaGrandeUI,.Lucida Grande UI" font-size="40.0" fill="#0D9D57" transform="matrix(1.00, 0.00, -0.00, -1.00, 738.0, 312.3)">s</text><text xml:space="preserve" font-family=".LucidaGrandeUI,.Lucida Grande UI" font-size="40.0" fill="#0D9D57" transform="matrix(1.00, 0.00, -0.00, -1.00, 756.5, 312.3)"> </text><text xml:space="preserve" font-family=".LucidaGrandeUI,.Lucida Grande UI" font-size="40.0" fill="#0D9D57" transform="matrix(1.00, 0.00, -0.00, -1.00, 769.2, 312.3)">n</text><text xml:space="preserve" font-family=".LucidaGrandeUI,.Lucida Grande UI" font-size="40.0" fill="#0D9D57" transform="matrix(1.00, 0.00, -0.00, -1.00, 794.0, 312.3)">o</text><text xml:space="preserve" font-family=".LucidaGrandeUI,.Lucida Grande UI" font-size="40.0" fill="#0D9D57" transform="matrix(1.00, 0.00, -0.00, -1.00, 818.6, 312.3)">t</text><text xml:space="preserve" font-family=".LucidaGrandeUI,.Lucida Grande UI" font-size="40.0" fill="#0D9D57" transform="matrix(1.00, 0.00, -0.00, -1.00, 833.5, 312.3)"> </text><text xml:space="preserve" font-family=".LucidaGrandeUI,.Lucida Grande UI" font-size="40.0" fill="#0D9D57" transform="matrix(1.00, 0.00, -0.00, -1.00, 846.2, 312.3)">a</text><text xml:space="preserve" font-family=".LucidaGrandeUI,.Lucida Grande UI" font-size="40.0" fill="#0D9D57" transform="matrix(1.00, 0.00, -0.00, -1.00, 868.3, 312.3)"> </text><text xml:space="preserve" font-family=".LucidaGrandeUI,.Lucida Grande UI" font-size="40.0" fill="#0D9D57" transform="matrix(1.00, 0.00, -0.00, -1.00, 881.0, 312.3)">n</text><text xml:space="preserve" font-family=".LucidaGrandeUI,.Lucida Grande UI" font-size="40.0" fill="#0D9D57" transform="matrix(1.00, 0.00, -0.00, -1.00, 905.8, 312.3)">u</text><text xml:space="preserve" font-family=".LucidaGrandeUI,.Lucida Grande UI" font-size="40.0" fill="#0D9D57" transform="matrix(1.00, 0.00, -0.00, -1.00, 930.6, 312.3)">m</text><text xml:space="preserve" font-family=".LucidaGrandeUI,.Lucida Grande UI" font-size="40.0" fill="#0D9D57" transform="matrix(1.00, 0.00, -0.00, -1.00, 967.9, 312.3)">b</text><text xml:space="preserve" font-family=".LucidaGrandeUI,.Lucida Grande UI" font-size="40.0" fill="#0D9D57" transform="matrix(1.00, 0.00, -0.00, -1.00, 993.1, 312.3)">e</text><text xml:space="preserve" font-family=".LucidaGrandeUI,.Lucida Grande UI" font-size="40.0" fill="#0D9D57" transform="matrix(1.00, 0.00, -0.00, -1.00, 1015.4, 312.3)">r</text><text xml:space="preserve" font-family=".LucidaGrandeUI,.Lucida Grande UI" font-size="40.0" fill="#0D9D57" transform="matrix(1.00, 0.00, -0.00, -1.00, 1031.8, 312.3)">!</text><text xml:space="preserve" font-family=".LucidaGrandeUI,.Lucida Grande UI" font-size="40.0" fill="#0D9D57" transform="matrix(1.00, 0.00, -0.00, -1.00, 1044.9, 312.3)">"</text><text xml:space="preserve" font-family=".LucidaGrandeUI,.Lucida Grande UI" font-size="40.0" fill="#4185F4" transform="matrix(1.00, 0.00, -0.00, -1.00, 1059.8, 312.3)">&gt;</text><text xml:space="preserve" font-family=".LucidaGrandeUI,.Lucida Grande UI" font-size="40.0" fill="#000000" transform="matrix(1.00, 0.00, -0.00, -1.00, 1091.6, 312.3)"></text><text xml:space="preserve" font-family=".LucidaGrandeUI,.Lucida Grande UI" font-size="40.0" fill="#4185F4" transform="matrix(1.00, 0.00, -0.00, -1.00, 444.5, 255.9)">&lt;</text><text xml:space="preserve" font-family=".LucidaGrandeUI,.Lucida Grande UI" font-size="40.0" fill="#4185F4" transform="matrix(1.00, 0.00, -0.00, -1.00, 476.3, 255.9)">/</text><text xml:space="preserve" font-family=".LucidaGrandeUI,.Lucida Grande UI" font-size="40.0" fill="#4185F4" transform="matrix(1.00, 0.00, -0.00, -1.00, 497.3, 255.9)">p</text><text xml:space="preserve" font-family=".LucidaGrandeUI,.Lucida Grande UI" font-size="40.0" fill="#4185F4" transform="matrix(1.00, 0.00, -0.00, -1.00, 522.5, 255.9)">a</text><text xml:space="preserve" font-family=".LucidaGrandeUI,.Lucida Grande UI" font-size="40.0" fill="#4185F4" transform="matrix(1.00, 0.00, -0.00, -1.00, 544.6, 255.9)">p</text><text xml:space="preserve" font-family=".LucidaGrandeUI,.Lucida Grande UI" font-size="40.0" fill="#4185F4" transform="matrix(1.00, 0.00, -0.00, -1.00, 569.8, 255.9)">e</text><text xml:space="preserve" font-family=".LucidaGrandeUI,.Lucida Grande UI" font-size="40.0" fill="#4185F4" transform="matrix(1.00, 0.00, -0.00, -1.00, 592.0, 255.9)">r</text><text xml:space="preserve" font-family=".LucidaGrandeUI,.Lucida Grande UI" font-size="40.0" fill="#4185F4" transform="matrix(1.00, 0.00, -0.00, -1.00, 608.4, 255.9)">-</text><text xml:space="preserve" font-family=".LucidaGrandeUI,.Lucida Grande UI" font-size="40.0" fill="#4185F4" transform="matrix(1.00, 0.00, -0.00, -1.00, 631.5, 255.9)">i</text><text xml:space="preserve" font-family=".LucidaGrandeUI,.Lucida Grande UI" font-size="40.0" fill="#4185F4" transform="matrix(1.00, 0.00, -0.00, -1.00, 643.1, 255.9)">n</text><text xml:space="preserve" font-family=".LucidaGrandeUI,.Lucida Grande UI" font-size="40.0" fill="#4185F4" transform="matrix(1.00, 0.00, -0.00, -1.00, 667.9, 255.9)">p</text><text xml:space="preserve" font-family=".LucidaGrandeUI,.Lucida Grande UI" font-size="40.0" fill="#4185F4" transform="matrix(1.00, 0.00, -0.00, -1.00, 693.1, 255.9)">u</text><text xml:space="preserve" font-family=".LucidaGrandeUI,.Lucida Grande UI" font-size="40.0" fill="#4185F4" transform="matrix(1.00, 0.00, -0.00, -1.00, 717.9, 255.9)">t</text><text xml:space="preserve" font-family=".LucidaGrandeUI,.Lucida Grande UI" font-size="40.0" fill="#4185F4" transform="matrix(1.00, 0.00, -0.00, -1.00, 732.9, 255.9)">&gt;</text></g></g></g></svg>