<?xml version="1.0" encoding="UTF-8" standalone="no"?><svg xmlns="http://www.w3.org/2000/svg" xmlns:xlink="http://www.w3.org/1999/xlink" clip-rule="evenodd" stroke-miterlimit="10" viewBox="0 0 1920 1080"><desc>SVG generated by Keynote</desc><defs></defs><g transform="matrix(1.00, 0.00, -0.00, -1.00, 0.0, 1080.0)"><path d="M 0.0 1080.0 L 1920.0 1080.0 L 1920.0 0.0 L 0.0 0.0 Z M 0.0 1080.0 " fill="#FDFDFD"></path><text xml:space="preserve" font-family="RobotoCondensed-Bold,Roboto Condensed" font-weight="bold" font-size="41.0" fill="#404040" transform="matrix(1.00, 0.00, -0.00, -1.00, 202.9, 690.5)">d</text><text xml:space="preserve" font-family="RobotoCondensed-Bold,Roboto Condensed" font-weight="bold" font-size="41.0" fill="#404040" transform="matrix(1.00, 0.00, -0.00, -1.00, 222.8, 690.5)">e</text><text xml:space="preserve" font-family="RobotoCondensed-Bold,Roboto Condensed" font-weight="bold" font-size="41.0" fill="#404040" transform="matrix(1.00, 0.00, -0.00, -1.00, 241.6, 690.5)">c</text><text xml:space="preserve" font-family="RobotoCondensed-Bold,Roboto Condensed" font-weight="bold" font-size="41.0" fill="#404040" transform="matrix(1.00, 0.00, -0.00, -1.00, 259.9, 690.5)">l</text><text xml:space="preserve" font-family="RobotoCondensed-Bold,Roboto Condensed" font-weight="bold" font-size="41.0" fill="#404040" transform="matrix(1.00, 0.00, -0.00, -1.00, 269.7, 690.5)">a</text><text xml:space="preserve" font-family="RobotoCondensed-Bold,Roboto Condensed" font-weight="bold" font-size="41.0" fill="#404040" transform="matrix(1.00, 0.00, -0.00, -1.00, 288.6, 690.5)">r</text><text xml:space="preserve" font-family="RobotoCondensed-Bold,Roboto Condensed" font-weight="bold" font-size="41.0" fill="#404040" transform="matrix(1.00, 0.00, -0.00, -1.00, 301.7, 690.5)">a</text><text xml:space="preserve" font-family="RobotoCondensed-Bold,Roboto Condensed" font-weight="bold" font-size="41.0" fill="#404040" transform="matrix(1.00, 0.00, -0.00, -1.00, 320.6, 690.5)">t</text><text xml:space="preserve" font-family="RobotoCondensed-Bold,Roboto Condensed" font-weight="bold" font-size="41.0" fill="#404040" transform="matrix(1.00, 0.00, -0.00, -1.00, 333.6, 690.5)">i</text><text xml:space="preserve" font-family="RobotoCondensed-Bold,Roboto Condensed" font-weight="bold" font-size="41.0" fill="#404040" transform="matrix(1.00, 0.00, -0.00, -1.00, 343.5, 690.5)">v</text><text xml:space="preserve" font-family="RobotoCondensed-Bold,Roboto Condensed" font-weight="bold" font-size="41.0" fill="#404040" transform="matrix(1.00, 0.00, -0.00, -1.00, 361.5, 690.5)">e</text><text xml:space="preserve" font-family="RobotoCondensed-Regular,Roboto Condensed" font-size="41.0" fill="#404040" transform="matrix(1.00, 0.00, -0.00, -1.00, 380.3, 690.5)">,</text><text xml:space="preserve" font-family="RobotoCondensed-Regular,Roboto Condensed" font-size="41.0" fill="#404040" transform="matrix(1.00, 0.00, -0.00, -1.00, 388.2, 690.5)"> </text><text xml:space="preserve" font-family="RobotoCondensed-Regular,Roboto Condensed" font-size="41.0" fill="#404040" transform="matrix(1.00, 0.00, -0.00, -1.00, 397.1, 690.5)">r</text><text xml:space="preserve" font-family="RobotoCondensed-Regular,Roboto Condensed" font-size="41.0" fill="#404040" transform="matrix(1.00, 0.00, -0.00, -1.00, 409.4, 690.5)">e</text><text xml:space="preserve" font-family="RobotoCondensed-Regular,Roboto Condensed" font-size="41.0" fill="#404040" transform="matrix(1.00, 0.00, -0.00, -1.00, 428.0, 690.5)">a</text><text xml:space="preserve" font-family="RobotoCondensed-Regular,Roboto Condensed" font-size="41.0" fill="#404040" transform="matrix(1.00, 0.00, -0.00, -1.00, 447.2, 690.5)">d</text><text xml:space="preserve" font-family="RobotoCondensed-Regular,Roboto Condensed" font-size="41.0" fill="#404040" transform="matrix(1.00, 0.00, -0.00, -1.00, 467.1, 690.5)">a</text><text xml:space="preserve" font-family="RobotoCondensed-Regular,Roboto Condensed" font-size="41.0" fill="#404040" transform="matrix(1.00, 0.00, -0.00, -1.00, 486.2, 690.5)">b</text><text xml:space="preserve" font-family="RobotoCondensed-Regular,Roboto Condensed" font-size="41.0" fill="#404040" transform="matrix(1.00, 0.00, -0.00, -1.00, 506.2, 690.5)">l</text><text xml:space="preserve" font-family="RobotoCondensed-Regular,Roboto Condensed" font-size="41.0" fill="#404040" transform="matrix(1.00, 0.00, -0.00, -1.00, 515.4, 690.5)">e</text><text xml:space="preserve" font-family="RobotoCondensed-Bold,Roboto Condensed" font-weight="bold" font-size="41.0" fill="#404040" transform="matrix(1.00, 0.00, -0.00, -1.00, 202.9, 575.5)">e</text><text xml:space="preserve" font-family="RobotoCondensed-Bold,Roboto Condensed" font-weight="bold" font-size="41.0" fill="#404040" transform="matrix(1.00, 0.00, -0.00, -1.00, 221.7, 575.5)">n</text><text xml:space="preserve" font-family="RobotoCondensed-Bold,Roboto Condensed" font-weight="bold" font-size="41.0" fill="#404040" transform="matrix(1.00, 0.00, -0.00, -1.00, 241.6, 575.5)">c</text><text xml:space="preserve" font-family="RobotoCondensed-Bold,Roboto Condensed" font-weight="bold" font-size="41.0" fill="#404040" transform="matrix(1.00, 0.00, -0.00, -1.00, 259.9, 575.5)">a</text><text xml:space="preserve" font-family="RobotoCondensed-Bold,Roboto Condensed" font-weight="bold" font-size="41.0" fill="#404040" transform="matrix(1.00, 0.00, -0.00, -1.00, 278.7, 575.5)">p</text><text xml:space="preserve" font-family="RobotoCondensed-Bold,Roboto Condensed" font-weight="bold" font-size="41.0" fill="#404040" transform="matrix(1.00, 0.00, -0.00, -1.00, 298.7, 575.5)">s</text><text xml:space="preserve" font-family="RobotoCondensed-Bold,Roboto Condensed" font-weight="bold" font-size="41.0" fill="#404040" transform="matrix(1.00, 0.00, -0.00, -1.00, 316.4, 575.5)">u</text><text xml:space="preserve" font-family="RobotoCondensed-Bold,Roboto Condensed" font-weight="bold" font-size="41.0" fill="#404040" transform="matrix(1.00, 0.00, -0.00, -1.00, 336.3, 575.5)">l</text><text xml:space="preserve" font-family="RobotoCondensed-Bold,Roboto Condensed" font-weight="bold" font-size="41.0" fill="#404040" transform="matrix(1.00, 0.00, -0.00, -1.00, 346.2, 575.5)">a</text><text xml:space="preserve" font-family="RobotoCondensed-Bold,Roboto Condensed" font-weight="bold" font-size="41.0" fill="#404040" transform="matrix(1.00, 0.00, -0.00, -1.00, 365.1, 575.5)">t</text><text xml:space="preserve" font-family="RobotoCondensed-Bold,Roboto Condensed" font-weight="bold" font-size="41.0" fill="#404040" transform="matrix(1.00, 0.00, -0.00, -1.00, 378.1, 575.5)">e</text><text xml:space="preserve" font-family="RobotoCondensed-Bold,Roboto Condensed" font-weight="bold" font-size="41.0" fill="#404040" transform="matrix(1.00, 0.00, -0.00, -1.00, 396.9, 575.5)">d</text><text xml:space="preserve" font-family="RobotoCondensed-Regular,Roboto Condensed" font-size="41.0" fill="#404040" transform="matrix(1.00, 0.00, -0.00, -1.00, 416.8, 575.5)"> </text><text xml:space="preserve" font-family="RobotoCondensed-Regular,Roboto Condensed" font-size="41.0" fill="#404040" transform="matrix(1.00, 0.00, -0.00, -1.00, 425.8, 575.5)">b</text><text xml:space="preserve" font-family="RobotoCondensed-Regular,Roboto Condensed" font-size="41.0" fill="#404040" transform="matrix(1.00, 0.00, -0.00, -1.00, 445.7, 575.5)">e</text><text xml:space="preserve" font-family="RobotoCondensed-Regular,Roboto Condensed" font-size="41.0" fill="#404040" transform="matrix(1.00, 0.00, -0.00, -1.00, 464.3, 575.5)">h</text><text xml:space="preserve" font-family="RobotoCondensed-Regular,Roboto Condensed" font-size="41.0" fill="#404040" transform="matrix(1.00, 0.00, -0.00, -1.00, 484.2, 575.5)">a</text><text xml:space="preserve" font-family="RobotoCondensed-Regular,Roboto Condensed" font-size="41.0" fill="#404040" transform="matrix(1.00, 0.00, -0.00, -1.00, 503.0, 575.5)">v</text><text xml:space="preserve" font-family="RobotoCondensed-Regular,Roboto Condensed" font-size="41.0" fill="#404040" transform="matrix(1.00, 0.00, -0.00, -1.00, 520.9, 575.5)">i</text><text xml:space="preserve" font-family="RobotoCondensed-Regular,Roboto Condensed" font-size="41.0" fill="#404040" transform="matrix(1.00, 0.00, -0.00, -1.00, 530.1, 575.5)">o</text><text xml:space="preserve" font-family="RobotoCondensed-Regular,Roboto Condensed" font-size="41.0" fill="#404040" transform="matrix(1.00, 0.00, -0.00, -1.00, 550.0, 575.5)">r</text><image xlink:href="../../42108B0D-5631-4EC7-9BA6-BB72AD183C44/assets/4BD94B8597B1338F0A326BABA9C8D028.png" width="98.00" height="97.00" transform="matrix(0.37, 0.00, -0.00, -0.37, 158.7, 719.5)"></image><text xml:space="preserve" font-family="RobotoCondensed-Bold,Roboto Condensed" font-weight="bold" font-size="41.0" fill="#404040" transform="matrix(1.00, 0.00, -0.00, -1.00, 202.9, 463.5)">r</text><text xml:space="preserve" font-family="RobotoCondensed-Bold,Roboto Condensed" font-weight="bold" font-size="41.0" fill="#404040" transform="matrix(1.00, 0.00, -0.00, -1.00, 215.7, 463.5)">e</text><text xml:space="preserve" font-family="RobotoCondensed-Bold,Roboto Condensed" font-weight="bold" font-size="41.0" fill="#404040" transform="matrix(1.00, 0.00, -0.00, -1.00, 234.4, 463.5)">u</text><text xml:space="preserve" font-family="RobotoCondensed-Bold,Roboto Condensed" font-weight="bold" font-size="41.0" fill="#404040" transform="matrix(1.00, 0.00, -0.00, -1.00, 254.3, 463.5)">s</text><text xml:space="preserve" font-family="RobotoCondensed-Bold,Roboto Condensed" font-weight="bold" font-size="41.0" fill="#404040" transform="matrix(1.00, 0.00, -0.00, -1.00, 272.1, 463.5)">a</text><text xml:space="preserve" font-family="RobotoCondensed-Bold,Roboto Condensed" font-weight="bold" font-size="41.0" fill="#404040" transform="matrix(1.00, 0.00, -0.00, -1.00, 291.0, 463.5)">b</text><text xml:space="preserve" font-family="RobotoCondensed-Bold,Roboto Condensed" font-weight="bold" font-size="41.0" fill="#404040" transform="matrix(1.00, 0.00, -0.00, -1.00, 310.9, 463.5)">l</text><text xml:space="preserve" font-family="RobotoCondensed-Bold,Roboto Condensed" font-weight="bold" font-size="41.0" fill="#404040" transform="matrix(1.00, 0.00, -0.00, -1.00, 320.8, 463.5)">e</text><text xml:space="preserve" font-family="RobotoCondensed-Bold,Roboto Condensed" font-weight="bold" font-size="41.0" fill="#404040" transform="matrix(1.00, 0.00, -0.00, -1.00, 339.6, 463.5)"> </text><text xml:space="preserve" font-family="RobotoCondensed-Regular,Roboto Condensed" font-size="41.0" fill="#404040" transform="matrix(1.00, 0.00, -0.00, -1.00, 348.6, 463.5)">a</text><text xml:space="preserve" font-family="RobotoCondensed-Regular,Roboto Condensed" font-size="41.0" fill="#404040" transform="matrix(1.00, 0.00, -0.00, -1.00, 367.8, 463.5)">c</text><text xml:space="preserve" font-family="RobotoCondensed-Regular,Roboto Condensed" font-size="41.0" fill="#404040" transform="matrix(1.00, 0.00, -0.00, -1.00, 386.2, 463.5)">r</text><text xml:space="preserve" font-family="RobotoCondensed-Regular,Roboto Condensed" font-size="41.0" fill="#404040" transform="matrix(1.00, 0.00, -0.00, -1.00, 398.4, 463.5)">o</text><text xml:space="preserve" font-family="RobotoCondensed-Regular,Roboto Condensed" font-size="41.0" fill="#404040" transform="matrix(1.00, 0.00, -0.00, -1.00, 418.3, 463.5)">s</text><text xml:space="preserve" font-family="RobotoCondensed-Regular,Roboto Condensed" font-size="41.0" fill="#404040" transform="matrix(1.00, 0.00, -0.00, -1.00, 436.2, 463.5)">s</text><text xml:space="preserve" font-family="RobotoCondensed-Regular,Roboto Condensed" font-size="41.0" fill="#404040" transform="matrix(1.00, 0.00, -0.00, -1.00, 454.0, 463.5)"> </text><text xml:space="preserve" font-family="RobotoCondensed-Regular,Roboto Condensed" font-size="41.0" fill="#404040" transform="matrix(1.00, 0.00, -0.00, -1.00, 462.9, 463.5)">c</text><text xml:space="preserve" font-family="RobotoCondensed-Regular,Roboto Condensed" font-size="41.0" fill="#404040" transform="matrix(1.00, 0.00, -0.00, -1.00, 481.3, 463.5)">o</text><text xml:space="preserve" font-family="RobotoCondensed-Regular,Roboto Condensed" font-size="41.0" fill="#404040" transform="matrix(1.00, 0.00, -0.00, -1.00, 501.2, 463.5)">n</text><text xml:space="preserve" font-family="RobotoCondensed-Regular,Roboto Condensed" font-size="41.0" fill="#404040" transform="matrix(1.00, 0.00, -0.00, -1.00, 521.1, 463.5)">t</text><text xml:space="preserve" font-family="RobotoCondensed-Regular,Roboto Condensed" font-size="41.0" fill="#404040" transform="matrix(1.00, 0.00, -0.00, -1.00, 533.7, 463.5)">e</text><text xml:space="preserve" font-family="RobotoCondensed-Regular,Roboto Condensed" font-size="41.0" fill="#404040" transform="matrix(1.00, 0.00, -0.00, -1.00, 552.3, 463.5)">x</text><text xml:space="preserve" font-family="RobotoCondensed-Regular,Roboto Condensed" font-size="41.0" fill="#404040" transform="matrix(1.00, 0.00, -0.00, -1.00, 570.1, 463.5)">t</text><text xml:space="preserve" font-family="RobotoCondensed-Regular,Roboto Condensed" font-size="41.0" fill="#404040" transform="matrix(1.00, 0.00, -0.00, -1.00, 582.7, 463.5)">s</text><text xml:space="preserve" font-family="Roboto-Regular,Roboto" font-size="59.0" fill="#404040" transform="matrix(1.00, 0.00, -0.00, -1.00, 160.8, 891.3)">&lt;</text><text xml:space="preserve" font-family="Roboto-Regular,Roboto" font-size="59.0" fill="#404040" transform="matrix(1.00, 0.00, -0.00, -1.00, 190.8, 891.3)">s</text><text xml:space="preserve" font-family="Roboto-Regular,Roboto" font-size="59.0" fill="#404040" transform="matrix(1.00, 0.00, -0.00, -1.00, 221.6, 891.3)">e</text><text xml:space="preserve" font-family="Roboto-Regular,Roboto" font-size="59.0" fill="#404040" transform="matrix(1.00, 0.00, -0.00, -1.00, 252.8, 891.3)">l</text><text xml:space="preserve" font-family="Roboto-Regular,Roboto" font-size="59.0" fill="#404040" transform="matrix(1.00, 0.00, -0.00, -1.00, 267.7, 891.3)">e</text><text xml:space="preserve" font-family="Roboto-Regular,Roboto" font-size="59.0" fill="#404040" transform="matrix(1.00, 0.00, -0.00, -1.00, 298.9, 891.3)">c</text><text xml:space="preserve" font-family="Roboto-Regular,Roboto" font-size="59.0" fill="#404040" transform="matrix(1.00, 0.00, -0.00, -1.00, 330.2, 891.3)">t</text><text xml:space="preserve" font-family="Roboto-Regular,Roboto" font-size="59.0" fill="#404040" transform="matrix(1.00, 0.00, -0.00, -1.00, 350.6, 891.3)">&gt;</text><text xml:space="preserve" font-family="RobotoCondensed-Regular,Roboto Condensed" font-size="40.0" fill="#B2B2B2" transform="matrix(1.00, 0.00, -0.00, -1.00, 160.8, 831.2)">a</text><text xml:space="preserve" font-family="RobotoCondensed-Regular,Roboto Condensed" font-size="40.0" fill="#B2B2B2" transform="matrix(1.00, 0.00, -0.00, -1.00, 179.5, 831.2)">n</text><text xml:space="preserve" font-family="RobotoCondensed-Regular,Roboto Condensed" font-size="40.0" fill="#B2B2B2" transform="matrix(1.00, 0.00, -0.00, -1.00, 198.9, 831.2)"> </text><text xml:space="preserve" font-family="RobotoCondensed-Regular,Roboto Condensed" font-size="40.0" fill="#B2B2B2" transform="matrix(1.00, 0.00, -0.00, -1.00, 207.6, 831.2)">a</text><text xml:space="preserve" font-family="RobotoCondensed-Regular,Roboto Condensed" font-size="40.0" fill="#B2B2B2" transform="matrix(1.00, 0.00, -0.00, -1.00, 226.3, 831.2)">m</text><text xml:space="preserve" font-family="RobotoCondensed-Regular,Roboto Condensed" font-size="40.0" fill="#B2B2B2" transform="matrix(1.00, 0.00, -0.00, -1.00, 256.0, 831.2)">a</text><text xml:space="preserve" font-family="RobotoCondensed-Regular,Roboto Condensed" font-size="40.0" fill="#B2B2B2" transform="matrix(1.00, 0.00, -0.00, -1.00, 274.7, 831.2)">z</text><text xml:space="preserve" font-family="RobotoCondensed-Regular,Roboto Condensed" font-size="40.0" fill="#B2B2B2" transform="matrix(1.00, 0.00, -0.00, -1.00, 291.6, 831.2)">i</text><text xml:space="preserve" font-family="RobotoCondensed-Regular,Roboto Condensed" font-size="40.0" fill="#B2B2B2" transform="matrix(1.00, 0.00, -0.00, -1.00, 300.6, 831.2)">n</text><text xml:space="preserve" font-family="RobotoCondensed-Regular,Roboto Condensed" font-size="40.0" fill="#B2B2B2" transform="matrix(1.00, 0.00, -0.00, -1.00, 320.0, 831.2)">g</text><text xml:space="preserve" font-family="RobotoCondensed-Regular,Roboto Condensed" font-size="40.0" fill="#B2B2B2" transform="matrix(1.00, 0.00, -0.00, -1.00, 339.4, 831.2)"> </text><text xml:space="preserve" font-family="RobotoCondensed-Regular,Roboto Condensed" font-size="40.0" fill="#B2B2B2" transform="matrix(1.00, 0.00, -0.00, -1.00, 348.1, 831.2)">l</text><text xml:space="preserve" font-family="RobotoCondensed-Regular,Roboto Condensed" font-size="40.0" fill="#B2B2B2" transform="matrix(1.00, 0.00, -0.00, -1.00, 357.1, 831.2)">i</text><text xml:space="preserve" font-family="RobotoCondensed-Regular,Roboto Condensed" font-size="40.0" fill="#B2B2B2" transform="matrix(1.00, 0.00, -0.00, -1.00, 366.1, 831.2)">t</text><text xml:space="preserve" font-family="RobotoCondensed-Regular,Roboto Condensed" font-size="40.0" fill="#B2B2B2" transform="matrix(1.00, 0.00, -0.00, -1.00, 378.3, 831.2)">t</text><text xml:space="preserve" font-family="RobotoCondensed-Regular,Roboto Condensed" font-size="40.0" fill="#B2B2B2" transform="matrix(1.00, 0.00, -0.00, -1.00, 390.6, 831.2)">l</text><text xml:space="preserve" font-family="RobotoCondensed-Regular,Roboto Condensed" font-size="40.0" fill="#B2B2B2" transform="matrix(1.00, 0.00, -0.00, -1.00, 399.6, 831.2)">e</text><text xml:space="preserve" font-family="RobotoCondensed-Regular,Roboto Condensed" font-size="40.0" fill="#B2B2B2" transform="matrix(1.00, 0.00, -0.00, -1.00, 417.7, 831.2)"> </text><text xml:space="preserve" font-family="RobotoCondensed-Regular,Roboto Condensed" font-size="40.0" fill="#B2B2B2" transform="matrix(1.00, 0.00, -0.00, -1.00, 426.4, 831.2)">e</text><text xml:space="preserve" font-family="RobotoCondensed-Regular,Roboto Condensed" font-size="40.0" fill="#B2B2B2" transform="matrix(1.00, 0.00, -0.00, -1.00, 444.6, 831.2)">l</text><text xml:space="preserve" font-family="RobotoCondensed-Regular,Roboto Condensed" font-size="40.0" fill="#B2B2B2" transform="matrix(1.00, 0.00, -0.00, -1.00, 453.6, 831.2)">e</text><text xml:space="preserve" font-family="RobotoCondensed-Regular,Roboto Condensed" font-size="40.0" fill="#B2B2B2" transform="matrix(1.00, 0.00, -0.00, -1.00, 471.8, 831.2)">m</text><text xml:space="preserve" font-family="RobotoCondensed-Regular,Roboto Condensed" font-size="40.0" fill="#B2B2B2" transform="matrix(1.00, 0.00, -0.00, -1.00, 501.5, 831.2)">e</text><text xml:space="preserve" font-family="RobotoCondensed-Regular,Roboto Condensed" font-size="40.0" fill="#B2B2B2" transform="matrix(1.00, 0.00, -0.00, -1.00, 519.7, 831.2)">n</text><text xml:space="preserve" font-family="RobotoCondensed-Regular,Roboto Condensed" font-size="40.0" fill="#B2B2B2" transform="matrix(1.00, 0.00, -0.00, -1.00, 539.1, 831.2)">t</text><image xlink:href="../../42108B0D-5631-4EC7-9BA6-BB72AD183C44/assets/4BD94B8597B1338F0A326BABA9C8D028.png" width="98.00" height="97.00" transform="matrix(0.37, 0.00, -0.00, -0.37, 158.7, 602.9)"></image><image xlink:href="../../42108B0D-5631-4EC7-9BA6-BB72AD183C44/assets/4BD94B8597B1338F0A326BABA9C8D028.png" width="98.00" height="97.00" transform="matrix(0.37, 0.00, -0.00, -0.37, 158.7, 490.6)"></image><image xlink:href="../../018A80B2-2C9E-4126-8521-F8BE2B268177/assets/E239A69C5BC8C4E661BEBE49DAF1B24E.png" width="475.00" height="361.00" transform="matrix(1.00, 0.00, -0.00, -1.00, 618.3, 386.9)"></image><path d="M 954.3 392.2 L 954.0 790.5 C 954.0 793.8 957.0 796.0 960.3 796.0 L 1811.9 796.0 C 1815.3 796.0 1818.0 793.8 1818.0 790.5 L 1818.0 392.2 C 1818.0 388.9 1815.3 386.0 1811.9 386.0 L 960.3 386.0 C 957.0 386.0 954.3 388.9 954.3 392.2 Z M 954.3 392.2 " fill="#E7E7E7"></path><g><clipPath id="clip0x600001aa3720"><path d="M 954.3 386.2 L 1817.9 386.2 L 1817.9 796.5 L 954.3 796.5 Z M 954.3 386.2 "></path></clipPath><g clip-path="url(#clip0x600001aa3720)"><text xml:space="preserve" font-family=".LucidaGrandeUI,.Lucida Grande UI" font-size="40.0" fill="#4185F4" transform="matrix(1.00, 0.00, -0.00, -1.00, 974.3, 722.0)">&lt;</text><text xml:space="preserve" font-family=".LucidaGrandeUI,.Lucida Grande UI" font-size="40.0" fill="#4185F4" transform="matrix(1.00, 0.00, -0.00, -1.00, 1006.1, 722.0)">s</text><text xml:space="preserve" font-family=".LucidaGrandeUI,.Lucida Grande UI" font-size="40.0" fill="#4185F4" transform="matrix(1.00, 0.00, -0.00, -1.00, 1024.7, 722.0)">e</text><text xml:space="preserve" font-family=".LucidaGrandeUI,.Lucida Grande UI" font-size="40.0" fill="#4185F4" transform="matrix(1.00, 0.00, -0.00, -1.00, 1046.9, 722.0)">l</text><text xml:space="preserve" font-family=".LucidaGrandeUI,.Lucida Grande UI" font-size="40.0" fill="#4185F4" transform="matrix(1.00, 0.00, -0.00, -1.00, 1058.5, 722.0)">e</text><text xml:space="preserve" font-family=".LucidaGrandeUI,.Lucida Grande UI" font-size="40.0" fill="#4185F4" transform="matrix(1.00, 0.00, -0.00, -1.00, 1080.8, 722.0)">c</text><text xml:space="preserve" font-family=".LucidaGrandeUI,.Lucida Grande UI" font-size="40.0" fill="#4185F4" transform="matrix(1.00, 0.00, -0.00, -1.00, 1101.3, 722.0)">t</text><text xml:space="preserve" font-family=".LucidaGrandeUI,.Lucida Grande UI" font-size="40.0" fill="#4185F4" transform="matrix(1.00, 0.00, -0.00, -1.00, 1116.3, 722.0)">&gt;</text><text xml:space="preserve" font-family=".LucidaGrandeUI,.Lucida Grande UI" font-size="40.0" fill="#4185F4" transform="matrix(1.00, 0.00, -0.00, -1.00, 1148.0, 722.0)"></text><text xml:space="preserve" font-family=".LucidaGrandeUI,.Lucida Grande UI" font-size="40.0" fill="#4185F4" transform="matrix(1.00, 0.00, -0.00, -1.00, 974.3, 665.6)"></text><text xml:space="preserve" font-family=".LucidaGrandeUI,.Lucida Grande UI" font-size="40.0" fill="#4185F4" transform="matrix(1.00, 0.00, -0.00, -1.00, 997.7, 665.6)">&lt;</text><text xml:space="preserve" font-family=".LucidaGrandeUI,.Lucida Grande UI" font-size="40.0" fill="#4185F4" transform="matrix(1.00, 0.00, -0.00, -1.00, 1029.5, 665.6)">o</text><text xml:space="preserve" font-family=".LucidaGrandeUI,.Lucida Grande UI" font-size="40.0" fill="#4185F4" transform="matrix(1.00, 0.00, -0.00, -1.00, 1054.1, 665.6)">p</text><text xml:space="preserve" font-family=".LucidaGrandeUI,.Lucida Grande UI" font-size="40.0" fill="#4185F4" transform="matrix(1.00, 0.00, -0.00, -1.00, 1079.3, 665.6)">t</text><text xml:space="preserve" font-family=".LucidaGrandeUI,.Lucida Grande UI" font-size="40.0" fill="#4185F4" transform="matrix(1.00, 0.00, -0.00, -1.00, 1094.2, 665.6)">i</text><text xml:space="preserve" font-family=".LucidaGrandeUI,.Lucida Grande UI" font-size="40.0" fill="#4185F4" transform="matrix(1.00, 0.00, -0.00, -1.00, 1105.8, 665.6)">o</text><text xml:space="preserve" font-family=".LucidaGrandeUI,.Lucida Grande UI" font-size="40.0" fill="#4185F4" transform="matrix(1.00, 0.00, -0.00, -1.00, 1130.4, 665.6)">n</text><text xml:space="preserve" font-family=".LucidaGrandeUI,.Lucida Grande UI" font-size="40.0" fill="#4185F4" transform="matrix(1.00, 0.00, -0.00, -1.00, 1155.2, 665.6)">&gt;</text><text xml:space="preserve" font-family=".LucidaGrandeUI,.Lucida Grande UI" font-size="40.0" fill="#333333" transform="matrix(1.00, 0.00, -0.00, -1.00, 1199.6, 665.6)">N</text><text xml:space="preserve" font-family=".LucidaGrandeUI,.Lucida Grande UI" font-size="40.0" fill="#333333" transform="matrix(1.00, 0.00, -0.00, -1.00, 1229.1, 665.6)">y</text><text xml:space="preserve" font-family=".LucidaGrandeUI,.Lucida Grande UI" font-size="40.0" fill="#333333" transform="matrix(1.00, 0.00, -0.00, -1.00, 1249.7, 665.6)">l</text><text xml:space="preserve" font-family=".LucidaGrandeUI,.Lucida Grande UI" font-size="40.0" fill="#333333" transform="matrix(1.00, 0.00, -0.00, -1.00, 1261.3, 665.6)">o</text><text xml:space="preserve" font-family=".LucidaGrandeUI,.Lucida Grande UI" font-size="40.0" fill="#333333" transform="matrix(1.00, 0.00, -0.00, -1.00, 1285.9, 665.6)">n</text><text xml:space="preserve" font-family=".LucidaGrandeUI,.Lucida Grande UI" font-size="40.0" fill="#4185F4" transform="matrix(1.00, 0.00, -0.00, -1.00, 1310.7, 665.6)">&lt;</text><text xml:space="preserve" font-family=".LucidaGrandeUI,.Lucida Grande UI" font-size="40.0" fill="#4185F4" transform="matrix(1.00, 0.00, -0.00, -1.00, 1342.5, 665.6)">/</text><text xml:space="preserve" font-family=".LucidaGrandeUI,.Lucida Grande UI" font-size="40.0" fill="#4185F4" transform="matrix(1.00, 0.00, -0.00, -1.00, 1363.5, 665.6)">o</text><text xml:space="preserve" font-family=".LucidaGrandeUI,.Lucida Grande UI" font-size="40.0" fill="#4185F4" transform="matrix(1.00, 0.00, -0.00, -1.00, 1388.0, 665.6)">p</text><text xml:space="preserve" font-family=".LucidaGrandeUI,.Lucida Grande UI" font-size="40.0" fill="#4185F4" transform="matrix(1.00, 0.00, -0.00, -1.00, 1413.2, 665.6)">t</text><text xml:space="preserve" font-family=".LucidaGrandeUI,.Lucida Grande UI" font-size="40.0" fill="#4185F4" transform="matrix(1.00, 0.00, -0.00, -1.00, 1428.2, 665.6)">i</text><text xml:space="preserve" font-family=".LucidaGrandeUI,.Lucida Grande UI" font-size="40.0" fill="#4185F4" transform="matrix(1.00, 0.00, -0.00, -1.00, 1439.8, 665.6)">o</text><text xml:space="preserve" font-family=".LucidaGrandeUI,.Lucida Grande UI" font-size="40.0" fill="#4185F4" transform="matrix(1.00, 0.00, -0.00, -1.00, 1464.3, 665.6)">n</text><text xml:space="preserve" font-family=".LucidaGrandeUI,.Lucida Grande UI" font-size="40.0" fill="#4185F4" transform="matrix(1.00, 0.00, -0.00, -1.00, 1489.2, 665.6)">&gt;</text><text xml:space="preserve" font-family=".LucidaGrandeUI,.Lucida Grande UI" font-size="40.0" fill="#4185F4" transform="matrix(1.00, 0.00, -0.00, -1.00, 1520.9, 665.6)"></text><text xml:space="preserve" font-family=".LucidaGrandeUI,.Lucida Grande UI" font-size="40.0" fill="#4185F4" transform="matrix(1.00, 0.00, -0.00, -1.00, 974.3, 609.2)"> </text><text xml:space="preserve" font-family=".LucidaGrandeUI,.Lucida Grande UI" font-size="40.0" fill="#4185F4" transform="matrix(1.00, 0.00, -0.00, -1.00, 987.0, 609.2)"> </text><text xml:space="preserve" font-family=".LucidaGrandeUI,.Lucida Grande UI" font-size="40.0" fill="#4185F4" transform="matrix(1.00, 0.00, -0.00, -1.00, 999.7, 609.2)"> </text><text xml:space="preserve" font-family=".LucidaGrandeUI,.Lucida Grande UI" font-size="40.0" fill="#4185F4" transform="matrix(1.00, 0.00, -0.00, -1.00, 1012.4, 609.2)">&lt;</text><text xml:space="preserve" font-family=".LucidaGrandeUI,.Lucida Grande UI" font-size="40.0" fill="#4185F4" transform="matrix(1.00, 0.00, -0.00, -1.00, 1044.2, 609.2)">o</text><text xml:space="preserve" font-family=".LucidaGrandeUI,.Lucida Grande UI" font-size="40.0" fill="#4185F4" transform="matrix(1.00, 0.00, -0.00, -1.00, 1068.7, 609.2)">p</text><text xml:space="preserve" font-family=".LucidaGrandeUI,.Lucida Grande UI" font-size="40.0" fill="#4185F4" transform="matrix(1.00, 0.00, -0.00, -1.00, 1093.9, 609.2)">t</text><text xml:space="preserve" font-family=".LucidaGrandeUI,.Lucida Grande UI" font-size="40.0" fill="#4185F4" transform="matrix(1.00, 0.00, -0.00, -1.00, 1108.9, 609.2)">i</text><text xml:space="preserve" font-family=".LucidaGrandeUI,.Lucida Grande UI" font-size="40.0" fill="#4185F4" transform="matrix(1.00, 0.00, -0.00, -1.00, 1120.5, 609.2)">o</text><text xml:space="preserve" font-family=".LucidaGrandeUI,.Lucida Grande UI" font-size="40.0" fill="#4185F4" transform="matrix(1.00, 0.00, -0.00, -1.00, 1145.0, 609.2)">n</text><text xml:space="preserve" font-family=".LucidaGrandeUI,.Lucida Grande UI" font-size="40.0" fill="#4185F4" transform="matrix(1.00, 0.00, -0.00, -1.00, 1169.8, 609.2)">&gt;</text><text xml:space="preserve" font-family=".LucidaGrandeUI,.Lucida Grande UI" font-size="40.0" fill="#333333" transform="matrix(1.00, 0.00, -0.00, -1.00, 1201.6, 609.2)">T</text><text xml:space="preserve" font-family=".LucidaGrandeUI,.Lucida Grande UI" font-size="40.0" fill="#333333" transform="matrix(1.00, 0.00, -0.00, -1.00, 1224.0, 609.2)">e</text><text xml:space="preserve" font-family=".LucidaGrandeUI,.Lucida Grande UI" font-size="40.0" fill="#333333" transform="matrix(1.00, 0.00, -0.00, -1.00, 1246.3, 609.2)">ﬂ</text><text xml:space="preserve" font-family=".LucidaGrandeUI,.Lucida Grande UI" font-size="40.0" fill="#333333" transform="matrix(1.00, 0.00, -0.00, -1.00, 1272.2, 609.2)">o</text><text xml:space="preserve" font-family=".LucidaGrandeUI,.Lucida Grande UI" font-size="40.0" fill="#333333" transform="matrix(1.00, 0.00, -0.00, -1.00, 1296.8, 609.2)">n</text><text xml:space="preserve" font-family=".LucidaGrandeUI,.Lucida Grande UI" font-size="40.0" fill="#4185F4" transform="matrix(1.00, 0.00, -0.00, -1.00, 1321.6, 609.2)">&lt;</text><text xml:space="preserve" font-family=".LucidaGrandeUI,.Lucida Grande UI" font-size="40.0" fill="#4185F4" transform="matrix(1.00, 0.00, -0.00, -1.00, 1353.4, 609.2)">/</text><text xml:space="preserve" font-family=".LucidaGrandeUI,.Lucida Grande UI" font-size="40.0" fill="#4185F4" transform="matrix(1.00, 0.00, -0.00, -1.00, 1374.4, 609.2)">o</text><text xml:space="preserve" font-family=".LucidaGrandeUI,.Lucida Grande UI" font-size="40.0" fill="#4185F4" transform="matrix(1.00, 0.00, -0.00, -1.00, 1399.0, 609.2)">p</text><text xml:space="preserve" font-family=".LucidaGrandeUI,.Lucida Grande UI" font-size="40.0" fill="#4185F4" transform="matrix(1.00, 0.00, -0.00, -1.00, 1424.2, 609.2)">t</text><text xml:space="preserve" font-family=".LucidaGrandeUI,.Lucida Grande UI" font-size="40.0" fill="#4185F4" transform="matrix(1.00, 0.00, -0.00, -1.00, 1439.1, 609.2)">i</text><text xml:space="preserve" font-family=".LucidaGrandeUI,.Lucida Grande UI" font-size="40.0" fill="#4185F4" transform="matrix(1.00, 0.00, -0.00, -1.00, 1450.7, 609.2)">o</text><text xml:space="preserve" font-family=".LucidaGrandeUI,.Lucida Grande UI" font-size="40.0" fill="#4185F4" transform="matrix(1.00, 0.00, -0.00, -1.00, 1475.3, 609.2)">n</text><text xml:space="preserve" font-family=".LucidaGrandeUI,.Lucida Grande UI" font-size="40.0" fill="#4185F4" transform="matrix(1.00, 0.00, -0.00, -1.00, 1500.1, 609.2)">&gt;</text><text xml:space="preserve" font-family=".LucidaGrandeUI,.Lucida Grande UI" font-size="40.0" fill="#4185F4" transform="matrix(1.00, 0.00, -0.00, -1.00, 1531.9, 609.2)"></text><text xml:space="preserve" font-family=".LucidaGrandeUI,.Lucida Grande UI" font-size="40.0" fill="#4185F4" transform="matrix(1.00, 0.00, -0.00, -1.00, 974.3, 552.8)"></text><text xml:space="preserve" font-family=".LucidaGrandeUI,.Lucida Grande UI" font-size="40.0" fill="#4185F4" transform="matrix(1.00, 0.00, -0.00, -1.00, 997.7, 552.8)">&lt;</text><text xml:space="preserve" font-family=".LucidaGrandeUI,.Lucida Grande UI" font-size="40.0" fill="#4185F4" transform="matrix(1.00, 0.00, -0.00, -1.00, 1029.5, 552.8)">o</text><text xml:space="preserve" font-family=".LucidaGrandeUI,.Lucida Grande UI" font-size="40.0" fill="#4185F4" transform="matrix(1.00, 0.00, -0.00, -1.00, 1054.1, 552.8)">p</text><text xml:space="preserve" font-family=".LucidaGrandeUI,.Lucida Grande UI" font-size="40.0" fill="#4185F4" transform="matrix(1.00, 0.00, -0.00, -1.00, 1079.3, 552.8)">t</text><text xml:space="preserve" font-family=".LucidaGrandeUI,.Lucida Grande UI" font-size="40.0" fill="#4185F4" transform="matrix(1.00, 0.00, -0.00, -1.00, 1094.2, 552.8)">i</text><text xml:space="preserve" font-family=".LucidaGrandeUI,.Lucida Grande UI" font-size="40.0" fill="#4185F4" transform="matrix(1.00, 0.00, -0.00, -1.00, 1105.8, 552.8)">o</text><text xml:space="preserve" font-family=".LucidaGrandeUI,.Lucida Grande UI" font-size="40.0" fill="#4185F4" transform="matrix(1.00, 0.00, -0.00, -1.00, 1130.4, 552.8)">n</text><text xml:space="preserve" font-family=".LucidaGrandeUI,.Lucida Grande UI" font-size="40.0" fill="#4185F4" transform="matrix(1.00, 0.00, -0.00, -1.00, 1155.2, 552.8)">&gt;</text><text xml:space="preserve" font-family=".LucidaGrandeUI,.Lucida Grande UI" font-size="40.0" fill="#333333" transform="matrix(1.00, 0.00, -0.00, -1.00, 1199.6, 552.8)">S</text><text xml:space="preserve" font-family=".LucidaGrandeUI,.Lucida Grande UI" font-size="40.0" fill="#333333" transform="matrix(1.00, 0.00, -0.00, -1.00, 1221.1, 552.8)">t</text><text xml:space="preserve" font-family=".LucidaGrandeUI,.Lucida Grande UI" font-size="40.0" fill="#333333" transform="matrix(1.00, 0.00, -0.00, -1.00, 1236.1, 552.8)">y</text><text xml:space="preserve" font-family=".LucidaGrandeUI,.Lucida Grande UI" font-size="40.0" fill="#333333" transform="matrix(1.00, 0.00, -0.00, -1.00, 1256.7, 552.8)">r</text><text xml:space="preserve" font-family=".LucidaGrandeUI,.Lucida Grande UI" font-size="40.0" fill="#333333" transform="matrix(1.00, 0.00, -0.00, -1.00, 1273.0, 552.8)">o</text><text xml:space="preserve" font-family=".LucidaGrandeUI,.Lucida Grande UI" font-size="40.0" fill="#333333" transform="matrix(1.00, 0.00, -0.00, -1.00, 1297.6, 552.8)">f</text><text xml:space="preserve" font-family=".LucidaGrandeUI,.Lucida Grande UI" font-size="40.0" fill="#333333" transform="matrix(1.00, 0.00, -0.00, -1.00, 1312.3, 552.8)">o</text><text xml:space="preserve" font-family=".LucidaGrandeUI,.Lucida Grande UI" font-size="40.0" fill="#333333" transform="matrix(1.00, 0.00, -0.00, -1.00, 1336.9, 552.8)">a</text><text xml:space="preserve" font-family=".LucidaGrandeUI,.Lucida Grande UI" font-size="40.0" fill="#333333" transform="matrix(1.00, 0.00, -0.00, -1.00, 1359.0, 552.8)">m</text><text xml:space="preserve" font-family=".LucidaGrandeUI,.Lucida Grande UI" font-size="40.0" fill="#4185F4" transform="matrix(1.00, 0.00, -0.00, -1.00, 1396.3, 552.8)">&lt;</text><text xml:space="preserve" font-family=".LucidaGrandeUI,.Lucida Grande UI" font-size="40.0" fill="#4185F4" transform="matrix(1.00, 0.00, -0.00, -1.00, 1428.1, 552.8)">/</text><text xml:space="preserve" font-family=".LucidaGrandeUI,.Lucida Grande UI" font-size="40.0" fill="#4185F4" transform="matrix(1.00, 0.00, -0.00, -1.00, 1449.1, 552.8)">o</text><text xml:space="preserve" font-family=".LucidaGrandeUI,.Lucida Grande UI" font-size="40.0" fill="#4185F4" transform="matrix(1.00, 0.00, -0.00, -1.00, 1473.7, 552.8)">p</text><text xml:space="preserve" font-family=".LucidaGrandeUI,.Lucida Grande UI" font-size="40.0" fill="#4185F4" transform="matrix(1.00, 0.00, -0.00, -1.00, 1498.9, 552.8)">t</text><text xml:space="preserve" font-family=".LucidaGrandeUI,.Lucida Grande UI" font-size="40.0" fill="#4185F4" transform="matrix(1.00, 0.00, -0.00, -1.00, 1513.8, 552.8)">i</text><text xml:space="preserve" font-family=".LucidaGrandeUI,.Lucida Grande UI" font-size="40.0" fill="#4185F4" transform="matrix(1.00, 0.00, -0.00, -1.00, 1525.4, 552.8)">o</text><text xml:space="preserve" font-family=".LucidaGrandeUI,.Lucida Grande UI" font-size="40.0" fill="#4185F4" transform="matrix(1.00, 0.00, -0.00, -1.00, 1550.0, 552.8)">n</text><text xml:space="preserve" font-family=".LucidaGrandeUI,.Lucida Grande UI" font-size="40.0" fill="#4185F4" transform="matrix(1.00, 0.00, -0.00, -1.00, 1574.8, 552.8)">&gt;</text><text xml:space="preserve" font-family=".LucidaGrandeUI,.Lucida Grande UI" font-size="40.0" fill="#4185F4" transform="matrix(1.00, 0.00, -0.00, -1.00, 1606.6, 552.8)"></text><text xml:space="preserve" font-family=".LucidaGrandeUI,.Lucida Grande UI" font-size="40.0" fill="#4185F4" transform="matrix(1.00, 0.00, -0.00, -1.00, 974.3, 496.4)"> </text><text xml:space="preserve" font-family=".LucidaGrandeUI,.Lucida Grande UI" font-size="40.0" fill="#4185F4" transform="matrix(1.00, 0.00, -0.00, -1.00, 987.0, 496.4)"> </text><text xml:space="preserve" font-family=".LucidaGrandeUI,.Lucida Grande UI" font-size="40.0" fill="#4185F4" transform="matrix(1.00, 0.00, -0.00, -1.00, 999.7, 496.4)"> </text><text xml:space="preserve" font-family=".LucidaGrandeUI,.Lucida Grande UI" font-size="40.0" fill="#4185F4" transform="matrix(1.00, 0.00, -0.00, -1.00, 1012.4, 496.4)">&lt;</text><text xml:space="preserve" font-family=".LucidaGrandeUI,.Lucida Grande UI" font-size="40.0" fill="#4185F4" transform="matrix(1.00, 0.00, -0.00, -1.00, 1044.2, 496.4)">o</text><text xml:space="preserve" font-family=".LucidaGrandeUI,.Lucida Grande UI" font-size="40.0" fill="#4185F4" transform="matrix(1.00, 0.00, -0.00, -1.00, 1068.7, 496.4)">p</text><text xml:space="preserve" font-family=".LucidaGrandeUI,.Lucida Grande UI" font-size="40.0" fill="#4185F4" transform="matrix(1.00, 0.00, -0.00, -1.00, 1093.9, 496.4)">t</text><text xml:space="preserve" font-family=".LucidaGrandeUI,.Lucida Grande UI" font-size="40.0" fill="#4185F4" transform="matrix(1.00, 0.00, -0.00, -1.00, 1108.9, 496.4)">i</text><text xml:space="preserve" font-family=".LucidaGrandeUI,.Lucida Grande UI" font-size="40.0" fill="#4185F4" transform="matrix(1.00, 0.00, -0.00, -1.00, 1120.5, 496.4)">o</text><text xml:space="preserve" font-family=".LucidaGrandeUI,.Lucida Grande UI" font-size="40.0" fill="#4185F4" transform="matrix(1.00, 0.00, -0.00, -1.00, 1145.0, 496.4)">n</text><text xml:space="preserve" font-family=".LucidaGrandeUI,.Lucida Grande UI" font-size="40.0" fill="#4185F4" transform="matrix(1.00, 0.00, -0.00, -1.00, 1169.8, 496.4)">&gt;</text><text xml:space="preserve" font-family=".LucidaGrandeUI,.Lucida Grande UI" font-size="40.0" fill="#333333" transform="matrix(1.00, 0.00, -0.00, -1.00, 1201.6, 496.4)">L</text><text xml:space="preserve" font-family=".LucidaGrandeUI,.Lucida Grande UI" font-size="40.0" fill="#333333" transform="matrix(1.00, 0.00, -0.00, -1.00, 1222.5, 496.4)">y</text><text xml:space="preserve" font-family=".LucidaGrandeUI,.Lucida Grande UI" font-size="40.0" fill="#333333" transform="matrix(1.00, 0.00, -0.00, -1.00, 1243.1, 496.4)">c</text><text xml:space="preserve" font-family=".LucidaGrandeUI,.Lucida Grande UI" font-size="40.0" fill="#333333" transform="matrix(1.00, 0.00, -0.00, -1.00, 1263.6, 496.4)">r</text><text xml:space="preserve" font-family=".LucidaGrandeUI,.Lucida Grande UI" font-size="40.0" fill="#333333" transform="matrix(1.00, 0.00, -0.00, -1.00, 1280.0, 496.4)">a</text><text xml:space="preserve" font-family=".LucidaGrandeUI,.Lucida Grande UI" font-size="40.0" fill="#4185F4" transform="matrix(1.00, 0.00, -0.00, -1.00, 1302.0, 496.4)">&lt;</text><text xml:space="preserve" font-family=".LucidaGrandeUI,.Lucida Grande UI" font-size="40.0" fill="#4185F4" transform="matrix(1.00, 0.00, -0.00, -1.00, 1333.8, 496.4)">/</text><text xml:space="preserve" font-family=".LucidaGrandeUI,.Lucida Grande UI" font-size="40.0" fill="#4185F4" transform="matrix(1.00, 0.00, -0.00, -1.00, 1354.8, 496.4)">o</text><text xml:space="preserve" font-family=".LucidaGrandeUI,.Lucida Grande UI" font-size="40.0" fill="#4185F4" transform="matrix(1.00, 0.00, -0.00, -1.00, 1379.4, 496.4)">p</text><text xml:space="preserve" font-family=".LucidaGrandeUI,.Lucida Grande UI" font-size="40.0" fill="#4185F4" transform="matrix(1.00, 0.00, -0.00, -1.00, 1404.6, 496.4)">t</text><text xml:space="preserve" font-family=".LucidaGrandeUI,.Lucida Grande UI" font-size="40.0" fill="#4185F4" transform="matrix(1.00, 0.00, -0.00, -1.00, 1419.5, 496.4)">i</text><text xml:space="preserve" font-family=".LucidaGrandeUI,.Lucida Grande UI" font-size="40.0" fill="#4185F4" transform="matrix(1.00, 0.00, -0.00, -1.00, 1431.1, 496.4)">o</text><text xml:space="preserve" font-family=".LucidaGrandeUI,.Lucida Grande UI" font-size="40.0" fill="#4185F4" transform="matrix(1.00, 0.00, -0.00, -1.00, 1455.7, 496.4)">n</text><text xml:space="preserve" font-family=".LucidaGrandeUI,.Lucida Grande UI" font-size="40.0" fill="#4185F4" transform="matrix(1.00, 0.00, -0.00, -1.00, 1480.5, 496.4)">&gt;</text><text xml:space="preserve" font-family=".LucidaGrandeUI,.Lucida Grande UI" font-size="40.0" fill="#4185F4" transform="matrix(1.00, 0.00, -0.00, -1.00, 1512.3, 496.4)"></text><text xml:space="preserve" font-family=".LucidaGrandeUI,.Lucida Grande UI" font-size="40.0" fill="#4185F4" transform="matrix(1.00, 0.00, -0.00, -1.00, 974.3, 440.0)">&lt;</text><text xml:space="preserve" font-family=".LucidaGrandeUI,.Lucida Grande UI" font-size="40.0" fill="#4185F4" transform="matrix(1.00, 0.00, -0.00, -1.00, 1006.1, 440.0)">/</text><text xml:space="preserve" font-family=".LucidaGrandeUI,.Lucida Grande UI" font-size="40.0" fill="#4185F4" transform="matrix(1.00, 0.00, -0.00, -1.00, 1027.1, 440.0)">s</text><text xml:space="preserve" font-family=".LucidaGrandeUI,.Lucida Grande UI" font-size="40.0" fill="#4185F4" transform="matrix(1.00, 0.00, -0.00, -1.00, 1045.6, 440.0)">e</text><text xml:space="preserve" font-family=".LucidaGrandeUI,.Lucida Grande UI" font-size="40.0" fill="#4185F4" transform="matrix(1.00, 0.00, -0.00, -1.00, 1067.9, 440.0)">l</text><text xml:space="preserve" font-family=".LucidaGrandeUI,.Lucida Grande UI" font-size="40.0" fill="#4185F4" transform="matrix(1.00, 0.00, -0.00, -1.00, 1079.5, 440.0)">e</text><text xml:space="preserve" font-family=".LucidaGrandeUI,.Lucida Grande UI" font-size="40.0" fill="#4185F4" transform="matrix(1.00, 0.00, -0.00, -1.00, 1101.8, 440.0)">c</text><text xml:space="preserve" font-family=".LucidaGrandeUI,.Lucida Grande UI" font-size="40.0" fill="#4185F4" transform="matrix(1.00, 0.00, -0.00, -1.00, 1122.3, 440.0)">t</text><text xml:space="preserve" font-family=".LucidaGrandeUI,.Lucida Grande UI" font-size="40.0" fill="#4185F4" transform="matrix(1.00, 0.00, -0.00, -1.00, 1137.2, 440.0)">&gt;</text></g></g></g></svg>