<?xml version="1.0" encoding="UTF-8" standalone="no"?><svg xmlns="http://www.w3.org/2000/svg" xmlns:xlink="http://www.w3.org/1999/xlink" clip-rule="evenodd" stroke-miterlimit="10" viewBox="0 0 1920 1080"><desc>SVG generated by Keynote</desc><defs></defs><g transform="matrix(1.00, 0.00, -0.00, -1.00, 0.0, 1080.0)"><path d="M 0.0 1080.0 L 1920.0 1080.0 L 1920.0 0.0 L 0.0 0.0 Z M 0.0 1080.0 " fill="#3E4448"></path><image xlink:href="../../3F51F611-9C69-452A-81C2-7C3C6BEF90FE/assets/63EA2BF22374979E645E06E544E744B1.png" width="1440.00" height="535.00" transform="matrix(1.26, 0.00, -0.00, -1.26, 54.7, 718.1)"></image><text xml:space="preserve" font-family="Roboto-Medium,Roboto" font-size="141.0" fill="#FFFFFF" transform="matrix(1.00, 0.00, -0.00, -1.00, 647.1, 861.4)">&lt;</text><text xml:space="preserve" font-family="Roboto-Medium,Roboto" font-size="141.0" fill="#FFFFFF" transform="matrix(1.00, 0.00, -0.00, -1.00, 718.8, 861.4)">p</text><text xml:space="preserve" font-family="Roboto-Medium,Roboto" font-size="141.0" fill="#FFFFFF" transform="matrix(1.00, 0.00, -0.00, -1.00, 798.7, 861.4)">a</text><text xml:space="preserve" font-family="Roboto-Medium,Roboto" font-size="141.0" fill="#FFFFFF" transform="matrix(1.00, 0.00, -0.00, -1.00, 875.4, 861.4)">g</text><text xml:space="preserve" font-family="Roboto-Medium,Roboto" font-size="141.0" fill="#FFFFFF" transform="matrix(1.00, 0.00, -0.00, -1.00, 955.3, 861.4)">e</text><text xml:space="preserve" font-family="Roboto-Medium,Roboto" font-size="141.0" fill="#FFFFFF" transform="matrix(1.00, 0.00, -0.00, -1.00, 1030.0, 861.4)">-</text><text xml:space="preserve" font-family="Roboto-Medium,Roboto" font-size="141.0" fill="#FFFFFF" transform="matrix(1.00, 0.00, -0.00, -1.00, 1076.3, 861.4)">e</text><text xml:space="preserve" font-family="Roboto-Medium,Roboto" font-size="141.0" fill="#FFFFFF" transform="matrix(1.00, 0.00, -0.00, -1.00, 1151.0, 861.4)">r</text><text xml:space="preserve" font-family="Roboto-Medium,Roboto" font-size="141.0" fill="#FFFFFF" transform="matrix(1.00, 0.00, -0.00, -1.00, 1199.9, 861.4)">&gt;</text><text xml:space="preserve" font-family="Roboto-Regular,Roboto" font-size="37.0" fill="#FFFFFF" transform="matrix(1.00, 0.00, -0.00, -1.00, 685.3, 782.7)">g</text><text xml:space="preserve" font-family="Roboto-Regular,Roboto" font-size="37.0" fill="#FFFFFF" transform="matrix(1.00, 0.00, -0.00, -1.00, 706.4, 782.7)">i</text><text xml:space="preserve" font-family="Roboto-Regular,Roboto" font-size="37.0" fill="#FFFFFF" transform="matrix(1.00, 0.00, -0.00, -1.00, 715.7, 782.7)">t</text><text xml:space="preserve" font-family="Roboto-Regular,Roboto" font-size="37.0" fill="#FFFFFF" transform="matrix(1.00, 0.00, -0.00, -1.00, 728.5, 782.7)">h</text><text xml:space="preserve" font-family="Roboto-Regular,Roboto" font-size="37.0" fill="#FFFFFF" transform="matrix(1.00, 0.00, -0.00, -1.00, 749.5, 782.7)">u</text><text xml:space="preserve" font-family="Roboto-Regular,Roboto" font-size="37.0" fill="#FFFFFF" transform="matrix(1.00, 0.00, -0.00, -1.00, 770.6, 782.7)">b</text><text xml:space="preserve" font-family="Roboto-Regular,Roboto" font-size="37.0" fill="#FFFFFF" transform="matrix(1.00, 0.00, -0.00, -1.00, 791.6, 782.7)">.</text><text xml:space="preserve" font-family="Roboto-Regular,Roboto" font-size="37.0" fill="#FFFFFF" transform="matrix(1.00, 0.00, -0.00, -1.00, 801.5, 782.7)">c</text><text xml:space="preserve" font-family="Roboto-Regular,Roboto" font-size="37.0" fill="#FFFFFF" transform="matrix(1.00, 0.00, -0.00, -1.00, 821.1, 782.7)">o</text><text xml:space="preserve" font-family="Roboto-Regular,Roboto" font-size="37.0" fill="#FFFFFF" transform="matrix(1.00, 0.00, -0.00, -1.00, 842.2, 782.7)">m</text><text xml:space="preserve" font-family="Roboto-Regular,Roboto" font-size="37.0" fill="#FFFFFF" transform="matrix(1.00, 0.00, -0.00, -1.00, 874.5, 782.7)">/</text><text xml:space="preserve" font-family="Roboto-Regular,Roboto" font-size="37.0" fill="#FFFFFF" transform="matrix(1.00, 0.00, -0.00, -1.00, 889.9, 782.7)">a</text><text xml:space="preserve" font-family="Roboto-Regular,Roboto" font-size="37.0" fill="#FFFFFF" transform="matrix(1.00, 0.00, -0.00, -1.00, 910.2, 782.7)">d</text><text xml:space="preserve" font-family="Roboto-Regular,Roboto" font-size="37.0" fill="#FFFFFF" transform="matrix(1.00, 0.00, -0.00, -1.00, 931.2, 782.7)">d</text><text xml:space="preserve" font-family="Roboto-Regular,Roboto" font-size="37.0" fill="#FFFFFF" transform="matrix(1.00, 0.00, -0.00, -1.00, 952.3, 782.7)">y</text><text xml:space="preserve" font-family="Roboto-Regular,Roboto" font-size="37.0" fill="#FFFFFF" transform="matrix(1.00, 0.00, -0.00, -1.00, 970.6, 782.7)">o</text><text xml:space="preserve" font-family="Roboto-Regular,Roboto" font-size="37.0" fill="#FFFFFF" transform="matrix(1.00, 0.00, -0.00, -1.00, 991.7, 782.7)">s</text><text xml:space="preserve" font-family="Roboto-Regular,Roboto" font-size="37.0" fill="#FFFFFF" transform="matrix(1.00, 0.00, -0.00, -1.00, 1011.0, 782.7)">m</text><text xml:space="preserve" font-family="Roboto-Regular,Roboto" font-size="37.0" fill="#FFFFFF" transform="matrix(1.00, 0.00, -0.00, -1.00, 1043.3, 782.7)">a</text><text xml:space="preserve" font-family="Roboto-Regular,Roboto" font-size="37.0" fill="#FFFFFF" transform="matrix(1.00, 0.00, -0.00, -1.00, 1063.7, 782.7)">n</text><text xml:space="preserve" font-family="Roboto-Regular,Roboto" font-size="37.0" fill="#FFFFFF" transform="matrix(1.00, 0.00, -0.00, -1.00, 1084.7, 782.7)">i</text><text xml:space="preserve" font-family="Roboto-Regular,Roboto" font-size="37.0" fill="#FFFFFF" transform="matrix(1.00, 0.00, -0.00, -1.00, 1094.0, 782.7)">/</text><text xml:space="preserve" font-family="Roboto-Regular,Roboto" font-size="37.0" fill="#FFFFFF" transform="matrix(1.00, 0.00, -0.00, -1.00, 1109.4, 782.7)">p</text><text xml:space="preserve" font-family="Roboto-Regular,Roboto" font-size="37.0" fill="#FFFFFF" transform="matrix(1.00, 0.00, -0.00, -1.00, 1130.4, 782.7)">a</text><text xml:space="preserve" font-family="Roboto-Regular,Roboto" font-size="37.0" fill="#FFFFFF" transform="matrix(1.00, 0.00, -0.00, -1.00, 1150.8, 782.7)">g</text><text xml:space="preserve" font-family="Roboto-Regular,Roboto" font-size="37.0" fill="#FFFFFF" transform="matrix(1.00, 0.00, -0.00, -1.00, 1171.8, 782.7)">e</text><text xml:space="preserve" font-family="Roboto-Regular,Roboto" font-size="37.0" fill="#FFFFFF" transform="matrix(1.00, 0.00, -0.00, -1.00, 1191.4, 782.7)">-</text><text xml:space="preserve" font-family="Roboto-Regular,Roboto" font-size="37.0" fill="#FFFFFF" transform="matrix(1.00, 0.00, -0.00, -1.00, 1201.5, 782.7)">e</text><text xml:space="preserve" font-family="Roboto-Regular,Roboto" font-size="37.0" fill="#FFFFFF" transform="matrix(1.00, 0.00, -0.00, -1.00, 1221.1, 782.7)">r</text><path d="M 159.9 86.9 L 160.0 484.7 C 160.0 488.3 162.8 491.0 166.4 491.0 L 1753.6 491.0 C 1757.2 491.0 1760.0 488.3 1760.0 484.7 L 1760.0 86.9 C 1760.0 83.3 1757.2 80.0 1753.6 80.0 L 166.4 80.0 C 162.8 80.0 159.9 83.3 159.9 86.9 Z M 159.9 86.9 " fill="#FFFFFF"></path><g><clipPath id="clip0x6080048a02a0"><path d="M 159.9 80.4 L 1760.1 80.4 L 1760.1 491.3 L 159.9 491.3 Z M 159.9 80.4 "></path></clipPath><g clip-path="url(#clip0x6080048a02a0)"><text xml:space="preserve" font-family=".LucidaGrandeUI,.Lucida Grande UI" font-size="40.0" fill="#4185F4" transform="matrix(1.00, 0.00, -0.00, -1.00, 179.9, 416.7)">&lt;</text><text xml:space="preserve" font-family=".LucidaGrandeUI,.Lucida Grande UI" font-size="40.0" fill="#4185F4" transform="matrix(1.00, 0.00, -0.00, -1.00, 211.7, 416.7)">p</text><text xml:space="preserve" font-family=".LucidaGrandeUI,.Lucida Grande UI" font-size="40.0" fill="#4185F4" transform="matrix(1.00, 0.00, -0.00, -1.00, 236.9, 416.7)">a</text><text xml:space="preserve" font-family=".LucidaGrandeUI,.Lucida Grande UI" font-size="40.0" fill="#4185F4" transform="matrix(1.00, 0.00, -0.00, -1.00, 259.0, 416.7)">g</text><text xml:space="preserve" font-family=".LucidaGrandeUI,.Lucida Grande UI" font-size="40.0" fill="#4185F4" transform="matrix(1.00, 0.00, -0.00, -1.00, 283.9, 416.7)">e</text><text xml:space="preserve" font-family=".LucidaGrandeUI,.Lucida Grande UI" font-size="40.0" fill="#4185F4" transform="matrix(1.00, 0.00, -0.00, -1.00, 306.2, 416.7)">-</text><text xml:space="preserve" font-family=".LucidaGrandeUI,.Lucida Grande UI" font-size="40.0" fill="#4185F4" transform="matrix(1.00, 0.00, -0.00, -1.00, 329.3, 416.7)">e</text><text xml:space="preserve" font-family=".LucidaGrandeUI,.Lucida Grande UI" font-size="40.0" fill="#4185F4" transform="matrix(1.00, 0.00, -0.00, -1.00, 351.6, 416.7)">r</text><text xml:space="preserve" font-family=".LucidaGrandeUI,.Lucida Grande UI" font-size="40.0" fill="#000000" transform="matrix(1.00, 0.00, -0.00, -1.00, 368.0, 416.7)"> </text><text xml:space="preserve" font-family=".LucidaGrandeUI,.Lucida Grande UI" font-size="40.0" fill="#E82663" transform="matrix(1.00, 0.00, -0.00, -1.00, 380.6, 416.7)">p</text><text xml:space="preserve" font-family=".LucidaGrandeUI,.Lucida Grande UI" font-size="40.0" fill="#E82663" transform="matrix(1.00, 0.00, -0.00, -1.00, 405.8, 416.7)">e</text><text xml:space="preserve" font-family=".LucidaGrandeUI,.Lucida Grande UI" font-size="40.0" fill="#E82663" transform="matrix(1.00, 0.00, -0.00, -1.00, 428.1, 416.7)">r</text><text xml:space="preserve" font-family=".LucidaGrandeUI,.Lucida Grande UI" font-size="40.0" fill="#E82663" transform="matrix(1.00, 0.00, -0.00, -1.00, 444.5, 416.7)">p</text><text xml:space="preserve" font-family=".LucidaGrandeUI,.Lucida Grande UI" font-size="40.0" fill="#E82663" transform="matrix(1.00, 0.00, -0.00, -1.00, 469.7, 416.7)">a</text><text xml:space="preserve" font-family=".LucidaGrandeUI,.Lucida Grande UI" font-size="40.0" fill="#E82663" transform="matrix(1.00, 0.00, -0.00, -1.00, 491.8, 416.7)">g</text><text xml:space="preserve" font-family=".LucidaGrandeUI,.Lucida Grande UI" font-size="40.0" fill="#E82663" transform="matrix(1.00, 0.00, -0.00, -1.00, 516.7, 416.7)">e</text><text xml:space="preserve" font-family=".LucidaGrandeUI,.Lucida Grande UI" font-size="40.0" fill="#A3A3A3" transform="matrix(1.00, 0.00, -0.00, -1.00, 538.9, 416.7)">=</text><text xml:space="preserve" font-family=".LucidaGrandeUI,.Lucida Grande UI" font-size="40.0" fill="#0D9D57" transform="matrix(1.00, 0.00, -0.00, -1.00, 570.7, 416.7)">"</text><text xml:space="preserve" font-family=".LucidaGrandeUI,.Lucida Grande UI" font-size="40.0" fill="#0D9D57" transform="matrix(1.00, 0.00, -0.00, -1.00, 585.7, 416.7)">5</text><text xml:space="preserve" font-family=".LucidaGrandeUI,.Lucida Grande UI" font-size="40.0" fill="#0D9D57" transform="matrix(1.00, 0.00, -0.00, -1.00, 611.0, 416.7)">"</text><text xml:space="preserve" font-family=".LucidaGrandeUI,.Lucida Grande UI" font-size="40.0" fill="#000000" transform="matrix(1.00, 0.00, -0.00, -1.00, 625.9, 416.7)"> </text><text xml:space="preserve" font-family=".LucidaGrandeUI,.Lucida Grande UI" font-size="40.0" fill="#E82663" transform="matrix(1.00, 0.00, -0.00, -1.00, 638.6, 416.7)">p</text><text xml:space="preserve" font-family=".LucidaGrandeUI,.Lucida Grande UI" font-size="40.0" fill="#E82663" transform="matrix(1.00, 0.00, -0.00, -1.00, 663.8, 416.7)">r</text><text xml:space="preserve" font-family=".LucidaGrandeUI,.Lucida Grande UI" font-size="40.0" fill="#E82663" transform="matrix(1.00, 0.00, -0.00, -1.00, 680.1, 416.7)">e</text><text xml:space="preserve" font-family=".LucidaGrandeUI,.Lucida Grande UI" font-size="40.0" fill="#E82663" transform="matrix(1.00, 0.00, -0.00, -1.00, 702.4, 416.7)">v</text><text xml:space="preserve" font-family=".LucidaGrandeUI,.Lucida Grande UI" font-size="40.0" fill="#E82663" transform="matrix(1.00, 0.00, -0.00, -1.00, 723.0, 416.7)">i</text><text xml:space="preserve" font-family=".LucidaGrandeUI,.Lucida Grande UI" font-size="40.0" fill="#E82663" transform="matrix(1.00, 0.00, -0.00, -1.00, 734.6, 416.7)">o</text><text xml:space="preserve" font-family=".LucidaGrandeUI,.Lucida Grande UI" font-size="40.0" fill="#E82663" transform="matrix(1.00, 0.00, -0.00, -1.00, 759.2, 416.7)">u</text><text xml:space="preserve" font-family=".LucidaGrandeUI,.Lucida Grande UI" font-size="40.0" fill="#E82663" transform="matrix(1.00, 0.00, -0.00, -1.00, 784.0, 416.7)">s</text><text xml:space="preserve" font-family=".LucidaGrandeUI,.Lucida Grande UI" font-size="40.0" fill="#A3A3A3" transform="matrix(1.00, 0.00, -0.00, -1.00, 802.4, 416.7)">=</text><text xml:space="preserve" font-family=".LucidaGrandeUI,.Lucida Grande UI" font-size="40.0" fill="#0D9D57" transform="matrix(1.00, 0.00, -0.00, -1.00, 834.2, 416.7)">“</text><text xml:space="preserve" font-family=".LucidaGrandeUI,.Lucida Grande UI" font-size="40.0" fill="#0D9D57" transform="matrix(1.00, 0.00, -0.00, -1.00, 851.4, 416.7)">&lt;</text><text xml:space="preserve" font-family=".LucidaGrandeUI,.Lucida Grande UI" font-size="40.0" fill="#0D9D57" transform="matrix(1.00, 0.00, -0.00, -1.00, 883.2, 416.7)">&lt;</text><text xml:space="preserve" font-family=".LucidaGrandeUI,.Lucida Grande UI" font-size="40.0" fill="#0D9D57" transform="matrix(1.00, 0.00, -0.00, -1.00, 915.0, 416.7)"> </text><text xml:space="preserve" font-family=".LucidaGrandeUI,.Lucida Grande UI" font-size="40.0" fill="#0D9D57" transform="matrix(1.00, 0.00, -0.00, -1.00, 927.7, 416.7)">P</text><text xml:space="preserve" font-family=".LucidaGrandeUI,.Lucida Grande UI" font-size="40.0" fill="#0D9D57" transform="matrix(1.00, 0.00, -0.00, -1.00, 949.8, 416.7)">r</text><text xml:space="preserve" font-family=".LucidaGrandeUI,.Lucida Grande UI" font-size="40.0" fill="#0D9D57" transform="matrix(1.00, 0.00, -0.00, -1.00, 966.2, 416.7)">e</text><text xml:space="preserve" font-family=".LucidaGrandeUI,.Lucida Grande UI" font-size="40.0" fill="#0D9D57" transform="matrix(1.00, 0.00, -0.00, -1.00, 988.4, 416.7)">v</text><text xml:space="preserve" font-family=".LucidaGrandeUI,.Lucida Grande UI" font-size="40.0" fill="#0D9D57" transform="matrix(1.00, 0.00, -0.00, -1.00, 1009.0, 416.7)">i</text><text xml:space="preserve" font-family=".LucidaGrandeUI,.Lucida Grande UI" font-size="40.0" fill="#0D9D57" transform="matrix(1.00, 0.00, -0.00, -1.00, 1020.5, 416.7)">o</text><text xml:space="preserve" font-family=".LucidaGrandeUI,.Lucida Grande UI" font-size="40.0" fill="#0D9D57" transform="matrix(1.00, 0.00, -0.00, -1.00, 1045.1, 416.7)">u</text><text xml:space="preserve" font-family=".LucidaGrandeUI,.Lucida Grande UI" font-size="40.0" fill="#0D9D57" transform="matrix(1.00, 0.00, -0.00, -1.00, 1070.0, 416.7)">s</text><text xml:space="preserve" font-family=".LucidaGrandeUI,.Lucida Grande UI" font-size="40.0" fill="#0D9D57" transform="matrix(1.00, 0.00, -0.00, -1.00, 1088.5, 416.7)">"</text><text xml:space="preserve" font-family=".LucidaGrandeUI,.Lucida Grande UI" font-size="40.0" fill="#000000" transform="matrix(1.00, 0.00, -0.00, -1.00, 1103.4, 416.7)"> </text><text xml:space="preserve" font-family=".LucidaGrandeUI,.Lucida Grande UI" font-size="40.0" fill="#E82663" transform="matrix(1.00, 0.00, -0.00, -1.00, 1116.1, 416.7)">n</text><text xml:space="preserve" font-family=".LucidaGrandeUI,.Lucida Grande UI" font-size="40.0" fill="#E82663" transform="matrix(1.00, 0.00, -0.00, -1.00, 1140.9, 416.7)">e</text><text xml:space="preserve" font-family=".LucidaGrandeUI,.Lucida Grande UI" font-size="40.0" fill="#E82663" transform="matrix(1.00, 0.00, -0.00, -1.00, 1163.2, 416.7)">x</text><text xml:space="preserve" font-family=".LucidaGrandeUI,.Lucida Grande UI" font-size="40.0" fill="#E82663" transform="matrix(1.00, 0.00, -0.00, -1.00, 1186.0, 416.7)">t</text><text xml:space="preserve" font-family=".LucidaGrandeUI,.Lucida Grande UI" font-size="40.0" fill="#A3A3A3" transform="matrix(1.00, 0.00, -0.00, -1.00, 1201.0, 416.7)">=</text><text xml:space="preserve" font-family=".LucidaGrandeUI,.Lucida Grande UI" font-size="40.0" fill="#0D9D57" transform="matrix(1.00, 0.00, -0.00, -1.00, 1232.8, 416.7)">“</text><text xml:space="preserve" font-family=".LucidaGrandeUI,.Lucida Grande UI" font-size="40.0" fill="#0D9D57" transform="matrix(1.00, 0.00, -0.00, -1.00, 1250.0, 416.7)">N</text><text xml:space="preserve" font-family=".LucidaGrandeUI,.Lucida Grande UI" font-size="40.0" fill="#0D9D57" transform="matrix(1.00, 0.00, -0.00, -1.00, 1279.5, 416.7)">e</text><text xml:space="preserve" font-family=".LucidaGrandeUI,.Lucida Grande UI" font-size="40.0" fill="#0D9D57" transform="matrix(1.00, 0.00, -0.00, -1.00, 1301.8, 416.7)">x</text><text xml:space="preserve" font-family=".LucidaGrandeUI,.Lucida Grande UI" font-size="40.0" fill="#0D9D57" transform="matrix(1.00, 0.00, -0.00, -1.00, 1324.7, 416.7)">t</text><text xml:space="preserve" font-family=".LucidaGrandeUI,.Lucida Grande UI" font-size="40.0" fill="#0D9D57" transform="matrix(1.00, 0.00, -0.00, -1.00, 1339.6, 416.7)"> </text><text xml:space="preserve" font-family=".LucidaGrandeUI,.Lucida Grande UI" font-size="40.0" fill="#0D9D57" transform="matrix(1.00, 0.00, -0.00, -1.00, 1352.3, 416.7)">&gt;</text><text xml:space="preserve" font-family=".LucidaGrandeUI,.Lucida Grande UI" font-size="40.0" fill="#0D9D57" transform="matrix(1.00, 0.00, -0.00, -1.00, 1384.1, 416.7)">&gt;</text><text xml:space="preserve" font-family=".LucidaGrandeUI,.Lucida Grande UI" font-size="40.0" fill="#0D9D57" transform="matrix(1.00, 0.00, -0.00, -1.00, 1415.9, 416.7)">"</text><text xml:space="preserve" font-family=".LucidaGrandeUI,.Lucida Grande UI" font-size="40.0" fill="#4185F4" transform="matrix(1.00, 0.00, -0.00, -1.00, 1430.9, 416.7)">&gt;</text><text xml:space="preserve" font-family=".LucidaGrandeUI,.Lucida Grande UI" font-size="40.0" fill="#4185F4" transform="matrix(1.00, 0.00, -0.00, -1.00, 1462.6, 416.7)">&lt;</text><text xml:space="preserve" font-family=".LucidaGrandeUI,.Lucida Grande UI" font-size="40.0" fill="#4185F4" transform="matrix(1.00, 0.00, -0.00, -1.00, 1494.4, 416.7)">/</text><text xml:space="preserve" font-family=".LucidaGrandeUI,.Lucida Grande UI" font-size="40.0" fill="#4185F4" transform="matrix(1.00, 0.00, -0.00, -1.00, 1515.5, 416.7)">p</text><text xml:space="preserve" font-family=".LucidaGrandeUI,.Lucida Grande UI" font-size="40.0" fill="#4185F4" transform="matrix(1.00, 0.00, -0.00, -1.00, 1540.7, 416.7)">a</text><text xml:space="preserve" font-family=".LucidaGrandeUI,.Lucida Grande UI" font-size="40.0" fill="#4185F4" transform="matrix(1.00, 0.00, -0.00, -1.00, 1562.7, 416.7)">g</text><text xml:space="preserve" font-family=".LucidaGrandeUI,.Lucida Grande UI" font-size="40.0" fill="#4185F4" transform="matrix(1.00, 0.00, -0.00, -1.00, 1587.7, 416.7)">e</text><text xml:space="preserve" font-family=".LucidaGrandeUI,.Lucida Grande UI" font-size="40.0" fill="#4185F4" transform="matrix(1.00, 0.00, -0.00, -1.00, 1610.0, 416.7)">-</text><text xml:space="preserve" font-family=".LucidaGrandeUI,.Lucida Grande UI" font-size="40.0" fill="#4185F4" transform="matrix(1.00, 0.00, -0.00, -1.00, 1633.1, 416.7)">e</text><text xml:space="preserve" font-family=".LucidaGrandeUI,.Lucida Grande UI" font-size="40.0" fill="#4185F4" transform="matrix(1.00, 0.00, -0.00, -1.00, 1655.4, 416.7)">r</text><text xml:space="preserve" font-family=".LucidaGrandeUI,.Lucida Grande UI" font-size="40.0" fill="#4185F4" transform="matrix(1.00, 0.00, -0.00, -1.00, 1671.8, 416.7)">&gt;</text><text xml:space="preserve" font-family=".LucidaGrandeUI,.Lucida Grande UI" font-size="40.0" fill="#4185F4" transform="matrix(1.00, 0.00, -0.00, -1.00, 1703.5, 416.7)"></text><text xml:space="preserve" font-family=".LucidaGrandeUI,.Lucida Grande UI" font-size="40.0" fill="#4185F4" transform="matrix(1.00, 0.00, -0.00, -1.00, 179.9, 303.9)">v</text><text xml:space="preserve" font-family=".LucidaGrandeUI,.Lucida Grande UI" font-size="40.0" fill="#4185F4" transform="matrix(1.00, 0.00, -0.00, -1.00, 200.4, 303.9)">a</text><text xml:space="preserve" font-family=".LucidaGrandeUI,.Lucida Grande UI" font-size="40.0" fill="#4185F4" transform="matrix(1.00, 0.00, -0.00, -1.00, 222.6, 303.9)">r</text><text xml:space="preserve" font-family=".LucidaGrandeUI,.Lucida Grande UI" font-size="40.0" fill="#4185F4" transform="matrix(1.00, 0.00, -0.00, -1.00, 238.9, 303.9)"> </text><text xml:space="preserve" font-family=".LucidaGrandeUI,.Lucida Grande UI" font-size="40.0" fill="#4185F4" transform="matrix(1.00, 0.00, -0.00, -1.00, 251.6, 303.9)">p</text><text xml:space="preserve" font-family=".LucidaGrandeUI,.Lucida Grande UI" font-size="40.0" fill="#4185F4" transform="matrix(1.00, 0.00, -0.00, -1.00, 276.8, 303.9)">a</text><text xml:space="preserve" font-family=".LucidaGrandeUI,.Lucida Grande UI" font-size="40.0" fill="#4185F4" transform="matrix(1.00, 0.00, -0.00, -1.00, 298.9, 303.9)">g</text><text xml:space="preserve" font-family=".LucidaGrandeUI,.Lucida Grande UI" font-size="40.0" fill="#4185F4" transform="matrix(1.00, 0.00, -0.00, -1.00, 323.9, 303.9)">e</text><text xml:space="preserve" font-family=".LucidaGrandeUI,.Lucida Grande UI" font-size="40.0" fill="#4185F4" transform="matrix(1.00, 0.00, -0.00, -1.00, 346.2, 303.9)">r</text><text xml:space="preserve" font-family=".LucidaGrandeUI,.Lucida Grande UI" font-size="40.0" fill="#4185F4" transform="matrix(1.00, 0.00, -0.00, -1.00, 362.6, 303.9)"> </text><text xml:space="preserve" font-family=".LucidaGrandeUI,.Lucida Grande UI" font-size="40.0" fill="#A3A3A3" transform="matrix(1.00, 0.00, -0.00, -1.00, 375.1, 303.9)">=</text><text xml:space="preserve" font-family=".LucidaGrandeUI,.Lucida Grande UI" font-size="40.0" fill="#4185F4" transform="matrix(1.00, 0.00, -0.00, -1.00, 406.9, 303.9)"> </text><text xml:space="preserve" font-family=".LucidaGrandeUI,.Lucida Grande UI" font-size="40.0" fill="#4185F4" transform="matrix(1.00, 0.00, -0.00, -1.00, 419.6, 303.9)">d</text><text xml:space="preserve" font-family=".LucidaGrandeUI,.Lucida Grande UI" font-size="40.0" fill="#4185F4" transform="matrix(1.00, 0.00, -0.00, -1.00, 444.8, 303.9)">o</text><text xml:space="preserve" font-family=".LucidaGrandeUI,.Lucida Grande UI" font-size="40.0" fill="#4185F4" transform="matrix(1.00, 0.00, -0.00, -1.00, 469.3, 303.9)">c</text><text xml:space="preserve" font-family=".LucidaGrandeUI,.Lucida Grande UI" font-size="40.0" fill="#4185F4" transform="matrix(1.00, 0.00, -0.00, -1.00, 489.8, 303.9)">u</text><text xml:space="preserve" font-family=".LucidaGrandeUI,.Lucida Grande UI" font-size="40.0" fill="#4185F4" transform="matrix(1.00, 0.00, -0.00, -1.00, 514.6, 303.9)">m</text><text xml:space="preserve" font-family=".LucidaGrandeUI,.Lucida Grande UI" font-size="40.0" fill="#4185F4" transform="matrix(1.00, 0.00, -0.00, -1.00, 552.0, 303.9)">e</text><text xml:space="preserve" font-family=".LucidaGrandeUI,.Lucida Grande UI" font-size="40.0" fill="#4185F4" transform="matrix(1.00, 0.00, -0.00, -1.00, 574.3, 303.9)">n</text><text xml:space="preserve" font-family=".LucidaGrandeUI,.Lucida Grande UI" font-size="40.0" fill="#4185F4" transform="matrix(1.00, 0.00, -0.00, -1.00, 599.1, 303.9)">t</text><text xml:space="preserve" font-family=".LucidaGrandeUI,.Lucida Grande UI" font-size="40.0" fill="#A3A3A3" transform="matrix(1.00, 0.00, -0.00, -1.00, 614.0, 303.9)">.</text><text xml:space="preserve" font-family=".LucidaGrandeUI,.Lucida Grande UI" font-size="40.0" fill="#4185F4" transform="matrix(1.00, 0.00, -0.00, -1.00, 626.7, 303.9)">q</text><text xml:space="preserve" font-family=".LucidaGrandeUI,.Lucida Grande UI" font-size="40.0" fill="#4185F4" transform="matrix(1.00, 0.00, -0.00, -1.00, 651.9, 303.9)">u</text><text xml:space="preserve" font-family=".LucidaGrandeUI,.Lucida Grande UI" font-size="40.0" fill="#4185F4" transform="matrix(1.00, 0.00, -0.00, -1.00, 676.7, 303.9)">e</text><text xml:space="preserve" font-family=".LucidaGrandeUI,.Lucida Grande UI" font-size="40.0" fill="#4185F4" transform="matrix(1.00, 0.00, -0.00, -1.00, 699.0, 303.9)">r</text><text xml:space="preserve" font-family=".LucidaGrandeUI,.Lucida Grande UI" font-size="40.0" fill="#4185F4" transform="matrix(1.00, 0.00, -0.00, -1.00, 715.3, 303.9)">y</text><text xml:space="preserve" font-family=".LucidaGrandeUI,.Lucida Grande UI" font-size="40.0" fill="#4185F4" transform="matrix(1.00, 0.00, -0.00, -1.00, 735.9, 303.9)">S</text><text xml:space="preserve" font-family=".LucidaGrandeUI,.Lucida Grande UI" font-size="40.0" fill="#4185F4" transform="matrix(1.00, 0.00, -0.00, -1.00, 757.4, 303.9)">e</text><text xml:space="preserve" font-family=".LucidaGrandeUI,.Lucida Grande UI" font-size="40.0" fill="#4185F4" transform="matrix(1.00, 0.00, -0.00, -1.00, 779.7, 303.9)">l</text><text xml:space="preserve" font-family=".LucidaGrandeUI,.Lucida Grande UI" font-size="40.0" fill="#4185F4" transform="matrix(1.00, 0.00, -0.00, -1.00, 791.3, 303.9)">e</text><text xml:space="preserve" font-family=".LucidaGrandeUI,.Lucida Grande UI" font-size="40.0" fill="#4185F4" transform="matrix(1.00, 0.00, -0.00, -1.00, 813.6, 303.9)">c</text><text xml:space="preserve" font-family=".LucidaGrandeUI,.Lucida Grande UI" font-size="40.0" fill="#4185F4" transform="matrix(1.00, 0.00, -0.00, -1.00, 834.1, 303.9)">t</text><text xml:space="preserve" font-family=".LucidaGrandeUI,.Lucida Grande UI" font-size="40.0" fill="#4185F4" transform="matrix(1.00, 0.00, -0.00, -1.00, 849.0, 303.9)">o</text><text xml:space="preserve" font-family=".LucidaGrandeUI,.Lucida Grande UI" font-size="40.0" fill="#4185F4" transform="matrix(1.00, 0.00, -0.00, -1.00, 873.6, 303.9)">r</text><text xml:space="preserve" font-family=".LucidaGrandeUI,.Lucida Grande UI" font-size="40.0" fill="#A3A3A3" transform="matrix(1.00, 0.00, -0.00, -1.00, 890.0, 303.9)">(</text><text xml:space="preserve" font-family=".LucidaGrandeUI,.Lucida Grande UI" font-size="40.0" fill="#0D9D57" transform="matrix(1.00, 0.00, -0.00, -1.00, 903.0, 303.9)">"</text><text xml:space="preserve" font-family=".LucidaGrandeUI,.Lucida Grande UI" font-size="40.0" fill="#0D9D57" transform="matrix(1.00, 0.00, -0.00, -1.00, 917.9, 303.9)">p</text><text xml:space="preserve" font-family=".LucidaGrandeUI,.Lucida Grande UI" font-size="40.0" fill="#0D9D57" transform="matrix(1.00, 0.00, -0.00, -1.00, 943.1, 303.9)">a</text><text xml:space="preserve" font-family=".LucidaGrandeUI,.Lucida Grande UI" font-size="40.0" fill="#0D9D57" transform="matrix(1.00, 0.00, -0.00, -1.00, 965.2, 303.9)">g</text><text xml:space="preserve" font-family=".LucidaGrandeUI,.Lucida Grande UI" font-size="40.0" fill="#0D9D57" transform="matrix(1.00, 0.00, -0.00, -1.00, 990.1, 303.9)">e</text><text xml:space="preserve" font-family=".LucidaGrandeUI,.Lucida Grande UI" font-size="40.0" fill="#0D9D57" transform="matrix(1.00, 0.00, -0.00, -1.00, 1012.4, 303.9)">-</text><text xml:space="preserve" font-family=".LucidaGrandeUI,.Lucida Grande UI" font-size="40.0" fill="#0D9D57" transform="matrix(1.00, 0.00, -0.00, -1.00, 1035.5, 303.9)">e</text><text xml:space="preserve" font-family=".LucidaGrandeUI,.Lucida Grande UI" font-size="40.0" fill="#0D9D57" transform="matrix(1.00, 0.00, -0.00, -1.00, 1057.8, 303.9)">r</text><text xml:space="preserve" font-family=".LucidaGrandeUI,.Lucida Grande UI" font-size="40.0" fill="#0D9D57" transform="matrix(1.00, 0.00, -0.00, -1.00, 1074.2, 303.9)">"</text><text xml:space="preserve" font-family=".LucidaGrandeUI,.Lucida Grande UI" font-size="40.0" fill="#A3A3A3" transform="matrix(1.00, 0.00, -0.00, -1.00, 1089.1, 303.9)">)</text><text xml:space="preserve" font-family=".LucidaGrandeUI,.Lucida Grande UI" font-size="40.0" fill="#A3A3A3" transform="matrix(1.00, 0.00, -0.00, -1.00, 1102.1, 303.9)">;</text><text xml:space="preserve" font-family=".LucidaGrandeUI,.Lucida Grande UI" font-size="40.0" fill="#4185F4" transform="matrix(1.00, 0.00, -0.00, -1.00, 1114.8, 303.9)"></text><text xml:space="preserve" font-family=".LucidaGrandeUI,.Lucida Grande UI" font-size="40.0" fill="#4185F4" transform="matrix(1.00, 0.00, -0.00, -1.00, 179.9, 247.5)">d</text><text xml:space="preserve" font-family=".LucidaGrandeUI,.Lucida Grande UI" font-size="40.0" fill="#4185F4" transform="matrix(1.00, 0.00, -0.00, -1.00, 205.1, 247.5)">o</text><text xml:space="preserve" font-family=".LucidaGrandeUI,.Lucida Grande UI" font-size="40.0" fill="#4185F4" transform="matrix(1.00, 0.00, -0.00, -1.00, 229.7, 247.5)">c</text><text xml:space="preserve" font-family=".LucidaGrandeUI,.Lucida Grande UI" font-size="40.0" fill="#4185F4" transform="matrix(1.00, 0.00, -0.00, -1.00, 250.2, 247.5)">u</text><text xml:space="preserve" font-family=".LucidaGrandeUI,.Lucida Grande UI" font-size="40.0" fill="#4185F4" transform="matrix(1.00, 0.00, -0.00, -1.00, 275.0, 247.5)">m</text><text xml:space="preserve" font-family=".LucidaGrandeUI,.Lucida Grande UI" font-size="40.0" fill="#4185F4" transform="matrix(1.00, 0.00, -0.00, -1.00, 312.3, 247.5)">e</text><text xml:space="preserve" font-family=".LucidaGrandeUI,.Lucida Grande UI" font-size="40.0" fill="#4185F4" transform="matrix(1.00, 0.00, -0.00, -1.00, 334.6, 247.5)">n</text><text xml:space="preserve" font-family=".LucidaGrandeUI,.Lucida Grande UI" font-size="40.0" fill="#4185F4" transform="matrix(1.00, 0.00, -0.00, -1.00, 359.4, 247.5)">t</text><text xml:space="preserve" font-family=".LucidaGrandeUI,.Lucida Grande UI" font-size="40.0" fill="#A3A3A3" transform="matrix(1.00, 0.00, -0.00, -1.00, 374.3, 247.5)">.</text><text xml:space="preserve" font-family=".LucidaGrandeUI,.Lucida Grande UI" font-size="40.0" fill="#4185F4" transform="matrix(1.00, 0.00, -0.00, -1.00, 387.0, 247.5)">a</text><text xml:space="preserve" font-family=".LucidaGrandeUI,.Lucida Grande UI" font-size="40.0" fill="#4185F4" transform="matrix(1.00, 0.00, -0.00, -1.00, 409.1, 247.5)">d</text><text xml:space="preserve" font-family=".LucidaGrandeUI,.Lucida Grande UI" font-size="40.0" fill="#4185F4" transform="matrix(1.00, 0.00, -0.00, -1.00, 434.3, 247.5)">d</text><text xml:space="preserve" font-family=".LucidaGrandeUI,.Lucida Grande UI" font-size="40.0" fill="#4185F4" transform="matrix(1.00, 0.00, -0.00, -1.00, 459.5, 247.5)">E</text><text xml:space="preserve" font-family=".LucidaGrandeUI,.Lucida Grande UI" font-size="40.0" fill="#4185F4" transform="matrix(1.00, 0.00, -0.00, -1.00, 481.2, 247.5)">v</text><text xml:space="preserve" font-family=".LucidaGrandeUI,.Lucida Grande UI" font-size="40.0" fill="#4185F4" transform="matrix(1.00, 0.00, -0.00, -1.00, 501.7, 247.5)">e</text><text xml:space="preserve" font-family=".LucidaGrandeUI,.Lucida Grande UI" font-size="40.0" fill="#4185F4" transform="matrix(1.00, 0.00, -0.00, -1.00, 524.0, 247.5)">n</text><text xml:space="preserve" font-family=".LucidaGrandeUI,.Lucida Grande UI" font-size="40.0" fill="#4185F4" transform="matrix(1.00, 0.00, -0.00, -1.00, 548.8, 247.5)">t</text><text xml:space="preserve" font-family=".LucidaGrandeUI,.Lucida Grande UI" font-size="40.0" fill="#4185F4" transform="matrix(1.00, 0.00, -0.00, -1.00, 563.8, 247.5)">L</text><text xml:space="preserve" font-family=".LucidaGrandeUI,.Lucida Grande UI" font-size="40.0" fill="#4185F4" transform="matrix(1.00, 0.00, -0.00, -1.00, 584.9, 247.5)">i</text><text xml:space="preserve" font-family=".LucidaGrandeUI,.Lucida Grande UI" font-size="40.0" fill="#4185F4" transform="matrix(1.00, 0.00, -0.00, -1.00, 596.5, 247.5)">s</text><text xml:space="preserve" font-family=".LucidaGrandeUI,.Lucida Grande UI" font-size="40.0" fill="#4185F4" transform="matrix(1.00, 0.00, -0.00, -1.00, 615.0, 247.5)">t</text><text xml:space="preserve" font-family=".LucidaGrandeUI,.Lucida Grande UI" font-size="40.0" fill="#4185F4" transform="matrix(1.00, 0.00, -0.00, -1.00, 630.0, 247.5)">e</text><text xml:space="preserve" font-family=".LucidaGrandeUI,.Lucida Grande UI" font-size="40.0" fill="#4185F4" transform="matrix(1.00, 0.00, -0.00, -1.00, 652.3, 247.5)">n</text><text xml:space="preserve" font-family=".LucidaGrandeUI,.Lucida Grande UI" font-size="40.0" fill="#4185F4" transform="matrix(1.00, 0.00, -0.00, -1.00, 677.1, 247.5)">e</text><text xml:space="preserve" font-family=".LucidaGrandeUI,.Lucida Grande UI" font-size="40.0" fill="#4185F4" transform="matrix(1.00, 0.00, -0.00, -1.00, 699.4, 247.5)">r</text><text xml:space="preserve" font-family=".LucidaGrandeUI,.Lucida Grande UI" font-size="40.0" fill="#A3A3A3" transform="matrix(1.00, 0.00, -0.00, -1.00, 715.7, 247.5)">(</text><text xml:space="preserve" font-family=".LucidaGrandeUI,.Lucida Grande UI" font-size="40.0" fill="#0D9D57" transform="matrix(1.00, 0.00, -0.00, -1.00, 728.7, 247.5)">"</text><text xml:space="preserve" font-family=".LucidaGrandeUI,.Lucida Grande UI" font-size="40.0" fill="#0D9D57" transform="matrix(1.00, 0.00, -0.00, -1.00, 743.6, 247.5)">p</text><text xml:space="preserve" font-family=".LucidaGrandeUI,.Lucida Grande UI" font-size="40.0" fill="#0D9D57" transform="matrix(1.00, 0.00, -0.00, -1.00, 768.8, 247.5)">o</text><text xml:space="preserve" font-family=".LucidaGrandeUI,.Lucida Grande UI" font-size="40.0" fill="#0D9D57" transform="matrix(1.00, 0.00, -0.00, -1.00, 793.4, 247.5)">l</text><text xml:space="preserve" font-family=".LucidaGrandeUI,.Lucida Grande UI" font-size="40.0" fill="#0D9D57" transform="matrix(1.00, 0.00, -0.00, -1.00, 805.0, 247.5)">y</text><text xml:space="preserve" font-family=".LucidaGrandeUI,.Lucida Grande UI" font-size="40.0" fill="#0D9D57" transform="matrix(1.00, 0.00, -0.00, -1.00, 825.6, 247.5)">m</text><text xml:space="preserve" font-family=".LucidaGrandeUI,.Lucida Grande UI" font-size="40.0" fill="#0D9D57" transform="matrix(1.00, 0.00, -0.00, -1.00, 862.9, 247.5)">e</text><text xml:space="preserve" font-family=".LucidaGrandeUI,.Lucida Grande UI" font-size="40.0" fill="#0D9D57" transform="matrix(1.00, 0.00, -0.00, -1.00, 885.2, 247.5)">r</text><text xml:space="preserve" font-family=".LucidaGrandeUI,.Lucida Grande UI" font-size="40.0" fill="#0D9D57" transform="matrix(1.00, 0.00, -0.00, -1.00, 901.6, 247.5)">-</text><text xml:space="preserve" font-family=".LucidaGrandeUI,.Lucida Grande UI" font-size="40.0" fill="#0D9D57" transform="matrix(1.00, 0.00, -0.00, -1.00, 924.7, 247.5)">r</text><text xml:space="preserve" font-family=".LucidaGrandeUI,.Lucida Grande UI" font-size="40.0" fill="#0D9D57" transform="matrix(1.00, 0.00, -0.00, -1.00, 941.1, 247.5)">e</text><text xml:space="preserve" font-family=".LucidaGrandeUI,.Lucida Grande UI" font-size="40.0" fill="#0D9D57" transform="matrix(1.00, 0.00, -0.00, -1.00, 963.4, 247.5)">a</text><text xml:space="preserve" font-family=".LucidaGrandeUI,.Lucida Grande UI" font-size="40.0" fill="#0D9D57" transform="matrix(1.00, 0.00, -0.00, -1.00, 985.5, 247.5)">d</text><text xml:space="preserve" font-family=".LucidaGrandeUI,.Lucida Grande UI" font-size="40.0" fill="#0D9D57" transform="matrix(1.00, 0.00, -0.00, -1.00, 1010.7, 247.5)">y</text><text xml:space="preserve" font-family=".LucidaGrandeUI,.Lucida Grande UI" font-size="40.0" fill="#0D9D57" transform="matrix(1.00, 0.00, -0.00, -1.00, 1031.3, 247.5)">"</text><text xml:space="preserve" font-family=".LucidaGrandeUI,.Lucida Grande UI" font-size="40.0" fill="#A3A3A3" transform="matrix(1.00, 0.00, -0.00, -1.00, 1046.1, 247.5)">,</text><text xml:space="preserve" font-family=".LucidaGrandeUI,.Lucida Grande UI" font-size="40.0" fill="#4185F4" transform="matrix(1.00, 0.00, -0.00, -1.00, 1058.7, 247.5)"> </text><text xml:space="preserve" font-family=".LucidaGrandeUI,.Lucida Grande UI" font-size="40.0" fill="#4185F4" transform="matrix(1.00, 0.00, -0.00, -1.00, 1071.4, 247.5)">f</text><text xml:space="preserve" font-family=".LucidaGrandeUI,.Lucida Grande UI" font-size="40.0" fill="#4185F4" transform="matrix(1.00, 0.00, -0.00, -1.00, 1086.1, 247.5)">u</text><text xml:space="preserve" font-family=".LucidaGrandeUI,.Lucida Grande UI" font-size="40.0" fill="#4185F4" transform="matrix(1.00, 0.00, -0.00, -1.00, 1110.9, 247.5)">n</text><text xml:space="preserve" font-family=".LucidaGrandeUI,.Lucida Grande UI" font-size="40.0" fill="#4185F4" transform="matrix(1.00, 0.00, -0.00, -1.00, 1135.7, 247.5)">c</text><text xml:space="preserve" font-family=".LucidaGrandeUI,.Lucida Grande UI" font-size="40.0" fill="#4185F4" transform="matrix(1.00, 0.00, -0.00, -1.00, 1156.2, 247.5)">t</text><text xml:space="preserve" font-family=".LucidaGrandeUI,.Lucida Grande UI" font-size="40.0" fill="#4185F4" transform="matrix(1.00, 0.00, -0.00, -1.00, 1171.2, 247.5)">i</text><text xml:space="preserve" font-family=".LucidaGrandeUI,.Lucida Grande UI" font-size="40.0" fill="#4185F4" transform="matrix(1.00, 0.00, -0.00, -1.00, 1182.7, 247.5)">o</text><text xml:space="preserve" font-family=".LucidaGrandeUI,.Lucida Grande UI" font-size="40.0" fill="#4185F4" transform="matrix(1.00, 0.00, -0.00, -1.00, 1207.3, 247.5)">n</text><text xml:space="preserve" font-family=".LucidaGrandeUI,.Lucida Grande UI" font-size="40.0" fill="#A3A3A3" transform="matrix(1.00, 0.00, -0.00, -1.00, 1232.2, 247.5)">(</text><text xml:space="preserve" font-family=".LucidaGrandeUI,.Lucida Grande UI" font-size="40.0" fill="#A3A3A3" transform="matrix(1.00, 0.00, -0.00, -1.00, 1245.2, 247.5)">)</text><text xml:space="preserve" font-family=".LucidaGrandeUI,.Lucida Grande UI" font-size="40.0" fill="#4185F4" transform="matrix(1.00, 0.00, -0.00, -1.00, 1258.2, 247.5)"> </text><text xml:space="preserve" font-family=".LucidaGrandeUI,.Lucida Grande UI" font-size="40.0" fill="#A3A3A3" transform="matrix(1.00, 0.00, -0.00, -1.00, 1270.8, 247.5)">{</text><text xml:space="preserve" font-family=".LucidaGrandeUI,.Lucida Grande UI" font-size="40.0" fill="#4185F4" transform="matrix(1.00, 0.00, -0.00, -1.00, 1283.8, 247.5)"></text><text xml:space="preserve" font-family=".LucidaGrandeUI,.Lucida Grande UI" font-size="40.0" fill="#4185F4" transform="matrix(1.00, 0.00, -0.00, -1.00, 179.9, 191.1)"> </text><text xml:space="preserve" font-family=".LucidaGrandeUI,.Lucida Grande UI" font-size="40.0" fill="#4185F4" transform="matrix(1.00, 0.00, -0.00, -1.00, 192.5, 191.1)"> </text><text xml:space="preserve" font-family=".LucidaGrandeUI,.Lucida Grande UI" font-size="40.0" fill="#4185F4" transform="matrix(1.00, 0.00, -0.00, -1.00, 205.2, 191.1)">p</text><text xml:space="preserve" font-family=".LucidaGrandeUI,.Lucida Grande UI" font-size="40.0" fill="#4185F4" transform="matrix(1.00, 0.00, -0.00, -1.00, 230.4, 191.1)">a</text><text xml:space="preserve" font-family=".LucidaGrandeUI,.Lucida Grande UI" font-size="40.0" fill="#4185F4" transform="matrix(1.00, 0.00, -0.00, -1.00, 252.5, 191.1)">g</text><text xml:space="preserve" font-family=".LucidaGrandeUI,.Lucida Grande UI" font-size="40.0" fill="#4185F4" transform="matrix(1.00, 0.00, -0.00, -1.00, 277.4, 191.1)">e</text><text xml:space="preserve" font-family=".LucidaGrandeUI,.Lucida Grande UI" font-size="40.0" fill="#4185F4" transform="matrix(1.00, 0.00, -0.00, -1.00, 299.7, 191.1)">r</text><text xml:space="preserve" font-family=".LucidaGrandeUI,.Lucida Grande UI" font-size="40.0" fill="#A3A3A3" transform="matrix(1.00, 0.00, -0.00, -1.00, 316.0, 191.1)">.</text><text xml:space="preserve" font-family=".LucidaGrandeUI,.Lucida Grande UI" font-size="40.0" fill="#4185F4" transform="matrix(1.00, 0.00, -0.00, -1.00, 328.7, 191.1)">d</text><text xml:space="preserve" font-family=".LucidaGrandeUI,.Lucida Grande UI" font-size="40.0" fill="#4185F4" transform="matrix(1.00, 0.00, -0.00, -1.00, 353.9, 191.1)">a</text><text xml:space="preserve" font-family=".LucidaGrandeUI,.Lucida Grande UI" font-size="40.0" fill="#4185F4" transform="matrix(1.00, 0.00, -0.00, -1.00, 376.0, 191.1)">t</text><text xml:space="preserve" font-family=".LucidaGrandeUI,.Lucida Grande UI" font-size="40.0" fill="#4185F4" transform="matrix(1.00, 0.00, -0.00, -1.00, 391.0, 191.1)">a</text><text xml:space="preserve" font-family=".LucidaGrandeUI,.Lucida Grande UI" font-size="40.0" fill="#4185F4" transform="matrix(1.00, 0.00, -0.00, -1.00, 413.1, 191.1)"> </text><text xml:space="preserve" font-family=".LucidaGrandeUI,.Lucida Grande UI" font-size="40.0" fill="#A3A3A3" transform="matrix(1.00, 0.00, -0.00, -1.00, 425.7, 191.1)">=</text><text xml:space="preserve" font-family=".LucidaGrandeUI,.Lucida Grande UI" font-size="40.0" fill="#4185F4" transform="matrix(1.00, 0.00, -0.00, -1.00, 457.5, 191.1)"> </text><text xml:space="preserve" font-family=".LucidaGrandeUI,.Lucida Grande UI" font-size="40.0" fill="#4185F4" transform="matrix(1.00, 0.00, -0.00, -1.00, 470.1, 191.1)">m</text><text xml:space="preserve" font-family=".LucidaGrandeUI,.Lucida Grande UI" font-size="40.0" fill="#4185F4" transform="matrix(1.00, 0.00, -0.00, -1.00, 507.5, 191.1)">o</text><text xml:space="preserve" font-family=".LucidaGrandeUI,.Lucida Grande UI" font-size="40.0" fill="#4185F4" transform="matrix(1.00, 0.00, -0.00, -1.00, 532.1, 191.1)">d</text><text xml:space="preserve" font-family=".LucidaGrandeUI,.Lucida Grande UI" font-size="40.0" fill="#4185F4" transform="matrix(1.00, 0.00, -0.00, -1.00, 557.2, 191.1)">e</text><text xml:space="preserve" font-family=".LucidaGrandeUI,.Lucida Grande UI" font-size="40.0" fill="#4185F4" transform="matrix(1.00, 0.00, -0.00, -1.00, 579.5, 191.1)">l</text><text xml:space="preserve" font-family=".LucidaGrandeUI,.Lucida Grande UI" font-size="40.0" fill="#A3A3A3" transform="matrix(1.00, 0.00, -0.00, -1.00, 591.1, 191.1)">.</text><text xml:space="preserve" font-family=".LucidaGrandeUI,.Lucida Grande UI" font-size="40.0" fill="#4185F4" transform="matrix(1.00, 0.00, -0.00, -1.00, 603.7, 191.1)">i</text><text xml:space="preserve" font-family=".LucidaGrandeUI,.Lucida Grande UI" font-size="40.0" fill="#4185F4" transform="matrix(1.00, 0.00, -0.00, -1.00, 615.3, 191.1)">t</text><text xml:space="preserve" font-family=".LucidaGrandeUI,.Lucida Grande UI" font-size="40.0" fill="#4185F4" transform="matrix(1.00, 0.00, -0.00, -1.00, 630.2, 191.1)">e</text><text xml:space="preserve" font-family=".LucidaGrandeUI,.Lucida Grande UI" font-size="40.0" fill="#4185F4" transform="matrix(1.00, 0.00, -0.00, -1.00, 652.5, 191.1)">m</text><text xml:space="preserve" font-family=".LucidaGrandeUI,.Lucida Grande UI" font-size="40.0" fill="#4185F4" transform="matrix(1.00, 0.00, -0.00, -1.00, 689.9, 191.1)">s</text><text xml:space="preserve" font-family=".LucidaGrandeUI,.Lucida Grande UI" font-size="40.0" fill="#A3A3A3" transform="matrix(1.00, 0.00, -0.00, -1.00, 708.4, 191.1)">;</text><text xml:space="preserve" font-family=".LucidaGrandeUI,.Lucida Grande UI" font-size="40.0" fill="#4185F4" transform="matrix(1.00, 0.00, -0.00, -1.00, 721.0, 191.1)"></text><text xml:space="preserve" font-family=".LucidaGrandeUI,.Lucida Grande UI" font-size="40.0" fill="#A3A3A3" transform="matrix(1.00, 0.00, -0.00, -1.00, 179.9, 134.7)">}</text><text xml:space="preserve" font-family=".LucidaGrandeUI,.Lucida Grande UI" font-size="40.0" fill="#A3A3A3" transform="matrix(1.00, 0.00, -0.00, -1.00, 192.9, 134.7)">)</text><text xml:space="preserve" font-family=".LucidaGrandeUI,.Lucida Grande UI" font-size="40.0" fill="#A3A3A3" transform="matrix(1.00, 0.00, -0.00, -1.00, 205.9, 134.7)">;</text></g></g></g></svg>