<?xml version="1.0" encoding="UTF-8" standalone="no"?><svg xmlns="http://www.w3.org/2000/svg" xmlns:xlink="http://www.w3.org/1999/xlink" clip-rule="evenodd" stroke-miterlimit="10" viewBox="0 0 1920 1080"><desc>SVG generated by Keynote</desc><defs></defs><g transform="matrix(1.00, 0.00, -0.00, -1.00, 0.0, 1080.0)"><path d="M 0.0 1080.0 L 1920.0 1080.0 L 1920.0 0.0 L 0.0 0.0 Z M 0.0 1080.0 " fill="#00ABC1"></path><text xml:space="preserve" font-family="Roboto-Medium,Roboto" font-size="141.0" fill="#FFFFFF" transform="matrix(1.00, 0.00, -0.00, -1.00, 274.2, 701.2)">&lt;</text><text xml:space="preserve" font-family="Roboto-Medium,Roboto" font-size="141.0" fill="#FFFFFF" transform="matrix(1.00, 0.00, -0.00, -1.00, 344.5, 701.2)">a</text><text xml:space="preserve" font-family="Roboto-Medium,Roboto" font-size="141.0" fill="#FFFFFF" transform="matrix(1.00, 0.00, -0.00, -1.00, 419.8, 701.2)">j</text><text xml:space="preserve" font-family="Roboto-Medium,Roboto" font-size="141.0" fill="#FFFFFF" transform="matrix(1.00, 0.00, -0.00, -1.00, 455.4, 701.2)">a</text><text xml:space="preserve" font-family="Roboto-Medium,Roboto" font-size="141.0" fill="#FFFFFF" transform="matrix(1.00, 0.00, -0.00, -1.00, 530.7, 701.2)">x</text><text xml:space="preserve" font-family="Roboto-Medium,Roboto" font-size="141.0" fill="#FFFFFF" transform="matrix(1.00, 0.00, -0.00, -1.00, 600.7, 701.2)">-</text><text xml:space="preserve" font-family="Roboto-Medium,Roboto" font-size="141.0" fill="#FFFFFF" transform="matrix(1.00, 0.00, -0.00, -1.00, 645.6, 701.2)">f</text><text xml:space="preserve" font-family="Roboto-Medium,Roboto" font-size="141.0" fill="#FFFFFF" transform="matrix(1.00, 0.00, -0.00, -1.00, 693.7, 701.2)">o</text><text xml:space="preserve" font-family="Roboto-Medium,Roboto" font-size="141.0" fill="#FFFFFF" transform="matrix(1.00, 0.00, -0.00, -1.00, 772.2, 701.2)">r</text><text xml:space="preserve" font-family="Roboto-Medium,Roboto" font-size="141.0" fill="#FFFFFF" transform="matrix(1.00, 0.00, -0.00, -1.00, 819.7, 701.2)">m</text><text xml:space="preserve" font-family="Roboto-Medium,Roboto" font-size="141.0" fill="#FFFFFF" transform="matrix(1.00, 0.00, -0.00, -1.00, 940.8, 701.2)">&gt;</text><text xml:space="preserve" font-family="Roboto-Regular,Roboto" font-size="37.0" fill="#FFFFFF" transform="matrix(1.00, 0.00, -0.00, -1.00, 375.9, 622.5)">g</text><text xml:space="preserve" font-family="Roboto-Regular,Roboto" font-size="37.0" fill="#FFFFFF" transform="matrix(1.00, 0.00, -0.00, -1.00, 397.0, 622.5)">i</text><text xml:space="preserve" font-family="Roboto-Regular,Roboto" font-size="37.0" fill="#FFFFFF" transform="matrix(1.00, 0.00, -0.00, -1.00, 406.3, 622.5)">t</text><text xml:space="preserve" font-family="Roboto-Regular,Roboto" font-size="37.0" fill="#FFFFFF" transform="matrix(1.00, 0.00, -0.00, -1.00, 419.1, 622.5)">h</text><text xml:space="preserve" font-family="Roboto-Regular,Roboto" font-size="37.0" fill="#FFFFFF" transform="matrix(1.00, 0.00, -0.00, -1.00, 440.1, 622.5)">u</text><text xml:space="preserve" font-family="Roboto-Regular,Roboto" font-size="37.0" fill="#FFFFFF" transform="matrix(1.00, 0.00, -0.00, -1.00, 461.2, 622.5)">b</text><text xml:space="preserve" font-family="Roboto-Regular,Roboto" font-size="37.0" fill="#FFFFFF" transform="matrix(1.00, 0.00, -0.00, -1.00, 482.2, 622.5)">.</text><text xml:space="preserve" font-family="Roboto-Regular,Roboto" font-size="37.0" fill="#FFFFFF" transform="matrix(1.00, 0.00, -0.00, -1.00, 492.1, 622.5)">c</text><text xml:space="preserve" font-family="Roboto-Regular,Roboto" font-size="37.0" fill="#FFFFFF" transform="matrix(1.00, 0.00, -0.00, -1.00, 511.7, 622.5)">o</text><text xml:space="preserve" font-family="Roboto-Regular,Roboto" font-size="37.0" fill="#FFFFFF" transform="matrix(1.00, 0.00, -0.00, -1.00, 532.8, 622.5)">m</text><text xml:space="preserve" font-family="Roboto-Regular,Roboto" font-size="37.0" fill="#FFFFFF" transform="matrix(1.00, 0.00, -0.00, -1.00, 565.1, 622.5)">/</text><text xml:space="preserve" font-family="Roboto-Regular,Roboto" font-size="37.0" fill="#FFFFFF" transform="matrix(1.00, 0.00, -0.00, -1.00, 580.5, 622.5)">g</text><text xml:space="preserve" font-family="Roboto-Regular,Roboto" font-size="37.0" fill="#FFFFFF" transform="matrix(1.00, 0.00, -0.00, -1.00, 601.5, 622.5)">a</text><text xml:space="preserve" font-family="Roboto-Regular,Roboto" font-size="37.0" fill="#FFFFFF" transform="matrix(1.00, 0.00, -0.00, -1.00, 621.8, 622.5)">r</text><text xml:space="preserve" font-family="Roboto-Regular,Roboto" font-size="37.0" fill="#FFFFFF" transform="matrix(1.00, 0.00, -0.00, -1.00, 634.5, 622.5)">s</text><text xml:space="preserve" font-family="Roboto-Regular,Roboto" font-size="37.0" fill="#FFFFFF" transform="matrix(1.00, 0.00, -0.00, -1.00, 653.9, 622.5)">t</text><text xml:space="preserve" font-family="Roboto-Regular,Roboto" font-size="37.0" fill="#FFFFFF" transform="matrix(1.00, 0.00, -0.00, -1.00, 666.6, 622.5)">a</text><text xml:space="preserve" font-family="Roboto-Regular,Roboto" font-size="37.0" fill="#FFFFFF" transform="matrix(1.00, 0.00, -0.00, -1.00, 687.0, 622.5)">s</text><text xml:space="preserve" font-family="Roboto-Regular,Roboto" font-size="37.0" fill="#FFFFFF" transform="matrix(1.00, 0.00, -0.00, -1.00, 706.3, 622.5)">i</text><text xml:space="preserve" font-family="Roboto-Regular,Roboto" font-size="37.0" fill="#FFFFFF" transform="matrix(1.00, 0.00, -0.00, -1.00, 715.7, 622.5)">o</text><text xml:space="preserve" font-family="Roboto-Regular,Roboto" font-size="37.0" fill="#FFFFFF" transform="matrix(1.00, 0.00, -0.00, -1.00, 736.7, 622.5)">/</text><text xml:space="preserve" font-family="Roboto-Regular,Roboto" font-size="37.0" fill="#FFFFFF" transform="matrix(1.00, 0.00, -0.00, -1.00, 752.1, 622.5)">a</text><text xml:space="preserve" font-family="Roboto-Regular,Roboto" font-size="37.0" fill="#FFFFFF" transform="matrix(1.00, 0.00, -0.00, -1.00, 772.4, 622.5)">j</text><text xml:space="preserve" font-family="Roboto-Regular,Roboto" font-size="37.0" fill="#FFFFFF" transform="matrix(1.00, 0.00, -0.00, -1.00, 782.0, 622.5)">a</text><text xml:space="preserve" font-family="Roboto-Regular,Roboto" font-size="37.0" fill="#FFFFFF" transform="matrix(1.00, 0.00, -0.00, -1.00, 802.3, 622.5)">x</text><text xml:space="preserve" font-family="Roboto-Regular,Roboto" font-size="37.0" fill="#FFFFFF" transform="matrix(1.00, 0.00, -0.00, -1.00, 820.9, 622.5)">-</text><text xml:space="preserve" font-family="Roboto-Regular,Roboto" font-size="37.0" fill="#FFFFFF" transform="matrix(1.00, 0.00, -0.00, -1.00, 831.0, 622.5)">f</text><text xml:space="preserve" font-family="Roboto-Regular,Roboto" font-size="37.0" fill="#FFFFFF" transform="matrix(1.00, 0.00, -0.00, -1.00, 843.8, 622.5)">o</text><text xml:space="preserve" font-family="Roboto-Regular,Roboto" font-size="37.0" fill="#FFFFFF" transform="matrix(1.00, 0.00, -0.00, -1.00, 864.9, 622.5)">r</text><text xml:space="preserve" font-family="Roboto-Regular,Roboto" font-size="37.0" fill="#FFFFFF" transform="matrix(1.00, 0.00, -0.00, -1.00, 877.5, 622.5)">m</text><g><clipPath id="clip0x600004eb52a0"><path d="M 864.0 1395.0 L 3362.0 1395.0 L 3362.0 -501.0 L 864.0 -501.0 Z M 864.1 1395.3 "></path></clipPath><g clip-path="url(#clip0x600004eb52a0)"><image xlink:href="../../8AFA84B7-D1E2-448D-8FF5-63B5FA31F376/assets/B7D334E08780915D84B4A8F826C707BB.png" width="1120.00" height="850.00" transform="matrix(2.23, 0.00, -0.00, -2.23, 864.1, 1395.3)"></image></g></g><g opacity="0.60"><g><clipPath id="clip0x600004eb5540"><path d="M 1326.0 591.0 L 1920.0 591.0 L 1920.0 699.0 L 1326.0 699.0 Z M 1326.0 591.0 "></path></clipPath><g clip-path="url(#clip0x600004eb5540)"><path d="M -0.2 84.9 L -0.2 15.0 C -0.2 6.7 6.7 0.4 15.0 0.4 L 623.6 0.4 C 631.9 0.4 638.8 6.7 638.8 15.0 L 638.8 85.0 C 638.8 93.3 631.9 100.4 623.6 100.4 L 15.0 100.4 C 6.7 100.4 -0.2 93.1 -0.2 84.9 Z M 0.0 85.0 " fill="none" stroke="#E0E0E0" stroke-width="5.00" transform="matrix(1.00, 0.00, 0.00, -1.00, 1329.7, 694.9)"></path></g></g></g><g opacity="0.60"><g><clipPath id="clip0x600004eb57e0"><path d="M 1330.0 713.0 L 1574.0 713.0 L 1574.0 773.0 L 1330.0 773.0 Z M 1330.0 713.0 "></path></clipPath><g clip-path="url(#clip0x600004eb57e0)"><text xml:space="preserve" font-family=".LucidaGrandeUI,.Lucida Grande UI" font-size="50.0" fill="#B2B2B2" transform="matrix(1.00, 0.00, -0.00, -1.00, 1330.6, 724.4)">F</text><text xml:space="preserve" font-family=".LucidaGrandeUI,.Lucida Grande UI" font-size="50.0" fill="#B2B2B2" transform="matrix(1.00, 0.00, -0.00, -1.00, 1357.3, 724.4)">u</text><text xml:space="preserve" font-family=".LucidaGrandeUI,.Lucida Grande UI" font-size="50.0" fill="#B2B2B2" transform="matrix(1.00, 0.00, -0.00, -1.00, 1388.3, 724.4)">l</text><text xml:space="preserve" font-family=".LucidaGrandeUI,.Lucida Grande UI" font-size="50.0" fill="#B2B2B2" transform="matrix(1.00, 0.00, -0.00, -1.00, 1402.8, 724.4)">l</text><text xml:space="preserve" font-family=".LucidaGrandeUI,.Lucida Grande UI" font-size="50.0" fill="#B2B2B2" transform="matrix(1.00, 0.00, -0.00, -1.00, 1417.3, 724.4)"> </text><text xml:space="preserve" font-family=".LucidaGrandeUI,.Lucida Grande UI" font-size="50.0" fill="#B2B2B2" transform="matrix(1.00, 0.00, -0.00, -1.00, 1433.1, 724.4)">N</text><text xml:space="preserve" font-family=".LucidaGrandeUI,.Lucida Grande UI" font-size="50.0" fill="#B2B2B2" transform="matrix(1.00, 0.00, -0.00, -1.00, 1470.0, 724.4)">a</text><text xml:space="preserve" font-family=".LucidaGrandeUI,.Lucida Grande UI" font-size="50.0" fill="#B2B2B2" transform="matrix(1.00, 0.00, -0.00, -1.00, 1497.7, 724.4)">m</text><text xml:space="preserve" font-family=".LucidaGrandeUI,.Lucida Grande UI" font-size="50.0" fill="#B2B2B2" transform="matrix(1.00, 0.00, -0.00, -1.00, 1544.3, 724.4)">e</text></g></g></g><g opacity="0.60"><g><clipPath id="clip0x600004eb5d80"><path d="M 1326.0 375.0 L 1600.0 375.0 L 1600.0 483.0 L 1326.0 483.0 Z M 1326.0 375.0 "></path></clipPath><g clip-path="url(#clip0x600004eb5d80)"><path d="M -0.2 84.9 L -0.2 15.0 C -0.2 6.7 6.7 0.4 15.0 0.4 L 251.8 0.4 C 260.0 0.4 266.8 6.7 266.8 15.0 L 266.8 85.0 C 266.8 93.3 260.0 100.4 251.8 100.4 L 15.0 100.4 C 6.7 100.4 -0.2 93.1 -0.2 84.9 Z M 0.0 85.0 " fill="none" stroke="#E0E0E0" stroke-width="5.00" transform="matrix(1.00, 0.00, 0.00, -1.00, 1329.7, 478.9)"></path></g></g></g><g opacity="0.60"><g><clipPath id="clip0x600004eb9aa0"><path d="M 1664.0 375.0 L 1920.0 375.0 L 1920.0 483.0 L 1664.0 483.0 Z M 1664.0 375.0 "></path></clipPath><g clip-path="url(#clip0x600004eb9aa0)"><path d="M 0.4 84.9 L 0.4 15.0 C 0.4 6.7 6.7 0.4 15.0 0.4 L 280.9 0.4 C 289.2 0.4 296.4 6.7 296.4 15.0 L 296.4 85.0 C 296.4 93.3 289.2 100.4 280.9 100.4 L 15.0 100.4 C 6.7 100.4 0.4 93.1 0.4 84.9 Z M 0.0 85.0 " fill="none" stroke="#E0E0E0" stroke-width="5.00" transform="matrix(1.00, 0.00, 0.00, -1.00, 1668.1, 478.9)"></path></g></g></g><g opacity="0.60"><g><clipPath id="clip0x6000050b6740"><path d="M 1330.0 495.0 L 1524.0 495.0 L 1524.0 556.0 L 1330.0 556.0 Z M 1330.0 495.0 "></path></clipPath><g clip-path="url(#clip0x6000050b6740)"><text xml:space="preserve" font-family=".LucidaGrandeUI,.Lucida Grande UI" font-size="50.0" fill="#B2B2B2" transform="matrix(1.00, 0.00, -0.00, -1.00, 1330.6, 506.9)">C</text><text xml:space="preserve" font-family=".LucidaGrandeUI,.Lucida Grande UI" font-size="50.0" fill="#B2B2B2" transform="matrix(1.00, 0.00, -0.00, -1.00, 1365.1, 506.9)">o</text><text xml:space="preserve" font-family=".LucidaGrandeUI,.Lucida Grande UI" font-size="50.0" fill="#B2B2B2" transform="matrix(1.00, 0.00, -0.00, -1.00, 1395.8, 506.9)">u</text><text xml:space="preserve" font-family=".LucidaGrandeUI,.Lucida Grande UI" font-size="50.0" fill="#B2B2B2" transform="matrix(1.00, 0.00, -0.00, -1.00, 1426.9, 506.9)">n</text><text xml:space="preserve" font-family=".LucidaGrandeUI,.Lucida Grande UI" font-size="50.0" fill="#B2B2B2" transform="matrix(1.00, 0.00, -0.00, -1.00, 1457.9, 506.9)">t</text><text xml:space="preserve" font-family=".LucidaGrandeUI,.Lucida Grande UI" font-size="50.0" fill="#B2B2B2" transform="matrix(1.00, 0.00, -0.00, -1.00, 1476.6, 506.9)">r</text><text xml:space="preserve" font-family=".LucidaGrandeUI,.Lucida Grande UI" font-size="50.0" fill="#B2B2B2" transform="matrix(1.00, 0.00, -0.00, -1.00, 1497.0, 506.9)">y</text></g></g></g><g opacity="0.60"><g><clipPath id="clip0x600004ab6260"><path d="M 1676.0 495.0 L 1772.0 495.0 L 1772.0 556.0 L 1676.0 556.0 Z M 1676.0 495.0 "></path></clipPath><g clip-path="url(#clip0x600004ab6260)"><text xml:space="preserve" font-family=".LucidaGrandeUI,.Lucida Grande UI" font-size="50.0" fill="#B2B2B2" transform="matrix(1.00, 0.00, -0.00, -1.00, 1676.8, 506.9)">C</text><text xml:space="preserve" font-family=".LucidaGrandeUI,.Lucida Grande UI" font-size="50.0" fill="#B2B2B2" transform="matrix(1.00, 0.00, -0.00, -1.00, 1711.4, 506.9)">i</text><text xml:space="preserve" font-family=".LucidaGrandeUI,.Lucida Grande UI" font-size="50.0" fill="#B2B2B2" transform="matrix(1.00, 0.00, -0.00, -1.00, 1725.8, 506.9)">t</text><text xml:space="preserve" font-family=".LucidaGrandeUI,.Lucida Grande UI" font-size="50.0" fill="#B2B2B2" transform="matrix(1.00, 0.00, -0.00, -1.00, 1744.5, 506.9)">y</text></g></g></g><g opacity="0.60"><g><clipPath id="clip0x600004eb6440"><path d="M 1332.0 221.0 L 1920.0 221.0 L 1920.0 230.0 L 1332.0 230.0 Z M 1332.0 221.0 "></path></clipPath><g clip-path="url(#clip0x600004eb6440)"><path d="M 0.1 0.2 L 889.1 0.2 " fill="none" stroke="#A7A7A7" stroke-width="6.00" stroke-linejoin="round" transform="matrix(1.00, 0.00, 0.00, -1.00, 1333.9, 225.2)"></path></g></g></g><g opacity="0.60"><g><clipPath id="clip0x600004eb66e0"><path d="M 1393.0 269.0 L 1757.0 269.0 L 1757.0 329.0 L 1393.0 329.0 Z M 1393.0 269.0 "></path></clipPath><g clip-path="url(#clip0x600004eb66e0)"><text xml:space="preserve" font-family=".LucidaGrandeUI,.Lucida Grande UI" font-size="50.0" fill="#B2B2B2" transform="matrix(1.00, 0.00, -0.00, -1.00, 1399.2, 279.6)">J</text><text xml:space="preserve" font-family=".LucidaGrandeUI,.Lucida Grande UI" font-size="50.0" fill="#B2B2B2" transform="matrix(1.00, 0.00, -0.00, -1.00, 1414.8, 279.6)">o</text><text xml:space="preserve" font-family=".LucidaGrandeUI,.Lucida Grande UI" font-size="50.0" fill="#B2B2B2" transform="matrix(1.00, 0.00, -0.00, -1.00, 1445.5, 279.6)">i</text><text xml:space="preserve" font-family=".LucidaGrandeUI,.Lucida Grande UI" font-size="50.0" fill="#B2B2B2" transform="matrix(1.00, 0.00, -0.00, -1.00, 1459.9, 279.6)">n</text><text xml:space="preserve" font-family=".LucidaGrandeUI,.Lucida Grande UI" font-size="50.0" fill="#B2B2B2" transform="matrix(1.00, 0.00, -0.00, -1.00, 1491.0, 279.6)"> </text><text xml:space="preserve" font-family=".LucidaGrandeUI,.Lucida Grande UI" font-size="50.0" fill="#B2B2B2" transform="matrix(1.00, 0.00, -0.00, -1.00, 1506.8, 279.6)">n</text><text xml:space="preserve" font-family=".LucidaGrandeUI,.Lucida Grande UI" font-size="50.0" fill="#B2B2B2" transform="matrix(1.00, 0.00, -0.00, -1.00, 1537.8, 279.6)">e</text><text xml:space="preserve" font-family=".LucidaGrandeUI,.Lucida Grande UI" font-size="50.0" fill="#B2B2B2" transform="matrix(1.00, 0.00, -0.00, -1.00, 1565.7, 279.6)">w</text><text xml:space="preserve" font-family=".LucidaGrandeUI,.Lucida Grande UI" font-size="50.0" fill="#B2B2B2" transform="matrix(1.00, 0.00, -0.00, -1.00, 1604.2, 279.6)">s</text><text xml:space="preserve" font-family=".LucidaGrandeUI,.Lucida Grande UI" font-size="50.0" fill="#B2B2B2" transform="matrix(1.00, 0.00, -0.00, -1.00, 1627.3, 279.6)">l</text><text xml:space="preserve" font-family=".LucidaGrandeUI,.Lucida Grande UI" font-size="50.0" fill="#B2B2B2" transform="matrix(1.00, 0.00, -0.00, -1.00, 1641.8, 279.6)">e</text><text xml:space="preserve" font-family=".LucidaGrandeUI,.Lucida Grande UI" font-size="50.0" fill="#B2B2B2" transform="matrix(1.00, 0.00, -0.00, -1.00, 1669.6, 279.6)">t</text><text xml:space="preserve" font-family=".LucidaGrandeUI,.Lucida Grande UI" font-size="50.0" fill="#B2B2B2" transform="matrix(1.00, 0.00, -0.00, -1.00, 1688.3, 279.6)">t</text><text xml:space="preserve" font-family=".LucidaGrandeUI,.Lucida Grande UI" font-size="50.0" fill="#B2B2B2" transform="matrix(1.00, 0.00, -0.00, -1.00, 1707.0, 279.6)">e</text><text xml:space="preserve" font-family=".LucidaGrandeUI,.Lucida Grande UI" font-size="50.0" fill="#B2B2B2" transform="matrix(1.00, 0.00, -0.00, -1.00, 1734.9, 279.6)">r</text></g></g></g><g opacity="0.60"><g><clipPath id="clip0x600004eb6f20"><path d="M 1527.0 408.0 L 1571.0 408.0 L 1571.0 445.0 L 1527.0 445.0 Z M 1527.0 408.0 "></path></clipPath><g clip-path="url(#clip0x600004eb6f20)"><path d="M 1549.0 409.0 L 1528.9 444.0 L 1569.1 444.0 Z M 1549.0 409.0 " fill="#E0E0E0"></path></g></g></g><g opacity="0.60"><g><clipPath id="clip0x600004eb71c0"><path d="M 1331.0 265.0 L 1381.0 265.0 L 1381.0 315.0 L 1331.0 315.0 Z M 1331.0 265.0 "></path></clipPath><g clip-path="url(#clip0x600004eb71c0)"><path d="M 0.3 36.3 L 0.3 6.3 C 0.3 2.8 2.8 -0.2 6.3 -0.2 L 35.3 -0.2 C 38.8 -0.2 41.3 2.8 41.3 6.3 L 41.3 35.9 C 41.3 39.4 38.8 41.8 35.3 41.8 L 6.3 41.8 C 2.8 41.8 0.3 39.8 0.3 36.3 Z M 0.0 35.9 " fill="none" stroke="#E0E0E0" stroke-width="5.00" transform="matrix(1.00, 0.00, 0.00, -1.00, 1335.2, 311.3)"></path></g></g></g><g opacity="0.60"><g><clipPath id="clip0x600004eb7460"><path d="M 1336.0 258.0 L 1386.0 258.0 L 1386.0 363.0 L 1336.0 363.0 Z M 1336.0 258.0 "></path></clipPath><g clip-path="url(#clip0x600004eb7460)"><text xml:space="preserve" font-family="Roboto-Regular,Roboto" font-size="79.0" fill="#8C8C8C" transform="matrix(1.00, 0.00, -0.00, -1.00, 1336.5, 279.8)">√</text></g></g></g><path d="M 160.2 68.1 L 160.0 496.8 C 160.0 500.4 163.1 503.0 166.7 503.0 L 1120.1 503.0 C 1123.6 503.0 1127.0 500.4 1127.0 496.8 L 1127.0 68.1 C 1127.0 64.5 1123.6 62.0 1120.1 62.0 L 166.7 62.0 C 163.1 62.0 160.2 64.5 160.2 68.1 Z M 160.2 68.1 " fill="#FFFFFF"></path><g><clipPath id="clip0x600004eb7760"><path d="M 160.2 61.6 L 1126.6 61.6 L 1126.6 503.3 L 160.2 503.3 Z M 160.2 61.6 "></path></clipPath><g clip-path="url(#clip0x600004eb7760)"><text xml:space="preserve" font-family=".LucidaGrandeUI,.Lucida Grande UI" font-size="40.0" fill="#4185F4" transform="matrix(1.00, 0.00, -0.00, -1.00, 180.2, 441.6)">&lt;</text><text xml:space="preserve" font-family=".LucidaGrandeUI,.Lucida Grande UI" font-size="40.0" fill="#4185F4" transform="matrix(1.00, 0.00, -0.00, -1.00, 212.0, 441.6)">f</text><text xml:space="preserve" font-family=".LucidaGrandeUI,.Lucida Grande UI" font-size="40.0" fill="#4185F4" transform="matrix(1.00, 0.00, -0.00, -1.00, 226.7, 441.6)">o</text><text xml:space="preserve" font-family=".LucidaGrandeUI,.Lucida Grande UI" font-size="40.0" fill="#4185F4" transform="matrix(1.00, 0.00, -0.00, -1.00, 251.3, 441.6)">r</text><text xml:space="preserve" font-family=".LucidaGrandeUI,.Lucida Grande UI" font-size="40.0" fill="#4185F4" transform="matrix(1.00, 0.00, -0.00, -1.00, 267.7, 441.6)">m</text><text xml:space="preserve" font-family=".LucidaGrandeUI,.Lucida Grande UI" font-size="40.0" fill="#000000" transform="matrix(1.00, 0.00, -0.00, -1.00, 305.0, 441.6)"> </text><text xml:space="preserve" font-family=".LucidaGrandeUI,.Lucida Grande UI" font-size="40.0" fill="#E82663" transform="matrix(1.00, 0.00, -0.00, -1.00, 317.7, 441.6)">i</text><text xml:space="preserve" font-family=".LucidaGrandeUI,.Lucida Grande UI" font-size="40.0" fill="#E82663" transform="matrix(1.00, 0.00, -0.00, -1.00, 329.2, 441.6)">s</text><text xml:space="preserve" font-family=".LucidaGrandeUI,.Lucida Grande UI" font-size="40.0" fill="#A3A3A3" transform="matrix(1.00, 0.00, -0.00, -1.00, 347.7, 441.6)">=</text><text xml:space="preserve" font-family=".LucidaGrandeUI,.Lucida Grande UI" font-size="40.0" fill="#0D9D57" transform="matrix(1.00, 0.00, -0.00, -1.00, 379.5, 441.6)">"</text><text xml:space="preserve" font-family=".LucidaGrandeUI,.Lucida Grande UI" font-size="40.0" fill="#0D9D57" transform="matrix(1.00, 0.00, -0.00, -1.00, 394.4, 441.6)">a</text><text xml:space="preserve" font-family=".LucidaGrandeUI,.Lucida Grande UI" font-size="40.0" fill="#0D9D57" transform="matrix(1.00, 0.00, -0.00, -1.00, 416.6, 441.6)">j</text><text xml:space="preserve" font-family=".LucidaGrandeUI,.Lucida Grande UI" font-size="40.0" fill="#0D9D57" transform="matrix(1.00, 0.00, -0.00, -1.00, 428.7, 441.6)">a</text><text xml:space="preserve" font-family=".LucidaGrandeUI,.Lucida Grande UI" font-size="40.0" fill="#0D9D57" transform="matrix(1.00, 0.00, -0.00, -1.00, 450.9, 441.6)">x</text><text xml:space="preserve" font-family=".LucidaGrandeUI,.Lucida Grande UI" font-size="40.0" fill="#0D9D57" transform="matrix(1.00, 0.00, -0.00, -1.00, 473.7, 441.6)">-</text><text xml:space="preserve" font-family=".LucidaGrandeUI,.Lucida Grande UI" font-size="40.0" fill="#0D9D57" transform="matrix(1.00, 0.00, -0.00, -1.00, 496.8, 441.6)">f</text><text xml:space="preserve" font-family=".LucidaGrandeUI,.Lucida Grande UI" font-size="40.0" fill="#0D9D57" transform="matrix(1.00, 0.00, -0.00, -1.00, 511.5, 441.6)">o</text><text xml:space="preserve" font-family=".LucidaGrandeUI,.Lucida Grande UI" font-size="40.0" fill="#0D9D57" transform="matrix(1.00, 0.00, -0.00, -1.00, 536.1, 441.6)">r</text><text xml:space="preserve" font-family=".LucidaGrandeUI,.Lucida Grande UI" font-size="40.0" fill="#0D9D57" transform="matrix(1.00, 0.00, -0.00, -1.00, 552.5, 441.6)">m</text><text xml:space="preserve" font-family=".LucidaGrandeUI,.Lucida Grande UI" font-size="40.0" fill="#0D9D57" transform="matrix(1.00, 0.00, -0.00, -1.00, 589.8, 441.6)">"</text><text xml:space="preserve" font-family=".LucidaGrandeUI,.Lucida Grande UI" font-size="40.0" fill="#000000" transform="matrix(1.00, 0.00, -0.00, -1.00, 604.8, 441.6)"> </text><text xml:space="preserve" font-family=".LucidaGrandeUI,.Lucida Grande UI" font-size="40.0" fill="#E82663" transform="matrix(1.00, 0.00, -0.00, -1.00, 617.4, 441.6)">a</text><text xml:space="preserve" font-family=".LucidaGrandeUI,.Lucida Grande UI" font-size="40.0" fill="#E82663" transform="matrix(1.00, 0.00, -0.00, -1.00, 639.5, 441.6)">c</text><text xml:space="preserve" font-family=".LucidaGrandeUI,.Lucida Grande UI" font-size="40.0" fill="#E82663" transform="matrix(1.00, 0.00, -0.00, -1.00, 660.0, 441.6)">t</text><text xml:space="preserve" font-family=".LucidaGrandeUI,.Lucida Grande UI" font-size="40.0" fill="#E82663" transform="matrix(1.00, 0.00, -0.00, -1.00, 675.0, 441.6)">i</text><text xml:space="preserve" font-family=".LucidaGrandeUI,.Lucida Grande UI" font-size="40.0" fill="#E82663" transform="matrix(1.00, 0.00, -0.00, -1.00, 686.5, 441.6)">o</text><text xml:space="preserve" font-family=".LucidaGrandeUI,.Lucida Grande UI" font-size="40.0" fill="#E82663" transform="matrix(1.00, 0.00, -0.00, -1.00, 711.1, 441.6)">n</text><text xml:space="preserve" font-family=".LucidaGrandeUI,.Lucida Grande UI" font-size="40.0" fill="#A3A3A3" transform="matrix(1.00, 0.00, -0.00, -1.00, 735.9, 441.6)">=</text><text xml:space="preserve" font-family=".LucidaGrandeUI,.Lucida Grande UI" font-size="40.0" fill="#0D9D57" transform="matrix(1.00, 0.00, -0.00, -1.00, 767.7, 441.6)">"</text><text xml:space="preserve" font-family=".LucidaGrandeUI,.Lucida Grande UI" font-size="40.0" fill="#0D9D57" transform="matrix(1.00, 0.00, -0.00, -1.00, 782.6, 441.6)">m</text><text xml:space="preserve" font-family=".LucidaGrandeUI,.Lucida Grande UI" font-size="40.0" fill="#0D9D57" transform="matrix(1.00, 0.00, -0.00, -1.00, 820.0, 441.6)">y</text><text xml:space="preserve" font-family=".LucidaGrandeUI,.Lucida Grande UI" font-size="40.0" fill="#0D9D57" transform="matrix(1.00, 0.00, -0.00, -1.00, 840.5, 441.6)">/</text><text xml:space="preserve" font-family=".LucidaGrandeUI,.Lucida Grande UI" font-size="40.0" fill="#0D9D57" transform="matrix(1.00, 0.00, -0.00, -1.00, 861.5, 441.6)">f</text><text xml:space="preserve" font-family=".LucidaGrandeUI,.Lucida Grande UI" font-size="40.0" fill="#0D9D57" transform="matrix(1.00, 0.00, -0.00, -1.00, 876.2, 441.6)">o</text><text xml:space="preserve" font-family=".LucidaGrandeUI,.Lucida Grande UI" font-size="40.0" fill="#0D9D57" transform="matrix(1.00, 0.00, -0.00, -1.00, 900.8, 441.6)">r</text><text xml:space="preserve" font-family=".LucidaGrandeUI,.Lucida Grande UI" font-size="40.0" fill="#0D9D57" transform="matrix(1.00, 0.00, -0.00, -1.00, 917.2, 441.6)">m</text><text xml:space="preserve" font-family=".LucidaGrandeUI,.Lucida Grande UI" font-size="40.0" fill="#0D9D57" transform="matrix(1.00, 0.00, -0.00, -1.00, 954.5, 441.6)">/</text><text xml:space="preserve" font-family=".LucidaGrandeUI,.Lucida Grande UI" font-size="40.0" fill="#0D9D57" transform="matrix(1.00, 0.00, -0.00, -1.00, 180.2, 385.2)">h</text><text xml:space="preserve" font-family=".LucidaGrandeUI,.Lucida Grande UI" font-size="40.0" fill="#0D9D57" transform="matrix(1.00, 0.00, -0.00, -1.00, 205.0, 385.2)">a</text><text xml:space="preserve" font-family=".LucidaGrandeUI,.Lucida Grande UI" font-size="40.0" fill="#0D9D57" transform="matrix(1.00, 0.00, -0.00, -1.00, 227.1, 385.2)">n</text><text xml:space="preserve" font-family=".LucidaGrandeUI,.Lucida Grande UI" font-size="40.0" fill="#0D9D57" transform="matrix(1.00, 0.00, -0.00, -1.00, 252.0, 385.2)">d</text><text xml:space="preserve" font-family=".LucidaGrandeUI,.Lucida Grande UI" font-size="40.0" fill="#0D9D57" transform="matrix(1.00, 0.00, -0.00, -1.00, 277.2, 385.2)">l</text><text xml:space="preserve" font-family=".LucidaGrandeUI,.Lucida Grande UI" font-size="40.0" fill="#0D9D57" transform="matrix(1.00, 0.00, -0.00, -1.00, 288.7, 385.2)">e</text><text xml:space="preserve" font-family=".LucidaGrandeUI,.Lucida Grande UI" font-size="40.0" fill="#0D9D57" transform="matrix(1.00, 0.00, -0.00, -1.00, 311.1, 385.2)">r</text><text xml:space="preserve" font-family=".LucidaGrandeUI,.Lucida Grande UI" font-size="40.0" fill="#0D9D57" transform="matrix(1.00, 0.00, -0.00, -1.00, 327.4, 385.2)">"</text><text xml:space="preserve" font-family=".LucidaGrandeUI,.Lucida Grande UI" font-size="40.0" fill="#4185F4" transform="matrix(1.00, 0.00, -0.00, -1.00, 342.3, 385.2)">&gt;</text><text xml:space="preserve" font-family=".LucidaGrandeUI,.Lucida Grande UI" font-size="40.0" fill="#000000" transform="matrix(1.00, 0.00, -0.00, -1.00, 374.1, 385.2)"></text><text xml:space="preserve" font-family=".LucidaGrandeUI,.Lucida Grande UI" font-size="40.0" fill="#4185F4" transform="matrix(1.00, 0.00, -0.00, -1.00, 180.2, 328.8)"> </text><text xml:space="preserve" font-family=".LucidaGrandeUI,.Lucida Grande UI" font-size="40.0" fill="#4185F4" transform="matrix(1.00, 0.00, -0.00, -1.00, 192.9, 328.8)"> </text><text xml:space="preserve" font-family=".LucidaGrandeUI,.Lucida Grande UI" font-size="40.0" fill="#4185F4" transform="matrix(1.00, 0.00, -0.00, -1.00, 205.6, 328.8)">&lt;</text><text xml:space="preserve" font-family=".LucidaGrandeUI,.Lucida Grande UI" font-size="40.0" fill="#4185F4" transform="matrix(1.00, 0.00, -0.00, -1.00, 237.3, 328.8)">l</text><text xml:space="preserve" font-family=".LucidaGrandeUI,.Lucida Grande UI" font-size="40.0" fill="#4185F4" transform="matrix(1.00, 0.00, -0.00, -1.00, 248.9, 328.8)">a</text><text xml:space="preserve" font-family=".LucidaGrandeUI,.Lucida Grande UI" font-size="40.0" fill="#4185F4" transform="matrix(1.00, 0.00, -0.00, -1.00, 271.0, 328.8)">b</text><text xml:space="preserve" font-family=".LucidaGrandeUI,.Lucida Grande UI" font-size="40.0" fill="#4185F4" transform="matrix(1.00, 0.00, -0.00, -1.00, 296.2, 328.8)">e</text><text xml:space="preserve" font-family=".LucidaGrandeUI,.Lucida Grande UI" font-size="40.0" fill="#4185F4" transform="matrix(1.00, 0.00, -0.00, -1.00, 318.5, 328.8)">l</text><text xml:space="preserve" font-family=".LucidaGrandeUI,.Lucida Grande UI" font-size="40.0" fill="#4185F4" transform="matrix(1.00, 0.00, -0.00, -1.00, 330.1, 328.8)">&gt;</text><text xml:space="preserve" font-family=".LucidaGrandeUI,.Lucida Grande UI" font-size="40.0" fill="#4185F4" transform="matrix(1.00, 0.00, -0.00, -1.00, 361.8, 328.8)">F</text><text xml:space="preserve" font-family=".LucidaGrandeUI,.Lucida Grande UI" font-size="40.0" fill="#4185F4" transform="matrix(1.00, 0.00, -0.00, -1.00, 383.2, 328.8)">u</text><text xml:space="preserve" font-family=".LucidaGrandeUI,.Lucida Grande UI" font-size="40.0" fill="#4185F4" transform="matrix(1.00, 0.00, -0.00, -1.00, 408.0, 328.8)">l</text><text xml:space="preserve" font-family=".LucidaGrandeUI,.Lucida Grande UI" font-size="40.0" fill="#4185F4" transform="matrix(1.00, 0.00, -0.00, -1.00, 419.5, 328.8)">l</text><text xml:space="preserve" font-family=".LucidaGrandeUI,.Lucida Grande UI" font-size="40.0" fill="#4185F4" transform="matrix(1.00, 0.00, -0.00, -1.00, 431.1, 328.8)"> </text><text xml:space="preserve" font-family=".LucidaGrandeUI,.Lucida Grande UI" font-size="40.0" fill="#4185F4" transform="matrix(1.00, 0.00, -0.00, -1.00, 443.8, 328.8)">N</text><text xml:space="preserve" font-family=".LucidaGrandeUI,.Lucida Grande UI" font-size="40.0" fill="#4185F4" transform="matrix(1.00, 0.00, -0.00, -1.00, 473.3, 328.8)">a</text><text xml:space="preserve" font-family=".LucidaGrandeUI,.Lucida Grande UI" font-size="40.0" fill="#4185F4" transform="matrix(1.00, 0.00, -0.00, -1.00, 495.4, 328.8)">m</text><text xml:space="preserve" font-family=".LucidaGrandeUI,.Lucida Grande UI" font-size="40.0" fill="#4185F4" transform="matrix(1.00, 0.00, -0.00, -1.00, 532.7, 328.8)">e</text><text xml:space="preserve" font-family=".LucidaGrandeUI,.Lucida Grande UI" font-size="40.0" fill="#4185F4" transform="matrix(1.00, 0.00, -0.00, -1.00, 555.0, 328.8)"></text><text xml:space="preserve" font-family=".LucidaGrandeUI,.Lucida Grande UI" font-size="40.0" fill="#000000" transform="matrix(1.00, 0.00, -0.00, -1.00, 180.2, 272.4)"> </text><text xml:space="preserve" font-family=".LucidaGrandeUI,.Lucida Grande UI" font-size="40.0" fill="#000000" transform="matrix(1.00, 0.00, -0.00, -1.00, 192.9, 272.4)"> </text><text xml:space="preserve" font-family=".LucidaGrandeUI,.Lucida Grande UI" font-size="40.0" fill="#000000" transform="matrix(1.00, 0.00, -0.00, -1.00, 205.6, 272.4)"> </text><text xml:space="preserve" font-family=".LucidaGrandeUI,.Lucida Grande UI" font-size="40.0" fill="#000000" transform="matrix(1.00, 0.00, -0.00, -1.00, 218.2, 272.4)"> </text><text xml:space="preserve" font-family=".LucidaGrandeUI,.Lucida Grande UI" font-size="40.0" fill="#4185F4" transform="matrix(1.00, 0.00, -0.00, -1.00, 230.9, 272.4)">&lt;</text><text xml:space="preserve" font-family=".LucidaGrandeUI,.Lucida Grande UI" font-size="40.0" fill="#4185F4" transform="matrix(1.00, 0.00, -0.00, -1.00, 262.6, 272.4)">i</text><text xml:space="preserve" font-family=".LucidaGrandeUI,.Lucida Grande UI" font-size="40.0" fill="#4185F4" transform="matrix(1.00, 0.00, -0.00, -1.00, 274.2, 272.4)">n</text><text xml:space="preserve" font-family=".LucidaGrandeUI,.Lucida Grande UI" font-size="40.0" fill="#4185F4" transform="matrix(1.00, 0.00, -0.00, -1.00, 299.0, 272.4)">p</text><text xml:space="preserve" font-family=".LucidaGrandeUI,.Lucida Grande UI" font-size="40.0" fill="#4185F4" transform="matrix(1.00, 0.00, -0.00, -1.00, 324.2, 272.4)">u</text><text xml:space="preserve" font-family=".LucidaGrandeUI,.Lucida Grande UI" font-size="40.0" fill="#4185F4" transform="matrix(1.00, 0.00, -0.00, -1.00, 349.1, 272.4)">t</text><text xml:space="preserve" font-family=".LucidaGrandeUI,.Lucida Grande UI" font-size="40.0" fill="#000000" transform="matrix(1.00, 0.00, -0.00, -1.00, 364.0, 272.4)"> </text><text xml:space="preserve" font-family=".LucidaGrandeUI,.Lucida Grande UI" font-size="40.0" fill="#E82663" transform="matrix(1.00, 0.00, -0.00, -1.00, 376.7, 272.4)">t</text><text xml:space="preserve" font-family=".LucidaGrandeUI,.Lucida Grande UI" font-size="40.0" fill="#E82663" transform="matrix(1.00, 0.00, -0.00, -1.00, 391.6, 272.4)">y</text><text xml:space="preserve" font-family=".LucidaGrandeUI,.Lucida Grande UI" font-size="40.0" fill="#E82663" transform="matrix(1.00, 0.00, -0.00, -1.00, 412.2, 272.4)">p</text><text xml:space="preserve" font-family=".LucidaGrandeUI,.Lucida Grande UI" font-size="40.0" fill="#E82663" transform="matrix(1.00, 0.00, -0.00, -1.00, 437.4, 272.4)">e</text><text xml:space="preserve" font-family=".LucidaGrandeUI,.Lucida Grande UI" font-size="40.0" fill="#A3A3A3" transform="matrix(1.00, 0.00, -0.00, -1.00, 459.6, 272.4)">=</text><text xml:space="preserve" font-family=".LucidaGrandeUI,.Lucida Grande UI" font-size="40.0" fill="#0D9D57" transform="matrix(1.00, 0.00, -0.00, -1.00, 491.4, 272.4)">"</text><text xml:space="preserve" font-family=".LucidaGrandeUI,.Lucida Grande UI" font-size="40.0" fill="#0D9D57" transform="matrix(1.00, 0.00, -0.00, -1.00, 506.4, 272.4)">t</text><text xml:space="preserve" font-family=".LucidaGrandeUI,.Lucida Grande UI" font-size="40.0" fill="#0D9D57" transform="matrix(1.00, 0.00, -0.00, -1.00, 521.3, 272.4)">e</text><text xml:space="preserve" font-family=".LucidaGrandeUI,.Lucida Grande UI" font-size="40.0" fill="#0D9D57" transform="matrix(1.00, 0.00, -0.00, -1.00, 543.6, 272.4)">x</text><text xml:space="preserve" font-family=".LucidaGrandeUI,.Lucida Grande UI" font-size="40.0" fill="#0D9D57" transform="matrix(1.00, 0.00, -0.00, -1.00, 566.5, 272.4)">t</text><text xml:space="preserve" font-family=".LucidaGrandeUI,.Lucida Grande UI" font-size="40.0" fill="#0D9D57" transform="matrix(1.00, 0.00, -0.00, -1.00, 581.4, 272.4)">"</text><text xml:space="preserve" font-family=".LucidaGrandeUI,.Lucida Grande UI" font-size="40.0" fill="#000000" transform="matrix(1.00, 0.00, -0.00, -1.00, 596.4, 272.4)"> </text><text xml:space="preserve" font-family=".LucidaGrandeUI,.Lucida Grande UI" font-size="40.0" fill="#E82663" transform="matrix(1.00, 0.00, -0.00, -1.00, 609.1, 272.4)">n</text><text xml:space="preserve" font-family=".LucidaGrandeUI,.Lucida Grande UI" font-size="40.0" fill="#E82663" transform="matrix(1.00, 0.00, -0.00, -1.00, 633.9, 272.4)">a</text><text xml:space="preserve" font-family=".LucidaGrandeUI,.Lucida Grande UI" font-size="40.0" fill="#E82663" transform="matrix(1.00, 0.00, -0.00, -1.00, 656.0, 272.4)">m</text><text xml:space="preserve" font-family=".LucidaGrandeUI,.Lucida Grande UI" font-size="40.0" fill="#E82663" transform="matrix(1.00, 0.00, -0.00, -1.00, 693.3, 272.4)">e</text><text xml:space="preserve" font-family=".LucidaGrandeUI,.Lucida Grande UI" font-size="40.0" fill="#A3A3A3" transform="matrix(1.00, 0.00, -0.00, -1.00, 715.6, 272.4)">=</text><text xml:space="preserve" font-family=".LucidaGrandeUI,.Lucida Grande UI" font-size="40.0" fill="#0D9D57" transform="matrix(1.00, 0.00, -0.00, -1.00, 747.4, 272.4)">“</text><text xml:space="preserve" font-family=".LucidaGrandeUI,.Lucida Grande UI" font-size="40.0" fill="#0D9D57" transform="matrix(1.00, 0.00, -0.00, -1.00, 764.6, 272.4)">f</text><text xml:space="preserve" font-family=".LucidaGrandeUI,.Lucida Grande UI" font-size="40.0" fill="#0D9D57" transform="matrix(1.00, 0.00, -0.00, -1.00, 779.3, 272.4)">u</text><text xml:space="preserve" font-family=".LucidaGrandeUI,.Lucida Grande UI" font-size="40.0" fill="#0D9D57" transform="matrix(1.00, 0.00, -0.00, -1.00, 804.1, 272.4)">l</text><text xml:space="preserve" font-family=".LucidaGrandeUI,.Lucida Grande UI" font-size="40.0" fill="#0D9D57" transform="matrix(1.00, 0.00, -0.00, -1.00, 815.6, 272.4)">l</text><text xml:space="preserve" font-family=".LucidaGrandeUI,.Lucida Grande UI" font-size="40.0" fill="#0D9D57" transform="matrix(1.00, 0.00, -0.00, -1.00, 827.2, 272.4)">_</text><text xml:space="preserve" font-family=".LucidaGrandeUI,.Lucida Grande UI" font-size="40.0" fill="#0D9D57" transform="matrix(1.00, 0.00, -0.00, -1.00, 847.2, 272.4)">n</text><text xml:space="preserve" font-family=".LucidaGrandeUI,.Lucida Grande UI" font-size="40.0" fill="#0D9D57" transform="matrix(1.00, 0.00, -0.00, -1.00, 872.0, 272.4)">a</text><text xml:space="preserve" font-family=".LucidaGrandeUI,.Lucida Grande UI" font-size="40.0" fill="#0D9D57" transform="matrix(1.00, 0.00, -0.00, -1.00, 894.1, 272.4)">m</text><text xml:space="preserve" font-family=".LucidaGrandeUI,.Lucida Grande UI" font-size="40.0" fill="#0D9D57" transform="matrix(1.00, 0.00, -0.00, -1.00, 931.4, 272.4)">e</text><text xml:space="preserve" font-family=".LucidaGrandeUI,.Lucida Grande UI" font-size="40.0" fill="#0D9D57" transform="matrix(1.00, 0.00, -0.00, -1.00, 953.7, 272.4)">"</text><text xml:space="preserve" font-family=".LucidaGrandeUI,.Lucida Grande UI" font-size="40.0" fill="#0D9D57" transform="matrix(1.00, 0.00, -0.00, -1.00, 968.7, 272.4)">&gt;</text><text xml:space="preserve" font-family=".LucidaGrandeUI,.Lucida Grande UI" font-size="40.0" fill="#000000" transform="matrix(1.00, 0.00, -0.00, -1.00, 1000.5, 272.4)"></text><text xml:space="preserve" font-family=".LucidaGrandeUI,.Lucida Grande UI" font-size="40.0" fill="#000000" transform="matrix(1.00, 0.00, -0.00, -1.00, 180.2, 216.0)"> </text><text xml:space="preserve" font-family=".LucidaGrandeUI,.Lucida Grande UI" font-size="40.0" fill="#000000" transform="matrix(1.00, 0.00, -0.00, -1.00, 192.9, 216.0)"> </text><text xml:space="preserve" font-family=".LucidaGrandeUI,.Lucida Grande UI" font-size="40.0" fill="#4185F4" transform="matrix(1.00, 0.00, -0.00, -1.00, 205.5, 216.0)">&lt;</text><text xml:space="preserve" font-family=".LucidaGrandeUI,.Lucida Grande UI" font-size="40.0" fill="#4185F4" transform="matrix(1.00, 0.00, -0.00, -1.00, 237.3, 216.0)">/</text><text xml:space="preserve" font-family=".LucidaGrandeUI,.Lucida Grande UI" font-size="40.0" fill="#4185F4" transform="matrix(1.00, 0.00, -0.00, -1.00, 258.3, 216.0)">l</text><text xml:space="preserve" font-family=".LucidaGrandeUI,.Lucida Grande UI" font-size="40.0" fill="#4185F4" transform="matrix(1.00, 0.00, -0.00, -1.00, 269.9, 216.0)">a</text><text xml:space="preserve" font-family=".LucidaGrandeUI,.Lucida Grande UI" font-size="40.0" fill="#4185F4" transform="matrix(1.00, 0.00, -0.00, -1.00, 292.0, 216.0)">b</text><text xml:space="preserve" font-family=".LucidaGrandeUI,.Lucida Grande UI" font-size="40.0" fill="#4185F4" transform="matrix(1.00, 0.00, -0.00, -1.00, 317.2, 216.0)">e</text><text xml:space="preserve" font-family=".LucidaGrandeUI,.Lucida Grande UI" font-size="40.0" fill="#4185F4" transform="matrix(1.00, 0.00, -0.00, -1.00, 339.5, 216.0)">l</text><text xml:space="preserve" font-family=".LucidaGrandeUI,.Lucida Grande UI" font-size="40.0" fill="#4185F4" transform="matrix(1.00, 0.00, -0.00, -1.00, 351.0, 216.0)">&gt;</text><text xml:space="preserve" font-family=".LucidaGrandeUI,.Lucida Grande UI" font-size="40.0" fill="#000000" transform="matrix(1.00, 0.00, -0.00, -1.00, 382.8, 216.0)"></text><text xml:space="preserve" font-family=".LucidaGrandeUI,.Lucida Grande UI" font-size="40.0" fill="#4185F4" transform="matrix(1.00, 0.00, -0.00, -1.00, 180.2, 159.6)"> </text><text xml:space="preserve" font-family=".LucidaGrandeUI,.Lucida Grande UI" font-size="40.0" fill="#4185F4" transform="matrix(1.00, 0.00, -0.00, -1.00, 192.9, 159.6)"> </text><text xml:space="preserve" font-family=".LucidaGrandeUI,.Lucida Grande UI" font-size="40.0" fill="#4185F4" transform="matrix(1.00, 0.00, -0.00, -1.00, 205.6, 159.6)">…</text><text xml:space="preserve" font-family=".LucidaGrandeUI,.Lucida Grande UI" font-size="40.0" fill="#4185F4" transform="matrix(1.00, 0.00, -0.00, -1.00, 245.6, 159.6)"></text><text xml:space="preserve" font-family=".LucidaGrandeUI,.Lucida Grande UI" font-size="40.0" fill="#4185F4" transform="matrix(1.00, 0.00, -0.00, -1.00, 180.2, 103.2)">&lt;</text><text xml:space="preserve" font-family=".LucidaGrandeUI,.Lucida Grande UI" font-size="40.0" fill="#4185F4" transform="matrix(1.00, 0.00, -0.00, -1.00, 212.0, 103.2)">/</text><text xml:space="preserve" font-family=".LucidaGrandeUI,.Lucida Grande UI" font-size="40.0" fill="#4185F4" transform="matrix(1.00, 0.00, -0.00, -1.00, 233.0, 103.2)">f</text><text xml:space="preserve" font-family=".LucidaGrandeUI,.Lucida Grande UI" font-size="40.0" fill="#4185F4" transform="matrix(1.00, 0.00, -0.00, -1.00, 247.7, 103.2)">o</text><text xml:space="preserve" font-family=".LucidaGrandeUI,.Lucida Grande UI" font-size="40.0" fill="#4185F4" transform="matrix(1.00, 0.00, -0.00, -1.00, 272.3, 103.2)">r</text><text xml:space="preserve" font-family=".LucidaGrandeUI,.Lucida Grande UI" font-size="40.0" fill="#4185F4" transform="matrix(1.00, 0.00, -0.00, -1.00, 288.7, 103.2)">m</text><text xml:space="preserve" font-family=".LucidaGrandeUI,.Lucida Grande UI" font-size="40.0" fill="#4185F4" transform="matrix(1.00, 0.00, -0.00, -1.00, 326.0, 103.2)">&gt;</text></g></g></g></svg>