<?xml version="1.0" encoding="UTF-8" standalone="no"?><svg xmlns="http://www.w3.org/2000/svg" xmlns:xlink="http://www.w3.org/1999/xlink" clip-rule="evenodd" stroke-miterlimit="10" viewBox="0 0 1920 1080"><desc>SVG generated by Keynote</desc><defs></defs><g transform="matrix(1.00, 0.00, -0.00, -1.00, 0.0, 1080.0)"><path d="M 0.0 1080.0 L 1920.0 1080.0 L 1920.0 0.0 L 0.0 0.0 Z M 0.0 1080.0 " fill="#424242"></path><g><clipPath id="clip0x600001abafa0"><path d="M 681.9 44.3 L 1242.1 44.3 L 1242.1 1035.7 L 681.9 1035.7 Z M 681.9 44.3 "></path></clipPath><g clip-path="url(#clip0x600001abafa0)"><image xlink:href="../../CE88E550-6579-4E18-826D-DFF90AD633AC/assets/E4E7FD7D0A79E1AB1A86972AF3506094.png" width="1435.00" height="2539.00" transform="matrix(0.39, 0.00, -0.00, -0.39, 681.9, 1035.7)"></image></g></g><g><clipPath id="clip0x608001ea2f40"><path d="M 751.0 920.0 L 1179.0 920.0 L 1179.0 162.0 L 751.0 162.0 Z M 750.6 920.3 "></path></clipPath><g clip-path="url(#clip0x608001ea2f40)"><g><clipPath id="clip0x608001ea3180"><path d="M 750.6 161.7 L 1179.0 161.7 L 1179.0 920.3 L 750.6 920.3 Z M 750.6 161.7 "></path></clipPath><g clip-path="url(#clip0x608001ea3180)"><image xlink:href="../../3B6CDCC3-32E3-4A1A-AD4D-F771BF5D55D8/assets/5AFF968A936893B76CD121D649AFD948.png" width="362.00" height="641.00" transform="matrix(1.19, 0.00, -0.00, -1.19, 749.5, 922.2)"></image></g></g></g></g><g><clipPath id="clip0x608001ea31e0"><path d="M 1024.8 839.9 L 1024.8 595.9 L 996.8 595.9 L 996.8 839.9 Z M 1024.8 839.9 "></path></clipPath><g clip-path="url(#clip0x608001ea31e0)"><path d="M 21.9 -0.2 L 26.0 -0.2 L 241.9 -0.2 " fill="none" stroke="#F06191" stroke-width="8.00" stroke-linejoin="round" transform="matrix(0.00, -1.00, -1.00, 0.00, 1010.8, 838.9)"></path><path d="M 998.0 826.0 C 998.0 833.2 1003.8 839.0 1011.0 839.0 C 1018.2 839.0 1024.0 833.2 1024.0 826.0 C 1024.0 818.8 1018.2 813.0 1011.0 813.0 C 1003.8 813.0 998.0 818.8 998.0 826.0 Z M 998.0 826.0 " fill="#F06191"></path></g></g><g><clipPath id="clip0x608001ea36c0"><path d="M 963.2 561.8 L 1288.7 561.8 L 1288.7 684.1 L 963.2 684.1 Z M 963.2 561.8 "></path></clipPath><g clip-path="url(#clip0x608001ea36c0)"><path d="M 964.2 570.4 L 964.0 675.6 C 964.0 679.8 967.6 683.0 971.7 683.0 L 1280.1 683.0 C 1284.3 683.0 1288.0 679.8 1288.0 675.6 L 1288.0 570.4 C 1288.0 566.2 1284.3 563.0 1280.1 563.0 L 971.7 563.0 C 967.6 563.0 964.2 566.2 964.2 570.4 Z M 964.2 570.4 " fill="#F06191"></path></g></g><g><clipPath id="clip0x608001ea3900"><path d="M 964.2 562.8 L 1287.7 562.8 L 1287.7 683.1 L 964.2 683.1 Z M 964.2 562.8 "></path></clipPath><g clip-path="url(#clip0x608001ea3900)"><text xml:space="preserve" font-family="Roboto-Regular,Roboto" font-size="50.0" fill="#FFFFFF" transform="matrix(1.00, 0.00, -0.00, -1.00, 995.6, 603.2)">&lt;</text><text xml:space="preserve" font-family="Roboto-Regular,Roboto" font-size="50.0" fill="#FFFFFF" transform="matrix(1.00, 0.00, -0.00, -1.00, 1021.0, 603.2)">c</text><text xml:space="preserve" font-family="Roboto-Regular,Roboto" font-size="50.0" fill="#FFFFFF" transform="matrix(1.00, 0.00, -0.00, -1.00, 1047.5, 603.2)">o</text><text xml:space="preserve" font-family="Roboto-Regular,Roboto" font-size="50.0" fill="#FFFFFF" transform="matrix(1.00, 0.00, -0.00, -1.00, 1075.9, 603.2)">r</text><text xml:space="preserve" font-family="Roboto-Regular,Roboto" font-size="50.0" fill="#FFFFFF" transform="matrix(1.00, 0.00, -0.00, -1.00, 1092.6, 603.2)">e</text><text xml:space="preserve" font-family="Roboto-Regular,Roboto" font-size="50.0" fill="#FFFFFF" transform="matrix(1.00, 0.00, -0.00, -1.00, 1119.0, 603.2)">-</text><text xml:space="preserve" font-family="Roboto-Regular,Roboto" font-size="50.0" fill="#FFFFFF" transform="matrix(1.00, 0.00, -0.00, -1.00, 1132.7, 603.2)">f</text><text xml:space="preserve" font-family="Roboto-Regular,Roboto" font-size="50.0" fill="#FFFFFF" transform="matrix(1.00, 0.00, -0.00, -1.00, 1150.0, 603.2)">i</text><text xml:space="preserve" font-family="Roboto-Regular,Roboto" font-size="50.0" fill="#FFFFFF" transform="matrix(1.00, 0.00, -0.00, -1.00, 1162.6, 603.2)">e</text><text xml:space="preserve" font-family="Roboto-Regular,Roboto" font-size="50.0" fill="#FFFFFF" transform="matrix(1.00, 0.00, -0.00, -1.00, 1189.0, 603.2)">l</text><text xml:space="preserve" font-family="Roboto-Regular,Roboto" font-size="50.0" fill="#FFFFFF" transform="matrix(1.00, 0.00, -0.00, -1.00, 1201.6, 603.2)">d</text><text xml:space="preserve" font-family="Roboto-Regular,Roboto" font-size="50.0" fill="#FFFFFF" transform="matrix(1.00, 0.00, -0.00, -1.00, 1230.1, 603.2)">&gt;</text></g></g><g><clipPath id="clip0x600001abcbc0"><path d="M 787.7 831.8 L 666.5 831.8 L 666.5 859.8 L 787.7 859.8 Z M 787.7 831.8 "></path></clipPath><g clip-path="url(#clip0x600001abcbc0)"><path d="M 21.7 0.2 L 26.0 0.2 L 119.7 0.2 " fill="none" stroke="#F06191" stroke-width="8.00" stroke-linejoin="round" transform="matrix(-1.00, 0.00, 0.00, 1.00, 786.7, 845.8)"></path><path d="M 774.0 859.0 C 781.2 859.0 787.0 853.2 787.0 846.0 C 787.0 838.8 781.2 833.0 774.0 833.0 C 766.8 833.0 761.0 838.8 761.0 846.0 C 761.0 853.2 766.8 859.0 774.0 859.0 Z M 774.0 859.0 " fill="#F06191"></path></g></g><g><clipPath id="clip0x600001abcec0"><path d="M 355.9 791.8 L 681.4 791.8 L 681.4 914.1 L 355.9 914.1 Z M 355.9 791.8 "></path></clipPath><g clip-path="url(#clip0x600001abcec0)"><path d="M 356.9 800.4 L 357.0 905.6 C 357.0 909.8 360.2 913.0 364.4 913.0 L 672.8 913.0 C 677.0 913.0 680.0 909.8 680.0 905.6 L 680.0 800.4 C 680.0 796.2 677.0 793.0 672.8 793.0 L 364.4 793.0 C 360.2 793.0 356.9 796.2 356.9 800.4 Z M 356.9 800.4 " fill="#F06191"></path></g></g><g><clipPath id="clip0x600001abd100"><path d="M 356.9 792.8 L 680.4 792.8 L 680.4 913.1 L 356.9 913.1 Z M 356.9 792.8 "></path></clipPath><g clip-path="url(#clip0x600001abd100)"><text xml:space="preserve" font-family="Roboto-Regular,Roboto" font-size="50.0" fill="#FFFFFF" transform="matrix(1.00, 0.00, -0.00, -1.00, 389.0, 833.2)">&lt;</text><text xml:space="preserve" font-family="Roboto-Regular,Roboto" font-size="50.0" fill="#FFFFFF" transform="matrix(1.00, 0.00, -0.00, -1.00, 414.3, 833.2)">c</text><text xml:space="preserve" font-family="Roboto-Regular,Roboto" font-size="50.0" fill="#FFFFFF" transform="matrix(1.00, 0.00, -0.00, -1.00, 440.9, 833.2)">o</text><text xml:space="preserve" font-family="Roboto-Regular,Roboto" font-size="50.0" fill="#FFFFFF" transform="matrix(1.00, 0.00, -0.00, -1.00, 469.3, 833.2)">r</text><text xml:space="preserve" font-family="Roboto-Regular,Roboto" font-size="50.0" fill="#FFFFFF" transform="matrix(1.00, 0.00, -0.00, -1.00, 486.0, 833.2)">e</text><text xml:space="preserve" font-family="Roboto-Regular,Roboto" font-size="50.0" fill="#FFFFFF" transform="matrix(1.00, 0.00, -0.00, -1.00, 512.4, 833.2)">-</text><text xml:space="preserve" font-family="Roboto-Regular,Roboto" font-size="50.0" fill="#FFFFFF" transform="matrix(1.00, 0.00, -0.00, -1.00, 526.1, 833.2)">i</text><text xml:space="preserve" font-family="Roboto-Regular,Roboto" font-size="50.0" fill="#FFFFFF" transform="matrix(1.00, 0.00, -0.00, -1.00, 538.7, 833.2)">c</text><text xml:space="preserve" font-family="Roboto-Regular,Roboto" font-size="50.0" fill="#FFFFFF" transform="matrix(1.00, 0.00, -0.00, -1.00, 565.2, 833.2)">o</text><text xml:space="preserve" font-family="Roboto-Regular,Roboto" font-size="50.0" fill="#FFFFFF" transform="matrix(1.00, 0.00, -0.00, -1.00, 593.7, 833.2)">n</text><text xml:space="preserve" font-family="Roboto-Regular,Roboto" font-size="50.0" fill="#FFFFFF" transform="matrix(1.00, 0.00, -0.00, -1.00, 622.1, 833.2)">&gt;</text></g></g><g><clipPath id="clip0x600001abd700"><path d="M 1147.7 402.9 L 1322.8 402.9 L 1322.8 430.9 L 1147.7 430.9 Z M 1147.7 402.9 "></path></clipPath><g clip-path="url(#clip0x600001abd700)"><path d="M 22.3 -0.1 L 26.0 -0.1 L 173.3 -0.1 " fill="none" stroke="#F06191" stroke-width="8.00" stroke-linejoin="round" transform="matrix(1.00, 0.00, 0.00, -1.00, 1148.7, 416.9)"></path><path d="M 1162.0 404.0 C 1154.8 404.0 1149.0 409.8 1149.0 417.0 C 1149.0 424.2 1154.8 430.0 1162.0 430.0 C 1169.2 430.0 1175.0 424.2 1175.0 417.0 C 1175.0 409.8 1169.2 404.0 1162.0 404.0 Z M 1162.0 404.0 " fill="#F06191"></path></g></g><g><clipPath id="clip0x600001abda00"><path d="M 1279.2 341.8 L 1746.5 341.8 L 1746.5 464.1 L 1279.2 464.1 Z M 1279.2 341.8 "></path></clipPath><g clip-path="url(#clip0x600001abda00)"><path d="M 1280.2 350.4 L 1280.0 455.6 C 1280.0 459.8 1283.6 463.0 1287.7 463.0 L 1737.9 463.0 C 1742.1 463.0 1745.0 459.8 1745.0 455.6 L 1745.0 350.4 C 1745.0 346.2 1742.1 343.0 1737.9 343.0 L 1287.7 343.0 C 1283.6 343.0 1280.2 346.2 1280.2 350.4 Z M 1280.2 350.4 " fill="#F06191"></path></g></g><g><clipPath id="clip0x600001abdc40"><path d="M 1280.2 342.8 L 1745.5 342.8 L 1745.5 463.1 L 1280.2 463.1 Z M 1280.2 342.8 "></path></clipPath><g clip-path="url(#clip0x600001abdc40)"><text xml:space="preserve" font-family="Roboto-Regular,Roboto" font-size="50.0" fill="#FFFFFF" transform="matrix(1.00, 0.00, -0.00, -1.00, 1319.8, 383.2)">&lt;</text><text xml:space="preserve" font-family="Roboto-Regular,Roboto" font-size="50.0" fill="#FFFFFF" transform="matrix(1.00, 0.00, -0.00, -1.00, 1345.2, 383.2)">f</text><text xml:space="preserve" font-family="Roboto-Regular,Roboto" font-size="50.0" fill="#FFFFFF" transform="matrix(1.00, 0.00, -0.00, -1.00, 1362.5, 383.2)">l</text><text xml:space="preserve" font-family="Roboto-Regular,Roboto" font-size="50.0" fill="#FFFFFF" transform="matrix(1.00, 0.00, -0.00, -1.00, 1375.1, 383.2)">o</text><text xml:space="preserve" font-family="Roboto-Regular,Roboto" font-size="50.0" fill="#FFFFFF" transform="matrix(1.00, 0.00, -0.00, -1.00, 1403.5, 383.2)">a</text><text xml:space="preserve" font-family="Roboto-Regular,Roboto" font-size="50.0" fill="#FFFFFF" transform="matrix(1.00, 0.00, -0.00, -1.00, 1431.0, 383.2)">t</text><text xml:space="preserve" font-family="Roboto-Regular,Roboto" font-size="50.0" fill="#FFFFFF" transform="matrix(1.00, 0.00, -0.00, -1.00, 1448.3, 383.2)">i</text><text xml:space="preserve" font-family="Roboto-Regular,Roboto" font-size="50.0" fill="#FFFFFF" transform="matrix(1.00, 0.00, -0.00, -1.00, 1460.9, 383.2)">n</text><text xml:space="preserve" font-family="Roboto-Regular,Roboto" font-size="50.0" fill="#FFFFFF" transform="matrix(1.00, 0.00, -0.00, -1.00, 1489.3, 383.2)">g</text><text xml:space="preserve" font-family="Roboto-Regular,Roboto" font-size="50.0" fill="#FFFFFF" transform="matrix(1.00, 0.00, -0.00, -1.00, 1517.7, 383.2)">-</text><text xml:space="preserve" font-family="Roboto-Regular,Roboto" font-size="50.0" fill="#FFFFFF" transform="matrix(1.00, 0.00, -0.00, -1.00, 1531.4, 383.2)">b</text><text xml:space="preserve" font-family="Roboto-Regular,Roboto" font-size="50.0" fill="#FFFFFF" transform="matrix(1.00, 0.00, -0.00, -1.00, 1559.9, 383.2)">u</text><text xml:space="preserve" font-family="Roboto-Regular,Roboto" font-size="50.0" fill="#FFFFFF" transform="matrix(1.00, 0.00, -0.00, -1.00, 1588.3, 383.2)">t</text><text xml:space="preserve" font-family="Roboto-Regular,Roboto" font-size="50.0" fill="#FFFFFF" transform="matrix(1.00, 0.00, -0.00, -1.00, 1605.6, 383.2)">t</text><text xml:space="preserve" font-family="Roboto-Regular,Roboto" font-size="50.0" fill="#FFFFFF" transform="matrix(1.00, 0.00, -0.00, -1.00, 1622.8, 383.2)">o</text><text xml:space="preserve" font-family="Roboto-Regular,Roboto" font-size="50.0" fill="#FFFFFF" transform="matrix(1.00, 0.00, -0.00, -1.00, 1651.3, 383.2)">n</text><text xml:space="preserve" font-family="Roboto-Regular,Roboto" font-size="50.0" fill="#FFFFFF" transform="matrix(1.00, 0.00, -0.00, -1.00, 1679.7, 383.2)">&gt;</text></g></g><g><clipPath id="clip0x600001abe480"><path d="M 759.7 497.8 L 638.5 497.8 L 638.5 525.8 L 759.7 525.8 Z M 759.7 497.8 "></path></clipPath><g clip-path="url(#clip0x600001abe480)"><path d="M 21.7 0.2 L 26.0 0.2 L 119.7 0.2 " fill="none" stroke="#F06191" stroke-width="8.00" stroke-linejoin="round" transform="matrix(-1.00, 0.00, 0.00, 1.00, 758.7, 511.8)"></path><path d="M 746.0 525.0 C 753.2 525.0 759.0 519.2 759.0 512.0 C 759.0 504.8 753.2 499.0 746.0 499.0 C 738.8 499.0 733.0 504.8 733.0 512.0 C 733.0 519.2 738.8 525.0 746.0 525.0 Z M 746.0 525.0 " fill="#F06191"></path></g></g><g><clipPath id="clip0x600001abe780"><path d="M 141.6 457.8 L 653.4 457.8 L 653.4 580.1 L 141.6 580.1 Z M 141.6 457.8 "></path></clipPath><g clip-path="url(#clip0x600001abe780)"><path d="M 142.6 466.4 L 143.0 571.6 C 143.0 575.8 146.0 579.0 150.2 579.0 L 644.8 579.0 C 649.0 579.0 652.0 575.8 652.0 571.6 L 652.0 466.4 C 652.0 462.2 649.0 459.0 644.8 459.0 L 150.2 459.0 C 146.0 459.0 142.6 462.2 142.6 466.4 Z M 142.6 466.4 " fill="#F06191"></path></g></g><g><clipPath id="clip0x600001abe9c0"><path d="M 142.6 458.8 L 652.4 458.8 L 652.4 579.1 L 142.6 579.1 Z M 142.6 458.8 "></path></clipPath><g clip-path="url(#clip0x600001abe9c0)"><text xml:space="preserve" font-family="Roboto-Regular,Roboto" font-size="50.0" fill="#FFFFFF" transform="matrix(1.00, 0.00, -0.00, -1.00, 170.1, 499.2)">&lt;</text><text xml:space="preserve" font-family="Roboto-Regular,Roboto" font-size="50.0" fill="#FFFFFF" transform="matrix(1.00, 0.00, -0.00, -1.00, 195.4, 499.2)">c</text><text xml:space="preserve" font-family="Roboto-Regular,Roboto" font-size="50.0" fill="#FFFFFF" transform="matrix(1.00, 0.00, -0.00, -1.00, 222.0, 499.2)">o</text><text xml:space="preserve" font-family="Roboto-Regular,Roboto" font-size="50.0" fill="#FFFFFF" transform="matrix(1.00, 0.00, -0.00, -1.00, 250.4, 499.2)">r</text><text xml:space="preserve" font-family="Roboto-Regular,Roboto" font-size="50.0" fill="#FFFFFF" transform="matrix(1.00, 0.00, -0.00, -1.00, 267.1, 499.2)">e</text><text xml:space="preserve" font-family="Roboto-Regular,Roboto" font-size="50.0" fill="#FFFFFF" transform="matrix(1.00, 0.00, -0.00, -1.00, 293.5, 499.2)">-</text><text xml:space="preserve" font-family="Roboto-Regular,Roboto" font-size="50.0" fill="#FFFFFF" transform="matrix(1.00, 0.00, -0.00, -1.00, 307.2, 499.2)">d</text><text xml:space="preserve" font-family="Roboto-Regular,Roboto" font-size="50.0" fill="#FFFFFF" transform="matrix(1.00, 0.00, -0.00, -1.00, 335.6, 499.2)">r</text><text xml:space="preserve" font-family="Roboto-Regular,Roboto" font-size="50.0" fill="#FFFFFF" transform="matrix(1.00, 0.00, -0.00, -1.00, 352.8, 499.2)">a</text><text xml:space="preserve" font-family="Roboto-Regular,Roboto" font-size="50.0" fill="#FFFFFF" transform="matrix(1.00, 0.00, -0.00, -1.00, 380.2, 499.2)">w</text><text xml:space="preserve" font-family="Roboto-Regular,Roboto" font-size="50.0" fill="#FFFFFF" transform="matrix(1.00, 0.00, -0.00, -1.00, 418.1, 499.2)">e</text><text xml:space="preserve" font-family="Roboto-Regular,Roboto" font-size="50.0" fill="#FFFFFF" transform="matrix(1.00, 0.00, -0.00, -1.00, 444.5, 499.2)">r</text><text xml:space="preserve" font-family="Roboto-Regular,Roboto" font-size="50.0" fill="#FFFFFF" transform="matrix(1.00, 0.00, -0.00, -1.00, 461.6, 499.2)">-</text><text xml:space="preserve" font-family="Roboto-Regular,Roboto" font-size="50.0" fill="#FFFFFF" transform="matrix(1.00, 0.00, -0.00, -1.00, 475.3, 499.2)">p</text><text xml:space="preserve" font-family="Roboto-Regular,Roboto" font-size="50.0" fill="#FFFFFF" transform="matrix(1.00, 0.00, -0.00, -1.00, 503.8, 499.2)">a</text><text xml:space="preserve" font-family="Roboto-Regular,Roboto" font-size="50.0" fill="#FFFFFF" transform="matrix(1.00, 0.00, -0.00, -1.00, 531.2, 499.2)">n</text><text xml:space="preserve" font-family="Roboto-Regular,Roboto" font-size="50.0" fill="#FFFFFF" transform="matrix(1.00, 0.00, -0.00, -1.00, 559.7, 499.2)">e</text><text xml:space="preserve" font-family="Roboto-Regular,Roboto" font-size="50.0" fill="#FFFFFF" transform="matrix(1.00, 0.00, -0.00, -1.00, 586.1, 499.2)">l</text><text xml:space="preserve" font-family="Roboto-Regular,Roboto" font-size="50.0" fill="#FFFFFF" transform="matrix(1.00, 0.00, -0.00, -1.00, 598.7, 499.2)">&gt;</text></g></g></g></svg>