<?xml version="1.0" encoding="UTF-8" standalone="no"?><svg xmlns="http://www.w3.org/2000/svg" xmlns:xlink="http://www.w3.org/1999/xlink" clip-rule="evenodd" stroke-miterlimit="10" viewBox="0 0 1920 1080"><desc>SVG generated by Keynote</desc><defs></defs><g transform="matrix(1.00, 0.00, -0.00, -1.00, 0.0, 1080.0)"><path d="M 0.0 1080.0 L 1920.0 1080.0 L 1920.0 0.0 L 0.0 0.0 Z M 0.0 1080.0 " fill="#5C6AC0"></path><text xml:space="preserve" font-family="Roboto-Medium,Roboto" font-size="120.0" fill="#FFFFFF" transform="matrix(1.00, 0.00, -0.00, -1.00, 160.4, 493.5)">B</text><text xml:space="preserve" font-family="Roboto-Medium,Roboto" font-size="120.0" fill="#FFFFFF" transform="matrix(1.00, 0.00, -0.00, -1.00, 237.3, 493.5)">u</text><text xml:space="preserve" font-family="Roboto-Medium,Roboto" font-size="120.0" fill="#FFFFFF" transform="matrix(1.00, 0.00, -0.00, -1.00, 305.3, 493.5)">i</text><text xml:space="preserve" font-family="Roboto-Medium,Roboto" font-size="120.0" fill="#FFFFFF" transform="matrix(1.00, 0.00, -0.00, -1.00, 336.4, 493.5)">l</text><text xml:space="preserve" font-family="Roboto-Medium,Roboto" font-size="120.0" fill="#FFFFFF" transform="matrix(1.00, 0.00, -0.00, -1.00, 367.6, 493.5)">d</text><text xml:space="preserve" font-family="Roboto-Medium,Roboto" font-size="120.0" fill="#FFFFFF" transform="matrix(1.00, 0.00, -0.00, -1.00, 435.6, 493.5)"> </text><text xml:space="preserve" font-family="Roboto-Medium,Roboto" font-size="120.0" fill="#FFFFFF" transform="matrix(1.00, 0.00, -0.00, -1.00, 465.5, 493.5)">a</text><text xml:space="preserve" font-family="Roboto-Medium,Roboto" font-size="120.0" fill="#FFFFFF" transform="matrix(1.00, 0.00, -0.00, -1.00, 530.7, 493.5)"> </text><text xml:space="preserve" font-family="Roboto-Medium,Roboto" font-size="120.0" fill="#FFFFFF" transform="matrix(1.00, 0.00, -0.00, -1.00, 560.6, 493.5)">b</text><text xml:space="preserve" font-family="Roboto-Medium,Roboto" font-size="120.0" fill="#FFFFFF" transform="matrix(1.00, 0.00, -0.00, -1.00, 628.6, 493.5)">e</text><text xml:space="preserve" font-family="Roboto-Medium,Roboto" font-size="120.0" fill="#FFFFFF" transform="matrix(1.00, 0.00, -0.00, -1.00, 692.2, 493.5)">t</text><text xml:space="preserve" font-family="Roboto-Medium,Roboto" font-size="120.0" fill="#FFFFFF" transform="matrix(1.00, 0.00, -0.00, -1.00, 733.9, 493.5)">t</text><text xml:space="preserve" font-family="Roboto-Medium,Roboto" font-size="120.0" fill="#FFFFFF" transform="matrix(1.00, 0.00, -0.00, -1.00, 775.6, 493.5)">e</text><text xml:space="preserve" font-family="Roboto-Medium,Roboto" font-size="120.0" fill="#FFFFFF" transform="matrix(1.00, 0.00, -0.00, -1.00, 839.1, 493.5)">r</text><text xml:space="preserve" font-family="Roboto-Medium,Roboto" font-size="120.0" fill="#FFFFFF" transform="matrix(1.00, 0.00, -0.00, -1.00, 880.7, 493.5)"> </text><text xml:space="preserve" font-family="Roboto-Medium,Roboto" font-size="120.0" fill="#FFFFFF" transform="matrix(1.00, 0.00, -0.00, -1.00, 910.4, 493.5)">f</text><text xml:space="preserve" font-family="Roboto-Medium,Roboto" font-size="120.0" fill="#FFFFFF" transform="matrix(1.00, 0.00, -0.00, -1.00, 952.5, 493.5)">r</text><text xml:space="preserve" font-family="Roboto-Medium,Roboto" font-size="120.0" fill="#FFFFFF" transform="matrix(1.00, 0.00, -0.00, -1.00, 994.1, 493.5)">a</text><text xml:space="preserve" font-family="Roboto-Medium,Roboto" font-size="120.0" fill="#FFFFFF" transform="matrix(1.00, 0.00, -0.00, -1.00, 1059.4, 493.5)">m</text><text xml:space="preserve" font-family="Roboto-Medium,Roboto" font-size="120.0" fill="#FFFFFF" transform="matrix(1.00, 0.00, -0.00, -1.00, 1163.6, 493.5)">e</text><text xml:space="preserve" font-family="Roboto-Medium,Roboto" font-size="120.0" fill="#FFFFFF" transform="matrix(1.00, 0.00, -0.00, -1.00, 1227.1, 493.5)">w</text><text xml:space="preserve" font-family="Roboto-Medium,Roboto" font-size="120.0" fill="#FFFFFF" transform="matrix(1.00, 0.00, -0.00, -1.00, 1316.8, 493.5)">o</text><text xml:space="preserve" font-family="Roboto-Medium,Roboto" font-size="120.0" fill="#FFFFFF" transform="matrix(1.00, 0.00, -0.00, -1.00, 1384.8, 493.5)">r</text><text xml:space="preserve" font-family="Roboto-Medium,Roboto" font-size="120.0" fill="#FFFFFF" transform="matrix(1.00, 0.00, -0.00, -1.00, 1426.3, 493.5)">k</text><text xml:space="preserve" font-family="Roboto-Medium,Roboto" font-size="120.0" fill="#FFFFFF" transform="matrix(1.00, 0.00, -0.00, -1.00, 1489.2, 493.5)"> </text><text xml:space="preserve" font-family="Roboto-Bold,Roboto" font-weight="bold" font-size="120.0" fill="#FFFFFF" transform="matrix(1.00, 0.00, -0.00, -1.00, 1519.0, 493.5)">w</text><text xml:space="preserve" font-family="Roboto-Bold,Roboto" font-weight="bold" font-size="120.0" fill="#FFFFFF" transform="matrix(1.00, 0.00, -0.00, -1.00, 1607.3, 493.5)">e</text><text xml:space="preserve" font-family="Roboto-Bold,Roboto" font-weight="bold" font-size="120.0" fill="#FFFFFF" transform="matrix(1.00, 0.00, -0.00, -1.00, 1670.9, 493.5)">b</text><text xml:space="preserve" font-family="Roboto-Bold,Roboto" font-weight="bold" font-size="120.0" fill="#FFFFFF" transform="matrix(1.00, 0.00, -0.00, -1.00, 1738.8, 493.5)">.</text><g><clipPath id="clip0x6080008baa00"><path d="M 909.4 521.2 L 1489.2 521.2 L 1489.2 530.2 L 909.4 530.2 Z M 909.4 521.2 "></path></clipPath><g clip-path="url(#clip0x6080008baa00)"><path d="M 749.9 434.2 L 1328.7 434.2 " fill="none" stroke="#404040" stroke-width="7.00" transform="matrix(1.00, 0.00, 0.00, -1.00, 160.4, 959.9)"></path></g></g></g></svg>