<?xml version="1.0" encoding="UTF-8" standalone="no"?><svg xmlns="http://www.w3.org/2000/svg" xmlns:xlink="http://www.w3.org/1999/xlink" clip-rule="evenodd" stroke-miterlimit="10" viewBox="0 0 1920 1080"><desc>SVG generated by Keynote</desc><defs></defs><g transform="matrix(1.00, 0.00, -0.00, -1.00, 0.0, 1080.0)"><path d="M 0.0 1080.0 L 1920.0 1080.0 L 1920.0 0.0 L 0.0 0.0 Z M 0.0 1080.0 " fill="#FFFFFF"></path><text xml:space="preserve" font-family="Roboto-Bold,Roboto" font-weight="bold" font-size="80.0" fill="#424242" transform="matrix(1.00, 0.00, -0.00, -1.00, 643.1, 925.6)">H</text><text xml:space="preserve" font-family="Roboto-Bold,Roboto" font-weight="bold" font-size="80.0" fill="#424242" transform="matrix(1.00, 0.00, -0.00, -1.00, 699.8, 925.6)">o</text><text xml:space="preserve" font-family="Roboto-Bold,Roboto" font-weight="bold" font-size="80.0" fill="#424242" transform="matrix(1.00, 0.00, -0.00, -1.00, 745.0, 925.6)">w</text><text xml:space="preserve" font-family="Roboto-Bold,Roboto" font-weight="bold" font-size="80.0" fill="#424242" transform="matrix(1.00, 0.00, -0.00, -1.00, 803.8, 925.6)"> </text><text xml:space="preserve" font-family="Roboto-Bold,Roboto" font-weight="bold" font-size="80.0" fill="#424242" transform="matrix(1.00, 0.00, -0.00, -1.00, 823.7, 925.6)">d</text><text xml:space="preserve" font-family="Roboto-Bold,Roboto" font-weight="bold" font-size="80.0" fill="#424242" transform="matrix(1.00, 0.00, -0.00, -1.00, 868.9, 925.6)">i</text><text xml:space="preserve" font-family="Roboto-Bold,Roboto" font-weight="bold" font-size="80.0" fill="#424242" transform="matrix(1.00, 0.00, -0.00, -1.00, 890.3, 925.6)">d</text><text xml:space="preserve" font-family="Roboto-Bold,Roboto" font-weight="bold" font-size="80.0" fill="#424242" transform="matrix(1.00, 0.00, -0.00, -1.00, 935.5, 925.6)"> </text><text xml:space="preserve" font-family="Roboto-Bold,Roboto" font-weight="bold" font-size="80.0" fill="#424242" transform="matrix(1.00, 0.00, -0.00, -1.00, 955.4, 925.6)">w</text><text xml:space="preserve" font-family="Roboto-Bold,Roboto" font-weight="bold" font-size="80.0" fill="#424242" transform="matrix(1.00, 0.00, -0.00, -1.00, 1014.3, 925.6)">e</text><text xml:space="preserve" font-family="Roboto-Bold,Roboto" font-weight="bold" font-size="80.0" fill="#424242" transform="matrix(1.00, 0.00, -0.00, -1.00, 1056.7, 925.6)"> </text><text xml:space="preserve" font-family="Roboto-Bold,Roboto" font-weight="bold" font-size="80.0" fill="#424242" transform="matrix(1.00, 0.00, -0.00, -1.00, 1076.6, 925.6)">d</text><text xml:space="preserve" font-family="Roboto-Bold,Roboto" font-weight="bold" font-size="80.0" fill="#424242" transform="matrix(1.00, 0.00, -0.00, -1.00, 1121.8, 925.6)">o</text><text xml:space="preserve" font-family="Roboto-Bold,Roboto" font-weight="bold" font-size="80.0" fill="#424242" transform="matrix(1.00, 0.00, -0.00, -1.00, 1167.0, 925.6)"> </text><text xml:space="preserve" font-family="Roboto-Bold,Roboto" font-weight="bold" font-size="80.0" fill="#424242" transform="matrix(1.00, 0.00, -0.00, -1.00, 1186.9, 925.6)">i</text><text xml:space="preserve" font-family="Roboto-Bold,Roboto" font-weight="bold" font-size="80.0" fill="#424242" transform="matrix(1.00, 0.00, -0.00, -1.00, 1208.3, 925.6)">t</text><text xml:space="preserve" font-family="Roboto-Bold,Roboto" font-weight="bold" font-size="80.0" fill="#424242" transform="matrix(1.00, 0.00, -0.00, -1.00, 1236.2, 925.6)">?</text><g><clipPath id="clip0x608002ca60c0"><path d="M 643.0 840.0 L 1277.0 840.0 L 1277.0 82.0 L 643.0 82.0 Z M 643.0 840.1 "></path></clipPath><g clip-path="url(#clip0x608002ca60c0)"><g><clipPath id="clip0x608002ca6240"><path d="M 977.6 840.1 C 976.7 840.2 975.6 840.1 974.9 840.0 C 973.3 839.6 970.7 839.3 969.1 839.2 C 967.5 839.2 965.9 838.8 965.5 838.5 C 965.1 838.1 964.3 838.2 963.7 838.7 C 962.9 839.4 962.4 839.4 962.0 838.7 C 961.6 838.2 960.9 838.0 960.5 838.3 C 960.0 838.6 959.0 838.4 958.3 837.8 C 957.5 837.2 956.8 837.1 956.5 837.6 C 955.9 838.6 951.9 838.4 949.3 837.3 C 948.4 837.0 947.2 837.1 946.5 837.6 C 945.8 838.2 944.8 838.3 944.1 837.8 C 943.4 837.4 941.1 837.2 939.1 837.3 C 937.1 837.5 935.0 837.4 934.5 837.1 C 934.0 836.8 931.5 836.4 929.0 836.2 C 924.5 835.9 919.3 834.1 916.6 831.9 C 915.9 831.4 914.9 830.9 914.3 830.9 C 913.7 830.9 910.1 829.4 906.3 827.5 C 900.6 824.8 899.2 823.7 898.6 821.6 C 897.8 818.3 896.4 816.5 895.1 817.3 C 894.6 817.6 894.4 817.5 894.7 817.0 C 895.4 815.9 892.2 812.7 889.6 811.8 C 888.7 811.5 888.1 810.7 888.2 810.0 C 888.3 809.4 886.8 807.1 884.9 805.0 C 881.9 801.8 881.1 801.3 879.3 802.0 C 878.2 802.4 876.9 802.5 876.6 802.2 C 876.2 801.8 875.7 801.5 875.3 801.5 C 875.0 801.4 874.1 801.1 873.3 800.7 C 872.4 800.4 871.4 800.2 870.9 800.4 C 870.4 800.5 868.7 799.5 867.0 798.1 C 864.7 796.2 864.1 795.0 864.3 793.1 C 864.6 791.0 864.3 790.5 862.5 790.5 C 859.6 790.5 858.4 788.2 860.2 786.2 C 861.5 784.7 861.5 784.6 860.1 784.0 C 859.1 783.6 858.9 783.1 859.5 782.4 C 860.0 781.8 860.0 780.8 859.6 780.0 C 859.1 779.3 859.3 777.4 860.0 775.4 C 861.6 771.1 859.9 767.6 855.9 766.7 C 852.7 766.0 844.4 758.5 844.4 756.3 C 844.4 755.4 843.5 754.3 842.4 753.9 C 840.2 752.9 839.7 750.7 841.2 749.2 C 841.8 748.5 841.1 747.2 838.9 745.1 C 837.1 743.4 835.7 741.5 835.7 740.8 C 835.7 740.1 835.1 739.3 834.3 739.0 C 833.6 738.7 832.9 738.1 832.9 737.5 C 832.9 737.0 832.3 735.8 831.5 734.9 C 830.7 734.1 830.0 732.7 829.8 732.0 C 829.7 731.2 829.1 730.0 828.5 729.2 C 827.9 728.5 827.6 726.7 827.9 725.0 C 828.2 723.1 827.7 720.9 826.5 718.5 C 825.5 716.5 824.7 714.2 824.7 713.3 C 824.7 712.3 823.8 709.3 822.8 706.6 C 820.2 699.9 816.9 686.1 815.5 675.8 C 814.0 666.0 812.3 661.1 810.6 662.4 C 809.5 663.3 800.6 660.7 793.7 657.4 C 792.0 656.6 788.5 655.2 785.8 654.3 C 778.7 651.9 762.0 643.8 754.2 639.0 C 715.4 615.5 674.1 570.3 652.1 527.5 C 650.7 524.8 648.2 520.0 646.5 516.7 C 643.9 511.6 643.4 509.6 643.1 502.7 C 642.6 492.7 644.2 488.0 649.7 482.9 C 659.8 473.6 687.1 469.4 730.2 470.4 C 748.0 470.9 754.8 470.7 755.3 470.0 C 755.7 469.4 756.1 465.1 756.4 460.5 C 756.6 455.8 757.4 449.1 758.2 445.6 C 759.6 438.5 762.6 400.5 761.8 399.2 C 761.5 398.7 761.7 397.5 762.2 396.6 C 762.8 395.4 763.2 382.6 763.3 360.5 C 763.4 326.8 762.9 316.4 761.1 314.2 C 760.6 313.5 760.4 312.4 760.7 311.7 C 761.0 310.9 760.9 310.1 760.5 309.9 C 760.2 309.6 760.0 308.3 760.1 306.9 C 760.6 300.8 760.6 299.1 759.9 287.3 C 759.5 280.5 759.2 273.1 759.3 270.8 C 759.4 265.4 757.1 245.5 754.8 233.2 C 753.6 226.4 753.1 219.4 753.1 209.8 C 753.1 198.0 753.4 195.1 755.3 188.7 C 756.5 184.7 757.8 180.0 758.1 178.4 C 758.4 176.8 759.3 175.0 760.0 174.4 C 760.7 173.8 761.3 173.0 761.3 172.6 C 761.3 168.8 777.2 144.5 782.8 139.7 C 784.5 138.3 785.7 137.2 791.0 131.5 C 792.1 130.4 796.3 127.5 800.4 125.2 C 804.4 122.9 808.9 119.8 810.5 118.5 C 812.9 116.3 827.9 108.4 829.7 108.4 C 830.1 108.4 832.9 107.2 835.9 105.6 C 843.2 101.9 860.2 96.4 874.7 92.9 C 881.3 91.3 888.1 89.7 889.9 89.2 C 893.3 88.3 909.3 85.6 914.7 85.0 C 916.4 84.8 923.4 84.2 930.3 83.6 C 937.1 83.0 943.3 82.4 944.0 82.2 C 944.8 82.1 958.2 82.0 973.9 82.2 C 1002.4 82.5 1019.5 83.9 1041.0 87.8 C 1045.2 88.5 1049.6 89.1 1050.9 89.1 C 1052.1 89.1 1054.1 89.5 1055.3 90.0 C 1056.5 90.5 1062.4 92.0 1068.4 93.3 C 1088.2 97.8 1099.3 101.4 1116.2 108.6 C 1135.6 117.0 1159.2 133.0 1170.8 145.7 C 1175.1 150.5 1183.2 160.8 1183.2 161.6 C 1183.2 161.9 1183.5 162.5 1183.8 163.0 C 1184.1 163.5 1184.2 167.4 1184.1 171.7 C 1184.0 179.0 1182.7 185.6 1179.5 195.7 C 1178.7 198.0 1178.1 201.4 1178.1 203.2 C 1178.1 205.0 1177.1 213.8 1175.9 222.8 C 1174.6 231.8 1172.8 247.6 1171.7 257.9 C 1170.7 268.3 1168.4 287.3 1166.6 300.1 C 1162.0 334.6 1160.0 376.3 1162.6 385.9 C 1164.3 392.2 1164.6 395.6 1163.6 396.8 C 1161.9 398.8 1162.8 433.5 1164.7 439.2 C 1166.7 445.1 1167.3 449.8 1166.2 451.1 C 1165.6 451.8 1165.7 453.2 1166.4 455.0 C 1167.3 457.3 1167.3 458.6 1166.4 460.8 C 1165.6 463.1 1165.7 465.3 1166.8 471.4 C 1167.6 475.8 1168.8 479.4 1169.4 479.7 C 1170.1 479.9 1170.5 481.0 1170.2 482.3 C 1170.0 483.5 1170.3 484.7 1170.8 485.0 C 1172.0 485.8 1200.7 487.3 1223.6 487.8 C 1253.6 488.4 1257.9 488.8 1263.5 491.0 C 1269.7 493.4 1274.8 498.1 1276.4 502.9 C 1278.9 510.7 1273.8 524.2 1261.6 541.5 C 1248.5 560.1 1217.5 594.0 1202.4 606.2 C 1199.3 608.7 1193.1 613.8 1188.6 617.6 C 1166.7 636.1 1147.4 648.3 1129.9 654.8 C 1127.4 655.7 1124.8 656.8 1124.2 657.3 C 1123.5 657.8 1122.7 658.0 1122.4 657.6 C 1122.1 657.3 1121.2 657.6 1120.4 658.3 C 1119.6 658.9 1117.6 660.0 1115.9 660.7 C 1113.3 661.7 1112.7 661.7 1111.1 660.3 C 1109.1 658.5 1109.5 657.9 1106.6 666.2 C 1106.1 667.5 1105.5 670.6 1105.2 673.1 C 1104.8 675.6 1104.0 679.3 1103.3 681.3 C 1102.7 683.4 1101.2 688.1 1100.0 691.9 C 1098.9 695.7 1097.4 700.1 1096.8 701.7 C 1096.1 703.3 1095.5 705.0 1095.5 705.6 C 1095.5 706.1 1094.2 709.3 1092.7 712.7 C 1091.1 716.1 1089.1 720.9 1088.2 723.4 C 1087.2 725.8 1084.6 730.6 1082.4 733.9 C 1076.7 742.6 1071.6 751.2 1071.6 752.2 C 1071.6 752.7 1069.4 755.9 1066.7 759.4 C 1063.7 763.4 1061.9 766.6 1062.0 767.9 C 1062.1 769.1 1061.6 770.2 1060.9 770.4 C 1056.7 771.7 1056.7 771.7 1057.8 773.0 C 1058.7 774.1 1058.0 774.6 1054.0 775.9 C 1049.5 777.3 1045.6 780.5 1046.4 781.9 C 1046.6 782.2 1045.6 783.0 1044.1 783.6 C 1041.9 784.6 1037.8 789.0 1038.4 789.8 C 1038.8 790.3 1030.3 798.1 1026.3 800.8 C 1024.0 802.5 1022.1 804.5 1022.1 805.3 C 1022.1 806.1 1021.1 807.6 1019.9 808.5 C 1018.7 809.4 1017.4 811.4 1017.1 812.7 C 1016.7 814.1 1015.7 815.7 1014.9 816.3 C 1014.0 816.9 1013.3 817.8 1013.3 818.2 C 1013.3 819.5 1005.1 827.2 1003.9 826.9 C 1003.3 826.8 1000.7 828.3 998.2 830.2 C 995.6 832.1 993.1 833.7 992.6 833.7 C 992.1 833.7 991.4 834.2 990.9 834.9 C 990.5 835.6 989.7 835.9 989.2 835.6 C 988.6 835.3 987.8 835.7 987.3 836.6 C 986.7 837.5 986.3 837.9 986.3 837.4 C 986.3 837.0 985.6 837.2 984.7 837.9 C 983.9 838.6 983.2 839.0 983.1 838.9 C 983.1 838.7 981.8 839.0 980.4 839.6 C 979.6 839.9 978.6 840.0 977.6 840.1 Z M 977.6 840.1 "></path></clipPath><g clip-path="url(#clip0x608002ca6240)"><image xlink:href="0E8165949059893F94A0B081C617E41D.jpeg" width="985.00" height="1201.00" transform="matrix(0.68, 0.00, -0.00, -0.68, 620.9, 883.7)"></image></g></g></g></g></g></svg>