<?xml version="1.0" encoding="UTF-8" standalone="no"?><svg xmlns="http://www.w3.org/2000/svg" xmlns:xlink="http://www.w3.org/1999/xlink" clip-rule="evenodd" stroke-miterlimit="10" viewBox="0 0 1920 1080"><desc>SVG generated by Keynote</desc><defs></defs><g transform="matrix(1.00, 0.00, -0.00, -1.00, 0.0, 1080.0)"><path d="M 0.0 1080.0 L 1920.0 1080.0 L 1920.0 0.0 L 0.0 0.0 Z M 0.0 1080.0 " fill="#FF4081"></path><text xml:space="preserve" font-family="Roboto-Medium,Roboto" font-size="115.0" fill="#FFFFFF" transform="matrix(1.00, 0.00, -0.00, -1.00, 155.9, 495.2)">W</text><text xml:space="preserve" font-family="Roboto-Medium,Roboto" font-size="115.0" fill="#FFFFFF" transform="matrix(1.00, 0.00, -0.00, -1.00, 255.8, 495.2)">e</text><text xml:space="preserve" font-family="Roboto-Medium,Roboto" font-size="115.0" fill="#FFFFFF" transform="matrix(1.00, 0.00, -0.00, -1.00, 315.3, 495.2)">’</text><text xml:space="preserve" font-family="Roboto-Medium,Roboto" font-size="115.0" fill="#FFFFFF" transform="matrix(1.00, 0.00, -0.00, -1.00, 338.5, 495.2)">r</text><text xml:space="preserve" font-family="Roboto-Medium,Roboto" font-size="115.0" fill="#FFFFFF" transform="matrix(1.00, 0.00, -0.00, -1.00, 378.3, 495.2)">e</text><text xml:space="preserve" font-family="Roboto-Medium,Roboto" font-size="115.0" fill="#FFFFFF" transform="matrix(1.00, 0.00, -0.00, -1.00, 439.2, 495.2)"> </text><text xml:space="preserve" font-family="Roboto-Medium,Roboto" font-size="115.0" fill="#FFFFFF" transform="matrix(1.00, 0.00, -0.00, -1.00, 467.8, 495.2)">n</text><text xml:space="preserve" font-family="Roboto-Medium,Roboto" font-size="115.0" fill="#FFFFFF" transform="matrix(1.00, 0.00, -0.00, -1.00, 533.0, 495.2)">o</text><text xml:space="preserve" font-family="Roboto-Medium,Roboto" font-size="115.0" fill="#FFFFFF" transform="matrix(1.00, 0.00, -0.00, -1.00, 598.2, 495.2)">t</text><text xml:space="preserve" font-family="Roboto-Medium,Roboto" font-size="115.0" fill="#FFFFFF" transform="matrix(1.00, 0.00, -0.00, -1.00, 638.1, 495.2)"> </text><text xml:space="preserve" font-family="Roboto-Medium,Roboto" font-size="115.0" fill="#FFFFFF" transform="matrix(1.00, 0.00, -0.00, -1.00, 666.8, 495.2)">a</text><text xml:space="preserve" font-family="Roboto-Medium,Roboto" font-size="115.0" fill="#FFFFFF" transform="matrix(1.00, 0.00, -0.00, -1.00, 729.3, 495.2)">l</text><text xml:space="preserve" font-family="Roboto-Medium,Roboto" font-size="115.0" fill="#FFFFFF" transform="matrix(1.00, 0.00, -0.00, -1.00, 759.2, 495.2)">o</text><text xml:space="preserve" font-family="Roboto-Medium,Roboto" font-size="115.0" fill="#FFFFFF" transform="matrix(1.00, 0.00, -0.00, -1.00, 824.4, 495.2)">n</text><text xml:space="preserve" font-family="Roboto-Medium,Roboto" font-size="115.0" fill="#FFFFFF" transform="matrix(1.00, 0.00, -0.00, -1.00, 889.5, 495.2)">e</text></g></svg>