<?xml version="1.0" encoding="UTF-8" standalone="no"?><svg xmlns="http://www.w3.org/2000/svg" xmlns:xlink="http://www.w3.org/1999/xlink" clip-rule="evenodd" stroke-miterlimit="10" viewBox="0 0 1920 1080"><desc>SVG generated by Keynote</desc><defs></defs><g transform="matrix(1.00, 0.00, -0.00, -1.00, 0.0, 1080.0)"><path d="M 0.0 1080.0 L 1920.0 1080.0 L 1920.0 0.0 L 0.0 0.0 Z M 0.0 1080.0 " fill="#FFFFFF"></path><g><clipPath id="clip0x600003ca5880"><path d="M 728.4 -125.3 L 2348.4 -125.3 L 2348.4 954.7 L 728.4 954.7 Z M 728.4 -125.3 "></path></clipPath><g clip-path="url(#clip0x600003ca5880)"><image xlink:href="../../9F3B8E70-A4A1-4630-A499-F37E168FBC11/assets/E4B0263CD47454759F693AE83BE595B0.png" width="2160.00" height="1440.00" transform="matrix(0.75, 0.00, -0.00, -0.75, 728.4, 954.7)"></image></g></g><g><clipPath id="clip0x608003caf600"><path d="M 1071.0 868.0 L 1976.0 868.0 L 1976.0 289.0 L 1071.0 289.0 Z M 1071.1 867.5 "></path></clipPath><g clip-path="url(#clip0x608003caf600)"><g><clipPath id="clip0x608003caf780"><path d="M 1071.1 288.7 L 1975.6 288.7 L 1975.6 867.5 L 1071.1 867.5 Z M 1071.1 288.7 "></path></clipPath><g clip-path="url(#clip0x608003caf780)"><image xlink:href="../../9F3B8E70-A4A1-4630-A499-F37E168FBC11/assets/9FCBDCDD5057B9E990F95F5C5D657D23.png" width="1440.00" height="900.00" transform="matrix(0.93, 0.00, -0.00, -0.93, 1087.6, 801.7)"></image></g></g></g></g><text xml:space="preserve" font-family="Roboto-Regular,Roboto" font-size="50.0" fill="#404040" transform="matrix(1.00, 0.00, -0.00, -1.00, 160.2, 750.6)">A</text><text xml:space="preserve" font-family="Roboto-Regular,Roboto" font-size="50.0" fill="#404040" transform="matrix(1.00, 0.00, -0.00, -1.00, 192.6, 750.6)"> </text><text xml:space="preserve" font-family="Roboto-Bold,Roboto" font-weight="bold" font-size="50.0" fill="#404040" transform="matrix(1.00, 0.00, -0.00, -1.00, 205.0, 750.6)">r</text><text xml:space="preserve" font-family="Roboto-Bold,Roboto" font-weight="bold" font-size="50.0" fill="#404040" transform="matrix(1.00, 0.00, -0.00, -1.00, 222.5, 750.6)">e</text><text xml:space="preserve" font-family="Roboto-Bold,Roboto" font-weight="bold" font-size="50.0" fill="#404040" transform="matrix(1.00, 0.00, -0.00, -1.00, 249.0, 750.6)">s</text><text xml:space="preserve" font-family="Roboto-Bold,Roboto" font-weight="bold" font-size="50.0" fill="#404040" transform="matrix(1.00, 0.00, -0.00, -1.00, 274.7, 750.6)">p</text><text xml:space="preserve" font-family="Roboto-Bold,Roboto" font-weight="bold" font-size="50.0" fill="#404040" transform="matrix(1.00, 0.00, -0.00, -1.00, 303.0, 750.6)">o</text><text xml:space="preserve" font-family="Roboto-Bold,Roboto" font-weight="bold" font-size="50.0" fill="#404040" transform="matrix(1.00, 0.00, -0.00, -1.00, 331.2, 750.6)">n</text><text xml:space="preserve" font-family="Roboto-Bold,Roboto" font-weight="bold" font-size="50.0" fill="#404040" transform="matrix(1.00, 0.00, -0.00, -1.00, 359.4, 750.6)">s</text><text xml:space="preserve" font-family="Roboto-Bold,Roboto" font-weight="bold" font-size="50.0" fill="#404040" transform="matrix(1.00, 0.00, -0.00, -1.00, 385.2, 750.6)">i</text><text xml:space="preserve" font-family="Roboto-Bold,Roboto" font-weight="bold" font-size="50.0" fill="#404040" transform="matrix(1.00, 0.00, -0.00, -1.00, 398.5, 750.6)">v</text><text xml:space="preserve" font-family="Roboto-Bold,Roboto" font-weight="bold" font-size="50.0" fill="#404040" transform="matrix(1.00, 0.00, -0.00, -1.00, 423.7, 750.6)">e</text><text xml:space="preserve" font-family="Roboto-Regular,Roboto" font-size="50.0" fill="#404040" transform="matrix(1.00, 0.00, -0.00, -1.00, 450.2, 750.6)"> </text><text xml:space="preserve" font-family="Roboto-Regular,Roboto" font-size="50.0" fill="#404040" transform="matrix(1.00, 0.00, -0.00, -1.00, 462.6, 750.6)">c</text><text xml:space="preserve" font-family="Roboto-Regular,Roboto" font-size="50.0" fill="#404040" transform="matrix(1.00, 0.00, -0.00, -1.00, 489.1, 750.6)">o</text><text xml:space="preserve" font-family="Roboto-Regular,Roboto" font-size="50.0" fill="#404040" transform="matrix(1.00, 0.00, -0.00, -1.00, 517.6, 750.6)">n</text><text xml:space="preserve" font-family="Roboto-Regular,Roboto" font-size="50.0" fill="#404040" transform="matrix(1.00, 0.00, -0.00, -1.00, 546.0, 750.6)">t</text><text xml:space="preserve" font-family="Roboto-Regular,Roboto" font-size="50.0" fill="#404040" transform="matrix(1.00, 0.00, -0.00, -1.00, 563.3, 750.6)">a</text><text xml:space="preserve" font-family="Roboto-Regular,Roboto" font-size="50.0" fill="#404040" transform="matrix(1.00, 0.00, -0.00, -1.00, 590.8, 750.6)">i</text><text xml:space="preserve" font-family="Roboto-Regular,Roboto" font-size="50.0" fill="#404040" transform="matrix(1.00, 0.00, -0.00, -1.00, 603.4, 750.6)">n</text><text xml:space="preserve" font-family="Roboto-Regular,Roboto" font-size="50.0" fill="#404040" transform="matrix(1.00, 0.00, -0.00, -1.00, 631.8, 750.6)">e</text><text xml:space="preserve" font-family="Roboto-Regular,Roboto" font-size="50.0" fill="#404040" transform="matrix(1.00, 0.00, -0.00, -1.00, 658.2, 750.6)">r</text><text xml:space="preserve" font-family="Roboto-Regular,Roboto" font-size="50.0" fill="#404040" transform="matrix(1.00, 0.00, -0.00, -1.00, 675.4, 750.6)"> </text><text xml:space="preserve" font-family="Roboto-Regular,Roboto" font-size="50.0" fill="#404040" transform="matrix(1.00, 0.00, -0.00, -1.00, 687.8, 750.6)">t</text><text xml:space="preserve" font-family="Roboto-Regular,Roboto" font-size="50.0" fill="#404040" transform="matrix(1.00, 0.00, -0.00, -1.00, 705.0, 750.6)">h</text><text xml:space="preserve" font-family="Roboto-Regular,Roboto" font-size="50.0" fill="#404040" transform="matrix(1.00, 0.00, -0.00, -1.00, 733.5, 750.6)">a</text><text xml:space="preserve" font-family="Roboto-Regular,Roboto" font-size="50.0" fill="#404040" transform="matrix(1.00, 0.00, -0.00, -1.00, 761.0, 750.6)">t</text><text xml:space="preserve" font-family="Roboto-Regular,Roboto" font-size="50.0" fill="#404040" transform="matrix(1.00, 0.00, -0.00, -1.00, 778.3, 750.6)"> </text><text xml:space="preserve" font-family="Roboto-Regular,Roboto" font-size="50.0" fill="#404040" transform="matrix(1.00, 0.00, -0.00, -1.00, 160.2, 680.2)">c</text><text xml:space="preserve" font-family="Roboto-Regular,Roboto" font-size="50.0" fill="#404040" transform="matrix(1.00, 0.00, -0.00, -1.00, 186.8, 680.2)">o</text><text xml:space="preserve" font-family="Roboto-Regular,Roboto" font-size="50.0" fill="#404040" transform="matrix(1.00, 0.00, -0.00, -1.00, 215.2, 680.2)">m</text><text xml:space="preserve" font-family="Roboto-Regular,Roboto" font-size="50.0" fill="#404040" transform="matrix(1.00, 0.00, -0.00, -1.00, 258.9, 680.2)">b</text><text xml:space="preserve" font-family="Roboto-Regular,Roboto" font-size="50.0" fill="#404040" transform="matrix(1.00, 0.00, -0.00, -1.00, 287.3, 680.2)">i</text><text xml:space="preserve" font-family="Roboto-Regular,Roboto" font-size="50.0" fill="#404040" transform="matrix(1.00, 0.00, -0.00, -1.00, 299.9, 680.2)">n</text><text xml:space="preserve" font-family="Roboto-Regular,Roboto" font-size="50.0" fill="#404040" transform="matrix(1.00, 0.00, -0.00, -1.00, 328.4, 680.2)">e</text><text xml:space="preserve" font-family="Roboto-Regular,Roboto" font-size="50.0" fill="#404040" transform="matrix(1.00, 0.00, -0.00, -1.00, 354.8, 680.2)">s</text><text xml:space="preserve" font-family="Roboto-Regular,Roboto" font-size="50.0" fill="#404040" transform="matrix(1.00, 0.00, -0.00, -1.00, 380.9, 680.2)"> </text><text xml:space="preserve" font-family="Roboto-Regular,Roboto" font-size="50.0" fill="#404040" transform="matrix(1.00, 0.00, -0.00, -1.00, 393.3, 680.2)">a</text><text xml:space="preserve" font-family="Roboto-Regular,Roboto" font-size="50.0" fill="#404040" transform="matrix(1.00, 0.00, -0.00, -1.00, 420.8, 680.2)"> </text><text xml:space="preserve" font-family="Roboto-Regular,Roboto" font-size="50.0" fill="#404040" transform="matrix(1.00, 0.00, -0.00, -1.00, 433.2, 680.2)">l</text><text xml:space="preserve" font-family="Roboto-Regular,Roboto" font-size="50.0" fill="#404040" transform="matrix(1.00, 0.00, -0.00, -1.00, 445.8, 680.2)">e</text><text xml:space="preserve" font-family="Roboto-Regular,Roboto" font-size="50.0" fill="#404040" transform="matrix(1.00, 0.00, -0.00, -1.00, 472.3, 680.2)">f</text><text xml:space="preserve" font-family="Roboto-Regular,Roboto" font-size="50.0" fill="#404040" transform="matrix(1.00, 0.00, -0.00, -1.00, 489.5, 680.2)">t</text><text xml:space="preserve" font-family="Roboto-Regular,Roboto" font-size="50.0" fill="#404040" transform="matrix(1.00, 0.00, -0.00, -1.00, 506.8, 680.2)">-</text><text xml:space="preserve" font-family="Roboto-Regular,Roboto" font-size="50.0" fill="#404040" transform="matrix(1.00, 0.00, -0.00, -1.00, 520.5, 680.2)"> </text><text xml:space="preserve" font-family="Roboto-Regular,Roboto" font-size="50.0" fill="#404040" transform="matrix(1.00, 0.00, -0.00, -1.00, 532.9, 680.2)">o</text><text xml:space="preserve" font-family="Roboto-Regular,Roboto" font-size="50.0" fill="#404040" transform="matrix(1.00, 0.00, -0.00, -1.00, 561.3, 680.2)">r</text><text xml:space="preserve" font-family="Roboto-Regular,Roboto" font-size="50.0" fill="#404040" transform="matrix(1.00, 0.00, -0.00, -1.00, 578.5, 680.2)"> </text><text xml:space="preserve" font-family="Roboto-Regular,Roboto" font-size="50.0" fill="#404040" transform="matrix(1.00, 0.00, -0.00, -1.00, 590.9, 680.2)">r</text><text xml:space="preserve" font-family="Roboto-Regular,Roboto" font-size="50.0" fill="#404040" transform="matrix(1.00, 0.00, -0.00, -1.00, 608.0, 680.2)">i</text><text xml:space="preserve" font-family="Roboto-Regular,Roboto" font-size="50.0" fill="#404040" transform="matrix(1.00, 0.00, -0.00, -1.00, 620.6, 680.2)">g</text><text xml:space="preserve" font-family="Roboto-Regular,Roboto" font-size="50.0" fill="#404040" transform="matrix(1.00, 0.00, -0.00, -1.00, 649.0, 680.2)">h</text><text xml:space="preserve" font-family="Roboto-Regular,Roboto" font-size="50.0" fill="#404040" transform="matrix(1.00, 0.00, -0.00, -1.00, 677.5, 680.2)">t</text><text xml:space="preserve" font-family="Roboto-Regular,Roboto" font-size="50.0" fill="#404040" transform="matrix(1.00, 0.00, -0.00, -1.00, 694.7, 680.2)">-</text><text xml:space="preserve" font-family="Roboto-Regular,Roboto" font-size="50.0" fill="#404040" transform="matrix(1.00, 0.00, -0.00, -1.00, 708.4, 680.2)">s</text><text xml:space="preserve" font-family="Roboto-Regular,Roboto" font-size="50.0" fill="#404040" transform="matrix(1.00, 0.00, -0.00, -1.00, 734.6, 680.2)">i</text><text xml:space="preserve" font-family="Roboto-Regular,Roboto" font-size="50.0" fill="#404040" transform="matrix(1.00, 0.00, -0.00, -1.00, 747.2, 680.2)">d</text><text xml:space="preserve" font-family="Roboto-Regular,Roboto" font-size="50.0" fill="#404040" transform="matrix(1.00, 0.00, -0.00, -1.00, 775.6, 680.2)">e</text><text xml:space="preserve" font-family="Roboto-Regular,Roboto" font-size="50.0" fill="#404040" transform="matrix(1.00, 0.00, -0.00, -1.00, 802.0, 680.2)"> </text><text xml:space="preserve" font-family="Roboto-Regular,Roboto" font-size="50.0" fill="#404040" transform="matrix(1.00, 0.00, -0.00, -1.00, 814.4, 680.2)">d</text><text xml:space="preserve" font-family="Roboto-Regular,Roboto" font-size="50.0" fill="#404040" transform="matrix(1.00, 0.00, -0.00, -1.00, 842.9, 680.2)">r</text><text xml:space="preserve" font-family="Roboto-Regular,Roboto" font-size="50.0" fill="#404040" transform="matrix(1.00, 0.00, -0.00, -1.00, 860.0, 680.2)">a</text><text xml:space="preserve" font-family="Roboto-Regular,Roboto" font-size="50.0" fill="#404040" transform="matrix(1.00, 0.00, -0.00, -1.00, 887.5, 680.2)">w</text><text xml:space="preserve" font-family="Roboto-Regular,Roboto" font-size="50.0" fill="#404040" transform="matrix(1.00, 0.00, -0.00, -1.00, 925.3, 680.2)">e</text><text xml:space="preserve" font-family="Roboto-Regular,Roboto" font-size="50.0" fill="#404040" transform="matrix(1.00, 0.00, -0.00, -1.00, 951.7, 680.2)">r</text><text xml:space="preserve" font-family="Roboto-Regular,Roboto" font-size="50.0" fill="#404040" transform="matrix(1.00, 0.00, -0.00, -1.00, 969.0, 680.2)"> </text><text xml:space="preserve" font-family="Roboto-Regular,Roboto" font-size="50.0" fill="#404040" transform="matrix(1.00, 0.00, -0.00, -1.00, 160.2, 609.8)">p</text><text xml:space="preserve" font-family="Roboto-Regular,Roboto" font-size="50.0" fill="#404040" transform="matrix(1.00, 0.00, -0.00, -1.00, 188.7, 609.8)">a</text><text xml:space="preserve" font-family="Roboto-Regular,Roboto" font-size="50.0" fill="#404040" transform="matrix(1.00, 0.00, -0.00, -1.00, 216.1, 609.8)">n</text><text xml:space="preserve" font-family="Roboto-Regular,Roboto" font-size="50.0" fill="#404040" transform="matrix(1.00, 0.00, -0.00, -1.00, 244.6, 609.8)">e</text><text xml:space="preserve" font-family="Roboto-Regular,Roboto" font-size="50.0" fill="#404040" transform="matrix(1.00, 0.00, -0.00, -1.00, 271.0, 609.8)">l</text><text xml:space="preserve" font-family="Roboto-Regular,Roboto" font-size="50.0" fill="#404040" transform="matrix(1.00, 0.00, -0.00, -1.00, 283.6, 609.8)"> </text><text xml:space="preserve" font-family="Roboto-Regular,Roboto" font-size="50.0" fill="#404040" transform="matrix(1.00, 0.00, -0.00, -1.00, 296.0, 609.8)">a</text><text xml:space="preserve" font-family="Roboto-Regular,Roboto" font-size="50.0" fill="#404040" transform="matrix(1.00, 0.00, -0.00, -1.00, 323.5, 609.8)">n</text><text xml:space="preserve" font-family="Roboto-Regular,Roboto" font-size="50.0" fill="#404040" transform="matrix(1.00, 0.00, -0.00, -1.00, 351.9, 609.8)">d</text><text xml:space="preserve" font-family="Roboto-Regular,Roboto" font-size="50.0" fill="#404040" transform="matrix(1.00, 0.00, -0.00, -1.00, 380.4, 609.8)"> </text><text xml:space="preserve" font-family="Roboto-Regular,Roboto" font-size="50.0" fill="#404040" transform="matrix(1.00, 0.00, -0.00, -1.00, 392.8, 609.8)">a</text><text xml:space="preserve" font-family="Roboto-Regular,Roboto" font-size="50.0" fill="#404040" transform="matrix(1.00, 0.00, -0.00, -1.00, 420.3, 609.8)"> </text><text xml:space="preserve" font-family="Roboto-Regular,Roboto" font-size="50.0" fill="#404040" transform="matrix(1.00, 0.00, -0.00, -1.00, 432.7, 609.8)">m</text><text xml:space="preserve" font-family="Roboto-Regular,Roboto" font-size="50.0" fill="#404040" transform="matrix(1.00, 0.00, -0.00, -1.00, 476.4, 609.8)">a</text><text xml:space="preserve" font-family="Roboto-Regular,Roboto" font-size="50.0" fill="#404040" transform="matrix(1.00, 0.00, -0.00, -1.00, 503.8, 609.8)">i</text><text xml:space="preserve" font-family="Roboto-Regular,Roboto" font-size="50.0" fill="#404040" transform="matrix(1.00, 0.00, -0.00, -1.00, 516.4, 609.8)">n</text><text xml:space="preserve" font-family="Roboto-Regular,Roboto" font-size="50.0" fill="#404040" transform="matrix(1.00, 0.00, -0.00, -1.00, 544.9, 609.8)"> </text><text xml:space="preserve" font-family="Roboto-Regular,Roboto" font-size="50.0" fill="#404040" transform="matrix(1.00, 0.00, -0.00, -1.00, 557.3, 609.8)">c</text><text xml:space="preserve" font-family="Roboto-Regular,Roboto" font-size="50.0" fill="#404040" transform="matrix(1.00, 0.00, -0.00, -1.00, 583.8, 609.8)">o</text><text xml:space="preserve" font-family="Roboto-Regular,Roboto" font-size="50.0" fill="#404040" transform="matrix(1.00, 0.00, -0.00, -1.00, 612.2, 609.8)">n</text><text xml:space="preserve" font-family="Roboto-Regular,Roboto" font-size="50.0" fill="#404040" transform="matrix(1.00, 0.00, -0.00, -1.00, 640.7, 609.8)">t</text><text xml:space="preserve" font-family="Roboto-Regular,Roboto" font-size="50.0" fill="#404040" transform="matrix(1.00, 0.00, -0.00, -1.00, 657.9, 609.8)">e</text><text xml:space="preserve" font-family="Roboto-Regular,Roboto" font-size="50.0" fill="#404040" transform="matrix(1.00, 0.00, -0.00, -1.00, 684.4, 609.8)">n</text><text xml:space="preserve" font-family="Roboto-Regular,Roboto" font-size="50.0" fill="#404040" transform="matrix(1.00, 0.00, -0.00, -1.00, 712.8, 609.8)">t</text><text xml:space="preserve" font-family="Roboto-Regular,Roboto" font-size="50.0" fill="#404040" transform="matrix(1.00, 0.00, -0.00, -1.00, 730.1, 609.8)"> </text><text xml:space="preserve" font-family="Roboto-Regular,Roboto" font-size="50.0" fill="#404040" transform="matrix(1.00, 0.00, -0.00, -1.00, 742.5, 609.8)">a</text><text xml:space="preserve" font-family="Roboto-Regular,Roboto" font-size="50.0" fill="#404040" transform="matrix(1.00, 0.00, -0.00, -1.00, 770.0, 609.8)">r</text><text xml:space="preserve" font-family="Roboto-Regular,Roboto" font-size="50.0" fill="#404040" transform="matrix(1.00, 0.00, -0.00, -1.00, 786.6, 609.8)">e</text><text xml:space="preserve" font-family="Roboto-Regular,Roboto" font-size="50.0" fill="#404040" transform="matrix(1.00, 0.00, -0.00, -1.00, 813.1, 609.8)">a</text><text xml:space="preserve" font-family="Roboto-Regular,Roboto" font-size="50.0" fill="#404040" transform="matrix(1.00, 0.00, -0.00, -1.00, 840.5, 609.8)">.</text><text xml:space="preserve" font-family="Roboto-Bold,Roboto" font-weight="bold" font-size="80.0" fill="#424242" transform="matrix(1.00, 0.00, -0.00, -1.00, 160.2, 831.7)">&lt;</text><text xml:space="preserve" font-family="Roboto-Bold,Roboto" font-weight="bold" font-size="80.0" fill="#424242" transform="matrix(1.00, 0.00, -0.00, -1.00, 201.0, 831.7)">c</text><text xml:space="preserve" font-family="Roboto-Bold,Roboto" font-weight="bold" font-size="80.0" fill="#424242" transform="matrix(1.00, 0.00, -0.00, -1.00, 242.3, 831.7)">o</text><text xml:space="preserve" font-family="Roboto-Bold,Roboto" font-weight="bold" font-size="80.0" fill="#424242" transform="matrix(1.00, 0.00, -0.00, -1.00, 287.5, 831.7)">r</text><text xml:space="preserve" font-family="Roboto-Bold,Roboto" font-weight="bold" font-size="80.0" fill="#424242" transform="matrix(1.00, 0.00, -0.00, -1.00, 315.6, 831.7)">e</text><text xml:space="preserve" font-family="Roboto-Bold,Roboto" font-weight="bold" font-size="80.0" fill="#424242" transform="matrix(1.00, 0.00, -0.00, -1.00, 357.9, 831.7)">-</text><text xml:space="preserve" font-family="Roboto-Bold,Roboto" font-weight="bold" font-size="80.0" fill="#424242" transform="matrix(1.00, 0.00, -0.00, -1.00, 389.2, 831.7)">d</text><text xml:space="preserve" font-family="Roboto-Bold,Roboto" font-weight="bold" font-size="80.0" fill="#424242" transform="matrix(1.00, 0.00, -0.00, -1.00, 434.4, 831.7)">r</text><text xml:space="preserve" font-family="Roboto-Bold,Roboto" font-weight="bold" font-size="80.0" fill="#424242" transform="matrix(1.00, 0.00, -0.00, -1.00, 462.4, 831.7)">a</text><text xml:space="preserve" font-family="Roboto-Bold,Roboto" font-weight="bold" font-size="80.0" fill="#424242" transform="matrix(1.00, 0.00, -0.00, -1.00, 505.4, 831.7)">w</text><text xml:space="preserve" font-family="Roboto-Bold,Roboto" font-weight="bold" font-size="80.0" fill="#424242" transform="matrix(1.00, 0.00, -0.00, -1.00, 564.3, 831.7)">e</text><text xml:space="preserve" font-family="Roboto-Bold,Roboto" font-weight="bold" font-size="80.0" fill="#424242" transform="matrix(1.00, 0.00, -0.00, -1.00, 606.6, 831.7)">r</text><text xml:space="preserve" font-family="Roboto-Bold,Roboto" font-weight="bold" font-size="80.0" fill="#424242" transform="matrix(1.00, 0.00, -0.00, -1.00, 634.7, 831.7)">-</text><text xml:space="preserve" font-family="Roboto-Bold,Roboto" font-weight="bold" font-size="80.0" fill="#424242" transform="matrix(1.00, 0.00, -0.00, -1.00, 666.0, 831.7)">p</text><text xml:space="preserve" font-family="Roboto-Bold,Roboto" font-weight="bold" font-size="80.0" fill="#424242" transform="matrix(1.00, 0.00, -0.00, -1.00, 711.1, 831.7)">a</text><text xml:space="preserve" font-family="Roboto-Bold,Roboto" font-weight="bold" font-size="80.0" fill="#424242" transform="matrix(1.00, 0.00, -0.00, -1.00, 754.1, 831.7)">n</text><text xml:space="preserve" font-family="Roboto-Bold,Roboto" font-weight="bold" font-size="80.0" fill="#424242" transform="matrix(1.00, 0.00, -0.00, -1.00, 799.3, 831.7)">e</text><text xml:space="preserve" font-family="Roboto-Bold,Roboto" font-weight="bold" font-size="80.0" fill="#424242" transform="matrix(1.00, 0.00, -0.00, -1.00, 841.7, 831.7)">l</text><text xml:space="preserve" font-family="Roboto-Bold,Roboto" font-weight="bold" font-size="80.0" fill="#424242" transform="matrix(1.00, 0.00, -0.00, -1.00, 863.1, 831.7)">&gt;</text><path d="M 160.2 163.6 L 160.0 525.3 C 160.0 528.9 163.1 532.0 166.7 532.0 L 938.5 532.0 C 942.1 532.0 945.0 528.9 945.0 525.3 L 945.0 163.6 C 945.0 160.0 942.1 157.0 938.5 157.0 L 166.7 157.0 C 163.1 157.0 160.2 160.0 160.2 163.6 Z M 160.2 163.6 " fill="#E7E7E7"></path><g><clipPath id="clip0x600003ca8ca0"><path d="M 160.2 157.1 L 945.0 157.1 L 945.0 531.8 L 160.2 531.8 Z M 160.2 157.1 "></path></clipPath><g clip-path="url(#clip0x600003ca8ca0)"><text xml:space="preserve" font-family=".LucidaGrandeUI,.Lucida Grande UI" font-size="40.0" fill="#4185F4" transform="matrix(1.00, 0.00, -0.00, -1.00, 180.2, 447.0)">&lt;</text><text xml:space="preserve" font-family=".LucidaGrandeUI,.Lucida Grande UI" font-size="40.0" fill="#4185F4" transform="matrix(1.00, 0.00, -0.00, -1.00, 212.0, 447.0)">c</text><text xml:space="preserve" font-family=".LucidaGrandeUI,.Lucida Grande UI" font-size="40.0" fill="#4185F4" transform="matrix(1.00, 0.00, -0.00, -1.00, 232.5, 447.0)">o</text><text xml:space="preserve" font-family=".LucidaGrandeUI,.Lucida Grande UI" font-size="40.0" fill="#4185F4" transform="matrix(1.00, 0.00, -0.00, -1.00, 257.1, 447.0)">r</text><text xml:space="preserve" font-family=".LucidaGrandeUI,.Lucida Grande UI" font-size="40.0" fill="#4185F4" transform="matrix(1.00, 0.00, -0.00, -1.00, 273.5, 447.0)">e</text><text xml:space="preserve" font-family=".LucidaGrandeUI,.Lucida Grande UI" font-size="40.0" fill="#4185F4" transform="matrix(1.00, 0.00, -0.00, -1.00, 295.8, 447.0)">-</text><text xml:space="preserve" font-family=".LucidaGrandeUI,.Lucida Grande UI" font-size="40.0" fill="#4185F4" transform="matrix(1.00, 0.00, -0.00, -1.00, 318.9, 447.0)">d</text><text xml:space="preserve" font-family=".LucidaGrandeUI,.Lucida Grande UI" font-size="40.0" fill="#4185F4" transform="matrix(1.00, 0.00, -0.00, -1.00, 344.1, 447.0)">r</text><text xml:space="preserve" font-family=".LucidaGrandeUI,.Lucida Grande UI" font-size="40.0" fill="#4185F4" transform="matrix(1.00, 0.00, -0.00, -1.00, 360.5, 447.0)">a</text><text xml:space="preserve" font-family=".LucidaGrandeUI,.Lucida Grande UI" font-size="40.0" fill="#4185F4" transform="matrix(1.00, 0.00, -0.00, -1.00, 382.6, 447.0)">w</text><text xml:space="preserve" font-family=".LucidaGrandeUI,.Lucida Grande UI" font-size="40.0" fill="#4185F4" transform="matrix(1.00, 0.00, -0.00, -1.00, 413.4, 447.0)">e</text><text xml:space="preserve" font-family=".LucidaGrandeUI,.Lucida Grande UI" font-size="40.0" fill="#4185F4" transform="matrix(1.00, 0.00, -0.00, -1.00, 435.6, 447.0)">r</text><text xml:space="preserve" font-family=".LucidaGrandeUI,.Lucida Grande UI" font-size="40.0" fill="#4185F4" transform="matrix(1.00, 0.00, -0.00, -1.00, 452.0, 447.0)">-</text><text xml:space="preserve" font-family=".LucidaGrandeUI,.Lucida Grande UI" font-size="40.0" fill="#4185F4" transform="matrix(1.00, 0.00, -0.00, -1.00, 475.1, 447.0)">p</text><text xml:space="preserve" font-family=".LucidaGrandeUI,.Lucida Grande UI" font-size="40.0" fill="#4185F4" transform="matrix(1.00, 0.00, -0.00, -1.00, 500.3, 447.0)">a</text><text xml:space="preserve" font-family=".LucidaGrandeUI,.Lucida Grande UI" font-size="40.0" fill="#4185F4" transform="matrix(1.00, 0.00, -0.00, -1.00, 522.4, 447.0)">n</text><text xml:space="preserve" font-family=".LucidaGrandeUI,.Lucida Grande UI" font-size="40.0" fill="#4185F4" transform="matrix(1.00, 0.00, -0.00, -1.00, 547.2, 447.0)">e</text><text xml:space="preserve" font-family=".LucidaGrandeUI,.Lucida Grande UI" font-size="40.0" fill="#4185F4" transform="matrix(1.00, 0.00, -0.00, -1.00, 569.5, 447.0)">l</text><text xml:space="preserve" font-family=".LucidaGrandeUI,.Lucida Grande UI" font-size="40.0" fill="#4185F4" transform="matrix(1.00, 0.00, -0.00, -1.00, 581.1, 447.0)">&gt;</text><text xml:space="preserve" font-family=".LucidaGrandeUI,.Lucida Grande UI" font-size="40.0" fill="#000000" transform="matrix(1.00, 0.00, -0.00, -1.00, 612.8, 447.0)"></text><text xml:space="preserve" font-family=".LucidaGrandeUI,.Lucida Grande UI" font-size="40.0" fill="#4185F4" transform="matrix(1.00, 0.00, -0.00, -1.00, 180.2, 390.6)"> </text><text xml:space="preserve" font-family=".LucidaGrandeUI,.Lucida Grande UI" font-size="40.0" fill="#4185F4" transform="matrix(1.00, 0.00, -0.00, -1.00, 192.9, 390.6)"> </text><text xml:space="preserve" font-family=".LucidaGrandeUI,.Lucida Grande UI" font-size="40.0" fill="#4185F4" transform="matrix(1.00, 0.00, -0.00, -1.00, 205.6, 390.6)">&lt;</text><text xml:space="preserve" font-family=".LucidaGrandeUI,.Lucida Grande UI" font-size="40.0" fill="#4185F4" transform="matrix(1.00, 0.00, -0.00, -1.00, 237.3, 390.6)">d</text><text xml:space="preserve" font-family=".LucidaGrandeUI,.Lucida Grande UI" font-size="40.0" fill="#4185F4" transform="matrix(1.00, 0.00, -0.00, -1.00, 262.5, 390.6)">i</text><text xml:space="preserve" font-family=".LucidaGrandeUI,.Lucida Grande UI" font-size="40.0" fill="#4185F4" transform="matrix(1.00, 0.00, -0.00, -1.00, 274.1, 390.6)">v</text><text xml:space="preserve" font-family=".LucidaGrandeUI,.Lucida Grande UI" font-size="40.0" fill="#4185F4" transform="matrix(1.00, 0.00, -0.00, -1.00, 294.7, 390.6)"> </text><text xml:space="preserve" font-family=".LucidaGrandeUI,.Lucida Grande UI" font-size="40.0" fill="#E82663" transform="matrix(1.00, 0.00, -0.00, -1.00, 307.3, 390.6)">d</text><text xml:space="preserve" font-family=".LucidaGrandeUI,.Lucida Grande UI" font-size="40.0" fill="#E82663" transform="matrix(1.00, 0.00, -0.00, -1.00, 332.5, 390.6)">r</text><text xml:space="preserve" font-family=".LucidaGrandeUI,.Lucida Grande UI" font-size="40.0" fill="#E82663" transform="matrix(1.00, 0.00, -0.00, -1.00, 348.9, 390.6)">a</text><text xml:space="preserve" font-family=".LucidaGrandeUI,.Lucida Grande UI" font-size="40.0" fill="#E82663" transform="matrix(1.00, 0.00, -0.00, -1.00, 371.0, 390.6)">w</text><text xml:space="preserve" font-family=".LucidaGrandeUI,.Lucida Grande UI" font-size="40.0" fill="#E82663" transform="matrix(1.00, 0.00, -0.00, -1.00, 401.8, 390.6)">e</text><text xml:space="preserve" font-family=".LucidaGrandeUI,.Lucida Grande UI" font-size="40.0" fill="#E82663" transform="matrix(1.00, 0.00, -0.00, -1.00, 424.1, 390.6)">r</text><text xml:space="preserve" font-family=".LucidaGrandeUI,.Lucida Grande UI" font-size="40.0" fill="#4185F4" transform="matrix(1.00, 0.00, -0.00, -1.00, 440.4, 390.6)">&gt;</text><text xml:space="preserve" font-family=".LucidaGrandeUI,.Lucida Grande UI" font-size="40.0" fill="#4185F4" transform="matrix(1.00, 0.00, -0.00, -1.00, 472.2, 390.6)"> </text><text xml:space="preserve" font-family=".LucidaGrandeUI,.Lucida Grande UI" font-size="40.0" fill="#4185F4" transform="matrix(1.00, 0.00, -0.00, -1.00, 484.9, 390.6)">D</text><text xml:space="preserve" font-family=".LucidaGrandeUI,.Lucida Grande UI" font-size="40.0" fill="#4185F4" transform="matrix(1.00, 0.00, -0.00, -1.00, 514.8, 390.6)">r</text><text xml:space="preserve" font-family=".LucidaGrandeUI,.Lucida Grande UI" font-size="40.0" fill="#4185F4" transform="matrix(1.00, 0.00, -0.00, -1.00, 531.2, 390.6)">a</text><text xml:space="preserve" font-family=".LucidaGrandeUI,.Lucida Grande UI" font-size="40.0" fill="#4185F4" transform="matrix(1.00, 0.00, -0.00, -1.00, 553.3, 390.6)">w</text><text xml:space="preserve" font-family=".LucidaGrandeUI,.Lucida Grande UI" font-size="40.0" fill="#4185F4" transform="matrix(1.00, 0.00, -0.00, -1.00, 584.1, 390.6)">e</text><text xml:space="preserve" font-family=".LucidaGrandeUI,.Lucida Grande UI" font-size="40.0" fill="#4185F4" transform="matrix(1.00, 0.00, -0.00, -1.00, 606.4, 390.6)">r</text><text xml:space="preserve" font-family=".LucidaGrandeUI,.Lucida Grande UI" font-size="40.0" fill="#4185F4" transform="matrix(1.00, 0.00, -0.00, -1.00, 622.8, 390.6)"> </text><text xml:space="preserve" font-family=".LucidaGrandeUI,.Lucida Grande UI" font-size="40.0" fill="#4185F4" transform="matrix(1.00, 0.00, -0.00, -1.00, 635.4, 390.6)">p</text><text xml:space="preserve" font-family=".LucidaGrandeUI,.Lucida Grande UI" font-size="40.0" fill="#4185F4" transform="matrix(1.00, 0.00, -0.00, -1.00, 660.6, 390.6)">a</text><text xml:space="preserve" font-family=".LucidaGrandeUI,.Lucida Grande UI" font-size="40.0" fill="#4185F4" transform="matrix(1.00, 0.00, -0.00, -1.00, 682.7, 390.6)">n</text><text xml:space="preserve" font-family=".LucidaGrandeUI,.Lucida Grande UI" font-size="40.0" fill="#4185F4" transform="matrix(1.00, 0.00, -0.00, -1.00, 707.5, 390.6)">e</text><text xml:space="preserve" font-family=".LucidaGrandeUI,.Lucida Grande UI" font-size="40.0" fill="#4185F4" transform="matrix(1.00, 0.00, -0.00, -1.00, 729.8, 390.6)">l</text><text xml:space="preserve" font-family=".LucidaGrandeUI,.Lucida Grande UI" font-size="40.0" fill="#4185F4" transform="matrix(1.00, 0.00, -0.00, -1.00, 741.4, 390.6)">.</text><text xml:space="preserve" font-family=".LucidaGrandeUI,.Lucida Grande UI" font-size="40.0" fill="#4185F4" transform="matrix(1.00, 0.00, -0.00, -1.00, 754.1, 390.6)">.</text><text xml:space="preserve" font-family=".LucidaGrandeUI,.Lucida Grande UI" font-size="40.0" fill="#4185F4" transform="matrix(1.00, 0.00, -0.00, -1.00, 766.7, 390.6)">.</text><text xml:space="preserve" font-family=".LucidaGrandeUI,.Lucida Grande UI" font-size="40.0" fill="#4185F4" transform="matrix(1.00, 0.00, -0.00, -1.00, 779.4, 390.6)"> </text><text xml:space="preserve" font-family=".LucidaGrandeUI,.Lucida Grande UI" font-size="40.0" fill="#4185F4" transform="matrix(1.00, 0.00, -0.00, -1.00, 792.1, 390.6)">&lt;</text><text xml:space="preserve" font-family=".LucidaGrandeUI,.Lucida Grande UI" font-size="40.0" fill="#4185F4" transform="matrix(1.00, 0.00, -0.00, -1.00, 823.9, 390.6)">/</text><text xml:space="preserve" font-family=".LucidaGrandeUI,.Lucida Grande UI" font-size="40.0" fill="#4185F4" transform="matrix(1.00, 0.00, -0.00, -1.00, 180.2, 334.2)">d</text><text xml:space="preserve" font-family=".LucidaGrandeUI,.Lucida Grande UI" font-size="40.0" fill="#4185F4" transform="matrix(1.00, 0.00, -0.00, -1.00, 205.4, 334.2)">i</text><text xml:space="preserve" font-family=".LucidaGrandeUI,.Lucida Grande UI" font-size="40.0" fill="#4185F4" transform="matrix(1.00, 0.00, -0.00, -1.00, 217.0, 334.2)">v</text><text xml:space="preserve" font-family=".LucidaGrandeUI,.Lucida Grande UI" font-size="40.0" fill="#4185F4" transform="matrix(1.00, 0.00, -0.00, -1.00, 237.6, 334.2)">&gt;</text><text xml:space="preserve" font-family=".LucidaGrandeUI,.Lucida Grande UI" font-size="40.0" fill="#4185F4" transform="matrix(1.00, 0.00, -0.00, -1.00, 269.3, 334.2)"></text><text xml:space="preserve" font-family=".LucidaGrandeUI,.Lucida Grande UI" font-size="40.0" fill="#4185F4" transform="matrix(1.00, 0.00, -0.00, -1.00, 180.2, 277.8)"> </text><text xml:space="preserve" font-family=".LucidaGrandeUI,.Lucida Grande UI" font-size="40.0" fill="#4185F4" transform="matrix(1.00, 0.00, -0.00, -1.00, 192.9, 277.8)"> </text><text xml:space="preserve" font-family=".LucidaGrandeUI,.Lucida Grande UI" font-size="40.0" fill="#4185F4" transform="matrix(1.00, 0.00, -0.00, -1.00, 205.6, 277.8)">&lt;</text><text xml:space="preserve" font-family=".LucidaGrandeUI,.Lucida Grande UI" font-size="40.0" fill="#4185F4" transform="matrix(1.00, 0.00, -0.00, -1.00, 237.3, 277.8)">d</text><text xml:space="preserve" font-family=".LucidaGrandeUI,.Lucida Grande UI" font-size="40.0" fill="#4185F4" transform="matrix(1.00, 0.00, -0.00, -1.00, 262.5, 277.8)">i</text><text xml:space="preserve" font-family=".LucidaGrandeUI,.Lucida Grande UI" font-size="40.0" fill="#4185F4" transform="matrix(1.00, 0.00, -0.00, -1.00, 274.1, 277.8)">v</text><text xml:space="preserve" font-family=".LucidaGrandeUI,.Lucida Grande UI" font-size="40.0" fill="#4185F4" transform="matrix(1.00, 0.00, -0.00, -1.00, 294.7, 277.8)"> </text><text xml:space="preserve" font-family=".LucidaGrandeUI,.Lucida Grande UI" font-size="40.0" fill="#E82663" transform="matrix(1.00, 0.00, -0.00, -1.00, 307.3, 277.8)">m</text><text xml:space="preserve" font-family=".LucidaGrandeUI,.Lucida Grande UI" font-size="40.0" fill="#E82663" transform="matrix(1.00, 0.00, -0.00, -1.00, 344.6, 277.8)">a</text><text xml:space="preserve" font-family=".LucidaGrandeUI,.Lucida Grande UI" font-size="40.0" fill="#E82663" transform="matrix(1.00, 0.00, -0.00, -1.00, 366.8, 277.8)">i</text><text xml:space="preserve" font-family=".LucidaGrandeUI,.Lucida Grande UI" font-size="40.0" fill="#E82663" transform="matrix(1.00, 0.00, -0.00, -1.00, 378.3, 277.8)">n</text><text xml:space="preserve" font-family=".LucidaGrandeUI,.Lucida Grande UI" font-size="40.0" fill="#4185F4" transform="matrix(1.00, 0.00, -0.00, -1.00, 403.1, 277.8)">&gt;</text><text xml:space="preserve" font-family=".LucidaGrandeUI,.Lucida Grande UI" font-size="40.0" fill="#4185F4" transform="matrix(1.00, 0.00, -0.00, -1.00, 434.9, 277.8)"> </text><text xml:space="preserve" font-family=".LucidaGrandeUI,.Lucida Grande UI" font-size="40.0" fill="#4185F4" transform="matrix(1.00, 0.00, -0.00, -1.00, 447.6, 277.8)">M</text><text xml:space="preserve" font-family=".LucidaGrandeUI,.Lucida Grande UI" font-size="40.0" fill="#4185F4" transform="matrix(1.00, 0.00, -0.00, -1.00, 482.1, 277.8)">a</text><text xml:space="preserve" font-family=".LucidaGrandeUI,.Lucida Grande UI" font-size="40.0" fill="#4185F4" transform="matrix(1.00, 0.00, -0.00, -1.00, 504.2, 277.8)">i</text><text xml:space="preserve" font-family=".LucidaGrandeUI,.Lucida Grande UI" font-size="40.0" fill="#4185F4" transform="matrix(1.00, 0.00, -0.00, -1.00, 515.7, 277.8)">n</text><text xml:space="preserve" font-family=".LucidaGrandeUI,.Lucida Grande UI" font-size="40.0" fill="#4185F4" transform="matrix(1.00, 0.00, -0.00, -1.00, 540.5, 277.8)"> </text><text xml:space="preserve" font-family=".LucidaGrandeUI,.Lucida Grande UI" font-size="40.0" fill="#4185F4" transform="matrix(1.00, 0.00, -0.00, -1.00, 553.2, 277.8)">p</text><text xml:space="preserve" font-family=".LucidaGrandeUI,.Lucida Grande UI" font-size="40.0" fill="#4185F4" transform="matrix(1.00, 0.00, -0.00, -1.00, 578.4, 277.8)">a</text><text xml:space="preserve" font-family=".LucidaGrandeUI,.Lucida Grande UI" font-size="40.0" fill="#4185F4" transform="matrix(1.00, 0.00, -0.00, -1.00, 600.5, 277.8)">n</text><text xml:space="preserve" font-family=".LucidaGrandeUI,.Lucida Grande UI" font-size="40.0" fill="#4185F4" transform="matrix(1.00, 0.00, -0.00, -1.00, 625.3, 277.8)">e</text><text xml:space="preserve" font-family=".LucidaGrandeUI,.Lucida Grande UI" font-size="40.0" fill="#4185F4" transform="matrix(1.00, 0.00, -0.00, -1.00, 647.6, 277.8)">l</text><text xml:space="preserve" font-family=".LucidaGrandeUI,.Lucida Grande UI" font-size="40.0" fill="#4185F4" transform="matrix(1.00, 0.00, -0.00, -1.00, 659.2, 277.8)">.</text><text xml:space="preserve" font-family=".LucidaGrandeUI,.Lucida Grande UI" font-size="40.0" fill="#4185F4" transform="matrix(1.00, 0.00, -0.00, -1.00, 671.9, 277.8)">.</text><text xml:space="preserve" font-family=".LucidaGrandeUI,.Lucida Grande UI" font-size="40.0" fill="#4185F4" transform="matrix(1.00, 0.00, -0.00, -1.00, 684.6, 277.8)">.</text><text xml:space="preserve" font-family=".LucidaGrandeUI,.Lucida Grande UI" font-size="40.0" fill="#4185F4" transform="matrix(1.00, 0.00, -0.00, -1.00, 697.3, 277.8)"> </text><text xml:space="preserve" font-family=".LucidaGrandeUI,.Lucida Grande UI" font-size="40.0" fill="#4185F4" transform="matrix(1.00, 0.00, -0.00, -1.00, 710.0, 277.8)">&lt;</text><text xml:space="preserve" font-family=".LucidaGrandeUI,.Lucida Grande UI" font-size="40.0" fill="#4185F4" transform="matrix(1.00, 0.00, -0.00, -1.00, 741.7, 277.8)">/</text><text xml:space="preserve" font-family=".LucidaGrandeUI,.Lucida Grande UI" font-size="40.0" fill="#4185F4" transform="matrix(1.00, 0.00, -0.00, -1.00, 762.8, 277.8)">d</text><text xml:space="preserve" font-family=".LucidaGrandeUI,.Lucida Grande UI" font-size="40.0" fill="#4185F4" transform="matrix(1.00, 0.00, -0.00, -1.00, 788.0, 277.8)">i</text><text xml:space="preserve" font-family=".LucidaGrandeUI,.Lucida Grande UI" font-size="40.0" fill="#4185F4" transform="matrix(1.00, 0.00, -0.00, -1.00, 799.5, 277.8)">v</text><text xml:space="preserve" font-family=".LucidaGrandeUI,.Lucida Grande UI" font-size="40.0" fill="#4185F4" transform="matrix(1.00, 0.00, -0.00, -1.00, 820.1, 277.8)">&gt;</text><text xml:space="preserve" font-family=".LucidaGrandeUI,.Lucida Grande UI" font-size="40.0" fill="#4185F4" transform="matrix(1.00, 0.00, -0.00, -1.00, 851.6, 277.8)"></text><text xml:space="preserve" font-family=".LucidaGrandeUI,.Lucida Grande UI" font-size="40.0" fill="#4185F4" transform="matrix(1.00, 0.00, -0.00, -1.00, 180.2, 221.4)">&lt;</text><text xml:space="preserve" font-family=".LucidaGrandeUI,.Lucida Grande UI" font-size="40.0" fill="#4185F4" transform="matrix(1.00, 0.00, -0.00, -1.00, 212.0, 221.4)">/</text><text xml:space="preserve" font-family=".LucidaGrandeUI,.Lucida Grande UI" font-size="40.0" fill="#4185F4" transform="matrix(1.00, 0.00, -0.00, -1.00, 233.0, 221.4)">c</text><text xml:space="preserve" font-family=".LucidaGrandeUI,.Lucida Grande UI" font-size="40.0" fill="#4185F4" transform="matrix(1.00, 0.00, -0.00, -1.00, 253.5, 221.4)">o</text><text xml:space="preserve" font-family=".LucidaGrandeUI,.Lucida Grande UI" font-size="40.0" fill="#4185F4" transform="matrix(1.00, 0.00, -0.00, -1.00, 278.1, 221.4)">r</text><text xml:space="preserve" font-family=".LucidaGrandeUI,.Lucida Grande UI" font-size="40.0" fill="#4185F4" transform="matrix(1.00, 0.00, -0.00, -1.00, 294.5, 221.4)">e</text><text xml:space="preserve" font-family=".LucidaGrandeUI,.Lucida Grande UI" font-size="40.0" fill="#4185F4" transform="matrix(1.00, 0.00, -0.00, -1.00, 316.8, 221.4)">-</text><text xml:space="preserve" font-family=".LucidaGrandeUI,.Lucida Grande UI" font-size="40.0" fill="#4185F4" transform="matrix(1.00, 0.00, -0.00, -1.00, 339.9, 221.4)">d</text><text xml:space="preserve" font-family=".LucidaGrandeUI,.Lucida Grande UI" font-size="40.0" fill="#4185F4" transform="matrix(1.00, 0.00, -0.00, -1.00, 365.1, 221.4)">r</text><text xml:space="preserve" font-family=".LucidaGrandeUI,.Lucida Grande UI" font-size="40.0" fill="#4185F4" transform="matrix(1.00, 0.00, -0.00, -1.00, 381.5, 221.4)">a</text><text xml:space="preserve" font-family=".LucidaGrandeUI,.Lucida Grande UI" font-size="40.0" fill="#4185F4" transform="matrix(1.00, 0.00, -0.00, -1.00, 403.5, 221.4)">w</text><text xml:space="preserve" font-family=".LucidaGrandeUI,.Lucida Grande UI" font-size="40.0" fill="#4185F4" transform="matrix(1.00, 0.00, -0.00, -1.00, 434.3, 221.4)">e</text><text xml:space="preserve" font-family=".LucidaGrandeUI,.Lucida Grande UI" font-size="40.0" fill="#4185F4" transform="matrix(1.00, 0.00, -0.00, -1.00, 456.6, 221.4)">r</text><text xml:space="preserve" font-family=".LucidaGrandeUI,.Lucida Grande UI" font-size="40.0" fill="#4185F4" transform="matrix(1.00, 0.00, -0.00, -1.00, 473.0, 221.4)">-</text><text xml:space="preserve" font-family=".LucidaGrandeUI,.Lucida Grande UI" font-size="40.0" fill="#4185F4" transform="matrix(1.00, 0.00, -0.00, -1.00, 496.1, 221.4)">p</text><text xml:space="preserve" font-family=".LucidaGrandeUI,.Lucida Grande UI" font-size="40.0" fill="#4185F4" transform="matrix(1.00, 0.00, -0.00, -1.00, 521.3, 221.4)">a</text><text xml:space="preserve" font-family=".LucidaGrandeUI,.Lucida Grande UI" font-size="40.0" fill="#4185F4" transform="matrix(1.00, 0.00, -0.00, -1.00, 543.4, 221.4)">n</text><text xml:space="preserve" font-family=".LucidaGrandeUI,.Lucida Grande UI" font-size="40.0" fill="#4185F4" transform="matrix(1.00, 0.00, -0.00, -1.00, 568.2, 221.4)">e</text><text xml:space="preserve" font-family=".LucidaGrandeUI,.Lucida Grande UI" font-size="40.0" fill="#4185F4" transform="matrix(1.00, 0.00, -0.00, -1.00, 590.5, 221.4)">l</text><text xml:space="preserve" font-family=".LucidaGrandeUI,.Lucida Grande UI" font-size="40.0" fill="#4185F4" transform="matrix(1.00, 0.00, -0.00, -1.00, 602.1, 221.4)">&gt;</text></g></g></g></svg>