<?xml version="1.0" encoding="UTF-8" standalone="no"?><svg xmlns="http://www.w3.org/2000/svg" xmlns:xlink="http://www.w3.org/1999/xlink" clip-rule="evenodd" stroke-miterlimit="10" viewBox="0 0 921 56"><desc>SVG generated by Keynote</desc><defs></defs><g transform="matrix(1.00, 0.00, -0.00, -1.00, 0.0, 56.0)"><text xml:space="preserve" font-family="Roboto-Regular,Roboto" font-size="53.0" fill="#FFFFFF" transform="matrix(1.00, 0.00, -0.00, -1.00, -2.8, 13.1)">L</text><text xml:space="preserve" font-family="Roboto-Regular,Roboto" font-size="53.0" fill="#FFFFFF" transform="matrix(1.00, 0.00, -0.00, -1.00, 25.8, 13.1)">e</text><text xml:space="preserve" font-family="Roboto-Regular,Roboto" font-size="53.0" fill="#FFFFFF" transform="matrix(1.00, 0.00, -0.00, -1.00, 53.9, 13.1)">s</text><text xml:space="preserve" font-family="Roboto-Regular,Roboto" font-size="53.0" fill="#FFFFFF" transform="matrix(1.00, 0.00, -0.00, -1.00, 81.6, 13.1)">s</text><text xml:space="preserve" font-family="Roboto-Regular,Roboto" font-size="53.0" fill="#FFFFFF" transform="matrix(1.00, 0.00, -0.00, -1.00, 109.3, 13.1)"> </text><text xml:space="preserve" font-family="Roboto-Regular,Roboto" font-size="53.0" fill="#FFFFFF" transform="matrix(1.00, 0.00, -0.00, -1.00, 122.4, 13.1)">m</text><text xml:space="preserve" font-family="Roboto-Regular,Roboto" font-size="53.0" fill="#FFFFFF" transform="matrix(1.00, 0.00, -0.00, -1.00, 168.8, 13.1)">a</text><text xml:space="preserve" font-family="Roboto-Regular,Roboto" font-size="53.0" fill="#FFFFFF" transform="matrix(1.00, 0.00, -0.00, -1.00, 197.9, 13.1)">r</text><text xml:space="preserve" font-family="Roboto-Regular,Roboto" font-size="53.0" fill="#FFFFFF" transform="matrix(1.00, 0.00, -0.00, -1.00, 216.0, 13.1)">k</text><text xml:space="preserve" font-family="Roboto-Regular,Roboto" font-size="53.0" fill="#FFFFFF" transform="matrix(1.00, 0.00, -0.00, -1.00, 243.2, 13.1)">u</text><text xml:space="preserve" font-family="Roboto-Regular,Roboto" font-size="53.0" fill="#FFFFFF" transform="matrix(1.00, 0.00, -0.00, -1.00, 273.3, 13.1)">p</text><text xml:space="preserve" font-family="Roboto-Regular,Roboto" font-size="53.0" fill="#FFFFFF" transform="matrix(1.00, 0.00, -0.00, -1.00, 303.5, 13.1)">.</text><text xml:space="preserve" font-family="Roboto-Regular,Roboto" font-size="53.0" fill="#FFFFFF" transform="matrix(1.00, 0.00, -0.00, -1.00, 317.6, 13.1)"> </text><text xml:space="preserve" font-family="Roboto-Regular,Roboto" font-size="53.0" fill="#FFFFFF" transform="matrix(1.00, 0.00, -0.00, -1.00, 330.8, 13.1)">L</text><text xml:space="preserve" font-family="Roboto-Regular,Roboto" font-size="53.0" fill="#FFFFFF" transform="matrix(1.00, 0.00, -0.00, -1.00, 359.4, 13.1)">e</text><text xml:space="preserve" font-family="Roboto-Regular,Roboto" font-size="53.0" fill="#FFFFFF" transform="matrix(1.00, 0.00, -0.00, -1.00, 387.4, 13.1)">s</text><text xml:space="preserve" font-family="Roboto-Regular,Roboto" font-size="53.0" fill="#FFFFFF" transform="matrix(1.00, 0.00, -0.00, -1.00, 415.1, 13.1)">s</text><text xml:space="preserve" font-family="Roboto-Regular,Roboto" font-size="53.0" fill="#FFFFFF" transform="matrix(1.00, 0.00, -0.00, -1.00, 442.9, 13.1)"> </text><text xml:space="preserve" font-family="Roboto-Regular,Roboto" font-size="53.0" fill="#FFFFFF" transform="matrix(1.00, 0.00, -0.00, -1.00, 456.0, 13.1)">J</text><text xml:space="preserve" font-family="Roboto-Regular,Roboto" font-size="53.0" fill="#FFFFFF" transform="matrix(1.00, 0.00, -0.00, -1.00, 485.2, 13.1)">S</text><text xml:space="preserve" font-family="Roboto-Regular,Roboto" font-size="53.0" fill="#FFFFFF" transform="matrix(1.00, 0.00, -0.00, -1.00, 518.3, 13.1)">.</text><text xml:space="preserve" font-family="Roboto-Regular,Roboto" font-size="53.0" fill="#FFFFFF" transform="matrix(1.00, 0.00, -0.00, -1.00, 532.4, 13.1)"> </text><text xml:space="preserve" font-family="Roboto-Bold,Roboto" font-weight="bold" font-size="53.0" fill="#FFFFFF" transform="matrix(1.00, 0.00, -0.00, -1.00, 545.8, 13.1)">L</text><text xml:space="preserve" font-family="Roboto-Bold,Roboto" font-weight="bold" font-size="53.0" fill="#FFFFFF" transform="matrix(1.00, 0.00, -0.00, -1.00, 574.5, 13.1)">e</text><text xml:space="preserve" font-family="Roboto-Bold,Roboto" font-weight="bold" font-size="53.0" fill="#FFFFFF" transform="matrix(1.00, 0.00, -0.00, -1.00, 602.5, 13.1)">s</text><text xml:space="preserve" font-family="Roboto-Bold,Roboto" font-weight="bold" font-size="53.0" fill="#FFFFFF" transform="matrix(1.00, 0.00, -0.00, -1.00, 629.8, 13.1)">s</text><text xml:space="preserve" font-family="Roboto-Bold,Roboto" font-weight="bold" font-size="53.0" fill="#FFFFFF" transform="matrix(1.00, 0.00, -0.00, -1.00, 657.1, 13.1)"> </text><text xml:space="preserve" font-family="Roboto-Bold,Roboto" font-weight="bold" font-size="53.0" fill="#FFFFFF" transform="matrix(1.00, 0.00, -0.00, -1.00, 670.3, 13.1)">c</text><text xml:space="preserve" font-family="Roboto-Bold,Roboto" font-weight="bold" font-size="53.0" fill="#FFFFFF" transform="matrix(1.00, 0.00, -0.00, -1.00, 697.7, 13.1)">o</text><text xml:space="preserve" font-family="Roboto-Bold,Roboto" font-weight="bold" font-size="53.0" fill="#FFFFFF" transform="matrix(1.00, 0.00, -0.00, -1.00, 727.7, 13.1)">n</text><text xml:space="preserve" font-family="Roboto-Bold,Roboto" font-weight="bold" font-size="53.0" fill="#FFFFFF" transform="matrix(1.00, 0.00, -0.00, -1.00, 757.6, 13.1)">f</text><text xml:space="preserve" font-family="Roboto-Bold,Roboto" font-weight="bold" font-size="53.0" fill="#FFFFFF" transform="matrix(1.00, 0.00, -0.00, -1.00, 776.6, 13.1)">u</text><text xml:space="preserve" font-family="Roboto-Bold,Roboto" font-weight="bold" font-size="53.0" fill="#FFFFFF" transform="matrix(1.00, 0.00, -0.00, -1.00, 806.5, 13.1)">s</text><text xml:space="preserve" font-family="Roboto-Bold,Roboto" font-weight="bold" font-size="53.0" fill="#FFFFFF" transform="matrix(1.00, 0.00, -0.00, -1.00, 833.8, 13.1)">i</text><text xml:space="preserve" font-family="Roboto-Bold,Roboto" font-weight="bold" font-size="53.0" fill="#FFFFFF" transform="matrix(1.00, 0.00, -0.00, -1.00, 848.0, 13.1)">o</text><text xml:space="preserve" font-family="Roboto-Bold,Roboto" font-weight="bold" font-size="53.0" fill="#FFFFFF" transform="matrix(1.00, 0.00, -0.00, -1.00, 877.9, 13.1)">n</text><text xml:space="preserve" font-family="Roboto-Bold,Roboto" font-weight="bold" font-size="53.0" fill="#FFFFFF" transform="matrix(1.00, 0.00, -0.00, -1.00, 907.9, 13.1)">.</text></g></svg>