<?xml version="1.0" encoding="UTF-8" standalone="no"?><svg xmlns="http://www.w3.org/2000/svg" xmlns:xlink="http://www.w3.org/1999/xlink" clip-rule="evenodd" stroke-miterlimit="10" viewBox="0 0 1920 1080"><desc>SVG generated by Keynote</desc><defs></defs><g transform="matrix(1.00, 0.00, -0.00, -1.00, 0.0, 1080.0)"><path d="M 0.0 1080.0 L 1920.0 1080.0 L 1920.0 0.0 L 0.0 0.0 Z M 0.0 1080.0 " fill="#FFFFFF"></path><image xlink:href="97B5311AA56DE2812F28EC0F482D8BAA.png" width="208.00" height="132.00" transform="matrix(1.00, 0.00, -0.00, -1.00, 856.0, 606.0)"></image><text xml:space="preserve" font-family="Roboto-Medium,Roboto" font-size="120.0" fill="#424242" transform="matrix(1.00, 0.00, -0.00, -1.00, 164.3, 864.2)">A</text><text xml:space="preserve" font-family="Roboto-Medium,Roboto" font-size="120.0" fill="#424242" transform="matrix(1.00, 0.00, -0.00, -1.00, 241.6, 864.2)"> </text><text xml:space="preserve" font-family="Roboto-Medium,Roboto" font-size="120.0" fill="#424242" transform="matrix(1.00, 0.00, -0.00, -1.00, 271.5, 864.2)">S</text><text xml:space="preserve" font-family="Roboto-Medium,Roboto" font-size="120.0" fill="#424242" transform="matrix(1.00, 0.00, -0.00, -1.00, 346.9, 864.2)">t</text><text xml:space="preserve" font-family="Roboto-Medium,Roboto" font-size="120.0" fill="#424242" transform="matrix(1.00, 0.00, -0.00, -1.00, 388.6, 864.2)">u</text><text xml:space="preserve" font-family="Roboto-Medium,Roboto" font-size="120.0" fill="#424242" transform="matrix(1.00, 0.00, -0.00, -1.00, 456.6, 864.2)">d</text><text xml:space="preserve" font-family="Roboto-Medium,Roboto" font-size="120.0" fill="#424242" transform="matrix(1.00, 0.00, -0.00, -1.00, 524.6, 864.2)">y</text><text xml:space="preserve" font-family="Roboto-Medium,Roboto" font-size="120.0" fill="#424242" transform="matrix(1.00, 0.00, -0.00, -1.00, 585.4, 864.2)"> </text><text xml:space="preserve" font-family="Roboto-Medium,Roboto" font-size="120.0" fill="#424242" transform="matrix(1.00, 0.00, -0.00, -1.00, 615.3, 864.2)">i</text><text xml:space="preserve" font-family="Roboto-Medium,Roboto" font-size="120.0" fill="#424242" transform="matrix(1.00, 0.00, -0.00, -1.00, 646.5, 864.2)">n</text><text xml:space="preserve" font-family="Roboto-Medium,Roboto" font-size="120.0" fill="#424242" transform="matrix(1.00, 0.00, -0.00, -1.00, 714.5, 864.2)"> </text><text xml:space="preserve" font-family="Roboto-Medium,Roboto" font-size="120.0" fill="#424242" transform="matrix(1.00, 0.00, -0.00, -1.00, 744.4, 864.2)">&lt;</text><text xml:space="preserve" font-family="Roboto-Medium,Roboto" font-size="120.0" fill="#424242" transform="matrix(1.00, 0.00, -0.00, -1.00, 805.4, 864.2)">s</text><text xml:space="preserve" font-family="Roboto-Medium,Roboto" font-size="120.0" fill="#424242" transform="matrix(1.00, 0.00, -0.00, -1.00, 867.8, 864.2)">e</text><text xml:space="preserve" font-family="Roboto-Medium,Roboto" font-size="120.0" fill="#424242" transform="matrix(1.00, 0.00, -0.00, -1.00, 931.3, 864.2)">l</text><text xml:space="preserve" font-family="Roboto-Medium,Roboto" font-size="120.0" fill="#424242" transform="matrix(1.00, 0.00, -0.00, -1.00, 962.5, 864.2)">e</text><text xml:space="preserve" font-family="Roboto-Medium,Roboto" font-size="120.0" fill="#424242" transform="matrix(1.00, 0.00, -0.00, -1.00, 1026.0, 864.2)">c</text><text xml:space="preserve" font-family="Roboto-Medium,Roboto" font-size="120.0" fill="#424242" transform="matrix(1.00, 0.00, -0.00, -1.00, 1089.0, 864.2)">t</text><text xml:space="preserve" font-family="Roboto-Medium,Roboto" font-size="120.0" fill="#424242" transform="matrix(1.00, 0.00, -0.00, -1.00, 1130.7, 864.2)">&gt;</text></g></svg>