<?xml version="1.0" encoding="UTF-8" standalone="no"?><svg xmlns="http://www.w3.org/2000/svg" xmlns:xlink="http://www.w3.org/1999/xlink" clip-rule="evenodd" stroke-miterlimit="10" viewBox="0 0 285 44"><desc>SVG generated by Keynote</desc><defs></defs><g transform="matrix(1.00, 0.00, -0.00, -1.00, 0.0, 44.0)"><text xml:space="preserve" font-family="RobotoCondensed-Bold,Roboto Condensed" font-weight="bold" font-size="41.0" fill="#404040" transform="matrix(1.00, 0.00, -0.00, -1.00, 0.9, 10.5)">m</text><text xml:space="preserve" font-family="RobotoCondensed-Bold,Roboto Condensed" font-weight="bold" font-size="41.0" fill="#404040" transform="matrix(1.00, 0.00, -0.00, -1.00, 31.1, 10.5)">e</text><text xml:space="preserve" font-family="RobotoCondensed-Bold,Roboto Condensed" font-weight="bold" font-size="41.0" fill="#404040" transform="matrix(1.00, 0.00, -0.00, -1.00, 49.9, 10.5)">a</text><text xml:space="preserve" font-family="RobotoCondensed-Bold,Roboto Condensed" font-weight="bold" font-size="41.0" fill="#404040" transform="matrix(1.00, 0.00, -0.00, -1.00, 68.8, 10.5)">n</text><text xml:space="preserve" font-family="RobotoCondensed-Bold,Roboto Condensed" font-weight="bold" font-size="41.0" fill="#404040" transform="matrix(1.00, 0.00, -0.00, -1.00, 88.7, 10.5)">i</text><text xml:space="preserve" font-family="RobotoCondensed-Bold,Roboto Condensed" font-weight="bold" font-size="41.0" fill="#404040" transform="matrix(1.00, 0.00, -0.00, -1.00, 98.6, 10.5)">n</text><text xml:space="preserve" font-family="RobotoCondensed-Bold,Roboto Condensed" font-weight="bold" font-size="41.0" fill="#404040" transform="matrix(1.00, 0.00, -0.00, -1.00, 118.5, 10.5)">g</text><text xml:space="preserve" font-family="RobotoCondensed-Bold,Roboto Condensed" font-weight="bold" font-size="41.0" fill="#404040" transform="matrix(1.00, 0.00, -0.00, -1.00, 138.4, 10.5)">f</text><text xml:space="preserve" font-family="RobotoCondensed-Bold,Roboto Condensed" font-weight="bold" font-size="41.0" fill="#404040" transform="matrix(1.00, 0.00, -0.00, -1.00, 151.3, 10.5)">u</text><text xml:space="preserve" font-family="RobotoCondensed-Bold,Roboto Condensed" font-weight="bold" font-size="41.0" fill="#404040" transform="matrix(1.00, 0.00, -0.00, -1.00, 171.3, 10.5)">l</text><text xml:space="preserve" font-family="RobotoCondensed-Regular,Roboto Condensed" font-size="41.0" fill="#404040" transform="matrix(1.00, 0.00, -0.00, -1.00, 181.2, 10.5)"> </text><text xml:space="preserve" font-family="RobotoCondensed-Regular,Roboto Condensed" font-size="41.0" fill="#404040" transform="matrix(1.00, 0.00, -0.00, -1.00, 190.1, 10.5)">H</text><text xml:space="preserve" font-family="RobotoCondensed-Regular,Roboto Condensed" font-size="41.0" fill="#404040" transform="matrix(1.00, 0.00, -0.00, -1.00, 214.5, 10.5)">T</text><text xml:space="preserve" font-family="RobotoCondensed-Regular,Roboto Condensed" font-size="41.0" fill="#404040" transform="matrix(1.00, 0.00, -0.00, -1.00, 234.9, 10.5)">M</text><text xml:space="preserve" font-family="RobotoCondensed-Regular,Roboto Condensed" font-size="41.0" fill="#404040" transform="matrix(1.00, 0.00, -0.00, -1.00, 264.5, 10.5)">L</text></g></svg>