<?xml version="1.0" encoding="UTF-8" standalone="no"?><svg xmlns="http://www.w3.org/2000/svg" xmlns:xlink="http://www.w3.org/1999/xlink" clip-rule="evenodd" stroke-miterlimit="10" viewBox="0 0 270 35"><desc>SVG generated by Keynote</desc><defs></defs><g transform="matrix(1.00, 0.00, -0.00, -1.00, 0.0, 35.0)"><text xml:space="preserve" font-family="RobotoCondensed-Regular,Roboto Condensed" font-size="40.0" fill="#B2B2B2" transform="matrix(1.00, 0.00, -0.00, -1.00, 0.8, 2.2)">d</text><text xml:space="preserve" font-family="RobotoCondensed-Regular,Roboto Condensed" font-size="40.0" fill="#B2B2B2" transform="matrix(1.00, 0.00, -0.00, -1.00, 20.3, 2.2)">e</text><text xml:space="preserve" font-family="RobotoCondensed-Regular,Roboto Condensed" font-size="40.0" fill="#B2B2B2" transform="matrix(1.00, 0.00, -0.00, -1.00, 38.4, 2.2)">f</text><text xml:space="preserve" font-family="RobotoCondensed-Regular,Roboto Condensed" font-size="40.0" fill="#B2B2B2" transform="matrix(1.00, 0.00, -0.00, -1.00, 50.6, 2.2)">i</text><text xml:space="preserve" font-family="RobotoCondensed-Regular,Roboto Condensed" font-size="40.0" fill="#B2B2B2" transform="matrix(1.00, 0.00, -0.00, -1.00, 59.6, 2.2)">n</text><text xml:space="preserve" font-family="RobotoCondensed-Regular,Roboto Condensed" font-size="40.0" fill="#B2B2B2" transform="matrix(1.00, 0.00, -0.00, -1.00, 79.0, 2.2)">e</text><text xml:space="preserve" font-family="RobotoCondensed-Regular,Roboto Condensed" font-size="40.0" fill="#B2B2B2" transform="matrix(1.00, 0.00, -0.00, -1.00, 97.2, 2.2)"> </text><text xml:space="preserve" font-family="RobotoCondensed-Regular,Roboto Condensed" font-size="40.0" fill="#B2B2B2" transform="matrix(1.00, 0.00, -0.00, -1.00, 105.9, 2.2)">n</text><text xml:space="preserve" font-family="RobotoCondensed-Regular,Roboto Condensed" font-size="40.0" fill="#B2B2B2" transform="matrix(1.00, 0.00, -0.00, -1.00, 125.3, 2.2)">e</text><text xml:space="preserve" font-family="RobotoCondensed-Regular,Roboto Condensed" font-size="40.0" fill="#B2B2B2" transform="matrix(1.00, 0.00, -0.00, -1.00, 143.5, 2.2)">w</text><text xml:space="preserve" font-family="RobotoCondensed-Regular,Roboto Condensed" font-size="40.0" fill="#B2B2B2" transform="matrix(1.00, 0.00, -0.00, -1.00, 169.0, 2.2)"> </text><text xml:space="preserve" font-family="RobotoCondensed-Regular,Roboto Condensed" font-size="40.0" fill="#B2B2B2" transform="matrix(1.00, 0.00, -0.00, -1.00, 177.7, 2.2)">H</text><text xml:space="preserve" font-family="RobotoCondensed-Regular,Roboto Condensed" font-size="40.0" fill="#B2B2B2" transform="matrix(1.00, 0.00, -0.00, -1.00, 201.5, 2.2)">T</text><text xml:space="preserve" font-family="RobotoCondensed-Regular,Roboto Condensed" font-size="40.0" fill="#B2B2B2" transform="matrix(1.00, 0.00, -0.00, -1.00, 221.4, 2.2)">M</text><text xml:space="preserve" font-family="RobotoCondensed-Regular,Roboto Condensed" font-size="40.0" fill="#B2B2B2" transform="matrix(1.00, 0.00, -0.00, -1.00, 250.3, 2.2)">L</text></g></svg>