<?xml version="1.0" encoding="UTF-8" standalone="no"?><svg xmlns="http://www.w3.org/2000/svg" xmlns:xlink="http://www.w3.org/1999/xlink" clip-rule="evenodd" stroke-miterlimit="10" viewBox="0 0 1920 1080"><desc>SVG generated by Keynote</desc><defs></defs><g transform="matrix(1.00, 0.00, -0.00, -1.00, 0.0, 1080.0)"><path d="M 0.0 1080.0 L 1920.0 1080.0 L 1920.0 0.0 L 0.0 0.0 Z M 0.0 1080.0 " fill="#FFFFFF"></path><path d="M 528.2 39.2 L 528.0 468.3 C 528.0 471.6 530.9 474.0 534.2 474.0 L 1385.8 474.0 C 1389.1 474.0 1392.0 471.6 1392.0 468.3 L 1392.0 39.2 C 1392.0 35.9 1389.1 33.0 1385.8 33.0 L 534.2 33.0 C 530.9 33.0 528.2 35.9 528.2 39.2 Z M 528.2 39.2 " fill="#E7E7E7"></path><g><clipPath id="clip0x600001eb6c20"><path d="M 528.2 33.2 L 1391.8 33.2 L 1391.8 474.3 L 528.2 474.3 Z M 528.2 33.2 "></path></clipPath><g clip-path="url(#clip0x600001eb6c20)"><text xml:space="preserve" font-family=".LucidaGrandeUI,.Lucida Grande UI" font-size="40.0" fill="#4185F4" transform="matrix(1.00, 0.00, -0.00, -1.00, 548.2, 412.6)">&lt;</text><text xml:space="preserve" font-family=".LucidaGrandeUI,.Lucida Grande UI" font-size="40.0" fill="#4185F4" transform="matrix(1.00, 0.00, -0.00, -1.00, 580.0, 412.6)">s</text><text xml:space="preserve" font-family=".LucidaGrandeUI,.Lucida Grande UI" font-size="40.0" fill="#4185F4" transform="matrix(1.00, 0.00, -0.00, -1.00, 598.5, 412.6)">e</text><text xml:space="preserve" font-family=".LucidaGrandeUI,.Lucida Grande UI" font-size="40.0" fill="#4185F4" transform="matrix(1.00, 0.00, -0.00, -1.00, 620.8, 412.6)">l</text><text xml:space="preserve" font-family=".LucidaGrandeUI,.Lucida Grande UI" font-size="40.0" fill="#4185F4" transform="matrix(1.00, 0.00, -0.00, -1.00, 632.4, 412.6)">e</text><text xml:space="preserve" font-family=".LucidaGrandeUI,.Lucida Grande UI" font-size="40.0" fill="#4185F4" transform="matrix(1.00, 0.00, -0.00, -1.00, 654.7, 412.6)">c</text><text xml:space="preserve" font-family=".LucidaGrandeUI,.Lucida Grande UI" font-size="40.0" fill="#4185F4" transform="matrix(1.00, 0.00, -0.00, -1.00, 675.2, 412.6)">t</text><text xml:space="preserve" font-family=".LucidaGrandeUI,.Lucida Grande UI" font-size="40.0" fill="#4185F4" transform="matrix(1.00, 0.00, -0.00, -1.00, 690.1, 412.6)"> </text><text xml:space="preserve" font-family=".LucidaGrandeUI,.Lucida Grande UI" font-size="40.0" fill="#E82663" transform="matrix(1.00, 0.00, -0.00, -1.00, 702.7, 412.6)">m</text><text xml:space="preserve" font-family=".LucidaGrandeUI,.Lucida Grande UI" font-size="40.0" fill="#E82663" transform="matrix(1.00, 0.00, -0.00, -1.00, 740.1, 412.6)">u</text><text xml:space="preserve" font-family=".LucidaGrandeUI,.Lucida Grande UI" font-size="40.0" fill="#E82663" transform="matrix(1.00, 0.00, -0.00, -1.00, 764.9, 412.6)">l</text><text xml:space="preserve" font-family=".LucidaGrandeUI,.Lucida Grande UI" font-size="40.0" fill="#E82663" transform="matrix(1.00, 0.00, -0.00, -1.00, 776.4, 412.6)">t</text><text xml:space="preserve" font-family=".LucidaGrandeUI,.Lucida Grande UI" font-size="40.0" fill="#E82663" transform="matrix(1.00, 0.00, -0.00, -1.00, 791.4, 412.6)">i</text><text xml:space="preserve" font-family=".LucidaGrandeUI,.Lucida Grande UI" font-size="40.0" fill="#E82663" transform="matrix(1.00, 0.00, -0.00, -1.00, 803.0, 412.6)">p</text><text xml:space="preserve" font-family=".LucidaGrandeUI,.Lucida Grande UI" font-size="40.0" fill="#E82663" transform="matrix(1.00, 0.00, -0.00, -1.00, 828.2, 412.6)">l</text><text xml:space="preserve" font-family=".LucidaGrandeUI,.Lucida Grande UI" font-size="40.0" fill="#E82663" transform="matrix(1.00, 0.00, -0.00, -1.00, 839.7, 412.6)">e</text><text xml:space="preserve" font-family=".LucidaGrandeUI,.Lucida Grande UI" font-size="40.0" fill="#4185F4" transform="matrix(1.00, 0.00, -0.00, -1.00, 862.0, 412.6)">&gt;</text><text xml:space="preserve" font-family=".LucidaGrandeUI,.Lucida Grande UI" font-size="40.0" fill="#4185F4" transform="matrix(1.00, 0.00, -0.00, -1.00, 893.8, 412.6)"></text><text xml:space="preserve" font-family=".LucidaGrandeUI,.Lucida Grande UI" font-size="40.0" fill="#4185F4" transform="matrix(1.00, 0.00, -0.00, -1.00, 548.2, 356.2)"></text><text xml:space="preserve" font-family=".LucidaGrandeUI,.Lucida Grande UI" font-size="40.0" fill="#4185F4" transform="matrix(1.00, 0.00, -0.00, -1.00, 571.6, 356.2)">&lt;</text><text xml:space="preserve" font-family=".LucidaGrandeUI,.Lucida Grande UI" font-size="40.0" fill="#4185F4" transform="matrix(1.00, 0.00, -0.00, -1.00, 603.4, 356.2)">o</text><text xml:space="preserve" font-family=".LucidaGrandeUI,.Lucida Grande UI" font-size="40.0" fill="#4185F4" transform="matrix(1.00, 0.00, -0.00, -1.00, 627.9, 356.2)">p</text><text xml:space="preserve" font-family=".LucidaGrandeUI,.Lucida Grande UI" font-size="40.0" fill="#4185F4" transform="matrix(1.00, 0.00, -0.00, -1.00, 653.1, 356.2)">t</text><text xml:space="preserve" font-family=".LucidaGrandeUI,.Lucida Grande UI" font-size="40.0" fill="#4185F4" transform="matrix(1.00, 0.00, -0.00, -1.00, 668.1, 356.2)">g</text><text xml:space="preserve" font-family=".LucidaGrandeUI,.Lucida Grande UI" font-size="40.0" fill="#4185F4" transform="matrix(1.00, 0.00, -0.00, -1.00, 693.0, 356.2)">r</text><text xml:space="preserve" font-family=".LucidaGrandeUI,.Lucida Grande UI" font-size="40.0" fill="#4185F4" transform="matrix(1.00, 0.00, -0.00, -1.00, 709.4, 356.2)">o</text><text xml:space="preserve" font-family=".LucidaGrandeUI,.Lucida Grande UI" font-size="40.0" fill="#4185F4" transform="matrix(1.00, 0.00, -0.00, -1.00, 734.0, 356.2)">u</text><text xml:space="preserve" font-family=".LucidaGrandeUI,.Lucida Grande UI" font-size="40.0" fill="#4185F4" transform="matrix(1.00, 0.00, -0.00, -1.00, 758.8, 356.2)">p</text><text xml:space="preserve" font-family=".LucidaGrandeUI,.Lucida Grande UI" font-size="40.0" fill="#4185F4" transform="matrix(1.00, 0.00, -0.00, -1.00, 784.0, 356.2)"> </text><text xml:space="preserve" font-family=".LucidaGrandeUI,.Lucida Grande UI" font-size="40.0" fill="#E82663" transform="matrix(1.00, 0.00, -0.00, -1.00, 809.2, 356.2)">l</text><text xml:space="preserve" font-family=".LucidaGrandeUI,.Lucida Grande UI" font-size="40.0" fill="#E82663" transform="matrix(1.00, 0.00, -0.00, -1.00, 820.8, 356.2)">a</text><text xml:space="preserve" font-family=".LucidaGrandeUI,.Lucida Grande UI" font-size="40.0" fill="#E82663" transform="matrix(1.00, 0.00, -0.00, -1.00, 842.9, 356.2)">b</text><text xml:space="preserve" font-family=".LucidaGrandeUI,.Lucida Grande UI" font-size="40.0" fill="#E82663" transform="matrix(1.00, 0.00, -0.00, -1.00, 868.1, 356.2)">e</text><text xml:space="preserve" font-family=".LucidaGrandeUI,.Lucida Grande UI" font-size="40.0" fill="#E82663" transform="matrix(1.00, 0.00, -0.00, -1.00, 890.4, 356.2)">l</text><text xml:space="preserve" font-family=".LucidaGrandeUI,.Lucida Grande UI" font-size="40.0" fill="#4185F4" transform="matrix(1.00, 0.00, -0.00, -1.00, 901.9, 356.2)">=</text><text xml:space="preserve" font-family=".LucidaGrandeUI,.Lucida Grande UI" font-size="40.0" fill="#00A96B" transform="matrix(1.00, 0.00, -0.00, -1.00, 933.7, 356.2)">“</text><text xml:space="preserve" font-family=".LucidaGrandeUI,.Lucida Grande UI" font-size="40.0" fill="#00A96B" transform="matrix(1.00, 0.00, -0.00, -1.00, 950.9, 356.2)">C</text><text xml:space="preserve" font-family=".LucidaGrandeUI,.Lucida Grande UI" font-size="40.0" fill="#00A96B" transform="matrix(1.00, 0.00, -0.00, -1.00, 978.6, 356.2)">l</text><text xml:space="preserve" font-family=".LucidaGrandeUI,.Lucida Grande UI" font-size="40.0" fill="#00A96B" transform="matrix(1.00, 0.00, -0.00, -1.00, 990.1, 356.2)">o</text><text xml:space="preserve" font-family=".LucidaGrandeUI,.Lucida Grande UI" font-size="40.0" fill="#00A96B" transform="matrix(1.00, 0.00, -0.00, -1.00, 1014.7, 356.2)">t</text><text xml:space="preserve" font-family=".LucidaGrandeUI,.Lucida Grande UI" font-size="40.0" fill="#00A96B" transform="matrix(1.00, 0.00, -0.00, -1.00, 1029.7, 356.2)">h</text><text xml:space="preserve" font-family=".LucidaGrandeUI,.Lucida Grande UI" font-size="40.0" fill="#00A96B" transform="matrix(1.00, 0.00, -0.00, -1.00, 1054.5, 356.2)">i</text><text xml:space="preserve" font-family=".LucidaGrandeUI,.Lucida Grande UI" font-size="40.0" fill="#00A96B" transform="matrix(1.00, 0.00, -0.00, -1.00, 1066.0, 356.2)">n</text><text xml:space="preserve" font-family=".LucidaGrandeUI,.Lucida Grande UI" font-size="40.0" fill="#00A96B" transform="matrix(1.00, 0.00, -0.00, -1.00, 1090.9, 356.2)">g</text><text xml:space="preserve" font-family=".LucidaGrandeUI,.Lucida Grande UI" font-size="40.0" fill="#00A96B" transform="matrix(1.00, 0.00, -0.00, -1.00, 1115.8, 356.2)">”</text><text xml:space="preserve" font-family=".LucidaGrandeUI,.Lucida Grande UI" font-size="40.0" fill="#4185F4" transform="matrix(1.00, 0.00, -0.00, -1.00, 1133.0, 356.2)">&gt;</text><text xml:space="preserve" font-family=".LucidaGrandeUI,.Lucida Grande UI" font-size="40.0" fill="#4185F4" transform="matrix(1.00, 0.00, -0.00, -1.00, 1164.8, 356.2)"></text><text xml:space="preserve" font-family=".LucidaGrandeUI,.Lucida Grande UI" font-size="40.0" fill="#4185F4" transform="matrix(1.00, 0.00, -0.00, -1.00, 548.2, 299.8)"></text><text xml:space="preserve" font-family=".LucidaGrandeUI,.Lucida Grande UI" font-size="40.0" fill="#4185F4" transform="matrix(1.00, 0.00, -0.00, -1.00, 571.6, 299.8)"></text><text xml:space="preserve" font-family=".LucidaGrandeUI,.Lucida Grande UI" font-size="40.0" fill="#4185F4" transform="matrix(1.00, 0.00, -0.00, -1.00, 594.9, 299.8)">&lt;</text><text xml:space="preserve" font-family=".LucidaGrandeUI,.Lucida Grande UI" font-size="40.0" fill="#4185F4" transform="matrix(1.00, 0.00, -0.00, -1.00, 626.7, 299.8)">o</text><text xml:space="preserve" font-family=".LucidaGrandeUI,.Lucida Grande UI" font-size="40.0" fill="#4185F4" transform="matrix(1.00, 0.00, -0.00, -1.00, 651.3, 299.8)">p</text><text xml:space="preserve" font-family=".LucidaGrandeUI,.Lucida Grande UI" font-size="40.0" fill="#4185F4" transform="matrix(1.00, 0.00, -0.00, -1.00, 676.5, 299.8)">t</text><text xml:space="preserve" font-family=".LucidaGrandeUI,.Lucida Grande UI" font-size="40.0" fill="#4185F4" transform="matrix(1.00, 0.00, -0.00, -1.00, 691.5, 299.8)">i</text><text xml:space="preserve" font-family=".LucidaGrandeUI,.Lucida Grande UI" font-size="40.0" fill="#4185F4" transform="matrix(1.00, 0.00, -0.00, -1.00, 703.0, 299.8)">o</text><text xml:space="preserve" font-family=".LucidaGrandeUI,.Lucida Grande UI" font-size="40.0" fill="#4185F4" transform="matrix(1.00, 0.00, -0.00, -1.00, 727.6, 299.8)">n</text><text xml:space="preserve" font-family=".LucidaGrandeUI,.Lucida Grande UI" font-size="40.0" fill="#4185F4" transform="matrix(1.00, 0.00, -0.00, -1.00, 752.4, 299.8)">&gt;</text><text xml:space="preserve" font-family=".LucidaGrandeUI,.Lucida Grande UI" font-size="40.0" fill="#333333" transform="matrix(1.00, 0.00, -0.00, -1.00, 809.5, 299.8)">N</text><text xml:space="preserve" font-family=".LucidaGrandeUI,.Lucida Grande UI" font-size="40.0" fill="#333333" transform="matrix(1.00, 0.00, -0.00, -1.00, 839.0, 299.8)">y</text><text xml:space="preserve" font-family=".LucidaGrandeUI,.Lucida Grande UI" font-size="40.0" fill="#333333" transform="matrix(1.00, 0.00, -0.00, -1.00, 859.6, 299.8)">l</text><text xml:space="preserve" font-family=".LucidaGrandeUI,.Lucida Grande UI" font-size="40.0" fill="#333333" transform="matrix(1.00, 0.00, -0.00, -1.00, 871.1, 299.8)">o</text><text xml:space="preserve" font-family=".LucidaGrandeUI,.Lucida Grande UI" font-size="40.0" fill="#333333" transform="matrix(1.00, 0.00, -0.00, -1.00, 895.7, 299.8)">n</text><text xml:space="preserve" font-family=".LucidaGrandeUI,.Lucida Grande UI" font-size="40.0" fill="#4185F4" transform="matrix(1.00, 0.00, -0.00, -1.00, 920.5, 299.8)">&lt;</text><text xml:space="preserve" font-family=".LucidaGrandeUI,.Lucida Grande UI" font-size="40.0" fill="#4185F4" transform="matrix(1.00, 0.00, -0.00, -1.00, 952.3, 299.8)">/</text><text xml:space="preserve" font-family=".LucidaGrandeUI,.Lucida Grande UI" font-size="40.0" fill="#4185F4" transform="matrix(1.00, 0.00, -0.00, -1.00, 973.3, 299.8)">o</text><text xml:space="preserve" font-family=".LucidaGrandeUI,.Lucida Grande UI" font-size="40.0" fill="#4185F4" transform="matrix(1.00, 0.00, -0.00, -1.00, 997.9, 299.8)">p</text><text xml:space="preserve" font-family=".LucidaGrandeUI,.Lucida Grande UI" font-size="40.0" fill="#4185F4" transform="matrix(1.00, 0.00, -0.00, -1.00, 1023.1, 299.8)">t</text><text xml:space="preserve" font-family=".LucidaGrandeUI,.Lucida Grande UI" font-size="40.0" fill="#4185F4" transform="matrix(1.00, 0.00, -0.00, -1.00, 1038.1, 299.8)">i</text><text xml:space="preserve" font-family=".LucidaGrandeUI,.Lucida Grande UI" font-size="40.0" fill="#4185F4" transform="matrix(1.00, 0.00, -0.00, -1.00, 1049.6, 299.8)">o</text><text xml:space="preserve" font-family=".LucidaGrandeUI,.Lucida Grande UI" font-size="40.0" fill="#4185F4" transform="matrix(1.00, 0.00, -0.00, -1.00, 1074.2, 299.8)">n</text><text xml:space="preserve" font-family=".LucidaGrandeUI,.Lucida Grande UI" font-size="40.0" fill="#4185F4" transform="matrix(1.00, 0.00, -0.00, -1.00, 1099.0, 299.8)">&gt;</text><text xml:space="preserve" font-family=".LucidaGrandeUI,.Lucida Grande UI" font-size="40.0" fill="#4185F4" transform="matrix(1.00, 0.00, -0.00, -1.00, 1130.8, 299.8)"></text><text xml:space="preserve" font-family=".LucidaGrandeUI,.Lucida Grande UI" font-size="40.0" fill="#4185F4" transform="matrix(1.00, 0.00, -0.00, -1.00, 548.2, 243.4)"></text><text xml:space="preserve" font-family=".LucidaGrandeUI,.Lucida Grande UI" font-size="40.0" fill="#4185F4" transform="matrix(1.00, 0.00, -0.00, -1.00, 571.6, 243.4)"></text><text xml:space="preserve" font-family=".LucidaGrandeUI,.Lucida Grande UI" font-size="40.0" fill="#4185F4" transform="matrix(1.00, 0.00, -0.00, -1.00, 594.9, 243.4)">&lt;</text><text xml:space="preserve" font-family=".LucidaGrandeUI,.Lucida Grande UI" font-size="40.0" fill="#4185F4" transform="matrix(1.00, 0.00, -0.00, -1.00, 626.7, 243.4)">o</text><text xml:space="preserve" font-family=".LucidaGrandeUI,.Lucida Grande UI" font-size="40.0" fill="#4185F4" transform="matrix(1.00, 0.00, -0.00, -1.00, 651.3, 243.4)">p</text><text xml:space="preserve" font-family=".LucidaGrandeUI,.Lucida Grande UI" font-size="40.0" fill="#4185F4" transform="matrix(1.00, 0.00, -0.00, -1.00, 676.5, 243.4)">t</text><text xml:space="preserve" font-family=".LucidaGrandeUI,.Lucida Grande UI" font-size="40.0" fill="#4185F4" transform="matrix(1.00, 0.00, -0.00, -1.00, 691.5, 243.4)">i</text><text xml:space="preserve" font-family=".LucidaGrandeUI,.Lucida Grande UI" font-size="40.0" fill="#4185F4" transform="matrix(1.00, 0.00, -0.00, -1.00, 703.0, 243.4)">o</text><text xml:space="preserve" font-family=".LucidaGrandeUI,.Lucida Grande UI" font-size="40.0" fill="#4185F4" transform="matrix(1.00, 0.00, -0.00, -1.00, 727.6, 243.4)">n</text><text xml:space="preserve" font-family=".LucidaGrandeUI,.Lucida Grande UI" font-size="40.0" fill="#4185F4" transform="matrix(1.00, 0.00, -0.00, -1.00, 752.4, 243.4)">&gt;</text><text xml:space="preserve" font-family=".LucidaGrandeUI,.Lucida Grande UI" font-size="40.0" fill="#333333" transform="matrix(1.00, 0.00, -0.00, -1.00, 809.5, 243.4)">L</text><text xml:space="preserve" font-family=".LucidaGrandeUI,.Lucida Grande UI" font-size="40.0" fill="#333333" transform="matrix(1.00, 0.00, -0.00, -1.00, 830.4, 243.4)">y</text><text xml:space="preserve" font-family=".LucidaGrandeUI,.Lucida Grande UI" font-size="40.0" fill="#333333" transform="matrix(1.00, 0.00, -0.00, -1.00, 851.0, 243.4)">c</text><text xml:space="preserve" font-family=".LucidaGrandeUI,.Lucida Grande UI" font-size="40.0" fill="#333333" transform="matrix(1.00, 0.00, -0.00, -1.00, 871.5, 243.4)">r</text><text xml:space="preserve" font-family=".LucidaGrandeUI,.Lucida Grande UI" font-size="40.0" fill="#333333" transform="matrix(1.00, 0.00, -0.00, -1.00, 887.9, 243.4)">a</text><text xml:space="preserve" font-family=".LucidaGrandeUI,.Lucida Grande UI" font-size="40.0" fill="#4185F4" transform="matrix(1.00, 0.00, -0.00, -1.00, 909.9, 243.4)">&lt;</text><text xml:space="preserve" font-family=".LucidaGrandeUI,.Lucida Grande UI" font-size="40.0" fill="#4185F4" transform="matrix(1.00, 0.00, -0.00, -1.00, 941.7, 243.4)">/</text><text xml:space="preserve" font-family=".LucidaGrandeUI,.Lucida Grande UI" font-size="40.0" fill="#4185F4" transform="matrix(1.00, 0.00, -0.00, -1.00, 962.7, 243.4)">o</text><text xml:space="preserve" font-family=".LucidaGrandeUI,.Lucida Grande UI" font-size="40.0" fill="#4185F4" transform="matrix(1.00, 0.00, -0.00, -1.00, 987.3, 243.4)">p</text><text xml:space="preserve" font-family=".LucidaGrandeUI,.Lucida Grande UI" font-size="40.0" fill="#4185F4" transform="matrix(1.00, 0.00, -0.00, -1.00, 1012.5, 243.4)">t</text><text xml:space="preserve" font-family=".LucidaGrandeUI,.Lucida Grande UI" font-size="40.0" fill="#4185F4" transform="matrix(1.00, 0.00, -0.00, -1.00, 1027.4, 243.4)">i</text><text xml:space="preserve" font-family=".LucidaGrandeUI,.Lucida Grande UI" font-size="40.0" fill="#4185F4" transform="matrix(1.00, 0.00, -0.00, -1.00, 1039.0, 243.4)">o</text><text xml:space="preserve" font-family=".LucidaGrandeUI,.Lucida Grande UI" font-size="40.0" fill="#4185F4" transform="matrix(1.00, 0.00, -0.00, -1.00, 1063.6, 243.4)">n</text><text xml:space="preserve" font-family=".LucidaGrandeUI,.Lucida Grande UI" font-size="40.0" fill="#4185F4" transform="matrix(1.00, 0.00, -0.00, -1.00, 1088.4, 243.4)">&gt;</text><text xml:space="preserve" font-family=".LucidaGrandeUI,.Lucida Grande UI" font-size="40.0" fill="#4185F4" transform="matrix(1.00, 0.00, -0.00, -1.00, 1120.1, 243.4)"></text><text xml:space="preserve" font-family=".LucidaGrandeUI,.Lucida Grande UI" font-size="40.0" fill="#4185F4" transform="matrix(1.00, 0.00, -0.00, -1.00, 548.2, 187.0)"></text><text xml:space="preserve" font-family=".LucidaGrandeUI,.Lucida Grande UI" font-size="40.0" fill="#4185F4" transform="matrix(1.00, 0.00, -0.00, -1.00, 571.6, 187.0)">&lt;</text><text xml:space="preserve" font-family=".LucidaGrandeUI,.Lucida Grande UI" font-size="40.0" fill="#4185F4" transform="matrix(1.00, 0.00, -0.00, -1.00, 603.4, 187.0)">/</text><text xml:space="preserve" font-family=".LucidaGrandeUI,.Lucida Grande UI" font-size="40.0" fill="#4185F4" transform="matrix(1.00, 0.00, -0.00, -1.00, 624.4, 187.0)">o</text><text xml:space="preserve" font-family=".LucidaGrandeUI,.Lucida Grande UI" font-size="40.0" fill="#4185F4" transform="matrix(1.00, 0.00, -0.00, -1.00, 648.9, 187.0)">p</text><text xml:space="preserve" font-family=".LucidaGrandeUI,.Lucida Grande UI" font-size="40.0" fill="#4185F4" transform="matrix(1.00, 0.00, -0.00, -1.00, 674.1, 187.0)">t</text><text xml:space="preserve" font-family=".LucidaGrandeUI,.Lucida Grande UI" font-size="40.0" fill="#4185F4" transform="matrix(1.00, 0.00, -0.00, -1.00, 689.1, 187.0)">g</text><text xml:space="preserve" font-family=".LucidaGrandeUI,.Lucida Grande UI" font-size="40.0" fill="#4185F4" transform="matrix(1.00, 0.00, -0.00, -1.00, 714.0, 187.0)">r</text><text xml:space="preserve" font-family=".LucidaGrandeUI,.Lucida Grande UI" font-size="40.0" fill="#4185F4" transform="matrix(1.00, 0.00, -0.00, -1.00, 730.4, 187.0)">o</text><text xml:space="preserve" font-family=".LucidaGrandeUI,.Lucida Grande UI" font-size="40.0" fill="#4185F4" transform="matrix(1.00, 0.00, -0.00, -1.00, 755.0, 187.0)">u</text><text xml:space="preserve" font-family=".LucidaGrandeUI,.Lucida Grande UI" font-size="40.0" fill="#4185F4" transform="matrix(1.00, 0.00, -0.00, -1.00, 779.8, 187.0)">p</text><text xml:space="preserve" font-family=".LucidaGrandeUI,.Lucida Grande UI" font-size="40.0" fill="#4185F4" transform="matrix(1.00, 0.00, -0.00, -1.00, 805.0, 187.0)">&gt;</text><text xml:space="preserve" font-family=".LucidaGrandeUI,.Lucida Grande UI" font-size="40.0" fill="#4185F4" transform="matrix(1.00, 0.00, -0.00, -1.00, 836.8, 187.0)"></text><text xml:space="preserve" font-family=".LucidaGrandeUI,.Lucida Grande UI" font-size="40.0" fill="#4185F4" transform="matrix(1.00, 0.00, -0.00, -1.00, 548.2, 130.6)"></text><text xml:space="preserve" font-family=".LucidaGrandeUI,.Lucida Grande UI" font-size="40.0" fill="#4185F4" transform="matrix(1.00, 0.00, -0.00, -1.00, 571.6, 130.6)">…</text><text xml:space="preserve" font-family=".LucidaGrandeUI,.Lucida Grande UI" font-size="40.0" fill="#4185F4" transform="matrix(1.00, 0.00, -0.00, -1.00, 611.6, 130.6)"></text><text xml:space="preserve" font-family=".LucidaGrandeUI,.Lucida Grande UI" font-size="40.0" fill="#4185F4" transform="matrix(1.00, 0.00, -0.00, -1.00, 548.2, 74.2)">&lt;</text><text xml:space="preserve" font-family=".LucidaGrandeUI,.Lucida Grande UI" font-size="40.0" fill="#4185F4" transform="matrix(1.00, 0.00, -0.00, -1.00, 580.0, 74.2)">/</text><text xml:space="preserve" font-family=".LucidaGrandeUI,.Lucida Grande UI" font-size="40.0" fill="#4185F4" transform="matrix(1.00, 0.00, -0.00, -1.00, 601.0, 74.2)">s</text><text xml:space="preserve" font-family=".LucidaGrandeUI,.Lucida Grande UI" font-size="40.0" fill="#4185F4" transform="matrix(1.00, 0.00, -0.00, -1.00, 619.5, 74.2)">e</text><text xml:space="preserve" font-family=".LucidaGrandeUI,.Lucida Grande UI" font-size="40.0" fill="#4185F4" transform="matrix(1.00, 0.00, -0.00, -1.00, 641.8, 74.2)">l</text><text xml:space="preserve" font-family=".LucidaGrandeUI,.Lucida Grande UI" font-size="40.0" fill="#4185F4" transform="matrix(1.00, 0.00, -0.00, -1.00, 653.4, 74.2)">e</text><text xml:space="preserve" font-family=".LucidaGrandeUI,.Lucida Grande UI" font-size="40.0" fill="#4185F4" transform="matrix(1.00, 0.00, -0.00, -1.00, 675.6, 74.2)">c</text><text xml:space="preserve" font-family=".LucidaGrandeUI,.Lucida Grande UI" font-size="40.0" fill="#4185F4" transform="matrix(1.00, 0.00, -0.00, -1.00, 696.1, 74.2)">t</text><text xml:space="preserve" font-family=".LucidaGrandeUI,.Lucida Grande UI" font-size="40.0" fill="#4185F4" transform="matrix(1.00, 0.00, -0.00, -1.00, 711.1, 74.2)">&gt;</text></g></g><image xlink:href="677B71986A8589F57B3BFB1D2E2314EF.png" width="420.00" height="330.00" transform="matrix(1.00, 0.00, -0.00, -1.00, 750.0, 851.8)"></image><text xml:space="preserve" font-family="Roboto-Bold,Roboto" font-weight="bold" font-size="80.0" fill="#424242" transform="matrix(1.00, 0.00, -0.00, -1.00, 161.3, 918.2)">F</text><text xml:space="preserve" font-family="Roboto-Bold,Roboto" font-weight="bold" font-size="80.0" fill="#424242" transform="matrix(1.00, 0.00, -0.00, -1.00, 207.5, 918.2)">l</text><text xml:space="preserve" font-family="Roboto-Bold,Roboto" font-weight="bold" font-size="80.0" fill="#424242" transform="matrix(1.00, 0.00, -0.00, -1.00, 228.8, 918.2)">e</text><text xml:space="preserve" font-family="Roboto-Bold,Roboto" font-weight="bold" font-size="80.0" fill="#424242" transform="matrix(1.00, 0.00, -0.00, -1.00, 271.2, 918.2)">x</text><text xml:space="preserve" font-family="Roboto-Bold,Roboto" font-weight="bold" font-size="80.0" fill="#424242" transform="matrix(1.00, 0.00, -0.00, -1.00, 312.1, 918.2)">i</text><text xml:space="preserve" font-family="Roboto-Bold,Roboto" font-weight="bold" font-size="80.0" fill="#424242" transform="matrix(1.00, 0.00, -0.00, -1.00, 333.4, 918.2)">b</text><text xml:space="preserve" font-family="Roboto-Bold,Roboto" font-weight="bold" font-size="80.0" fill="#424242" transform="matrix(1.00, 0.00, -0.00, -1.00, 378.6, 918.2)">l</text><text xml:space="preserve" font-family="Roboto-Bold,Roboto" font-weight="bold" font-size="80.0" fill="#424242" transform="matrix(1.00, 0.00, -0.00, -1.00, 400.0, 918.2)">e</text></g></svg>