<?xml version="1.0" encoding="UTF-8" standalone="no"?><svg xmlns="http://www.w3.org/2000/svg" xmlns:xlink="http://www.w3.org/1999/xlink" clip-rule="evenodd" stroke-miterlimit="10" viewBox="0 0 1920 1080"><desc>SVG generated by Keynote</desc><defs></defs><g transform="matrix(1.00, 0.00, -0.00, -1.00, 0.0, 1080.0)"><path d="M 0.0 1080.0 L 1920.0 1080.0 L 1920.0 0.0 L 0.0 0.0 Z M 0.0 1080.0 " fill="#5C6AC0"></path><text xml:space="preserve" font-family="Roboto-Medium,Roboto" font-size="120.0" fill="#FFFFFF" transform="matrix(1.00, 0.00, -0.00, -1.00, 160.4, 493.5)">J</text><text xml:space="preserve" font-family="Roboto-Medium,Roboto" font-size="120.0" fill="#FFFFFF" transform="matrix(1.00, 0.00, -0.00, -1.00, 227.6, 493.5)">o</text><text xml:space="preserve" font-family="Roboto-Medium,Roboto" font-size="120.0" fill="#FFFFFF" transform="matrix(1.00, 0.00, -0.00, -1.00, 295.7, 493.5)">i</text><text xml:space="preserve" font-family="Roboto-Medium,Roboto" font-size="120.0" fill="#FFFFFF" transform="matrix(1.00, 0.00, -0.00, -1.00, 326.8, 493.5)">n</text><text xml:space="preserve" font-family="Roboto-Medium,Roboto" font-size="120.0" fill="#FFFFFF" transform="matrix(1.00, 0.00, -0.00, -1.00, 394.8, 493.5)"> </text><text xml:space="preserve" font-family="Roboto-Medium,Roboto" font-size="120.0" fill="#FFFFFF" transform="matrix(1.00, 0.00, -0.00, -1.00, 424.7, 493.5)">t</text><text xml:space="preserve" font-family="Roboto-Medium,Roboto" font-size="120.0" fill="#FFFFFF" transform="matrix(1.00, 0.00, -0.00, -1.00, 466.4, 493.5)">h</text><text xml:space="preserve" font-family="Roboto-Medium,Roboto" font-size="120.0" fill="#FFFFFF" transform="matrix(1.00, 0.00, -0.00, -1.00, 534.4, 493.5)">e</text><text xml:space="preserve" font-family="Roboto-Medium,Roboto" font-size="120.0" fill="#FFFFFF" transform="matrix(1.00, 0.00, -0.00, -1.00, 598.0, 493.5)"> </text><text xml:space="preserve" font-family="Roboto-Medium,Roboto" font-size="120.0" fill="#FFFFFF" transform="matrix(1.00, 0.00, -0.00, -1.00, 627.8, 493.5)">r</text><text xml:space="preserve" font-family="Roboto-Medium,Roboto" font-size="120.0" fill="#FFFFFF" transform="matrix(1.00, 0.00, -0.00, -1.00, 669.4, 493.5)">e</text><text xml:space="preserve" font-family="Roboto-Medium,Roboto" font-size="120.0" fill="#FFFFFF" transform="matrix(1.00, 0.00, -0.00, -1.00, 732.1, 493.5)">v</text><text xml:space="preserve" font-family="Roboto-Medium,Roboto" font-size="120.0" fill="#FFFFFF" transform="matrix(1.00, 0.00, -0.00, -1.00, 792.0, 493.5)">o</text><text xml:space="preserve" font-family="Roboto-Medium,Roboto" font-size="120.0" fill="#FFFFFF" transform="matrix(1.00, 0.00, -0.00, -1.00, 860.0, 493.5)">l</text><text xml:space="preserve" font-family="Roboto-Medium,Roboto" font-size="120.0" fill="#FFFFFF" transform="matrix(1.00, 0.00, -0.00, -1.00, 891.2, 493.5)">u</text><text xml:space="preserve" font-family="Roboto-Medium,Roboto" font-size="120.0" fill="#FFFFFF" transform="matrix(1.00, 0.00, -0.00, -1.00, 959.2, 493.5)">t</text><text xml:space="preserve" font-family="Roboto-Medium,Roboto" font-size="120.0" fill="#FFFFFF" transform="matrix(1.00, 0.00, -0.00, -1.00, 1000.9, 493.5)">i</text><text xml:space="preserve" font-family="Roboto-Medium,Roboto" font-size="120.0" fill="#FFFFFF" transform="matrix(1.00, 0.00, -0.00, -1.00, 1032.0, 493.5)">o</text><text xml:space="preserve" font-family="Roboto-Medium,Roboto" font-size="120.0" fill="#FFFFFF" transform="matrix(1.00, 0.00, -0.00, -1.00, 1100.0, 493.5)">n</text></g></svg>