<?xml version="1.0" encoding="UTF-8" standalone="no"?><svg xmlns="http://www.w3.org/2000/svg" xmlns:xlink="http://www.w3.org/1999/xlink" clip-rule="evenodd" stroke-miterlimit="10" viewBox="0 0 1920 1080"><desc>SVG generated by Keynote</desc><defs></defs><g transform="matrix(1.00, 0.00, -0.00, -1.00, 0.0, 1080.0)"><path d="M 0.0 1080.0 L 1920.0 1080.0 L 1920.0 0.0 L 0.0 0.0 Z M 0.0 1080.0 " fill="#FF4081"></path><text xml:space="preserve" font-family="Roboto-Medium,Roboto" font-size="116.0" fill="#FFFFFF" transform="matrix(1.00, 0.00, -0.00, -1.00, 158.9, 494.9)">I</text><text xml:space="preserve" font-family="Roboto-Medium,Roboto" font-size="116.0" fill="#FFFFFF" transform="matrix(1.00, 0.00, -0.00, -1.00, 192.2, 494.9)">t</text><text xml:space="preserve" font-family="Roboto-Medium,Roboto" font-size="116.0" fill="#FFFFFF" transform="matrix(1.00, 0.00, -0.00, -1.00, 232.5, 494.9)"> </text><text xml:space="preserve" font-family="Roboto-Medium,Roboto" font-size="116.0" fill="#FFFFFF" transform="matrix(1.00, 0.00, -0.00, -1.00, 261.4, 494.9)">s</text><text xml:space="preserve" font-family="Roboto-Medium,Roboto" font-size="116.0" fill="#FFFFFF" transform="matrix(1.00, 0.00, -0.00, -1.00, 321.7, 494.9)">h</text><text xml:space="preserve" font-family="Roboto-Medium,Roboto" font-size="116.0" fill="#FFFFFF" transform="matrix(1.00, 0.00, -0.00, -1.00, 387.5, 494.9)">o</text><text xml:space="preserve" font-family="Roboto-Medium,Roboto" font-size="116.0" fill="#FFFFFF" transform="matrix(1.00, 0.00, -0.00, -1.00, 453.2, 494.9)">u</text><text xml:space="preserve" font-family="Roboto-Medium,Roboto" font-size="116.0" fill="#FFFFFF" transform="matrix(1.00, 0.00, -0.00, -1.00, 519.0, 494.9)">l</text><text xml:space="preserve" font-family="Roboto-Medium,Roboto" font-size="116.0" fill="#FFFFFF" transform="matrix(1.00, 0.00, -0.00, -1.00, 549.1, 494.9)">d</text><text xml:space="preserve" font-family="Roboto-Medium,Roboto" font-size="116.0" fill="#FFFFFF" transform="matrix(1.00, 0.00, -0.00, -1.00, 614.8, 494.9)">n</text><text xml:space="preserve" font-family="Roboto-Medium,Roboto" font-size="116.0" fill="#FFFFFF" transform="matrix(1.00, 0.00, -0.00, -1.00, 678.6, 494.9)">’</text><text xml:space="preserve" font-family="Roboto-Medium,Roboto" font-size="116.0" fill="#FFFFFF" transform="matrix(1.00, 0.00, -0.00, -1.00, 702.0, 494.9)">t</text><text xml:space="preserve" font-family="Roboto-Medium,Roboto" font-size="116.0" fill="#FFFFFF" transform="matrix(1.00, 0.00, -0.00, -1.00, 742.3, 494.9)"> </text><text xml:space="preserve" font-family="Roboto-Medium,Roboto" font-size="116.0" fill="#FFFFFF" transform="matrix(1.00, 0.00, -0.00, -1.00, 771.2, 494.9)">h</text><text xml:space="preserve" font-family="Roboto-Medium,Roboto" font-size="116.0" fill="#FFFFFF" transform="matrix(1.00, 0.00, -0.00, -1.00, 836.9, 494.9)">a</text><text xml:space="preserve" font-family="Roboto-Medium,Roboto" font-size="116.0" fill="#FFFFFF" transform="matrix(1.00, 0.00, -0.00, -1.00, 899.1, 494.9)">v</text><text xml:space="preserve" font-family="Roboto-Medium,Roboto" font-size="116.0" fill="#FFFFFF" transform="matrix(1.00, 0.00, -0.00, -1.00, 957.1, 494.9)">e</text><text xml:space="preserve" font-family="Roboto-Medium,Roboto" font-size="116.0" fill="#FFFFFF" transform="matrix(1.00, 0.00, -0.00, -1.00, 1018.5, 494.9)"> </text><text xml:space="preserve" font-family="Roboto-Medium,Roboto" font-size="116.0" fill="#FFFFFF" transform="matrix(1.00, 0.00, -0.00, -1.00, 1047.4, 494.9)">t</text><text xml:space="preserve" font-family="Roboto-Medium,Roboto" font-size="116.0" fill="#FFFFFF" transform="matrix(1.00, 0.00, -0.00, -1.00, 1087.7, 494.9)">o</text><text xml:space="preserve" font-family="Roboto-Medium,Roboto" font-size="116.0" fill="#FFFFFF" transform="matrix(1.00, 0.00, -0.00, -1.00, 1153.4, 494.9)"> </text><text xml:space="preserve" font-family="Roboto-Medium,Roboto" font-size="116.0" fill="#FFFFFF" transform="matrix(1.00, 0.00, -0.00, -1.00, 1182.3, 494.9)">b</text><text xml:space="preserve" font-family="Roboto-Medium,Roboto" font-size="116.0" fill="#FFFFFF" transform="matrix(1.00, 0.00, -0.00, -1.00, 1248.1, 494.9)">e</text><text xml:space="preserve" font-family="Roboto-Medium,Roboto" font-size="116.0" fill="#FFFFFF" transform="matrix(1.00, 0.00, -0.00, -1.00, 1309.5, 494.9)"> </text><text xml:space="preserve" font-family="Roboto-Medium,Roboto" font-size="116.0" fill="#FFFFFF" transform="matrix(1.00, 0.00, -0.00, -1.00, 1338.4, 494.9)">s</text><text xml:space="preserve" font-family="Roboto-Medium,Roboto" font-size="116.0" fill="#FFFFFF" transform="matrix(1.00, 0.00, -0.00, -1.00, 1398.7, 494.9)">o</text><text xml:space="preserve" font-family="Roboto-Medium,Roboto" font-size="116.0" fill="#FFFFFF" transform="matrix(1.00, 0.00, -0.00, -1.00, 1464.5, 494.9)"> </text><text xml:space="preserve" font-family="Roboto-Medium,Roboto" font-size="116.0" fill="#FFFFFF" transform="matrix(1.00, 0.00, -0.00, -1.00, 1493.4, 494.9)">h</text><text xml:space="preserve" font-family="Roboto-Medium,Roboto" font-size="116.0" fill="#FFFFFF" transform="matrix(1.00, 0.00, -0.00, -1.00, 1559.1, 494.9)">a</text><text xml:space="preserve" font-family="Roboto-Medium,Roboto" font-size="116.0" fill="#FFFFFF" transform="matrix(1.00, 0.00, -0.00, -1.00, 1622.2, 494.9)">r</text><text xml:space="preserve" font-family="Roboto-Medium,Roboto" font-size="116.0" fill="#FFFFFF" transform="matrix(1.00, 0.00, -0.00, -1.00, 1662.4, 494.9)">d</text><text xml:space="preserve" font-family="Roboto-Medium,Roboto" font-size="116.0" fill="#FFFFFF" transform="matrix(1.00, 0.00, -0.00, -1.00, 1728.1, 494.9)">.</text></g></svg>