<?xml version="1.0" encoding="UTF-8" standalone="no"?><svg xmlns="http://www.w3.org/2000/svg" xmlns:xlink="http://www.w3.org/1999/xlink" clip-rule="evenodd" stroke-miterlimit="10" viewBox="0 0 1920 1080"><desc>SVG generated by Keynote</desc><defs></defs><g transform="matrix(1.00, 0.00, -0.00, -1.00, 0.0, 1080.0)"><path d="M 0.0 1080.0 L 1920.0 1080.0 L 1920.0 0.0 L 0.0 0.0 Z M 0.0 1080.0 " fill="#0F9BDF"></path><g><clipPath id="clip0x6000044b5ea0"><path d="M 996.5 19.4 L 1604.9 19.4 L 1604.9 1027.8 L 996.5 1027.8 Z M 996.5 19.4 "></path></clipPath><g clip-path="url(#clip0x6000044b5ea0)"><image xlink:href="../../3510AF59-3604-4D3D-9E6C-9350B3B160FC/assets/FB0CFC4288C48BCA4229E3FED282C269.png" width="823.00" height="1364.00" transform="matrix(0.74, 0.00, -0.00, -0.74, 996.5, 1027.8)"></image></g></g><g><clipPath id="clip0x6000044b5a20"><path d="M 1100.4 243.8 L 1505.9 243.8 L 1505.9 814.1 L 1100.4 814.1 Z M 1100.4 243.8 "></path></clipPath><g clip-path="url(#clip0x6000044b5a20)"><image xlink:href="../../3510AF59-3604-4D3D-9E6C-9350B3B160FC/assets/DA308EE31028D750587DEF47831097B0.png" width="512.00" height="720.00" transform="matrix(0.79, 0.00, -0.00, -0.79, 1100.4, 814.1)"></image></g></g><g><clipPath id="clip0x6000044b5c00"><path d="M 1110.3 775.7 L 609.3 775.7 L 609.3 803.7 L 1110.3 803.7 Z M 1110.3 775.7 "></path></clipPath><g clip-path="url(#clip0x6000044b5c00)"><path d="M 22.3 0.3 L 26.0 0.3 L 499.3 0.3 " fill="none" stroke="#F06191" stroke-width="8.00" stroke-linejoin="round" transform="matrix(-1.00, 0.00, 0.00, 1.00, 1109.3, 789.7)"></path><path d="M 1096.0 803.0 C 1103.2 803.0 1109.0 797.2 1109.0 790.0 C 1109.0 782.8 1103.2 777.0 1096.0 777.0 C 1088.8 777.0 1083.0 782.8 1083.0 790.0 C 1083.0 797.2 1088.8 803.0 1096.0 803.0 Z M 1096.0 803.0 " fill="#F06191"></path></g></g><g><clipPath id="clip0x6000044b6500"><path d="M 392.7 717.9 L 829.4 717.9 L 829.4 861.6 L 392.7 861.6 Z M 392.7 717.9 "></path></clipPath><g clip-path="url(#clip0x6000044b6500)"><path d="M 393.7 727.6 L 394.0 851.9 C 394.0 856.7 397.6 861.0 402.4 861.0 L 819.7 861.0 C 824.5 861.0 828.0 856.7 828.0 851.9 L 828.0 727.6 C 828.0 722.8 824.5 719.0 819.7 719.0 L 402.4 719.0 C 397.6 719.0 393.7 722.8 393.7 727.6 Z M 393.7 727.6 " fill="#F06191"></path></g></g><g><clipPath id="clip0x6000044b6740"><path d="M 393.7 718.9 L 828.4 718.9 L 828.4 860.6 L 393.7 860.6 Z M 393.7 718.9 "></path></clipPath><g clip-path="url(#clip0x6000044b6740)"><text xml:space="preserve" font-family="Roboto-Regular,Roboto" font-size="50.0" fill="#FFFFFF" transform="matrix(1.00, 0.00, -0.00, -1.00, 470.3, 770.6)">b</text><text xml:space="preserve" font-family="Roboto-Regular,Roboto" font-size="50.0" fill="#FFFFFF" transform="matrix(1.00, 0.00, -0.00, -1.00, 498.8, 770.6)">r</text><text xml:space="preserve" font-family="Roboto-Regular,Roboto" font-size="50.0" fill="#FFFFFF" transform="matrix(1.00, 0.00, -0.00, -1.00, 515.9, 770.6)">i</text><text xml:space="preserve" font-family="Roboto-Regular,Roboto" font-size="50.0" fill="#FFFFFF" transform="matrix(1.00, 0.00, -0.00, -1.00, 528.5, 770.6)">c</text><text xml:space="preserve" font-family="Roboto-Regular,Roboto" font-size="50.0" fill="#FFFFFF" transform="matrix(1.00, 0.00, -0.00, -1.00, 555.0, 770.6)">k</text><text xml:space="preserve" font-family="Roboto-Regular,Roboto" font-size="50.0" fill="#FFFFFF" transform="matrix(1.00, 0.00, -0.00, -1.00, 580.6, 770.6)">-</text><text xml:space="preserve" font-family="Roboto-Regular,Roboto" font-size="50.0" fill="#FFFFFF" transform="matrix(1.00, 0.00, -0.00, -1.00, 594.3, 770.6)">a</text><text xml:space="preserve" font-family="Roboto-Regular,Roboto" font-size="50.0" fill="#FFFFFF" transform="matrix(1.00, 0.00, -0.00, -1.00, 621.8, 770.6)">p</text><text xml:space="preserve" font-family="Roboto-Regular,Roboto" font-size="50.0" fill="#FFFFFF" transform="matrix(1.00, 0.00, -0.00, -1.00, 650.3, 770.6)">p</text><text xml:space="preserve" font-family="Roboto-Regular,Roboto" font-size="50.0" fill="#FFFFFF" transform="matrix(1.00, 0.00, -0.00, -1.00, 678.7, 770.6)">b</text><text xml:space="preserve" font-family="Roboto-Regular,Roboto" font-size="50.0" fill="#FFFFFF" transform="matrix(1.00, 0.00, -0.00, -1.00, 707.1, 770.6)">a</text><text xml:space="preserve" font-family="Roboto-Regular,Roboto" font-size="50.0" fill="#FFFFFF" transform="matrix(1.00, 0.00, -0.00, -1.00, 734.6, 770.6)">r</text></g></g><g><clipPath id="clip0x6000044b6da0"><path d="M 1110.3 526.0 L 609.3 526.0 L 609.3 554.0 L 1110.3 554.0 Z M 1110.3 526.0 "></path></clipPath><g clip-path="url(#clip0x6000044b6da0)"><path d="M 22.3 0.0 L 26.0 0.0 L 499.3 0.0 " fill="none" stroke="#F06191" stroke-width="8.00" stroke-linejoin="round" transform="matrix(-1.00, 0.00, 0.00, 1.00, 1109.3, 540.0)"></path><path d="M 1096.0 553.0 C 1103.2 553.0 1109.0 547.2 1109.0 540.0 C 1109.0 532.8 1103.2 527.0 1096.0 527.0 C 1088.8 527.0 1083.0 532.8 1083.0 540.0 C 1083.0 547.2 1088.8 553.0 1096.0 553.0 Z M 1096.0 553.0 " fill="#F06191"></path></g></g><g><clipPath id="clip0x6000044b70a0"><path d="M 392.7 468.1 L 829.4 468.1 L 829.4 611.9 L 392.7 611.9 Z M 392.7 468.1 "></path></clipPath><g clip-path="url(#clip0x6000044b70a0)"><path d="M 393.7 477.9 L 394.0 602.1 C 394.0 607.0 397.6 611.0 402.4 611.0 L 819.7 611.0 C 824.5 611.0 828.0 607.0 828.0 602.1 L 828.0 477.9 C 828.0 473.0 824.5 469.0 819.7 469.0 L 402.4 469.0 C 397.6 469.0 393.7 473.0 393.7 477.9 Z M 393.7 477.9 " fill="#F06191"></path></g></g><g><clipPath id="clip0x6000044b72e0"><path d="M 393.7 469.1 L 828.4 469.1 L 828.4 610.9 L 393.7 610.9 Z M 393.7 469.1 "></path></clipPath><g clip-path="url(#clip0x6000044b72e0)"><text xml:space="preserve" font-family="Roboto-Regular,Roboto" font-size="50.0" fill="#FFFFFF" transform="matrix(1.00, 0.00, -0.00, -1.00, 495.5, 520.9)">b</text><text xml:space="preserve" font-family="Roboto-Regular,Roboto" font-size="50.0" fill="#FFFFFF" transform="matrix(1.00, 0.00, -0.00, -1.00, 523.9, 520.9)">r</text><text xml:space="preserve" font-family="Roboto-Regular,Roboto" font-size="50.0" fill="#FFFFFF" transform="matrix(1.00, 0.00, -0.00, -1.00, 541.1, 520.9)">i</text><text xml:space="preserve" font-family="Roboto-Regular,Roboto" font-size="50.0" fill="#FFFFFF" transform="matrix(1.00, 0.00, -0.00, -1.00, 553.7, 520.9)">c</text><text xml:space="preserve" font-family="Roboto-Regular,Roboto" font-size="50.0" fill="#FFFFFF" transform="matrix(1.00, 0.00, -0.00, -1.00, 580.2, 520.9)">k</text><text xml:space="preserve" font-family="Roboto-Regular,Roboto" font-size="50.0" fill="#FFFFFF" transform="matrix(1.00, 0.00, -0.00, -1.00, 605.8, 520.9)">-</text><text xml:space="preserve" font-family="Roboto-Regular,Roboto" font-size="50.0" fill="#FFFFFF" transform="matrix(1.00, 0.00, -0.00, -1.00, 619.5, 520.9)">d</text><text xml:space="preserve" font-family="Roboto-Regular,Roboto" font-size="50.0" fill="#FFFFFF" transform="matrix(1.00, 0.00, -0.00, -1.00, 647.9, 520.9)">e</text><text xml:space="preserve" font-family="Roboto-Regular,Roboto" font-size="50.0" fill="#FFFFFF" transform="matrix(1.00, 0.00, -0.00, -1.00, 674.4, 520.9)">c</text><text xml:space="preserve" font-family="Roboto-Regular,Roboto" font-size="50.0" fill="#FFFFFF" transform="matrix(1.00, 0.00, -0.00, -1.00, 700.9, 520.9)">k</text></g></g><g><clipPath id="clip0x6000044b7880"><path d="M 1110.3 248.0 L 609.3 248.0 L 609.3 276.0 L 1110.3 276.0 Z M 1110.3 248.0 "></path></clipPath><g clip-path="url(#clip0x6000044b7880)"><path d="M 22.3 0.0 L 26.0 0.0 L 499.3 0.0 " fill="none" stroke="#F06191" stroke-width="8.00" stroke-linejoin="round" transform="matrix(-1.00, 0.00, 0.00, 1.00, 1109.3, 262.0)"></path><path d="M 1096.0 275.0 C 1103.2 275.0 1109.0 269.2 1109.0 262.0 C 1109.0 254.8 1103.2 249.0 1096.0 249.0 C 1088.8 249.0 1083.0 254.8 1083.0 262.0 C 1083.0 269.2 1088.8 275.0 1096.0 275.0 Z M 1096.0 275.0 " fill="#F06191"></path></g></g><g><clipPath id="clip0x6000044b7b80"><path d="M 392.7 190.1 L 829.4 190.1 L 829.4 333.9 L 392.7 333.9 Z M 392.7 190.1 "></path></clipPath><g clip-path="url(#clip0x6000044b7b80)"><path d="M 393.7 199.9 L 394.0 324.1 C 394.0 329.0 397.6 333.0 402.4 333.0 L 819.7 333.0 C 824.5 333.0 828.0 329.0 828.0 324.1 L 828.0 199.9 C 828.0 195.0 824.5 191.0 819.7 191.0 L 402.4 191.0 C 397.6 191.0 393.7 195.0 393.7 199.9 Z M 393.7 199.9 " fill="#F06191"></path></g></g><g><clipPath id="clip0x6000044b7dc0"><path d="M 393.7 191.1 L 828.4 191.1 L 828.4 332.9 L 393.7 332.9 Z M 393.7 191.1 "></path></clipPath><g clip-path="url(#clip0x6000044b7dc0)"><text xml:space="preserve" font-family="Roboto-Regular,Roboto" font-size="50.0" fill="#FFFFFF" transform="matrix(1.00, 0.00, -0.00, -1.00, 475.9, 242.9)">b</text><text xml:space="preserve" font-family="Roboto-Regular,Roboto" font-size="50.0" fill="#FFFFFF" transform="matrix(1.00, 0.00, -0.00, -1.00, 504.3, 242.9)">r</text><text xml:space="preserve" font-family="Roboto-Regular,Roboto" font-size="50.0" fill="#FFFFFF" transform="matrix(1.00, 0.00, -0.00, -1.00, 521.5, 242.9)">i</text><text xml:space="preserve" font-family="Roboto-Regular,Roboto" font-size="50.0" fill="#FFFFFF" transform="matrix(1.00, 0.00, -0.00, -1.00, 534.1, 242.9)">c</text><text xml:space="preserve" font-family="Roboto-Regular,Roboto" font-size="50.0" fill="#FFFFFF" transform="matrix(1.00, 0.00, -0.00, -1.00, 560.6, 242.9)">k</text><text xml:space="preserve" font-family="Roboto-Regular,Roboto" font-size="50.0" fill="#FFFFFF" transform="matrix(1.00, 0.00, -0.00, -1.00, 586.2, 242.9)">-</text><text xml:space="preserve" font-family="Roboto-Regular,Roboto" font-size="50.0" fill="#FFFFFF" transform="matrix(1.00, 0.00, -0.00, -1.00, 599.9, 242.9)">t</text><text xml:space="preserve" font-family="Roboto-Regular,Roboto" font-size="50.0" fill="#FFFFFF" transform="matrix(1.00, 0.00, -0.00, -1.00, 617.2, 242.9)">a</text><text xml:space="preserve" font-family="Roboto-Regular,Roboto" font-size="50.0" fill="#FFFFFF" transform="matrix(1.00, 0.00, -0.00, -1.00, 644.7, 242.9)">b</text><text xml:space="preserve" font-family="Roboto-Regular,Roboto" font-size="50.0" fill="#FFFFFF" transform="matrix(1.00, 0.00, -0.00, -1.00, 673.1, 242.9)">b</text><text xml:space="preserve" font-family="Roboto-Regular,Roboto" font-size="50.0" fill="#FFFFFF" transform="matrix(1.00, 0.00, -0.00, -1.00, 701.5, 242.9)">a</text><text xml:space="preserve" font-family="Roboto-Regular,Roboto" font-size="50.0" fill="#FFFFFF" transform="matrix(1.00, 0.00, -0.00, -1.00, 729.0, 242.9)">r</text></g></g><image xlink:href="../../3510AF59-3604-4D3D-9E6C-9350B3B160FC/assets/7CF95A348349683A9591ED9F94DCB106.png" width="679.00" height="615.00" transform="matrix(1.00, 0.00, -0.00, -1.00, 1291.9, 633.3)" opacity="0.25"></image><image xlink:href="../../3510AF59-3604-4D3D-9E6C-9350B3B160FC/assets/156D96AB5B2B725AEA728E5C075D6F2B.png" width="580.00" height="520.00" transform="matrix(1.07, 0.00, -0.00, -1.07, 1321.9, 618.3)"></image></g></svg>