<?xml version="1.0" encoding="UTF-8" standalone="no"?><svg xmlns="http://www.w3.org/2000/svg" xmlns:xlink="http://www.w3.org/1999/xlink" clip-rule="evenodd" stroke-miterlimit="10" viewBox="0 0 1920 1080"><desc>SVG generated by Keynote</desc><defs></defs><g transform="matrix(1.00, 0.00, -0.00, -1.00, 0.0, 1080.0)"><path d="M 0.0 1080.0 L 1920.0 1080.0 L 1920.0 0.0 L 0.0 0.0 Z M 0.0 1080.0 " fill="#FF4081"></path><text xml:space="preserve" font-family="Roboto-Medium,Roboto" font-size="115.0" fill="#FFFFFF" transform="matrix(1.00, 0.00, -0.00, -1.00, 155.9, 495.2)">T</text><text xml:space="preserve" font-family="Roboto-Medium,Roboto" font-size="115.0" fill="#FFFFFF" transform="matrix(1.00, 0.00, -0.00, -1.00, 222.4, 495.2)">h</text><text xml:space="preserve" font-family="Roboto-Medium,Roboto" font-size="115.0" fill="#FFFFFF" transform="matrix(1.00, 0.00, -0.00, -1.00, 287.6, 495.2)">e</text><text xml:space="preserve" font-family="Roboto-Medium,Roboto" font-size="115.0" fill="#FFFFFF" transform="matrix(1.00, 0.00, -0.00, -1.00, 348.5, 495.2)"> </text><text xml:space="preserve" font-family="Roboto-Medium,Roboto" font-size="115.0" fill="#FFFFFF" transform="matrix(1.00, 0.00, -0.00, -1.00, 377.1, 495.2)">W</text><text xml:space="preserve" font-family="Roboto-Medium,Roboto" font-size="115.0" fill="#FFFFFF" transform="matrix(1.00, 0.00, -0.00, -1.00, 477.0, 495.2)">e</text><text xml:space="preserve" font-family="Roboto-Medium,Roboto" font-size="115.0" fill="#FFFFFF" transform="matrix(1.00, 0.00, -0.00, -1.00, 537.9, 495.2)">b</text><text xml:space="preserve" font-family="Roboto-Medium,Roboto" font-size="115.0" fill="#FFFFFF" transform="matrix(1.00, 0.00, -0.00, -1.00, 603.1, 495.2)"> </text><text xml:space="preserve" font-family="Roboto-Medium,Roboto" font-size="115.0" fill="#FFFFFF" transform="matrix(1.00, 0.00, -0.00, -1.00, 631.7, 495.2)">C</text><text xml:space="preserve" font-family="Roboto-Medium,Roboto" font-size="115.0" fill="#FFFFFF" transform="matrix(1.00, 0.00, -0.00, -1.00, 704.8, 495.2)">o</text><text xml:space="preserve" font-family="Roboto-Medium,Roboto" font-size="115.0" fill="#FFFFFF" transform="matrix(1.00, 0.00, -0.00, -1.00, 770.0, 495.2)">m</text><text xml:space="preserve" font-family="Roboto-Medium,Roboto" font-size="115.0" fill="#FFFFFF" transform="matrix(1.00, 0.00, -0.00, -1.00, 870.0, 495.2)">p</text><text xml:space="preserve" font-family="Roboto-Medium,Roboto" font-size="115.0" fill="#FFFFFF" transform="matrix(1.00, 0.00, -0.00, -1.00, 935.1, 495.2)">o</text><text xml:space="preserve" font-family="Roboto-Medium,Roboto" font-size="115.0" fill="#FFFFFF" transform="matrix(1.00, 0.00, -0.00, -1.00, 1000.3, 495.2)">n</text><text xml:space="preserve" font-family="Roboto-Medium,Roboto" font-size="115.0" fill="#FFFFFF" transform="matrix(1.00, 0.00, -0.00, -1.00, 1065.5, 495.2)">e</text><text xml:space="preserve" font-family="Roboto-Medium,Roboto" font-size="115.0" fill="#FFFFFF" transform="matrix(1.00, 0.00, -0.00, -1.00, 1126.4, 495.2)">n</text><text xml:space="preserve" font-family="Roboto-Medium,Roboto" font-size="115.0" fill="#FFFFFF" transform="matrix(1.00, 0.00, -0.00, -1.00, 1191.6, 495.2)">t</text><text xml:space="preserve" font-family="Roboto-Medium,Roboto" font-size="115.0" fill="#FFFFFF" transform="matrix(1.00, 0.00, -0.00, -1.00, 1231.5, 495.2)">s</text><text xml:space="preserve" font-family="Roboto-Medium,Roboto" font-size="115.0" fill="#FFFFFF" transform="matrix(1.00, 0.00, -0.00, -1.00, 1291.3, 495.2)"> </text><text xml:space="preserve" font-family="Roboto-Medium,Roboto" font-size="115.0" fill="#FFFFFF" transform="matrix(1.00, 0.00, -0.00, -1.00, 1320.0, 495.2)">V</text><text xml:space="preserve" font-family="Roboto-Medium,Roboto" font-size="115.0" fill="#FFFFFF" transform="matrix(1.00, 0.00, -0.00, -1.00, 1393.0, 495.2)">i</text><text xml:space="preserve" font-family="Roboto-Medium,Roboto" font-size="115.0" fill="#FFFFFF" transform="matrix(1.00, 0.00, -0.00, -1.00, 1422.8, 495.2)">s</text><text xml:space="preserve" font-family="Roboto-Medium,Roboto" font-size="115.0" fill="#FFFFFF" transform="matrix(1.00, 0.00, -0.00, -1.00, 1482.6, 495.2)">i</text><text xml:space="preserve" font-family="Roboto-Medium,Roboto" font-size="115.0" fill="#FFFFFF" transform="matrix(1.00, 0.00, -0.00, -1.00, 1512.5, 495.2)">o</text><text xml:space="preserve" font-family="Roboto-Medium,Roboto" font-size="115.0" fill="#FFFFFF" transform="matrix(1.00, 0.00, -0.00, -1.00, 1577.6, 495.2)">n</text></g></svg>