<?xml version="1.0" encoding="UTF-8" standalone="no"?><svg xmlns="http://www.w3.org/2000/svg" xmlns:xlink="http://www.w3.org/1999/xlink" clip-rule="evenodd" stroke-miterlimit="10" viewBox="0 0 1920 1080"><desc>SVG generated by Keynote</desc><defs></defs><g transform="matrix(1.00, 0.00, -0.00, -1.00, 0.0, 1080.0)"><path d="M 0.0 1080.0 L 1920.0 1080.0 L 1920.0 0.0 L 0.0 0.0 Z M 0.0 1080.0 " fill="#0F9BDF"></path><g><clipPath id="clip0x6080040b9860"><path d="M 996.5 19.4 L 1604.9 19.4 L 1604.9 1027.8 L 996.5 1027.8 Z M 996.5 19.4 "></path></clipPath><g clip-path="url(#clip0x6080040b9860)"><image xlink:href="../../3510AF59-3604-4D3D-9E6C-9350B3B160FC/assets/FB0CFC4288C48BCA4229E3FED282C269.png" width="823.00" height="1364.00" transform="matrix(0.74, 0.00, -0.00, -0.74, 996.5, 1027.8)"></image></g></g><g><clipPath id="clip0x6000044bc5c0"><path d="M 1100.4 243.8 L 1505.9 243.8 L 1505.9 814.1 L 1100.4 814.1 Z M 1100.4 243.8 "></path></clipPath><g clip-path="url(#clip0x6000044bc5c0)"><image xlink:href="../../3510AF59-3604-4D3D-9E6C-9350B3B160FC/assets/DA308EE31028D750587DEF47831097B0.png" width="512.00" height="720.00" transform="matrix(0.79, 0.00, -0.00, -0.79, 1100.4, 814.1)"></image></g></g><g><clipPath id="clip0x6000044bc920"><path d="M 1110.3 775.7 L 609.3 775.7 L 609.3 803.7 L 1110.3 803.7 Z M 1110.3 775.7 "></path></clipPath><g clip-path="url(#clip0x6000044bc920)"><path d="M 22.3 0.3 L 26.0 0.3 L 499.3 0.3 " fill="none" stroke="#F06191" stroke-width="8.00" stroke-linejoin="round" transform="matrix(-1.00, 0.00, 0.00, 1.00, 1109.3, 789.7)"></path><path d="M 1096.0 803.0 C 1103.2 803.0 1109.0 797.2 1109.0 790.0 C 1109.0 782.8 1103.2 777.0 1096.0 777.0 C 1088.8 777.0 1083.0 782.8 1083.0 790.0 C 1083.0 797.2 1088.8 803.0 1096.0 803.0 Z M 1096.0 803.0 " fill="#F06191"></path></g></g><g><clipPath id="clip0x6000044bcce0"><path d="M 392.7 717.9 L 829.4 717.9 L 829.4 861.6 L 392.7 861.6 Z M 392.7 717.9 "></path></clipPath><g clip-path="url(#clip0x6000044bcce0)"><path d="M 393.7 727.6 L 394.0 851.9 C 394.0 856.7 397.6 861.0 402.4 861.0 L 819.7 861.0 C 824.5 861.0 828.0 856.7 828.0 851.9 L 828.0 727.6 C 828.0 722.8 824.5 719.0 819.7 719.0 L 402.4 719.0 C 397.6 719.0 393.7 722.8 393.7 727.6 Z M 393.7 727.6 " fill="#F06191"></path></g></g><g><clipPath id="clip0x6000044bcf20"><path d="M 393.7 718.9 L 828.4 718.9 L 828.4 860.6 L 393.7 860.6 Z M 393.7 718.9 "></path></clipPath><g clip-path="url(#clip0x6000044bcf20)"><text xml:space="preserve" font-family="Roboto-Regular,Roboto" font-size="50.0" fill="#FFFFFF" transform="matrix(1.00, 0.00, -0.00, -1.00, 507.2, 770.6)">c</text><text xml:space="preserve" font-family="Roboto-Regular,Roboto" font-size="50.0" fill="#FFFFFF" transform="matrix(1.00, 0.00, -0.00, -1.00, 533.7, 770.6)">o</text><text xml:space="preserve" font-family="Roboto-Regular,Roboto" font-size="50.0" fill="#FFFFFF" transform="matrix(1.00, 0.00, -0.00, -1.00, 562.1, 770.6)">r</text><text xml:space="preserve" font-family="Roboto-Regular,Roboto" font-size="50.0" fill="#FFFFFF" transform="matrix(1.00, 0.00, -0.00, -1.00, 578.8, 770.6)">e</text><text xml:space="preserve" font-family="Roboto-Regular,Roboto" font-size="50.0" fill="#FFFFFF" transform="matrix(1.00, 0.00, -0.00, -1.00, 605.2, 770.6)">-</text><text xml:space="preserve" font-family="Roboto-Regular,Roboto" font-size="50.0" fill="#FFFFFF" transform="matrix(1.00, 0.00, -0.00, -1.00, 618.9, 770.6)">i</text><text xml:space="preserve" font-family="Roboto-Regular,Roboto" font-size="50.0" fill="#FFFFFF" transform="matrix(1.00, 0.00, -0.00, -1.00, 631.5, 770.6)">c</text><text xml:space="preserve" font-family="Roboto-Regular,Roboto" font-size="50.0" fill="#FFFFFF" transform="matrix(1.00, 0.00, -0.00, -1.00, 658.0, 770.6)">o</text><text xml:space="preserve" font-family="Roboto-Regular,Roboto" font-size="50.0" fill="#FFFFFF" transform="matrix(1.00, 0.00, -0.00, -1.00, 686.5, 770.6)">n</text></g></g><image xlink:href="../../3510AF59-3604-4D3D-9E6C-9350B3B160FC/assets/7CF95A348349683A9591ED9F94DCB106.png" width="679.00" height="615.00" transform="matrix(1.00, 0.00, -0.00, -1.00, 1291.9, 633.3)" opacity="0.25"></image><image xlink:href="../../3510AF59-3604-4D3D-9E6C-9350B3B160FC/assets/156D96AB5B2B725AEA728E5C075D6F2B.png" width="580.00" height="520.00" transform="matrix(1.07, 0.00, -0.00, -1.07, 1321.9, 618.3)"></image><g><clipPath id="clip0x6000044bd340"><path d="M 1120.3 402.0 L 619.3 402.0 L 619.3 430.0 L 1120.3 430.0 Z M 1120.3 402.0 "></path></clipPath><g clip-path="url(#clip0x6000044bd340)"><path d="M 22.3 0.0 L 26.0 0.0 L 499.3 0.0 " fill="none" stroke="#F06191" stroke-width="8.00" stroke-linejoin="round" transform="matrix(-1.00, 0.00, 0.00, 1.00, 1119.3, 416.0)"></path><path d="M 1106.0 429.0 C 1113.2 429.0 1119.0 423.2 1119.0 416.0 C 1119.0 408.8 1113.2 403.0 1106.0 403.0 C 1098.8 403.0 1093.0 408.8 1093.0 416.0 C 1093.0 423.2 1098.8 429.0 1106.0 429.0 Z M 1106.0 429.0 " fill="#F06191"></path></g></g><g><clipPath id="clip0x6000044bd820"><path d="M 402.7 323.2 L 839.4 323.2 L 839.4 508.8 L 402.7 508.8 Z M 402.7 323.2 "></path></clipPath><g clip-path="url(#clip0x6000044bd820)"><path d="M 403.7 332.9 L 404.0 499.1 C 404.0 503.9 407.6 508.0 412.4 508.0 L 829.7 508.0 C 834.5 508.0 838.0 503.9 838.0 499.1 L 838.0 332.9 C 838.0 328.1 834.5 324.0 829.7 324.0 L 412.4 324.0 C 407.6 324.0 403.7 328.1 403.7 332.9 Z M 403.7 332.9 " fill="#F06191"></path></g></g><g><clipPath id="clip0x6000044bda60"><path d="M 403.7 324.2 L 838.4 324.2 L 838.4 507.8 L 403.7 507.8 Z M 403.7 324.2 "></path></clipPath><g clip-path="url(#clip0x6000044bda60)"><text xml:space="preserve" font-family="Roboto-Regular,Roboto" font-size="50.0" fill="#FFFFFF" transform="matrix(1.00, 0.00, -0.00, -1.00, 487.3, 432.0)">x</text><text xml:space="preserve" font-family="Roboto-Regular,Roboto" font-size="50.0" fill="#FFFFFF" transform="matrix(1.00, 0.00, -0.00, -1.00, 512.4, 432.0)">-</text><text xml:space="preserve" font-family="Roboto-Regular,Roboto" font-size="50.0" fill="#FFFFFF" transform="matrix(1.00, 0.00, -0.00, -1.00, 526.1, 432.0)">i</text><text xml:space="preserve" font-family="Roboto-Regular,Roboto" font-size="50.0" fill="#FFFFFF" transform="matrix(1.00, 0.00, -0.00, -1.00, 538.7, 432.0)">n</text><text xml:space="preserve" font-family="Roboto-Regular,Roboto" font-size="50.0" fill="#FFFFFF" transform="matrix(1.00, 0.00, -0.00, -1.00, 567.1, 432.0)">s</text><text xml:space="preserve" font-family="Roboto-Regular,Roboto" font-size="50.0" fill="#FFFFFF" transform="matrix(1.00, 0.00, -0.00, -1.00, 593.3, 432.0)">t</text><text xml:space="preserve" font-family="Roboto-Regular,Roboto" font-size="50.0" fill="#FFFFFF" transform="matrix(1.00, 0.00, -0.00, -1.00, 610.5, 432.0)">a</text><text xml:space="preserve" font-family="Roboto-Regular,Roboto" font-size="50.0" fill="#FFFFFF" transform="matrix(1.00, 0.00, -0.00, -1.00, 638.0, 432.0)">g</text><text xml:space="preserve" font-family="Roboto-Regular,Roboto" font-size="50.0" fill="#FFFFFF" transform="matrix(1.00, 0.00, -0.00, -1.00, 666.5, 432.0)">r</text><text xml:space="preserve" font-family="Roboto-Regular,Roboto" font-size="50.0" fill="#FFFFFF" transform="matrix(1.00, 0.00, -0.00, -1.00, 683.6, 432.0)">a</text><text xml:space="preserve" font-family="Roboto-Regular,Roboto" font-size="50.0" fill="#FFFFFF" transform="matrix(1.00, 0.00, -0.00, -1.00, 711.1, 432.0)">m</text><text xml:space="preserve" font-family="Roboto-Regular,Roboto" font-size="50.0" fill="#FFFFFF" transform="matrix(1.00, 0.00, -0.00, -1.00, 754.8, 432.0)"> </text><text xml:space="preserve" font-family="Roboto-Regular,Roboto" font-size="50.0" fill="#FFFFFF" transform="matrix(1.00, 0.00, -0.00, -1.00, 486.5, 361.6)">(</text><text xml:space="preserve" font-family="Roboto-Regular,Roboto" font-size="50.0" fill="#FFFFFF" transform="matrix(1.00, 0.00, -0.00, -1.00, 503.0, 361.6)">n</text><text xml:space="preserve" font-family="Roboto-Regular,Roboto" font-size="50.0" fill="#FFFFFF" transform="matrix(1.00, 0.00, -0.00, -1.00, 531.5, 361.6)">o</text><text xml:space="preserve" font-family="Roboto-Regular,Roboto" font-size="50.0" fill="#FFFFFF" transform="matrix(1.00, 0.00, -0.00, -1.00, 559.9, 361.6)">t</text><text xml:space="preserve" font-family="Roboto-Regular,Roboto" font-size="50.0" fill="#FFFFFF" transform="matrix(1.00, 0.00, -0.00, -1.00, 577.2, 361.6)"> </text><text xml:space="preserve" font-family="Roboto-Regular,Roboto" font-size="50.0" fill="#FFFFFF" transform="matrix(1.00, 0.00, -0.00, -1.00, 589.6, 361.6)">s</text><text xml:space="preserve" font-family="Roboto-Regular,Roboto" font-size="50.0" fill="#FFFFFF" transform="matrix(1.00, 0.00, -0.00, -1.00, 615.7, 361.6)">h</text><text xml:space="preserve" font-family="Roboto-Regular,Roboto" font-size="50.0" fill="#FFFFFF" transform="matrix(1.00, 0.00, -0.00, -1.00, 644.1, 361.6)">o</text><text xml:space="preserve" font-family="Roboto-Regular,Roboto" font-size="50.0" fill="#FFFFFF" transform="matrix(1.00, 0.00, -0.00, -1.00, 672.6, 361.6)">w</text><text xml:space="preserve" font-family="Roboto-Regular,Roboto" font-size="50.0" fill="#FFFFFF" transform="matrix(1.00, 0.00, -0.00, -1.00, 710.4, 361.6)">n</text><text xml:space="preserve" font-family="Roboto-Regular,Roboto" font-size="50.0" fill="#FFFFFF" transform="matrix(1.00, 0.00, -0.00, -1.00, 738.8, 361.6)">)</text></g></g></g></svg>