<?xml version="1.0" encoding="UTF-8" standalone="no"?><svg xmlns="http://www.w3.org/2000/svg" xmlns:xlink="http://www.w3.org/1999/xlink" clip-rule="evenodd" stroke-miterlimit="10" viewBox="0 0 766 223"><desc>SVG generated by Keynote</desc><defs></defs><g transform="matrix(1.00, 0.00, -0.00, -1.00, 0.0, 223.0)"><text xml:space="preserve" font-family="Roboto-Light,Roboto" font-size="95.0" fill="#FFFFFF" transform="matrix(1.00, 0.00, -0.00, -1.00, -0.9, 148.7)">W</text><text xml:space="preserve" font-family="Roboto-Light,Roboto" font-size="95.0" fill="#FFFFFF" transform="matrix(1.00, 0.00, -0.00, -1.00, 82.7, 148.7)">e</text><text xml:space="preserve" font-family="Roboto-Light,Roboto" font-size="95.0" fill="#FFFFFF" transform="matrix(1.00, 0.00, -0.00, -1.00, 131.6, 148.7)">b</text><text xml:space="preserve" font-family="Roboto-Light,Roboto" font-size="95.0" fill="#FFFFFF" transform="matrix(1.00, 0.00, -0.00, -1.00, 184.4, 148.7)"> </text><text xml:space="preserve" font-family="Roboto-Light,Roboto" font-size="95.0" fill="#FFFFFF" transform="matrix(1.00, 0.00, -0.00, -1.00, 207.6, 148.7)">C</text><text xml:space="preserve" font-family="Roboto-Light,Roboto" font-size="95.0" fill="#FFFFFF" transform="matrix(1.00, 0.00, -0.00, -1.00, 268.5, 148.7)">o</text><text xml:space="preserve" font-family="Roboto-Light,Roboto" font-size="95.0" fill="#FFFFFF" transform="matrix(1.00, 0.00, -0.00, -1.00, 321.3, 148.7)">m</text><text xml:space="preserve" font-family="Roboto-Light,Roboto" font-size="95.0" fill="#FFFFFF" transform="matrix(1.00, 0.00, -0.00, -1.00, 405.5, 148.7)">p</text><text xml:space="preserve" font-family="Roboto-Light,Roboto" font-size="95.0" fill="#FFFFFF" transform="matrix(1.00, 0.00, -0.00, -1.00, 458.4, 148.7)">o</text><text xml:space="preserve" font-family="Roboto-Light,Roboto" font-size="95.0" fill="#FFFFFF" transform="matrix(1.00, 0.00, -0.00, -1.00, 511.2, 148.7)">n</text><text xml:space="preserve" font-family="Roboto-Light,Roboto" font-size="95.0" fill="#FFFFFF" transform="matrix(1.00, 0.00, -0.00, -1.00, 564.1, 148.7)">e</text><text xml:space="preserve" font-family="Roboto-Light,Roboto" font-size="95.0" fill="#FFFFFF" transform="matrix(1.00, 0.00, -0.00, -1.00, 613.0, 148.7)">n</text><text xml:space="preserve" font-family="Roboto-Light,Roboto" font-size="95.0" fill="#FFFFFF" transform="matrix(1.00, 0.00, -0.00, -1.00, 665.9, 148.7)">t</text><text xml:space="preserve" font-family="Roboto-Light,Roboto" font-size="95.0" fill="#FFFFFF" transform="matrix(1.00, 0.00, -0.00, -1.00, 697.4, 148.7)">s</text><text xml:space="preserve" font-family="Roboto-Light,Roboto" font-size="95.0" fill="#FFFFFF" transform="matrix(1.00, 0.00, -0.00, -1.00, 745.8, 148.7)"> </text><text xml:space="preserve" font-family="Roboto-Light,Roboto" font-size="95.0" fill="#FFFFFF" transform="matrix(1.00, 0.00, -0.00, -1.00, -0.9, 22.7)">c</text><text xml:space="preserve" font-family="Roboto-Light,Roboto" font-size="95.0" fill="#FFFFFF" transform="matrix(1.00, 0.00, -0.00, -1.00, 48.3, 22.7)">a</text><text xml:space="preserve" font-family="Roboto-Light,Roboto" font-size="95.0" fill="#FFFFFF" transform="matrix(1.00, 0.00, -0.00, -1.00, 99.3, 22.7)">n</text><text xml:space="preserve" font-family="Roboto-Light,Roboto" font-size="95.0" fill="#FFFFFF" transform="matrix(1.00, 0.00, -0.00, -1.00, 152.1, 22.7)"> </text><text xml:space="preserve" font-family="Roboto-Light,Roboto" font-size="95.0" fill="#FFFFFF" transform="matrix(1.00, 0.00, -0.00, -1.00, 175.2, 22.7)">w</text><text xml:space="preserve" font-family="Roboto-Light,Roboto" font-size="95.0" fill="#FFFFFF" transform="matrix(1.00, 0.00, -0.00, -1.00, 247.1, 22.7)">o</text><text xml:space="preserve" font-family="Roboto-Light,Roboto" font-size="95.0" fill="#FFFFFF" transform="matrix(1.00, 0.00, -0.00, -1.00, 299.9, 22.7)">r</text><text xml:space="preserve" font-family="Roboto-Light,Roboto" font-size="95.0" fill="#FFFFFF" transform="matrix(1.00, 0.00, -0.00, -1.00, 332.2, 22.7)">k</text><text xml:space="preserve" font-family="Roboto-Medium,Roboto" font-size="95.0" fill="#FFFFFF" transform="matrix(1.00, 0.00, -0.00, -1.00, 379.1, 22.7)"> </text><text xml:space="preserve" font-family="Roboto-Bold,Roboto" font-weight="bold" font-size="95.0" fill="#FFFFFF" transform="matrix(1.00, 0.00, -0.00, -1.00, 402.8, 22.7)">t</text><text xml:space="preserve" font-family="Roboto-Bold,Roboto" font-weight="bold" font-size="95.0" fill="#FFFFFF" transform="matrix(1.00, 0.00, -0.00, -1.00, 435.9, 22.7)">o</text><text xml:space="preserve" font-family="Roboto-Bold,Roboto" font-weight="bold" font-size="95.0" fill="#FFFFFF" transform="matrix(1.00, 0.00, -0.00, -1.00, 489.6, 22.7)">g</text><text xml:space="preserve" font-family="Roboto-Bold,Roboto" font-weight="bold" font-size="95.0" fill="#FFFFFF" transform="matrix(1.00, 0.00, -0.00, -1.00, 543.2, 22.7)">e</text><text xml:space="preserve" font-family="Roboto-Bold,Roboto" font-weight="bold" font-size="95.0" fill="#FFFFFF" transform="matrix(1.00, 0.00, -0.00, -1.00, 593.5, 22.7)">t</text><text xml:space="preserve" font-family="Roboto-Bold,Roboto" font-weight="bold" font-size="95.0" fill="#FFFFFF" transform="matrix(1.00, 0.00, -0.00, -1.00, 626.7, 22.7)">h</text><text xml:space="preserve" font-family="Roboto-Bold,Roboto" font-weight="bold" font-size="95.0" fill="#FFFFFF" transform="matrix(1.00, 0.00, -0.00, -1.00, 680.3, 22.7)">e</text><text xml:space="preserve" font-family="Roboto-Bold,Roboto" font-weight="bold" font-size="95.0" fill="#FFFFFF" transform="matrix(1.00, 0.00, -0.00, -1.00, 730.6, 22.7)">r</text></g></svg>