<?xml version="1.0" encoding="UTF-8" standalone="no"?><svg xmlns="http://www.w3.org/2000/svg" xmlns:xlink="http://www.w3.org/1999/xlink" clip-rule="evenodd" stroke-miterlimit="10" viewBox="0 0 1920 1080"><desc>SVG generated by Keynote</desc><defs></defs><g transform="matrix(1.00, 0.00, -0.00, -1.00, 0.0, 1080.0)"><path d="M 0.0 1080.0 L 1920.0 1080.0 L 1920.0 0.0 L 0.0 0.0 Z M 0.0 1080.0 " fill="#0F9BDF"></path><image xlink:href="../../3510AF59-3604-4D3D-9E6C-9350B3B160FC/assets/FB0CFC4288C48BCA4229E3FED282C269.png" width="823.00" height="1364.00" transform="matrix(0.74, 0.00, -0.00, -0.74, 996.5, 1027.8)"></image><image xlink:href="../../C57A66E1-AAFD-45EC-9AD4-A7A790C2CC75/assets/2193BFD33302F29D92A519E78B3F334C.png" width="512.00" height="720.00" transform="matrix(0.79, 0.00, -0.00, -0.79, 1100.4, 814.1)"></image><image xlink:href="../../3510AF59-3604-4D3D-9E6C-9350B3B160FC/assets/7CF95A348349683A9591ED9F94DCB106.png" width="679.00" height="615.00" transform="matrix(1.00, 0.00, -0.00, -1.00, 1291.9, 633.3)" opacity="0.25"></image><image xlink:href="../../3510AF59-3604-4D3D-9E6C-9350B3B160FC/assets/156D96AB5B2B725AEA728E5C075D6F2B.png" width="580.00" height="520.00" transform="matrix(1.07, 0.00, -0.00, -1.07, 1321.9, 618.3)"></image><text xml:space="preserve" font-family="Roboto-Light,Roboto" font-size="95.0" fill="#FFFFFF" transform="matrix(1.00, 0.00, -0.00, -1.00, 218.1, 565.7)">W</text><text xml:space="preserve" font-family="Roboto-Light,Roboto" font-size="95.0" fill="#FFFFFF" transform="matrix(1.00, 0.00, -0.00, -1.00, 301.7, 565.7)">e</text><text xml:space="preserve" font-family="Roboto-Light,Roboto" font-size="95.0" fill="#FFFFFF" transform="matrix(1.00, 0.00, -0.00, -1.00, 350.6, 565.7)">b</text><text xml:space="preserve" font-family="Roboto-Light,Roboto" font-size="95.0" fill="#FFFFFF" transform="matrix(1.00, 0.00, -0.00, -1.00, 403.4, 565.7)"> </text><text xml:space="preserve" font-family="Roboto-Light,Roboto" font-size="95.0" fill="#FFFFFF" transform="matrix(1.00, 0.00, -0.00, -1.00, 426.6, 565.7)">C</text><text xml:space="preserve" font-family="Roboto-Light,Roboto" font-size="95.0" fill="#FFFFFF" transform="matrix(1.00, 0.00, -0.00, -1.00, 487.5, 565.7)">o</text><text xml:space="preserve" font-family="Roboto-Light,Roboto" font-size="95.0" fill="#FFFFFF" transform="matrix(1.00, 0.00, -0.00, -1.00, 540.3, 565.7)">m</text><text xml:space="preserve" font-family="Roboto-Light,Roboto" font-size="95.0" fill="#FFFFFF" transform="matrix(1.00, 0.00, -0.00, -1.00, 624.5, 565.7)">p</text><text xml:space="preserve" font-family="Roboto-Light,Roboto" font-size="95.0" fill="#FFFFFF" transform="matrix(1.00, 0.00, -0.00, -1.00, 677.4, 565.7)">o</text><text xml:space="preserve" font-family="Roboto-Light,Roboto" font-size="95.0" fill="#FFFFFF" transform="matrix(1.00, 0.00, -0.00, -1.00, 730.2, 565.7)">n</text><text xml:space="preserve" font-family="Roboto-Light,Roboto" font-size="95.0" fill="#FFFFFF" transform="matrix(1.00, 0.00, -0.00, -1.00, 783.1, 565.7)">e</text><text xml:space="preserve" font-family="Roboto-Light,Roboto" font-size="95.0" fill="#FFFFFF" transform="matrix(1.00, 0.00, -0.00, -1.00, 832.0, 565.7)">n</text><text xml:space="preserve" font-family="Roboto-Light,Roboto" font-size="95.0" fill="#FFFFFF" transform="matrix(1.00, 0.00, -0.00, -1.00, 884.9, 565.7)">t</text><text xml:space="preserve" font-family="Roboto-Light,Roboto" font-size="95.0" fill="#FFFFFF" transform="matrix(1.00, 0.00, -0.00, -1.00, 916.4, 565.7)">s</text><text xml:space="preserve" font-family="Roboto-Light,Roboto" font-size="95.0" fill="#FFFFFF" transform="matrix(1.00, 0.00, -0.00, -1.00, 964.8, 565.7)"> </text><text xml:space="preserve" font-family="Roboto-Light,Roboto" font-size="95.0" fill="#FFFFFF" transform="matrix(1.00, 0.00, -0.00, -1.00, 218.1, 439.7)">c</text><text xml:space="preserve" font-family="Roboto-Light,Roboto" font-size="95.0" fill="#FFFFFF" transform="matrix(1.00, 0.00, -0.00, -1.00, 267.3, 439.7)">a</text><text xml:space="preserve" font-family="Roboto-Light,Roboto" font-size="95.0" fill="#FFFFFF" transform="matrix(1.00, 0.00, -0.00, -1.00, 318.3, 439.7)">n</text><text xml:space="preserve" font-family="Roboto-Light,Roboto" font-size="95.0" fill="#FFFFFF" transform="matrix(1.00, 0.00, -0.00, -1.00, 371.1, 439.7)"> </text><text xml:space="preserve" font-family="Roboto-Light,Roboto" font-size="95.0" fill="#FFFFFF" transform="matrix(1.00, 0.00, -0.00, -1.00, 394.2, 439.7)">w</text><text xml:space="preserve" font-family="Roboto-Light,Roboto" font-size="95.0" fill="#FFFFFF" transform="matrix(1.00, 0.00, -0.00, -1.00, 466.1, 439.7)">o</text><text xml:space="preserve" font-family="Roboto-Light,Roboto" font-size="95.0" fill="#FFFFFF" transform="matrix(1.00, 0.00, -0.00, -1.00, 518.9, 439.7)">r</text><text xml:space="preserve" font-family="Roboto-Light,Roboto" font-size="95.0" fill="#FFFFFF" transform="matrix(1.00, 0.00, -0.00, -1.00, 551.2, 439.7)">k</text><text xml:space="preserve" font-family="Roboto-Medium,Roboto" font-size="95.0" fill="#FFFFFF" transform="matrix(1.00, 0.00, -0.00, -1.00, 598.1, 439.7)"> </text><text xml:space="preserve" font-family="Roboto-Bold,Roboto" font-weight="bold" font-size="95.0" fill="#FFFFFF" transform="matrix(1.00, 0.00, -0.00, -1.00, 621.8, 439.7)">t</text><text xml:space="preserve" font-family="Roboto-Bold,Roboto" font-weight="bold" font-size="95.0" fill="#FFFFFF" transform="matrix(1.00, 0.00, -0.00, -1.00, 654.9, 439.7)">o</text><text xml:space="preserve" font-family="Roboto-Bold,Roboto" font-weight="bold" font-size="95.0" fill="#FFFFFF" transform="matrix(1.00, 0.00, -0.00, -1.00, 708.6, 439.7)">g</text><text xml:space="preserve" font-family="Roboto-Bold,Roboto" font-weight="bold" font-size="95.0" fill="#FFFFFF" transform="matrix(1.00, 0.00, -0.00, -1.00, 762.2, 439.7)">e</text><text xml:space="preserve" font-family="Roboto-Bold,Roboto" font-weight="bold" font-size="95.0" fill="#FFFFFF" transform="matrix(1.00, 0.00, -0.00, -1.00, 812.5, 439.7)">t</text><text xml:space="preserve" font-family="Roboto-Bold,Roboto" font-weight="bold" font-size="95.0" fill="#FFFFFF" transform="matrix(1.00, 0.00, -0.00, -1.00, 845.7, 439.7)">h</text><text xml:space="preserve" font-family="Roboto-Bold,Roboto" font-weight="bold" font-size="95.0" fill="#FFFFFF" transform="matrix(1.00, 0.00, -0.00, -1.00, 899.3, 439.7)">e</text><text xml:space="preserve" font-family="Roboto-Bold,Roboto" font-weight="bold" font-size="95.0" fill="#FFFFFF" transform="matrix(1.00, 0.00, -0.00, -1.00, 949.6, 439.7)">r</text></g></svg>